<svg xmlns="http://www.w3.org/2000/svg" width="26" height="19.092" viewBox="0 0 26 19.092">
  <path fill="rgb(254,254,254)" fill-rule="evenodd" d="M25.5077937 8.70369357L17.43048668.4999132C16.93828038 0 16.14117495 0 15.64896865.4999132c-.4922063.49948665-.4922063 1.30992614 0 1.8094128l5.92663425 6.01943267H1.25991374C.5640214 8.32875867 0 8.90161142 0 9.60839997c0 .70678854.56402139 1.2796413 1.25991374 1.2796413H21.5756029l-5.92663425 6.01985922c-.4922063.49948665-.4922063 1.30992614 0 1.8094128.24610315.2499566.56864107.3749349.89075901.3749349.32211795 0 .64465587-.1249783.89075902-.3749349l8.07730702-8.20378038c.4922063-.4999132.4922063-1.30992614 0-1.80983934z"/>
</svg>
