<?xml version="1.0" standalone="no"?>
<!DOCTYPE svg PUBLIC "-//W3C//DTD SVG 1.1//EN" "http://www.w3.org/Graphics/SVG/1.1/DTD/svg11.dtd" >
<svg xmlns="http://www.w3.org/2000/svg" xmlns:xlink="http://www.w3.org/1999/xlink" version="1.1">
<metadata>
Created by FontForge 20170924 at Tue Oct 13 11:56:58 2015
 By www-data
Copyright \(c\) 2015 by Mattox Shuler. All rights reserved.
</metadata>
<defs>
<font id="Termina-Regular" horiz-adv-x="899" >
  <font-face 
    font-family="Termina-Regular"
    font-weight="400"
    font-stretch="normal"
    units-per-em="1000"
    panose-1="0 0 5 0 0 0 0 0 0 0"
    ascent="800"
    descent="-200"
    x-height="545"
    cap-height="700"
    bbox="-382 -299 1548 1086"
    underline-thickness="50"
    underline-position="-100"
    stemh="78"
    stemv="84"
    unicode-range="U+0020-FB02"
  />
<missing-glyph horiz-adv-x="505" 
d="M414 770v-1010h-320v1010h320zM336 702h-166v-33h65v-37h-66v-34h167v34h-66v37h66v33zM270 572h-101v-105h167v34h-66v71zM235 538v-37h-33v37h33zM336 440h-167v-34h66v-37h-66v-33h101v70h66v34zM336 379h-33v-67h-134v-34h167v101zM336 256h-101v-57h35v24h33v-48
h-101v81h-33v-114h167v114zM336 81h-167v-114h167v114zM303 48v-48h-101v48h101zM336 -56h-167v-34h70l-70 -47v-33h167v33h-103l71 47h32v34z" />
    <glyph glyph-name="fi" unicode="fi" horiz-adv-x="765" 
d="M319 697c-60 0 -107 -25 -107 -94v-58h250v-70h-250v-475h-82v475h-110v70h110v45c0 118 84 170 181 170c55 0 115 -17 158 -50l-39 -52c-39 29 -73 39 -111 39zM622 735c33 0 58 -23 58 -53c0 -29 -25 -53 -58 -53s-58 24 -58 53c0 30 25 53 58 53zM581 0v545h82v-545
h-82z" />
    <glyph glyph-name="fl" unicode="fl" horiz-adv-x="765" 
d="M319 697c-60 0 -107 -25 -107 -94v-58h250v-70h-250v-475h-82v475h-110v70h110v45c0 118 84 170 181 170c55 0 115 -17 158 -50l-39 -52c-39 29 -73 39 -111 39zM581 740h82v-740h-82v740z" />
    <glyph glyph-name=".notdef" horiz-adv-x="505" 
d="M414 770v-1010h-320v1010h320zM336 702h-166v-33h65v-37h-66v-34h167v34h-66v37h66v33zM270 572h-101v-105h167v34h-66v71zM235 538v-37h-33v37h33zM336 440h-167v-34h66v-37h-66v-33h101v70h66v34zM336 379h-33v-67h-134v-34h167v101zM336 256h-101v-57h35v24h33v-48
h-101v81h-33v-114h167v114zM336 81h-167v-114h167v114zM303 48v-48h-101v48h101zM336 -56h-167v-34h70l-70 -47v-33h167v33h-103l71 47h32v34z" />
    <glyph glyph-name="A" unicode="A" horiz-adv-x="896" 
d="M785 0l-102 188h-472l-102 -188h-93l385 700h94l385 -700h-95zM252 264h390l-195 359z" />
    <glyph glyph-name="Aacute" unicode="&#xc1;" horiz-adv-x="896" 
d="M660 930l-221 -150h-78l165 150h134zM785 0l-102 188h-472l-102 -188h-93l385 700h94l385 -700h-95zM252 264h390l-195 359z" />
    <glyph glyph-name="Abreve" unicode="&#x102;" horiz-adv-x="896" 
d="M449 775c-132 0 -172 99 -172 155h69c2 -45 37 -91 103 -91c65 0 101 46 102 91h70c0 -56 -41 -155 -172 -155zM785 0l-102 188h-472l-102 -188h-93l385 700h94l385 -700h-95zM252 264h390l-195 359z" />
    <glyph glyph-name="Acircumflex" unicode="&#xc2;" horiz-adv-x="896" 
d="M447 883l-106 -103h-95l156 150h91l156 -150h-95zM785 0l-102 188h-472l-102 -188h-93l385 700h94l385 -700h-95zM252 264h390l-195 359z" />
    <glyph glyph-name="Adieresis" unicode="&#xc4;" horiz-adv-x="896" 
d="M318 793c-31 0 -53 23 -53 48c0 26 22 49 53 49c30 0 52 -23 52 -49c0 -25 -22 -48 -52 -48zM578 793c-31 0 -53 23 -53 48c0 26 22 49 53 49c30 0 52 -23 52 -49c0 -25 -22 -48 -52 -48zM785 0l-102 188h-472l-102 -188h-93l385 700h94l385 -700h-95zM252 264h390
l-195 359z" />
    <glyph glyph-name="Agrave" unicode="&#xc0;" horiz-adv-x="896" 
d="M536 780h-78l-221 150h134zM785 0l-102 188h-472l-102 -188h-93l385 700h94l385 -700h-95zM252 264h390l-195 359z" />
    <glyph glyph-name="Amacron" unicode="&#x100;" horiz-adv-x="896" 
d="M641 874v-69h-386v69h386zM785 0l-102 188h-472l-102 -188h-93l385 700h94l385 -700h-95zM252 264h390l-195 359z" />
    <glyph glyph-name="Aogonek" unicode="&#x104;" horiz-adv-x="896" 
d="M913 -178l20 -28c-20 -17 -56 -39 -111 -39c-65 0 -132 30 -132 102c0 65 47 118 116 143h-21l-102 188h-472l-102 -188h-93l385 700h94l385 -700h-1c-64 -23 -120 -75 -120 -135c0 -48 36 -67 77 -67c34 0 60 13 77 24zM252 264h390l-195 359z" />
    <glyph glyph-name="Aring" unicode="&#xc5;" horiz-adv-x="896" 
d="M448 773c-70 0 -129 35 -129 107c0 71 59 107 129 107s129 -36 129 -107c0 -72 -59 -107 -129 -107zM449 941c-42 0 -70 -21 -70 -61s28 -61 70 -61c41 0 70 21 70 61s-29 61 -70 61zM785 0l-102 188h-472l-102 -188h-93l385 700h94l385 -700h-95zM252 264h390l-195 359z
" />
    <glyph glyph-name="Aringacute" unicode="&#x1fa;" horiz-adv-x="896" 
d="M448 773c-70 0 -129 35 -129 107c0 35 15 62 38 80l128 126h94l-125 -99c68 -2 123 -38 123 -107c0 -72 -59 -107 -129 -107zM519 880c0 40 -29 61 -70 61c-42 0 -70 -21 -70 -61s28 -61 70 -61c41 0 70 21 70 61zM785 0l-102 188h-472l-102 -188h-93l385 700h94
l385 -700h-95zM252 264h390l-195 359z" />
    <glyph glyph-name="Atilde" unicode="&#xc3;" horiz-adv-x="896" 
d="M344 858c-53 0 -77 -27 -94 -52l-49 32c20 38 65 85 147 85c88 0 127 -57 204 -57c53 0 76 27 94 52l49 -32c-20 -38 -66 -85 -147 -85c-89 0 -128 57 -204 57zM785 0l-102 188h-472l-102 -188h-93l385 700h94l385 -700h-95zM252 264h390l-195 359z" />
    <glyph glyph-name="AE" unicode="&#xc6;" horiz-adv-x="1386" 
d="M736 78h593v-78h-677v178h-400l-156 -178h-102l616 700h57h652v-78h-583v-227h494v-78h-494v-239zM319 254h333v380z" />
    <glyph glyph-name="AEacute" unicode="&#x1fc;" horiz-adv-x="1386" 
d="M1159 930l-221 -150h-78l165 150h134zM736 78h593v-78h-677v178h-400l-156 -178h-102l616 700h57h652v-78h-583v-227h494v-78h-494v-239zM319 254h333v380z" />
    <glyph glyph-name="B" unicode="B" horiz-adv-x="926" 
d="M675 360c109 -7 190 -51 190 -168c0 -128 -101 -192 -263 -192h-486v700h466c142 0 243 -60 243 -178c0 -80 -47 -154 -150 -162zM199 624v-228h371c100 0 171 26 171 114s-71 114 -171 114h-371zM587 76c120 0 191 36 191 122c0 87 -71 122 -191 122h-388v-244h388z" />
    <glyph glyph-name="C" unicode="C" horiz-adv-x="887" 
d="M487 57c122 0 223 40 277 134l80 -40c-66 -105 -188 -172 -359 -172c-261 0 -421 144 -421 371s160 371 424 371c168 0 290 -68 356 -172l-80 -40c-55 93 -155 134 -277 134c-203 0 -337 -100 -337 -293s134 -293 337 -293z" />
    <glyph glyph-name="Cacute" unicode="&#x106;" horiz-adv-x="887" 
d="M692 931l-221 -150h-78l165 150h134zM487 57c122 0 223 40 277 134l80 -40c-66 -105 -188 -172 -359 -172c-261 0 -421 144 -421 371s160 371 424 371c168 0 290 -68 356 -172l-80 -40c-55 93 -155 134 -277 134c-203 0 -337 -100 -337 -293s134 -293 337 -293z" />
    <glyph glyph-name="Ccaron" unicode="&#x10c;" horiz-adv-x="887" 
d="M278 931l156 -150h91l156 150h-95l-107 -103l-106 103h-95zM487 57c122 0 223 40 277 134l80 -40c-66 -105 -188 -172 -359 -172c-261 0 -421 144 -421 371s160 371 424 371c168 0 290 -68 356 -172l-80 -40c-55 93 -155 134 -277 134c-203 0 -337 -100 -337 -293
s134 -293 337 -293z" />
    <glyph glyph-name="Ccedilla" unicode="&#xc7;" horiz-adv-x="887" 
d="M487 57c122 0 223 40 277 134l80 -40c-66 -105 -188 -172 -359 -172c-261 0 -421 144 -421 371s160 371 424 371c168 0 290 -68 356 -172l-80 -40c-55 93 -155 134 -277 134c-203 0 -337 -100 -337 -293s134 -293 337 -293zM513 -52l-119 -158l-69 18l103 156z" />
    <glyph glyph-name="Ccircumflex" unicode="&#x108;" horiz-adv-x="887" 
d="M278 781h95l106 103l107 -103h95l-156 150h-91zM487 57c122 0 223 40 277 134l80 -40c-66 -105 -188 -172 -359 -172c-261 0 -421 144 -421 371s160 371 424 371c168 0 290 -68 356 -172l-80 -40c-55 93 -155 134 -277 134c-203 0 -337 -100 -337 -293s134 -293 337 -293
z" />
    <glyph glyph-name="Cdotaccent" unicode="&#x10a;" horiz-adv-x="887" 
d="M480 794c-29 0 -48 17 -48 42c0 26 19 43 48 43c28 0 47 -17 47 -43c0 -25 -19 -42 -47 -42zM487 57c122 0 223 40 277 134l80 -40c-66 -105 -188 -172 -359 -172c-261 0 -421 144 -421 371s160 371 424 371c168 0 290 -68 356 -172l-80 -40c-55 93 -155 134 -277 134
c-203 0 -337 -100 -337 -293s134 -293 337 -293z" />
    <glyph glyph-name="D" unicode="D" horiz-adv-x="940" 
d="M456 700c256 0 420 -135 420 -350s-164 -350 -420 -350h-340v700h340zM450 78c199 0 340 93 340 272s-141 272 -340 272h-250v-544h250z" />
    <glyph glyph-name="Eth" unicode="&#xd0;" horiz-adv-x="952" 
d="M468 700c256 0 420 -135 420 -350s-164 -350 -420 -350h-340v322h-105v70h105v308h340zM462 78c199 0 340 89 340 272s-141 272 -340 272h-250v-230h228v-70h-228v-244h250z" />
    <glyph glyph-name="Dcaron" unicode="&#x10e;" horiz-adv-x="940" 
d="M259 930l156 -150h91l156 150h-95l-107 -103l-106 103h-95zM456 700c256 0 420 -135 420 -350s-164 -350 -420 -350h-340v700h340zM450 78c199 0 340 93 340 272s-141 272 -340 272h-250v-544h250z" />
    <glyph glyph-name="Dcroat" unicode="&#x110;" horiz-adv-x="952" 
d="M468 700c256 0 420 -135 420 -350s-164 -350 -420 -350h-340v322h-105v70h105v308h340zM462 78c199 0 340 89 340 272s-141 272 -340 272h-250v-230h228v-70h-228v-244h250z" />
    <glyph glyph-name="E" unicode="E" horiz-adv-x="850" 
d="M200 78h593v-78h-677v700h667v-78h-583v-227h494v-78h-494v-239z" />
    <glyph glyph-name="Eacute" unicode="&#xc9;" horiz-adv-x="850" 
d="M657 930l-221 -150h-78l165 150h134zM200 78h593v-78h-677v700h667v-78h-583v-227h494v-78h-494v-239z" />
    <glyph glyph-name="Ebreve" unicode="&#x114;" horiz-adv-x="850" 
d="M618 930c0 -56 -41 -155 -172 -155c-132 0 -172 99 -172 155h69c2 -45 37 -91 103 -91c65 0 101 46 102 91h70zM200 78h593v-78h-677v700h667v-78h-583v-227h494v-78h-494v-239z" />
    <glyph glyph-name="Ecaron" unicode="&#x11a;" horiz-adv-x="850" 
d="M243 930l156 -150h91l156 150h-95l-107 -103l-106 103h-95zM200 78h593v-78h-677v700h667v-78h-583v-227h494v-78h-494v-239z" />
    <glyph glyph-name="Ecircumflex" unicode="&#xca;" horiz-adv-x="850" 
d="M243 780h95l106 103l107 -103h95l-156 150h-91zM200 78h593v-78h-677v700h667v-78h-583v-227h494v-78h-494v-239z" />
    <glyph glyph-name="Edieresis" unicode="&#xcb;" horiz-adv-x="850" 
d="M315 793c-31 0 -53 23 -53 48c0 26 22 49 53 49c30 0 52 -23 52 -49c0 -25 -22 -48 -52 -48zM575 793c-31 0 -53 23 -53 48c0 26 22 49 53 49c30 0 52 -23 52 -49c0 -25 -22 -48 -52 -48zM200 78h593v-78h-677v700h667v-78h-583v-227h494v-78h-494v-239z" />
    <glyph glyph-name="Edotaccent" unicode="&#x116;" horiz-adv-x="850" 
d="M445 793c-29 0 -48 17 -48 42c0 26 19 43 48 43c28 0 47 -17 47 -43c0 -25 -19 -42 -47 -42zM200 78h593v-78h-677v700h667v-78h-583v-227h494v-78h-494v-239z" />
    <glyph glyph-name="Egrave" unicode="&#xc8;" horiz-adv-x="850" 
d="M234 930h134l165 -150h-78zM200 78h593v-78h-677v700h667v-78h-583v-227h494v-78h-494v-239z" />
    <glyph glyph-name="Emacron" unicode="&#x112;" horiz-adv-x="850" 
d="M252 874h386v-69h-386v69zM200 78h593v-78h-677v700h667v-78h-583v-227h494v-78h-494v-239z" />
    <glyph glyph-name="Eogonek" unicode="&#x118;" horiz-adv-x="850" 
d="M826 -178l20 -28c-20 -17 -56 -39 -111 -39c-65 0 -132 30 -132 102c0 65 47 118 116 143h-603v700h667v-78h-583v-227h494v-78h-494v-239h593v-78h-1c-64 -23 -120 -75 -120 -135c0 -48 36 -67 77 -67c34 0 60 13 77 24z" />
    <glyph glyph-name="F" unicode="F" horiz-adv-x="818" 
d="M782 622h-582v-245h494v-78h-494v-299h-84v700h666v-78z" />
    <glyph glyph-name="G" unicode="G" horiz-adv-x="948" 
d="M887 364v-194c-58 -109 -198 -191 -392 -191c-271 0 -431 143 -431 371s160 371 428 371c171 0 286 -64 356 -146l-73 -51c-63 79 -156 119 -283 119c-209 0 -342 -99 -342 -293s134 -293 348 -293c139 0 253 41 305 138v91h-318v78h402z" />
    <glyph glyph-name="Gbreve" unicode="&#x11e;" horiz-adv-x="948" 
d="M665 931c0 -56 -41 -155 -172 -155c-132 0 -172 99 -172 155h69c2 -45 37 -91 103 -91c65 0 101 46 102 91h70zM887 364v-194c-58 -109 -198 -191 -392 -191c-271 0 -431 143 -431 371s160 371 428 371c171 0 286 -64 356 -146l-73 -51c-63 79 -156 119 -283 119
c-209 0 -342 -99 -342 -293s134 -293 348 -293c139 0 253 41 305 138v91h-318v78h402z" />
    <glyph glyph-name="Gcircumflex" unicode="&#x11c;" horiz-adv-x="948" 
d="M290 781h95l106 103l107 -103h95l-156 150h-91zM887 364v-194c-58 -109 -198 -191 -392 -191c-271 0 -431 143 -431 371s160 371 428 371c171 0 286 -64 356 -146l-73 -51c-63 79 -156 119 -283 119c-209 0 -342 -99 -342 -293s134 -293 348 -293c139 0 253 41 305 138
v91h-318v78h402z" />
    <glyph glyph-name="Gcommaaccent" unicode="&#x122;" horiz-adv-x="948" 
d="M887 364v-194c-58 -109 -198 -191 -392 -191c-271 0 -431 143 -431 371s160 371 428 371c171 0 286 -64 356 -146l-73 -51c-63 79 -156 119 -283 119c-209 0 -342 -99 -342 -293s134 -293 348 -293c139 0 253 41 305 138v91h-318v78h402zM493 -58c36 0 62 -25 62 -64
c0 -53 -30 -128 -82 -177l-27 23c40 46 55 75 60 111c-3 -3 -10 -4 -16 -4c-31 0 -56 23 -56 56c0 31 25 55 59 55z" />
    <glyph glyph-name="Gdotaccent" unicode="&#x120;" horiz-adv-x="948" 
d="M492 794c-29 0 -48 17 -48 42c0 26 19 43 48 43c28 0 47 -17 47 -43c0 -25 -19 -42 -47 -42zM887 364v-194c-58 -109 -198 -191 -392 -191c-271 0 -431 143 -431 371s160 371 428 371c171 0 286 -64 356 -146l-73 -51c-63 79 -156 119 -283 119
c-209 0 -342 -99 -342 -293s134 -293 348 -293c139 0 253 41 305 138v91h-318v78h402z" />
    <glyph glyph-name="H" unicode="H" horiz-adv-x="976" 
d="M776 700h84v-700h-84v315h-576v-315h-84v700h84v-305h576v305z" />
    <glyph glyph-name="Hbar" unicode="&#x126;" horiz-adv-x="1001" 
d="M981 568v-62h-108v-506h-84v315h-576v-315h-84v506h-109v62h109v132h84v-132h576v132h84v-132h108zM789 395v111h-576v-111h576z" />
    <glyph glyph-name="Hcircumflex" unicode="&#x124;" horiz-adv-x="976" 
d="M286 781h95l106 103l107 -103h95l-156 150h-91zM776 700h84v-700h-84v315h-576v-315h-84v700h84v-305h576v305z" />
    <glyph glyph-name="I" unicode="I" horiz-adv-x="316" 
d="M200 0h-84v700h84v-700z" />
    <glyph glyph-name="IJ" unicode="&#x132;" horiz-adv-x="1007" 
d="M200 0h-84v700h84v-700zM404 144c39 -58 94 -87 193 -87c159 0 224 96 224 238v405h84v-410c0 -171 -91 -311 -308 -311c-132 0 -215 46 -264 118z" />
    <glyph glyph-name="Iacute" unicode="&#xcd;" horiz-adv-x="316" 
d="M370 930l-221 -150h-78l165 150h134zM200 0h-84v700h84v-700z" />
    <glyph glyph-name="Ibreve" unicode="&#x12c;" horiz-adv-x="316" 
d="M331 930c0 -56 -41 -155 -172 -155c-132 0 -172 99 -172 155h69c2 -45 37 -91 103 -91c65 0 101 46 102 91h70zM200 0h-84v700h84v-700z" />
    <glyph glyph-name="Icircumflex" unicode="&#xce;" horiz-adv-x="316" 
d="M-44 780h95l106 103l107 -103h95l-156 150h-91zM200 0h-84v700h84v-700z" />
    <glyph glyph-name="Idieresis" unicode="&#xcf;" horiz-adv-x="316" 
d="M28 793c-31 0 -53 23 -53 48c0 26 22 49 53 49c30 0 52 -23 52 -49c0 -25 -22 -48 -52 -48zM288 793c-31 0 -53 23 -53 48c0 26 22 49 53 49c30 0 52 -23 52 -49c0 -25 -22 -48 -52 -48zM200 0h-84v700h84v-700z" />
    <glyph glyph-name="Idotaccent" unicode="&#x130;" horiz-adv-x="316" 
d="M158 793c-29 0 -48 17 -48 42c0 26 19 43 48 43c28 0 47 -17 47 -43c0 -25 -19 -42 -47 -42zM200 0h-84v700h84v-700z" />
    <glyph glyph-name="Igrave" unicode="&#xcc;" horiz-adv-x="316" 
d="M-53 930h134l165 -150h-78zM200 0h-84v700h84v-700z" />
    <glyph glyph-name="Imacron" unicode="&#x12a;" horiz-adv-x="316" 
d="M-35 874h386v-69h-386v69zM200 0h-84v700h84v-700z" />
    <glyph glyph-name="Iogonek" unicode="&#x12e;" horiz-adv-x="316" 
d="M233 -178l20 -28c-20 -17 -56 -39 -111 -39c-65 0 -132 30 -132 102c0 65 47 118 116 143h-10v700h84v-700h-1c-64 -23 -120 -75 -120 -135c0 -48 36 -67 77 -67c34 0 60 13 77 24z" />
    <glyph glyph-name="Itilde" unicode="&#x128;" horiz-adv-x="316" 
d="M356 918l49 -32c-20 -38 -66 -85 -147 -85c-89 0 -128 57 -204 57c-53 0 -77 -27 -94 -52l-49 32c20 38 65 85 147 85c88 0 127 -57 204 -57c53 0 76 27 94 52zM200 0h-84v700h84v-700z" />
    <glyph glyph-name="J" unicode="J" horiz-adv-x="691" 
d="M88 144c39 -58 94 -87 193 -87c159 0 224 96 224 238v405h84v-410c0 -171 -91 -311 -308 -311c-132 0 -215 46 -264 118z" />
    <glyph glyph-name="Jcircumflex" unicode="&#x134;" horiz-adv-x="691" 
d="M345 780h95l106 103l107 -103h95l-156 150h-91zM88 144c39 -58 94 -87 193 -87c159 0 224 96 224 238v405h84v-410c0 -171 -91 -311 -308 -311c-132 0 -215 46 -264 118z" />
    <glyph glyph-name="K" unicode="K" horiz-adv-x="881" 
d="M872 0h-107l-332 376l-233 -182v-194h-84v700h84v-410l530 410h120l-349 -275z" />
    <glyph glyph-name="Kcommaaccent" unicode="&#x136;" horiz-adv-x="881" 
d="M501 425l371 -425h-107l-332 376l-233 -182v-194h-84v700h84v-410l530 410h120zM470 -58c36 0 62 -25 62 -64c0 -53 -30 -128 -82 -177l-27 23c40 46 55 75 60 111c-3 -3 -10 -4 -16 -4c-31 0 -56 23 -56 56c0 31 25 55 59 55z" />
    <glyph glyph-name="L" unicode="L" horiz-adv-x="759" 
d="M200 78h536v-78h-620v700h84v-622z" />
    <glyph glyph-name="Lacute" unicode="&#x139;" horiz-adv-x="759" 
d="M370 930l-221 -150h-78l165 150h134zM200 78h536v-78h-620v700h84v-622z" />
    <glyph glyph-name="Lcaron" unicode="&#x13d;" horiz-adv-x="759" 
d="M455 720c36 0 62 -25 62 -64c0 -53 -30 -128 -82 -177l-27 23c40 46 55 75 60 111c-3 -3 -10 -4 -16 -4c-31 0 -56 23 -56 56c0 31 25 55 59 55zM200 78h536v-78h-620v700h84v-622z" />
    <glyph glyph-name="Lcommaaccent" unicode="&#x13b;" horiz-adv-x="759" 
d="M200 78h536v-78h-620v700h84v-622zM426 -58c36 0 62 -25 62 -64c0 -53 -30 -128 -82 -177l-27 23c40 46 55 75 60 111c-3 -3 -10 -4 -16 -4c-31 0 -56 23 -56 56c0 31 25 55 59 55z" />
    <glyph glyph-name="Ldot" unicode="&#x13f;" horiz-adv-x="759" 
d="M200 78h536v-78h-620v700h84v-622zM441 326c-35 0 -60 24 -60 56s25 56 60 56s60 -24 60 -56s-25 -56 -60 -56z" />
    <glyph glyph-name="Lslash" unicode="&#x141;" horiz-adv-x="777" 
d="M218 78h536v-78h-620v315l-102 -48v71l102 48v314h84v-274l201 96v-72l-201 -95v-277z" />
    <glyph glyph-name="M" unicode="M" horiz-adv-x="1116" 
d="M910 700h90v-700h-84v582l-356 -431h-6l-356 431v-582h-82v700h92l351 -428z" />
    <glyph glyph-name="N" unicode="N" horiz-adv-x="976" 
d="M778 700h82v-700h-74l-588 593v-593h-82v700h91l571 -577v577z" />
    <glyph glyph-name="Nacute" unicode="&#x143;" horiz-adv-x="976" 
d="M701 930l-221 -150h-78l165 150h134zM778 700h82v-700h-74l-588 593v-593h-82v700h91l571 -577v577z" />
    <glyph glyph-name="Ncaron" unicode="&#x147;" horiz-adv-x="976" 
d="M287 930l156 -150h91l156 150h-95l-107 -103l-106 103h-95zM778 700h82v-700h-74l-588 593v-593h-82v700h91l571 -577v577z" />
    <glyph glyph-name="Ncommaaccent" unicode="&#x145;" horiz-adv-x="976" 
d="M778 700h82v-700h-74l-588 593v-593h-82v700h91l571 -577v577zM490 -58c36 0 62 -25 62 -64c0 -53 -30 -128 -82 -177l-27 23c40 46 55 75 60 111c-3 -3 -10 -4 -16 -4c-31 0 -56 23 -56 56c0 31 25 55 59 55z" />
    <glyph glyph-name="Eng" unicode="&#x14a;" horiz-adv-x="976" 
d="M777 700h83v-683v-58c0 -115 -68 -179 -171 -179c-41 0 -77 7 -100 18l20 63c15 -7 32 -11 64 -11c69 0 106 29 106 105v52l-581 586v-593h-82v700h91l570 -577v577z" />
    <glyph glyph-name="Ntilde" unicode="&#xd1;" horiz-adv-x="976" 
d="M687 918l49 -32c-20 -38 -66 -85 -147 -85c-89 0 -128 57 -204 57c-53 0 -77 -27 -94 -52l-49 32c20 38 65 85 147 85c88 0 127 -57 204 -57c53 0 76 27 94 52zM778 700h82v-700h-74l-588 593v-593h-82v700h91l571 -577v577z" />
    <glyph glyph-name="O" unicode="O" horiz-adv-x="980" 
d="M490 -21c-266 0 -426 143 -426 371s160 371 426 371s426 -143 426 -371s-160 -371 -426 -371zM490 57c206 0 340 105 340 293s-134 293 -340 293s-340 -105 -340 -293s134 -293 340 -293z" />
    <glyph glyph-name="Oacute" unicode="&#xd3;" horiz-adv-x="980" 
d="M702 930l-221 -150h-78l165 150h134zM490 -21c-266 0 -426 143 -426 371s160 371 426 371s426 -143 426 -371s-160 -371 -426 -371zM490 57c206 0 340 105 340 293s-134 293 -340 293s-340 -105 -340 -293s134 -293 340 -293z" />
    <glyph glyph-name="Obreve" unicode="&#x14e;" horiz-adv-x="980" 
d="M663 930c0 -56 -41 -155 -172 -155c-132 0 -172 99 -172 155h69c2 -45 37 -91 103 -91c65 0 101 46 102 91h70zM490 -21c-266 0 -426 143 -426 371s160 371 426 371s426 -143 426 -371s-160 -371 -426 -371zM490 57c206 0 340 105 340 293s-134 293 -340 293
s-340 -105 -340 -293s134 -293 340 -293z" />
    <glyph glyph-name="Ocircumflex" unicode="&#xd4;" horiz-adv-x="980" 
d="M288 780h95l106 103l107 -103h95l-156 150h-91zM490 -21c-266 0 -426 143 -426 371s160 371 426 371s426 -143 426 -371s-160 -371 -426 -371zM490 57c206 0 340 105 340 293s-134 293 -340 293s-340 -105 -340 -293s134 -293 340 -293z" />
    <glyph glyph-name="Odieresis" unicode="&#xd6;" horiz-adv-x="980" 
d="M360 793c-31 0 -53 23 -53 48c0 26 22 49 53 49c30 0 52 -23 52 -49c0 -25 -22 -48 -52 -48zM620 793c-31 0 -53 23 -53 48c0 26 22 49 53 49c30 0 52 -23 52 -49c0 -25 -22 -48 -52 -48zM490 -21c-266 0 -426 143 -426 371s160 371 426 371s426 -143 426 -371
s-160 -371 -426 -371zM490 57c206 0 340 105 340 293s-134 293 -340 293s-340 -105 -340 -293s134 -293 340 -293z" />
    <glyph glyph-name="Ograve" unicode="&#xd2;" horiz-adv-x="980" 
d="M279 930h134l165 -150h-78zM490 -21c-266 0 -426 143 -426 371s160 371 426 371s426 -143 426 -371s-160 -371 -426 -371zM490 57c206 0 340 105 340 293s-134 293 -340 293s-340 -105 -340 -293s134 -293 340 -293z" />
    <glyph glyph-name="Ohungarumlaut" unicode="&#x150;" horiz-adv-x="980" 
d="M557 930l-164 -150h-87l164 150h87zM754 930l-164 -150h-87l164 150h87zM490 -21c-266 0 -426 143 -426 371s160 371 426 371s426 -143 426 -371s-160 -371 -426 -371zM490 57c206 0 340 105 340 293s-134 293 -340 293s-340 -105 -340 -293s134 -293 340 -293z" />
    <glyph glyph-name="Omacron" unicode="&#x14c;" horiz-adv-x="980" 
d="M297 874h386v-69h-386v69zM490 -21c-266 0 -426 143 -426 371s160 371 426 371s426 -143 426 -371s-160 -371 -426 -371zM490 57c206 0 340 105 340 293s-134 293 -340 293s-340 -105 -340 -293s134 -293 340 -293z" />
    <glyph glyph-name="Oslash" unicode="&#xd8;" horiz-adv-x="980" 
d="M764 651c98 -64 152 -168 152 -301c0 -228 -160 -371 -426 -371c-80 0 -150 13 -209 37l-82 -108h-91l108 142c-98 63 -152 167 -152 300c0 228 160 371 426 371c79 0 149 -13 208 -37l82 108h91zM150 350c0 -106 42 -185 116 -234l382 502c-46 16 -99 25 -158 25
c-206 0 -340 -105 -340 -293zM490 57c206 0 340 105 340 293c0 106 -43 185 -117 235l-381 -502c46 -17 99 -26 158 -26z" />
    <glyph glyph-name="Oslashacute" unicode="&#x1fe;" horiz-adv-x="980" 
d="M701 930l-221 -150h-78l165 150h134zM764 651c98 -64 152 -168 152 -301c0 -228 -160 -371 -426 -371c-80 0 -150 13 -209 37l-82 -108h-91l108 142c-98 63 -152 167 -152 300c0 228 160 371 426 371c79 0 149 -13 208 -37l82 108h91zM150 350c0 -106 42 -185 116 -234
l382 502c-46 16 -99 25 -158 25c-206 0 -340 -105 -340 -293zM490 57c206 0 340 105 340 293c0 106 -43 185 -117 235l-381 -502c46 -17 99 -26 158 -26z" />
    <glyph glyph-name="Otilde" unicode="&#xd5;" horiz-adv-x="980" 
d="M688 918l49 -32c-20 -38 -66 -85 -147 -85c-89 0 -128 57 -204 57c-53 0 -77 -27 -94 -52l-49 32c20 38 65 85 147 85c88 0 127 -57 204 -57c53 0 76 27 94 52zM490 -21c-266 0 -426 143 -426 371s160 371 426 371s426 -143 426 -371s-160 -371 -426 -371zM490 57
c206 0 340 105 340 293s-134 293 -340 293s-340 -105 -340 -293s134 -293 340 -293z" />
    <glyph glyph-name="OE" unicode="&#x152;" horiz-adv-x="1474" 
d="M824 78h593v-78h-677h-256c-256 0 -420 135 -420 350s164 350 420 350h340h583v-78h-583v-227h494v-78h-494v-239zM740 78v544h-250c-199 0 -340 -89 -340 -272s141 -272 340 -272h250z" />
    <glyph glyph-name="P" unicode="P" horiz-adv-x="895" 
d="M584 700c161 0 268 -82 268 -222s-107 -222 -268 -222h-384v-256h-84v700h468zM578 334c114 0 188 46 188 144s-74 144 -188 144h-378v-288h378z" />
    <glyph glyph-name="Thorn" unicode="&#xde;" horiz-adv-x="895" 
d="M585 579c159 0 267 -83 267 -222c0 -141 -108 -222 -267 -222h-385v-135h-84v700h84v-121h385zM579 209c114 0 187 47 187 148s-73 148 -187 148h-379v-296h379z" />
    <glyph glyph-name="Q" unicode="Q" horiz-adv-x="980" 
d="M916 350c0 -133 -55 -237 -153 -301l105 -113l-54 -50l-119 128c-58 -23 -127 -35 -205 -35c-266 0 -426 143 -426 371s160 371 426 371s426 -143 426 -371zM490 57c54 0 103 7 146 21l-113 122l54 50l129 -139c79 48 124 130 124 239c0 188 -134 293 -340 293
s-340 -105 -340 -293s134 -293 340 -293z" />
    <glyph glyph-name="R" unicode="R" horiz-adv-x="925" 
d="M876 0h-110l-232 268h-333v-268h-85v700h470c156 0 268 -78 268 -216c0 -122 -88 -198 -217 -213zM200 346h380c113 0 188 43 188 138s-75 138 -188 138h-380v-276z" />
    <glyph glyph-name="Racute" unicode="&#x154;" horiz-adv-x="925" 
d="M659 930l-221 -150h-78l165 150h134zM876 0h-110l-232 268h-333v-268h-85v700h470c156 0 268 -78 268 -216c0 -122 -88 -198 -217 -213zM200 346h380c113 0 188 43 188 138s-75 138 -188 138h-380v-276z" />
    <glyph glyph-name="Rcaron" unicode="&#x158;" horiz-adv-x="925" 
d="M492 780h-91l-156 150h95l106 -103l107 103h95zM876 0h-110l-232 268h-333v-268h-85v700h470c156 0 268 -78 268 -216c0 -122 -88 -198 -217 -213zM200 346h380c113 0 188 43 188 138s-75 138 -188 138h-380v-276z" />
    <glyph glyph-name="Rcommaaccent" unicode="&#x156;" horiz-adv-x="925" 
d="M876 0h-110l-232 268h-333v-268h-85v700h470c156 0 268 -78 268 -216c0 -122 -88 -198 -217 -213zM200 346h380c113 0 188 43 188 138s-75 138 -188 138h-380v-276zM469 -58c36 0 62 -25 62 -64c0 -53 -30 -128 -82 -177l-27 23c40 46 55 75 60 111c-3 -3 -10 -4 -16 -4
c-31 0 -56 23 -56 56c0 31 25 55 59 55z" />
    <glyph glyph-name="S" unicode="S" horiz-adv-x="864" 
d="M455 399c213 -17 361 -58 361 -196c0 -129 -131 -224 -359 -224c-153 0 -300 48 -409 144l59 63c102 -90 215 -129 355 -129c169 0 268 53 268 140c0 85 -103 106 -292 122c-187 16 -366 57 -366 195c0 132 166 207 353 207c152 0 277 -53 358 -125l-66 -56
c-68 67 -171 102 -288 103c-125 1 -271 -34 -271 -126c0 -87 132 -105 297 -118z" />
    <glyph glyph-name="Sacute" unicode="&#x15a;" horiz-adv-x="864" 
d="M646 930l-221 -150h-78l165 150h134zM455 399c213 -17 361 -58 361 -196c0 -129 -131 -224 -359 -224c-153 0 -300 48 -409 144l59 63c102 -90 215 -129 355 -129c169 0 268 53 268 140c0 85 -103 106 -292 122c-187 16 -366 57 -366 195c0 132 166 207 353 207
c152 0 277 -53 358 -125l-66 -56c-68 67 -171 102 -288 103c-125 1 -271 -34 -271 -126c0 -87 132 -105 297 -118z" />
    <glyph glyph-name="Scaron" unicode="&#x160;" horiz-adv-x="864" 
d="M232 930l156 -150h91l156 150h-95l-107 -103l-106 103h-95zM455 399c213 -17 361 -58 361 -196c0 -129 -131 -224 -359 -224c-153 0 -300 48 -409 144l59 63c102 -90 215 -129 355 -129c169 0 268 53 268 140c0 85 -103 106 -292 122c-187 16 -366 57 -366 195
c0 132 166 207 353 207c152 0 277 -53 358 -125l-66 -56c-68 67 -171 102 -288 103c-125 1 -271 -34 -271 -126c0 -87 132 -105 297 -118z" />
    <glyph glyph-name="Scedilla" unicode="&#x15e;" horiz-adv-x="864" 
d="M455 399c213 -17 361 -58 361 -196c0 -129 -131 -224 -359 -224c-153 0 -300 48 -409 144l59 63c102 -90 215 -129 355 -129c169 0 268 53 268 140c0 85 -103 106 -292 122c-187 16 -366 57 -366 195c0 132 166 207 353 207c152 0 277 -53 358 -125l-66 -56
c-68 67 -171 102 -288 103c-125 1 -271 -34 -271 -126c0 -87 132 -105 297 -118zM475 -52l-119 -158l-69 18l103 156z" />
    <glyph glyph-name="Scircumflex" unicode="&#x15c;" horiz-adv-x="864" 
d="M232 780h95l106 103l107 -103h95l-156 150h-91zM455 399c213 -17 361 -58 361 -196c0 -129 -131 -224 -359 -224c-153 0 -300 48 -409 144l59 63c102 -90 215 -129 355 -129c169 0 268 53 268 140c0 85 -103 106 -292 122c-187 16 -366 57 -366 195
c0 132 166 207 353 207c152 0 277 -53 358 -125l-66 -56c-68 67 -171 102 -288 103c-125 1 -271 -34 -271 -126c0 -87 132 -105 297 -118z" />
    <glyph glyph-name="Scommaaccent" unicode="&#x218;" horiz-adv-x="864" 
d="M455 399c213 -17 361 -58 361 -196c0 -129 -131 -224 -359 -224c-153 0 -300 48 -409 144l59 63c102 -90 215 -129 355 -129c169 0 268 53 268 140c0 85 -103 106 -292 122c-187 16 -366 57 -366 195c0 132 166 207 353 207c152 0 277 -53 358 -125l-66 -56
c-68 67 -171 102 -288 103c-125 1 -271 -34 -271 -126c0 -87 132 -105 297 -118zM448 -58c36 0 62 -25 62 -64c0 -53 -30 -128 -82 -177l-27 23c40 46 55 75 60 111c-3 -3 -10 -4 -16 -4c-31 0 -56 23 -56 56c0 31 25 55 59 55z" />
    <glyph glyph-name="T" unicode="T" horiz-adv-x="789" 
d="M767 700v-76h-331v-624h-84v624h-330v76h745z" />
    <glyph glyph-name="Tbar" unicode="&#x166;" horiz-adv-x="789" 
d="M767 624h-331v-240h151v-69h-151v-315h-84v315h-151v69h151v240h-330v76h745v-76z" />
    <glyph glyph-name="Tcaron" unicode="&#x164;" horiz-adv-x="789" 
d="M192 930l156 -150h91l156 150h-95l-107 -103l-106 103h-95zM767 700v-76h-331v-624h-84v624h-330v76h745z" />
    <glyph glyph-name="uni0162" unicode="&#x162;" horiz-adv-x="789" 
d="M767 700v-76h-331v-624h-84v624h-330v76h745zM425 -43l-119 -158l-69 18l103 156z" />
    <glyph glyph-name="U" unicode="U" horiz-adv-x="943" 
d="M757 700h84v-370c0 -204 -128 -351 -369 -351s-370 147 -370 351v370h84v-365c0 -172 103 -278 286 -278c182 0 285 106 285 278v365z" />
    <glyph glyph-name="Uacute" unicode="&#xda;" horiz-adv-x="943" 
d="M684 930l-221 -150h-78l165 150h134zM757 700h84v-370c0 -204 -128 -351 -369 -351s-370 147 -370 351v370h84v-365c0 -172 103 -278 286 -278c182 0 285 106 285 278v365z" />
    <glyph glyph-name="Ubreve" unicode="&#x16c;" horiz-adv-x="943" 
d="M645 930c0 -56 -41 -155 -172 -155c-132 0 -172 99 -172 155h69c2 -45 37 -91 103 -91c65 0 101 46 102 91h70zM757 700h84v-370c0 -204 -128 -351 -369 -351s-370 147 -370 351v370h84v-365c0 -172 103 -278 286 -278c182 0 285 106 285 278v365z" />
    <glyph glyph-name="Ucircumflex" unicode="&#xdb;" horiz-adv-x="943" 
d="M270 780h95l106 103l107 -103h95l-156 150h-91zM757 700h84v-370c0 -204 -128 -351 -369 -351s-370 147 -370 351v370h84v-365c0 -172 103 -278 286 -278c182 0 285 106 285 278v365z" />
    <glyph glyph-name="Udieresis" unicode="&#xdc;" horiz-adv-x="943" 
d="M342 793c-31 0 -53 23 -53 48c0 26 22 49 53 49c30 0 52 -23 52 -49c0 -25 -22 -48 -52 -48zM602 793c-31 0 -53 23 -53 48c0 26 22 49 53 49c30 0 52 -23 52 -49c0 -25 -22 -48 -52 -48zM757 700h84v-370c0 -204 -128 -351 -369 -351s-370 147 -370 351v370h84v-365
c0 -172 103 -278 286 -278c182 0 285 106 285 278v365z" />
    <glyph glyph-name="Ugrave" unicode="&#xd9;" horiz-adv-x="943" 
d="M261 930h134l165 -150h-78zM757 700h84v-370c0 -204 -128 -351 -369 -351s-370 147 -370 351v370h84v-365c0 -172 103 -278 286 -278c182 0 285 106 285 278v365z" />
    <glyph glyph-name="Uhungarumlaut" unicode="&#x170;" horiz-adv-x="943" 
d="M539 930l-164 -150h-87l164 150h87zM736 930l-164 -150h-87l164 150h87zM757 700h84v-370c0 -204 -128 -351 -369 -351s-370 147 -370 351v370h84v-365c0 -172 103 -278 286 -278c182 0 285 106 285 278v365z" />
    <glyph glyph-name="Umacron" unicode="&#x16a;" horiz-adv-x="943" 
d="M279 874h386v-69h-386v69zM757 700h84v-370c0 -204 -128 -351 -369 -351s-370 147 -370 351v370h84v-365c0 -172 103 -278 286 -278c182 0 285 106 285 278v365z" />
    <glyph glyph-name="Uogonek" unicode="&#x172;" horiz-adv-x="943" 
d="M757 700h84v-370c0 -160 -78 -284 -228 -331c-63 -23 -117 -75 -117 -134c0 -48 36 -67 77 -67c34 0 60 13 77 24l20 -28c-20 -17 -56 -39 -111 -39c-65 0 -132 30 -132 102c0 50 29 94 74 123c-10 -1 -19 -1 -29 -1c-241 0 -370 147 -370 351v370h84v-365
c0 -172 103 -278 286 -278c182 0 285 106 285 278v365z" />
    <glyph glyph-name="Uring" unicode="&#x16e;" horiz-adv-x="943" 
d="M472 773c-70 0 -129 35 -129 107c0 71 59 107 129 107s129 -36 129 -107c0 -72 -59 -107 -129 -107zM403 880c0 -40 28 -61 70 -61c41 0 70 21 70 61s-29 61 -70 61c-42 0 -70 -21 -70 -61zM757 700h84v-370c0 -204 -128 -351 -369 -351s-370 147 -370 351v370h84v-365
c0 -172 103 -278 286 -278c182 0 285 106 285 278v365z" />
    <glyph glyph-name="Utilde" unicode="&#x168;" horiz-adv-x="943" 
d="M670 918l49 -32c-20 -38 -66 -85 -147 -85c-89 0 -128 57 -204 57c-53 0 -77 -27 -94 -52l-49 32c20 38 65 85 147 85c88 0 127 -57 204 -57c53 0 76 27 94 52zM757 700h84v-370c0 -204 -128 -351 -369 -351s-370 147 -370 351v370h84v-365c0 -172 103 -278 286 -278
c182 0 285 106 285 278v365z" />
    <glyph glyph-name="V" unicode="V" horiz-adv-x="866" 
d="M16 700h95l323 -609l323 609h93l-371 -700h-92z" />
    <glyph glyph-name="W" unicode="W" horiz-adv-x="1203" 
d="M1083 700h90l-257 -700h-89l-225 599l-226 -599h-89l-257 700h92l211 -598l227 598h85l226 -598z" />
    <glyph glyph-name="Wacute" unicode="&#x1e82;" horiz-adv-x="1203" 
d="M814 930l-221 -150h-78l165 150h134zM1083 700h90l-257 -700h-89l-225 599l-226 -599h-89l-257 700h92l211 -598l227 598h85l226 -598z" />
    <glyph glyph-name="Wcircumflex" unicode="&#x174;" horiz-adv-x="1203" 
d="M400 780h95l106 103l107 -103h95l-156 150h-91zM1083 700h90l-257 -700h-89l-225 599l-226 -599h-89l-257 700h92l211 -598l227 598h85l226 -598z" />
    <glyph glyph-name="Wdieresis" unicode="&#x1e84;" horiz-adv-x="1203" 
d="M472 793c-31 0 -53 23 -53 48c0 26 22 49 53 49c30 0 52 -23 52 -49c0 -25 -22 -48 -52 -48zM732 793c-31 0 -53 23 -53 48c0 26 22 49 53 49c30 0 52 -23 52 -49c0 -25 -22 -48 -52 -48zM1083 700h90l-257 -700h-89l-225 599l-226 -599h-89l-257 700h92l211 -598
l227 598h85l226 -598z" />
    <glyph glyph-name="Wgrave" unicode="&#x1e80;" horiz-adv-x="1203" 
d="M391 930h134l165 -150h-78zM1083 700h90l-257 -700h-89l-225 599l-226 -599h-89l-257 700h92l211 -598l227 598h85l226 -598z" />
    <glyph glyph-name="X" unicode="X" horiz-adv-x="805" 
d="M785 700l-327 -347l329 -353h-110l-276 294l-276 -294h-107l329 352l-327 348h110l274 -291l274 291h107z" />
    <glyph glyph-name="Y" unicode="Y" horiz-adv-x="823" 
d="M18 700h101l294 -379l292 379h100l-351 -455v-245h-84v245z" />
    <glyph glyph-name="Yacute" unicode="&#xdd;" horiz-adv-x="823" 
d="M625 930l-221 -150h-78l165 150h134zM18 700h101l294 -379l292 379h100l-351 -455v-245h-84v245z" />
    <glyph glyph-name="Ycircumflex" unicode="&#x176;" horiz-adv-x="823" 
d="M211 780h95l106 103l107 -103h95l-156 150h-91zM18 700h101l294 -379l292 379h100l-351 -455v-245h-84v245z" />
    <glyph glyph-name="Ydieresis" unicode="&#x178;" horiz-adv-x="823" 
d="M283 793c-31 0 -53 23 -53 48c0 26 22 49 53 49c30 0 52 -23 52 -49c0 -25 -22 -48 -52 -48zM543 793c-31 0 -53 23 -53 48c0 26 22 49 53 49c30 0 52 -23 52 -49c0 -25 -22 -48 -52 -48zM18 700h101l294 -379l292 379h100l-351 -455v-245h-84v245z" />
    <glyph glyph-name="Ygrave" unicode="&#x1ef2;" horiz-adv-x="823" 
d="M202 930h134l165 -150h-78zM18 700h101l294 -379l292 379h100l-351 -455v-245h-84v245z" />
    <glyph glyph-name="Z" unicode="Z" horiz-adv-x="848" 
d="M778 700v-62l-596 -562h612v-76h-740v62l596 562h-578v76h706z" />
    <glyph glyph-name="Zacute" unicode="&#x179;" horiz-adv-x="848" 
d="M656 930l-221 -150h-78l165 150h134zM778 700v-62l-596 -562h612v-76h-740v62l596 562h-578v76h706z" />
    <glyph glyph-name="Zcaron" unicode="&#x17d;" horiz-adv-x="848" 
d="M242 930l156 -150h91l156 150h-95l-107 -103l-106 103h-95zM778 700v-62l-596 -562h612v-76h-740v62l596 562h-578v76h706z" />
    <glyph glyph-name="Zdotaccent" unicode="&#x17b;" horiz-adv-x="848" 
d="M444 793c-29 0 -48 17 -48 42c0 26 19 43 48 43c28 0 47 -17 47 -43c0 -25 -19 -42 -47 -42zM778 700v-62l-596 -562h612v-76h-740v62l596 562h-578v76h706z" />
    <glyph glyph-name="a" unicode="a" horiz-adv-x="746" 
d="M359 565c183 0 295 -90 295 -263v-196c0 -41 7 -74 26 -106h-87c-16 27 -23 56 -23 87v2c-43 -59 -129 -109 -247 -109c-119 0 -278 48 -278 193c0 144 159 193 278 193c118 0 204 -49 247 -109v45c0 132 -75 192 -225 192c-87 0 -153 -24 -214 -63l-38 60
c64 43 167 74 266 74zM572 163v20c-47 85 -150 115 -242 115c-80 0 -204 -23 -204 -125s124 -125 204 -125c92 0 195 31 242 115z" />
    <glyph glyph-name="aacute" unicode="&#xe1;" horiz-adv-x="746" 
d="M583 775l-221 -150h-78l165 150h134zM359 565c183 0 295 -90 295 -263v-196c0 -41 7 -74 26 -106h-87c-16 27 -23 56 -23 87v2c-43 -59 -129 -109 -247 -109c-119 0 -278 48 -278 193c0 144 159 193 278 193c118 0 204 -49 247 -109v45c0 132 -75 192 -225 192
c-87 0 -153 -24 -214 -63l-38 60c64 43 167 74 266 74zM572 163v20c-47 85 -150 115 -242 115c-80 0 -204 -23 -204 -125s124 -125 204 -125c92 0 195 31 242 115z" />
    <glyph glyph-name="abreve" unicode="&#x103;" horiz-adv-x="746" 
d="M544 775c0 -56 -41 -155 -172 -155c-132 0 -172 99 -172 155h69c2 -45 37 -91 103 -91c65 0 101 46 102 91h70zM359 565c183 0 295 -90 295 -263v-196c0 -41 7 -74 26 -106h-87c-16 27 -23 56 -23 87v2c-43 -59 -129 -109 -247 -109c-119 0 -278 48 -278 193
c0 144 159 193 278 193c118 0 204 -49 247 -109v45c0 132 -75 192 -225 192c-87 0 -153 -24 -214 -63l-38 60c64 43 167 74 266 74zM572 163v20c-47 85 -150 115 -242 115c-80 0 -204 -23 -204 -125s124 -125 204 -125c92 0 195 31 242 115z" />
    <glyph glyph-name="acircumflex" unicode="&#xe2;" horiz-adv-x="746" 
d="M169 625h95l106 103l107 -103h95l-156 150h-91zM359 565c183 0 295 -90 295 -263v-196c0 -41 7 -74 26 -106h-87c-16 27 -23 56 -23 87v2c-43 -59 -129 -109 -247 -109c-119 0 -278 48 -278 193c0 144 159 193 278 193c118 0 204 -49 247 -109v45c0 132 -75 192 -225 192
c-87 0 -153 -24 -214 -63l-38 60c64 43 167 74 266 74zM572 163v20c-47 85 -150 115 -242 115c-80 0 -204 -23 -204 -125s124 -125 204 -125c92 0 195 31 242 115z" />
    <glyph glyph-name="adieresis" unicode="&#xe4;" horiz-adv-x="746" 
d="M241 638c-31 0 -53 23 -53 48c0 26 22 49 53 49c30 0 52 -23 52 -49c0 -25 -22 -48 -52 -48zM501 638c-31 0 -53 23 -53 48c0 26 22 49 53 49c30 0 52 -23 52 -49c0 -25 -22 -48 -52 -48zM359 565c183 0 295 -90 295 -263v-196c0 -41 7 -74 26 -106h-87
c-16 27 -23 56 -23 87v2c-43 -59 -129 -109 -247 -109c-119 0 -278 48 -278 193c0 144 159 193 278 193c118 0 204 -49 247 -109v45c0 132 -75 192 -225 192c-87 0 -153 -24 -214 -63l-38 60c64 43 167 74 266 74zM572 163v20c-47 85 -150 115 -242 115
c-80 0 -204 -23 -204 -125s124 -125 204 -125c92 0 195 31 242 115z" />
    <glyph glyph-name="agrave" unicode="&#xe0;" horiz-adv-x="746" 
d="M160 775h134l165 -150h-78zM359 565c183 0 295 -90 295 -263v-196c0 -41 7 -74 26 -106h-87c-16 27 -23 56 -23 87v2c-43 -59 -129 -109 -247 -109c-119 0 -278 48 -278 193c0 144 159 193 278 193c118 0 204 -49 247 -109v45c0 132 -75 192 -225 192
c-87 0 -153 -24 -214 -63l-38 60c64 43 167 74 266 74zM572 163v20c-47 85 -150 115 -242 115c-80 0 -204 -23 -204 -125s124 -125 204 -125c92 0 195 31 242 115z" />
    <glyph glyph-name="amacron" unicode="&#x101;" horiz-adv-x="746" 
d="M178 719h386v-69h-386v69zM359 565c183 0 295 -90 295 -263v-196c0 -41 7 -74 26 -106h-87c-16 27 -23 56 -23 87v2c-43 -59 -129 -109 -247 -109c-119 0 -278 48 -278 193c0 144 159 193 278 193c118 0 204 -49 247 -109v45c0 132 -75 192 -225 192
c-87 0 -153 -24 -214 -63l-38 60c64 43 167 74 266 74zM572 163v20c-47 85 -150 115 -242 115c-80 0 -204 -23 -204 -125s124 -125 204 -125c92 0 195 31 242 115z" />
    <glyph glyph-name="aogonek" unicode="&#x105;" horiz-adv-x="746" 
d="M713 -178l20 -28c-20 -17 -56 -39 -111 -39c-65 0 -132 30 -132 102c0 65 47 118 116 143h-13c-16 27 -23 56 -23 87v2c-43 -59 -129 -109 -247 -109c-119 0 -278 48 -278 193c0 144 159 193 278 193c118 0 204 -49 247 -109v45c0 132 -75 192 -225 192
c-87 0 -153 -24 -214 -63l-38 60c64 43 167 74 266 74c183 0 295 -90 295 -263v-196c0 -41 7 -74 26 -106h-1c-64 -23 -120 -75 -120 -135c0 -48 36 -67 77 -67c34 0 60 13 77 24zM572 163v20c-47 85 -150 115 -242 115c-80 0 -204 -23 -204 -125s124 -125 204 -125
c92 0 195 31 242 115z" />
    <glyph glyph-name="aring" unicode="&#xe5;" horiz-adv-x="746" 
d="M371 618c-70 0 -129 35 -129 107c0 71 59 107 129 107s129 -36 129 -107c0 -72 -59 -107 -129 -107zM302 725c0 -40 28 -61 70 -61c41 0 70 21 70 61s-29 61 -70 61c-42 0 -70 -21 -70 -61zM359 565c183 0 295 -90 295 -263v-196c0 -41 7 -74 26 -106h-87
c-16 27 -23 56 -23 87v2c-43 -59 -129 -109 -247 -109c-119 0 -278 48 -278 193c0 144 159 193 278 193c118 0 204 -49 247 -109v45c0 132 -75 192 -225 192c-87 0 -153 -24 -214 -63l-38 60c64 43 167 74 266 74zM572 163v20c-47 85 -150 115 -242 115
c-80 0 -204 -23 -204 -125s124 -125 204 -125c92 0 195 31 242 115z" />
    <glyph glyph-name="aringacute" unicode="&#x1fb;" horiz-adv-x="746" 
d="M371 618c-70 0 -129 35 -129 107c0 35 15 62 38 80l128 126h94l-125 -99c68 -2 123 -38 123 -107c0 -72 -59 -107 -129 -107zM442 725c0 40 -29 61 -70 61c-42 0 -70 -21 -70 -61s28 -61 70 -61c41 0 70 21 70 61zM654 106c0 -41 7 -74 26 -106h-87c-16 27 -23 56 -23 87
v2c-43 -59 -129 -109 -247 -109c-119 0 -278 48 -278 193c0 144 159 193 278 193c118 0 204 -49 247 -109v45c0 132 -75 192 -225 192c-87 0 -153 -24 -214 -63l-38 60c64 43 167 74 266 74c183 0 295 -90 295 -263v-196zM572 163v20c-47 85 -150 115 -242 115
c-80 0 -204 -23 -204 -125s124 -125 204 -125c92 0 195 31 242 115z" />
    <glyph glyph-name="atilde" unicode="&#xe3;" horiz-adv-x="746" 
d="M569 763l49 -32c-20 -38 -66 -85 -147 -85c-89 0 -128 57 -204 57c-53 0 -77 -27 -94 -52l-49 32c20 38 65 85 147 85c88 0 127 -57 204 -57c53 0 76 27 94 52zM359 565c183 0 295 -90 295 -263v-196c0 -41 7 -74 26 -106h-87c-16 27 -23 56 -23 87v2
c-43 -59 -129 -109 -247 -109c-119 0 -278 48 -278 193c0 144 159 193 278 193c118 0 204 -49 247 -109v45c0 132 -75 192 -225 192c-87 0 -153 -24 -214 -63l-38 60c64 43 167 74 266 74zM572 163v20c-47 85 -150 115 -242 115c-80 0 -204 -23 -204 -125s124 -125 204 -125
c92 0 195 31 242 115z" />
    <glyph glyph-name="ae" unicode="&#xe6;" horiz-adv-x="1260" 
d="M654 255v-55c25 -104 111 -151 245 -151c108 0 173 27 237 85l53 -56c-74 -67 -165 -99 -294 -99c-139 0 -239 49 -291 135c-51 -91 -171 -134 -281 -134c-119 0 -278 48 -278 193c0 144 159 193 278 193c118 0 204 -49 247 -114v50c0 132 -75 194 -225 194
c-87 0 -155 -25 -216 -64l-33 64c65 41 164 69 263 69c120 0 210 -39 257 -115c54 74 149 116 274 116c194 0 318 -105 318 -293c0 -9 -1 -14 -2 -18h-552zM891 497c-131 0 -216 -50 -239 -159c1 -5 1 -9 1 -13h471c-21 119 -99 172 -233 172zM572 163v20
c-47 85 -150 116 -242 116c-80 0 -204 -24 -204 -126s124 -126 204 -126c92 0 195 32 242 116z" />
    <glyph glyph-name="aeacute" unicode="&#x1fd;" horiz-adv-x="1260" 
d="M825 775l-221 -150h-78l165 150h134zM654 255v-55c25 -104 111 -151 245 -151c108 0 173 27 237 85l53 -56c-74 -67 -165 -99 -294 -99c-139 0 -239 49 -291 135c-51 -91 -171 -134 -281 -134c-119 0 -278 48 -278 193c0 144 159 193 278 193c118 0 204 -49 247 -114v50
c0 132 -75 194 -225 194c-87 0 -155 -25 -216 -64l-33 64c65 41 164 69 263 69c120 0 210 -39 257 -115c54 74 149 116 274 116c194 0 318 -105 318 -293c0 -9 -1 -14 -2 -18h-552zM891 497c-131 0 -216 -50 -239 -159c1 -5 1 -9 1 -13h471c-21 119 -99 172 -233 172z
M572 163v20c-47 85 -150 116 -242 116c-80 0 -204 -24 -204 -126s124 -126 204 -126c92 0 195 32 242 116z" />
    <glyph glyph-name="b" unicode="b" horiz-adv-x="798" 
d="M444 565c182 0 296 -117 296 -293s-114 -292 -296 -292c-120 0 -213 49 -263 125v-105h-82v740h82v-300c50 76 143 125 263 125zM423 53c150 0 234 79 234 219c0 141 -84 220 -234 220c-101 0 -186 -36 -242 -133v-173c56 -97 141 -133 242 -133z" />
    <glyph glyph-name="c" unicode="c" horiz-adv-x="716" 
d="M675 117c-50 -80 -135 -138 -287 -138c-207 0 -330 115 -330 293c0 179 123 294 330 294c149 0 233 -58 284 -131l-80 -40c-40 71 -125 98 -203 98c-144 0 -248 -73 -248 -221c0 -147 104 -220 248 -220c79 0 166 28 205 101z" />
    <glyph glyph-name="cacute" unicode="&#x107;" horiz-adv-x="716" 
d="M596 775l-221 -150h-78l165 150h134zM675 117c-50 -80 -135 -138 -287 -138c-207 0 -330 115 -330 293c0 179 123 294 330 294c149 0 233 -58 284 -131l-80 -40c-40 71 -125 98 -203 98c-144 0 -248 -73 -248 -221c0 -147 104 -220 248 -220c79 0 166 28 205 101z" />
    <glyph glyph-name="ccaron" unicode="&#x10d;" horiz-adv-x="716" 
d="M182 775l156 -150h91l156 150h-95l-107 -103l-106 103h-95zM675 117c-50 -80 -135 -138 -287 -138c-207 0 -330 115 -330 293c0 179 123 294 330 294c149 0 233 -58 284 -131l-80 -40c-40 71 -125 98 -203 98c-144 0 -248 -73 -248 -221c0 -147 104 -220 248 -220
c79 0 166 28 205 101z" />
    <glyph glyph-name="ccedilla" unicode="&#xe7;" horiz-adv-x="716" 
d="M675 117c-50 -80 -135 -138 -287 -138c-207 0 -330 115 -330 293c0 179 123 294 330 294c149 0 233 -58 284 -131l-80 -40c-40 71 -125 98 -203 98c-144 0 -248 -73 -248 -221c0 -147 104 -220 248 -220c79 0 166 28 205 101zM414 -52l-119 -158l-69 18l103 156z" />
    <glyph glyph-name="ccircumflex" unicode="&#x109;" horiz-adv-x="716" 
d="M182 625h95l106 103l107 -103h95l-156 150h-91zM675 117c-50 -80 -135 -138 -287 -138c-207 0 -330 115 -330 293c0 179 123 294 330 294c149 0 233 -58 284 -131l-80 -40c-40 71 -125 98 -203 98c-144 0 -248 -73 -248 -221c0 -147 104 -220 248 -220
c79 0 166 28 205 101z" />
    <glyph glyph-name="cdotaccent" unicode="&#x10b;" horiz-adv-x="716" 
d="M384 638c-29 0 -48 17 -48 42c0 26 19 43 48 43c28 0 47 -17 47 -43c0 -25 -19 -42 -47 -42zM675 117c-50 -80 -135 -138 -287 -138c-207 0 -330 115 -330 293c0 179 123 294 330 294c149 0 233 -58 284 -131l-80 -40c-40 71 -125 98 -203 98c-144 0 -248 -73 -248 -221
c0 -147 104 -220 248 -220c79 0 166 28 205 101z" />
    <glyph glyph-name="d" unicode="d" horiz-adv-x="798" 
d="M354 565c120 0 213 -49 263 -125v300h82v-740h-82v105c-50 -76 -143 -125 -263 -125c-182 0 -296 116 -296 292s114 293 296 293zM375 53c101 0 186 36 242 133v173c-56 97 -141 133 -242 133c-150 0 -234 -79 -234 -220c0 -140 84 -219 234 -219z" />
    <glyph glyph-name="eth" unicode="&#xf0;" horiz-adv-x="779" 
d="M522 655c140 -82 199 -204 199 -359c0 -225 -125 -317 -331 -317c-207 0 -332 112 -332 289s133 284 304 284c105 0 224 -31 273 -139c-22 82 -83 156 -204 208l-166 -62l-25 55l102 38c-39 11 -82 20 -130 27l13 71c87 -14 161 -33 223 -59l145 54l25 -55zM389 52
c144 0 250 70 250 216c0 145 -106 215 -250 215c-143 0 -249 -70 -249 -215c0 -146 106 -216 249 -216z" />
    <glyph glyph-name="dcaron" unicode="&#x10f;" horiz-adv-x="858" 
d="M354 565c120 0 213 -49 263 -125v300h82v-740h-82v105c-50 -76 -143 -125 -263 -125c-182 0 -296 116 -296 292s114 293 296 293zM812 710c36 0 57 -27 57 -59c0 -62 -25 -112 -77 -161l-20 23c31 41 47 70 52 102c-2 -2 -7 -4 -15 -4c-29 0 -51 21 -51 49
c0 29 22 50 54 50zM375 53c101 0 186 36 242 133v173c-56 97 -141 133 -242 133c-150 0 -234 -79 -234 -220c0 -140 84 -219 234 -219z" />
    <glyph glyph-name="dcroat" unicode="&#x111;" horiz-adv-x="797" 
d="M794 651v-57h-95v-594h-82v105c-50 -76 -143 -125 -263 -125c-182 0 -296 116 -296 292s114 293 296 293c120 0 213 -49 263 -125v154h-199v57h199v89h82v-89h95zM617 186v173c-56 97 -141 133 -242 133c-150 0 -234 -79 -234 -220c0 -140 84 -219 234 -219
c101 0 186 36 242 133z" />
    <glyph glyph-name="e" unicode="e" horiz-adv-x="755" 
d="M141 255c8 -138 108 -206 253 -206c108 0 173 27 236 86l54 -57c-74 -67 -165 -99 -294 -99c-211 0 -332 114 -332 293c0 180 121 294 327 294c194 0 318 -105 318 -293c0 -9 -1 -14 -2 -18h-560zM386 496c-126 0 -220 -58 -241 -173h475c-24 121 -117 173 -234 173z" />
    <glyph glyph-name="eacute" unicode="&#xe9;" horiz-adv-x="755" 
d="M597 775l-221 -150h-78l165 150h134zM141 255c8 -138 108 -206 253 -206c108 0 173 27 236 86l54 -57c-74 -67 -165 -99 -294 -99c-211 0 -332 114 -332 293c0 180 121 294 327 294c194 0 318 -105 318 -293c0 -9 -1 -14 -2 -18h-560zM386 496c-126 0 -220 -58 -241 -173
h475c-24 121 -117 173 -234 173z" />
    <glyph glyph-name="ebreve" unicode="&#x115;" horiz-adv-x="755" 
d="M386 620c-132 0 -172 99 -172 155h69c2 -45 37 -91 103 -91c65 0 101 46 102 91h70c0 -56 -41 -155 -172 -155zM141 255c8 -138 108 -206 253 -206c108 0 173 27 236 86l54 -57c-74 -67 -165 -99 -294 -99c-211 0 -332 114 -332 293c0 180 121 294 327 294
c194 0 318 -105 318 -293c0 -9 -1 -14 -2 -18h-560zM386 496c-126 0 -220 -58 -241 -173h475c-24 121 -117 173 -234 173z" />
    <glyph glyph-name="ecaron" unicode="&#x11b;" horiz-adv-x="755" 
d="M430 625h-91l-156 150h95l106 -103l107 103h95zM141 255c8 -138 108 -206 253 -206c108 0 173 27 236 86l54 -57c-74 -67 -165 -99 -294 -99c-211 0 -332 114 -332 293c0 180 121 294 327 294c194 0 318 -105 318 -293c0 -9 -1 -14 -2 -18h-560zM386 496
c-126 0 -220 -58 -241 -173h475c-24 121 -117 173 -234 173z" />
    <glyph glyph-name="ecircumflex" unicode="&#xea;" horiz-adv-x="755" 
d="M384 728l-106 -103h-95l156 150h91l156 -150h-95zM141 255c8 -138 108 -206 253 -206c108 0 173 27 236 86l54 -57c-74 -67 -165 -99 -294 -99c-211 0 -332 114 -332 293c0 180 121 294 327 294c194 0 318 -105 318 -293c0 -9 -1 -14 -2 -18h-560zM386 496
c-126 0 -220 -58 -241 -173h475c-24 121 -117 173 -234 173z" />
    <glyph glyph-name="edieresis" unicode="&#xeb;" horiz-adv-x="755" 
d="M255 638c-31 0 -53 23 -53 48c0 26 22 49 53 49c30 0 52 -23 52 -49c0 -25 -22 -48 -52 -48zM515 638c-31 0 -53 23 -53 48c0 26 22 49 53 49c30 0 52 -23 52 -49c0 -25 -22 -48 -52 -48zM141 255c8 -138 108 -206 253 -206c108 0 173 27 236 86l54 -57
c-74 -67 -165 -99 -294 -99c-211 0 -332 114 -332 293c0 180 121 294 327 294c194 0 318 -105 318 -293c0 -9 -1 -14 -2 -18h-560zM386 496c-126 0 -220 -58 -241 -173h475c-24 121 -117 173 -234 173z" />
    <glyph glyph-name="edotaccent" unicode="&#x117;" horiz-adv-x="755" 
d="M385 638c-29 0 -48 17 -48 42c0 26 19 43 48 43c28 0 47 -17 47 -43c0 -25 -19 -42 -47 -42zM141 255c8 -138 108 -206 253 -206c108 0 173 27 236 86l54 -57c-74 -67 -165 -99 -294 -99c-211 0 -332 114 -332 293c0 180 121 294 327 294c194 0 318 -105 318 -293
c0 -9 -1 -14 -2 -18h-560zM386 496c-126 0 -220 -58 -241 -173h475c-24 121 -117 173 -234 173z" />
    <glyph glyph-name="egrave" unicode="&#xe8;" horiz-adv-x="755" 
d="M473 625h-78l-221 150h134zM141 255c8 -138 108 -206 253 -206c108 0 173 27 236 86l54 -57c-74 -67 -165 -99 -294 -99c-211 0 -332 114 -332 293c0 180 121 294 327 294c194 0 318 -105 318 -293c0 -9 -1 -14 -2 -18h-560zM386 496c-126 0 -220 -58 -241 -173h475
c-24 121 -117 173 -234 173z" />
    <glyph glyph-name="emacron" unicode="&#x113;" horiz-adv-x="755" 
d="M578 719v-69h-386v69h386zM141 255c8 -138 108 -206 253 -206c108 0 173 27 236 86l54 -57c-74 -67 -165 -99 -294 -99c-211 0 -332 114 -332 293c0 180 121 294 327 294c194 0 318 -105 318 -293c0 -9 -1 -14 -2 -18h-560zM386 496c-126 0 -220 -58 -241 -173h475
c-24 121 -117 173 -234 173z" />
    <glyph glyph-name="eogonek" unicode="&#x119;" horiz-adv-x="755" 
d="M141 255c8 -138 108 -206 253 -206c108 0 173 27 236 86l54 -57c-39 -36 -84 -61 -136 -78h2c-64 -23 -120 -75 -120 -135c0 -48 36 -67 77 -67c34 0 60 13 77 24l20 -28c-20 -17 -56 -39 -111 -39c-65 0 -132 30 -132 102c0 51 29 95 75 123c-15 -1 -30 -1 -46 -1
c-211 0 -332 114 -332 293c0 180 121 294 327 294c194 0 318 -105 318 -293c0 -9 -1 -14 -2 -18h-560zM386 496c-126 0 -220 -58 -241 -173h475c-24 121 -117 173 -234 173z" />
    <glyph glyph-name="f" unicode="f" horiz-adv-x="479" 
d="M212 603v-58h250v-70h-250v-475h-82v475h-110v70h110v45c0 118 84 170 181 170c55 0 115 -17 158 -50l-39 -52c-39 29 -73 39 -111 39c-60 0 -107 -25 -107 -94z" />
    <glyph glyph-name="g" unicode="g" horiz-adv-x="798" 
d="M699 545v-485c0 -196 -147 -280 -323 -280c-97 0 -203 30 -262 73l39 63c52 -34 125 -63 215 -63c160 0 249 65 249 197v55c-50 -76 -153 -125 -263 -125c-182 0 -296 116 -296 292s114 293 296 293c120 0 213 -49 263 -125v105h82zM375 53c101 0 186 36 242 133v173
c-56 97 -141 133 -242 133c-150 0 -234 -79 -234 -220c0 -140 84 -219 234 -219z" />
    <glyph glyph-name="gbreve" unicode="&#x11f;" horiz-adv-x="798" 
d="M574 776c0 -56 -41 -155 -172 -155c-132 0 -172 99 -172 155h69c2 -45 37 -91 103 -91c65 0 101 46 102 91h70zM699 545v-485c0 -196 -147 -280 -323 -280c-97 0 -203 30 -262 73l39 63c52 -34 125 -63 215 -63c160 0 249 65 249 197v55c-50 -76 -153 -125 -263 -125
c-182 0 -296 116 -296 292s114 293 296 293c120 0 213 -49 263 -125v105h82zM375 53c101 0 186 36 242 133v173c-56 97 -141 133 -242 133c-150 0 -234 -79 -234 -220c0 -140 84 -219 234 -219z" />
    <glyph glyph-name="gcircumflex" unicode="&#x11d;" horiz-adv-x="798" 
d="M199 626h95l106 103l107 -103h95l-156 150h-91zM699 545v-485c0 -196 -147 -280 -323 -280c-97 0 -203 30 -262 73l39 63c52 -34 125 -63 215 -63c160 0 249 65 249 197v55c-50 -76 -153 -125 -263 -125c-182 0 -296 116 -296 292s114 293 296 293
c120 0 213 -49 263 -125v105h82zM375 53c101 0 186 36 242 133v173c-56 97 -141 133 -242 133c-150 0 -234 -79 -234 -220c0 -140 84 -219 234 -219z" />
    <glyph glyph-name="gcommaaccent" unicode="&#x123;" horiz-adv-x="798" 
d="M397 645c-36 0 -62 25 -62 64c0 53 30 128 82 177l27 -23c-40 -46 -55 -75 -60 -111c3 3 10 4 16 4c31 0 56 -23 56 -56c0 -31 -25 -55 -59 -55zM699 545v-485c0 -196 -147 -280 -323 -280c-97 0 -203 30 -262 73l39 63c52 -34 125 -63 215 -63c160 0 249 65 249 197v55
c-50 -76 -153 -125 -263 -125c-182 0 -296 116 -296 292s114 293 296 293c120 0 213 -49 263 -125v105h82zM375 53c101 0 186 36 242 133v173c-56 97 -141 133 -242 133c-150 0 -234 -79 -234 -220c0 -140 84 -219 234 -219z" />
    <glyph glyph-name="gdotaccent" unicode="&#x121;" horiz-adv-x="798" 
d="M401 639c-29 0 -48 17 -48 42c0 26 19 43 48 43c28 0 47 -17 47 -43c0 -25 -19 -42 -47 -42zM699 545v-485c0 -196 -147 -280 -323 -280c-97 0 -203 30 -262 73l39 63c52 -34 125 -63 215 -63c160 0 249 65 249 197v55c-50 -76 -153 -125 -263 -125
c-182 0 -296 116 -296 292s114 293 296 293c120 0 213 -49 263 -125v105h82zM375 53c101 0 186 36 242 133v173c-56 97 -141 133 -242 133c-150 0 -234 -79 -234 -220c0 -140 84 -219 234 -219z" />
    <glyph glyph-name="h" unicode="h" horiz-adv-x="788" 
d="M441 565c169 0 250 -108 250 -257v-308h-82v302c0 123 -61 190 -184 190c-106 0 -194 -49 -244 -150v-342h-82v740h82v-308c51 82 143 133 260 133z" />
    <glyph glyph-name="hbar" unicode="&#x127;" horiz-adv-x="788" 
d="M441 565c169 0 250 -108 250 -257v-308h-82v302c0 123 -61 190 -184 190c-106 0 -194 -49 -244 -150v-342h-82v594h-94v57h94v89h82v-89h200v-57h-200v-162c51 82 143 133 260 133z" />
    <glyph glyph-name="hcircumflex" unicode="&#x125;" horiz-adv-x="788" 
d="M246 820l-107 103l-106 -103h-95l156 150h91l156 -150h-95zM441 565c169 0 250 -108 250 -257v-308h-82v302c0 123 -61 190 -184 190c-106 0 -194 -49 -244 -150v-342h-82v740h82v-308c51 82 143 133 260 133z" />
    <glyph glyph-name="i" unicode="i" horiz-adv-x="286" 
d="M143 629c-33 0 -58 24 -58 53c0 30 25 53 58 53s58 -23 58 -53c0 -29 -25 -53 -58 -53zM184 545v-545h-82v545h82z" />
    <glyph glyph-name="dotlessi" unicode="&#x131;" horiz-adv-x="286" 
d="M184 545v-545h-82v545h82z" />
    <glyph glyph-name="iacute" unicode="&#xed;" horiz-adv-x="286" 
d="M355 775l-221 -150h-78l165 150h134zM184 545v-545h-82v545h82z" />
    <glyph glyph-name="ibreve" unicode="&#x12d;" horiz-adv-x="286" 
d="M316 775c0 -56 -41 -155 -172 -155c-132 0 -172 99 -172 155h69c2 -45 37 -91 103 -91c65 0 101 46 102 91h70zM184 545v-545h-82v545h82z" />
    <glyph glyph-name="icircumflex" unicode="&#xee;" horiz-adv-x="286" 
d="M-59 625h95l106 103l107 -103h95l-156 150h-91zM184 545v-545h-82v545h82z" />
    <glyph glyph-name="idieresis" unicode="&#xef;" horiz-adv-x="286" 
d="M13 638c-31 0 -53 23 -53 48c0 26 22 49 53 49c30 0 52 -23 52 -49c0 -25 -22 -48 -52 -48zM273 638c-31 0 -53 23 -53 48c0 26 22 49 53 49c30 0 52 -23 52 -49c0 -25 -22 -48 -52 -48zM184 545v-545h-82v545h82z" />
    <glyph glyph-name="igrave" unicode="&#xec;" horiz-adv-x="286" 
d="M-68 775h134l165 -150h-78zM184 545v-545h-82v545h82z" />
    <glyph glyph-name="ij" unicode="&#x133;" horiz-adv-x="572" 
d="M143 629c-33 0 -58 24 -58 53c0 30 25 53 58 53s58 -23 58 -53c0 -29 -25 -53 -58 -53zM429 629c-33 0 -58 23 -58 52c0 30 25 52 58 52s58 -22 58 -52c0 -29 -25 -52 -58 -52zM184 545v-545h-82v545h82zM388 545h82v-606c0 -100 -62 -159 -155 -159c-37 0 -73 9 -96 20
l25 67c15 -8 35 -12 54 -12c58 0 90 39 90 99v591z" />
    <glyph glyph-name="imacron" unicode="&#x12b;" horiz-adv-x="286" 
d="M-50 719h386v-69h-386v69zM184 545v-545h-82v545h82z" />
    <glyph glyph-name="iogonek" unicode="&#x12f;" horiz-adv-x="286" 
d="M143 629c-33 0 -58 24 -58 53c0 30 25 53 58 53s58 -23 58 -53c0 -29 -25 -53 -58 -53zM217 -178l20 -28c-20 -17 -56 -39 -111 -39c-65 0 -132 30 -132 102c0 65 47 118 116 143h-8v545h82v-545h-1c-64 -23 -120 -75 -120 -135c0 -48 36 -67 77 -67c34 0 60 13 77 24z
" />
    <glyph glyph-name="itilde" unicode="&#x129;" horiz-adv-x="286" 
d="M341 763l49 -32c-20 -38 -66 -85 -147 -85c-89 0 -128 57 -204 57c-53 0 -77 -27 -94 -52l-49 32c20 38 65 85 147 85c88 0 127 -57 204 -57c53 0 76 27 94 52zM184 545v-545h-82v545h82z" />
    <glyph glyph-name="j" unicode="j" horiz-adv-x="286" 
d="M143 629c-33 0 -58 23 -58 52c0 30 25 52 58 52s58 -22 58 -52c0 -29 -25 -52 -58 -52zM102 545h82v-606c0 -100 -62 -159 -155 -159c-37 0 -73 9 -96 20l25 67c15 -8 35 -12 54 -12c58 0 90 39 90 99v591z" />
    <glyph glyph-name="uni0237" unicode="&#x237;" horiz-adv-x="286" 
d="M102 545h82v-606c0 -100 -62 -159 -155 -159c-37 0 -73 9 -96 20l25 67c15 -8 35 -12 54 -12c58 0 90 39 90 99v591z" />
    <glyph glyph-name="jcircumflex" unicode="&#x135;" horiz-adv-x="422" 
d="M-66 625h95l106 103l107 -103h95l-156 150h-91zM101 545h81v-606c0 -100 -62 -159 -151 -159c-41 0 -77 9 -100 20l15 50c15 -7 37 -14 69 -14c53 0 86 39 86 99v610z" />
    <glyph glyph-name="k" unicode="k" horiz-adv-x="694" 
d="M586 0l-241 283l-164 -128v-155h-82v740h82v-502l380 307h108l-260 -215l277 -330h-100z" />
    <glyph glyph-name="kcommaaccent" unicode="&#x137;" horiz-adv-x="694" 
d="M409 330l277 -330h-100l-241 283l-164 -128v-155h-82v740h82v-502l380 307h108zM369 -58c36 0 62 -25 62 -64c0 -53 -30 -128 -82 -177l-27 23c40 46 55 75 60 111c-3 -3 -10 -4 -16 -4c-31 0 -56 23 -56 56c0 31 25 55 59 55z" />
    <glyph glyph-name="kgreenlandic" unicode="&#x138;" horiz-adv-x="694" 
d="M587 0l-242 283l-164 -128v-155h-82v545h82v-307l384 307h104l-260 -215l277 -330h-99z" />
    <glyph glyph-name="l" unicode="l" horiz-adv-x="286" 
d="M184 0h-82v740h82v-740z" />
    <glyph glyph-name="lacute" unicode="&#x13a;" horiz-adv-x="286" 
d="M355 970l-221 -150h-78l165 150h134zM184 0h-82v740h82v-740z" />
    <glyph glyph-name="lcaron" unicode="&#x13e;" horiz-adv-x="342" 
d="M184 0h-82v740h82v-740zM296 710c36 0 57 -27 57 -59c0 -62 -25 -112 -77 -161l-20 23c31 41 47 70 52 102c-2 -2 -7 -4 -15 -4c-29 0 -51 21 -51 49c0 29 22 50 54 50z" />
    <glyph glyph-name="lcommaaccent" unicode="&#x13c;" horiz-adv-x="286" 
d="M184 0h-82v740h82v-740zM144 -58c36 0 62 -25 62 -64c0 -53 -30 -128 -82 -177l-27 23c40 46 55 75 60 111c-3 -3 -10 -4 -16 -4c-31 0 -56 23 -56 56c0 31 25 55 59 55z" />
    <glyph glyph-name="ldot" unicode="&#x140;" horiz-adv-x="369" 
d="M184 0h-82v740h82v-740zM317 365c-35 0 -60 24 -60 56s25 56 60 56s60 -24 60 -56s-25 -56 -60 -56z" />
    <glyph glyph-name="lslash" unicode="&#x142;" horiz-adv-x="339" 
d="M320 492v-74l-110 -52v-366h-82v327l-109 -51v75l109 51v338h82v-300z" />
    <glyph glyph-name="m" unicode="m" horiz-adv-x="1233" 
d="M901 565c167 0 235 -113 235 -255v-310h-81v304c0 115 -53 188 -175 188c-104 0 -179 -55 -223 -151c1 -10 1 -21 1 -31v-243l1 -67h-82v304c0 115 -53 188 -175 188c-103 0 -177 -53 -221 -148v-344h-82v545h82v-113c44 80 133 133 242 133c126 0 196 -64 222 -157
c42 96 140 157 256 157z" />
    <glyph glyph-name="n" unicode="n" horiz-adv-x="788" 
d="M181 0h-82v545h82v-113c51 82 143 133 260 133c169 0 250 -108 250 -257v-308h-82v302c0 123 -61 190 -184 190c-106 0 -194 -49 -244 -150v-342z" />
    <glyph glyph-name="nacute" unicode="&#x144;" horiz-adv-x="788" 
d="M606 775l-221 -150h-78l165 150h134zM181 0h-82v545h82v-113c51 82 143 133 260 133c169 0 250 -108 250 -257v-308h-82v302c0 123 -61 190 -184 190c-106 0 -194 -49 -244 -150v-342z" />
    <glyph glyph-name="napostrophe" unicode="&#x149;" horiz-adv-x="876" 
d="M102 713c35 0 58 -26 58 -60c0 -59 -27 -125 -78 -174l-23 23c34 43 50 77 55 113c-2 -3 -9 -5 -16 -5c-30 0 -52 22 -52 52c0 29 23 51 56 51zM269 0h-82v545h82v-121c51 90 143 141 260 141c169 0 250 -108 250 -257v-308h-82v304c0 123 -61 190 -184 190
c-106 0 -194 -51 -244 -152v-342z" />
    <glyph glyph-name="ncaron" unicode="&#x148;" horiz-adv-x="788" 
d="M192 775l156 -150h91l156 150h-95l-107 -103l-106 103h-95zM181 0h-82v545h82v-113c51 82 143 133 260 133c169 0 250 -108 250 -257v-308h-82v302c0 123 -61 190 -184 190c-106 0 -194 -49 -244 -150v-342z" />
    <glyph glyph-name="ncommaaccent" unicode="&#x146;" horiz-adv-x="788" 
d="M181 0h-82v545h82v-113c51 82 143 133 260 133c169 0 250 -108 250 -257v-308h-82v302c0 123 -61 190 -184 190c-106 0 -194 -49 -244 -150v-342zM393 -58c36 0 62 -25 62 -64c0 -53 -30 -128 -82 -177l-27 23c40 46 55 75 60 111c-3 -3 -10 -4 -16 -4
c-31 0 -56 23 -56 56c0 31 25 55 59 55z" />
    <glyph glyph-name="eng" unicode="&#x14b;" horiz-adv-x="788" 
d="M441 565c169 0 250 -108 250 -257v-308v-61c0 -100 -62 -159 -156 -159c-36 0 -70 9 -95 20l24 62c13 -5 32 -10 55 -10c58 0 90 32 90 83v139v230c0 123 -61 190 -184 190c-106 0 -194 -51 -244 -152v-342h-82v545h82v-121c51 90 143 141 260 141z" />
    <glyph glyph-name="ntilde" unicode="&#xf1;" horiz-adv-x="788" 
d="M592 763l49 -32c-20 -38 -66 -85 -147 -85c-89 0 -128 57 -204 57c-53 0 -77 -27 -94 -52l-49 32c20 38 65 85 147 85c88 0 127 -57 204 -57c53 0 76 27 94 52zM181 0h-82v545h82v-113c51 82 143 133 260 133c169 0 250 -108 250 -257v-308h-82v302
c0 123 -61 190 -184 190c-106 0 -194 -49 -244 -150v-342z" />
    <glyph glyph-name="o" unicode="o" horiz-adv-x="778" 
d="M389 -21c-208 0 -331 113 -331 293s123 294 331 294s331 -114 331 -294s-123 -293 -331 -293zM389 52c142 0 248 73 248 220c0 148 -106 221 -248 221s-248 -73 -248 -221c0 -147 106 -220 248 -220z" />
    <glyph glyph-name="oacute" unicode="&#xf3;" horiz-adv-x="778" 
d="M601 775l-221 -150h-78l165 150h134zM389 -21c-208 0 -331 113 -331 293s123 294 331 294s331 -114 331 -294s-123 -293 -331 -293zM389 52c142 0 248 73 248 220c0 148 -106 221 -248 221s-248 -73 -248 -221c0 -147 106 -220 248 -220z" />
    <glyph glyph-name="obreve" unicode="&#x14f;" horiz-adv-x="778" 
d="M562 775c0 -56 -41 -155 -172 -155c-132 0 -172 99 -172 155h69c2 -45 37 -91 103 -91c65 0 101 46 102 91h70zM389 -21c-208 0 -331 113 -331 293s123 294 331 294s331 -114 331 -294s-123 -293 -331 -293zM389 52c142 0 248 73 248 220c0 148 -106 221 -248 221
s-248 -73 -248 -221c0 -147 106 -220 248 -220z" />
    <glyph glyph-name="ocircumflex" unicode="&#xf4;" horiz-adv-x="778" 
d="M187 625h95l106 103l107 -103h95l-156 150h-91zM389 -21c-208 0 -331 113 -331 293s123 294 331 294s331 -114 331 -294s-123 -293 -331 -293zM389 52c142 0 248 73 248 220c0 148 -106 221 -248 221s-248 -73 -248 -221c0 -147 106 -220 248 -220z" />
    <glyph glyph-name="odieresis" unicode="&#xf6;" horiz-adv-x="778" 
d="M259 638c-31 0 -53 23 -53 48c0 26 22 49 53 49c30 0 52 -23 52 -49c0 -25 -22 -48 -52 -48zM519 638c-31 0 -53 23 -53 48c0 26 22 49 53 49c30 0 52 -23 52 -49c0 -25 -22 -48 -52 -48zM389 -21c-208 0 -331 113 -331 293s123 294 331 294s331 -114 331 -294
s-123 -293 -331 -293zM389 52c142 0 248 73 248 220c0 148 -106 221 -248 221s-248 -73 -248 -221c0 -147 106 -220 248 -220z" />
    <glyph glyph-name="ograve" unicode="&#xf2;" horiz-adv-x="778" 
d="M178 775h134l165 -150h-78zM389 -21c-208 0 -331 113 -331 293s123 294 331 294s331 -114 331 -294s-123 -293 -331 -293zM389 52c142 0 248 73 248 220c0 148 -106 221 -248 221s-248 -73 -248 -221c0 -147 106 -220 248 -220z" />
    <glyph glyph-name="ohungarumlaut" unicode="&#x151;" horiz-adv-x="778" 
d="M456 775l-164 -150h-87l164 150h87zM653 775l-164 -150h-87l164 150h87zM389 -21c-208 0 -331 113 -331 293s123 294 331 294s331 -114 331 -294s-123 -293 -331 -293zM389 52c142 0 248 73 248 220c0 148 -106 221 -248 221s-248 -73 -248 -221
c0 -147 106 -220 248 -220z" />
    <glyph glyph-name="omacron" unicode="&#x14d;" horiz-adv-x="778" 
d="M196 719h386v-69h-386v69zM389 -21c-208 0 -331 113 -331 293s123 294 331 294s331 -114 331 -294s-123 -293 -331 -293zM389 52c142 0 248 73 248 220c0 148 -106 221 -248 221s-248 -73 -248 -221c0 -147 106 -220 248 -220z" />
    <glyph glyph-name="oslash" unicode="&#xf8;" horiz-adv-x="778" 
d="M587 519c86 -49 133 -135 133 -247c0 -180 -123 -293 -331 -293c-50 0 -96 7 -135 19l-58 -90h-77l74 116c-87 49 -135 135 -135 248c0 180 123 294 331 294c51 0 97 -7 138 -20l58 91h77zM141 272c0 -86 36 -146 94 -182l250 390c-29 9 -62 13 -96 13
c-142 0 -248 -73 -248 -221zM389 52c142 0 248 73 248 220c0 85 -35 146 -92 182l-249 -390c28 -8 60 -12 93 -12z" />
    <glyph glyph-name="oslashacute" unicode="&#x1ff;" horiz-adv-x="778" 
d="M602 775l-221 -150h-78l165 150h134zM587 519c86 -49 133 -135 133 -247c0 -180 -123 -293 -331 -293c-50 0 -96 7 -135 19l-58 -90h-77l74 116c-87 49 -135 135 -135 248c0 180 123 294 331 294c51 0 97 -7 138 -20l58 91h77zM141 272c0 -86 36 -146 94 -182l250 390
c-29 9 -62 13 -96 13c-142 0 -248 -73 -248 -221zM389 52c142 0 248 73 248 220c0 85 -35 146 -92 182l-249 -390c28 -8 60 -12 93 -12z" />
    <glyph glyph-name="otilde" unicode="&#xf5;" horiz-adv-x="778" 
d="M587 763l49 -32c-20 -38 -66 -85 -147 -85c-89 0 -128 57 -204 57c-53 0 -77 -27 -94 -52l-49 32c20 38 65 85 147 85c88 0 127 -57 204 -57c53 0 76 27 94 52zM389 -21c-208 0 -331 113 -331 293s123 294 331 294s331 -114 331 -294s-123 -293 -331 -293zM389 52
c142 0 248 73 248 220c0 148 -106 221 -248 221s-248 -73 -248 -221c0 -147 106 -220 248 -220z" />
    <glyph glyph-name="oe" unicode="&#x153;" horiz-adv-x="1334" 
d="M720 255c8 -138 108 -206 253 -206c108 0 173 27 237 85l53 -56c-74 -67 -165 -99 -294 -99c-139 0 -238 49 -291 134c-52 -85 -152 -134 -289 -134c-208 0 -331 113 -331 293s123 294 331 294c137 0 237 -49 289 -134c52 85 151 134 286 134c194 0 318 -105 318 -293
c0 -9 -1 -14 -2 -18h-560zM965 496c-126 0 -220 -58 -241 -173h475c-24 121 -117 173 -234 173zM389 52c142 0 248 73 248 220c0 148 -106 221 -248 221s-248 -73 -248 -221c0 -147 106 -220 248 -220z" />
    <glyph glyph-name="p" unicode="p" horiz-adv-x="798" 
d="M444 -20c-120 0 -213 49 -263 125v-305h-82v745h82v-105c50 76 143 125 263 125c182 0 296 -116 296 -292s-114 -293 -296 -293zM423 492c-101 0 -186 -36 -242 -133v-173c56 -97 141 -133 242 -133c150 0 234 79 234 220c0 140 -84 219 -234 219z" />
    <glyph glyph-name="thorn" unicode="&#xfe;" horiz-adv-x="798" 
d="M444 565c182 0 296 -117 296 -293s-114 -292 -296 -292c-120 0 -213 49 -263 125v-305h-82v940h82v-300c50 76 143 125 263 125zM423 53c150 0 234 79 234 219c0 141 -84 220 -234 220c-101 0 -186 -36 -242 -133v-173c56 -97 141 -133 242 -133z" />
    <glyph glyph-name="q" unicode="q" horiz-adv-x="798" 
d="M354 -20c-182 0 -296 117 -296 293s114 292 296 292c120 0 213 -49 263 -125v105h82v-745h-82v305c-50 -76 -143 -125 -263 -125zM375 492c-150 0 -234 -79 -234 -219c0 -141 84 -220 234 -220c101 0 186 36 242 133v173c-56 97 -141 133 -242 133z" />
    <glyph glyph-name="r" unicode="r" horiz-adv-x="470" 
d="M181 0h-82v545h82v-134c44 92 153 145 271 145v-74c-124 0 -230 -55 -271 -164v-318z" />
    <glyph glyph-name="racute" unicode="&#x155;" horiz-adv-x="470" 
d="M485 775l-221 -150h-78l165 150h134zM181 0h-82v545h82v-134c44 92 153 145 271 145v-74c-124 0 -230 -55 -271 -164v-318z" />
    <glyph glyph-name="rcaron" unicode="&#x159;" horiz-adv-x="470" 
d="M71 775l156 -150h91l156 150h-95l-107 -103l-106 103h-95zM181 0h-82v545h82v-134c44 92 153 145 271 145v-74c-124 0 -230 -55 -271 -164v-318z" />
    <glyph glyph-name="rcommaaccent" unicode="&#x157;" horiz-adv-x="470" 
d="M181 0h-82v545h82v-134c44 92 153 145 271 145v-74c-124 0 -230 -55 -271 -164v-318zM141 -58c36 0 62 -25 62 -64c0 -53 -30 -128 -82 -177l-27 23c40 46 55 75 60 111c-3 -3 -10 -4 -16 -4c-31 0 -56 23 -56 56c0 31 25 55 59 55z" />
    <glyph glyph-name="s" unicode="s" horiz-adv-x="691" 
d="M363 316c164 -13 284 -54 284 -160c0 -98 -99 -177 -285 -177c-125 0 -234 43 -318 117l52 49c71 -60 154 -98 268 -98c113 0 202 35 202 101c0 68 -81 86 -220 98c-144 12 -281 43 -281 155c0 107 120 165 281 165c110 0 213 -44 273 -93l-52 -55
c-51 44 -124 79 -225 80c-83 1 -196 -19 -196 -92c0 -68 98 -81 217 -90z" />
    <glyph glyph-name="sacute" unicode="&#x15b;" horiz-adv-x="691" 
d="M558 775l-221 -150h-78l165 150h134zM363 316c164 -13 284 -54 284 -160c0 -98 -99 -177 -285 -177c-125 0 -234 43 -318 117l52 49c71 -60 154 -98 268 -98c113 0 202 35 202 101c0 68 -81 86 -220 98c-144 12 -281 43 -281 155c0 107 120 165 281 165
c110 0 213 -44 273 -93l-52 -55c-51 44 -124 79 -225 80c-83 1 -196 -19 -196 -92c0 -68 98 -81 217 -90z" />
    <glyph glyph-name="scaron" unicode="&#x161;" horiz-adv-x="691" 
d="M144 775l156 -150h91l156 150h-95l-107 -103l-106 103h-95zM363 316c164 -13 284 -54 284 -160c0 -98 -99 -177 -285 -177c-125 0 -234 43 -318 117l52 49c71 -60 154 -98 268 -98c113 0 202 35 202 101c0 68 -81 86 -220 98c-144 12 -281 43 -281 155
c0 107 120 165 281 165c110 0 213 -44 273 -93l-52 -55c-51 44 -124 79 -225 80c-83 1 -196 -19 -196 -92c0 -68 98 -81 217 -90z" />
    <glyph glyph-name="scedilla" unicode="&#x15f;" horiz-adv-x="691" 
d="M363 316c164 -13 284 -54 284 -160c0 -98 -99 -177 -285 -177c-125 0 -234 43 -318 117l52 49c71 -60 154 -98 268 -98c113 0 202 35 202 101c0 68 -81 86 -220 98c-144 12 -281 43 -281 155c0 107 120 165 281 165c110 0 213 -44 273 -93l-52 -55
c-51 44 -124 79 -225 80c-83 1 -196 -19 -196 -92c0 -68 98 -81 217 -90zM382 -52l-119 -158l-69 18l103 156z" />
    <glyph glyph-name="scircumflex" unicode="&#x15d;" horiz-adv-x="691" 
d="M144 625h95l106 103l107 -103h95l-156 150h-91zM363 316c164 -13 284 -54 284 -160c0 -98 -99 -177 -285 -177c-125 0 -234 43 -318 117l52 49c71 -60 154 -98 268 -98c113 0 202 35 202 101c0 68 -81 86 -220 98c-144 12 -281 43 -281 155c0 107 120 165 281 165
c110 0 213 -44 273 -93l-52 -55c-51 44 -124 79 -225 80c-83 1 -196 -19 -196 -92c0 -68 98 -81 217 -90z" />
    <glyph glyph-name="scommaaccent" unicode="&#x219;" horiz-adv-x="691" 
d="M363 316c164 -13 284 -54 284 -160c0 -98 -99 -177 -285 -177c-125 0 -234 43 -318 117l52 49c71 -60 154 -98 268 -98c113 0 202 35 202 101c0 68 -81 86 -220 98c-144 12 -281 43 -281 155c0 107 120 165 281 165c110 0 213 -44 273 -93l-52 -55
c-51 44 -124 79 -225 80c-83 1 -196 -19 -196 -92c0 -68 98 -81 217 -90zM355 -58c36 0 62 -25 62 -64c0 -53 -30 -128 -82 -177l-27 23c40 46 55 75 60 111c-3 -3 -10 -4 -16 -4c-31 0 -56 23 -56 56c0 31 25 55 59 55z" />
    <glyph glyph-name="germandbls" unicode="&#xdf;" horiz-adv-x="776" 
d="M311 81c36 -12 76 -20 129 -20c125 0 196 51 196 148c0 98 -71 147 -199 147h-76v68h42c123 0 195 45 195 132c0 97 -88 132 -194 132c-148 0 -223 -78 -223 -208v-480h-82v470c0 165 103 290 305 290c155 0 276 -73 276 -195c0 -87 -61 -155 -164 -170
c109 -9 204 -74 204 -196c0 -124 -100 -209 -261 -209c-63 0 -127 12 -172 28z" />
    <glyph glyph-name="t" unicode="t" horiz-adv-x="483" 
d="M438 90l29 -59c-43 -30 -97 -51 -158 -51c-98 0 -179 52 -179 158v335h-110v72h110v127h82v-127h251v-72h-251v-323c0 -67 51 -97 111 -97c43 0 79 16 115 37z" />
    <glyph glyph-name="tbar" unicode="&#x167;" horiz-adv-x="483" 
d="M438 90l29 -59c-43 -30 -97 -51 -158 -51c-98 0 -179 52 -179 158v180h-80v58h80v97h-110v72h110v127h82v-127h251v-72h-251v-97h214v-58h-214v-168c0 -67 51 -97 111 -97c43 0 79 16 115 37z" />
    <glyph glyph-name="tcaron" unicode="&#x165;" horiz-adv-x="496" 
d="M345 717c-29 0 -51 22 -51 50s22 49 54 49c36 0 57 -27 57 -58c0 -62 -25 -113 -77 -162l-20 23c31 41 47 71 52 103c-2 -3 -7 -5 -15 -5zM438 90l29 -59c-43 -30 -97 -51 -158 -51c-98 0 -179 52 -179 158v335h-110v72h110v127h82v-127h251v-72h-251v-323
c0 -67 51 -97 111 -97c43 0 79 16 115 37z" />
    <glyph glyph-name="uni0163" unicode="&#x163;" horiz-adv-x="483" 
d="M438 90l29 -59c-43 -30 -97 -51 -158 -51c-98 0 -179 52 -179 158v335h-110v72h110v127h82v-127h251v-72h-251v-323c0 -67 51 -97 111 -97c43 0 79 16 115 37zM113 -192l103 156l85 -16l-119 -158z" />
    <glyph glyph-name="uni021B" unicode="&#x21b;" horiz-adv-x="483" 
d="M467 31c-43 -30 -97 -51 -158 -51c-98 0 -179 52 -179 158v335h-110v72h110v127h82v-127h251v-72h-251v-323c0 -67 51 -97 111 -97c43 0 79 16 115 37zM274 -58c36 0 62 -25 62 -64c0 -53 -30 -128 -82 -177l-27 23c40 46 55 75 60 111c-3 -3 -10 -4 -16 -4
c-31 0 -56 23 -56 56c0 31 25 55 59 55z" />
    <glyph glyph-name="u" unicode="u" horiz-adv-x="788" 
d="M607 545h82v-545h-82v113c-51 -82 -143 -133 -260 -133c-169 0 -250 108 -250 257v308h82v-302c0 -123 61 -190 184 -190c106 0 194 49 244 150v342z" />
    <glyph glyph-name="uacute" unicode="&#xfa;" horiz-adv-x="788" 
d="M596 775l-221 -150h-78l165 150h134zM607 545h82v-545h-82v113c-51 -82 -143 -133 -260 -133c-169 0 -250 108 -250 257v308h82v-302c0 -123 61 -190 184 -190c106 0 194 49 244 150v342z" />
    <glyph glyph-name="ubreve" unicode="&#x16d;" horiz-adv-x="788" 
d="M557 775c0 -56 -41 -155 -172 -155c-132 0 -172 99 -172 155h69c2 -45 37 -91 103 -91c65 0 101 46 102 91h70zM607 545h82v-545h-82v113c-51 -82 -143 -133 -260 -133c-169 0 -250 108 -250 257v308h82v-302c0 -123 61 -190 184 -190c106 0 194 49 244 150v342z" />
    <glyph glyph-name="ucircumflex" unicode="&#xfb;" horiz-adv-x="788" 
d="M182 625h95l106 103l107 -103h95l-156 150h-91zM607 545h82v-545h-82v113c-51 -82 -143 -133 -260 -133c-169 0 -250 108 -250 257v308h82v-302c0 -123 61 -190 184 -190c106 0 194 49 244 150v342z" />
    <glyph glyph-name="udieresis" unicode="&#xfc;" horiz-adv-x="788" 
d="M254 638c-31 0 -53 23 -53 48c0 26 22 49 53 49c30 0 52 -23 52 -49c0 -25 -22 -48 -52 -48zM514 638c-31 0 -53 23 -53 48c0 26 22 49 53 49c30 0 52 -23 52 -49c0 -25 -22 -48 -52 -48zM607 545h82v-545h-82v113c-51 -82 -143 -133 -260 -133c-169 0 -250 108 -250 257
v308h82v-302c0 -123 61 -190 184 -190c106 0 194 49 244 150v342z" />
    <glyph glyph-name="ugrave" unicode="&#xf9;" horiz-adv-x="788" 
d="M173 775h134l165 -150h-78zM607 545h82v-545h-82v113c-51 -82 -143 -133 -260 -133c-169 0 -250 108 -250 257v308h82v-302c0 -123 61 -190 184 -190c106 0 194 49 244 150v342z" />
    <glyph glyph-name="uhungarumlaut" unicode="&#x171;" horiz-adv-x="788" 
d="M451 775l-164 -150h-87l164 150h87zM648 775l-164 -150h-87l164 150h87zM607 545h82v-545h-82v113c-51 -82 -143 -133 -260 -133c-169 0 -250 108 -250 257v308h82v-302c0 -123 61 -190 184 -190c106 0 194 49 244 150v342z" />
    <glyph glyph-name="umacron" unicode="&#x16b;" horiz-adv-x="788" 
d="M191 719h386v-69h-386v69zM607 545h82v-545h-82v113c-51 -82 -143 -133 -260 -133c-169 0 -250 108 -250 257v308h82v-302c0 -123 61 -190 184 -190c106 0 194 49 244 150v342z" />
    <glyph glyph-name="uogonek" unicode="&#x173;" horiz-adv-x="788" 
d="M713 -178l20 -28c-20 -17 -56 -39 -111 -39c-65 0 -132 30 -132 102c0 65 48 119 117 143v113c-51 -82 -143 -133 -260 -133c-169 0 -250 108 -250 257v308h82v-302c0 -123 61 -190 184 -190c106 0 194 49 244 150v342h82v-545h-10c-64 -23 -120 -75 -120 -135
c0 -48 36 -67 77 -67c34 0 60 13 77 24z" />
    <glyph glyph-name="uring" unicode="&#x16f;" horiz-adv-x="788" 
d="M384 618c-70 0 -129 35 -129 107c0 71 59 107 129 107s129 -36 129 -107c0 -72 -59 -107 -129 -107zM315 725c0 -40 28 -61 70 -61c41 0 70 21 70 61s-29 61 -70 61c-42 0 -70 -21 -70 -61zM607 545h82v-545h-82v113c-51 -82 -143 -133 -260 -133
c-169 0 -250 108 -250 257v308h82v-302c0 -123 61 -190 184 -190c106 0 194 49 244 150v342z" />
    <glyph glyph-name="utilde" unicode="&#x169;" horiz-adv-x="788" 
d="M582 763l49 -32c-20 -38 -66 -85 -147 -85c-89 0 -128 57 -204 57c-53 0 -77 -27 -94 -52l-49 32c20 38 65 85 147 85c88 0 127 -57 204 -57c53 0 76 27 94 52zM607 545h82v-545h-82v113c-51 -82 -143 -133 -260 -133c-169 0 -250 108 -250 257v308h82v-302
c0 -123 61 -190 184 -190c106 0 194 49 244 150v342z" />
    <glyph glyph-name="v" unicode="v" horiz-adv-x="706" 
d="M684 545l-286 -545h-90l-286 545h93l239 -463l239 463h91z" />
    <glyph glyph-name="w" unicode="w" horiz-adv-x="988" 
d="M873 545h83l-204 -545h-84l-173 456l-175 -456h-84l-204 545h85l166 -452l172 452h80l172 -452z" />
    <glyph glyph-name="wacute" unicode="&#x1e83;" horiz-adv-x="988" 
d="M707 775l-221 -150h-78l165 150h134zM873 545h83l-204 -545h-84l-173 456l-175 -456h-84l-204 545h85l166 -452l172 452h80l172 -452z" />
    <glyph glyph-name="wcircumflex" unicode="&#x175;" horiz-adv-x="988" 
d="M293 625h95l106 103l107 -103h95l-156 150h-91zM873 545h83l-204 -545h-84l-173 456l-175 -456h-84l-204 545h85l166 -452l172 452h80l172 -452z" />
    <glyph glyph-name="wdieresis" unicode="&#x1e85;" horiz-adv-x="988" 
d="M365 638c-31 0 -53 23 -53 48c0 26 22 49 53 49c30 0 52 -23 52 -49c0 -25 -22 -48 -52 -48zM625 638c-31 0 -53 23 -53 48c0 26 22 49 53 49c30 0 52 -23 52 -49c0 -25 -22 -48 -52 -48zM873 545h83l-204 -545h-84l-173 456l-175 -456h-84l-204 545h85l166 -452l172 452
h80l172 -452z" />
    <glyph glyph-name="wgrave" unicode="&#x1e81;" horiz-adv-x="988" 
d="M284 775h134l165 -150h-78zM873 545h83l-204 -545h-84l-173 456l-175 -456h-84l-204 545h85l166 -452l172 452h80l172 -452z" />
    <glyph glyph-name="x" unicode="x" horiz-adv-x="656" 
d="M630 545l-249 -270l251 -275h-103l-202 224l-202 -224h-101l252 274l-250 271h103l200 -222l200 222h101z" />
    <glyph glyph-name="y" unicode="y" horiz-adv-x="707" 
d="M595 545h90l-425 -745h-89l141 238l-290 507h92l242 -424z" />
    <glyph glyph-name="yacute" unicode="&#xfd;" horiz-adv-x="707" 
d="M566 775l-221 -150h-78l165 150h134zM595 545h90l-425 -745h-89l141 238l-290 507h92l242 -424z" />
    <glyph glyph-name="ycircumflex" unicode="&#x177;" horiz-adv-x="707" 
d="M152 625h95l106 103l107 -103h95l-156 150h-91zM595 545h90l-425 -745h-89l141 238l-290 507h92l242 -424z" />
    <glyph glyph-name="ydieresis" unicode="&#xff;" horiz-adv-x="707" 
d="M224 638c-31 0 -53 23 -53 48c0 26 22 49 53 49c30 0 52 -23 52 -49c0 -25 -22 -48 -52 -48zM484 638c-31 0 -53 23 -53 48c0 26 22 49 53 49c30 0 52 -23 52 -49c0 -25 -22 -48 -52 -48zM595 545h90l-425 -745h-89l141 238l-290 507h92l242 -424z" />
    <glyph glyph-name="ygrave" unicode="&#x1ef3;" horiz-adv-x="707" 
d="M143 775h134l165 -150h-78zM595 545h90l-425 -745h-89l141 238l-290 507h92l242 -424z" />
    <glyph glyph-name="z" unicode="z" horiz-adv-x="667" 
d="M609 545v-60l-446 -414h458v-72h-577v60l446 414h-432v72h551z" />
    <glyph glyph-name="zacute" unicode="&#x17a;" horiz-adv-x="667" 
d="M553 775l-221 -150h-78l165 150h134zM609 545v-60l-446 -414h458v-72h-577v60l446 414h-432v72h551z" />
    <glyph glyph-name="zcaron" unicode="&#x17e;" horiz-adv-x="667" 
d="M139 775l156 -150h91l156 150h-95l-107 -103l-106 103h-95zM609 545v-60l-446 -414h458v-72h-577v60l446 414h-432v72h551z" />
    <glyph glyph-name="zdotaccent" unicode="&#x17c;" horiz-adv-x="667" 
d="M341 638c-29 0 -48 17 -48 42c0 26 19 43 48 43c28 0 47 -17 47 -43c0 -25 -19 -42 -47 -42zM609 545v-60l-446 -414h458v-72h-577v60l446 414h-432v72h551z" />
    <glyph glyph-name="germandbls.case" horiz-adv-x="851" 
d="M330 87c37 -13 105 -29 178 -29c122 0 201 41 201 140c0 96 -71 140 -199 140h-126v66h92c123 0 194 40 194 123c0 101 -111 123 -213 123c-179 0 -271 -98 -271 -238v-412h-84v405c0 177 123 316 354 316c152 0 299 -57 299 -187c0 -81 -54 -143 -157 -157
c109 -9 197 -65 197 -187c0 -127 -109 -204 -269 -204c-82 0 -170 21 -216 36z" />
    <glyph glyph-name="a.ss01" horiz-adv-x="798" 
d="M354 565c120 0 213 -49 263 -125v105h82v-545h-82v105c-50 -76 -143 -125 -263 -125c-182 0 -296 116 -296 292s114 293 296 293zM375 53c101 0 186 36 242 133v173c-56 97 -141 133 -242 133c-150 0 -234 -79 -234 -220c0 -140 84 -219 234 -219z" />
    <glyph glyph-name="aacute.ss01" horiz-adv-x="798" 
d="M614 775l-221 -150h-78l165 150h134zM354 565c120 0 213 -49 263 -125v105h82v-545h-82v105c-50 -76 -143 -125 -263 -125c-182 0 -296 116 -296 292s114 293 296 293zM375 53c101 0 186 36 242 133v173c-56 97 -141 133 -242 133c-150 0 -234 -79 -234 -220
c0 -140 84 -219 234 -219z" />
    <glyph glyph-name="abreve.ss01" horiz-adv-x="798" 
d="M575 775c0 -56 -41 -155 -172 -155c-132 0 -172 99 -172 155h69c2 -45 37 -91 103 -91c65 0 101 46 102 91h70zM354 565c120 0 213 -49 263 -125v105h82v-545h-82v105c-50 -76 -143 -125 -263 -125c-182 0 -296 116 -296 292s114 293 296 293zM375 53
c101 0 186 36 242 133v173c-56 97 -141 133 -242 133c-150 0 -234 -79 -234 -220c0 -140 84 -219 234 -219z" />
    <glyph glyph-name="acircumflex.ss01" horiz-adv-x="798" 
d="M200 625h95l106 103l107 -103h95l-156 150h-91zM354 565c120 0 213 -49 263 -125v105h82v-545h-82v105c-50 -76 -143 -125 -263 -125c-182 0 -296 116 -296 292s114 293 296 293zM375 53c101 0 186 36 242 133v173c-56 97 -141 133 -242 133c-150 0 -234 -79 -234 -220
c0 -140 84 -219 234 -219z" />
    <glyph glyph-name="adieresis.ss01" horiz-adv-x="798" 
d="M272 638c-31 0 -53 23 -53 48c0 26 22 49 53 49c30 0 52 -23 52 -49c0 -25 -22 -48 -52 -48zM532 638c-31 0 -53 23 -53 48c0 26 22 49 53 49c30 0 52 -23 52 -49c0 -25 -22 -48 -52 -48zM354 565c120 0 213 -49 263 -125v105h82v-545h-82v105
c-50 -76 -143 -125 -263 -125c-182 0 -296 116 -296 292s114 293 296 293zM375 53c101 0 186 36 242 133v173c-56 97 -141 133 -242 133c-150 0 -234 -79 -234 -220c0 -140 84 -219 234 -219z" />
    <glyph glyph-name="agrave.ss01" horiz-adv-x="798" 
d="M191 775h134l165 -150h-78zM354 565c120 0 213 -49 263 -125v105h82v-545h-82v105c-50 -76 -143 -125 -263 -125c-182 0 -296 116 -296 292s114 293 296 293zM375 53c101 0 186 36 242 133v173c-56 97 -141 133 -242 133c-150 0 -234 -79 -234 -220
c0 -140 84 -219 234 -219z" />
    <glyph glyph-name="amacron.ss01" horiz-adv-x="798" 
d="M209 719h386v-69h-386v69zM354 565c120 0 213 -49 263 -125v105h82v-545h-82v105c-50 -76 -143 -125 -263 -125c-182 0 -296 116 -296 292s114 293 296 293zM375 53c101 0 186 36 242 133v173c-56 97 -141 133 -242 133c-150 0 -234 -79 -234 -220
c0 -140 84 -219 234 -219z" />
    <glyph glyph-name="aogonek.ss01" horiz-adv-x="798" 
d="M732 -178l20 -28c-20 -17 -56 -39 -111 -39c-65 0 -132 30 -132 102c0 65 47 118 116 143h-8v105c-50 -76 -143 -125 -263 -125c-182 0 -296 116 -296 292s114 293 296 293c120 0 213 -49 263 -125v105h82v-545h-1c-64 -23 -120 -75 -120 -135c0 -48 36 -67 77 -67
c34 0 60 13 77 24zM617 186v173c-56 97 -141 133 -242 133c-150 0 -234 -79 -234 -220c0 -140 84 -219 234 -219c101 0 186 36 242 133z" />
    <glyph glyph-name="aring.ss01" horiz-adv-x="798" 
d="M402 618c-70 0 -129 35 -129 107c0 71 59 107 129 107s129 -36 129 -107c0 -72 -59 -107 -129 -107zM333 725c0 -40 28 -61 70 -61c41 0 70 21 70 61s-29 61 -70 61c-42 0 -70 -21 -70 -61zM354 565c120 0 213 -49 263 -125v105h82v-545h-82v105
c-50 -76 -143 -125 -263 -125c-182 0 -296 116 -296 292s114 293 296 293zM375 53c101 0 186 36 242 133v173c-56 97 -141 133 -242 133c-150 0 -234 -79 -234 -220c0 -140 84 -219 234 -219z" />
    <glyph glyph-name="aringacute.ss01" horiz-adv-x="798" 
d="M402 618c-70 0 -129 35 -129 107c0 35 15 62 38 80l128 126h94l-125 -99c68 -2 123 -38 123 -107c0 -72 -59 -107 -129 -107zM473 725c0 40 -29 61 -70 61c-42 0 -70 -21 -70 -61s28 -61 70 -61c41 0 70 21 70 61zM617 545h82v-545h-82v105c-50 -76 -143 -125 -263 -125
c-182 0 -296 116 -296 292s114 293 296 293c120 0 213 -49 263 -125v105zM617 186v173c-56 97 -141 133 -242 133c-150 0 -234 -79 -234 -220c0 -140 84 -219 234 -219c101 0 186 36 242 133z" />
    <glyph glyph-name="atilde.ss01" horiz-adv-x="798" 
d="M600 763l49 -32c-20 -38 -66 -85 -147 -85c-89 0 -128 57 -204 57c-53 0 -77 -27 -94 -52l-49 32c20 38 65 85 147 85c88 0 127 -57 204 -57c53 0 76 27 94 52zM354 565c120 0 213 -49 263 -125v105h82v-545h-82v105c-50 -76 -143 -125 -263 -125
c-182 0 -296 116 -296 292s114 293 296 293zM375 53c101 0 186 36 242 133v173c-56 97 -141 133 -242 133c-150 0 -234 -79 -234 -220c0 -140 84 -219 234 -219z" />
    <glyph glyph-name="a.sc" horiz-adv-x="827" 
d="M712 0l-88 156h-422l-89 -156h-93l347 605h94l346 -605h-95zM244 231h337l-168 297z" />
    <glyph glyph-name="aacute.sc" horiz-adv-x="827" 
d="M626 835l-221 -150h-78l165 150h134zM712 0l-88 156h-422l-89 -156h-93l347 605h94l346 -605h-95zM244 231h337l-168 297z" />
    <glyph glyph-name="abreve.sc" horiz-adv-x="827" 
d="M415 680c-132 0 -172 99 -172 155h69c2 -45 37 -91 103 -91c65 0 101 46 102 91h70c0 -56 -41 -155 -172 -155zM712 0l-88 156h-422l-89 -156h-93l347 605h94l346 -605h-95zM244 231h337l-168 297z" />
    <glyph glyph-name="acircumflex.sc" horiz-adv-x="827" 
d="M413 788l-106 -103h-95l156 150h91l156 -150h-95zM712 0l-88 156h-422l-89 -156h-93l347 605h94l346 -605h-95zM244 231h337l-168 297z" />
    <glyph glyph-name="adieresis.sc" horiz-adv-x="827" 
d="M284 698c-31 0 -53 23 -53 48c0 26 22 49 53 49c30 0 52 -23 52 -49c0 -25 -22 -48 -52 -48zM544 698c-31 0 -53 23 -53 48c0 26 22 49 53 49c30 0 52 -23 52 -49c0 -25 -22 -48 -52 -48zM712 0l-88 156h-422l-89 -156h-93l347 605h94l346 -605h-95zM244 231h337
l-168 297z" />
    <glyph glyph-name="agrave.sc" horiz-adv-x="827" 
d="M502 685h-78l-221 150h134zM712 0l-88 156h-422l-89 -156h-93l347 605h94l346 -605h-95zM244 231h337l-168 297z" />
    <glyph glyph-name="amacron.sc" horiz-adv-x="827" 
d="M607 779v-69h-386v69h386zM712 0l-88 156h-422l-89 -156h-93l347 605h94l346 -605h-95zM244 231h337l-168 297z" />
    <glyph glyph-name="aogonek.sc" horiz-adv-x="827" 
d="M840 -178l20 -28c-20 -17 -56 -39 -111 -39c-65 0 -132 30 -132 102c0 65 47 118 116 143h-21l-88 156h-422l-89 -156h-93l347 605h94l346 -605h-1c-64 -23 -120 -75 -120 -135c0 -48 36 -67 77 -67c34 0 60 13 77 24zM244 231h337l-168 297z" />
    <glyph glyph-name="aring.sc" horiz-adv-x="827" 
d="M414 678c-70 0 -129 35 -129 107c0 71 59 107 129 107s129 -36 129 -107c0 -72 -59 -107 -129 -107zM415 846c-42 0 -70 -21 -70 -61s28 -61 70 -61c41 0 70 21 70 61s-29 61 -70 61zM712 0l-88 156h-422l-89 -156h-93l347 605h94l346 -605h-95zM244 231h337l-168 297z
" />
    <glyph glyph-name="aringacute.sc" horiz-adv-x="827" 
d="M414 678c-70 0 -129 35 -129 107c0 35 15 62 38 80l128 126h94l-125 -99c68 -2 123 -38 123 -107c0 -72 -59 -107 -129 -107zM485 785c0 40 -29 61 -70 61c-42 0 -70 -21 -70 -61s28 -61 70 -61c41 0 70 21 70 61zM712 0l-88 156h-422l-89 -156h-93l347 605h94l346 -605
h-95zM244 231h337l-168 297z" />
    <glyph glyph-name="atilde.sc" horiz-adv-x="827" 
d="M310 763c-53 0 -77 -27 -94 -52l-49 32c20 38 65 85 147 85c88 0 127 -57 204 -57c53 0 76 27 94 52l49 -32c-20 -38 -66 -85 -147 -85c-89 0 -128 57 -204 57zM712 0l-88 156h-422l-89 -156h-93l347 605h94l346 -605h-95zM244 231h337l-168 297z" />
    <glyph glyph-name="ae.sc" horiz-adv-x="1272" 
d="M679 76h533v-76h-617v148h-359l-136 -148h-102l554 605h57h594v-76h-524v-184h433v-75h-433v-194zM306 224h289v315z" />
    <glyph glyph-name="aeacute.sc" horiz-adv-x="1272" 
d="M1073 835l-221 -150h-78l165 150h134zM679 76h533v-76h-617v148h-359l-136 -148h-102l554 605h57h594v-76h-524v-184h433v-75h-433v-194zM306 224h289v315z" />
    <glyph glyph-name="b.sc" horiz-adv-x="855" 
d="M624 317c89 -6 169 -48 169 -150c0 -109 -92 -167 -240 -167h-443v605h407c147 0 240 -51 240 -150c0 -71 -50 -130 -133 -138zM193 533v-183h312c105 0 168 18 168 91c0 72 -63 92 -168 92h-312zM538 72c105 0 168 23 168 102c0 81 -63 104 -168 104h-345v-206h345z" />
    <glyph glyph-name="c.sc" horiz-adv-x="817" 
d="M446 58c107 0 198 34 247 111l78 -39c-59 -89 -171 -150 -327 -150c-236 0 -382 126 -382 322c0 197 146 323 385 323c153 0 265 -64 323 -151l-78 -39c-49 76 -139 112 -246 112c-179 0 -298 -83 -298 -245c0 -161 119 -244 298 -244z" />
    <glyph glyph-name="cacute.sc" horiz-adv-x="817" 
d="M653 836l-221 -150h-78l165 150h134zM446 58c107 0 198 34 247 111l78 -39c-59 -89 -171 -150 -327 -150c-236 0 -382 126 -382 322c0 197 146 323 385 323c153 0 265 -64 323 -151l-78 -39c-49 76 -139 112 -246 112c-179 0 -298 -83 -298 -245
c0 -161 119 -244 298 -244z" />
    <glyph glyph-name="ccaron.sc" horiz-adv-x="817" 
d="M239 836l156 -150h91l156 150h-95l-107 -103l-106 103h-95zM446 58c107 0 198 34 247 111l78 -39c-59 -89 -171 -150 -327 -150c-236 0 -382 126 -382 322c0 197 146 323 385 323c153 0 265 -64 323 -151l-78 -39c-49 76 -139 112 -246 112c-179 0 -298 -83 -298 -245
c0 -161 119 -244 298 -244z" />
    <glyph glyph-name="ccedilla.sc" horiz-adv-x="817" 
d="M446 58c107 0 198 34 247 111l78 -39c-59 -89 -171 -150 -327 -150c-236 0 -382 126 -382 322c0 197 146 323 385 323c153 0 265 -64 323 -151l-78 -39c-49 76 -139 112 -246 112c-179 0 -298 -83 -298 -245c0 -161 119 -244 298 -244zM474 -52l-119 -158l-69 18l103 156
z" />
    <glyph glyph-name="ccircumflex.sc" horiz-adv-x="817" 
d="M239 686h95l106 103l107 -103h95l-156 150h-91zM446 58c107 0 198 34 247 111l78 -39c-59 -89 -171 -150 -327 -150c-236 0 -382 126 -382 322c0 197 146 323 385 323c153 0 265 -64 323 -151l-78 -39c-49 76 -139 112 -246 112c-179 0 -298 -83 -298 -245
c0 -161 119 -244 298 -244z" />
    <glyph glyph-name="cdotaccent.sc" horiz-adv-x="817" 
d="M441 699c-29 0 -48 17 -48 42c0 26 19 43 48 43c28 0 47 -17 47 -43c0 -25 -19 -42 -47 -42zM446 58c107 0 198 34 247 111l78 -39c-59 -89 -171 -150 -327 -150c-236 0 -382 126 -382 322c0 197 146 323 385 323c153 0 265 -64 323 -151l-78 -39
c-49 76 -139 112 -246 112c-179 0 -298 -83 -298 -245c0 -161 119 -244 298 -244z" />
    <glyph glyph-name="d.sc" horiz-adv-x="865" 
d="M421 605c233 0 382 -116 382 -303c0 -186 -149 -302 -382 -302h-311v605h311zM415 78c177 0 302 72 302 224c0 153 -125 225 -302 225h-221v-449h221z" />
    <glyph glyph-name="eth.sc" horiz-adv-x="877" 
d="M433 605c233 0 382 -116 382 -303c0 -186 -149 -302 -382 -302h-311v274h-94v69h94v262h311zM427 78c177 0 302 72 302 224c0 153 -125 225 -302 225h-221v-184h204v-69h-204v-196h221z" />
    <glyph glyph-name="dcaron.sc" horiz-adv-x="865" 
d="M223 835l156 -150h91l156 150h-95l-107 -103l-106 103h-95zM421 605c233 0 382 -116 382 -303c0 -186 -149 -302 -382 -302h-311v605h311zM415 78c177 0 302 72 302 224c0 153 -125 225 -302 225h-221v-449h221z" />
    <glyph glyph-name="dcroat.sc" horiz-adv-x="877" 
d="M433 605c233 0 382 -116 382 -303c0 -186 -149 -302 -382 -302h-311v274h-94v69h94v262h311zM427 78c177 0 302 72 302 224c0 153 -125 225 -302 225h-221v-184h204v-69h-204v-196h221z" />
    <glyph glyph-name="e.sc" horiz-adv-x="787" 
d="M194 76h533v-76h-617v605h608v-76h-524v-184h442v-76h-442v-193z" />
    <glyph glyph-name="eacute.sc" horiz-adv-x="787" 
d="M622 835l-221 -150h-78l165 150h134zM194 76h533v-76h-617v605h608v-76h-524v-184h442v-76h-442v-193z" />
    <glyph glyph-name="ebreve.sc" horiz-adv-x="787" 
d="M583 835c0 -56 -41 -155 -172 -155c-132 0 -172 99 -172 155h69c2 -45 37 -91 103 -91c65 0 101 46 102 91h70zM194 76h533v-76h-617v605h608v-76h-524v-184h442v-76h-442v-193z" />
    <glyph glyph-name="ecaron.sc" horiz-adv-x="787" 
d="M208 835l156 -150h91l156 150h-95l-107 -103l-106 103h-95zM194 76h533v-76h-617v605h608v-76h-524v-184h442v-76h-442v-193z" />
    <glyph glyph-name="ecircumflex.sc" horiz-adv-x="787" 
d="M208 685h95l106 103l107 -103h95l-156 150h-91zM194 76h533v-76h-617v605h608v-76h-524v-184h442v-76h-442v-193z" />
    <glyph glyph-name="edieresis.sc" horiz-adv-x="787" 
d="M280 698c-31 0 -53 23 -53 48c0 26 22 49 53 49c30 0 52 -23 52 -49c0 -25 -22 -48 -52 -48zM540 698c-31 0 -53 23 -53 48c0 26 22 49 53 49c30 0 52 -23 52 -49c0 -25 -22 -48 -52 -48zM194 76h533v-76h-617v605h608v-76h-524v-184h442v-76h-442v-193z" />
    <glyph glyph-name="edotaccent.sc" horiz-adv-x="787" 
d="M410 698c-29 0 -48 17 -48 42c0 26 19 43 48 43c28 0 47 -17 47 -43c0 -25 -19 -42 -47 -42zM194 76h533v-76h-617v605h608v-76h-524v-184h442v-76h-442v-193z" />
    <glyph glyph-name="egrave.sc" horiz-adv-x="787" 
d="M199 835h134l165 -150h-78zM194 76h533v-76h-617v605h608v-76h-524v-184h442v-76h-442v-193z" />
    <glyph glyph-name="emacron.sc" horiz-adv-x="787" 
d="M217 779h386v-69h-386v69zM194 76h533v-76h-617v605h608v-76h-524v-184h442v-76h-442v-193z" />
    <glyph glyph-name="eogonek.sc" horiz-adv-x="787" 
d="M759 -178l20 -28c-20 -17 -56 -39 -111 -39c-65 0 -132 30 -132 102c0 65 47 118 116 143h-542v605h608v-76h-524v-184h442v-76h-442v-193h533v-76h-2c-64 -23 -120 -75 -120 -135c0 -48 36 -67 77 -67c34 0 60 13 77 24z" />
    <glyph glyph-name="f.sc" horiz-adv-x="755" 
d="M717 529h-523v-200h442v-76h-442v-253h-84v605h607v-76z" />
    <glyph glyph-name="fi.sc" horiz-adv-x="1059" 
d="M717 529h-523v-200h442v-76h-442v-253h-84v605h607v-76zM949 0h-84v605h84v-605z" />
    <glyph glyph-name="fl.sc" horiz-adv-x="1458" 
d="M717 529h-523v-200h442v-76h-442v-253h-84v605h607v-76zM949 78h481v-78h-565v605h84v-527z" />
    <glyph glyph-name="g.sc" horiz-adv-x="873" 
d="M810 316v-170c-52 -95 -181 -166 -356 -166c-246 0 -392 125 -392 322c0 198 146 323 392 323c153 0 260 -51 324 -124l-70 -52c-63 69 -143 99 -251 99c-191 0 -309 -83 -309 -246c0 -162 119 -245 309 -245c123 0 224 33 269 114v69h-281v76h365z" />
    <glyph glyph-name="gbreve.sc" horiz-adv-x="873" 
d="M625 836c0 -56 -41 -155 -172 -155c-132 0 -172 99 -172 155h69c2 -45 37 -91 103 -91c65 0 101 46 102 91h70zM810 316v-170c-52 -95 -181 -166 -356 -166c-246 0 -392 125 -392 322c0 198 146 323 392 323c153 0 260 -51 324 -124l-70 -52c-63 69 -143 99 -251 99
c-191 0 -309 -83 -309 -246c0 -162 119 -245 309 -245c123 0 224 33 269 114v69h-281v76h365z" />
    <glyph glyph-name="gcircumflex.sc" horiz-adv-x="873" 
d="M250 686h95l106 103l107 -103h95l-156 150h-91zM810 316v-170c-52 -95 -181 -166 -356 -166c-246 0 -392 125 -392 322c0 198 146 323 392 323c153 0 260 -51 324 -124l-70 -52c-63 69 -143 99 -251 99c-191 0 -309 -83 -309 -246c0 -162 119 -245 309 -245
c123 0 224 33 269 114v69h-281v76h365z" />
    <glyph glyph-name="gcommaaccent.sc" horiz-adv-x="873" 
d="M810 316v-170c-52 -95 -181 -166 -356 -166c-246 0 -392 125 -392 322c0 198 146 323 392 323c153 0 260 -51 324 -124l-70 -52c-63 69 -143 99 -251 99c-191 0 -309 -83 -309 -246c0 -162 119 -245 309 -245c123 0 224 33 269 114v69h-281v76h365zM453 -58
c36 0 62 -25 62 -64c0 -53 -30 -128 -82 -177l-27 23c40 46 55 75 60 111c-3 -3 -10 -4 -16 -4c-31 0 -56 23 -56 56c0 31 25 55 59 55z" />
    <glyph glyph-name="gdotaccent.sc" horiz-adv-x="873" 
d="M452 699c-29 0 -48 17 -48 42c0 26 19 43 48 43c28 0 47 -17 47 -43c0 -25 -19 -42 -47 -42zM810 316v-170c-52 -95 -181 -166 -356 -166c-246 0 -392 125 -392 322c0 198 146 323 392 323c153 0 260 -51 324 -124l-70 -52c-63 69 -143 99 -251 99
c-191 0 -309 -83 -309 -246c0 -162 119 -245 309 -245c123 0 224 33 269 114v69h-281v76h365z" />
    <glyph glyph-name="h.sc" 
d="M705 605h84v-605h-84v267h-511v-267h-84v605h84v-258h511v258z" />
    <glyph glyph-name="hbar.sc" horiz-adv-x="931" 
d="M903 495v-62h-98v-433h-84v267h-511v-267h-84v433h-98v62h98v110h84v-110h511v110h84v-110h98zM721 347v86h-511v-86h511z" />
    <glyph glyph-name="hcircumflex.sc" 
d="M248 686h95l106 103l107 -103h95l-156 150h-91zM705 605h84v-605h-84v267h-511v-267h-84v605h84v-258h511v258z" />
    <glyph glyph-name="i.sc" horiz-adv-x="304" 
d="M194 0h-84v605h84v-605z" />
    <glyph glyph-name="iacute.sc" horiz-adv-x="304" 
d="M363 835l-221 -150h-78l165 150h134zM194 0h-84v605h84v-605z" />
    <glyph glyph-name="ibreve.sc" horiz-adv-x="304" 
d="M324 835c0 -56 -41 -155 -172 -155c-132 0 -172 99 -172 155h69c2 -45 37 -91 103 -91c65 0 101 46 102 91h70zM194 0h-84v605h84v-605z" />
    <glyph glyph-name="icircumflex.sc" horiz-adv-x="304" 
d="M-51 685h95l106 103l107 -103h95l-156 150h-91zM194 0h-84v605h84v-605z" />
    <glyph glyph-name="idieresis.sc" horiz-adv-x="304" 
d="M21 698c-31 0 -53 23 -53 48c0 26 22 49 53 49c30 0 52 -23 52 -49c0 -25 -22 -48 -52 -48zM281 698c-31 0 -53 23 -53 48c0 26 22 49 53 49c30 0 52 -23 52 -49c0 -25 -22 -48 -52 -48zM194 0h-84v605h84v-605z" />
    <glyph glyph-name="i.sc.loclTRK" horiz-adv-x="304" 
d="M151 698c-29 0 -48 17 -48 42c0 26 19 43 48 43c28 0 47 -17 47 -43c0 -25 -19 -42 -47 -42zM194 0h-84v605h84v-605z" />
    <glyph glyph-name="igrave.sc" horiz-adv-x="304" 
d="M-60 835h134l165 -150h-78zM194 0h-84v605h84v-605z" />
    <glyph glyph-name="ij.sc" horiz-adv-x="948" 
d="M194 0h-84v605h84v-605zM394 130c33 -50 83 -72 173 -72c141 0 199 80 199 200v347h84v-353c0 -150 -85 -272 -283 -272c-121 0 -196 42 -242 105z" />
    <glyph glyph-name="imacron.sc" horiz-adv-x="316" 
d="M-35 874h386v-69h-386v69zM200 0h-84v700h84v-700z" />
    <glyph glyph-name="iogonek.sc" horiz-adv-x="316" 
d="M233 -178l20 -28c-20 -17 -56 -39 -111 -39c-65 0 -132 30 -132 102c0 65 47 118 116 143h-10v700h84v-700h-1c-64 -23 -120 -75 -120 -135c0 -48 36 -67 77 -67c34 0 60 13 77 24z" />
    <glyph glyph-name="itilde.sc" horiz-adv-x="316" 
d="M356 918l49 -32c-20 -38 -66 -85 -147 -85c-89 0 -128 57 -204 57c-53 0 -77 -27 -94 -52l-49 32c20 38 65 85 147 85c88 0 127 -57 204 -57c53 0 76 27 94 52zM200 0h-84v700h84v-700z" />
    <glyph glyph-name="j.sc" horiz-adv-x="644" 
d="M90 130c33 -50 83 -72 173 -72c141 0 199 80 199 200v347h84v-353c0 -150 -85 -272 -283 -272c-121 0 -196 42 -242 105z" />
    <glyph glyph-name="jcircumflex.sc" horiz-adv-x="644" 
d="M302 685h95l106 103l107 -103h95l-156 150h-91zM90 130c33 -50 83 -72 173 -72c141 0 199 80 199 200v347h84v-353c0 -150 -85 -272 -283 -272c-121 0 -196 42 -242 105z" />
    <glyph glyph-name="k.sc" horiz-adv-x="813" 
d="M799 0h-106l-294 319l-205 -154v-165h-84v605h84v-345l468 345h118l-313 -238z" />
    <glyph glyph-name="kcommaaccent.sc" horiz-adv-x="813" 
d="M467 367l332 -367h-106l-294 319l-205 -154v-165h-84v605h84v-345l468 345h118zM433 -58c36 0 62 -25 62 -64c0 -53 -30 -128 -82 -177l-27 23c40 46 55 75 60 111c-3 -3 -10 -4 -16 -4c-31 0 -56 23 -56 56c0 31 25 55 59 55z" />
    <glyph glyph-name="l.sc" horiz-adv-x="703" 
d="M194 78h481v-78h-565v605h84v-527z" />
    <glyph glyph-name="lacute.sc" horiz-adv-x="703" 
d="M364 835l-221 -150h-78l165 150h134zM194 78h481v-78h-565v605h84v-527z" />
    <glyph glyph-name="lcaron.sc" horiz-adv-x="703" 
d="M436 635c36 0 62 -25 62 -64c0 -53 -30 -128 -82 -177l-27 23c40 46 55 75 60 111c-3 -3 -10 -4 -16 -4c-31 0 -56 23 -56 56c0 31 25 55 59 55zM194 78h481v-78h-565v605h84v-527z" />
    <glyph glyph-name="lcommaaccent.sc" horiz-adv-x="703" 
d="M194 78h481v-78h-565v605h84v-527zM393 -58c36 0 62 -25 62 -64c0 -53 -30 -128 -82 -177l-27 23c40 46 55 75 60 111c-3 -3 -10 -4 -16 -4c-31 0 -56 23 -56 56c0 31 25 55 59 55z" />
    <glyph glyph-name="ldot.sc" horiz-adv-x="703" 
d="M194 78h481v-78h-565v605h84v-527zM401 289c-35 0 -60 24 -60 56s25 56 60 56s60 -24 60 -56s-25 -56 -60 -56z" />
    <glyph glyph-name="lslash.sc" horiz-adv-x="734" 
d="M225 78h481v-78h-565v235l-103 -51v69l103 51v301h84v-260l186 92v-70l-186 -91v-198z" />
    <glyph glyph-name="m.sc" horiz-adv-x="1026" 
d="M825 605h91v-605h-84v487l-317 -364h-6l-317 364v-487h-82v605h92l312 -361z" />
    <glyph glyph-name="n.sc" 
d="M707 605h82v-605h-74l-523 498v-498h-82v605h91l506 -482v482z" />
    <glyph glyph-name="nacute.sc" 
d="M662 835l-221 -150h-78l165 150h134zM707 605h82v-605h-74l-523 498v-498h-82v605h91l506 -482v482z" />
    <glyph glyph-name="ncaron.sc" 
d="M248 835l156 -150h91l156 150h-95l-107 -103l-106 103h-95zM707 605h82v-605h-74l-523 498v-498h-82v605h91l506 -482v482z" />
    <glyph glyph-name="ncommaaccent.sc" 
d="M707 605h82v-605h-74l-523 498v-498h-82v605h91l506 -482v482zM451 -58c36 0 62 -25 62 -64c0 -53 -30 -128 -82 -177l-27 23c40 46 55 75 60 111c-3 -3 -10 -4 -16 -4c-31 0 -56 23 -56 56c0 31 25 55 59 55z" />
    <glyph glyph-name="eng.sc" 
d="M706 605h83v-587v-48c0 -102 -64 -160 -160 -160c-37 0 -70 5 -93 15l20 63c14 -6 29 -8 57 -8c62 0 95 21 94 86v42l-515 490v-498h-82v605h91l505 -482v96l-1 253h1v133z" />
    <glyph glyph-name="ntilde.sc" 
d="M648 823l49 -32c-20 -38 -66 -85 -147 -85c-89 0 -128 57 -204 57c-53 0 -77 -27 -94 -52l-49 32c20 38 65 85 147 85c88 0 127 -57 204 -57c53 0 76 27 94 52zM707 605h82v-605h-74l-523 498v-498h-82v605h91l506 -482v482z" />
    <glyph glyph-name="o.sc" 
d="M450 -20c-242 0 -388 125 -388 322c0 198 146 323 388 323c241 0 387 -125 387 -323c0 -197 -146 -322 -387 -322zM450 58c182 0 301 88 301 244c0 157 -119 245 -301 245c-183 0 -302 -88 -302 -245c0 -156 119 -244 302 -244z" />
    <glyph glyph-name="oacute.sc" 
d="M662 835l-221 -150h-78l165 150h134zM450 -20c-242 0 -388 125 -388 322c0 198 146 323 388 323c241 0 387 -125 387 -323c0 -197 -146 -322 -387 -322zM450 58c182 0 301 88 301 244c0 157 -119 245 -301 245c-183 0 -302 -88 -302 -245c0 -156 119 -244 302 -244z" />
    <glyph glyph-name="obreve.sc" 
d="M623 835c0 -56 -41 -155 -172 -155c-132 0 -172 99 -172 155h69c2 -45 37 -91 103 -91c65 0 101 46 102 91h70zM450 -20c-242 0 -388 125 -388 322c0 198 146 323 388 323c241 0 387 -125 387 -323c0 -197 -146 -322 -387 -322zM450 58c182 0 301 88 301 244
c0 157 -119 245 -301 245c-183 0 -302 -88 -302 -245c0 -156 119 -244 302 -244z" />
    <glyph glyph-name="ocircumflex.sc" 
d="M248 685h95l106 103l107 -103h95l-156 150h-91zM450 -20c-242 0 -388 125 -388 322c0 198 146 323 388 323c241 0 387 -125 387 -323c0 -197 -146 -322 -387 -322zM450 58c182 0 301 88 301 244c0 157 -119 245 -301 245c-183 0 -302 -88 -302 -245
c0 -156 119 -244 302 -244z" />
    <glyph glyph-name="odieresis.sc" 
d="M320 698c-31 0 -53 23 -53 48c0 26 22 49 53 49c30 0 52 -23 52 -49c0 -25 -22 -48 -52 -48zM580 698c-31 0 -53 23 -53 48c0 26 22 49 53 49c30 0 52 -23 52 -49c0 -25 -22 -48 -52 -48zM450 -20c-242 0 -388 125 -388 322c0 198 146 323 388 323
c241 0 387 -125 387 -323c0 -197 -146 -322 -387 -322zM450 58c182 0 301 88 301 244c0 157 -119 245 -301 245c-183 0 -302 -88 -302 -245c0 -156 119 -244 302 -244z" />
    <glyph glyph-name="ograve.sc" 
d="M239 835h134l165 -150h-78zM450 -20c-242 0 -388 125 -388 322c0 198 146 323 388 323c241 0 387 -125 387 -323c0 -197 -146 -322 -387 -322zM450 58c182 0 301 88 301 244c0 157 -119 245 -301 245c-183 0 -302 -88 -302 -245c0 -156 119 -244 302 -244z" />
    <glyph glyph-name="ohungarumlaut.sc" 
d="M517 835l-164 -150h-87l164 150h87zM714 835l-164 -150h-87l164 150h87zM450 -20c-242 0 -388 125 -388 322c0 198 146 323 388 323c241 0 387 -125 387 -323c0 -197 -146 -322 -387 -322zM450 58c182 0 301 88 301 244c0 157 -119 245 -301 245
c-183 0 -302 -88 -302 -245c0 -156 119 -244 302 -244z" />
    <glyph glyph-name="omacron.sc" 
d="M257 779h386v-69h-386v69zM450 -20c-242 0 -388 125 -388 322c0 198 146 323 388 323c241 0 387 -125 387 -323c0 -197 -146 -322 -387 -322zM450 58c182 0 301 88 301 244c0 157 -119 245 -301 245c-183 0 -302 -88 -302 -245c0 -156 119 -244 302 -244z" />
    <glyph glyph-name="oslash.sc" 
d="M690 569c94 -55 147 -148 147 -267c0 -197 -146 -322 -387 -322c-65 0 -123 9 -173 26l-72 -98h-84l92 126c-97 55 -151 148 -151 268c0 198 146 323 388 323c67 0 126 -10 177 -28l73 100h84zM148 302c0 -93 42 -161 114 -202l315 430c-37 11 -80 17 -127 17
c-183 0 -302 -88 -302 -245zM450 58c182 0 301 88 301 244c0 91 -40 159 -110 200l-314 -428c36 -11 78 -16 123 -16z" />
    <glyph glyph-name="oslashacute.sc" 
d="M661 835l-221 -150h-78l165 150h134zM690 569c94 -55 147 -148 147 -267c0 -197 -146 -322 -387 -322c-65 0 -123 9 -173 26l-72 -98h-84l92 126c-97 55 -151 148 -151 268c0 198 146 323 388 323c67 0 126 -10 177 -28l73 100h84zM148 302c0 -93 42 -161 114 -202
l315 430c-37 11 -80 17 -127 17c-183 0 -302 -88 -302 -245zM450 58c182 0 301 88 301 244c0 91 -40 159 -110 200l-314 -428c36 -11 78 -16 123 -16z" />
    <glyph glyph-name="otilde.sc" 
d="M648 823l49 -32c-20 -38 -66 -85 -147 -85c-89 0 -128 57 -204 57c-53 0 -77 -27 -94 -52l-49 32c20 38 65 85 147 85c88 0 127 -57 204 -57c53 0 76 27 94 52zM450 -20c-242 0 -388 125 -388 322c0 198 146 323 388 323c241 0 387 -125 387 -323
c0 -197 -146 -322 -387 -322zM450 58c182 0 301 88 301 244c0 157 -119 245 -301 245c-183 0 -302 -88 -302 -245c0 -156 119 -244 302 -244z" />
    <glyph glyph-name="oe.sc" horiz-adv-x="1348" 
d="M755 76h533v-76h-617h-227c-233 0 -382 116 -382 302c0 187 149 303 382 303h311h524v-76h-524v-184h442v-76h-442v-193zM671 78v449h-221c-177 0 -302 -72 -302 -225c0 -152 125 -224 302 -224h221z" />
    <glyph glyph-name="p.sc" horiz-adv-x="825" 
d="M534 605c148 0 247 -71 247 -194s-99 -194 -247 -194h-340v-217h-84v605h424zM528 291c101 0 167 34 167 120c0 85 -66 120 -167 120h-334v-240h334z" />
    <glyph glyph-name="thorn.sc" horiz-adv-x="825" 
d="M527 502c154 0 254 -71 254 -194c0 -124 -100 -194 -254 -194h-333v-114h-84v605h84v-103h333zM521 188c109 0 174 36 174 120c0 85 -65 120 -174 120h-327v-240h327z" />
    <glyph glyph-name="q.sc" 
d="M837 302c0 -112 -47 -201 -132 -256l94 -98l-55 -48l-107 111c-53 -20 -116 -31 -187 -31c-242 0 -388 125 -388 322c0 198 146 323 388 323c241 0 387 -125 387 -323zM450 58c46 0 88 6 126 17l-101 104l55 48l117 -121c66 41 104 108 104 196c0 157 -119 245 -301 245
c-183 0 -302 -88 -302 -245c0 -156 119 -244 302 -244z" />
    <glyph glyph-name="r.sc" horiz-adv-x="855" 
d="M803 0h-110l-206 227h-293v-227h-84v605h428c141 0 245 -68 245 -189c0 -106 -79 -171 -193 -186zM193 301h339c98 0 165 32 165 115s-67 115 -165 115h-339v-230z" />
    <glyph glyph-name="racute.sc" horiz-adv-x="855" 
d="M624 835l-221 -150h-78l165 150h134zM803 0h-110l-206 227h-293v-227h-84v605h428c141 0 245 -68 245 -189c0 -106 -79 -171 -193 -186zM193 301h339c98 0 165 32 165 115s-67 115 -165 115h-339v-230z" />
    <glyph glyph-name="rcaron.sc" horiz-adv-x="855" 
d="M457 685h-91l-156 150h95l106 -103l107 103h95zM803 0h-110l-206 227h-293v-227h-84v605h428c141 0 245 -68 245 -189c0 -106 -79 -171 -193 -186zM193 301h339c98 0 165 32 165 115s-67 115 -165 115h-339v-230z" />
    <glyph glyph-name="rcommaaccent.sc" horiz-adv-x="855" 
d="M590 230l213 -230h-110l-206 227h-293v-227h-84v605h428c141 0 245 -68 245 -189c0 -106 -79 -171 -193 -186zM193 301h339c98 0 165 32 165 115s-67 115 -165 115h-339v-230zM432 -58c36 0 62 -25 62 -64c0 -53 -30 -128 -82 -177l-27 23c40 46 55 75 60 111
c-3 -3 -10 -4 -16 -4c-31 0 -56 23 -56 56c0 31 25 55 59 55z" />
    <glyph glyph-name="s.sc" horiz-adv-x="799" 
d="M420 350c194 -15 329 -52 329 -173c0 -113 -119 -195 -327 -195c-139 0 -273 41 -372 123l57 58c91 -74 193 -107 320 -107c149 0 236 43 236 114c0 70 -90 88 -258 102c-170 14 -333 51 -333 172c0 116 149 181 320 181c137 0 253 -45 327 -106l-59 -55
c-65 57 -158 86 -263 87c-111 1 -239 -27 -239 -103c0 -71 115 -87 262 -98z" />
    <glyph glyph-name="sacute.sc" horiz-adv-x="799" 
d="M614 835l-221 -150h-78l165 150h134zM420 350c194 -15 329 -52 329 -173c0 -113 -119 -195 -327 -195c-139 0 -273 41 -372 123l57 58c91 -74 193 -107 320 -107c149 0 236 43 236 114c0 70 -90 88 -258 102c-170 14 -333 51 -333 172c0 116 149 181 320 181
c137 0 253 -45 327 -106l-59 -55c-65 57 -158 86 -263 87c-111 1 -239 -27 -239 -103c0 -71 115 -87 262 -98z" />
    <glyph glyph-name="scaron.sc" horiz-adv-x="799" 
d="M200 835l156 -150h91l156 150h-95l-107 -103l-106 103h-95zM420 350c194 -15 329 -52 329 -173c0 -113 -119 -195 -327 -195c-139 0 -273 41 -372 123l57 58c91 -74 193 -107 320 -107c149 0 236 43 236 114c0 70 -90 88 -258 102c-170 14 -333 51 -333 172
c0 116 149 181 320 181c137 0 253 -45 327 -106l-59 -55c-65 57 -158 86 -263 87c-111 1 -239 -27 -239 -103c0 -71 115 -87 262 -98z" />
    <glyph glyph-name="scedilla.sc" horiz-adv-x="799" 
d="M420 350c194 -15 329 -52 329 -173c0 -113 -119 -195 -327 -195c-139 0 -273 41 -372 123l57 58c91 -74 193 -107 320 -107c149 0 236 43 236 114c0 70 -90 88 -258 102c-170 14 -333 51 -333 172c0 116 149 181 320 181c137 0 253 -45 327 -106l-59 -55
c-65 57 -158 86 -263 87c-111 1 -239 -27 -239 -103c0 -71 115 -87 262 -98zM442 -52l-119 -158l-69 18l103 156z" />
    <glyph glyph-name="scircumflex.sc" horiz-adv-x="799" 
d="M200 685h95l106 103l107 -103h95l-156 150h-91zM420 350c194 -15 329 -52 329 -173c0 -113 -119 -195 -327 -195c-139 0 -273 41 -372 123l57 58c91 -74 193 -107 320 -107c149 0 236 43 236 114c0 70 -90 88 -258 102c-170 14 -333 51 -333 172c0 116 149 181 320 181
c137 0 253 -45 327 -106l-59 -55c-65 57 -158 86 -263 87c-111 1 -239 -27 -239 -103c0 -71 115 -87 262 -98z" />
    <glyph glyph-name="scommaaccent.sc" horiz-adv-x="799" 
d="M420 350c194 -15 329 -52 329 -173c0 -113 -119 -195 -327 -195c-139 0 -273 41 -372 123l57 58c91 -74 193 -107 320 -107c149 0 236 43 236 114c0 70 -90 88 -258 102c-170 14 -333 51 -333 172c0 116 149 181 320 181c137 0 253 -45 327 -106l-59 -55
c-65 57 -158 86 -263 87c-111 1 -239 -27 -239 -103c0 -71 115 -87 262 -98zM415 -58c36 0 62 -25 62 -64c0 -53 -30 -128 -82 -177l-27 23c40 46 55 75 60 111c-3 -3 -10 -4 -16 -4c-31 0 -56 23 -56 56c0 31 25 55 59 55z" />
    <glyph glyph-name="germandbls.sc" horiz-adv-x="1598" 
d="M420 350c194 -15 329 -52 329 -173c0 -113 -119 -195 -327 -195c-139 0 -273 41 -372 123l57 58c91 -74 193 -107 320 -107c149 0 236 43 236 114c0 70 -90 88 -258 102c-170 14 -333 51 -333 172c0 116 149 181 320 181c137 0 253 -45 327 -106l-59 -55
c-65 57 -158 86 -263 87c-111 1 -239 -27 -239 -103c0 -71 115 -87 262 -98zM1219 350c194 -15 329 -52 329 -173c0 -113 -119 -195 -327 -195c-139 0 -273 41 -372 123l57 58c91 -74 193 -107 320 -107c149 0 236 43 236 114c0 70 -90 88 -258 102
c-170 14 -333 51 -333 172c0 116 149 181 320 181c137 0 253 -45 327 -106l-59 -55c-65 57 -158 86 -263 87c-111 1 -239 -27 -239 -103c0 -71 115 -87 262 -98z" />
    <glyph glyph-name="t.sc" horiz-adv-x="731" 
d="M704 605v-76h-297v-529h-84v529h-296v76h677z" />
    <glyph glyph-name="tbar.sc" horiz-adv-x="721" 
d="M699 529h-297v-165h157v-69h-157v-295h-84v295h-145v69h145v165h-296v76h677v-76z" />
    <glyph glyph-name="tcaron.sc" horiz-adv-x="731" 
d="M164 835l156 -150h91l156 150h-95l-107 -103l-106 103h-95zM704 605v-76h-297v-529h-84v529h-296v76h677z" />
    <glyph glyph-name="uni0163.sc" horiz-adv-x="731" 
d="M704 605v-76h-297v-529h-84v529h-296v76h677zM396 -44l-119 -158l-69 18l103 156z" />
    <glyph glyph-name="u.sc" horiz-adv-x="870" 
d="M688 605h84v-320c0 -177 -117 -305 -337 -305c-219 0 -337 128 -337 305v320h84v-315c0 -143 91 -232 253 -232s253 89 253 232v315z" />
    <glyph glyph-name="uacute.sc" horiz-adv-x="870" 
d="M647 835l-221 -150h-78l165 150h134zM688 605h84v-320c0 -177 -117 -305 -337 -305c-219 0 -337 128 -337 305v320h84v-315c0 -143 91 -232 253 -232s253 89 253 232v315z" />
    <glyph glyph-name="ubreve.sc" horiz-adv-x="870" 
d="M608 835c0 -56 -41 -155 -172 -155c-132 0 -172 99 -172 155h69c2 -45 37 -91 103 -91c65 0 101 46 102 91h70zM688 605h84v-320c0 -177 -117 -305 -337 -305c-219 0 -337 128 -337 305v320h84v-315c0 -143 91 -232 253 -232s253 89 253 232v315z" />
    <glyph glyph-name="ucircumflex.sc" horiz-adv-x="870" 
d="M233 685h95l106 103l107 -103h95l-156 150h-91zM688 605h84v-320c0 -177 -117 -305 -337 -305c-219 0 -337 128 -337 305v320h84v-315c0 -143 91 -232 253 -232s253 89 253 232v315z" />
    <glyph glyph-name="udieresis.sc" horiz-adv-x="870" 
d="M305 698c-31 0 -53 23 -53 48c0 26 22 49 53 49c30 0 52 -23 52 -49c0 -25 -22 -48 -52 -48zM565 698c-31 0 -53 23 -53 48c0 26 22 49 53 49c30 0 52 -23 52 -49c0 -25 -22 -48 -52 -48zM688 605h84v-320c0 -177 -117 -305 -337 -305c-219 0 -337 128 -337 305v320h84
v-315c0 -143 91 -232 253 -232s253 89 253 232v315z" />
    <glyph glyph-name="ugrave.sc" horiz-adv-x="870" 
d="M224 835h134l165 -150h-78zM688 605h84v-320c0 -177 -117 -305 -337 -305c-219 0 -337 128 -337 305v320h84v-315c0 -143 91 -232 253 -232s253 89 253 232v315z" />
    <glyph glyph-name="uhungarumlaut.sc" horiz-adv-x="870" 
d="M502 835l-164 -150h-87l164 150h87zM699 835l-164 -150h-87l164 150h87zM688 605h84v-320c0 -177 -117 -305 -337 -305c-219 0 -337 128 -337 305v320h84v-315c0 -143 91 -232 253 -232s253 89 253 232v315z" />
    <glyph glyph-name="umacron.sc" horiz-adv-x="870" 
d="M242 779h386v-69h-386v69zM688 605h84v-320c0 -177 -117 -305 -337 -305c-219 0 -337 128 -337 305v320h84v-315c0 -143 91 -232 253 -232s253 89 253 232v315z" />
    <glyph glyph-name="uogonek.sc" horiz-adv-x="870" 
d="M688 605h84v-320c0 -136 -70 -244 -202 -286c-63 -23 -118 -75 -118 -134c0 -48 36 -67 77 -67c34 0 60 13 77 24l20 -28c-20 -17 -56 -39 -111 -39c-65 0 -132 30 -132 102c0 51 29 95 75 123h-23c-219 0 -337 128 -337 305v320h84v-315c0 -143 91 -232 253 -232
s253 89 253 232v315z" />
    <glyph glyph-name="uring.sc" horiz-adv-x="870" 
d="M435 678c-70 0 -129 35 -129 107c0 71 59 107 129 107s129 -36 129 -107c0 -72 -59 -107 -129 -107zM366 785c0 -40 28 -61 70 -61c41 0 70 21 70 61s-29 61 -70 61c-42 0 -70 -21 -70 -61zM688 605h84v-320c0 -177 -117 -305 -337 -305c-219 0 -337 128 -337 305v320h84
v-315c0 -143 91 -232 253 -232s253 89 253 232v315z" />
    <glyph glyph-name="utilde.sc" horiz-adv-x="870" 
d="M633 823l49 -32c-20 -38 -66 -85 -147 -85c-89 0 -128 57 -204 57c-53 0 -77 -27 -94 -52l-49 32c20 38 65 85 147 85c88 0 127 -57 204 -57c53 0 76 27 94 52zM688 605h84v-320c0 -177 -117 -305 -337 -305c-219 0 -337 128 -337 305v320h84v-315
c0 -143 91 -232 253 -232s253 89 253 232v315z" />
    <glyph glyph-name="v.sc" horiz-adv-x="799" 
d="M20 605h95l285 -514l286 514h93l-333 -605h-93z" />
    <glyph glyph-name="w.sc" horiz-adv-x="1105" 
d="M984 605h89l-232 -605h-89l-199 506l-200 -506h-89l-232 605h91l187 -507l202 507h83l201 -507z" />
    <glyph glyph-name="wacute.sc" horiz-adv-x="1105" 
d="M765 835l-221 -150h-78l165 150h134zM984 605h89l-232 -605h-89l-199 506l-200 -506h-89l-232 605h91l187 -507l202 507h83l201 -507z" />
    <glyph glyph-name="wcircumflex.sc" horiz-adv-x="1105" 
d="M351 685h95l106 103l107 -103h95l-156 150h-91zM984 605h89l-232 -605h-89l-199 506l-200 -506h-89l-232 605h91l187 -507l202 507h83l201 -507z" />
    <glyph glyph-name="wdieresis.sc" horiz-adv-x="1105" 
d="M423 698c-31 0 -53 23 -53 48c0 26 22 49 53 49c30 0 52 -23 52 -49c0 -25 -22 -48 -52 -48zM683 698c-31 0 -53 23 -53 48c0 26 22 49 53 49c30 0 52 -23 52 -49c0 -25 -22 -48 -52 -48zM984 605h89l-232 -605h-89l-199 506l-200 -506h-89l-232 605h91l187 -507l202 507
h83l201 -507z" />
    <glyph glyph-name="wgrave.sc" horiz-adv-x="1105" 
d="M342 835h134l165 -150h-78zM984 605h89l-232 -605h-89l-199 506l-200 -506h-89l-232 605h91l187 -507l202 507h83l201 -507z" />
    <glyph glyph-name="x.sc" horiz-adv-x="751" 
d="M725 605l-296 -299l298 -306h-108l-245 249l-245 -249h-105l298 304l-296 301h108l243 -246l243 246h105z" />
    <glyph glyph-name="y.sc" horiz-adv-x="761" 
d="M22 605h101l259 -321l257 321h100l-316 -394v-211h-84v211z" />
    <glyph glyph-name="yacute.sc" horiz-adv-x="761" 
d="M593 835l-221 -150h-78l165 150h134zM22 605h101l259 -321l257 321h100l-316 -394v-211h-84v211z" />
    <glyph glyph-name="ycircumflex.sc" horiz-adv-x="761" 
d="M179 685h95l106 103l107 -103h95l-156 150h-91zM22 605h101l259 -321l257 321h100l-316 -394v-211h-84v211z" />
    <glyph glyph-name="ydieresis.sc" horiz-adv-x="761" 
d="M251 698c-31 0 -53 23 -53 48c0 26 22 49 53 49c30 0 52 -23 52 -49c0 -25 -22 -48 -52 -48zM511 698c-31 0 -53 23 -53 48c0 26 22 49 53 49c30 0 52 -23 52 -49c0 -25 -22 -48 -52 -48zM22 605h101l259 -321l257 321h100l-316 -394v-211h-84v211z" />
    <glyph glyph-name="ygrave.sc" horiz-adv-x="761" 
d="M170 835h134l165 -150h-78zM22 605h101l259 -321l257 321h100l-316 -394v-211h-84v211z" />
    <glyph glyph-name="z.sc" horiz-adv-x="767" 
d="M705 605v-62l-531 -467h545v-76h-673v62l530 467h-514v76h643z" />
    <glyph glyph-name="zacute.sc" horiz-adv-x="767" 
d="M613 835l-221 -150h-78l165 150h134zM705 605v-62l-531 -467h545v-76h-673v62l530 467h-514v76h643z" />
    <glyph glyph-name="zcaron.sc" horiz-adv-x="767" 
d="M199 835l156 -150h91l156 150h-95l-107 -103l-106 103h-95zM705 605v-62l-531 -467h545v-76h-673v62l530 467h-514v76h643z" />
    <glyph glyph-name="zdotaccent.sc" horiz-adv-x="767" 
d="M401 698c-29 0 -48 17 -48 42c0 26 19 43 48 43c28 0 47 -17 47 -43c0 -25 -19 -42 -47 -42zM705 605v-62l-531 -467h545v-76h-673v62l530 467h-514v76h643z" />
    <glyph glyph-name="ordfeminine" unicode="&#xaa;" horiz-adv-x="571" 
d="M275 720c126 0 203 -61 203 -180v-136c0 -28 6 -50 21 -72h-63c-14 18 -18 37 -18 58v2c-24 -47 -90 -74 -167 -74c-84 0 -192 33 -192 130s108 130 192 130c77 0 143 -27 167 -74v36c0 89 -50 130 -153 130c-60 0 -104 -13 -146 -40l-25 43c45 28 113 47 181 47z
M418 440v17c-25 56 -94 78 -160 78c-51 0 -139 -13 -139 -87s88 -86 139 -86c66 0 135 23 160 78z" />
    <glyph glyph-name="ordmasculine" unicode="&#xba;" horiz-adv-x="578" 
d="M289 318c-142 0 -228 78 -228 201s86 201 228 201c143 0 228 -78 228 -201s-85 -201 -228 -201zM289 371c105 0 169 51 169 148s-64 148 -169 148c-104 0 -169 -51 -169 -148s65 -148 169 -148z" />
    <glyph glyph-name="uni0394" unicode="&#x394;" horiz-adv-x="871" 
d="M436 718l419 -718h-86h-679h-74zM141 68h589l-294 512z" />
    <glyph glyph-name="uni03A9" unicode="&#x3a9;" horiz-adv-x="996" 
d="M924 363c0 -127 -60 -228 -166 -287h142v-76h-293v76c147 38 231 126 231 275c0 189 -133 292 -340 292c-206 0 -340 -103 -340 -292c0 -149 85 -236 231 -275v-76h-293v76h142c-106 59 -166 160 -166 287c0 215 160 358 426 358s426 -143 426 -358z" />
    <glyph glyph-name="uni03BC" unicode="&#x3bc;" horiz-adv-x="790" 
d="M609 545h82v-545h-82v115c-51 -84 -143 -135 -253 -135c-75 0 -133 23 -175 63v-243h-82v745h82v-304c0 -123 61 -188 184 -188c106 0 194 49 244 150v342z" />
    <glyph glyph-name="pi" unicode="&#x3c0;" horiz-adv-x="931" 
d="M894 473h-195v-327c0 -60 31 -96 93 -96c23 0 41 5 53 11l21 -60c-19 -10 -53 -21 -92 -21c-85 0 -154 54 -154 152v341h-329v-473h-79v473h-194v72h273h408h195v-72z" />
    <glyph glyph-name="zero" unicode="0" horiz-adv-x="940" 
d="M470 -21c-256 0 -406 144 -406 371s150 371 406 371c257 0 406 -144 406 -371s-149 -371 -406 -371zM470 57c196 0 320 100 320 293s-124 293 -320 293c-197 0 -320 -100 -320 -293s123 -293 320 -293z" />
    <glyph glyph-name="one" unicode="1" horiz-adv-x="450" 
d="M250 0v595c-62 -51 -136 -79 -218 -92v76c87 13 172 63 238 121h64v-700h-84z" />
    <glyph glyph-name="two" unicode="2" horiz-adv-x="813" 
d="M69 542c57 101 186 178 345 178c161 0 324 -74 324 -211c0 -120 -117 -176 -284 -234c-157 -55 -274 -118 -298 -201h598v-74h-705v41c23 121 155 224 360 299c140 51 243 90 243 168c0 94 -120 138 -241 138c-119 0 -211 -49 -278 -146z" />
    <glyph glyph-name="three" unicode="3" horiz-adv-x="834" 
d="M118 192c54 -87 172 -138 313 -138c134 0 251 47 251 145c0 99 -116 129 -280 129h-91v74h91c135 0 256 39 256 122c0 82 -121 122 -232 122c-147 0 -235 -47 -289 -125l-73 39c71 102 184 160 350 160c178 0 330 -70 330 -192c0 -93 -90 -152 -174 -160
c85 -10 201 -56 201 -173c0 -136 -152 -215 -343 -215c-181 0 -310 68 -384 172z" />
    <glyph glyph-name="four" unicode="4" horiz-adv-x="858" 
d="M821 245v-72h-153v-173h-84v173h-555v57l565 470h74v-455h153zM156 245h428v352z" />
    <glyph glyph-name="five" unicode="5" horiz-adv-x="832" 
d="M116 197c67 -90 183 -142 320 -142c150 0 262 51 262 158c0 106 -112 158 -282 158c-90 0 -168 -16 -264 -58l-70 31l60 356h569v-75h-499l-41 -241c94 47 173 57 272 57c185 0 341 -72 341 -230c0 -130 -133 -232 -348 -232c-166 0 -303 71 -385 173z" />
    <glyph glyph-name="six" unicode="6" horiz-adv-x="881" 
d="M512 444c159 0 313 -71 313 -227c0 -140 -138 -238 -357 -238c-254 0 -404 146 -404 371s150 371 404 371c148 0 257 -45 329 -125l-66 -49c-66 73 -158 102 -259 102c-190 0 -322 -93 -322 -299c0 -17 1 -34 3 -50c75 87 199 144 359 144zM468 51c163 0 271 59 271 166
c0 111 -111 156 -245 156c-121 0 -252 -52 -326 -142c41 -123 152 -180 300 -180z" />
    <glyph glyph-name="seven" unicode="7" horiz-adv-x="748" 
d="M214 0l407 624h-596v76h702v-62l-412 -638h-101z" />
    <glyph glyph-name="eight" unicode="8" horiz-adv-x="883" 
d="M614 369c87 -8 206 -61 206 -177c0 -133 -154 -213 -378 -213c-225 0 -378 80 -378 213c0 116 119 169 206 177c-88 8 -179 59 -179 157c0 124 153 195 351 195c197 0 351 -71 351 -195c0 -98 -91 -149 -179 -157zM176 524c0 -89 124 -125 266 -125s266 36 266 125
s-124 125 -266 125s-266 -36 -266 -125zM441 51c172 0 291 44 291 140c0 90 -119 140 -291 140c-171 0 -290 -50 -290 -140s119 -140 290 -140z" />
    <glyph glyph-name="nine" unicode="9" horiz-adv-x="881" 
d="M413 721c254 0 404 -146 404 -371s-150 -371 -404 -371c-148 0 -257 45 -329 125l66 49c66 -73 158 -102 259 -102c190 0 322 93 322 299c0 17 -1 34 -3 50c-75 -87 -199 -144 -359 -144c-159 0 -313 71 -313 227c0 140 138 238 357 238zM387 327c121 0 252 52 326 142
c-41 123 -152 180 -300 180c-163 0 -271 -59 -271 -166c0 -111 111 -156 245 -156z" />
    <glyph glyph-name="zero.osf" horiz-adv-x="885" 
d="M443 -21c-229 0 -379 121 -379 328c0 208 150 324 379 324s378 -116 378 -324c0 -207 -149 -328 -378 -328zM443 57c172 0 293 79 293 248s-121 248 -293 248s-293 -79 -293 -248s121 -248 293 -248z" />
    <glyph glyph-name="one.osf" horiz-adv-x="455" 
d="M255 0v505c-62 -51 -136 -79 -218 -92v76c87 13 172 63 238 121h64v-610h-84z" />
    <glyph glyph-name="two.osf" horiz-adv-x="797" 
d="M67 471c52 86 186 159 345 159c143 0 312 -61 312 -188c0 -111 -129 -161 -279 -208c-147 -46 -265 -95 -286 -163h579v-71h-689v40c20 108 162 201 349 259c125 39 240 63 240 142c0 83 -126 114 -229 114c-119 0 -221 -44 -278 -123z" />
    <glyph glyph-name="three.osf" horiz-adv-x="834" 
d="M118 102c54 -87 172 -138 313 -138c134 0 251 47 251 145c0 99 -116 129 -280 129h-91v74h91c135 0 256 39 256 122c0 82 -121 122 -232 122c-147 0 -235 -47 -289 -125l-73 39c71 102 184 160 350 160c178 0 330 -70 330 -192c0 -93 -90 -152 -174 -160
c85 -10 201 -56 201 -173c0 -136 -152 -215 -343 -215c-181 0 -310 68 -384 172z" />
    <glyph glyph-name="four.osf" horiz-adv-x="858" 
d="M821 155v-72h-153v-173h-84v173h-555v57l565 470h74v-455h153zM156 155h428v352z" />
    <glyph glyph-name="five.osf" horiz-adv-x="832" 
d="M113 107c67 -90 183 -142 320 -142c150 0 262 51 262 158c0 106 -112 158 -282 158c-90 0 -168 -16 -264 -58l-70 31l60 356h569v-75h-499l-41 -241c94 47 173 57 272 57c185 0 341 -72 341 -230c0 -130 -133 -232 -348 -232c-166 0 -303 71 -385 173z" />
    <glyph glyph-name="six.osf" horiz-adv-x="881" 
d="M512 444c159 0 313 -71 313 -227c0 -140 -138 -238 -357 -238c-254 0 -404 146 -404 371s150 371 404 371c148 0 257 -45 329 -125l-66 -49c-66 73 -158 102 -259 102c-190 0 -322 -93 -322 -299c0 -17 1 -34 3 -50c75 87 199 144 359 144zM468 51c163 0 271 59 271 166
c0 111 -111 156 -245 156c-121 0 -252 -52 -326 -142c41 -123 152 -180 300 -180z" />
    <glyph glyph-name="seven.osf" horiz-adv-x="748" 
d="M215 -90l407 624h-596v76h702v-62l-412 -638h-101z" />
    <glyph glyph-name="eight.osf" horiz-adv-x="883" 
d="M614 369c87 -8 206 -61 206 -177c0 -133 -154 -213 -378 -213c-225 0 -378 80 -378 213c0 116 119 169 206 177c-88 8 -179 59 -179 157c0 124 153 195 351 195c197 0 351 -71 351 -195c0 -98 -91 -149 -179 -157zM176 524c0 -89 124 -125 266 -125s266 36 266 125
s-124 125 -266 125s-266 -36 -266 -125zM441 51c172 0 291 44 291 140c0 90 -119 140 -291 140c-171 0 -290 -50 -290 -140s119 -140 290 -140z" />
    <glyph glyph-name="nine.osf" horiz-adv-x="881" 
d="M413 631c254 0 404 -146 404 -371s-150 -371 -404 -371c-148 0 -257 45 -329 125l66 49c66 -73 158 -102 259 -102c190 0 322 93 322 299c0 17 -1 34 -3 50c-75 -87 -199 -144 -359 -144c-159 0 -313 71 -313 227c0 140 138 238 357 238zM387 237c121 0 252 52 326 142
c-41 123 -152 180 -300 180c-163 0 -271 -59 -271 -166c0 -111 111 -156 245 -156z" />
    <glyph glyph-name="zero.subs" horiz-adv-x="543" 
d="M272 -122c-144 0 -229 83 -229 217c0 133 85 217 229 217s229 -84 229 -217c0 -134 -85 -217 -229 -217zM272 -70c103 0 171 57 171 165c0 107 -68 165 -171 165c-104 0 -171 -58 -171 -165c0 -108 67 -165 171 -165z" />
    <glyph glyph-name="one.subs" horiz-adv-x="273" 
d="M145 -110v338c-34 -29 -75 -42 -120 -49v50c49 7 98 36 134 70h43v-409h-57z" />
    <glyph glyph-name="two.subs" horiz-adv-x="469" 
d="M44 213c41 58 110 99 198 99c89 0 179 -43 179 -121c0 -70 -64 -107 -154 -141c-87 -34 -152 -65 -165 -110h328v-50h-396v34c13 72 85 126 199 169c73 29 131 48 131 97c0 48 -63 73 -125 73c-68 0 -113 -24 -152 -76z" />
    <glyph glyph-name="three.subs" horiz-adv-x="484" 
d="M82 2c31 -48 86 -75 159 -75c75 0 141 29 141 83s-65 74 -148 74h-52v46h52c69 0 134 15 134 64s-66 69 -131 69c-66 0 -112 -20 -144 -66l-45 27c31 53 108 88 195 88c93 0 183 -38 183 -110c0 -54 -50 -90 -102 -94c52 -7 118 -36 118 -104c0 -78 -86 -126 -199 -126
c-95 0 -174 41 -210 102z" />
    <glyph glyph-name="four.subs" horiz-adv-x="495" 
d="M468 39v-48h-83v-101h-55v101h-308v36l313 272h50v-260h83zM101 39h229v192z" />
    <glyph glyph-name="five.subs" horiz-adv-x="478" 
d="M74 0c42 -42 88 -72 168 -72c85 0 145 33 145 91c0 59 -60 85 -142 85c-54 0 -102 -12 -153 -37l-42 19l39 213h316v-49h-273l-25 -137c49 28 101 37 152 37c105 0 186 -43 186 -131c0 -81 -71 -141 -194 -141c-110 0 -178 48 -216 87z" />
    <glyph glyph-name="six.subs" horiz-adv-x="508" 
d="M279 152c106 0 191 -40 191 -135c0 -80 -76 -139 -200 -139c-143 0 -228 84 -228 217c0 132 85 217 228 217c83 0 145 -26 186 -72l-41 -33c-36 41 -79 57 -142 57c-100 0 -173 -52 -173 -169c0 -10 0 -19 1 -27c35 54 109 84 178 84zM270 -74c84 0 142 33 142 89
c0 64 -54 90 -142 90c-60 0 -125 -27 -161 -75c22 -72 82 -104 161 -104z" />
    <glyph glyph-name="seven.subs" horiz-adv-x="432" 
d="M124 -110l221 359h-325v50h394v-40l-225 -369h-65z" />
    <glyph glyph-name="eight.subs" horiz-adv-x="509" 
d="M344 109c60 -8 123 -37 123 -109c0 -73 -86 -122 -212 -122s-213 49 -213 122c0 72 64 101 123 109c-59 4 -108 39 -108 96c0 69 92 107 198 107c105 0 197 -38 197 -107c0 -57 -48 -92 -108 -96zM114 198c0 -53 67 -69 141 -69c73 0 140 16 140 69c0 46 -67 68 -140 68
c-74 0 -141 -22 -141 -68zM254 -76c88 0 155 30 155 82c0 59 -67 81 -155 81s-154 -22 -154 -81c0 -52 66 -82 154 -82z" />
    <glyph glyph-name="nine.subs" horiz-adv-x="508" 
d="M230 312c143 0 228 -84 228 -217c0 -132 -85 -217 -228 -217c-83 0 -145 26 -186 72l41 33c36 -41 79 -57 142 -57c100 0 173 52 173 169c0 10 0 19 -1 27c-35 -54 -109 -84 -178 -84c-106 0 -191 40 -191 135c0 80 76 139 200 139zM230 85c60 0 125 27 161 75
c-22 72 -82 104 -161 104c-84 0 -142 -33 -142 -89c0 -64 54 -90 142 -90z" />
    <glyph glyph-name="fraction" unicode="&#x2044;" horiz-adv-x="206" 
d="M-85 0h-65l437 700h65z" />
    <glyph glyph-name="onehalf" unicode="&#xbd;" horiz-adv-x="987" 
d="M145 291v338c-34 -29 -75 -42 -120 -49v50c49 7 98 36 134 70h43v-409h-57zM224 0h-65l437 700h65zM562 323c41 58 110 99 198 99c89 0 179 -43 179 -121c0 -70 -64 -107 -154 -141c-87 -34 -152 -65 -165 -110h328v-50h-396v34c13 72 85 126 199 169
c73 29 131 48 131 97c0 48 -63 73 -125 73c-68 0 -113 -24 -152 -76z" />
    <glyph glyph-name="onequarter" unicode="&#xbc;" horiz-adv-x="969" 
d="M145 291v338c-34 -29 -75 -42 -120 -49v50c49 7 98 36 134 70h43v-409h-57zM232 0h-65l437 700h65zM942 149v-48h-83v-101h-55v101h-308v36l313 272h50v-260h83zM575 149h229v192z" />
    <glyph glyph-name="threequarters" unicode="&#xbe;" horiz-adv-x="1156" 
d="M82 403c31 -48 86 -75 159 -75c75 0 141 29 141 83s-65 74 -148 74h-52v46h52c69 0 134 15 134 64s-66 69 -131 69c-66 0 -112 -20 -144 -66l-45 27c31 53 108 88 195 88c93 0 183 -38 183 -110c0 -54 -50 -90 -102 -94c52 -7 118 -36 118 -104c0 -78 -86 -126 -199 -126
c-95 0 -174 41 -210 102zM419 0h-65l437 700h65zM1129 149v-48h-83v-101h-55v101h-308v36l313 272h50v-260h83zM762 149h229v192z" />
    <glyph glyph-name="oneeighth" unicode="&#x215b;" horiz-adv-x="1044" 
d="M145 291v338c-34 -29 -75 -42 -120 -49v50c49 7 98 36 134 70h43v-409h-57zM232 0h-65l437 700h65zM879 219c60 -8 123 -37 123 -109c0 -73 -86 -122 -212 -122s-213 49 -213 122c0 72 64 101 123 109c-59 4 -108 39 -108 96c0 69 92 107 198 107c105 0 197 -38 197 -107
c0 -57 -48 -92 -108 -96zM649 308c0 -53 67 -69 141 -69c73 0 140 16 140 69c0 46 -67 68 -140 68c-74 0 -141 -22 -141 -68zM789 34c88 0 155 30 155 82c0 59 -67 81 -155 81s-154 -22 -154 -81c0 -52 66 -82 154 -82z" />
    <glyph glyph-name="threeeighths" unicode="&#x215c;" horiz-adv-x="1222" 
d="M82 403c31 -48 86 -75 159 -75c75 0 141 29 141 83s-65 74 -148 74h-52v46h52c69 0 134 15 134 64s-66 69 -131 69c-66 0 -112 -20 -144 -66l-45 27c31 53 108 88 195 88c93 0 183 -38 183 -110c0 -54 -50 -90 -102 -94c52 -7 118 -36 118 -104c0 -78 -86 -126 -199 -126
c-95 0 -174 41 -210 102zM417 0h-65l437 700h65zM1057 219c60 -8 123 -37 123 -109c0 -73 -86 -122 -212 -122s-213 49 -213 122c0 72 64 101 123 109c-59 4 -108 39 -108 96c0 69 92 107 198 107c105 0 197 -38 197 -107c0 -57 -48 -92 -108 -96zM827 308
c0 -53 67 -69 141 -69c73 0 140 16 140 69c0 46 -67 68 -140 68c-74 0 -141 -22 -141 -68zM967 34c88 0 155 30 155 82c0 59 -67 81 -155 81s-154 -22 -154 -81c0 -52 66 -82 154 -82z" />
    <glyph glyph-name="fiveeighths" unicode="&#x215d;" horiz-adv-x="1209" 
d="M74 401c42 -42 88 -72 168 -72c85 0 145 33 145 91c0 59 -60 85 -142 85c-54 0 -102 -12 -153 -37l-42 19l39 213h316v-49h-273l-25 -137c49 28 101 37 152 37c105 0 186 -43 186 -131c0 -81 -71 -141 -194 -141c-110 0 -178 48 -216 87zM404 0h-65l437 700h65zM1044 219
c60 -8 123 -37 123 -109c0 -73 -86 -122 -212 -122s-213 49 -213 122c0 72 64 101 123 109c-59 4 -108 39 -108 96c0 69 92 107 198 107c105 0 197 -38 197 -107c0 -57 -48 -92 -108 -96zM814 308c0 -53 67 -69 141 -69c73 0 140 16 140 69c0 46 -67 68 -140 68
c-74 0 -141 -22 -141 -68zM954 34c88 0 155 30 155 82c0 59 -67 81 -155 81s-154 -22 -154 -81c0 -52 66 -82 154 -82z" />
    <glyph glyph-name="seveneighths" unicode="&#x215e;" horiz-adv-x="1077" 
d="M124 291l221 359h-325v50h394v-40l-225 -369h-65zM272 0h-65l437 700h65zM912 219c60 -8 123 -37 123 -109c0 -73 -86 -122 -212 -122s-213 49 -213 122c0 72 64 101 123 109c-59 4 -108 39 -108 96c0 69 92 107 198 107c105 0 197 -38 197 -107c0 -57 -48 -92 -108 -96z
M682 308c0 -53 67 -69 141 -69c73 0 140 16 140 69c0 46 -67 68 -140 68c-74 0 -141 -22 -141 -68zM822 34c88 0 155 30 155 82c0 59 -67 81 -155 81s-154 -22 -154 -81c0 -52 66 -82 154 -82z" />
    <glyph glyph-name="zero.dnom" horiz-adv-x="543" 
d="M272 -12c-144 0 -229 83 -229 217c0 133 85 217 229 217s229 -84 229 -217c0 -134 -85 -217 -229 -217zM272 40c103 0 171 57 171 165c0 107 -68 165 -171 165c-104 0 -171 -58 -171 -165c0 -108 67 -165 171 -165z" />
    <glyph glyph-name="one.dnom" horiz-adv-x="273" 
d="M145 0v338c-34 -29 -75 -42 -120 -49v50c49 7 98 36 134 70h43v-409h-57z" />
    <glyph glyph-name="two.dnom" horiz-adv-x="469" 
d="M44 323c41 58 110 99 198 99c89 0 179 -43 179 -121c0 -70 -64 -107 -154 -141c-87 -34 -152 -65 -165 -110h328v-50h-396v34c13 72 85 126 199 169c73 29 131 48 131 97c0 48 -63 73 -125 73c-68 0 -113 -24 -152 -76z" />
    <glyph glyph-name="three.dnom" horiz-adv-x="484" 
d="M82 112c31 -48 86 -75 159 -75c75 0 141 29 141 83s-65 74 -148 74h-52v46h52c69 0 134 15 134 64s-66 69 -131 69c-66 0 -112 -20 -144 -66l-45 27c31 53 108 88 195 88c93 0 183 -38 183 -110c0 -54 -50 -90 -102 -94c52 -7 118 -36 118 -104c0 -78 -86 -126 -199 -126
c-95 0 -174 41 -210 102z" />
    <glyph glyph-name="four.dnom" horiz-adv-x="495" 
d="M468 149v-48h-83v-101h-55v101h-308v36l313 272h50v-260h83zM101 149h229v192z" />
    <glyph glyph-name="five.dnom" horiz-adv-x="478" 
d="M74 110c42 -42 88 -72 168 -72c85 0 145 33 145 91c0 59 -60 85 -142 85c-54 0 -102 -12 -153 -37l-42 19l39 213h316v-49h-273l-25 -137c49 28 101 37 152 37c105 0 186 -43 186 -131c0 -81 -71 -141 -194 -141c-110 0 -178 48 -216 87z" />
    <glyph glyph-name="six.dnom" horiz-adv-x="508" 
d="M279 262c106 0 191 -40 191 -135c0 -80 -76 -139 -200 -139c-143 0 -228 84 -228 217c0 132 85 217 228 217c83 0 145 -26 186 -72l-41 -33c-36 41 -79 57 -142 57c-100 0 -173 -52 -173 -169c0 -10 0 -19 1 -27c35 54 109 84 178 84zM270 36c84 0 142 33 142 89
c0 64 -54 90 -142 90c-60 0 -125 -27 -161 -75c22 -72 82 -104 161 -104z" />
    <glyph glyph-name="seven.dnom" horiz-adv-x="432" 
d="M124 0l221 359h-325v50h394v-40l-225 -369h-65z" />
    <glyph glyph-name="eight.dnom" horiz-adv-x="509" 
d="M344 219c60 -8 123 -37 123 -109c0 -73 -86 -122 -212 -122s-213 49 -213 122c0 72 64 101 123 109c-59 4 -108 39 -108 96c0 69 92 107 198 107c105 0 197 -38 197 -107c0 -57 -48 -92 -108 -96zM114 308c0 -53 67 -69 141 -69c73 0 140 16 140 69c0 46 -67 68 -140 68
c-74 0 -141 -22 -141 -68zM254 34c88 0 155 30 155 82c0 59 -67 81 -155 81s-154 -22 -154 -81c0 -52 66 -82 154 -82z" />
    <glyph glyph-name="nine.dnom" horiz-adv-x="508" 
d="M230 421c143 0 228 -84 228 -217c0 -132 -85 -217 -228 -217c-83 0 -145 26 -186 72l41 33c36 -41 79 -57 142 -57c100 0 173 52 173 169c0 10 0 19 -1 27c-35 -54 -109 -84 -178 -84c-106 0 -191 40 -191 135c0 80 76 139 200 139zM230 194c60 0 125 27 161 75
c-22 72 -82 104 -161 104c-84 0 -142 -33 -142 -89c0 -64 54 -90 142 -90z" />
    <glyph glyph-name="zero.numr" horiz-adv-x="543" 
d="M272 279c-144 0 -229 83 -229 217c0 133 85 217 229 217s229 -84 229 -217c0 -134 -85 -217 -229 -217zM272 331c103 0 171 57 171 165c0 107 -68 165 -171 165c-104 0 -171 -58 -171 -165c0 -108 67 -165 171 -165z" />
    <glyph glyph-name="one.numr" horiz-adv-x="273" 
d="M145 291v338c-34 -29 -75 -42 -120 -49v50c49 7 98 36 134 70h43v-409h-57z" />
    <glyph glyph-name="two.numr" horiz-adv-x="469" 
d="M44 614c41 58 110 99 198 99c89 0 179 -43 179 -121c0 -70 -64 -107 -154 -141c-87 -34 -152 -65 -165 -110h328v-50h-396v34c13 72 85 126 199 169c73 29 131 48 131 97c0 48 -63 73 -125 73c-68 0 -113 -24 -152 -76z" />
    <glyph glyph-name="three.numr" horiz-adv-x="484" 
d="M82 403c31 -48 86 -75 159 -75c75 0 141 29 141 83s-65 74 -148 74h-52v46h52c69 0 134 15 134 64s-66 69 -131 69c-66 0 -112 -20 -144 -66l-45 27c31 53 108 88 195 88c93 0 183 -38 183 -110c0 -54 -50 -90 -102 -94c52 -7 118 -36 118 -104c0 -78 -86 -126 -199 -126
c-95 0 -174 41 -210 102z" />
    <glyph glyph-name="four.numr" horiz-adv-x="495" 
d="M468 440v-48h-83v-101h-55v101h-308v36l313 272h50v-260h83zM101 440h229v192z" />
    <glyph glyph-name="five.numr" horiz-adv-x="478" 
d="M74 401c42 -42 88 -72 168 -72c85 0 145 33 145 91c0 59 -60 85 -142 85c-54 0 -102 -12 -153 -37l-42 19l39 213h316v-49h-273l-25 -137c49 28 101 37 152 37c105 0 186 -43 186 -131c0 -81 -71 -141 -194 -141c-110 0 -178 48 -216 87z" />
    <glyph glyph-name="six.numr" horiz-adv-x="508" 
d="M279 553c106 0 191 -40 191 -135c0 -80 -76 -139 -200 -139c-143 0 -228 84 -228 217c0 132 85 217 228 217c83 0 145 -26 186 -72l-41 -33c-36 41 -79 57 -142 57c-100 0 -173 -52 -173 -169c0 -10 0 -19 1 -27c35 54 109 84 178 84zM270 327c84 0 142 33 142 89
c0 64 -54 90 -142 90c-60 0 -125 -27 -161 -75c22 -72 82 -104 161 -104z" />
    <glyph glyph-name="seven.numr" horiz-adv-x="432" 
d="M124 291l221 359h-325v50h394v-40l-225 -369h-65z" />
    <glyph glyph-name="eight.numr" horiz-adv-x="509" 
d="M344 510c60 -8 123 -37 123 -109c0 -73 -86 -122 -212 -122s-213 49 -213 122c0 72 64 101 123 109c-59 4 -108 39 -108 96c0 69 92 107 198 107c105 0 197 -38 197 -107c0 -57 -48 -92 -108 -96zM114 599c0 -53 67 -69 141 -69c73 0 140 16 140 69c0 46 -67 68 -140 68
c-74 0 -141 -22 -141 -68zM254 325c88 0 155 30 155 82c0 59 -67 81 -155 81s-154 -22 -154 -81c0 -52 66 -82 154 -82z" />
    <glyph glyph-name="nine.numr" horiz-adv-x="508" 
d="M230 712c143 0 228 -84 228 -217c0 -132 -85 -217 -228 -217c-83 0 -145 26 -186 72l41 33c36 -41 79 -57 142 -57c100 0 173 52 173 169c0 10 0 19 -1 27c-35 -54 -109 -84 -178 -84c-106 0 -191 40 -191 135c0 80 76 139 200 139zM230 485c60 0 125 27 161 75
c-22 72 -82 104 -161 104c-84 0 -142 -33 -142 -89c0 -64 54 -90 142 -90z" />
    <glyph glyph-name="uni2070" unicode="&#x2070;" horiz-adv-x="543" 
d="M272 456c-144 0 -229 83 -229 217c0 133 85 217 229 217s229 -84 229 -217c0 -134 -85 -217 -229 -217zM272 508c103 0 171 57 171 165c0 107 -68 165 -171 165c-104 0 -171 -58 -171 -165c0 -108 67 -165 171 -165z" />
    <glyph glyph-name="uni00B9" unicode="&#xb9;" horiz-adv-x="273" 
d="M145 467v338c-34 -29 -75 -42 -120 -49v50c49 7 98 36 134 70h43v-409h-57z" />
    <glyph glyph-name="uni00B2" unicode="&#xb2;" horiz-adv-x="469" 
d="M44 791c41 58 110 99 198 99c89 0 179 -43 179 -121c0 -70 -64 -107 -154 -141c-87 -34 -152 -65 -165 -110h328v-50h-396v34c13 72 85 126 199 169c73 29 131 48 131 97c0 48 -63 73 -125 73c-68 0 -113 -24 -152 -76z" />
    <glyph glyph-name="uni00B3" unicode="&#xb3;" horiz-adv-x="484" 
d="M82 580c31 -48 86 -75 159 -75c75 0 141 29 141 83s-65 74 -148 74h-52v46h52c69 0 134 15 134 64s-66 69 -131 69c-66 0 -112 -20 -144 -66l-45 27c31 53 108 88 195 88c93 0 183 -38 183 -110c0 -54 -50 -90 -102 -94c52 -7 118 -36 118 -104c0 -78 -86 -126 -199 -126
c-95 0 -174 41 -210 102z" />
    <glyph glyph-name="uni2074" unicode="&#x2074;" horiz-adv-x="495" 
d="M468 617v-48h-83v-101h-55v101h-308v36l313 272h50v-260h83zM101 617h229v192z" />
    <glyph glyph-name="uni2075" unicode="&#x2075;" horiz-adv-x="478" 
d="M74 578c42 -42 88 -72 168 -72c85 0 145 33 145 91c0 59 -60 85 -142 85c-54 0 -102 -12 -153 -37l-42 19l39 213h316v-49h-273l-25 -137c49 28 101 37 152 37c105 0 186 -43 186 -131c0 -81 -71 -141 -194 -141c-110 0 -178 48 -216 87z" />
    <glyph glyph-name="uni2076" unicode="&#x2076;" horiz-adv-x="508" 
d="M279 730c106 0 191 -40 191 -135c0 -80 -76 -139 -200 -139c-143 0 -228 84 -228 217c0 132 85 217 228 217c83 0 145 -26 186 -72l-41 -33c-36 41 -79 57 -142 57c-100 0 -173 -52 -173 -169c0 -10 0 -19 1 -27c35 54 109 84 178 84zM270 504c84 0 142 33 142 89
c0 64 -54 90 -142 90c-60 0 -125 -27 -161 -75c22 -72 82 -104 161 -104z" />
    <glyph glyph-name="uni2077" unicode="&#x2077;" horiz-adv-x="432" 
d="M124 468l221 359h-325v50h394v-40l-225 -369h-65z" />
    <glyph glyph-name="uni2078" unicode="&#x2078;" horiz-adv-x="509" 
d="M344 687c60 -8 123 -37 123 -109c0 -73 -86 -122 -212 -122s-213 49 -213 122c0 72 64 101 123 109c-59 4 -108 39 -108 96c0 69 92 107 198 107c105 0 197 -38 197 -107c0 -57 -48 -92 -108 -96zM114 776c0 -53 67 -69 141 -69c73 0 140 16 140 69c0 46 -67 68 -140 68
c-74 0 -141 -22 -141 -68zM254 502c88 0 155 30 155 82c0 59 -67 81 -155 81s-154 -22 -154 -81c0 -52 66 -82 154 -82z" />
    <glyph glyph-name="uni2079" unicode="&#x2079;" horiz-adv-x="508" 
d="M230 889c143 0 228 -84 228 -217c0 -132 -85 -217 -228 -217c-83 0 -145 26 -186 72l41 33c36 -41 79 -57 142 -57c100 0 173 52 173 169c0 10 0 19 -1 27c-35 -54 -109 -84 -178 -84c-106 0 -191 40 -191 135c0 80 76 139 200 139zM230 662c60 0 125 27 161 75
c-22 72 -82 104 -161 104c-84 0 -142 -33 -142 -89c0 -64 54 -90 142 -90z" />
    <glyph glyph-name="zero.sc" horiz-adv-x="869" 
d="M434 -20c-232 0 -369 125 -369 322s137 323 369 323c234 0 370 -126 370 -323s-136 -322 -370 -322zM434 55c174 0 284 86 284 247c0 162 -110 248 -284 248s-283 -86 -283 -248c0 -161 109 -247 283 -247z" />
    <glyph glyph-name="one.sc" horiz-adv-x="431" 
d="M235 0v505c-56 -43 -123 -67 -197 -78v73c79 11 157 55 217 105h64v-605h-84z" />
    <glyph glyph-name="two.sc" horiz-adv-x="753" 
d="M70 471c48 86 154 153 311 153c153 0 298 -63 298 -178c0 -103 -105 -159 -255 -211c-147 -51 -247 -96 -268 -164h537v-71h-641v40c20 106 140 194 325 258c125 44 216 74 216 147s-102 108 -215 108c-119 0 -190 -42 -243 -119z" />
    <glyph glyph-name="three.sc" horiz-adv-x="778" 
d="M121 170c65 -75 138 -119 269 -119c132 0 236 43 236 124c0 83 -103 112 -247 112h-84v69h84c119 0 225 31 225 100c0 68 -107 97 -220 97c-114 0 -191 -39 -244 -106l-68 40c62 85 167 137 317 137c154 0 301 -57 301 -158c0 -85 -80 -135 -170 -142
c91 -9 195 -55 195 -157c0 -121 -139 -186 -321 -186c-157 0 -275 61 -341 152z" />
    <glyph glyph-name="four.sc" horiz-adv-x="796" 
d="M755 215v-69h-138v-146h-83v146h-500v55l509 404h74v-390h138zM153 215h381v296z" />
    <glyph glyph-name="five.sc" horiz-adv-x="770" 
d="M110 173c73 -75 154 -120 285 -120c140 0 239 44 239 132s-99 131 -249 131c-80 0 -150 -14 -236 -49l-68 29l54 309h519v-72h-450l-36 -200c84 40 155 50 245 50c165 0 307 -62 307 -200c0 -112 -119 -203 -325 -203c-149 0 -266 61 -344 148z" />
    <glyph glyph-name="six.sc" horiz-adv-x="816" 
d="M451 385c165 0 307 -60 307 -196c0 -122 -125 -209 -325 -209c-231 0 -368 128 -368 322c0 195 137 323 368 323c135 0 234 -41 300 -109l-62 -48c-59 61 -143 88 -234 88c-168 0 -286 -79 -286 -254c0 -16 1 -32 3 -46c56 80 172 129 297 129zM433 48
c144 0 239 51 239 140c0 93 -98 130 -234 130c-104 0 -212 -41 -273 -113c36 -107 135 -157 268 -157z" />
    <glyph glyph-name="seven.sc" horiz-adv-x="694" 
d="M197 0l366 532h-533v73h638v-59l-371 -546h-100z" />
    <glyph glyph-name="eight.sc" horiz-adv-x="816" 
d="M570 323c76 -7 182 -54 182 -162c0 -106 -140 -181 -344 -181c-205 0 -344 75 -344 181c0 108 106 155 182 162c-77 8 -158 58 -158 143c0 100 149 159 320 159c170 0 319 -59 319 -159c0 -85 -80 -135 -157 -143zM173 456c0 -79 110 -102 235 -102s235 23 235 102
c0 68 -110 101 -235 101s-235 -33 -235 -101zM407 48c151 0 257 48 257 122c0 85 -106 121 -257 121c-150 0 -256 -36 -256 -121c0 -74 106 -122 256 -122z" />
    <glyph glyph-name="nine.sc" horiz-adv-x="816" 
d="M375 625c231 0 368 -128 368 -322c0 -195 -137 -323 -368 -323c-135 0 -234 41 -300 109l62 48c59 -61 143 -88 234 -88c168 0 286 79 286 254c0 16 -1 32 -3 46c-56 -80 -172 -129 -297 -129c-165 0 -307 60 -307 196c0 122 125 209 325 209zM370 287
c104 0 212 41 273 113c-36 107 -135 157 -268 157c-144 0 -239 -51 -239 -140c0 -93 98 -130 234 -130z" />
    <glyph glyph-name="asterisk" unicode="*" horiz-adv-x="572" 
d="M366 299l-80 168l-80 -168l-60 35l104 152l-184 -14v71l184 -14l-104 151l60 35l80 -168l80 168l60 -35l-104 -151l184 14v-71l-184 14l104 -152z" />
    <glyph glyph-name="backslash" unicode="\" horiz-adv-x="724" 
d="M561 -100l-530 880h94l530 -880h-94z" />
    <glyph glyph-name="periodcentered" unicode="&#xb7;" horiz-adv-x="256" 
d="M128 230c-35 0 -60 23 -60 55s25 56 60 56s60 -24 60 -56s-25 -55 -60 -55z" />
    <glyph glyph-name="bullet" unicode="&#x2022;" horiz-adv-x="371" 
d="M186 188c-54 0 -97 40 -97 91c0 52 43 92 97 92s96 -40 96 -92c0 -51 -42 -91 -96 -91z" />
    <glyph glyph-name="colon" unicode=":" horiz-adv-x="256" 
d="M128 444c-35 0 -60 23 -60 55s25 56 60 56s60 -24 60 -56s-25 -55 -60 -55zM128 -10c-35 0 -60 23 -60 55s25 56 60 56s60 -24 60 -56s-25 -55 -60 -55z" />
    <glyph glyph-name="comma" unicode="," horiz-adv-x="263" 
d="M133 101c36 0 62 -25 62 -64c0 -53 -30 -128 -82 -177l-27 23c40 46 55 75 60 111c-3 -3 -10 -4 -16 -4c-31 0 -56 23 -56 56c0 31 25 55 59 55z" />
    <glyph glyph-name="ellipsis" unicode="&#x2026;" horiz-adv-x="746" 
d="M128 -10c-35 0 -60 23 -60 55s25 56 60 56s60 -24 60 -56s-25 -55 -60 -55zM373 -10c-35 0 -60 23 -60 55s25 56 60 56s60 -24 60 -56s-25 -55 -60 -55zM618 -10c-35 0 -60 23 -60 55s25 56 60 56s60 -24 60 -56s-25 -55 -60 -55z" />
    <glyph glyph-name="exclam" unicode="!" horiz-adv-x="314" 
d="M98 700h104l-17 -507h-70zM150 -10c-35 0 -60 23 -60 55s25 56 60 56s60 -24 60 -56s-25 -55 -60 -55z" />
    <glyph glyph-name="exclamdown" unicode="&#xa1;" horiz-adv-x="314" 
d="M150 510c35 0 60 -23 60 -55s-25 -56 -60 -56s-60 24 -60 56s25 55 60 55zM98 -200l17 507h70l17 -507h-104z" />
    <glyph glyph-name="uni203D" unicode="&#x203d;" horiz-adv-x="739" 
d="M386 720c152 0 304 -68 304 -200c0 -119 -124 -183 -290 -195v-124h-74v185v213h74v-206c121 15 204 51 204 127c0 89 -109 126 -221 126c-116 0 -213 -38 -280 -135l-65 41c69 101 190 168 348 168zM365 101c35 0 60 -24 60 -56s-25 -55 -60 -55s-60 23 -60 55
s25 56 60 56z" />
    <glyph glyph-name="numbersign" unicode="#" horiz-adv-x="948" 
d="M894 451h-172l-54 -189h191v-63h-209l-57 -199h-74l57 199h-293l-57 -199h-74l57 199h-155v63h173l54 189h-192v63h210l53 186h74l-53 -186h293l53 186h74l-53 -186h154v-63zM594 262l54 189h-293l-54 -189h293z" />
    <glyph glyph-name="period" unicode="." horiz-adv-x="256" 
d="M128 -10c-35 0 -60 23 -60 55s25 56 60 56s60 -24 60 -56s-25 -55 -60 -55z" />
    <glyph glyph-name="question" unicode="?" horiz-adv-x="739" 
d="M326 201v185c160 10 278 43 278 134c0 89 -109 126 -221 126c-116 0 -213 -38 -280 -135l-65 41c69 101 190 168 348 168c152 0 304 -68 304 -200c0 -119 -124 -183 -290 -195v-124h-74zM365 -10c-35 0 -60 23 -60 55s25 56 60 56s60 -24 60 -56s-25 -55 -60 -55z" />
    <glyph glyph-name="questiondown" unicode="&#xbf;" horiz-adv-x="739" 
d="M374 555c35 0 60 -23 60 -55s-25 -56 -60 -56s-60 24 -60 56s25 55 60 55zM413 344v-185c-160 -10 -278 -43 -278 -134c0 -89 109 -126 221 -126c116 0 213 38 280 135l65 -41c-69 -101 -190 -168 -348 -168c-152 0 -304 68 -304 200c0 119 124 183 290 195v124h74z" />
    <glyph glyph-name="quotedbl" unicode="&#x22;" horiz-adv-x="440" 
d="M87 740h72v-283h-72v283zM280 740h72v-283h-72v283z" />
    <glyph glyph-name="quotesingle" unicode="'" horiz-adv-x="247" 
d="M87 740h72v-283h-72v283z" />
    <glyph glyph-name="semicolon" unicode=";" horiz-adv-x="258" 
d="M128 444c-35 0 -60 23 -60 55s25 56 60 56s60 -24 60 -56s-25 -55 -60 -55zM128 101c36 0 62 -25 62 -64c0 -53 -30 -128 -82 -177l-27 23c40 46 55 75 60 111c-3 -3 -10 -4 -16 -4c-31 0 -56 23 -56 56c0 31 25 55 59 55z" />
    <glyph glyph-name="slash" unicode="/" horiz-adv-x="687" 
d="M126 -100h-94l530 880h94z" />
    <glyph glyph-name="underscore" unicode="_" horiz-adv-x="634" 
d="M630 -129h-626v66h626v-66z" />
    <glyph glyph-name="periodcentered.case" horiz-adv-x="256" 
d="M128 302c-35 0 -60 23 -60 55s25 56 60 56s60 -24 60 -56s-25 -55 -60 -55z" />
    <glyph glyph-name="bullet.case" horiz-adv-x="368" 
d="M185 264c-54 0 -97 40 -97 91c0 52 43 92 97 92s96 -40 96 -92c0 -51 -42 -91 -96 -91z" />
    <glyph glyph-name="exclamdown.case" horiz-adv-x="314" 
d="M150 710c35 0 60 -23 60 -55s-25 -56 -60 -56s-60 24 -60 56s25 55 60 55zM98 0l17 507h70l17 -507h-104z" />
    <glyph glyph-name="questiondown.case" horiz-adv-x="739" 
d="M374 712c35 0 60 -23 60 -55s-25 -56 -60 -56s-60 24 -60 56s25 55 60 55zM413 501v-185c-160 -10 -278 -43 -278 -134c0 -89 109 -126 221 -126c116 0 213 38 280 135l65 -41c-69 -101 -190 -168 -348 -168c-152 0 -304 68 -304 200c0 119 124 183 290 195v124h74z" />
    <glyph glyph-name="braceleft" unicode="{" horiz-adv-x="454" 
d="M261 478c0 -120 -64 -184 -154 -187c90 -5 154 -68 154 -188c0 -90 39 -157 120 -157h30v-66h-39c-115 0 -182 74 -182 206c0 151 -86 180 -172 180v49c86 0 172 29 172 180c0 132 67 205 182 205h39v-66h-30c-81 0 -120 -66 -120 -156z" />
    <glyph glyph-name="braceright" unicode="}" horiz-adv-x="454" 
d="M193 478c0 90 -39 156 -120 156h-30v66h39c115 0 182 -73 182 -205c0 -151 86 -180 172 -180v-49c-86 0 -172 -29 -172 -180c0 -132 -67 -206 -182 -206h-39v66h30c81 0 120 67 120 157c0 120 64 183 154 188c-90 3 -154 67 -154 187z" />
    <glyph glyph-name="bracketleft" unicode="[" horiz-adv-x="429" 
d="M386 634h-200v-688h200v-66h-270v820h270v-66z" />
    <glyph glyph-name="bracketright" unicode="]" horiz-adv-x="429" 
d="M43 634v66h270v-820h-270v66h200v688h-200z" />
    <glyph glyph-name="parenleft" unicode="(" horiz-adv-x="430" 
d="M135 290c0 -186 100 -317 252 -369l-27 -59c-181 53 -299 219 -299 428s118 375 299 428l27 -59c-152 -52 -252 -183 -252 -369z" />
    <glyph glyph-name="parenright" unicode=")" horiz-adv-x="430" 
d="M295 290c0 186 -100 317 -252 369l27 59c181 -53 299 -219 299 -428s-118 -375 -299 -428l-27 59c152 52 252 183 252 369z" />
    <glyph glyph-name="braceleft.case" horiz-adv-x="454" 
d="M261 538c0 -120 -64 -184 -154 -187c90 -5 154 -68 154 -188c0 -90 39 -157 120 -157h30v-66h-39c-115 0 -182 74 -182 206c0 151 -86 180 -172 180v49c86 0 172 29 172 180c0 132 67 205 182 205h39v-66h-30c-81 0 -120 -66 -120 -156z" />
    <glyph glyph-name="braceright.case" horiz-adv-x="454" 
d="M193 538c0 90 -39 156 -120 156h-30v66h39c115 0 182 -73 182 -205c0 -151 86 -180 172 -180v-49c-86 0 -172 -29 -172 -180c0 -132 -67 -206 -182 -206h-39v66h30c81 0 120 67 120 157c0 120 64 183 154 188c-90 3 -154 67 -154 187z" />
    <glyph glyph-name="bracketleft.case" horiz-adv-x="429" 
d="M386 694h-200v-688h200v-66h-270v820h270v-66z" />
    <glyph glyph-name="bracketright.case" horiz-adv-x="429" 
d="M43 694v66h270v-820h-270v66h200v688h-200z" />
    <glyph glyph-name="parenleft.case" horiz-adv-x="430" 
d="M135 350c0 -186 100 -317 252 -369l-27 -59c-181 53 -299 219 -299 428s118 375 299 428l27 -59c-152 -52 -252 -183 -252 -369z" />
    <glyph glyph-name="parenright.case" horiz-adv-x="430" 
d="M295 350c0 186 -100 317 -252 369l27 59c181 -53 299 -219 299 -428s-118 -375 -299 -428l-27 59c152 52 252 183 252 369z" />
    <glyph glyph-name="emdash" unicode="&#x2014;" horiz-adv-x="1011" 
d="M925 263h-840v72h840v-72z" />
    <glyph glyph-name="endash" unicode="&#x2013;" horiz-adv-x="794" 
d="M708 263h-623v72h623v-72z" />
    <glyph glyph-name="hyphen" unicode="-" horiz-adv-x="598" 
d="M512 263h-427v72h427v-72z" />
    <glyph glyph-name="emdash.case" horiz-adv-x="1011" 
d="M925 319h-840v72h840v-72z" />
    <glyph glyph-name="endash.case" horiz-adv-x="794" 
d="M708 319h-623v72h623v-72z" />
    <glyph glyph-name="hyphen.case" horiz-adv-x="598" 
d="M512 319h-427v72h427v-72z" />
    <glyph glyph-name="guillemotleft" unicode="&#xab;" horiz-adv-x="635" 
d="M258 513l-211 -214l211 -214h92l-212 214l212 214h-92zM481 513l-211 -214l211 -214h92l-212 214l212 214h-92z" />
    <glyph glyph-name="guillemotright" unicode="&#xbb;" horiz-adv-x="635" 
d="M154 513h-92l212 -214l-212 -214h92l211 214zM377 513h-92l212 -214l-212 -214h92l211 214z" />
    <glyph glyph-name="guilsinglleft" unicode="&#x2039;" horiz-adv-x="412" 
d="M258 513l-211 -214l211 -214h92l-212 214l212 214h-92z" />
    <glyph glyph-name="guilsinglright" unicode="&#x203a;" horiz-adv-x="412" 
d="M154 513h-92l212 -214l-212 -214h92l211 214z" />
    <glyph glyph-name="quotedblbase" unicode="&#x201e;" horiz-adv-x="412" 
d="M133 101c36 0 62 -25 62 -64c0 -53 -30 -128 -82 -177l-27 23c40 46 55 75 60 111c-3 -3 -10 -4 -16 -4c-31 0 -56 23 -56 56c0 31 25 55 59 55zM282 101c36 0 62 -25 62 -64c0 -53 -30 -128 -82 -177l-27 23c40 46 55 75 60 111c-3 -3 -10 -4 -16 -4
c-31 0 -56 23 -56 56c0 31 25 55 59 55z" />
    <glyph glyph-name="quotedblleft" unicode="&#x201c;" horiz-adv-x="412" 
d="M136 502c-36 0 -62 25 -62 64c0 53 30 128 82 177l27 -23c-40 -46 -55 -75 -60 -111c3 3 10 4 16 4c31 0 56 -23 56 -56c0 -31 -25 -55 -59 -55zM285 502c-36 0 -62 25 -62 64c0 53 30 128 82 177l27 -23c-40 -46 -55 -75 -60 -111c3 3 10 4 16 4c31 0 56 -23 56 -56
c0 -31 -25 -55 -59 -55z" />
    <glyph glyph-name="quotedblright" unicode="&#x201d;" horiz-adv-x="412" 
d="M133 720c36 0 62 -25 62 -64c0 -53 -30 -128 -82 -177l-27 23c40 46 55 75 60 111c-3 -3 -10 -4 -16 -4c-31 0 -56 23 -56 56c0 31 25 55 59 55zM282 720c36 0 62 -25 62 -64c0 -53 -30 -128 -82 -177l-27 23c40 46 55 75 60 111c-3 -3 -10 -4 -16 -4
c-31 0 -56 23 -56 56c0 31 25 55 59 55z" />
    <glyph glyph-name="quoteleft" unicode="&#x2018;" horiz-adv-x="263" 
d="M136 506c-36 0 -62 25 -62 64c0 53 30 128 82 177l27 -23c-40 -46 -55 -75 -60 -111c3 3 10 4 16 4c31 0 56 -23 56 -56c0 -31 -25 -55 -59 -55z" />
    <glyph glyph-name="quoteright" unicode="&#x2019;" horiz-adv-x="263" 
d="M133 720c36 0 62 -25 62 -64c0 -53 -30 -128 -82 -177l-27 23c40 46 55 75 60 111c-3 -3 -10 -4 -16 -4c-31 0 -56 23 -56 56c0 31 25 55 59 55z" />
    <glyph glyph-name="quotesinglbase" unicode="&#x201a;" horiz-adv-x="263" 
d="M133 101c36 0 62 -25 62 -64c0 -53 -30 -128 -82 -177l-27 23c40 46 55 75 60 111c-3 -3 -10 -4 -16 -4c-31 0 -56 23 -56 56c0 31 25 55 59 55z" />
    <glyph glyph-name="guillemotleft.case" horiz-adv-x="635" 
d="M258 569l-211 -214l211 -214h92l-212 214l212 214h-92zM481 569l-211 -214l211 -214h92l-212 214l212 214h-92z" />
    <glyph glyph-name="guillemotright.case" horiz-adv-x="635" 
d="M154 569h-92l212 -214l-212 -214h92l211 214zM377 569h-92l212 -214l-212 -214h92l211 214z" />
    <glyph glyph-name="guilsinglleft.case" horiz-adv-x="412" 
d="M258 569l-211 -214l211 -214h92l-212 214l212 214h-92z" />
    <glyph glyph-name="guilsinglright.case" horiz-adv-x="412" 
d="M154 569h-92l212 -214l-212 -214h92l211 214z" />
    <glyph glyph-name="backslash.sc" horiz-adv-x="604" 
d="M127 705l484 -805h-93l-485 805h94z" />
    <glyph glyph-name="exclam.sc" horiz-adv-x="315" 
d="M107 605h104l-17 -412h-70zM159 -10c-35 0 -60 23 -60 55s25 56 60 56s60 -24 60 -56s-25 -55 -60 -55z" />
    <glyph glyph-name="exclamdown.sc" horiz-adv-x="314" 
d="M150 615c35 0 60 -23 60 -55s-25 -56 -60 -56s-60 24 -60 56s25 55 60 55zM98 0l17 412h70l17 -412h-104z" />
    <glyph glyph-name="numbersign.sc" horiz-adv-x="874" 
d="M817 384h-155l-46 -152h171v-63h-189l-51 -169h-74l51 169h-256l-51 -169h-74l51 169h-138v63h156l46 152h-171v63h190l47 158h74l-47 -158h256l47 158h74l-47 -158h136v-63zM542 232l46 152h-256l-46 -152h256z" />
    <glyph glyph-name="question.sc" horiz-adv-x="675" 
d="M296 177v158c143 9 247 39 247 115c0 73 -96 105 -195 105c-103 0 -190 -33 -250 -114l-62 41c63 86 172 143 315 143c139 0 278 -59 278 -175c0 -103 -111 -160 -261 -170v-103h-72zM332 -10c-35 0 -60 23 -60 55s25 56 60 56s60 -24 60 -56s-25 -55 -60 -55z" />
    <glyph glyph-name="questiondown.sc" horiz-adv-x="674" 
d="M343 615c35 0 60 -23 60 -55s-25 -56 -60 -56s-60 24 -60 56s25 55 60 55zM379 428v-158c-143 -9 -247 -39 -247 -115c0 -73 96 -105 195 -105c103 0 190 33 250 114l62 -41c-63 -86 -172 -143 -315 -143c-139 0 -278 59 -278 175c0 103 111 160 261 170v103h72z" />
    <glyph glyph-name="slash.sc" horiz-adv-x="642" 
d="M127 -100h-94l485 805h93z" />
    <glyph glyph-name="space" unicode=" " horiz-adv-x="320" 
 />
    <glyph glyph-name="cent" unicode="&#xa2;" horiz-adv-x="726" 
d="M669 212c-44 -73 -130 -127 -251 -135v-77h-68v77c-180 12 -287 113 -287 273s107 261 287 273v77h68v-77c120 -8 205 -61 250 -132l-67 -31c-39 60 -100 88 -183 93v-406c85 5 142 34 183 95zM137 350c0 -128 81 -192 213 -202v404c-132 -10 -213 -74 -213 -202z" />
    <glyph glyph-name="currency" unicode="&#xa4;" horiz-adv-x="806" 
d="M703 356c0 -79 -27 -144 -74 -191l99 -99l-45 -42l-104 103c-48 -28 -107 -43 -176 -43s-128 15 -176 42l-104 -102l-45 42l99 99c-48 47 -74 112 -74 191c0 72 22 133 62 179l-87 87l45 42l90 -87c50 33 114 51 190 51s141 -18 190 -52l90 88l45 -42l-87 -87
c40 -46 62 -107 62 -179zM175 356c0 -137 90 -204 228 -204s228 67 228 204s-90 204 -228 204s-228 -67 -228 -204z" />
    <glyph glyph-name="dollar" unicode="$" horiz-adv-x="877" 
d="M823 213c0 -124 -125 -208 -335 -214v-103h-73v105c-135 9 -263 56 -360 142l60 60c88 -76 184 -117 300 -126v246c-176 17 -336 50 -336 181c0 128 159 193 336 197v93h73v-96c126 -11 229 -57 302 -120l-62 -55c-61 57 -145 90 -240 99v-226c199 -18 335 -51 335 -183z
M165 507c0 -79 108 -94 250 -105v223c-117 -2 -250 -31 -250 -118zM488 75c154 4 249 48 249 132c0 78 -87 95 -249 109v-241z" />
    <glyph glyph-name="Euro" unicode="&#x20ac;" horiz-adv-x="909" 
d="M527 57c124 0 200 48 253 133l71 -41c-60 -92 -164 -170 -323 -170c-205 0 -337 104 -372 275h-108v56h101c-1 13 -2 26 -2 40s1 27 2 40h-101v56h108c35 171 167 275 372 275c159 0 263 -78 323 -170l-71 -41c-53 85 -129 133 -253 133c-153 0 -252 -68 -283 -197h426
v-56h-435c-1 -13 -2 -26 -2 -40s1 -27 2 -40h435v-56h-426c31 -129 130 -197 283 -197z" />
    <glyph glyph-name="florin" unicode="&#x192;" horiz-adv-x="664" 
d="M528 651c-58 0 -108 -27 -115 -94l-18 -170h191l-5 -57h-192l-20 -197c-11 -101 -94 -154 -180 -154c-49 0 -97 13 -131 33l30 61c23 -14 50 -24 85 -24c58 0 108 27 115 94l20 187h-192l5 57h193l19 180c10 101 93 154 178 154c50 0 98 -13 131 -33l-30 -61
c-25 13 -49 24 -84 24z" />
    <glyph glyph-name="uni20A8" unicode="&#x20a8;" horiz-adv-x="900" 
d="M848 700v-65h-187c36 -30 59 -71 65 -120h122v-65h-123c-14 -99 -94 -165 -210 -182l235 -268h-94l-228 263h-345v65h363c119 0 192 40 206 122h-569v65h569c-15 81 -87 120 -206 120h-363v65h765z" />
    <glyph glyph-name="sterling" unicode="&#xa3;" horiz-adv-x="740" 
d="M256 72h418v-72h-500h-118v72h118v248h-118v68h118v62c0 139 84 271 265 271c96 0 181 -42 228 -101l-49 -50c-49 53 -103 79 -175 79c-129 0 -187 -85 -187 -206v-55h360v-68h-360v-248z" />
    <glyph glyph-name="yen" unicode="&#xa5;" horiz-adv-x="844" 
d="M808 700l-297 -375h191v-49h-230l-7 -9v-70h237v-49h-237v-148h-84v148h-237v49h237v70l-7 9h-230v49h191l-298 375h101l286 -367l284 367h100z" />
    <glyph glyph-name="approxequal" unicode="&#x2248;" horiz-adv-x="739" 
d="M610 477l49 -44c-24 -38 -76 -83 -161 -83c-95 0 -165 57 -255 57c-59 0 -93 -25 -110 -54l-49 44c24 38 75 83 159 83c96 0 166 -57 257 -57c59 0 92 25 110 54zM610 245l49 -44c-24 -38 -76 -83 -161 -83c-95 0 -165 57 -255 57c-59 0 -93 -25 -110 -54l-49 44
c24 38 75 83 159 83c96 0 166 -57 257 -57c59 0 92 25 110 54z" />
    <glyph glyph-name="asciitilde" unicode="~" horiz-adv-x="740" 
d="M610 361l49 -44c-24 -38 -76 -83 -161 -83c-95 0 -165 57 -255 57c-59 0 -93 -25 -110 -54l-49 44c24 38 75 83 159 83c96 0 166 -57 257 -57c59 0 92 25 110 54z" />
    <glyph glyph-name="divide" unicode="&#xf7;" horiz-adv-x="740" 
d="M370 429c-34 0 -56 27 -56 52c0 24 22 52 56 52s56 -28 56 -52c0 -25 -22 -52 -56 -52zM652 259h-563v80h563v-80zM370 65c-34 0 -56 28 -56 52c0 25 22 52 56 52s56 -27 56 -52c0 -24 -22 -52 -56 -52z" />
    <glyph glyph-name="emptyset" unicode="&#x2205;" horiz-adv-x="784" 
d="M718 627l-81 -81c45 -47 68 -112 68 -190c0 -172 -114 -279 -313 -279c-71 0 -131 14 -179 39l-95 -97l-52 48l90 90c-50 48 -77 116 -77 199c0 172 115 279 313 279c77 0 141 -16 191 -45l83 85zM159 356c0 -62 18 -110 52 -144l176 177l141 144c-36 19 -82 28 -136 28
c-146 0 -233 -68 -233 -205zM625 356c0 57 -15 102 -43 135l-147 -148l-166 -170c34 -14 75 -21 123 -21c147 0 233 67 233 204z" />
    <glyph glyph-name="equal" unicode="=" horiz-adv-x="740" 
d="M652 382h-563v76h563v-76zM652 147h-563v76h563v-76z" />
    <glyph glyph-name="greater" unicode="&#x3e;" horiz-adv-x="740" 
d="M124 553v-76l438 -180l-438 -180v-76l520 220v72z" />
    <glyph glyph-name="greaterequal" unicode="&#x2265;" horiz-adv-x="740" 
d="M117 627v-74l434 -167l-434 -167v-74l520 208v66zM637 22h-520v66h520v-66z" />
    <glyph glyph-name="infinity" unicode="&#x221e;" horiz-adv-x="1031" 
d="M749 489c119 0 214 -75 214 -196s-95 -196 -214 -196c-110 0 -176 67 -234 140c-57 -73 -124 -140 -234 -140c-119 0 -214 75 -214 196s95 196 214 196c110 0 177 -67 234 -140c58 73 124 140 234 140zM282 163c84 0 138 61 191 130c-53 69 -107 130 -191 130
c-78 0 -143 -45 -143 -130s65 -130 143 -130zM748 163c79 0 143 45 143 130s-64 130 -143 130c-84 0 -137 -61 -190 -130c53 -69 106 -130 190 -130z" />
    <glyph glyph-name="integral" unicode="&#x222b;" horiz-adv-x="405" 
d="M324 760c24 0 50 -3 73 -11l-14 -62c-13 4 -22 6 -36 6c-58 0 -105 -31 -105 -98v-503v-97c0 -101 -76 -155 -161 -155c-24 0 -50 3 -73 11l14 62c13 -4 22 -6 36 -6c58 0 105 31 105 98v503v97c0 101 76 155 161 155z" />
    <glyph glyph-name="less" unicode="&#x3c;" horiz-adv-x="740" 
d="M616 553l-520 -220v-72l520 -220v76l-438 180l438 180v76z" />
    <glyph glyph-name="lessequal" unicode="&#x2264;" horiz-adv-x="740" 
d="M623 627l-520 -208v-66l520 -208v74l-434 167l434 167v74zM103 22v66h520v-66h-520z" />
    <glyph glyph-name="logicalnot" unicode="&#xac;" horiz-adv-x="740" 
d="M86 332h570v-270h-77v199h-493v71z" />
    <glyph glyph-name="minus" unicode="&#x2212;" horiz-adv-x="740" 
d="M652 261h-563v76h563v-76z" />
    <glyph glyph-name="multiply" unicode="&#xd7;" horiz-adv-x="743" 
d="M614 489l-190 -188l190 -189l-53 -54l-190 190l-190 -188l-51 52l189 188l-189 189l53 53l189 -189l189 189z" />
    <glyph glyph-name="notequal" unicode="&#x2260;" horiz-adv-x="740" 
d="M652 382h-203l-86 -159h289v-76h-330l-65 -121h-72l65 121h-161v76h202l86 159h-288v76h328l65 120h72l-65 -120h163v-76z" />
    <glyph glyph-name="partialdiff" unicode="&#x2202;" horiz-adv-x="779" 
d="M721 296c0 -225 -125 -317 -331 -317c-207 0 -332 112 -332 289s133 284 304 284c105 0 224 -31 273 -139c-32 121 -151 225 -423 266l13 71c356 -56 496 -215 496 -454zM389 52c144 0 250 70 250 216c0 145 -106 215 -250 215c-143 0 -249 -70 -249 -215
c0 -146 106 -216 249 -216z" />
    <glyph glyph-name="percent" unicode="%" horiz-adv-x="914" 
d="M219 396c-105 0 -175 71 -175 158c0 88 70 158 175 158s175 -70 175 -158c0 -87 -70 -158 -175 -158zM689 700h78l-542 -700h-78zM219 454c64 0 111 37 111 100s-47 100 -111 100s-111 -37 -111 -100s47 -100 111 -100zM695 -12c-105 0 -175 71 -175 158
c0 88 70 158 175 158s175 -70 175 -158c0 -87 -70 -158 -175 -158zM695 46c64 0 111 37 111 100s-47 100 -111 100s-111 -37 -111 -100s47 -100 111 -100z" />
    <glyph glyph-name="perthousand" unicode="&#x2030;" horiz-adv-x="1313" 
d="M219 396c-105 0 -175 71 -175 158c0 88 70 158 175 158s175 -70 175 -158c0 -87 -70 -158 -175 -158zM689 700h78l-542 -700h-78zM219 454c64 0 111 37 111 100s-47 100 -111 100s-111 -37 -111 -100s47 -100 111 -100zM695 -12c-105 0 -175 71 -175 158
c0 88 70 158 175 158s175 -70 175 -158c0 -87 -70 -158 -175 -158zM1094 -12c-105 0 -175 71 -175 158c0 88 70 158 175 158s175 -70 175 -158c0 -87 -70 -158 -175 -158zM695 46c64 0 111 37 111 100s-47 100 -111 100s-111 -37 -111 -100s47 -100 111 -100zM1094 46
c64 0 111 37 111 100s-47 100 -111 100s-111 -37 -111 -100s47 -100 111 -100z" />
    <glyph glyph-name="plus" unicode="+" horiz-adv-x="740" 
d="M652 333v-68h-245v-220h-72v220h-246v68h246v220h72v-220h245z" />
    <glyph glyph-name="plusminus" unicode="&#xb1;" horiz-adv-x="740" 
d="M406 415h246v-66h-246v-213h-72v213h-245v66h245v213h72v-213zM89 21v66h563v-66h-563z" />
    <glyph glyph-name="product" unicode="&#x220f;" horiz-adv-x="852" 
d="M736 700v-820h-78v748h-464v-748h-78v820h620z" />
    <glyph glyph-name="radical" unicode="&#x221a;" horiz-adv-x="738" 
d="M646 700h82l-337 -820h-69l-193 425h-103v73h121h32l175 -394z" />
    <glyph glyph-name="summation" unicode="&#x2211;" horiz-adv-x="700" 
d="M645 628h-479l353 -309v-48l-356 -319h485v-72h-605v61l392 354l-389 344v61h599v-72z" />
    <glyph glyph-name="percent.osf" horiz-adv-x="919" 
d="M219 306c-105 0 -175 71 -175 158c0 88 70 158 175 158s175 -70 175 -158c0 -87 -70 -158 -175 -158zM688 610h80l-537 -610h-80zM219 364c64 0 111 37 111 100s-47 100 -111 100s-111 -37 -111 -100s47 -100 111 -100zM700 -12c-105 0 -175 71 -175 158
c0 88 70 158 175 158s175 -70 175 -158c0 -87 -70 -158 -175 -158zM700 46c64 0 111 37 111 100s-47 100 -111 100s-111 -37 -111 -100s47 -100 111 -100z" />
    <glyph glyph-name="perthousand.osf" horiz-adv-x="1313" 
d="M219 306c-105 0 -175 71 -175 158c0 88 70 158 175 158s175 -70 175 -158c0 -87 -70 -158 -175 -158zM688 610h80l-537 -610h-80zM219 364c64 0 111 37 111 100s-47 100 -111 100s-111 -37 -111 -100s47 -100 111 -100zM700 -12c-105 0 -175 71 -175 158
c0 88 70 158 175 158s175 -70 175 -158c0 -87 -70 -158 -175 -158zM1094 -12c-105 0 -175 71 -175 158c0 88 70 158 175 158s175 -70 175 -158c0 -87 -70 -158 -175 -158zM700 46c64 0 111 37 111 100s-47 100 -111 100s-111 -37 -111 -100s47 -100 111 -100zM1094 46
c64 0 111 37 111 100s-47 100 -111 100s-111 -37 -111 -100s47 -100 111 -100z" />
    <glyph glyph-name="arrowup" unicode="&#x2191;" horiz-adv-x="968" 
d="M827 398l-52 -52l-252 260v-646h-78v646l-251 -260l-52 52l342 342z" />
    <glyph glyph-name="uni2197" unicode="&#x2197;" horiz-adv-x="969" 
d="M263 634h484v-484h-70v362l-457 -456l-52 52l457 456h-362v70z" />
    <glyph glyph-name="arrowright" unicode="&#x2192;" horiz-adv-x="968" 
d="M545 707l342 -342l-342 -343l-52 52l260 252h-646v78h646l-260 251z" />
    <glyph glyph-name="uni2198" unicode="&#x2198;" horiz-adv-x="969" 
d="M677 553h70v-484h-484v70h362l-457 456l52 52l457 -456v362z" />
    <glyph glyph-name="arrowdown" unicode="&#x2193;" horiz-adv-x="968" 
d="M775 354l52 -52l-343 -342l-342 342l52 52l251 -260v646h78v-646z" />
    <glyph glyph-name="uni2199" unicode="&#x2199;" horiz-adv-x="969" 
d="M801 595l-457 -456h362v-70h-484v484h70v-362l457 456z" />
    <glyph glyph-name="arrowleft" unicode="&#x2190;" horiz-adv-x="968" 
d="M861 404v-78h-646l260 -252l-52 -52l-342 343l342 342l52 -52l-260 -251h646z" />
    <glyph glyph-name="uni2196" unicode="&#x2196;" horiz-adv-x="969" 
d="M801 108l-52 -52l-457 456v-362h-70v484h484v-70h-362z" />
    <glyph glyph-name="lozenge" unicode="&#x25ca;" horiz-adv-x="734" 
d="M416 700l281 -344l-281 -356h-97l-281 356l281 344h97zM368 60l237 296l-237 286l-238 -286z" />
    <glyph glyph-name="bar" unicode="|" horiz-adv-x="294" 
d="M108 -120v820h78v-820h-78z" />
    <glyph glyph-name="brokenbar" unicode="&#xa6;" horiz-adv-x="294" 
d="M108 373v327h78v-327h-78zM186 212v-332h-78v332h78z" />
    <glyph glyph-name="at" unicode="@" horiz-adv-x="1112" 
d="M553 685c287 0 491 -169 491 -413c0 -175 -63 -245 -147 -245c-72 0 -125 49 -136 113c-45 -74 -143 -124 -249 -124c-152 0 -272 99 -272 257s120 256 272 256c106 0 202 -50 246 -124l21 105h49v-319c0 -100 41 -125 79 -125c51 0 94 60 94 206
c0 240 -203 373 -448 373s-448 -133 -448 -373s203 -372 448 -372c115 0 215 27 287 79l22 -34c-74 -56 -180 -85 -309 -85c-287 0 -491 168 -491 412s204 413 491 413zM530 79c98 0 184 44 226 136v114c-42 91 -128 136 -226 136c-126 0 -217 -68 -217 -193
c0 -124 91 -193 217 -193z" />
    <glyph glyph-name="ampersand" unicode="&#x26;" horiz-adv-x="894" 
d="M888 0h-131l-75 55c-64 -48 -153 -75 -268 -75c-200 0 -350 101 -350 233c0 81 56 156 145 193c-36 34 -60 71 -60 125c0 114 106 189 257 189c166 0 255 -89 296 -185l-74 -30c-39 90 -108 139 -223 139c-107 0 -170 -43 -170 -109c0 -62 60 -100 147 -164l292 -214
c33 43 50 100 51 171h82c-1 -86 -24 -160 -69 -218zM420 56c80 0 146 16 196 47l-319 235c-11 8 -21 15 -31 23c-81 -32 -115 -86 -115 -143c0 -112 128 -162 269 -162z" />
    <glyph glyph-name="paragraph" unicode="&#xb6;" horiz-adv-x="911" 
d="M313 700h482v-700h-74v631h-150v-631h-74v260h-184c-163 0 -270 79 -270 220c0 139 107 220 270 220zM497 329v302h-183c-123 0 -198 -52 -198 -151s75 -151 198 -151h183z" />
    <glyph glyph-name="copyright" unicode="&#xa9;" horiz-adv-x="978" 
d="M489 -21c-265 0 -425 147 -425 371s160 371 425 371s425 -147 425 -371s-160 -371 -425 -371zM489 14c235 0 387 121 387 336s-152 336 -387 336s-388 -121 -388 -336s153 -336 388 -336zM751 224c-50 -73 -138 -129 -263 -129c-173 0 -288 97 -288 256s115 256 288 256
c124 0 211 -55 259 -127l-62 -30c-44 67 -103 95 -193 95c-132 0 -223 -65 -223 -194s91 -194 223 -194c91 0 151 30 196 98z" />
    <glyph glyph-name="registered" unicode="&#xae;" horiz-adv-x="579" 
d="M289 710c130 0 226 -81 226 -206s-96 -206 -226 -206s-225 81 -225 206s95 206 225 206zM289 321c118 0 200 70 200 183s-82 183 -200 183c-119 0 -200 -70 -200 -183s81 -183 200 -183zM410 546c0 -36 -25 -61 -66 -67l71 -79h-44l-69 78h-81v-78h-37v213h140
c52 0 86 -25 86 -67zM220 506h94c36 0 57 12 57 39c0 28 -21 39 -57 39h-94v-78z" />
    <glyph glyph-name="uni2117" unicode="&#x2117;" horiz-adv-x="978" 
d="M489 -21c-265 0 -425 147 -425 371s160 371 425 371s425 -147 425 -371s-160 -371 -425 -371zM489 14c235 0 387 121 387 336s-152 336 -387 336s-388 -121 -388 -336s153 -336 388 -336zM576 588c117 0 200 -53 200 -154c0 -102 -83 -154 -200 -154h-246v-166h-68v474
h314zM571 340c84 0 137 24 137 94c0 69 -53 94 -137 94h-241v-188h241z" />
    <glyph glyph-name="section" unicode="&#xa7;" horiz-adv-x="727" 
d="M556 161c64 -25 104 -64 104 -125c0 -98 -99 -177 -286 -177c-128 0 -235 44 -317 117l54 48c67 -58 148 -97 265 -97c114 0 203 35 203 101c0 68 -81 86 -220 98c-144 12 -281 43 -281 155c0 69 47 122 122 149c-68 22 -115 60 -115 126c0 107 120 165 281 165
c110 0 212 -44 272 -93l-49 -55c-54 44 -126 79 -223 80s-200 -20 -200 -92c0 -68 98 -81 217 -90c164 -13 284 -54 284 -160c0 -63 -37 -119 -111 -150zM159 292c0 -68 98 -87 217 -96c28 -2 54 -5 79 -9c78 17 131 61 131 111c0 68 -81 91 -220 103l-36 3
c-91 -8 -171 -46 -171 -112z" />
    <glyph glyph-name="trademark" unicode="&#x2122;" horiz-adv-x="973" 
d="M400 700v-50h-152v-292h-54v292h-152v50h358zM825 700h52v-342h-52v265l-160 -202h-3l-159 202v-265h-51v342h54l158 -206z" />
    <glyph glyph-name="degree" unicode="&#xb0;" horiz-adv-x="431" 
d="M216 434c-92 0 -155 58 -155 139c0 80 63 139 155 139s154 -59 154 -139c0 -81 -62 -139 -154 -139zM215 488c61 0 95 34 95 85s-34 85 -95 85c-60 0 -94 -34 -94 -85s34 -85 94 -85z" />
    <glyph glyph-name="estimated" unicode="&#x212e;" horiz-adv-x="927" 
d="M253 329v-248c57 -36 131 -54 217 -54c154 0 258 57 329 147l38 -34c-76 -95 -188 -161 -367 -161c-252 0 -406 144 -406 371s154 371 406 371c248 0 400 -150 406 -392h-623zM686 614c-57 39 -131 59 -216 59c-86 0 -160 -18 -217 -54v-244h433v239z" />
    <glyph glyph-name="uni2113" unicode="&#x2113;" horiz-adv-x="569" 
d="M345 46c46 0 85 15 112 64l53 -34c-31 -66 -102 -96 -169 -96c-85 0 -179 49 -179 185v20c-38 -17 -76 -33 -109 -46l-20 54c37 15 84 35 129 56v326c0 136 96 185 179 185c82 0 178 -49 178 -187c0 -114 -50 -227 -199 -312c-23 -13 -53 -28 -86 -44v-47
c0 -97 54 -124 111 -124zM234 570v-288c31 16 59 30 77 41c98 61 136 157 136 247c0 97 -52 124 -106 124c-55 0 -107 -27 -107 -124z" />
    <glyph glyph-name="asciicircum" unicode="^" horiz-adv-x="740" 
d="M105 260h84l181 357l181 -357h84l-229 440h-72z" />
    <glyph glyph-name="dagger" unicode="&#x2020;" horiz-adv-x="435" 
d="M362 618v-56h-116v-213h-60v213h-113v56h113v122h60v-122h116z" />
    <glyph glyph-name="daggerdbl" unicode="&#x2021;" horiz-adv-x="435" 
d="M362 588h-116v-87h116v-54h-116v-98h-60v98h-113v54h113v87h-113v54h113v98h60v-98h116v-54z" />
    <glyph glyph-name="minute" unicode="&#x2032;" horiz-adv-x="283" 
d="M160 700h79l-97 -263h-79z" />
    <glyph glyph-name="second" unicode="&#x2033;" horiz-adv-x="459" 
d="M160 700h79l-97 -263h-79zM336 700h79l-97 -263h-79z" />
    <glyph glyph-name="bar.case" horiz-adv-x="294" 
d="M108 -60v820h78v-820h-78z" />
    <glyph glyph-name="brokenbar.case" horiz-adv-x="294" 
d="M108 433v327h78v-327h-78zM186 272v-332h-78v332h78z" />
    <glyph glyph-name="at.case" horiz-adv-x="1039" 
d="M773 29c-70 -36 -170 -50 -256 -50c-279 0 -455 156 -455 371s176 371 455 371c278 0 454 -156 454 -381c0 -123 -45 -222 -137 -222c-72 0 -120 56 -129 119c-41 -73 -123 -122 -226 -122c-133 0 -252 83 -252 237s119 236 252 236c103 0 182 -49 224 -122l16 103h51
v-284c0 -98 49 -121 78 -121c50 0 80 80 80 176c0 221 -173 341 -411 341c-239 0 -412 -120 -412 -331s173 -331 412 -331c82 0 169 15 238 45zM495 174c94 0 166 45 207 135v84c-41 90 -113 135 -207 135c-110 0 -198 -52 -198 -177s88 -177 198 -177z" />
    <glyph glyph-name="registered.case" horiz-adv-x="978" 
d="M489 721c265 0 425 -147 425 -371s-160 -371 -425 -371s-425 147 -425 371s160 371 425 371zM489 14c235 0 387 121 387 336s-152 336 -387 336s-388 -121 -388 -336s153 -336 388 -336zM760 436c0 -82 -54 -131 -136 -147l146 -175h-83l-135 169h-238v-169h-68v474h314
c117 0 200 -51 200 -152zM314 526v-181h242c84 0 135 21 135 90c0 68 -51 91 -135 91h-242z" />
    <glyph glyph-name="dagger.case" horiz-adv-x="555" 
d="M482 485v-68h-170v-417h-72v417h-167v68h167v215h72v-215h170z" />
    <glyph glyph-name="daggerdbl.case" horiz-adv-x="555" 
d="M482 468h-170v-236h170v-68h-170v-164h-72v164h-167v68h167v236h-167v68h167v164h72v-164h170v-68z" />
    <glyph glyph-name="bar.sc" horiz-adv-x="294" 
d="M108 -100v820h78v-820h-78z" />
    <glyph glyph-name="brokenbar.sc" horiz-adv-x="294" 
d="M108 393v327h78v-327h-78zM186 232v-332h-78v332h78z" />
    <glyph glyph-name="at.sc" horiz-adv-x="941" 
d="M709 26c-64 -32 -155 -46 -234 -46c-252 0 -412 137 -412 322c0 186 160 323 412 323c253 0 413 -137 413 -323c0 -116 -42 -199 -123 -199c-60 0 -110 46 -121 108c-37 -69 -112 -110 -204 -110c-121 0 -228 71 -228 203s107 204 228 204c92 0 165 -42 202 -112l17 96
h47v-245c0 -83 37 -114 70 -114c50 0 75 77 75 169c0 185 -161 290 -376 290s-375 -105 -375 -290c0 -184 160 -289 375 -289c76 0 156 16 217 44zM456 151c86 0 149 40 185 116v73c-36 75 -99 115 -185 115c-99 0 -178 -47 -178 -152s79 -152 178 -152z" />
    <glyph glyph-name="ampersand.sc" horiz-adv-x="824" 
d="M808 0h-122l-65 46c-58 -40 -138 -63 -240 -63c-183 0 -319 87 -319 201c0 70 50 134 132 166c-33 29 -55 61 -55 108c0 98 96 164 234 164c152 0 234 -77 272 -159l-73 -30c-36 78 -98 118 -199 118c-94 0 -153 -36 -153 -92c0 -52 52 -81 129 -135l263 -186
c30 37 46 85 47 146h80c-1 -75 -23 -140 -64 -190zM386 54c68 0 126 12 170 37l-286 202l-24 17c-69 -28 -98 -73 -98 -120c0 -94 113 -136 238 -136z" />
    <glyph glyph-name="paragraph.sc" horiz-adv-x="867" 
d="M298 605h459v-605h-70v540h-153v-540h-70v209h-166c-154 0 -254 66 -254 199c0 130 100 197 254 197zM464 274v266h-163c-116 0 -186 -41 -186 -133s70 -133 186 -133h163z" />
    <glyph glyph-name="copyright.sc" horiz-adv-x="897" 
d="M448 -18c-240 0 -386 128 -386 321c0 194 146 322 386 322c241 0 387 -128 387 -322c0 -193 -146 -321 -387 -321zM448 13c213 0 352 105 352 290s-139 291 -352 291c-212 0 -351 -106 -351 -291s139 -290 351 -290zM687 193c-45 -62 -125 -111 -240 -111
c-157 0 -261 84 -261 222s104 223 261 223c114 0 193 -48 236 -110l-60 -29c-40 56 -92 80 -171 80c-118 0 -198 -56 -198 -164c0 -107 80 -163 198 -163c80 0 133 25 173 82z" />
    <glyph glyph-name="registered.sc" horiz-adv-x="895" 
d="M447 625c241 0 386 -129 386 -323c0 -193 -145 -322 -386 -322c-240 0 -385 129 -385 322c0 194 145 323 385 323zM447 8c213 0 356 108 356 294c0 187 -143 295 -356 295c-212 0 -354 -108 -354 -295c0 -186 142 -294 354 -294zM695 374c0 -71 -49 -115 -124 -129
l132 -147h-82l-122 142h-206v-142h-66v410h285c107 0 183 -46 183 -134zM293 450v-152h215c74 0 119 21 119 76c0 50 -45 76 -119 76h-215z" />
    <glyph glyph-name="uni2117.sc" horiz-adv-x="895" 
d="M447 -18c-240 0 -385 127 -385 320c0 194 145 321 385 321c241 0 386 -127 386 -321c0 -193 -145 -320 -386 -320zM447 10c213 0 356 106 356 292c0 187 -143 293 -356 293c-212 0 -354 -106 -354 -293c0 -186 142 -292 354 -292zM526 508c107 0 184 -46 184 -134
c0 -90 -77 -134 -184 -134h-218v-142h-66v410h284zM521 298c75 0 121 16 121 76c0 59 -46 76 -121 76h-213v-152h213z" />
    <glyph glyph-name="section.sc" horiz-adv-x="675" 
d="M519 140c55 -22 89 -55 89 -107c0 -86 -90 -155 -261 -155c-117 0 -214 38 -288 99l51 47c60 -49 134 -82 239 -82c101 0 180 29 180 83c0 56 -71 71 -195 81c-132 10 -256 38 -256 136c0 58 40 103 104 128c-58 20 -98 53 -98 109c0 93 110 144 257 144
c100 0 193 -37 248 -79l-47 -52c-49 37 -115 66 -202 67c-86 1 -176 -16 -176 -75c0 -56 87 -67 192 -75c149 -11 258 -46 258 -139c0 -53 -32 -102 -95 -130zM158 252c0 -56 86 -72 191 -80c25 -2 48 -4 71 -8c69 15 115 51 115 93c0 56 -72 77 -195 86l-31 3
c-81 -7 -151 -39 -151 -94z" />
    <glyph glyph-name="degree.sc" horiz-adv-x="431" 
d="M216 339c-92 0 -155 58 -155 139c0 80 63 139 155 139s154 -59 154 -139c0 -81 -62 -139 -154 -139zM215 393c61 0 95 34 95 85s-34 85 -95 85c-60 0 -94 -34 -94 -85s34 -85 94 -85z" />
    <glyph glyph-name="cent.sc" horiz-adv-x="671" 
d="M614 186c-40 -64 -117 -113 -228 -120v-66h-63v66c-163 11 -260 98 -260 236c0 139 97 226 260 237v66h63v-66c110 -7 186 -56 227 -118l-65 -29c-35 50 -89 76 -162 80v-339c75 4 125 30 162 82zM136 302c0 -105 72 -159 187 -169v339c-115 -10 -187 -64 -187 -170z" />
    <glyph glyph-name="currency.sc" horiz-adv-x="746" 
d="M646 308c0 -67 -23 -124 -65 -164l88 -85l-43 -39l-95 88c-43 -23 -96 -36 -157 -36s-115 13 -158 36l-94 -88l-44 39l89 85c-43 40 -66 97 -66 164c0 61 20 113 55 152l-78 75l44 40l81 -75c45 28 103 43 171 43s126 -16 171 -44l81 76l43 -40l-78 -75
c35 -39 55 -91 55 -152zM172 308c0 -115 80 -171 202 -171c121 0 201 56 201 171c0 114 -80 170 -201 170c-122 0 -202 -56 -202 -170z" />
    <glyph glyph-name="dagger.sc" horiz-adv-x="555" 
d="M482 396v-57h-173v-339h-66v339h-170v57h170v209h66v-209h173z" />
    <glyph glyph-name="daggerdbl.sc" horiz-adv-x="555" 
d="M482 403h-173v-186h173v-55h-173v-162h-66v162h-170v55h170v186h-170v55h170v162h66v-162h173v-55z" />
    <glyph glyph-name="dollar.sc" horiz-adv-x="806" 
d="M753 186c0 -109 -114 -182 -305 -187v-89h-67v90c-123 8 -239 49 -327 123l57 57c79 -64 166 -99 270 -107v202c-160 15 -305 45 -305 159c0 113 144 169 305 172v80h67v-82c114 -9 208 -49 275 -103l-58 -53c-56 48 -131 76 -217 84v-187c181 -14 305 -43 305 -159z
M161 437c0 -64 95 -77 220 -87v184c-104 -2 -220 -26 -220 -97zM448 71c136 3 220 40 220 108c0 64 -76 78 -220 91v-199z" />
    <glyph glyph-name="Euro.sc" horiz-adv-x="839" 
d="M485 56c110 0 178 41 225 113l70 -39c-54 -80 -149 -148 -294 -148c-185 0 -305 89 -337 237h-98v50h90c-1 11 -1 22 -1 34c0 11 0 22 1 33h-90v50h97c32 148 152 239 338 239c145 0 240 -68 294 -148l-70 -39c-47 71 -115 113 -225 113c-135 0 -222 -58 -250 -165h376
v-50h-385c-1 -11 -1 -22 -1 -33c0 -12 1 -23 2 -34h384v-50h-376c29 -106 116 -163 250 -163z" />
    <glyph glyph-name="minute.sc" horiz-adv-x="283" 
d="M160 605h79l-97 -263h-79z" />
    <glyph glyph-name="percent.sc" horiz-adv-x="919" 
d="M219 301c-105 0 -175 71 -175 158c0 88 70 158 175 158s175 -70 175 -158c0 -87 -70 -158 -175 -158zM688 605h80l-537 -605h-80zM219 359c64 0 111 37 111 100s-47 100 -111 100s-111 -37 -111 -100s47 -100 111 -100zM700 -12c-105 0 -175 71 -175 158
c0 88 70 158 175 158s175 -70 175 -158c0 -87 -70 -158 -175 -158zM700 46c64 0 111 37 111 100s-47 100 -111 100s-111 -37 -111 -100s47 -100 111 -100z" />
    <glyph glyph-name="perthousand.sc" horiz-adv-x="1313" 
d="M219 301c-105 0 -175 71 -175 158c0 88 70 158 175 158s175 -70 175 -158c0 -87 -70 -158 -175 -158zM688 605h80l-537 -605h-80zM219 359c64 0 111 37 111 100s-47 100 -111 100s-111 -37 -111 -100s47 -100 111 -100zM700 -12c-105 0 -175 71 -175 158
c0 88 70 158 175 158s175 -70 175 -158c0 -87 -70 -158 -175 -158zM1094 -12c-105 0 -175 71 -175 158c0 88 70 158 175 158s175 -70 175 -158c0 -87 -70 -158 -175 -158zM700 46c64 0 111 37 111 100s-47 100 -111 100s-111 -37 -111 -100s47 -100 111 -100zM1094 46
c64 0 111 37 111 100s-47 100 -111 100s-111 -37 -111 -100s47 -100 111 -100z" />
    <glyph glyph-name="uni20A8.sc" horiz-adv-x="832" 
d="M777 605v-68h-157c25 -24 41 -54 47 -89h110v-68h-111c-16 -83 -85 -137 -186 -153l209 -227h-97l-201 222h-308v68h327c102 0 165 29 181 90h-508v68h508c-16 61 -79 89 -181 89h-327v68h694z" />
    <glyph glyph-name="second.sc" horiz-adv-x="459" 
d="M160 605h79l-97 -263h-79zM336 605h79l-97 -263h-79z" />
    <glyph glyph-name="sterling.sc" horiz-adv-x="689" 
d="M247 69h375v-69h-457h-107v69h107v205h-107v63h107v52c0 120 78 234 243 234c88 0 165 -36 207 -86l-46 -50c-43 44 -91 66 -155 66c-115 0 -167 -70 -167 -172v-44h322v-63h-322v-205z" />
    <glyph glyph-name="yen.sc" horiz-adv-x="772" 
d="M737 605l-265 -322h169v-45h-206l-7 -8v-59h213v-45h-213v-126h-84v126h-212v45h212v59l-7 8h-205v45h168l-265 322h101l251 -311l250 311h100z" />
    <glyph glyph-name="florin.sc" horiz-adv-x="617" 
d="M471 556c-52 0 -97 -23 -103 -79l-15 -140h171l-5 -54h-172l-18 -165c-10 -89 -86 -136 -166 -136c-45 0 -90 11 -121 29l28 58c20 -11 45 -20 77 -20c52 0 96 23 102 80l17 154h-171l5 54h172l17 150c10 89 85 136 164 136c46 0 91 -11 122 -29l-28 -58
c-22 10 -45 20 -76 20z" />
    <glyph glyph-name="uni0326" unicode="&#x326;" horiz-adv-x="0" 
d="M-323 -58c36 0 62 -25 62 -64c0 -53 -30 -128 -82 -177l-27 23c40 46 55 75 60 111c-3 -3 -10 -4 -16 -4c-31 0 -56 23 -56 56c0 31 25 55 59 55z" />
    <glyph glyph-name="acute" unicode="&#xb4;" horiz-adv-x="582" 
d="M445 930l-221 -150h-78l165 150h134z" />
    <glyph glyph-name="breve" unicode="&#x2d8;" horiz-adv-x="568" 
d="M470 930c0 -56 -41 -155 -172 -155c-132 0 -172 99 -172 155h69c2 -45 37 -91 103 -91c65 0 101 46 102 91h70z" />
    <glyph glyph-name="caron" unicode="&#x2c7;" horiz-adv-x="568" 
d="M82 930l156 -150h91l156 150h-95l-107 -103l-106 103h-95z" />
    <glyph glyph-name="cedilla" unicode="&#xb8;" horiz-adv-x="580" 
d="M326 -52l-119 -158l-69 18l103 156z" />
    <glyph glyph-name="circumflex" unicode="&#x2c6;" horiz-adv-x="568" 
d="M82 780h95l106 103l107 -103h95l-156 150h-91z" />
    <glyph glyph-name="dieresis" unicode="&#xa8;" horiz-adv-x="576" 
d="M158 793c-31 0 -53 23 -53 48c0 26 22 49 53 49c30 0 52 -23 52 -49c0 -25 -22 -48 -52 -48zM418 793c-31 0 -53 23 -53 48c0 26 22 49 53 49c30 0 52 -23 52 -49c0 -25 -22 -48 -52 -48z" />
    <glyph glyph-name="dotaccent" unicode="&#x2d9;" horiz-adv-x="568" 
d="M284 793c-29 0 -48 17 -48 42c0 26 19 43 48 43c28 0 47 -17 47 -43c0 -25 -19 -42 -47 -42z" />
    <glyph glyph-name="grave" unicode="`" horiz-adv-x="582" 
d="M137 930h134l165 -150h-78z" />
    <glyph glyph-name="hungarumlaut" unicode="&#x2dd;" horiz-adv-x="573" 
d="M314 930l-164 -150h-87l164 150h87zM511 930l-164 -150h-87l164 150h87z" />
    <glyph glyph-name="macron" unicode="&#xaf;" horiz-adv-x="568" 
d="M91 874h386v-69h-386v69z" />
    <glyph glyph-name="ogonek" unicode="&#x2db;" horiz-adv-x="575" 
d="M368 -206c-20 -17 -56 -39 -111 -39c-65 0 -132 30 -132 102c0 73 60 132 143 151l46 -8c-64 -23 -120 -75 -120 -135c0 -48 36 -67 77 -67c34 0 60 13 77 24z" />
    <glyph glyph-name="ring" unicode="&#x2da;" horiz-adv-x="568" 
d="M300 773c-70 0 -129 35 -129 107c0 71 59 107 129 107s129 -36 129 -107c0 -72 -59 -107 -129 -107zM231 880c0 -40 28 -61 70 -61c41 0 70 21 70 61s-29 61 -70 61c-42 0 -70 -21 -70 -61z" />
    <glyph glyph-name="tilde" unicode="&#x2dc;" horiz-adv-x="586" 
d="M491 918l49 -32c-20 -38 -66 -85 -147 -85c-89 0 -128 57 -204 57c-53 0 -77 -27 -94 -52l-49 32c20 38 65 85 147 85c88 0 127 -57 204 -57c53 0 76 27 94 52z" />
    <glyph glyph-name="A.ss01" horiz-adv-x="896" 
d="M785 0l-86 158h-504l-86 -158h-93l385 700h94l385 -700h-95zM236 234h422l-211 389z" />
    <glyph glyph-name="Aacute.ss01" horiz-adv-x="896" 
d="M660 930l-221 -150h-78l165 150h134zM785 0l-86 158h-504l-86 -158h-93l385 700h94l385 -700h-95zM236 234h422l-211 389z" />
    <glyph glyph-name="Abreve.ss01" horiz-adv-x="896" 
d="M449 775c-132 0 -172 99 -172 155h69c2 -45 37 -91 103 -91c65 0 101 46 102 91h70c0 -56 -41 -155 -172 -155zM785 0l-86 158h-504l-86 -158h-93l385 700h94l385 -700h-95zM236 234h422l-211 389z" />
    <glyph glyph-name="Acircumflex.ss01" horiz-adv-x="896" 
d="M447 883l-106 -103h-95l156 150h91l156 -150h-95zM785 0l-86 158h-504l-86 -158h-93l385 700h94l385 -700h-95zM236 234h422l-211 389z" />
    <glyph glyph-name="Adieresis.ss01" horiz-adv-x="896" 
d="M318 793c-31 0 -53 23 -53 48c0 26 22 49 53 49c30 0 52 -23 52 -49c0 -25 -22 -48 -52 -48zM578 793c-31 0 -53 23 -53 48c0 26 22 49 53 49c30 0 52 -23 52 -49c0 -25 -22 -48 -52 -48zM785 0l-86 158h-504l-86 -158h-93l385 700h94l385 -700h-95zM236 234h422
l-211 389z" />
    <glyph glyph-name="Agrave.ss01" horiz-adv-x="896" 
d="M536 780h-78l-221 150h134zM785 0l-86 158h-504l-86 -158h-93l385 700h94l385 -700h-95zM236 234h422l-211 389z" />
    <glyph glyph-name="Amacron.ss01" horiz-adv-x="896" 
d="M641 874v-69h-386v69h386zM785 0l-86 158h-504l-86 -158h-93l385 700h94l385 -700h-95zM236 234h422l-211 389z" />
    <glyph glyph-name="Aogonek.ss01" horiz-adv-x="896" 
d="M913 -178l20 -28c-20 -17 -56 -39 -111 -39c-65 0 -132 30 -132 102c0 65 47 118 116 143h-21l-86 158h-504l-86 -158h-93l385 700h94l385 -700h-1c-64 -23 -120 -75 -120 -135c0 -48 36 -67 77 -67c34 0 60 13 77 24zM236 234h422l-211 389z" />
    <glyph glyph-name="Aring.ss01" horiz-adv-x="896" 
d="M448 773c-70 0 -129 35 -129 107c0 71 59 107 129 107s129 -36 129 -107c0 -72 -59 -107 -129 -107zM449 941c-42 0 -70 -21 -70 -61s28 -61 70 -61c41 0 70 21 70 61s-29 61 -70 61zM785 0l-86 158h-504l-86 -158h-93l385 700h94l385 -700h-95zM236 234h422l-211 389z
" />
    <glyph glyph-name="Aringacute.ss01" horiz-adv-x="896" 
d="M448 773c-70 0 -129 35 -129 107c0 35 15 62 38 80l128 126h94l-125 -99c68 -2 123 -38 123 -107c0 -72 -59 -107 -129 -107zM519 880c0 40 -29 61 -70 61c-42 0 -70 -21 -70 -61s28 -61 70 -61c41 0 70 21 70 61zM785 0l-86 158h-504l-86 -158h-93l385 700h94l385 -700
h-95zM236 234h422l-211 389z" />
    <glyph glyph-name="Atilde.ss01" horiz-adv-x="896" 
d="M344 858c-53 0 -77 -27 -94 -52l-49 32c20 38 65 85 147 85c88 0 127 -57 204 -57c53 0 76 27 94 52l49 -32c-20 -38 -66 -85 -147 -85c-89 0 -128 57 -204 57zM785 0l-86 158h-504l-86 -158h-93l385 700h94l385 -700h-95zM236 234h422l-211 389z" />
    <glyph glyph-name="AE.ss01" horiz-adv-x="1386" 
d="M736 78h593v-78h-677v148h-426l-130 -148h-102l616 700h57h652v-78h-583v-257h494v-78h-494v-209zM292 224h360v410z" />
    <glyph glyph-name="AEacute.ss01" horiz-adv-x="1386" 
d="M1159 930l-221 -150h-78l165 150h134zM736 78h593v-78h-677v148h-426l-130 -148h-102l616 700h57h652v-78h-583v-257h494v-78h-494v-209zM292 224h360v410z" />
    <glyph glyph-name="E.ss01" horiz-adv-x="850" 
d="M200 78h593v-78h-677v700h667v-78h-583v-257h494v-78h-494v-209z" />
    <glyph glyph-name="Eacute.ss01" horiz-adv-x="850" 
d="M657 930l-221 -150h-78l165 150h134zM200 78h593v-78h-677v700h667v-78h-583v-257h494v-78h-494v-209z" />
    <glyph glyph-name="Ebreve.ss01" horiz-adv-x="850" 
d="M618 930c0 -56 -41 -155 -172 -155c-132 0 -172 99 -172 155h69c2 -45 37 -91 103 -91c65 0 101 46 102 91h70zM200 78h593v-78h-677v700h667v-78h-583v-257h494v-78h-494v-209z" />
    <glyph glyph-name="Ecaron.ss01" horiz-adv-x="850" 
d="M243 930l156 -150h91l156 150h-95l-107 -103l-106 103h-95zM200 78h593v-78h-677v700h667v-78h-583v-257h494v-78h-494v-209z" />
    <glyph glyph-name="Ecircumflex.ss01" horiz-adv-x="850" 
d="M243 780h95l106 103l107 -103h95l-156 150h-91zM200 78h593v-78h-677v700h667v-78h-583v-257h494v-78h-494v-209z" />
    <glyph glyph-name="Edieresis.ss01" horiz-adv-x="850" 
d="M315 793c-31 0 -53 23 -53 48c0 26 22 49 53 49c30 0 52 -23 52 -49c0 -25 -22 -48 -52 -48zM575 793c-31 0 -53 23 -53 48c0 26 22 49 53 49c30 0 52 -23 52 -49c0 -25 -22 -48 -52 -48zM200 78h593v-78h-677v700h667v-78h-583v-257h494v-78h-494v-209z" />
    <glyph glyph-name="Edotaccent.ss01" horiz-adv-x="850" 
d="M445 793c-29 0 -48 17 -48 42c0 26 19 43 48 43c28 0 47 -17 47 -43c0 -25 -19 -42 -47 -42zM200 78h593v-78h-677v700h667v-78h-583v-257h494v-78h-494v-209z" />
    <glyph glyph-name="Egrave.ss01" horiz-adv-x="850" 
d="M234 930h134l165 -150h-78zM200 78h593v-78h-677v700h667v-78h-583v-257h494v-78h-494v-209z" />
    <glyph glyph-name="Emacron.ss01" horiz-adv-x="850" 
d="M252 874h386v-69h-386v69zM200 78h593v-78h-677v700h667v-78h-583v-257h494v-78h-494v-209z" />
    <glyph glyph-name="Eogonek.ss01" horiz-adv-x="850" 
d="M826 -178l20 -28c-20 -17 -56 -39 -111 -39c-65 0 -132 30 -132 102c0 65 47 118 116 143h-603v700h667v-78h-583v-257h494v-78h-494v-209h593v-78h-1c-64 -23 -120 -75 -120 -135c0 -48 36 -67 77 -67c34 0 60 13 77 24z" />
    <glyph glyph-name="F.ss01" horiz-adv-x="818" 
d="M782 622h-582v-275h494v-78h-494v-269h-84v700h666v-78z" />
    <glyph glyph-name="G.ss01" horiz-adv-x="948" 
d="M887 334v-164c-58 -109 -198 -191 -392 -191c-271 0 -431 143 -431 371s160 371 428 371c171 0 286 -64 356 -146l-73 -51c-63 79 -156 119 -283 119c-209 0 -342 -99 -342 -293s134 -293 348 -293c139 0 253 41 305 138v61h-318v78h402z" />
    <glyph glyph-name="Gbreve.ss01" horiz-adv-x="948" 
d="M665 931c0 -56 -41 -155 -172 -155c-132 0 -172 99 -172 155h69c2 -45 37 -91 103 -91c65 0 101 46 102 91h70zM887 334v-164c-58 -109 -198 -191 -392 -191c-271 0 -431 143 -431 371s160 371 428 371c171 0 286 -64 356 -146l-73 -51c-63 79 -156 119 -283 119
c-209 0 -342 -99 -342 -293s134 -293 348 -293c139 0 253 41 305 138v61h-318v78h402z" />
    <glyph glyph-name="Gcircumflex.ss01" horiz-adv-x="948" 
d="M290 781h95l106 103l107 -103h95l-156 150h-91zM887 334v-164c-58 -109 -198 -191 -392 -191c-271 0 -431 143 -431 371s160 371 428 371c171 0 286 -64 356 -146l-73 -51c-63 79 -156 119 -283 119c-209 0 -342 -99 -342 -293s134 -293 348 -293c139 0 253 41 305 138
v61h-318v78h402z" />
    <glyph glyph-name="Gcommaaccent.ss01" horiz-adv-x="948" 
d="M887 334v-164c-58 -109 -198 -191 -392 -191c-271 0 -431 143 -431 371s160 371 428 371c171 0 286 -64 356 -146l-73 -51c-63 79 -156 119 -283 119c-209 0 -342 -99 -342 -293s134 -293 348 -293c139 0 253 41 305 138v61h-318v78h402zM493 -58c36 0 62 -25 62 -64
c0 -53 -30 -128 -82 -177l-27 23c40 46 55 75 60 111c-3 -3 -10 -4 -16 -4c-31 0 -56 23 -56 56c0 31 25 55 59 55z" />
    <glyph glyph-name="Gdotaccent.ss01" horiz-adv-x="948" 
d="M492 794c-29 0 -48 17 -48 42c0 26 19 43 48 43c28 0 47 -17 47 -43c0 -25 -19 -42 -47 -42zM887 334v-164c-58 -109 -198 -191 -392 -191c-271 0 -431 143 -431 371s160 371 428 371c171 0 286 -64 356 -146l-73 -51c-63 79 -156 119 -283 119
c-209 0 -342 -99 -342 -293s134 -293 348 -293c139 0 253 41 305 138v61h-318v78h402z" />
    <glyph glyph-name="H.ss01" horiz-adv-x="976" 
d="M776 700h84v-700h-84v275h-576v-275h-84v700h84v-345h576v345z" />
    <glyph glyph-name="Hbar.ss01" horiz-adv-x="1001" 
d="M981 558v-62h-108v-496h-84v275h-576v-275h-84v496h-109v62h109v142h84v-142h576v142h84v-142h108zM789 355v141h-576v-141h576z" />
    <glyph glyph-name="Hcircumflex.ss01" horiz-adv-x="976" 
d="M286 781h95l106 103l107 -103h95l-156 150h-91zM776 700h84v-700h-84v275h-576v-275h-84v700h84v-345h576v345z" />
    <glyph glyph-name="OE.ss01" horiz-adv-x="1474" 
d="M824 78h593v-78h-677h-256c-256 0 -420 135 -420 350s164 350 420 350h340h583v-78h-583v-257h494v-78h-494v-209zM740 78v544h-250c-199 0 -340 -89 -340 -272s141 -272 340 -272h250z" />
    <glyph glyph-name="P.ss01" horiz-adv-x="895" 
d="M584 700c161 0 268 -102 268 -242s-107 -242 -268 -242h-384v-216h-84v700h468zM578 294c114 0 188 66 188 164s-74 164 -188 164h-378v-328h378z" />
    <glyph glyph-name="Thorn.ss01" horiz-adv-x="895" 
d="M585 599c159 0 267 -103 267 -242c0 -141 -108 -242 -267 -242h-385v-115h-84v700h84v-101h385zM579 189c114 0 187 67 187 168s-73 168 -187 168h-379v-336h379z" />
    <glyph glyph-name="Q.ss01" horiz-adv-x="980" 
d="M916 350c0 -216 -144 -356 -385 -370v-130h-82v130c-241 14 -385 154 -385 370c0 228 160 371 426 371s426 -143 426 -371zM531 58c183 14 299 117 299 292c0 188 -134 293 -340 293s-340 -105 -340 -293c0 -175 116 -278 299 -292v155h82v-155z" />
    <glyph glyph-name="R.ss01" horiz-adv-x="925" 
d="M871 0h-110l-198 228h-362v-228h-85v700h470c156 0 268 -98 268 -236c0 -114 -77 -201 -191 -228zM200 306h380c113 0 188 63 188 158s-75 158 -188 158h-380v-316z" />
    <glyph glyph-name="Racute.ss01" horiz-adv-x="925" 
d="M659 930l-221 -150h-78l165 150h134zM871 0h-110l-198 228h-362v-228h-85v700h470c156 0 268 -98 268 -236c0 -114 -77 -201 -191 -228zM200 306h380c113 0 188 63 188 158s-75 158 -188 158h-380v-316z" />
    <glyph glyph-name="Rcaron.ss01" horiz-adv-x="925" 
d="M492 780h-91l-156 150h95l106 -103l107 103h95zM871 0h-110l-198 228h-362v-228h-85v700h470c156 0 268 -98 268 -236c0 -114 -77 -201 -191 -228zM200 306h380c113 0 188 63 188 158s-75 158 -188 158h-380v-316z" />
    <glyph glyph-name="Rcommaaccent.ss01" horiz-adv-x="925" 
d="M871 0h-110l-198 228h-362v-228h-85v700h470c156 0 268 -98 268 -236c0 -114 -77 -201 -191 -228zM200 306h380c113 0 188 63 188 158s-75 158 -188 158h-380v-316zM469 -58c36 0 62 -25 62 -64c0 -53 -30 -128 -82 -177l-27 23c40 46 55 75 60 111c-3 -3 -10 -4 -16 -4
c-31 0 -56 23 -56 56c0 31 25 55 59 55z" />
    <glyph glyph-name="a.sc.ss01" horiz-adv-x="827" 
d="M712 0l-77 136h-445l-77 -136h-93l347 605h94l346 -605h-95zM233 211h360l-180 317z" />
    <glyph glyph-name="aacute.sc.ss01" horiz-adv-x="827" 
d="M626 835l-221 -150h-78l165 150h134zM712 0l-77 136h-445l-77 -136h-93l347 605h94l346 -605h-95zM233 211h360l-180 317z" />
    <glyph glyph-name="abreve.sc.ss01" horiz-adv-x="827" 
d="M415 680c-132 0 -172 99 -172 155h69c2 -45 37 -91 103 -91c65 0 101 46 102 91h70c0 -56 -41 -155 -172 -155zM712 0l-77 136h-445l-77 -136h-93l347 605h94l346 -605h-95zM233 211h360l-180 317z" />
    <glyph glyph-name="acircumflex.sc.ss01" horiz-adv-x="827" 
d="M413 788l-106 -103h-95l156 150h91l156 -150h-95zM712 0l-77 136h-445l-77 -136h-93l347 605h94l346 -605h-95zM233 211h360l-180 317z" />
    <glyph glyph-name="adieresis.sc.ss01" horiz-adv-x="827" 
d="M284 698c-31 0 -53 23 -53 48c0 26 22 49 53 49c30 0 52 -23 52 -49c0 -25 -22 -48 -52 -48zM544 698c-31 0 -53 23 -53 48c0 26 22 49 53 49c30 0 52 -23 52 -49c0 -25 -22 -48 -52 -48zM712 0l-77 136h-445l-77 -136h-93l347 605h94l346 -605h-95zM233 211h360
l-180 317z" />
    <glyph glyph-name="agrave.sc.ss01" horiz-adv-x="827" 
d="M502 685h-78l-221 150h134zM712 0l-77 136h-445l-77 -136h-93l347 605h94l346 -605h-95zM233 211h360l-180 317z" />
    <glyph glyph-name="amacron.sc.ss01" horiz-adv-x="827" 
d="M607 779v-69h-386v69h386zM712 0l-77 136h-445l-77 -136h-93l347 605h94l346 -605h-95zM233 211h360l-180 317z" />
    <glyph glyph-name="aogonek.sc.ss01" horiz-adv-x="827" 
d="M840 -178l20 -28c-20 -17 -56 -39 -111 -39c-65 0 -132 30 -132 102c0 65 47 118 116 143h-21l-77 136h-445l-77 -136h-93l347 605h94l346 -605h-1c-64 -23 -120 -75 -120 -135c0 -48 36 -67 77 -67c34 0 60 13 77 24zM233 211h360l-180 317z" />
    <glyph glyph-name="aring.sc.ss01" horiz-adv-x="827" 
d="M414 678c-70 0 -129 35 -129 107c0 71 59 107 129 107s129 -36 129 -107c0 -72 -59 -107 -129 -107zM415 846c-42 0 -70 -21 -70 -61s28 -61 70 -61c41 0 70 21 70 61s-29 61 -70 61zM712 0l-77 136h-445l-77 -136h-93l347 605h94l346 -605h-95zM233 211h360l-180 317z
" />
    <glyph glyph-name="aringacute.sc.ss01" horiz-adv-x="827" 
d="M414 678c-70 0 -129 35 -129 107c0 35 15 62 38 80l128 126h94l-125 -99c68 -2 123 -38 123 -107c0 -72 -59 -107 -129 -107zM485 785c0 40 -29 61 -70 61c-42 0 -70 -21 -70 -61s28 -61 70 -61c41 0 70 21 70 61zM712 0l-77 136h-445l-77 -136h-93l347 605h94l346 -605
h-95zM233 211h360l-180 317z" />
    <glyph glyph-name="atilde.sc.ss01" horiz-adv-x="827" 
d="M310 763c-53 0 -77 -27 -94 -52l-49 32c20 38 65 85 147 85c88 0 127 -57 204 -57c53 0 76 27 94 52l49 -32c-20 -38 -66 -85 -147 -85c-89 0 -128 57 -204 57zM712 0l-77 136h-445l-77 -136h-93l347 605h94l346 -605h-95zM233 211h360l-180 317z" />
    <glyph glyph-name="ae.sc.ss01" horiz-adv-x="1272" 
d="M679 76h533v-76h-617v148h-359l-136 -148h-102l554 605h57h594v-76h-524v-203h433v-75h-433v-175zM306 224h289v315z" />
    <glyph glyph-name="aeacute.sc.ss01" horiz-adv-x="1272" 
d="M1073 835l-221 -150h-78l165 150h134zM679 76h533v-76h-617v148h-359l-136 -148h-102l554 605h57h594v-76h-524v-184h433v-75h-433v-194zM306 224h289v315z" />
    <glyph glyph-name="e.sc.ss01" horiz-adv-x="787" 
d="M194 76h533v-76h-617v605h608v-76h-524v-203h442v-76h-442v-174z" />
    <glyph glyph-name="eacute.sc.ss01" horiz-adv-x="787" 
d="M622 835l-221 -150h-78l165 150h134zM194 76h533v-76h-617v605h608v-76h-524v-203h442v-76h-442v-174z" />
    <glyph glyph-name="ebreve.sc.ss01" horiz-adv-x="787" 
d="M583 835c0 -56 -41 -155 -172 -155c-132 0 -172 99 -172 155h69c2 -45 37 -91 103 -91c65 0 101 46 102 91h70zM194 76h533v-76h-617v605h608v-76h-524v-203h442v-76h-442v-174z" />
    <glyph glyph-name="ecaron.sc.ss01" horiz-adv-x="787" 
d="M208 835l156 -150h91l156 150h-95l-107 -103l-106 103h-95zM194 76h533v-76h-617v605h608v-76h-524v-203h442v-76h-442v-174z" />
    <glyph glyph-name="ecircumflex.sc.ss01" horiz-adv-x="787" 
d="M208 685h95l106 103l107 -103h95l-156 150h-91zM194 76h533v-76h-617v605h608v-76h-524v-203h442v-76h-442v-174z" />
    <glyph glyph-name="edieresis.sc.ss01" horiz-adv-x="787" 
d="M280 698c-31 0 -53 23 -53 48c0 26 22 49 53 49c30 0 52 -23 52 -49c0 -25 -22 -48 -52 -48zM540 698c-31 0 -53 23 -53 48c0 26 22 49 53 49c30 0 52 -23 52 -49c0 -25 -22 -48 -52 -48zM194 76h533v-76h-617v605h608v-76h-524v-203h442v-76h-442v-174z" />
    <glyph glyph-name="edotaccent.sc.ss01" horiz-adv-x="787" 
d="M410 698c-29 0 -48 17 -48 42c0 26 19 43 48 43c28 0 47 -17 47 -43c0 -25 -19 -42 -47 -42zM194 76h533v-76h-617v605h608v-76h-524v-203h442v-76h-442v-174z" />
    <glyph glyph-name="egrave.sc.ss01" horiz-adv-x="787" 
d="M199 835h134l165 -150h-78zM194 76h533v-76h-617v605h608v-76h-524v-203h442v-76h-442v-174z" />
    <glyph glyph-name="emacron.sc.ss01" horiz-adv-x="787" 
d="M217 779h386v-69h-386v69zM194 76h533v-76h-617v605h608v-76h-524v-203h442v-76h-442v-174z" />
    <glyph glyph-name="eogonek.sc.ss01" horiz-adv-x="787" 
d="M759 -178l20 -28c-20 -17 -56 -39 -111 -39c-65 0 -132 30 -132 102c0 65 47 118 116 143h-542v605h608v-76h-524v-203h442v-76h-442v-174h533v-76h-2c-64 -23 -120 -75 -120 -135c0 -48 36 -67 77 -67c34 0 60 13 77 24z" />
    <glyph glyph-name="f.sc.ss01" horiz-adv-x="755" 
d="M717 529h-523v-226h442v-76h-442v-227h-84v605h607v-76z" />
    <glyph glyph-name="fi.sc.ss01" horiz-adv-x="1059" 
d="M717 529h-523v-226h442v-76h-442v-227h-84v605h607v-76zM949 0h-84v605h84v-605z" />
    <glyph glyph-name="fl.sc.ss01" horiz-adv-x="1458" 
d="M717 529h-523v-226h442v-76h-442v-227h-84v605h607v-76zM949 78h481v-78h-565v605h84v-527z" />
    <glyph glyph-name="g.sc.ss01" horiz-adv-x="873" 
d="M810 296v-150c-52 -95 -181 -166 -356 -166c-246 0 -392 125 -392 322c0 198 146 323 392 323c153 0 260 -51 324 -124l-70 -52c-63 69 -143 99 -251 99c-191 0 -309 -83 -309 -246c0 -162 119 -245 309 -245c123 0 224 33 269 114v49h-281v76h365z" />
    <glyph glyph-name="gbreve.sc.ss01" horiz-adv-x="873" 
d="M625 836c0 -56 -41 -155 -172 -155c-132 0 -172 99 -172 155h69c2 -45 37 -91 103 -91c65 0 101 46 102 91h70zM810 296v-150c-52 -95 -181 -166 -356 -166c-246 0 -392 125 -392 322c0 198 146 323 392 323c153 0 260 -51 324 -124l-70 -52c-63 69 -143 99 -251 99
c-191 0 -309 -83 -309 -246c0 -162 119 -245 309 -245c123 0 224 33 269 114v49h-281v76h365z" />
    <glyph glyph-name="gcircumflex.sc.ss01" horiz-adv-x="873" 
d="M250 686h95l106 103l107 -103h95l-156 150h-91zM810 296v-150c-52 -95 -181 -166 -356 -166c-246 0 -392 125 -392 322c0 198 146 323 392 323c153 0 260 -51 324 -124l-70 -52c-63 69 -143 99 -251 99c-191 0 -309 -83 -309 -246c0 -162 119 -245 309 -245
c123 0 224 33 269 114v49h-281v76h365z" />
    <glyph glyph-name="gcommaaccent.sc.ss01" horiz-adv-x="873" 
d="M810 296v-150c-52 -95 -181 -166 -356 -166c-246 0 -392 125 -392 322c0 198 146 323 392 323c153 0 260 -51 324 -124l-70 -52c-63 69 -143 99 -251 99c-191 0 -309 -83 -309 -246c0 -162 119 -245 309 -245c123 0 224 33 269 114v49h-281v76h365zM453 -58
c36 0 62 -25 62 -64c0 -53 -30 -128 -82 -177l-27 23c40 46 55 75 60 111c-3 -3 -10 -4 -16 -4c-31 0 -56 23 -56 56c0 31 25 55 59 55z" />
    <glyph glyph-name="gdotaccent.sc.ss01" horiz-adv-x="873" 
d="M452 699c-29 0 -48 17 -48 42c0 26 19 43 48 43c28 0 47 -17 47 -43c0 -25 -19 -42 -47 -42zM810 296v-150c-52 -95 -181 -166 -356 -166c-246 0 -392 125 -392 322c0 198 146 323 392 323c153 0 260 -51 324 -124l-70 -52c-63 69 -143 99 -251 99
c-191 0 -309 -83 -309 -246c0 -162 119 -245 309 -245c123 0 224 33 269 114v49h-281v76h365z" />
    <glyph glyph-name="h.sc.ss01" 
d="M705 605h84v-605h-84v243h-511v-243h-84v605h84v-282h511v282z" />
    <glyph glyph-name="hbar.sc.ss01" horiz-adv-x="931" 
d="M903 495v-62h-98v-433h-84v243h-511v-243h-84v433h-98v62h98v110h84v-110h511v110h84v-110h98zM721 323v110h-511v-110h511z" />
    <glyph glyph-name="hcircumflex.sc.ss01" 
d="M248 686h95l106 103l107 -103h95l-156 150h-91zM705 605h84v-605h-84v243h-511v-243h-84v605h84v-282h511v282z" />
    <glyph glyph-name="oe.sc.ss01" horiz-adv-x="1348" 
d="M755 76h533v-76h-617h-227c-233 0 -382 116 -382 302c0 187 149 303 382 303h311h524v-76h-524v-203h442v-76h-442v-174zM671 78v449h-221c-177 0 -302 -72 -302 -225c0 -152 125 -224 302 -224h221z" />
    <glyph glyph-name="p.sc.ss01" horiz-adv-x="825" 
d="M534 605c148 0 247 -86 247 -209s-99 -209 -247 -209h-340v-187h-84v605h424zM528 261c101 0 167 49 167 135c0 85 -66 135 -167 135h-334v-270h334z" />
    <glyph glyph-name="thorn.sc.ss01" horiz-adv-x="825" 
d="M527 514c154 0 254 -83 254 -206c0 -124 -100 -206 -254 -206h-333v-102h-84v605h84v-91h333zM521 176c109 0 174 48 174 132c0 85 -65 132 -174 132h-327v-264h327z" />
    <glyph glyph-name="q.sc.ss01" 
d="M837 302c0 -186 -130 -308 -347 -321v-111h-81v111c-217 14 -347 135 -347 321c0 198 146 323 388 323c241 0 387 -125 387 -323zM490 59c159 13 261 99 261 243c0 157 -119 245 -301 245c-183 0 -302 -88 -302 -245c0 -144 101 -230 261 -242v133h81v-134z" />
    <glyph glyph-name="r.sc.ss01" horiz-adv-x="855" 
d="M803 0h-110l-179 197h-320v-197h-84v605h428c141 0 245 -83 245 -204c0 -99 -69 -172 -170 -196zM193 271h339c98 0 165 47 165 130s-67 130 -165 130h-339v-260z" />
    <glyph glyph-name="racute.sc.ss01" horiz-adv-x="855" 
d="M624 835l-221 -150h-78l165 150h134zM803 0h-110l-179 197h-320v-197h-84v605h428c141 0 245 -83 245 -204c0 -99 -69 -172 -170 -196zM193 271h339c98 0 165 47 165 130s-67 130 -165 130h-339v-260z" />
    <glyph glyph-name="rcaron.sc.ss01" horiz-adv-x="855" 
d="M457 685h-91l-156 150h95l106 -103l107 103h95zM803 0h-110l-179 197h-320v-197h-84v605h428c141 0 245 -83 245 -204c0 -99 -69 -172 -170 -196zM193 271h339c98 0 165 47 165 130s-67 130 -165 130h-339v-260z" />
    <glyph glyph-name="rcommaaccent.sc.ss01" horiz-adv-x="855" 
d="M803 0h-110l-179 197h-320v-197h-84v605h428c141 0 245 -83 245 -204c0 -99 -69 -172 -170 -196zM193 271h339c98 0 165 47 165 130s-67 130 -165 130h-339v-260zM432 -58c36 0 62 -25 62 -64c0 -53 -30 -128 -82 -177l-27 23c40 46 55 75 60 111c-3 -3 -10 -4 -16 -4
c-31 0 -56 23 -56 56c0 31 25 55 59 55z" />
    <glyph glyph-name="uni20A8.ss01" horiz-adv-x="900" 
d="M848 700v-65h-194c40 -33 65 -77 72 -130h122v-65h-123c-14 -97 -87 -166 -195 -189l220 -251h-94l-211 243h-362v65h363c120 0 192 48 206 132h-569v65h569c-14 83 -87 130 -206 130h-363v65h765z" />
    <glyph glyph-name="registered.ss01" horiz-adv-x="579" 
d="M289 710c130 0 226 -81 226 -206s-96 -206 -226 -206s-225 81 -225 206s95 206 225 206zM289 321c118 0 200 70 200 183s-82 183 -200 183c-119 0 -200 -70 -200 -183s81 -183 200 -183zM410 539c0 -35 -21 -61 -56 -71l61 -68h-45l-57 64h-92v-64h-37v213h140
c52 0 86 -30 86 -74zM220 494h94c36 0 57 15 57 45c0 31 -21 44 -57 44h-94v-89z" />
    <glyph glyph-name="uni2117.ss01" horiz-adv-x="978" 
d="M489 -21c-265 0 -425 147 -425 371s160 371 425 371s425 -147 425 -371s-160 -371 -425 -371zM489 14c235 0 387 121 387 336s-152 336 -387 336s-388 -121 -388 -336s153 -336 388 -336zM576 588c117 0 200 -63 200 -164c0 -102 -83 -164 -200 -164h-246v-146h-68v474
h314zM571 320c84 0 137 34 137 104c0 69 -53 104 -137 104h-241v-208h241z" />
    <glyph glyph-name="registered.case.ss01" horiz-adv-x="978" 
d="M489 721c265 0 425 -147 425 -371s-160 -371 -425 -371s-425 147 -425 371s160 371 425 371zM489 14c235 0 387 121 387 336s-152 336 -387 336s-388 -121 -388 -336s153 -336 388 -336zM760 426c0 -78 -48 -132 -123 -153l133 -159h-83l-119 149h-8h-246v-149h-68v474
h314c117 0 200 -61 200 -162zM314 526v-201h242c84 0 135 31 135 100c0 68 -51 101 -135 101h-242z" />
    <glyph glyph-name="uni2117.sc.001" horiz-adv-x="895" 
d="M447 -18c-240 0 -385 127 -385 320c0 194 145 321 385 321c241 0 386 -127 386 -321c0 -193 -145 -320 -386 -320zM447 10c213 0 356 106 356 292c0 187 -143 293 -356 293c-212 0 -354 -106 -354 -293c0 -186 142 -292 354 -292zM526 508c107 0 184 -56 184 -144
c0 -90 -77 -144 -184 -144h-218v-122h-66v410h284zM521 278c75 0 121 26 121 86c0 59 -46 86 -121 86h-213v-172h213z" />
    <glyph glyph-name="registered.sc.ss01" horiz-adv-x="895" 
d="M447 625c241 0 386 -129 386 -323c0 -193 -145 -322 -386 -322c-240 0 -385 129 -385 322c0 194 145 323 385 323zM447 8c213 0 356 108 356 294c0 187 -143 295 -356 295c-212 0 -354 -108 -354 -295c0 -186 142 -294 354 -294zM695 364c0 -67 -43 -115 -110 -134
l118 -132h-82l-104 122h-5h-219v-122h-66v410h285c107 0 183 -56 183 -144zM293 450v-172h215c74 0 119 31 119 86c0 50 -45 86 -119 86h-215z" />
    <glyph glyph-name="uni20A8.sc.ss01" horiz-adv-x="832" 
d="M777 605v-68h-169c31 -28 51 -64 58 -105h111v-68h-111c-13 -79 -73 -139 -162 -163l185 -201h-97l-172 190h-6h-331v68h327c103 0 165 41 181 106h-508v68h508c-16 65 -78 105 -181 105h-327v68h694z" />
    </font>
</defs>
</svg>
