<?xml version="1.0" standalone="no"?>
<!DOCTYPE svg PUBLIC "-//W3C//DTD SVG 1.1//EN" "http://www.w3.org/Graphics/SVG/1.1/DTD/svg11.dtd" >
<svg xmlns="http://www.w3.org/2000/svg" xmlns:xlink="http://www.w3.org/1999/xlink" version="1.1">
<metadata>
Created by FontForge 20170924 at Tue Oct 13 11:57:08 2015
 By www-data
Copyright \(c\) 2015 by Mattox Shuler. All rights reserved.
</metadata>
<defs>
<font id="Termina-Demi" horiz-adv-x="799" >
  <font-face 
    font-family="Termina-Demi"
    font-weight="600"
    font-stretch="normal"
    units-per-em="1000"
    panose-1="0 0 7 0 0 0 0 0 0 0"
    ascent="800"
    descent="-200"
    x-height="551"
    cap-height="700"
    bbox="-411 -376 1583 1092"
    underline-thickness="50"
    underline-position="-100"
    stemh="140"
    stemv="160"
    unicode-range="U+0020-FB02"
  />
<missing-glyph horiz-adv-x="505" 
d="M414 770v-1010h-320v1010h320zM336 702h-166v-33h65v-37h-66v-34h167v34h-66v37h66v33zM270 572h-101v-105h167v34h-66v71zM235 538v-37h-33v37h33zM336 440h-167v-34h66v-37h-66v-33h101v70h66v34zM336 379h-33v-67h-134v-34h167v101zM336 256h-101v-57h35v24h33v-48
h-101v81h-33v-114h167v114zM336 81h-167v-114h167v114zM303 48v-48h-101v48h101zM336 -56h-167v-34h70l-70 -47v-33h167v33h-103l71 47h32v34z" />
    <glyph glyph-name="fi" unicode="fi" horiz-adv-x="836" 
d="M679 617c-55 0 -94 33 -94 78c0 47 39 79 94 79c54 0 92 -32 92 -79c0 -45 -38 -78 -92 -78zM373 657c-61 0 -100 -21 -100 -75v-31h231v-116h-227v-435h-155v435h-102v116h102v13c0 135 95 197 217 197c57 0 126 -14 171 -37l-31 -95c-37 20 -72 28 -106 28zM603 0v551
h155v-551h-155z" />
    <glyph glyph-name="fl" unicode="fl" horiz-adv-x="840" 
d="M373 657c-61 0 -100 -21 -100 -75v-31h231v-116h-227v-435h-155v435h-102v116h102v13c0 135 95 197 217 197c57 0 126 -14 171 -37l-31 -95c-37 20 -72 28 -106 28zM603 740h155v-740h-155v740z" />
    <glyph glyph-name=".notdef" horiz-adv-x="505" 
d="M414 770v-1010h-320v1010h320zM336 702h-166v-33h65v-37h-66v-34h167v34h-66v37h66v33zM270 572h-101v-105h167v34h-66v71zM235 538v-37h-33v37h33zM336 440h-167v-34h66v-37h-66v-33h101v70h66v34zM336 379h-33v-67h-134v-34h167v101zM336 256h-101v-57h35v24h33v-48
h-101v81h-33v-114h167v114zM336 81h-167v-114h167v114zM303 48v-48h-101v48h101zM336 -56h-167v-34h70l-70 -47v-33h167v33h-103l71 47h32v34z" />
    <glyph glyph-name="A" unicode="A" horiz-adv-x="920" 
d="M746 0l-75 148h-423l-75 -148h-171l371 700h175l371 -700h-173zM314 278h290l-145 285z" />
    <glyph glyph-name="Aacute" unicode="&#xc1;" horiz-adv-x="920" 
d="M707 941l-232 -161h-120l147 161h205zM746 0l-75 148h-423l-75 -148h-171l371 700h175l371 -700h-173zM314 278h290l-145 285z" />
    <glyph glyph-name="Abreve" unicode="&#x102;" horiz-adv-x="920" 
d="M461 773c-145 0 -191 107 -191 168h100c3 -38 34 -77 91 -77c56 0 87 39 90 77h100c0 -61 -46 -168 -190 -168zM746 0l-75 148h-423l-75 -148h-171l371 700h175l371 -700h-173zM314 278h290l-145 285z" />
    <glyph glyph-name="Acircumflex" unicode="&#xc2;" horiz-adv-x="920" 
d="M459 874l-89 -94h-144l153 161h163l153 -161h-145zM746 0l-75 148h-423l-75 -148h-171l371 700h175l371 -700h-173zM314 278h290l-145 285z" />
    <glyph glyph-name="Adieresis" unicode="&#xc4;" horiz-adv-x="920" 
d="M324 784c-46 0 -79 29 -79 68c0 41 33 68 79 68c45 0 79 -27 79 -68c0 -39 -34 -68 -79 -68zM597 784c-46 0 -79 29 -79 68c0 41 33 68 79 68c45 0 79 -27 79 -68c0 -39 -34 -68 -79 -68zM746 0l-75 148h-423l-75 -148h-171l371 700h175l371 -700h-173zM314 278h290
l-145 285z" />
    <glyph glyph-name="Agrave" unicode="&#xc0;" horiz-adv-x="920" 
d="M566 780h-120l-232 161h205zM746 0l-75 148h-423l-75 -148h-171l371 700h175l371 -700h-173zM314 278h290l-145 285z" />
    <glyph glyph-name="Amacron" unicode="&#x100;" horiz-adv-x="920" 
d="M678 908v-110h-436v110h436zM746 0l-75 148h-423l-75 -148h-171l371 700h175l371 -700h-173zM314 278h290l-145 285z" />
    <glyph glyph-name="Aogonek" unicode="&#x104;" horiz-adv-x="920" 
d="M944 -161l28 -36c-20 -24 -61 -53 -130 -53c-75 0 -150 35 -150 113c0 59 41 112 115 137h-61l-75 148h-423l-75 -148h-171l371 700h175l371 -700h-2c-58 -22 -115 -71 -115 -126c0 -40 32 -61 71 -61c29 0 54 10 71 26zM314 278h290l-145 285z" />
    <glyph glyph-name="Aring" unicode="&#xc5;" horiz-adv-x="920" 
d="M460 771c-87 0 -150 39 -150 115c0 75 63 117 150 117s151 -42 151 -117c0 -76 -64 -115 -151 -115zM460 940c-36 0 -60 -20 -60 -54c0 -35 24 -55 60 -55s61 20 61 55c0 34 -25 54 -61 54zM746 0l-75 148h-423l-75 -148h-171l371 700h175l371 -700h-173zM314 278h290
l-145 285z" />
    <glyph glyph-name="Aringacute" unicode="&#x1fa;" horiz-adv-x="920" 
d="M460 771c-87 0 -150 39 -150 115c0 34 13 62 36 81l104 125h154l-116 -91c73 -8 123 -48 123 -115c0 -76 -64 -115 -151 -115zM521 886c0 34 -25 54 -61 54s-60 -20 -60 -54c0 -35 24 -55 60 -55s61 20 61 55zM746 0l-75 148h-423l-75 -148h-171l371 700h175l371 -700
h-173zM314 278h290l-145 285z" />
    <glyph glyph-name="Atilde" unicode="&#xc3;" horiz-adv-x="920" 
d="M355 835c-49 0 -74 -19 -99 -46l-72 90c30 38 91 78 164 78c86 0 136 -55 218 -55c48 0 73 18 97 46l74 -91c-31 -38 -92 -77 -164 -77c-86 0 -139 55 -218 55zM746 0l-75 148h-423l-75 -148h-171l371 700h175l371 -700h-173zM314 278h290l-145 285z" />
    <glyph glyph-name="AE" unicode="&#xc6;" horiz-adv-x="1422" 
d="M816 134h562v-134h-721v153h-354l-129 -153h-188l605 700h83h694v-134h-552v-144h461v-134h-461v-154zM405 273h252v299z" />
    <glyph glyph-name="AEacute" unicode="&#x1fc;" horiz-adv-x="1422" 
d="M1179 941l-232 -161h-120l147 161h205zM816 134h562v-134h-721v153h-354l-129 -153h-188l605 700h83h694v-134h-552v-144h461v-134h-461v-154zM405 273h252v299z" />
    <glyph glyph-name="B" unicode="B" horiz-adv-x="934" 
d="M693 366c110 -6 196 -63 196 -174c0 -124 -106 -192 -274 -192h-521v700h481c168 0 274 -66 274 -179c0 -80 -52 -148 -156 -155zM252 574v-158h297c87 0 141 14 141 79c0 64 -54 79 -141 79h-297zM582 126c90 0 143 14 143 84c0 71 -53 84 -143 84h-330v-168h330z" />
    <glyph glyph-name="C" unicode="C" horiz-adv-x="893" 
d="M488 116c104 0 181 34 233 114l146 -73c-66 -99 -201 -179 -384 -179c-263 0 -434 139 -434 372s171 372 441 372c176 0 311 -81 375 -178l-147 -73c-50 78 -126 113 -230 113c-166 0 -276 -80 -276 -234s110 -234 276 -234z" />
    <glyph glyph-name="Cacute" unicode="&#x106;" horiz-adv-x="893" 
d="M724 942l-232 -161h-120l147 161h205zM488 116c104 0 181 34 233 114l146 -73c-66 -99 -201 -179 -384 -179c-263 0 -434 139 -434 372s171 372 441 372c176 0 311 -81 375 -178l-147 -73c-50 78 -126 113 -230 113c-166 0 -276 -80 -276 -234s110 -234 276 -234z" />
    <glyph glyph-name="Ccaron" unicode="&#x10c;" horiz-adv-x="893" 
d="M243 942l153 -161h163l153 161h-144l-90 -94l-91 94h-144zM488 116c104 0 181 34 233 114l146 -73c-66 -99 -201 -179 -384 -179c-263 0 -434 139 -434 372s171 372 441 372c176 0 311 -81 375 -178l-147 -73c-50 78 -126 113 -230 113c-166 0 -276 -80 -276 -234
s110 -234 276 -234z" />
    <glyph glyph-name="Ccedilla" unicode="&#xc7;" horiz-adv-x="893" 
d="M488 116c104 0 181 34 233 114l146 -73c-66 -99 -201 -179 -384 -179c-263 0 -434 139 -434 372s171 372 441 372c176 0 311 -81 375 -178l-147 -73c-50 78 -126 113 -230 113c-166 0 -276 -80 -276 -234s110 -234 276 -234zM548 -57l-137 -161l-104 28l102 155z" />
    <glyph glyph-name="Ccircumflex" unicode="&#x108;" horiz-adv-x="893" 
d="M243 781h144l89 94l91 -94h145l-153 161h-163zM488 116c104 0 181 34 233 114l146 -73c-66 -99 -201 -179 -384 -179c-263 0 -434 139 -434 372s171 372 441 372c176 0 311 -81 375 -178l-147 -73c-50 78 -126 113 -230 113c-166 0 -276 -80 -276 -234s110 -234 276 -234
z" />
    <glyph glyph-name="Cdotaccent" unicode="&#x10a;" horiz-adv-x="893" 
d="M477 785c-45 0 -76 25 -76 64c0 41 31 66 76 66s75 -25 75 -66c0 -39 -30 -64 -75 -64zM488 116c104 0 181 34 233 114l146 -73c-66 -99 -201 -179 -384 -179c-263 0 -434 139 -434 372s171 372 441 372c176 0 311 -81 375 -178l-147 -73c-50 78 -126 113 -230 113
c-166 0 -276 -80 -276 -234s110 -234 276 -234z" />
    <glyph glyph-name="D" unicode="D" horiz-adv-x="948" 
d="M466 700c264 0 433 -132 433 -350s-169 -350 -433 -350h-372v700h372zM454 136c168 0 282 70 282 214s-114 214 -282 214h-200v-428h200z" />
    <glyph glyph-name="Eth" unicode="&#xd0;" horiz-adv-x="970" 
d="M491 700c266 0 430 -132 430 -350s-164 -350 -430 -350h-375v305h-99v104h99v291h375zM476 134c169 0 282 71 282 216s-113 216 -282 216h-201v-157h201v-104h-201v-171h201z" />
    <glyph glyph-name="Dcaron" unicode="&#x10e;" horiz-adv-x="948" 
d="M224 941l153 -161h163l153 161h-144l-90 -94l-91 94h-144zM466 700c264 0 433 -132 433 -350s-169 -350 -433 -350h-372v700h372zM454 136c168 0 282 70 282 214s-114 214 -282 214h-200v-428h200z" />
    <glyph glyph-name="Dcroat" unicode="&#x110;" horiz-adv-x="970" 
d="M491 700c266 0 430 -132 430 -350s-164 -350 -430 -350h-375v305h-99v104h99v291h375zM476 134c169 0 282 71 282 216s-113 216 -282 216h-201v-157h201v-104h-201v-171h201z" />
    <glyph glyph-name="E" unicode="E" horiz-adv-x="859" 
d="M253 134h562v-134h-721v700h711v-134h-552v-144h461v-134h-461v-154z" />
    <glyph glyph-name="Eacute" unicode="&#xc9;" horiz-adv-x="859" 
d="M692 941l-232 -161h-120l147 161h205zM253 134h562v-134h-721v700h711v-134h-552v-144h461v-134h-461v-154z" />
    <glyph glyph-name="Ebreve" unicode="&#x114;" horiz-adv-x="859" 
d="M636 941c0 -61 -46 -168 -190 -168c-145 0 -191 107 -191 168h100c3 -38 34 -77 91 -77c56 0 87 39 90 77h100zM253 134h562v-134h-721v700h711v-134h-552v-144h461v-134h-461v-154z" />
    <glyph glyph-name="Ecaron" unicode="&#x11a;" horiz-adv-x="859" 
d="M211 941l153 -161h163l153 161h-144l-90 -94l-91 94h-144zM253 134h562v-134h-721v700h711v-134h-552v-144h461v-134h-461v-154z" />
    <glyph glyph-name="Ecircumflex" unicode="&#xca;" horiz-adv-x="859" 
d="M211 780h144l89 94l91 -94h145l-153 161h-163zM253 134h562v-134h-721v700h711v-134h-552v-144h461v-134h-461v-154z" />
    <glyph glyph-name="Edieresis" unicode="&#xcb;" horiz-adv-x="859" 
d="M309 784c-46 0 -79 29 -79 68c0 41 33 68 79 68c45 0 79 -27 79 -68c0 -39 -34 -68 -79 -68zM582 784c-46 0 -79 29 -79 68c0 41 33 68 79 68c45 0 79 -27 79 -68c0 -39 -34 -68 -79 -68zM253 134h562v-134h-721v700h711v-134h-552v-144h461v-134h-461v-154z" />
    <glyph glyph-name="Edotaccent" unicode="&#x116;" horiz-adv-x="859" 
d="M445 784c-45 0 -76 25 -76 64c0 41 31 66 76 66s75 -25 75 -66c0 -39 -30 -64 -75 -64zM253 134h562v-134h-721v700h711v-134h-552v-144h461v-134h-461v-154z" />
    <glyph glyph-name="Egrave" unicode="&#xc8;" horiz-adv-x="859" 
d="M199 941h205l147 -161h-120zM253 134h562v-134h-721v700h711v-134h-552v-144h461v-134h-461v-154z" />
    <glyph glyph-name="Emacron" unicode="&#x112;" horiz-adv-x="859" 
d="M227 908h436v-110h-436v110zM253 134h562v-134h-721v700h711v-134h-552v-144h461v-134h-461v-154z" />
    <glyph glyph-name="Eogonek" unicode="&#x118;" horiz-adv-x="859" 
d="M841 -161l28 -36c-20 -24 -61 -53 -130 -53c-75 0 -150 35 -150 113c0 59 41 112 115 137h-610v700h711v-134h-552v-144h461v-134h-461v-154h562v-134h-1c-58 -22 -115 -71 -115 -126c0 -40 32 -61 71 -61c29 0 54 10 71 26z" />
    <glyph glyph-name="F" unicode="F" horiz-adv-x="828" 
d="M802 562h-548v-162h462v-138h-462v-262h-160v700h708v-138z" />
    <glyph glyph-name="G" unicode="G" horiz-adv-x="950" 
d="M899 395v-253c-70 -95 -208 -164 -398 -164c-281 0 -452 138 -452 372s171 372 452 372c172 0 294 -65 364 -133l-125 -91c-61 60 -132 88 -238 88c-183 0 -290 -80 -290 -236s110 -236 296 -236c105 0 191 23 241 83v68h-264v130h414z" />
    <glyph glyph-name="Gbreve" unicode="&#x11e;" horiz-adv-x="950" 
d="M688 942c0 -61 -46 -168 -190 -168c-145 0 -191 107 -191 168h100c3 -38 34 -77 91 -77c56 0 87 39 90 77h100zM899 395v-253c-70 -95 -208 -164 -398 -164c-281 0 -452 138 -452 372s171 372 452 372c172 0 294 -65 364 -133l-125 -91c-61 60 -132 88 -238 88
c-183 0 -290 -80 -290 -236s110 -236 296 -236c105 0 191 23 241 83v68h-264v130h414z" />
    <glyph glyph-name="Gcircumflex" unicode="&#x11c;" horiz-adv-x="950" 
d="M263 781h144l89 94l91 -94h145l-153 161h-163zM899 395v-253c-70 -95 -208 -164 -398 -164c-281 0 -452 138 -452 372s171 372 452 372c172 0 294 -65 364 -133l-125 -91c-61 60 -132 88 -238 88c-183 0 -290 -80 -290 -236s110 -236 296 -236c105 0 191 23 241 83v68
h-264v130h414z" />
    <glyph glyph-name="Gcommaaccent" unicode="&#x122;" horiz-adv-x="950" 
d="M899 395v-253c-70 -95 -208 -164 -398 -164c-281 0 -452 138 -452 372s171 372 452 372c172 0 294 -65 364 -133l-125 -91c-61 60 -132 88 -238 88c-183 0 -290 -80 -290 -236s110 -236 296 -236c105 0 191 23 241 83v68h-264v130h414zM498 -54c60 0 98 -46 98 -103
c0 -67 -42 -161 -128 -219l-35 44c46 41 73 74 83 117c-4 -4 -12 -6 -24 -6c-48 0 -87 35 -87 84c0 46 39 83 93 83z" />
    <glyph glyph-name="Gdotaccent" unicode="&#x120;" horiz-adv-x="950" 
d="M497 785c-45 0 -76 25 -76 64c0 41 31 66 76 66s75 -25 75 -66c0 -39 -30 -64 -75 -64zM899 395v-253c-70 -95 -208 -164 -398 -164c-281 0 -452 138 -452 372s171 372 452 372c172 0 294 -65 364 -133l-125 -91c-61 60 -132 88 -238 88c-183 0 -290 -80 -290 -236
s110 -236 296 -236c105 0 191 23 241 83v68h-264v130h414z" />
    <glyph glyph-name="H" unicode="H" horiz-adv-x="985" 
d="M731 700h160v-700h-160v285h-477v-285h-160v700h160v-275h477v275z" />
    <glyph glyph-name="Hbar" unicode="&#x126;" horiz-adv-x="1044" 
d="M1026 581v-72h-105v-509h-160v285h-477v-285h-160v509h-105v72h105v119h160v-119h477v119h160v-119h105zM761 425v84h-477v-84h477z" />
    <glyph glyph-name="Hcircumflex" unicode="&#x124;" horiz-adv-x="985" 
d="M258 781h144l89 94l91 -94h145l-153 161h-163zM731 700h160v-700h-160v285h-477v-285h-160v700h160v-275h477v275z" />
    <glyph glyph-name="I" unicode="I" horiz-adv-x="348" 
d="M254 0h-160v700h160v-700z" />
    <glyph glyph-name="IJ" unicode="&#x132;" horiz-adv-x="1069" 
d="M254 0h-160v700h160v-700zM462 198c41 -54 92 -80 178 -80c135 0 188 74 188 195v387h160v-399c0 -185 -112 -323 -348 -323c-138 0 -230 47 -291 125z" />
    <glyph glyph-name="Iacute" unicode="&#xcd;" horiz-adv-x="348" 
d="M421 941l-232 -161h-120l147 161h205zM254 0h-160v700h160v-700z" />
    <glyph glyph-name="Ibreve" unicode="&#x12c;" horiz-adv-x="348" 
d="M365 941c0 -61 -46 -168 -190 -168c-145 0 -191 107 -191 168h100c3 -38 34 -77 91 -77c56 0 87 39 90 77h100zM254 0h-160v700h160v-700z" />
    <glyph glyph-name="Icircumflex" unicode="&#xce;" horiz-adv-x="348" 
d="M-60 780h144l89 94l91 -94h145l-153 161h-163zM254 0h-160v700h160v-700z" />
    <glyph glyph-name="Idieresis" unicode="&#xcf;" horiz-adv-x="348" 
d="M38 784c-46 0 -79 29 -79 68c0 41 33 68 79 68c45 0 79 -27 79 -68c0 -39 -34 -68 -79 -68zM311 784c-46 0 -79 29 -79 68c0 41 33 68 79 68c45 0 79 -27 79 -68c0 -39 -34 -68 -79 -68zM254 0h-160v700h160v-700z" />
    <glyph glyph-name="Idotaccent" unicode="&#x130;" horiz-adv-x="348" 
d="M174 784c-45 0 -76 25 -76 64c0 41 31 66 76 66s75 -25 75 -66c0 -39 -30 -64 -75 -64zM254 0h-160v700h160v-700z" />
    <glyph glyph-name="Igrave" unicode="&#xcc;" horiz-adv-x="348" 
d="M-72 941h205l147 -161h-120zM254 0h-160v700h160v-700z" />
    <glyph glyph-name="Imacron" unicode="&#x12a;" horiz-adv-x="348" 
d="M-44 908h436v-110h-436v110zM254 0h-160v700h160v-700z" />
    <glyph glyph-name="Iogonek" unicode="&#x12e;" horiz-adv-x="348" 
d="M280 -161l28 -36c-20 -24 -61 -53 -130 -53c-75 0 -150 35 -150 113c0 59 41 112 115 137h-49v700h160v-700h-1c-58 -22 -115 -71 -115 -126c0 -40 32 -61 71 -61c29 0 54 10 71 26z" />
    <glyph glyph-name="Itilde" unicode="&#x128;" horiz-adv-x="348" 
d="M377 948l74 -91c-31 -38 -92 -77 -164 -77c-86 0 -139 55 -218 55c-49 0 -74 -19 -99 -46l-72 90c30 38 91 78 164 78c86 0 136 -55 218 -55c48 0 73 18 97 46zM254 0h-160v700h160v-700z" />
    <glyph glyph-name="J" unicode="J" horiz-adv-x="721" 
d="M114 198c41 -54 92 -80 178 -80c135 0 188 74 188 195v387h160v-399c0 -185 -112 -323 -348 -323c-138 0 -230 47 -291 125z" />
    <glyph glyph-name="Jcircumflex" unicode="&#x134;" horiz-adv-x="721" 
d="M325 780h144l89 94l91 -94h145l-153 161h-163zM114 198c41 -54 92 -80 178 -80c135 0 188 74 188 195v387h160v-399c0 -185 -112 -323 -348 -323c-138 0 -230 47 -291 125z" />
    <glyph glyph-name="K" unicode="K" horiz-adv-x="895" 
d="M899 0h-192l-270 329l-183 -155v-174h-160v700h160v-355l416 355h210l-326 -276z" />
    <glyph glyph-name="Kcommaaccent" unicode="&#x136;" horiz-adv-x="895" 
d="M554 424l345 -424h-192l-270 329l-183 -155v-174h-160v700h160v-355l416 355h210zM467 -54c60 0 98 -46 98 -103c0 -67 -42 -161 -128 -219l-35 44c46 41 73 74 83 117c-4 -4 -12 -6 -24 -6c-48 0 -87 35 -87 84c0 46 39 83 93 83z" />
    <glyph glyph-name="L" unicode="L" horiz-adv-x="767" 
d="M254 138h495v-138h-655v700h160v-562z" />
    <glyph glyph-name="Lacute" unicode="&#x139;" horiz-adv-x="767" 
d="M421 941l-232 -161h-120l147 161h205zM254 138h495v-138h-655v700h160v-562z" />
    <glyph glyph-name="Lcaron" unicode="&#x13d;" horiz-adv-x="767" 
d="M497 718c60 0 98 -46 98 -103c0 -67 -42 -161 -128 -219l-35 44c46 41 73 74 83 117c-4 -4 -12 -6 -24 -6c-48 0 -87 35 -87 84c0 46 39 83 93 83zM254 138h495v-138h-655v700h160v-562z" />
    <glyph glyph-name="Lcommaaccent" unicode="&#x13b;" horiz-adv-x="767" 
d="M254 138h495v-138h-655v700h160v-562zM423 -54c60 0 98 -46 98 -103c0 -67 -42 -161 -128 -219l-35 44c46 41 73 74 83 117c-4 -4 -12 -6 -24 -6c-48 0 -87 35 -87 84c0 46 39 83 93 83z" />
    <glyph glyph-name="Ldot" unicode="&#x13f;" horiz-adv-x="767" 
d="M254 127h495v-127h-655v700h160v-573zM474 327c-56 0 -95 35 -95 83c0 47 39 84 95 84c55 0 94 -37 94 -84c0 -48 -39 -83 -94 -83z" />
    <glyph glyph-name="Lslash" unicode="&#x141;" horiz-adv-x="804" 
d="M291 138h495v-138h-655v275l-105 -48v111l105 48v314h160v-240l202 93v-111l-202 -93v-211z" />
    <glyph glyph-name="M" unicode="M" horiz-adv-x="1125" 
d="M860 700h171v-700h-160v487l-307 -375h-8l-307 375v-487h-155v700h174l296 -370z" />
    <glyph glyph-name="N" unicode="N" horiz-adv-x="985" 
d="M736 700h155v-700h-140l-502 506v-506h-155v700h170l472 -480v480z" />
    <glyph glyph-name="Nacute" unicode="&#x143;" horiz-adv-x="985" 
d="M740 941l-232 -161h-120l147 161h205zM736 700h155v-700h-140l-502 506v-506h-155v700h170l472 -480v480z" />
    <glyph glyph-name="Ncaron" unicode="&#x147;" horiz-adv-x="985" 
d="M259 941l153 -161h163l153 161h-144l-90 -94l-91 94h-144zM736 700h155v-700h-140l-502 506v-506h-155v700h170l472 -480v480z" />
    <glyph glyph-name="Ncommaaccent" unicode="&#x145;" horiz-adv-x="985" 
d="M736 700h155v-700h-140l-502 506v-506h-155v700h170l472 -480v480zM494 -54c60 0 98 -46 98 -103c0 -67 -42 -161 -128 -219l-35 44c46 41 73 74 83 117c-4 -4 -12 -6 -24 -6c-48 0 -87 35 -87 84c0 46 39 83 93 83z" />
    <glyph glyph-name="Eng" unicode="&#x14a;" horiz-adv-x="985" 
d="M891 700v-663h-1v-40c0 -136 -86 -218 -214 -218c-45 0 -90 8 -125 22l27 110c17 -7 35 -10 63 -10c60 0 95 27 95 96v18l-487 491v-506h-155v700h170l471 -480v480h156z" />
    <glyph glyph-name="Ntilde" unicode="&#xd1;" horiz-adv-x="985" 
d="M696 948l74 -91c-31 -38 -92 -77 -164 -77c-86 0 -139 55 -218 55c-49 0 -74 -19 -99 -46l-72 90c30 38 91 78 164 78c86 0 136 -55 218 -55c48 0 73 18 97 46zM736 700h155v-700h-140l-502 506v-506h-155v700h170l472 -480v480z" />
    <glyph glyph-name="O" unicode="O" horiz-adv-x="989" 
d="M494 -22c-273 0 -445 138 -445 372s172 372 445 372s445 -138 445 -372s-172 -372 -445 -372zM494 116c173 0 282 84 282 234s-109 234 -282 234s-282 -84 -282 -234s108 -234 282 -234z" />
    <glyph glyph-name="Oacute" unicode="&#xd3;" horiz-adv-x="989" 
d="M742 941l-232 -161h-120l147 161h205zM494 -22c-273 0 -445 138 -445 372s172 372 445 372s445 -138 445 -372s-172 -372 -445 -372zM494 116c173 0 282 84 282 234s-109 234 -282 234s-282 -84 -282 -234s108 -234 282 -234z" />
    <glyph glyph-name="Obreve" unicode="&#x14e;" horiz-adv-x="989" 
d="M686 941c0 -61 -46 -168 -190 -168c-145 0 -191 107 -191 168h100c3 -38 34 -77 91 -77c56 0 87 39 90 77h100zM494 -22c-273 0 -445 138 -445 372s172 372 445 372s445 -138 445 -372s-172 -372 -445 -372zM494 116c173 0 282 84 282 234s-109 234 -282 234
s-282 -84 -282 -234s108 -234 282 -234z" />
    <glyph glyph-name="Ocircumflex" unicode="&#xd4;" horiz-adv-x="989" 
d="M261 780h144l89 94l91 -94h145l-153 161h-163zM494 -22c-273 0 -445 138 -445 372s172 372 445 372s445 -138 445 -372s-172 -372 -445 -372zM494 116c173 0 282 84 282 234s-109 234 -282 234s-282 -84 -282 -234s108 -234 282 -234z" />
    <glyph glyph-name="Odieresis" unicode="&#xd6;" horiz-adv-x="989" 
d="M359 784c-46 0 -79 29 -79 68c0 41 33 68 79 68c45 0 79 -27 79 -68c0 -39 -34 -68 -79 -68zM632 784c-46 0 -79 29 -79 68c0 41 33 68 79 68c45 0 79 -27 79 -68c0 -39 -34 -68 -79 -68zM494 -22c-273 0 -445 138 -445 372s172 372 445 372s445 -138 445 -372
s-172 -372 -445 -372zM494 116c173 0 282 84 282 234s-109 234 -282 234s-282 -84 -282 -234s108 -234 282 -234z" />
    <glyph glyph-name="Ograve" unicode="&#xd2;" horiz-adv-x="989" 
d="M249 941h205l147 -161h-120zM494 -22c-273 0 -445 138 -445 372s172 372 445 372s445 -138 445 -372s-172 -372 -445 -372zM494 116c173 0 282 84 282 234s-109 234 -282 234s-282 -84 -282 -234s108 -234 282 -234z" />
    <glyph glyph-name="Ohungarumlaut" unicode="&#x150;" horiz-adv-x="989" 
d="M580 941l-165 -161h-141l164 161h142zM805 941l-165 -161h-141l164 161h142zM494 -22c-273 0 -445 138 -445 372s172 372 445 372s445 -138 445 -372s-172 -372 -445 -372zM494 116c173 0 282 84 282 234s-109 234 -282 234s-282 -84 -282 -234s108 -234 282 -234z" />
    <glyph glyph-name="Omacron" unicode="&#x14c;" horiz-adv-x="989" 
d="M277 908h436v-110h-436v110zM494 -22c-273 0 -445 138 -445 372s172 372 445 372s445 -138 445 -372s-172 -372 -445 -372zM494 116c173 0 282 84 282 234s-109 234 -282 234s-282 -84 -282 -234s108 -234 282 -234z" />
    <glyph glyph-name="Oslash" unicode="&#xd8;" horiz-adv-x="989" 
d="M781 651c101 -63 158 -166 158 -301c0 -234 -172 -372 -445 -372c-72 0 -138 10 -194 28l-76 -101h-125l108 144c-101 63 -158 166 -158 301c0 234 172 372 445 372c72 0 138 -10 194 -28l76 101h125zM212 350c0 -80 30 -141 85 -180l301 402c-32 8 -66 12 -104 12
c-173 0 -282 -84 -282 -234zM494 116c173 0 282 84 282 234c0 79 -31 140 -85 180l-301 -402c32 -8 66 -12 104 -12z" />
    <glyph glyph-name="Oslashacute" unicode="&#x1fe;" horiz-adv-x="989" 
d="M741 941l-232 -161h-120l147 161h205zM781 651c101 -63 158 -166 158 -301c0 -234 -172 -372 -445 -372c-72 0 -138 10 -194 28l-76 -101h-125l108 144c-101 63 -158 166 -158 301c0 234 172 372 445 372c72 0 138 -10 194 -28l76 101h125zM212 350
c0 -80 30 -141 85 -180l301 402c-32 8 -66 12 -104 12c-173 0 -282 -84 -282 -234zM494 116c173 0 282 84 282 234c0 79 -31 140 -85 180l-301 -402c32 -8 66 -12 104 -12z" />
    <glyph glyph-name="Otilde" unicode="&#xd5;" horiz-adv-x="989" 
d="M698 948l74 -91c-31 -38 -92 -77 -164 -77c-86 0 -139 55 -218 55c-49 0 -74 -19 -99 -46l-72 90c30 38 91 78 164 78c86 0 136 -55 218 -55c48 0 73 18 97 46zM494 -22c-273 0 -445 138 -445 372s172 372 445 372s445 -138 445 -372s-172 -372 -445 -372zM494 116
c173 0 282 84 282 234s-109 234 -282 234s-282 -84 -282 -234s108 -234 282 -234z" />
    <glyph glyph-name="OE" unicode="&#x152;" horiz-adv-x="1460" 
d="M854 134h562v-134h-721h-214c-265 0 -432 132 -432 350s167 350 432 350h371h554v-134h-552v-144h461v-134h-461v-154zM695 133v434h-200c-169 0 -283 -73 -283 -217s114 -217 283 -217h200z" />
    <glyph glyph-name="P" unicode="P" horiz-adv-x="903" 
d="M573 700c180 0 300 -84 300 -237c0 -155 -120 -237 -300 -237h-319v-226h-160v700h479zM560 358c90 0 150 24 150 104s-60 104 -150 104h-306v-208h306z" />
    <glyph glyph-name="Thorn" unicode="&#xde;" horiz-adv-x="903" 
d="M577 591c173 0 296 -80 296 -233c0 -156 -123 -237 -296 -237h-323v-121h-160v700h160v-109h323zM564 253c87 0 146 25 146 103s-59 103 -146 103h-310v-206h310z" />
    <glyph glyph-name="Q" unicode="Q" horiz-adv-x="989" 
d="M939 350c0 -123 -48 -220 -133 -284l90 -97l-87 -75l-108 117c-60 -22 -129 -33 -207 -33c-273 0 -445 138 -445 372s172 372 445 372s445 -138 445 -372zM494 116c36 0 69 4 99 11l-93 100l87 76l115 -124c48 39 74 97 74 171c0 150 -109 234 -282 234
s-282 -84 -282 -234s108 -234 282 -234z" />
    <glyph glyph-name="R" unicode="R" horiz-adv-x="932" 
d="M898 0h-191l-201 238h-253v-238h-159v700h483c171 0 300 -79 300 -231c0 -119 -79 -193 -195 -220zM252 370h316c84 0 146 20 146 98s-62 98 -146 98h-316v-196z" />
    <glyph glyph-name="Racute" unicode="&#x154;" horiz-adv-x="932" 
d="M691 941l-232 -161h-120l147 161h205zM898 0h-191l-201 238h-253v-238h-159v700h483c171 0 300 -79 300 -231c0 -119 -79 -193 -195 -220zM252 370h316c84 0 146 20 146 98s-62 98 -146 98h-316v-196z" />
    <glyph glyph-name="Rcaron" unicode="&#x158;" horiz-adv-x="932" 
d="M526 780h-163l-153 161h144l91 -94l90 94h144zM898 0h-191l-201 238h-253v-238h-159v700h483c171 0 300 -79 300 -231c0 -119 -79 -193 -195 -220zM252 370h316c84 0 146 20 146 98s-62 98 -146 98h-316v-196z" />
    <glyph glyph-name="Rcommaaccent" unicode="&#x156;" horiz-adv-x="932" 
d="M682 249l216 -249h-191l-201 238h-253v-238h-159v700h483c171 0 300 -79 300 -231c0 -119 -79 -193 -195 -220zM252 370h316c84 0 146 20 146 98s-62 98 -146 98h-316v-196zM465 -54c60 0 98 -46 98 -103c0 -67 -42 -161 -128 -219l-35 44c46 41 73 74 83 117
c-4 -4 -12 -6 -24 -6c-48 0 -87 35 -87 84c0 46 39 83 93 83z" />
    <glyph glyph-name="S" unicode="S" horiz-adv-x="873" 
d="M457 431c223 -18 380 -65 380 -219c0 -138 -131 -234 -379 -234c-177 0 -321 50 -428 141l92 109c86 -79 197 -116 340 -116c142 0 214 27 214 85s-72 74 -233 88c-200 17 -386 61 -386 211c0 146 156 226 372 226c153 0 285 -38 374 -107l-88 -111
c-77 59 -172 83 -286 84c-95 1 -211 -16 -211 -80c0 -60 100 -66 239 -77z" />
    <glyph glyph-name="Sacute" unicode="&#x15a;" horiz-adv-x="873" 
d="M687 941l-232 -161h-120l147 161h205zM457 431c223 -18 380 -65 380 -219c0 -138 -131 -234 -379 -234c-177 0 -321 50 -428 141l92 109c86 -79 197 -116 340 -116c142 0 214 27 214 85s-72 74 -233 88c-200 17 -386 61 -386 211c0 146 156 226 372 226
c153 0 285 -38 374 -107l-88 -111c-77 59 -172 83 -286 84c-95 1 -211 -16 -211 -80c0 -60 100 -66 239 -77z" />
    <glyph glyph-name="Scaron" unicode="&#x160;" horiz-adv-x="873" 
d="M206 941l153 -161h163l153 161h-144l-90 -94l-91 94h-144zM457 431c223 -18 380 -65 380 -219c0 -138 -131 -234 -379 -234c-177 0 -321 50 -428 141l92 109c86 -79 197 -116 340 -116c142 0 214 27 214 85s-72 74 -233 88c-200 17 -386 61 -386 211
c0 146 156 226 372 226c153 0 285 -38 374 -107l-88 -111c-77 59 -172 83 -286 84c-95 1 -211 -16 -211 -80c0 -60 100 -66 239 -77z" />
    <glyph glyph-name="Scedilla" unicode="&#x15e;" horiz-adv-x="873" 
d="M457 431c223 -18 380 -65 380 -219c0 -138 -131 -234 -379 -234c-177 0 -321 50 -428 141l92 109c86 -79 197 -116 340 -116c142 0 214 27 214 85s-72 74 -233 88c-200 17 -386 61 -386 211c0 146 156 226 372 226c153 0 285 -38 374 -107l-88 -111
c-77 59 -172 83 -286 84c-95 1 -211 -16 -211 -80c0 -60 100 -66 239 -77zM517 -57l-137 -161l-104 28l102 155z" />
    <glyph glyph-name="Scircumflex" unicode="&#x15c;" horiz-adv-x="873" 
d="M206 780h144l89 94l91 -94h145l-153 161h-163zM457 431c223 -18 380 -65 380 -219c0 -138 -131 -234 -379 -234c-177 0 -321 50 -428 141l92 109c86 -79 197 -116 340 -116c142 0 214 27 214 85s-72 74 -233 88c-200 17 -386 61 -386 211c0 146 156 226 372 226
c153 0 285 -38 374 -107l-88 -111c-77 59 -172 83 -286 84c-95 1 -211 -16 -211 -80c0 -60 100 -66 239 -77z" />
    <glyph glyph-name="Scommaaccent" unicode="&#x218;" horiz-adv-x="873" 
d="M457 431c223 -18 380 -65 380 -219c0 -138 -131 -234 -379 -234c-177 0 -321 50 -428 141l92 109c86 -79 197 -116 340 -116c142 0 214 27 214 85s-72 74 -233 88c-200 17 -386 61 -386 211c0 146 156 226 372 226c153 0 285 -38 374 -107l-88 -111
c-77 59 -172 83 -286 84c-95 1 -211 -16 -211 -80c0 -60 100 -66 239 -77zM453 -54c60 0 98 -46 98 -103c0 -67 -42 -161 -128 -219l-35 44c46 41 73 74 83 117c-4 -4 -12 -6 -24 -6c-48 0 -87 35 -87 84c0 46 39 83 93 83z" />
    <glyph glyph-name="T" unicode="T" horiz-adv-x="803" 
d="M787 700v-138h-306v-562h-160v562h-304v138h770z" />
    <glyph glyph-name="Tbar" unicode="&#x166;" horiz-adv-x="803" 
d="M787 562h-306v-166h139v-117h-139v-279h-160v279h-137v117h137v166h-304v138h770v-138z" />
    <glyph glyph-name="Tcaron" unicode="&#x164;" horiz-adv-x="803" 
d="M167 941l153 -161h163l153 161h-144l-90 -94l-91 94h-144zM787 700v-138h-306v-562h-160v562h-304v138h770z" />
    <glyph glyph-name="uni0162" unicode="&#x162;" horiz-adv-x="803" 
d="M787 700v-138h-306v-562h-160v562h-304v138h770zM468 -49l-137 -161l-104 28l102 155z" />
    <glyph glyph-name="U" unicode="U" horiz-adv-x="949" 
d="M708 700h160v-370c0 -210 -139 -352 -393 -352s-393 142 -393 352v370h160v-358c0 -140 82 -224 233 -224s233 84 233 224v358z" />
    <glyph glyph-name="Uacute" unicode="&#xda;" horiz-adv-x="949" 
d="M722 941l-232 -161h-120l147 161h205zM708 700h160v-370c0 -210 -139 -352 -393 -352s-393 142 -393 352v370h160v-358c0 -140 82 -224 233 -224s233 84 233 224v358z" />
    <glyph glyph-name="Ubreve" unicode="&#x16c;" horiz-adv-x="949" 
d="M666 941c0 -61 -46 -168 -190 -168c-145 0 -191 107 -191 168h100c3 -38 34 -77 91 -77c56 0 87 39 90 77h100zM708 700h160v-370c0 -210 -139 -352 -393 -352s-393 142 -393 352v370h160v-358c0 -140 82 -224 233 -224s233 84 233 224v358z" />
    <glyph glyph-name="Ucircumflex" unicode="&#xdb;" horiz-adv-x="949" 
d="M241 780h144l89 94l91 -94h145l-153 161h-163zM708 700h160v-370c0 -210 -139 -352 -393 -352s-393 142 -393 352v370h160v-358c0 -140 82 -224 233 -224s233 84 233 224v358z" />
    <glyph glyph-name="Udieresis" unicode="&#xdc;" horiz-adv-x="949" 
d="M339 784c-46 0 -79 29 -79 68c0 41 33 68 79 68c45 0 79 -27 79 -68c0 -39 -34 -68 -79 -68zM612 784c-46 0 -79 29 -79 68c0 41 33 68 79 68c45 0 79 -27 79 -68c0 -39 -34 -68 -79 -68zM708 700h160v-370c0 -210 -139 -352 -393 -352s-393 142 -393 352v370h160v-358
c0 -140 82 -224 233 -224s233 84 233 224v358z" />
    <glyph glyph-name="Ugrave" unicode="&#xd9;" horiz-adv-x="949" 
d="M229 941h205l147 -161h-120zM708 700h160v-370c0 -210 -139 -352 -393 -352s-393 142 -393 352v370h160v-358c0 -140 82 -224 233 -224s233 84 233 224v358z" />
    <glyph glyph-name="Uhungarumlaut" unicode="&#x170;" horiz-adv-x="949" 
d="M560 941l-165 -161h-141l164 161h142zM785 941l-165 -161h-141l164 161h142zM708 700h160v-370c0 -210 -139 -352 -393 -352s-393 142 -393 352v370h160v-358c0 -140 82 -224 233 -224s233 84 233 224v358z" />
    <glyph glyph-name="Umacron" unicode="&#x16a;" horiz-adv-x="949" 
d="M257 908h436v-110h-436v110zM708 700h160v-370c0 -210 -139 -352 -393 -352s-393 142 -393 352v370h160v-358c0 -140 82 -224 233 -224s233 84 233 224v358z" />
    <glyph glyph-name="Uogonek" unicode="&#x172;" horiz-adv-x="949" 
d="M708 700h160v-370c0 -161 -82 -282 -235 -330h1c-58 -22 -115 -71 -115 -126c0 -40 32 -61 71 -61c29 0 54 10 71 26l28 -36c-20 -24 -61 -53 -130 -53c-75 0 -150 35 -150 113c0 45 24 87 68 115h-2c-254 0 -393 142 -393 352v370h160v-358c0 -140 82 -224 233 -224
s233 84 233 224v358z" />
    <glyph glyph-name="Uring" unicode="&#x16e;" horiz-adv-x="949" 
d="M475 771c-87 0 -150 39 -150 115c0 75 63 117 150 117s151 -42 151 -117c0 -76 -64 -115 -151 -115zM415 886c0 -35 24 -55 60 -55s61 20 61 55c0 34 -25 54 -61 54s-60 -20 -60 -54zM708 700h160v-370c0 -210 -139 -352 -393 -352s-393 142 -393 352v370h160v-358
c0 -140 82 -224 233 -224s233 84 233 224v358z" />
    <glyph glyph-name="Utilde" unicode="&#x168;" horiz-adv-x="949" 
d="M678 948l74 -91c-31 -38 -92 -77 -164 -77c-86 0 -139 55 -218 55c-49 0 -74 -19 -99 -46l-72 90c30 38 91 78 164 78c86 0 136 -55 218 -55c48 0 73 18 97 46zM708 700h160v-370c0 -210 -139 -352 -393 -352s-393 142 -393 352v370h160v-358c0 -140 82 -224 233 -224
s233 84 233 224v358z" />
    <glyph glyph-name="V" unicode="V" horiz-adv-x="878" 
d="M2 700h175l264 -541l263 541h173l-353 -700h-169z" />
    <glyph glyph-name="W" unicode="W" horiz-adv-x="1237" 
d="M1057 700h165l-256 -700h-163l-184 528l-186 -528h-161l-256 700h168l172 -518l187 518h155l186 -518z" />
    <glyph glyph-name="Wacute" unicode="&#x1e82;" horiz-adv-x="1237" 
d="M866 941l-232 -161h-120l147 161h205zM1057 700h165l-256 -700h-163l-184 528l-186 -528h-161l-256 700h168l172 -518l187 518h155l186 -518z" />
    <glyph glyph-name="Wcircumflex" unicode="&#x174;" horiz-adv-x="1237" 
d="M385 780h144l89 94l91 -94h145l-153 161h-163zM1057 700h165l-256 -700h-163l-184 528l-186 -528h-161l-256 700h168l172 -518l187 518h155l186 -518z" />
    <glyph glyph-name="Wdieresis" unicode="&#x1e84;" horiz-adv-x="1237" 
d="M483 784c-46 0 -79 29 -79 68c0 41 33 68 79 68c45 0 79 -27 79 -68c0 -39 -34 -68 -79 -68zM756 784c-46 0 -79 29 -79 68c0 41 33 68 79 68c45 0 79 -27 79 -68c0 -39 -34 -68 -79 -68zM1057 700h165l-256 -700h-163l-184 528l-186 -528h-161l-256 700h168l172 -518
l187 518h155l186 -518z" />
    <glyph glyph-name="Wgrave" unicode="&#x1e80;" horiz-adv-x="1237" 
d="M373 941h205l147 -161h-120zM1057 700h165l-256 -700h-163l-184 528l-186 -528h-161l-256 700h168l172 -518l187 518h155l186 -518z" />
    <glyph glyph-name="X" unicode="X" horiz-adv-x="839" 
d="M831 700l-316 -344l322 -356h-196l-226 248l-226 -248h-186l321 354l-316 346h196l221 -242l219 242h187z" />
    <glyph glyph-name="Y" unicode="Y" horiz-adv-x="840" 
d="M3 700h182l236 -328l235 328h181l-337 -461v-239h-160v239z" />
    <glyph glyph-name="Yacute" unicode="&#xdd;" horiz-adv-x="840" 
d="M667 941l-232 -161h-120l147 161h205zM3 700h182l236 -328l235 328h181l-337 -461v-239h-160v239z" />
    <glyph glyph-name="Ycircumflex" unicode="&#x176;" horiz-adv-x="840" 
d="M186 780h144l89 94l91 -94h145l-153 161h-163zM3 700h182l236 -328l235 328h181l-337 -461v-239h-160v239z" />
    <glyph glyph-name="Ydieresis" unicode="&#x178;" horiz-adv-x="840" 
d="M284 784c-46 0 -79 29 -79 68c0 41 33 68 79 68c45 0 79 -27 79 -68c0 -39 -34 -68 -79 -68zM557 784c-46 0 -79 29 -79 68c0 41 33 68 79 68c45 0 79 -27 79 -68c0 -39 -34 -68 -79 -68zM3 700h182l236 -328l235 328h181l-337 -461v-239h-160v239z" />
    <glyph glyph-name="Ygrave" unicode="&#x1ef2;" horiz-adv-x="840" 
d="M174 941h205l147 -161h-120zM3 700h182l236 -328l235 328h181l-337 -461v-239h-160v239z" />
    <glyph glyph-name="Z" unicode="Z" horiz-adv-x="856" 
d="M799 700v-109l-521 -457h537v-134h-775v109l521 457h-503v134h741z" />
    <glyph glyph-name="Zacute" unicode="&#x179;" horiz-adv-x="856" 
d="M689 941l-232 -161h-120l147 161h205zM799 700v-109l-521 -457h537v-134h-775v109l521 457h-503v134h741z" />
    <glyph glyph-name="Zcaron" unicode="&#x17d;" horiz-adv-x="856" 
d="M208 941l153 -161h163l153 161h-144l-90 -94l-91 94h-144zM799 700v-109l-521 -457h537v-134h-775v109l521 457h-503v134h741z" />
    <glyph glyph-name="Zdotaccent" unicode="&#x17b;" horiz-adv-x="856" 
d="M442 784c-45 0 -76 25 -76 64c0 41 31 66 76 66s75 -25 75 -66c0 -39 -30 -64 -75 -64zM799 700v-109l-521 -457h537v-134h-775v109l521 457h-503v134h741z" />
    <glyph glyph-name="a" unicode="a" horiz-adv-x="761" 
d="M363 572c201 0 322 -93 322 -264v-203c0 -40 7 -73 25 -105h-159c-12 20 -20 45 -20 65v1c-42 -46 -123 -86 -229 -86c-118 0 -271 47 -271 190s153 189 271 189c106 0 187 -39 229 -86v36c0 102 -67 146 -199 146c-75 0 -135 -10 -201 -46l-46 102c72 37 180 61 278 61z
M534 163v14c-41 65 -123 81 -194 81c-64 0 -158 -15 -158 -88s94 -89 158 -89c71 0 153 17 194 82z" />
    <glyph glyph-name="aacute" unicode="&#xe1;" horiz-adv-x="761" 
d="M627 792l-232 -161h-120l147 161h205zM363 572c201 0 322 -93 322 -264v-203c0 -40 7 -73 25 -105h-159c-12 20 -20 45 -20 65v1c-42 -46 -123 -86 -229 -86c-118 0 -271 47 -271 190s153 189 271 189c106 0 187 -39 229 -86v36c0 102 -67 146 -199 146
c-75 0 -135 -10 -201 -46l-46 102c72 37 180 61 278 61zM534 163v14c-41 65 -123 81 -194 81c-64 0 -158 -15 -158 -88s94 -89 158 -89c71 0 153 17 194 82z" />
    <glyph glyph-name="abreve" unicode="&#x103;" horiz-adv-x="761" 
d="M571 792c0 -61 -46 -168 -190 -168c-145 0 -191 107 -191 168h100c3 -38 34 -77 91 -77c56 0 87 39 90 77h100zM363 572c201 0 322 -93 322 -264v-203c0 -40 7 -73 25 -105h-159c-12 20 -20 45 -20 65v1c-42 -46 -123 -86 -229 -86c-118 0 -271 47 -271 190
s153 189 271 189c106 0 187 -39 229 -86v36c0 102 -67 146 -199 146c-75 0 -135 -10 -201 -46l-46 102c72 37 180 61 278 61zM534 163v14c-41 65 -123 81 -194 81c-64 0 -158 -15 -158 -88s94 -89 158 -89c71 0 153 17 194 82z" />
    <glyph glyph-name="acircumflex" unicode="&#xe2;" horiz-adv-x="761" 
d="M146 631h144l89 94l91 -94h145l-153 161h-163zM363 572c201 0 322 -93 322 -264v-203c0 -40 7 -73 25 -105h-159c-12 20 -20 45 -20 65v1c-42 -46 -123 -86 -229 -86c-118 0 -271 47 -271 190s153 189 271 189c106 0 187 -39 229 -86v36c0 102 -67 146 -199 146
c-75 0 -135 -10 -201 -46l-46 102c72 37 180 61 278 61zM534 163v14c-41 65 -123 81 -194 81c-64 0 -158 -15 -158 -88s94 -89 158 -89c71 0 153 17 194 82z" />
    <glyph glyph-name="adieresis" unicode="&#xe4;" horiz-adv-x="761" 
d="M244 635c-46 0 -79 29 -79 68c0 41 33 68 79 68c45 0 79 -27 79 -68c0 -39 -34 -68 -79 -68zM517 635c-46 0 -79 29 -79 68c0 41 33 68 79 68c45 0 79 -27 79 -68c0 -39 -34 -68 -79 -68zM363 572c201 0 322 -93 322 -264v-203c0 -40 7 -73 25 -105h-159
c-12 20 -20 45 -20 65v1c-42 -46 -123 -86 -229 -86c-118 0 -271 47 -271 190s153 189 271 189c106 0 187 -39 229 -86v36c0 102 -67 146 -199 146c-75 0 -135 -10 -201 -46l-46 102c72 37 180 61 278 61zM534 163v14c-41 65 -123 81 -194 81c-64 0 -158 -15 -158 -88
s94 -89 158 -89c71 0 153 17 194 82z" />
    <glyph glyph-name="agrave" unicode="&#xe0;" horiz-adv-x="761" 
d="M134 792h205l147 -161h-120zM363 572c201 0 322 -93 322 -264v-203c0 -40 7 -73 25 -105h-159c-12 20 -20 45 -20 65v1c-42 -46 -123 -86 -229 -86c-118 0 -271 47 -271 190s153 189 271 189c106 0 187 -39 229 -86v36c0 102 -67 146 -199 146c-75 0 -135 -10 -201 -46
l-46 102c72 37 180 61 278 61zM534 163v14c-41 65 -123 81 -194 81c-64 0 -158 -15 -158 -88s94 -89 158 -89c71 0 153 17 194 82z" />
    <glyph glyph-name="amacron" unicode="&#x101;" horiz-adv-x="761" 
d="M162 759h436v-110h-436v110zM363 572c201 0 322 -93 322 -264v-203c0 -40 7 -73 25 -105h-159c-12 20 -20 45 -20 65v1c-42 -46 -123 -86 -229 -86c-118 0 -271 47 -271 190s153 189 271 189c106 0 187 -39 229 -86v36c0 102 -67 146 -199 146c-75 0 -135 -10 -201 -46
l-46 102c72 37 180 61 278 61zM534 163v14c-41 65 -123 81 -194 81c-64 0 -158 -15 -158 -88s94 -89 158 -89c71 0 153 17 194 82z" />
    <glyph glyph-name="aogonek" unicode="&#x105;" horiz-adv-x="761" 
d="M737 -161l28 -36c-20 -24 -61 -53 -130 -53c-75 0 -150 35 -150 113c0 59 41 112 115 137h-49c-12 20 -20 45 -20 65v1c-42 -46 -123 -86 -229 -86c-118 0 -271 47 -271 190s153 189 271 189c106 0 187 -39 229 -86v36c0 102 -67 146 -199 146c-75 0 -135 -10 -201 -46
l-46 102c72 37 180 61 278 61c201 0 322 -93 322 -264v-203c0 -40 7 -73 25 -105c-58 -22 -115 -71 -115 -126c0 -40 32 -61 71 -61c29 0 54 10 71 26zM534 163v14c-41 65 -123 81 -194 81c-64 0 -158 -15 -158 -88s94 -89 158 -89c71 0 153 17 194 82z" />
    <glyph glyph-name="aring" unicode="&#xe5;" horiz-adv-x="761" 
d="M380 622c-87 0 -150 39 -150 115c0 75 63 117 150 117s151 -42 151 -117c0 -76 -64 -115 -151 -115zM320 737c0 -35 24 -55 60 -55s61 20 61 55c0 34 -25 54 -61 54s-60 -20 -60 -54zM363 572c201 0 322 -93 322 -264v-203c0 -40 7 -73 25 -105h-159
c-12 20 -20 45 -20 65v1c-42 -46 -123 -86 -229 -86c-118 0 -271 47 -271 190s153 189 271 189c106 0 187 -39 229 -86v36c0 102 -67 146 -199 146c-75 0 -135 -10 -201 -46l-46 102c72 37 180 61 278 61zM534 163v14c-41 65 -123 81 -194 81c-64 0 -158 -15 -158 -88
s94 -89 158 -89c71 0 153 17 194 82z" />
    <glyph glyph-name="aringacute" unicode="&#x1fb;" horiz-adv-x="761" 
d="M380 622c-87 0 -150 39 -150 115c0 29 9 52 25 71l-3 1l112 133h154l-114 -89c74 -7 127 -48 127 -116c0 -76 -64 -115 -151 -115zM441 737c0 34 -25 54 -61 54s-60 -20 -60 -54c0 -35 24 -55 60 -55s61 20 61 55zM685 105c0 -40 7 -73 25 -105h-159
c-12 20 -20 45 -20 65v1c-42 -46 -123 -86 -229 -86c-118 0 -271 47 -271 190s153 189 271 189c106 0 187 -39 229 -86v36c0 102 -67 146 -199 146c-75 0 -135 -10 -201 -46l-46 102c72 37 180 61 278 61c201 0 322 -93 322 -264v-203zM534 163v14c-41 65 -123 81 -194 81
c-64 0 -158 -15 -158 -88s94 -89 158 -89c71 0 153 17 194 82z" />
    <glyph glyph-name="atilde" unicode="&#xe3;" horiz-adv-x="761" 
d="M583 799l74 -91c-31 -38 -92 -77 -164 -77c-86 0 -139 55 -218 55c-49 0 -74 -19 -99 -46l-72 90c30 38 91 78 164 78c86 0 136 -55 218 -55c48 0 73 18 97 46zM363 572c201 0 322 -93 322 -264v-203c0 -40 7 -73 25 -105h-159c-12 20 -20 45 -20 65v1
c-42 -46 -123 -86 -229 -86c-118 0 -271 47 -271 190s153 189 271 189c106 0 187 -39 229 -86v36c0 102 -67 146 -199 146c-75 0 -135 -10 -201 -46l-46 102c72 37 180 61 278 61zM534 163v14c-41 65 -123 81 -194 81c-64 0 -158 -15 -158 -88s94 -89 158 -89
c71 0 153 17 194 82z" />
    <glyph glyph-name="ae" unicode="&#xe6;" horiz-adv-x="1247" 
d="M678 242v-9c15 -99 90 -134 216 -134c97 0 153 15 212 64l83 -87c-78 -68 -176 -98 -303 -98c-139 0 -241 43 -299 118c-58 -80 -181 -116 -283 -116c-120 0 -273 47 -273 190s153 189 271 189c106 0 187 -39 230 -95v45c0 102 -68 146 -200 146c-75 0 -144 -12 -209 -48
l-38 104c72 37 180 61 278 61c112 0 198 -30 251 -86c58 56 148 87 261 87c197 0 334 -104 334 -295c0 -17 -2 -28 -4 -36h-527zM876 453c-102 0 -170 -31 -193 -112l379 2c-23 77 -85 110 -186 110zM535 163v14c-42 65 -123 81 -194 81c-65 0 -159 -15 -159 -88
s94 -89 159 -89c71 0 152 17 194 82z" />
    <glyph glyph-name="aeacute" unicode="&#x1fd;" horiz-adv-x="1247" 
d="M858 792l-232 -161h-120l147 161h205zM678 242v-9c15 -99 90 -134 216 -134c97 0 153 15 212 64l83 -87c-78 -68 -176 -98 -303 -98c-139 0 -241 43 -299 118c-58 -80 -181 -116 -283 -116c-120 0 -273 47 -273 190s153 189 271 189c106 0 187 -39 230 -95v45
c0 102 -68 146 -200 146c-75 0 -144 -12 -209 -48l-38 104c72 37 180 61 278 61c112 0 198 -30 251 -86c58 56 148 87 261 87c197 0 334 -104 334 -295c0 -17 -2 -28 -4 -36h-527zM876 453c-102 0 -170 -31 -193 -112l379 2c-23 77 -85 110 -186 110zM535 163v14
c-42 65 -123 81 -194 81c-65 0 -159 -15 -159 -88s94 -89 159 -89c71 0 152 17 194 82z" />
    <glyph glyph-name="b" unicode="b" horiz-adv-x="816" 
d="M475 571c175 0 297 -116 297 -296s-122 -296 -297 -296c-113 0 -195 49 -240 110v-89h-155v740h155v-279c45 61 127 110 240 110zM436 108c120 0 188 59 188 167s-68 167 -188 167c-81 0 -152 -27 -200 -90v-154c48 -63 119 -90 200 -90z" />
    <glyph glyph-name="c" unicode="c" horiz-adv-x="725" 
d="M703 132c-46 -86 -151 -154 -310 -154c-216 0 -349 115 -349 297c0 183 133 298 349 298c157 0 261 -68 307 -152l-143 -56c-32 61 -93 83 -163 83c-115 0 -200 -57 -200 -173c0 -114 85 -172 200 -172c70 0 133 23 167 86z" />
    <glyph glyph-name="cacute" unicode="&#x107;" horiz-adv-x="725" 
d="M634 792l-232 -161h-120l147 161h205zM703 132c-46 -86 -151 -154 -310 -154c-216 0 -349 115 -349 297c0 183 133 298 349 298c157 0 261 -68 307 -152l-143 -56c-32 61 -93 83 -163 83c-115 0 -200 -57 -200 -173c0 -114 85 -172 200 -172c70 0 133 23 167 86z" />
    <glyph glyph-name="ccaron" unicode="&#x10d;" horiz-adv-x="725" 
d="M153 792l153 -161h163l153 161h-144l-90 -94l-91 94h-144zM703 132c-46 -86 -151 -154 -310 -154c-216 0 -349 115 -349 297c0 183 133 298 349 298c157 0 261 -68 307 -152l-143 -56c-32 61 -93 83 -163 83c-115 0 -200 -57 -200 -173c0 -114 85 -172 200 -172
c70 0 133 23 167 86z" />
    <glyph glyph-name="ccedilla" unicode="&#xe7;" horiz-adv-x="725" 
d="M703 132c-46 -86 -151 -154 -310 -154c-216 0 -349 115 -349 297c0 183 133 298 349 298c157 0 261 -68 307 -152l-143 -56c-32 61 -93 83 -163 83c-115 0 -200 -57 -200 -173c0 -114 85 -172 200 -172c70 0 133 23 167 86zM457 -57l-137 -161l-104 28l102 155z" />
    <glyph glyph-name="ccircumflex" unicode="&#x109;" horiz-adv-x="725" 
d="M153 631h144l89 94l91 -94h145l-153 161h-163zM703 132c-46 -86 -151 -154 -310 -154c-216 0 -349 115 -349 297c0 183 133 298 349 298c157 0 261 -68 307 -152l-143 -56c-32 61 -93 83 -163 83c-115 0 -200 -57 -200 -173c0 -114 85 -172 200 -172c70 0 133 23 167 86z
" />
    <glyph glyph-name="cdotaccent" unicode="&#x10b;" horiz-adv-x="725" 
d="M387 635c-45 0 -76 25 -76 64c0 41 31 66 76 66s75 -25 75 -66c0 -39 -30 -64 -75 -64zM703 132c-46 -86 -151 -154 -310 -154c-216 0 -349 115 -349 297c0 183 133 298 349 298c157 0 261 -68 307 -152l-143 -56c-32 61 -93 83 -163 83c-115 0 -200 -57 -200 -173
c0 -114 85 -172 200 -172c70 0 133 23 167 86z" />
    <glyph glyph-name="d" unicode="d" horiz-adv-x="816" 
d="M341 571c113 0 195 -49 240 -110v279h155v-740h-155v89c-45 -61 -127 -110 -240 -110c-175 0 -297 116 -297 296s122 296 297 296zM380 108c81 0 152 27 200 90v154c-48 63 -119 90 -200 90c-120 0 -188 -59 -188 -167s68 -167 188 -167z" />
    <glyph glyph-name="eth" unicode="&#xf0;" horiz-adv-x="793" 
d="M546 654c147 -93 203 -226 203 -339c0 -238 -139 -338 -352 -338c-214 0 -353 100 -353 278s146 267 292 267c92 0 221 -19 267 -123c-27 79 -104 146 -209 189l-160 -69l-29 63l88 38c-32 8 -65 13 -100 16l22 123c99 -11 182 -34 251 -63l148 64l29 -64zM395 96
c115 0 207 49 207 159c0 109 -92 159 -207 159c-113 0 -205 -50 -205 -159c0 -110 92 -159 205 -159z" />
    <glyph glyph-name="dcaron" unicode="&#x10f;" horiz-adv-x="937" 
d="M341 571c113 0 195 -49 240 -110v279h155v-740h-155v89c-45 -61 -127 -110 -240 -110c-175 0 -297 116 -297 296s122 296 297 296zM865 712c60 0 96 -47 96 -100c0 -71 -40 -151 -126 -208l-31 43c41 38 68 71 78 112c-3 -4 -10 -6 -22 -6c-47 0 -85 34 -85 79
c0 46 38 80 90 80zM380 108c81 0 152 27 200 90v154c-48 63 -119 90 -200 90c-120 0 -188 -59 -188 -167s68 -167 188 -167z" />
    <glyph glyph-name="dcroat" unicode="&#x111;" horiz-adv-x="806" 
d="M816 660v-69h-80v-591h-155v89c-45 -61 -127 -110 -240 -110c-175 0 -297 116 -297 296s122 296 297 296c113 0 195 -49 240 -110v130h-180v69h180v80h155v-80h80zM580 198v154c-48 63 -119 90 -200 90c-120 0 -188 -59 -188 -167s68 -167 188 -167c81 0 152 27 200 90z
" />
    <glyph glyph-name="e" unicode="e" horiz-adv-x="763" 
d="M193 240c14 -99 89 -144 217 -144c95 0 155 25 212 71l83 -91c-77 -68 -176 -98 -303 -98c-227 0 -358 114 -358 297c0 184 130 298 347 298c200 0 334 -102 334 -297c0 -18 -1 -27 -4 -36h-528zM392 455c-101 0 -170 -38 -192 -116l377 2c-24 79 -87 114 -185 114z" />
    <glyph glyph-name="eacute" unicode="&#xe9;" horiz-adv-x="763" 
d="M638 792l-232 -161h-120l147 161h205zM193 240c14 -99 89 -144 217 -144c95 0 155 25 212 71l83 -91c-77 -68 -176 -98 -303 -98c-227 0 -358 114 -358 297c0 184 130 298 347 298c200 0 334 -102 334 -297c0 -18 -1 -27 -4 -36h-528zM392 455c-101 0 -170 -38 -192 -116
l377 2c-24 79 -87 114 -185 114z" />
    <glyph glyph-name="ebreve" unicode="&#x115;" horiz-adv-x="763" 
d="M392 624c-145 0 -191 107 -191 168h100c3 -38 34 -77 91 -77c56 0 87 39 90 77h100c0 -61 -46 -168 -190 -168zM193 240c14 -99 89 -144 217 -144c95 0 155 25 212 71l83 -91c-77 -68 -176 -98 -303 -98c-227 0 -358 114 -358 297c0 184 130 298 347 298
c200 0 334 -102 334 -297c0 -18 -1 -27 -4 -36h-528zM392 455c-101 0 -170 -38 -192 -116l377 2c-24 79 -87 114 -185 114z" />
    <glyph glyph-name="ecaron" unicode="&#x11b;" horiz-adv-x="763" 
d="M473 631h-163l-153 161h144l91 -94l90 94h144zM193 240c14 -99 89 -144 217 -144c95 0 155 25 212 71l83 -91c-77 -68 -176 -98 -303 -98c-227 0 -358 114 -358 297c0 184 130 298 347 298c200 0 334 -102 334 -297c0 -18 -1 -27 -4 -36h-528zM392 455
c-101 0 -170 -38 -192 -116l377 2c-24 79 -87 114 -185 114z" />
    <glyph glyph-name="ecircumflex" unicode="&#xea;" horiz-adv-x="763" 
d="M390 725l-89 -94h-144l153 161h163l153 -161h-145zM193 240c14 -99 89 -144 217 -144c95 0 155 25 212 71l83 -91c-77 -68 -176 -98 -303 -98c-227 0 -358 114 -358 297c0 184 130 298 347 298c200 0 334 -102 334 -297c0 -18 -1 -27 -4 -36h-528zM392 455
c-101 0 -170 -38 -192 -116l377 2c-24 79 -87 114 -185 114z" />
    <glyph glyph-name="edieresis" unicode="&#xeb;" horiz-adv-x="763" 
d="M255 635c-46 0 -79 29 -79 68c0 41 33 68 79 68c45 0 79 -27 79 -68c0 -39 -34 -68 -79 -68zM528 635c-46 0 -79 29 -79 68c0 41 33 68 79 68c45 0 79 -27 79 -68c0 -39 -34 -68 -79 -68zM193 240c14 -99 89 -144 217 -144c95 0 155 25 212 71l83 -91
c-77 -68 -176 -98 -303 -98c-227 0 -358 114 -358 297c0 184 130 298 347 298c200 0 334 -102 334 -297c0 -18 -1 -27 -4 -36h-528zM392 455c-101 0 -170 -38 -192 -116l377 2c-24 79 -87 114 -185 114z" />
    <glyph glyph-name="edotaccent" unicode="&#x117;" horiz-adv-x="763" 
d="M391 635c-45 0 -76 25 -76 64c0 41 31 66 76 66s75 -25 75 -66c0 -39 -30 -64 -75 -64zM193 240c14 -99 89 -144 217 -144c95 0 155 25 212 71l83 -91c-77 -68 -176 -98 -303 -98c-227 0 -358 114 -358 297c0 184 130 298 347 298c200 0 334 -102 334 -297
c0 -18 -1 -27 -4 -36h-528zM392 455c-101 0 -170 -38 -192 -116l377 2c-24 79 -87 114 -185 114z" />
    <glyph glyph-name="egrave" unicode="&#xe8;" horiz-adv-x="763" 
d="M497 631h-120l-232 161h205zM193 240c14 -99 89 -144 217 -144c95 0 155 25 212 71l83 -91c-77 -68 -176 -98 -303 -98c-227 0 -358 114 -358 297c0 184 130 298 347 298c200 0 334 -102 334 -297c0 -18 -1 -27 -4 -36h-528zM392 455c-101 0 -170 -38 -192 -116l377 2
c-24 79 -87 114 -185 114z" />
    <glyph glyph-name="emacron" unicode="&#x113;" horiz-adv-x="763" 
d="M609 759v-110h-436v110h436zM193 240c14 -99 89 -144 217 -144c95 0 155 25 212 71l83 -91c-77 -68 -176 -98 -303 -98c-227 0 -358 114 -358 297c0 184 130 298 347 298c200 0 334 -102 334 -297c0 -18 -1 -27 -4 -36h-528zM392 455c-101 0 -170 -38 -192 -116l377 2
c-24 79 -87 114 -185 114z" />
    <glyph glyph-name="eogonek" unicode="&#x119;" horiz-adv-x="763" 
d="M193 240c14 -99 89 -144 217 -144c95 0 155 25 212 71l83 -91c-40 -35 -85 -60 -137 -76h2c-58 -22 -115 -71 -115 -126c0 -40 32 -61 71 -61c29 0 54 10 71 26l28 -36c-20 -24 -61 -53 -130 -53c-75 0 -150 35 -150 113c0 45 24 87 68 115h-11c-227 0 -358 114 -358 297
c0 184 130 298 347 298c200 0 334 -102 334 -297c0 -18 -1 -27 -4 -36h-528zM392 455c-101 0 -170 -38 -192 -116l377 2c-24 79 -87 114 -185 114z" />
    <glyph glyph-name="f" unicode="f" horiz-adv-x="521" 
d="M273 582v-31h231v-116h-227v-435h-155v435h-102v116h102v13c0 135 95 197 217 197c57 0 126 -14 171 -37l-31 -95c-37 20 -72 28 -106 28c-61 0 -100 -21 -100 -75z" />
    <glyph glyph-name="g" unicode="g" horiz-adv-x="816" 
d="M736 551v-467c0 -226 -177 -304 -347 -304c-100 0 -224 26 -290 67l46 113c51 -33 131 -57 227 -57c137 0 209 51 209 155v47c-51 -70 -144 -109 -242 -109c-180 0 -295 110 -295 287s115 288 295 288c104 0 191 -39 242 -110v90h155zM382 116c82 0 148 31 200 102v130
c-52 73 -118 102 -200 102c-121 0 -188 -62 -188 -167c0 -104 67 -167 188 -167z" />
    <glyph glyph-name="gbreve" unicode="&#x11f;" horiz-adv-x="816" 
d="M606 793c0 -61 -46 -168 -190 -168c-145 0 -191 107 -191 168h100c3 -38 34 -77 91 -77c56 0 87 39 90 77h100zM736 551v-467c0 -226 -177 -304 -347 -304c-100 0 -224 26 -290 67l46 113c51 -33 131 -57 227 -57c137 0 209 51 209 155v47c-51 -70 -144 -109 -242 -109
c-180 0 -295 110 -295 287s115 288 295 288c104 0 191 -39 242 -110v90h155zM382 116c82 0 148 31 200 102v130c-52 73 -118 102 -200 102c-121 0 -188 -62 -188 -167c0 -104 67 -167 188 -167z" />
    <glyph glyph-name="gcircumflex" unicode="&#x11d;" horiz-adv-x="816" 
d="M181 632h144l89 94l91 -94h145l-153 161h-163zM736 551v-467c0 -226 -177 -304 -347 -304c-100 0 -224 26 -290 67l46 113c51 -33 131 -57 227 -57c137 0 209 51 209 155v47c-51 -70 -144 -109 -242 -109c-180 0 -295 110 -295 287s115 288 295 288
c104 0 191 -39 242 -110v90h155zM382 116c82 0 148 31 200 102v130c-52 73 -118 102 -200 102c-121 0 -188 -62 -188 -167c0 -104 67 -167 188 -167z" />
    <glyph glyph-name="gcommaaccent" unicode="&#x123;" horiz-adv-x="816" 
d="M414 639c-60 0 -98 46 -98 103c0 67 42 161 128 219l35 -44c-46 -41 -73 -74 -83 -117c4 4 12 6 24 6c48 0 87 -35 87 -84c0 -46 -39 -83 -93 -83zM736 551v-467c0 -226 -177 -304 -347 -304c-100 0 -224 26 -290 67l46 113c51 -33 131 -57 227 -57c137 0 209 51 209 155
v47c-51 -70 -144 -109 -242 -109c-180 0 -295 110 -295 287s115 288 295 288c104 0 191 -39 242 -110v90h155zM382 116c82 0 148 31 200 102v130c-52 73 -118 102 -200 102c-121 0 -188 -62 -188 -167c0 -104 67 -167 188 -167z" />
    <glyph glyph-name="gdotaccent" unicode="&#x121;" horiz-adv-x="816" 
d="M415 636c-45 0 -76 25 -76 64c0 41 31 66 76 66s75 -25 75 -66c0 -39 -30 -64 -75 -64zM736 551v-467c0 -226 -177 -304 -347 -304c-100 0 -224 26 -290 67l46 113c51 -33 131 -57 227 -57c137 0 209 51 209 155v47c-51 -70 -144 -109 -242 -109
c-180 0 -295 110 -295 287s115 288 295 288c104 0 191 -39 242 -110v90h155zM382 116c82 0 148 31 200 102v130c-52 73 -118 102 -200 102c-121 0 -188 -62 -188 -167c0 -104 67 -167 188 -167z" />
    <glyph glyph-name="h" unicode="h" horiz-adv-x="798" 
d="M475 571c165 0 250 -105 250 -252v-319h-155v309c0 90 -48 139 -140 139c-82 0 -150 -38 -195 -117v-331h-155v551v189h155v-197v-89c45 73 134 117 240 117z" />
    <glyph glyph-name="hbar" unicode="&#x127;" horiz-adv-x="798" 
d="M475 571c165 0 250 -105 250 -252v-319h-155v309c0 90 -48 139 -140 139c-82 0 -150 -38 -195 -117v-331h-155v551v40h-89v69h89v80h155v-80h172v-69h-172v-48v-89c45 73 134 117 240 117z" />
    <glyph glyph-name="hcircumflex" unicode="&#x125;" horiz-adv-x="798" 
d="M248 820l-91 94l-89 -94h-144l153 161h163l153 -161h-145zM475 571c165 0 250 -105 250 -252v-319h-155v309c0 90 -48 139 -140 139c-82 0 -150 -38 -195 -117v-331h-155v551v189h155v-197v-89c45 73 134 117 240 117z" />
    <glyph glyph-name="i" unicode="i" horiz-adv-x="315" 
d="M158 617c-55 0 -94 33 -94 78c0 47 39 79 94 79c54 0 92 -32 92 -79c0 -45 -38 -78 -92 -78zM237 551v-551h-155v551h155z" />
    <glyph glyph-name="dotlessi" unicode="&#x131;" horiz-adv-x="319" 
d="M237 551v-551h-155v551h155z" />
    <glyph glyph-name="iacute" unicode="&#xed;" horiz-adv-x="319" 
d="M407 792l-232 -161h-120l147 161h205zM237 551v-551h-155v551h155z" />
    <glyph glyph-name="ibreve" unicode="&#x12d;" horiz-adv-x="319" 
d="M351 792c0 -61 -46 -168 -190 -168c-145 0 -191 107 -191 168h100c3 -38 34 -77 91 -77c56 0 87 39 90 77h100zM237 551v-551h-155v551h155z" />
    <glyph glyph-name="icircumflex" unicode="&#xee;" horiz-adv-x="319" 
d="M-74 631h144l89 94l91 -94h145l-153 161h-163zM237 551v-551h-155v551h155z" />
    <glyph glyph-name="idieresis" unicode="&#xef;" horiz-adv-x="319" 
d="M24 635c-46 0 -79 29 -79 68c0 41 33 68 79 68c45 0 79 -27 79 -68c0 -39 -34 -68 -79 -68zM297 635c-46 0 -79 29 -79 68c0 41 33 68 79 68c45 0 79 -27 79 -68c0 -39 -34 -68 -79 -68zM237 551v-551h-155v551h155z" />
    <glyph glyph-name="igrave" unicode="&#xec;" horiz-adv-x="319" 
d="M-86 792h205l147 -161h-120zM237 551v-551h-155v551h155z" />
    <glyph glyph-name="ij" unicode="&#x133;" horiz-adv-x="630" 
d="M158 617c-55 0 -94 33 -94 78c0 47 39 79 94 79c54 0 92 -32 92 -79c0 -45 -38 -78 -92 -78zM473 617c-55 0 -94 33 -94 78c0 47 39 79 94 79c54 0 92 -32 92 -79c0 -45 -38 -78 -92 -78zM237 551v-551h-155v551h155zM394 551h155v-574c0 -123 -78 -198 -198 -198
c-41 0 -86 9 -122 23l29 107c18 -7 38 -11 58 -11c47 0 78 32 78 84v569z" />
    <glyph glyph-name="imacron" unicode="&#x12b;" horiz-adv-x="319" 
d="M-58 759h436v-110h-436v110zM237 551v-551h-155v551h155z" />
    <glyph glyph-name="iogonek" unicode="&#x12f;" horiz-adv-x="315" 
d="M158 617c-55 0 -94 33 -94 78c0 47 39 79 94 79c54 0 92 -32 92 -79c0 -45 -38 -78 -92 -78zM263 -161l28 -36c-20 -24 -61 -53 -130 -53c-75 0 -150 35 -150 113c0 59 41 112 115 137h-44v551h155v-551h-1c-58 -22 -115 -71 -115 -126c0 -40 32 -61 71 -61
c29 0 54 10 71 26z" />
    <glyph glyph-name="itilde" unicode="&#x129;" horiz-adv-x="319" 
d="M363 799l74 -91c-31 -38 -92 -77 -164 -77c-86 0 -139 55 -218 55c-49 0 -74 -19 -99 -46l-72 90c30 38 91 78 164 78c86 0 136 -55 218 -55c48 0 73 18 97 46zM237 551v-551h-155v551h155z" />
    <glyph glyph-name="j" unicode="j" horiz-adv-x="315" 
d="M158 617c-55 0 -94 33 -94 78c0 47 39 79 94 79c54 0 92 -32 92 -79c0 -45 -38 -78 -92 -78zM79 551h155v-574c0 -123 -78 -198 -198 -198c-41 0 -86 9 -122 23l29 107c18 -7 38 -11 58 -11c47 0 78 32 78 84v569z" />
    <glyph glyph-name="uni0237" unicode="&#x237;" horiz-adv-x="316" 
d="M79 551h155v-574c0 -123 -78 -198 -198 -198c-41 0 -86 9 -122 23l29 107c18 -7 38 -11 58 -11c47 0 78 32 78 84v569z" />
    <glyph glyph-name="jcircumflex" unicode="&#x135;" horiz-adv-x="445" 
d="M-89 631h144l89 94l91 -94h145l-153 161h-163zM80 551h154v-574c0 -123 -78 -198 -195 -198c-44 0 -89 9 -125 23l23 92c18 -7 40 -13 67 -13c44 0 76 31 76 84v586z" />
    <glyph glyph-name="k" unicode="k" horiz-adv-x="727" 
d="M559 0l-194 247l-130 -110v-137h-155v740h155v-457l297 268h183l-242 -219l257 -332h-171z" />
    <glyph glyph-name="kcommaaccent" unicode="&#x137;" horiz-adv-x="727" 
d="M473 332l257 -332h-171l-194 247l-130 -110v-137h-155v740h155v-457l297 268h183zM383 -54c60 0 98 -46 98 -103c0 -67 -42 -161 -128 -219l-35 44c46 41 73 74 83 117c-4 -4 -12 -6 -24 -6c-48 0 -87 35 -87 84c0 46 39 83 93 83z" />
    <glyph glyph-name="kgreenlandic" unicode="&#x138;" horiz-adv-x="727" 
d="M559 0l-194 247l-130 -110v-137h-155v551h155v-268l297 268h183l-242 -219l257 -332h-171z" />
    <glyph glyph-name="l" unicode="l" horiz-adv-x="319" 
d="M237 0h-155v740h155v-740z" />
    <glyph glyph-name="lacute" unicode="&#x13a;" horiz-adv-x="319" 
d="M407 981l-232 -161h-120l147 161h205zM237 0h-155v740h155v-740z" />
    <glyph glyph-name="lcaron" unicode="&#x13e;" horiz-adv-x="448" 
d="M237 0h-155v740h155v-740zM376 712c60 0 96 -47 96 -100c0 -71 -40 -151 -126 -208l-31 43c41 38 68 71 78 112c-3 -4 -10 -6 -22 -6c-47 0 -85 34 -85 79c0 46 38 80 90 80z" />
    <glyph glyph-name="lcommaaccent" unicode="&#x13c;" horiz-adv-x="319" 
d="M237 0h-155v740h155v-740zM161 -54c60 0 98 -46 98 -103c0 -67 -42 -161 -128 -219l-35 44c46 41 73 74 83 117c-4 -4 -12 -6 -24 -6c-48 0 -87 35 -87 84c0 46 39 83 93 83z" />
    <glyph glyph-name="ldot" unicode="&#x140;" horiz-adv-x="465" 
d="M237 0h-155v740h155v-740zM390 329c-56 0 -95 36 -95 84s39 84 95 84c55 0 94 -36 94 -84s-39 -84 -94 -84z" />
    <glyph glyph-name="lslash" unicode="&#x142;" horiz-adv-x="392" 
d="M380 522v-107l-108 -48v-367h-155v299l-105 -47v109l105 46v333h155v-265z" />
    <glyph glyph-name="m" unicode="m" horiz-adv-x="1233" 
d="M924 571c162 0 236 -109 236 -251v-320h-154v312c0 86 -43 136 -133 136c-79 0 -138 -42 -176 -116v-12v-211l1 -109h-155v312c0 86 -43 136 -133 136c-79 0 -136 -40 -175 -113v-335h-155v551h155v-98c43 74 125 118 226 118c119 0 191 -59 220 -147
c38 87 127 147 243 147z" />
    <glyph glyph-name="n" unicode="n" horiz-adv-x="798" 
d="M235 0h-155v551h155v-97c45 73 134 117 240 117c165 0 250 -105 250 -252v-319h-155v309c0 90 -48 139 -140 139c-82 0 -150 -38 -195 -117v-331z" />
    <glyph glyph-name="nacute" unicode="&#x144;" horiz-adv-x="798" 
d="M649 792l-232 -161h-120l147 161h205zM235 0h-155v551h155v-97c45 73 134 117 240 117c165 0 250 -105 250 -252v-319h-155v309c0 90 -48 139 -140 139c-82 0 -150 -38 -195 -117v-331z" />
    <glyph glyph-name="napostrophe" unicode="&#x149;" horiz-adv-x="957" 
d="M116 719c60 0 98 -46 98 -103c0 -67 -42 -162 -128 -219l-35 44c46 40 73 73 83 116c-4 -4 -12 -6 -24 -6c-48 0 -87 36 -87 84s39 84 93 84zM394 0h-155v551h155v-102c52 78 135 122 240 122c165 0 250 -105 250 -252v-319h-155v311c0 90 -48 143 -142 143
c-80 0 -148 -39 -193 -119v-335z" />
    <glyph glyph-name="ncaron" unicode="&#x148;" horiz-adv-x="798" 
d="M168 792l153 -161h163l153 161h-144l-90 -94l-91 94h-144zM235 0h-155v551h155v-97c45 73 134 117 240 117c165 0 250 -105 250 -252v-319h-155v309c0 90 -48 139 -140 139c-82 0 -150 -38 -195 -117v-331z" />
    <glyph glyph-name="ncommaaccent" unicode="&#x146;" horiz-adv-x="798" 
d="M235 0h-155v551h155v-97c45 73 134 117 240 117c165 0 250 -105 250 -252v-319h-155v309c0 90 -48 139 -140 139c-82 0 -150 -38 -195 -117v-331zM402 -54c60 0 98 -46 98 -103c0 -67 -42 -161 -128 -219l-35 44c46 41 73 74 83 117c-4 -4 -12 -6 -24 -6
c-48 0 -87 35 -87 84c0 46 39 83 93 83z" />
    <glyph glyph-name="eng" unicode="&#x14b;" horiz-adv-x="798" 
d="M475 571c165 0 250 -105 250 -252v-319v-23c0 -123 -79 -198 -200 -198c-42 0 -86 9 -122 23l27 105c18 -6 39 -11 61 -11c48 0 79 28 79 75v154v184c0 90 -48 139 -140 139c-82 0 -150 -38 -195 -117v-331h-155v551h155v-97c45 73 134 117 240 117z" />
    <glyph glyph-name="ntilde" unicode="&#xf1;" horiz-adv-x="798" 
d="M605 799l74 -91c-31 -38 -92 -77 -164 -77c-86 0 -139 55 -218 55c-49 0 -74 -19 -99 -46l-72 90c30 38 91 78 164 78c86 0 136 -55 218 -55c48 0 73 18 97 46zM235 0h-155v551h155v-97c45 73 134 117 240 117c165 0 250 -105 250 -252v-319h-155v309
c0 90 -48 139 -140 139c-82 0 -150 -38 -195 -117v-331z" />
    <glyph glyph-name="o" unicode="o" horiz-adv-x="792" 
d="M396 -22c-218 0 -352 114 -352 297c0 184 134 297 352 297c217 0 352 -113 352 -297c0 -183 -135 -297 -352 -297zM396 104c117 0 203 57 203 171c0 115 -86 171 -203 171c-116 0 -202 -56 -202 -171c0 -114 86 -171 202 -171z" />
    <glyph glyph-name="oacute" unicode="&#xf3;" horiz-adv-x="792" 
d="M643 792l-232 -161h-120l147 161h205zM396 -22c-218 0 -352 114 -352 297c0 184 134 297 352 297c217 0 352 -113 352 -297c0 -183 -135 -297 -352 -297zM396 104c117 0 203 57 203 171c0 115 -86 171 -203 171c-116 0 -202 -56 -202 -171c0 -114 86 -171 202 -171z" />
    <glyph glyph-name="obreve" unicode="&#x14f;" horiz-adv-x="792" 
d="M587 792c0 -61 -46 -168 -190 -168c-145 0 -191 107 -191 168h100c3 -38 34 -77 91 -77c56 0 87 39 90 77h100zM396 -22c-218 0 -352 114 -352 297c0 184 134 297 352 297c217 0 352 -113 352 -297c0 -183 -135 -297 -352 -297zM396 104c117 0 203 57 203 171
c0 115 -86 171 -203 171c-116 0 -202 -56 -202 -171c0 -114 86 -171 202 -171z" />
    <glyph glyph-name="ocircumflex" unicode="&#xf4;" horiz-adv-x="792" 
d="M162 631h144l89 94l91 -94h145l-153 161h-163zM396 -22c-218 0 -352 114 -352 297c0 184 134 297 352 297c217 0 352 -113 352 -297c0 -183 -135 -297 -352 -297zM396 104c117 0 203 57 203 171c0 115 -86 171 -203 171c-116 0 -202 -56 -202 -171
c0 -114 86 -171 202 -171z" />
    <glyph glyph-name="odieresis" unicode="&#xf6;" horiz-adv-x="792" 
d="M260 635c-46 0 -79 29 -79 68c0 41 33 68 79 68c45 0 79 -27 79 -68c0 -39 -34 -68 -79 -68zM533 635c-46 0 -79 29 -79 68c0 41 33 68 79 68c45 0 79 -27 79 -68c0 -39 -34 -68 -79 -68zM396 -22c-218 0 -352 114 -352 297c0 184 134 297 352 297
c217 0 352 -113 352 -297c0 -183 -135 -297 -352 -297zM396 104c117 0 203 57 203 171c0 115 -86 171 -203 171c-116 0 -202 -56 -202 -171c0 -114 86 -171 202 -171z" />
    <glyph glyph-name="ograve" unicode="&#xf2;" horiz-adv-x="792" 
d="M150 792h205l147 -161h-120zM396 -22c-218 0 -352 114 -352 297c0 184 134 297 352 297c217 0 352 -113 352 -297c0 -183 -135 -297 -352 -297zM396 104c117 0 203 57 203 171c0 115 -86 171 -203 171c-116 0 -202 -56 -202 -171c0 -114 86 -171 202 -171z" />
    <glyph glyph-name="ohungarumlaut" unicode="&#x151;" horiz-adv-x="792" 
d="M481 792l-165 -161h-141l164 161h142zM706 792l-165 -161h-141l164 161h142zM396 -22c-218 0 -352 114 -352 297c0 184 134 297 352 297c217 0 352 -113 352 -297c0 -183 -135 -297 -352 -297zM396 104c117 0 203 57 203 171c0 115 -86 171 -203 171
c-116 0 -202 -56 -202 -171c0 -114 86 -171 202 -171z" />
    <glyph glyph-name="omacron" unicode="&#x14d;" horiz-adv-x="792" 
d="M178 759h436v-110h-436v110zM396 -22c-218 0 -352 114 -352 297c0 184 134 297 352 297c217 0 352 -113 352 -297c0 -183 -135 -297 -352 -297zM396 104c117 0 203 57 203 171c0 115 -86 171 -203 171c-116 0 -202 -56 -202 -171c0 -114 86 -171 202 -171z" />
    <glyph glyph-name="oslash" unicode="&#xf8;" horiz-adv-x="792" 
d="M602 527c93 -50 146 -137 146 -252c0 -183 -135 -297 -352 -297c-48 0 -92 5 -131 16l-56 -89h-104l77 122c-88 50 -138 136 -138 248c0 184 134 297 352 297c44 0 85 -5 122 -14l56 88h104zM194 275c0 -59 23 -103 62 -132l189 299c-15 3 -32 4 -49 4
c-116 0 -202 -56 -202 -171zM396 104c117 0 203 57 203 171c0 63 -26 109 -69 137l-192 -303c18 -3 38 -5 58 -5z" />
    <glyph glyph-name="oslashacute" unicode="&#x1ff;" horiz-adv-x="792" 
d="M637 792l-232 -161h-120l147 161h205zM602 527c93 -50 146 -137 146 -252c0 -183 -135 -297 -352 -297c-48 0 -92 5 -131 16l-56 -89h-104l77 122c-88 50 -138 136 -138 248c0 184 134 297 352 297c44 0 85 -5 122 -14l56 88h104zM194 275c0 -59 23 -103 62 -132l189 299
c-15 3 -32 4 -49 4c-116 0 -202 -56 -202 -171zM396 104c117 0 203 57 203 171c0 63 -26 109 -69 137l-192 -303c18 -3 38 -5 58 -5z" />
    <glyph glyph-name="otilde" unicode="&#xf5;" horiz-adv-x="792" 
d="M599 799l74 -91c-31 -38 -92 -77 -164 -77c-86 0 -139 55 -218 55c-49 0 -74 -19 -99 -46l-72 90c30 38 91 78 164 78c86 0 136 -55 218 -55c48 0 73 18 97 46zM396 -22c-218 0 -352 114 -352 297c0 184 134 297 352 297c217 0 352 -113 352 -297
c0 -183 -135 -297 -352 -297zM396 104c117 0 203 57 203 171c0 115 -86 171 -203 171c-116 0 -202 -56 -202 -171c0 -114 86 -171 202 -171z" />
    <glyph glyph-name="oe" unicode="&#x153;" horiz-adv-x="1317" 
d="M747 240c14 -99 89 -144 217 -144c95 0 155 23 213 66l82 -86c-77 -68 -176 -98 -303 -98c-128 0 -226 36 -287 101c-59 -62 -152 -101 -273 -101c-218 0 -352 114 -352 297c0 184 134 298 352 298c120 0 213 -39 273 -101c59 65 154 101 276 101
c200 0 334 -102 334 -297c0 -18 -1 -27 -4 -36h-528zM946 455c-101 0 -170 -38 -192 -116l377 2c-24 79 -87 114 -185 114zM396 105c117 0 202 57 202 170c0 114 -85 172 -202 172c-116 0 -202 -58 -202 -172c0 -113 86 -170 202 -170z" />
    <glyph glyph-name="p" unicode="p" horiz-adv-x="816" 
d="M475 -20c-113 0 -195 49 -240 110v-290h-155v751h155v-89c45 61 127 110 240 110c175 0 297 -116 297 -296s-122 -296 -297 -296zM436 443c-81 0 -152 -27 -200 -90v-154c48 -63 119 -90 200 -90c120 0 188 59 188 167s-68 167 -188 167z" />
    <glyph glyph-name="thorn" unicode="&#xfe;" horiz-adv-x="816" 
d="M475 571c175 0 297 -116 297 -296s-122 -296 -297 -296c-113 0 -195 49 -240 110v-289h-155v940h155v-279c45 61 127 110 240 110zM436 108c120 0 188 59 188 167s-68 167 -188 167c-81 0 -152 -27 -200 -90v-154c48 -63 119 -90 200 -90z" />
    <glyph glyph-name="q" unicode="q" horiz-adv-x="816" 
d="M341 -20c-175 0 -297 116 -297 296s122 296 297 296c113 0 195 -49 240 -110v89h155v-751h-155v290c-45 -61 -127 -110 -240 -110zM380 443c-120 0 -188 -59 -188 -167s68 -167 188 -167c81 0 152 27 200 90v154c-48 63 -119 90 -200 90z" />
    <glyph glyph-name="r" unicode="r" horiz-adv-x="498" 
d="M235 0h-155v551h155v-114c45 83 140 126 246 126v-133c-120 0 -213 -47 -246 -144v-286z" />
    <glyph glyph-name="racute" unicode="&#x155;" horiz-adv-x="498" 
d="M529 792l-232 -161h-120l147 161h205zM235 0h-155v551h155v-114c45 83 140 126 246 126v-133c-120 0 -213 -47 -246 -144v-286z" />
    <glyph glyph-name="rcaron" unicode="&#x159;" horiz-adv-x="498" 
d="M48 792l153 -161h163l153 161h-144l-90 -94l-91 94h-144zM235 0h-155v551h155v-114c45 83 140 126 246 126v-133c-120 0 -213 -47 -246 -144v-286z" />
    <glyph glyph-name="rcommaaccent" unicode="&#x157;" horiz-adv-x="498" 
d="M235 0h-155v551h155v-114c45 83 140 126 246 126v-133c-120 0 -213 -47 -246 -144v-286zM159 -54c60 0 98 -46 98 -103c0 -67 -42 -161 -128 -219l-35 44c46 41 73 74 83 117c-4 -4 -12 -6 -24 -6c-48 0 -87 35 -87 84c0 46 39 83 93 83z" />
    <glyph glyph-name="s" unicode="s" horiz-adv-x="710" 
d="M376 345c173 -10 300 -61 300 -179c0 -106 -101 -188 -302 -188c-143 0 -269 46 -343 109l75 92c57 -49 153 -83 272 -83c88 0 155 16 155 59c0 40 -61 55 -178 63c-155 11 -303 49 -303 172c0 107 100 183 308 183c116 0 223 -37 291 -82l-71 -98
c-56 37 -129 62 -228 62c-64 0 -155 -10 -155 -55c0 -42 75 -49 179 -55z" />
    <glyph glyph-name="sacute" unicode="&#x15b;" horiz-adv-x="710" 
d="M605 792l-232 -161h-120l147 161h205zM376 345c173 -10 300 -61 300 -179c0 -106 -101 -188 -302 -188c-143 0 -269 46 -343 109l75 92c57 -49 153 -83 272 -83c88 0 155 16 155 59c0 40 -61 55 -178 63c-155 11 -303 49 -303 172c0 107 100 183 308 183
c116 0 223 -37 291 -82l-71 -98c-56 37 -129 62 -228 62c-64 0 -155 -10 -155 -55c0 -42 75 -49 179 -55z" />
    <glyph glyph-name="scaron" unicode="&#x161;" horiz-adv-x="710" 
d="M124 792l153 -161h163l153 161h-144l-90 -94l-91 94h-144zM376 345c173 -10 300 -61 300 -179c0 -106 -101 -188 -302 -188c-143 0 -269 46 -343 109l75 92c57 -49 153 -83 272 -83c88 0 155 16 155 59c0 40 -61 55 -178 63c-155 11 -303 49 -303 172
c0 107 100 183 308 183c116 0 223 -37 291 -82l-71 -98c-56 37 -129 62 -228 62c-64 0 -155 -10 -155 -55c0 -42 75 -49 179 -55z" />
    <glyph glyph-name="scedilla" unicode="&#x15f;" horiz-adv-x="710" 
d="M376 345c173 -10 300 -61 300 -179c0 -106 -101 -188 -302 -188c-143 0 -269 46 -343 109l75 92c57 -49 153 -83 272 -83c88 0 155 16 155 59c0 40 -61 55 -178 63c-155 11 -303 49 -303 172c0 107 100 183 308 183c116 0 223 -37 291 -82l-71 -98
c-56 37 -129 62 -228 62c-64 0 -155 -10 -155 -55c0 -42 75 -49 179 -55zM427 -57l-137 -161l-104 28l102 155z" />
    <glyph glyph-name="scircumflex" unicode="&#x15d;" horiz-adv-x="710" 
d="M124 631h144l89 94l91 -94h145l-153 161h-163zM376 345c173 -10 300 -61 300 -179c0 -106 -101 -188 -302 -188c-143 0 -269 46 -343 109l75 92c57 -49 153 -83 272 -83c88 0 155 16 155 59c0 40 -61 55 -178 63c-155 11 -303 49 -303 172c0 107 100 183 308 183
c116 0 223 -37 291 -82l-71 -98c-56 37 -129 62 -228 62c-64 0 -155 -10 -155 -55c0 -42 75 -49 179 -55z" />
    <glyph glyph-name="scommaaccent" unicode="&#x219;" horiz-adv-x="710" 
d="M376 345c173 -10 300 -61 300 -179c0 -106 -101 -188 -302 -188c-143 0 -269 46 -343 109l75 92c57 -49 153 -83 272 -83c88 0 155 16 155 59c0 40 -61 55 -178 63c-155 11 -303 49 -303 172c0 107 100 183 308 183c116 0 223 -37 291 -82l-71 -98
c-56 37 -129 62 -228 62c-64 0 -155 -10 -155 -55c0 -42 75 -49 179 -55zM363 -54c60 0 98 -46 98 -103c0 -67 -42 -161 -128 -219l-35 44c46 41 73 74 83 117c-4 -4 -12 -6 -24 -6c-48 0 -87 35 -87 84c0 46 39 83 93 83z" />
    <glyph glyph-name="germandbls" unicode="&#xdf;" horiz-adv-x="808" 
d="M340 119c31 -9 65 -16 105 -16c105 0 161 39 161 115s-56 116 -164 116h-64v104h36c99 0 156 38 156 106c0 76 -68 102 -154 102c-112 0 -181 -61 -181 -169v-477h-155v455c0 173 112 305 336 305c180 0 308 -85 308 -204c0 -81 -62 -153 -169 -163
c112 -9 210 -76 210 -192c0 -119 -106 -211 -278 -211c-59 0 -119 10 -171 25z" />
    <glyph glyph-name="t" unicode="t" horiz-adv-x="529" 
d="M477 137l32 -105c-47 -32 -116 -53 -181 -53c-116 0 -206 63 -206 187v269h-102v116h102v128h155v-128h227v-116h-227v-242c0 -56 42 -85 97 -85c38 0 72 14 103 29z" />
    <glyph glyph-name="tbar" unicode="&#x167;" horiz-adv-x="529" 
d="M477 137l32 -105c-47 -32 -116 -53 -181 -53c-116 0 -206 63 -206 187v124h-70v70h70v75h-102v116h102v128h155v-128h227v-116h-227v-75h190v-70h-190v-97c0 -56 42 -85 97 -85c38 0 72 14 103 29z" />
    <glyph glyph-name="tcaron" unicode="&#x165;" horiz-adv-x="539" 
d="M401 737c-47 0 -85 36 -85 80c0 46 38 81 90 81c60 0 96 -48 96 -100c0 -72 -40 -152 -126 -209l-31 43c41 38 68 72 78 112c-3 -4 -10 -7 -22 -7zM477 137l32 -105c-47 -32 -116 -53 -181 -53c-116 0 -206 63 -206 187v269h-102v116h102v128h155v-128h227v-116h-227
v-242c0 -56 42 -85 97 -85c38 0 72 14 103 29z" />
    <glyph glyph-name="uni0163" unicode="&#x163;" horiz-adv-x="529" 
d="M328 -21c-116 0 -206 63 -206 187v269h-102v116h102v128h155v-128h227v-116h-227v-242c0 -56 42 -85 97 -85c38 0 72 14 103 29l32 -105c-47 -32 -116 -53 -181 -53zM130 -190l102 155l139 -22l-137 -161z" />
    <glyph glyph-name="uni021B" unicode="&#x21b;" horiz-adv-x="529" 
d="M509 32c-47 -32 -116 -53 -181 -53c-116 0 -206 63 -206 187v269h-102v116h102v128h155v-128h227v-116h-227v-242c0 -56 42 -85 97 -85c38 0 72 14 103 29zM307 -54c60 0 98 -46 98 -103c0 -67 -42 -161 -128 -219l-35 44c46 41 73 74 83 117c-4 -4 -12 -6 -24 -6
c-48 0 -87 35 -87 84c0 46 39 83 93 83z" />
    <glyph glyph-name="u" unicode="u" horiz-adv-x="798" 
d="M563 551h155v-551h-155v97c-45 -73 -134 -117 -240 -117c-165 0 -250 105 -250 252v319h155v-309c0 -90 48 -139 140 -139c82 0 150 38 195 117v331z" />
    <glyph glyph-name="uacute" unicode="&#xfa;" horiz-adv-x="798" 
d="M636 792l-232 -161h-120l147 161h205zM563 551h155v-551h-155v97c-45 -73 -134 -117 -240 -117c-165 0 -250 105 -250 252v319h155v-309c0 -90 48 -139 140 -139c82 0 150 38 195 117v331z" />
    <glyph glyph-name="ubreve" unicode="&#x16d;" horiz-adv-x="798" 
d="M580 792c0 -61 -46 -168 -190 -168c-145 0 -191 107 -191 168h100c3 -38 34 -77 91 -77c56 0 87 39 90 77h100zM563 551h155v-551h-155v97c-45 -73 -134 -117 -240 -117c-165 0 -250 105 -250 252v319h155v-309c0 -90 48 -139 140 -139c82 0 150 38 195 117v331z" />
    <glyph glyph-name="ucircumflex" unicode="&#xfb;" horiz-adv-x="798" 
d="M155 631h144l89 94l91 -94h145l-153 161h-163zM563 551h155v-551h-155v97c-45 -73 -134 -117 -240 -117c-165 0 -250 105 -250 252v319h155v-309c0 -90 48 -139 140 -139c82 0 150 38 195 117v331z" />
    <glyph glyph-name="udieresis" unicode="&#xfc;" horiz-adv-x="798" 
d="M253 635c-46 0 -79 29 -79 68c0 41 33 68 79 68c45 0 79 -27 79 -68c0 -39 -34 -68 -79 -68zM526 635c-46 0 -79 29 -79 68c0 41 33 68 79 68c45 0 79 -27 79 -68c0 -39 -34 -68 -79 -68zM563 551h155v-551h-155v97c-45 -73 -134 -117 -240 -117
c-165 0 -250 105 -250 252v319h155v-309c0 -90 48 -139 140 -139c82 0 150 38 195 117v331z" />
    <glyph glyph-name="ugrave" unicode="&#xf9;" horiz-adv-x="798" 
d="M143 792h205l147 -161h-120zM563 551h155v-551h-155v97c-45 -73 -134 -117 -240 -117c-165 0 -250 105 -250 252v319h155v-309c0 -90 48 -139 140 -139c82 0 150 38 195 117v331z" />
    <glyph glyph-name="uhungarumlaut" unicode="&#x171;" horiz-adv-x="798" 
d="M474 792l-165 -161h-141l164 161h142zM699 792l-165 -161h-141l164 161h142zM563 551h155v-551h-155v97c-45 -73 -134 -117 -240 -117c-165 0 -250 105 -250 252v319h155v-309c0 -90 48 -139 140 -139c82 0 150 38 195 117v331z" />
    <glyph glyph-name="umacron" unicode="&#x16b;" horiz-adv-x="798" 
d="M171 759h436v-110h-436v110zM563 551h155v-551h-155v97c-45 -73 -134 -117 -240 -117c-165 0 -250 105 -250 252v319h155v-309c0 -90 48 -139 140 -139c82 0 150 38 195 117v331z" />
    <glyph glyph-name="uogonek" unicode="&#x173;" horiz-adv-x="798" 
d="M732 -161l28 -36c-20 -24 -61 -53 -130 -53c-75 0 -150 35 -150 113c0 59 41 112 115 137h-32v97c-45 -73 -134 -117 -240 -117c-165 0 -250 105 -250 252v319h155v-309c0 -90 48 -139 140 -139c82 0 150 38 195 117v331h155v-551h-13c-58 -22 -115 -71 -115 -126
c0 -40 32 -61 71 -61c29 0 54 10 71 26z" />
    <glyph glyph-name="uring" unicode="&#x16f;" horiz-adv-x="798" 
d="M389 622c-87 0 -150 39 -150 115c0 75 63 117 150 117s151 -42 151 -117c0 -76 -64 -115 -151 -115zM329 737c0 -35 24 -55 60 -55s61 20 61 55c0 34 -25 54 -61 54s-60 -20 -60 -54zM563 551h155v-551h-155v97c-45 -73 -134 -117 -240 -117c-165 0 -250 105 -250 252
v319h155v-309c0 -90 48 -139 140 -139c82 0 150 38 195 117v331z" />
    <glyph glyph-name="utilde" unicode="&#x169;" horiz-adv-x="798" 
d="M592 799l74 -91c-31 -38 -92 -77 -164 -77c-86 0 -139 55 -218 55c-49 0 -74 -19 -99 -46l-72 90c30 38 91 78 164 78c86 0 136 -55 218 -55c48 0 73 18 97 46zM563 551h155v-551h-155v97c-45 -73 -134 -117 -240 -117c-165 0 -250 105 -250 252v319h155v-309
c0 -90 48 -139 140 -139c82 0 150 38 195 117v331z" />
    <glyph glyph-name="v" unicode="v" horiz-adv-x="731" 
d="M723 551l-276 -551h-162l-277 551h167l192 -404l192 404h164z" />
    <glyph glyph-name="w" unicode="w" horiz-adv-x="1025" 
d="M857 551h150l-200 -551h-152l-142 400l-143 -400h-153l-199 551h153l133 -389l138 389h143l139 -389z" />
    <glyph glyph-name="wacute" unicode="&#x1e83;" horiz-adv-x="1025" 
d="M761 792l-232 -161h-120l147 161h205zM857 551h150l-200 -551h-152l-142 400l-143 -400h-153l-199 551h153l133 -389l138 389h143l139 -389z" />
    <glyph glyph-name="wcircumflex" unicode="&#x175;" horiz-adv-x="1025" 
d="M280 631h144l89 94l91 -94h145l-153 161h-163zM857 551h150l-200 -551h-152l-142 400l-143 -400h-153l-199 551h153l133 -389l138 389h143l139 -389z" />
    <glyph glyph-name="wdieresis" unicode="&#x1e85;" horiz-adv-x="1025" 
d="M378 635c-46 0 -79 29 -79 68c0 41 33 68 79 68c45 0 79 -27 79 -68c0 -39 -34 -68 -79 -68zM651 635c-46 0 -79 29 -79 68c0 41 33 68 79 68c45 0 79 -27 79 -68c0 -39 -34 -68 -79 -68zM857 551h150l-200 -551h-152l-142 400l-143 -400h-153l-199 551h153l133 -389
l138 389h143l139 -389z" />
    <glyph glyph-name="wgrave" unicode="&#x1e81;" horiz-adv-x="1025" 
d="M268 792h205l147 -161h-120zM857 551h150l-200 -551h-152l-142 400l-143 -400h-153l-199 551h153l133 -389l138 389h143l139 -389z" />
    <glyph glyph-name="x" unicode="x" horiz-adv-x="692" 
d="M679 551l-243 -270l248 -281h-179l-162 189l-164 -189h-171l248 278l-244 273h178l159 -184l159 184h171z" />
    <glyph glyph-name="y" unicode="y" horiz-adv-x="725" 
d="M557 551h160l-402 -751h-158l131 234l-280 517h163l196 -373z" />
    <glyph glyph-name="yacute" unicode="&#xfd;" horiz-adv-x="725" 
d="M611 792l-232 -161h-120l147 161h205zM557 551h160l-402 -751h-158l131 234l-280 517h163l196 -373z" />
    <glyph glyph-name="ycircumflex" unicode="&#x177;" horiz-adv-x="725" 
d="M130 631h144l89 94l91 -94h145l-153 161h-163zM557 551h160l-402 -751h-158l131 234l-280 517h163l196 -373z" />
    <glyph glyph-name="ydieresis" unicode="&#xff;" horiz-adv-x="725" 
d="M228 635c-46 0 -79 29 -79 68c0 41 33 68 79 68c45 0 79 -27 79 -68c0 -39 -34 -68 -79 -68zM501 635c-46 0 -79 29 -79 68c0 41 33 68 79 68c45 0 79 -27 79 -68c0 -39 -34 -68 -79 -68zM557 551h160l-402 -751h-158l131 234l-280 517h163l196 -373z" />
    <glyph glyph-name="ygrave" unicode="&#x1ef3;" horiz-adv-x="725" 
d="M118 792h205l147 -161h-120zM557 551h160l-402 -751h-158l131 234l-280 517h163l196 -373z" />
    <glyph glyph-name="z" unicode="z" horiz-adv-x="692" 
d="M638 551v-96l-384 -338h396v-118h-611v97l384 338h-370v117h585z" />
    <glyph glyph-name="zacute" unicode="&#x17a;" horiz-adv-x="692" 
d="M599 792l-232 -161h-120l147 161h205zM638 551v-96l-384 -338h396v-118h-611v97l384 338h-370v117h585z" />
    <glyph glyph-name="zcaron" unicode="&#x17e;" horiz-adv-x="692" 
d="M118 792l153 -161h163l153 161h-144l-90 -94l-91 94h-144zM638 551v-96l-384 -338h396v-118h-611v97l384 338h-370v117h585z" />
    <glyph glyph-name="zdotaccent" unicode="&#x17c;" horiz-adv-x="692" 
d="M352 635c-45 0 -76 25 -76 64c0 41 31 66 76 66s75 -25 75 -66c0 -39 -30 -64 -75 -64zM638 551v-96l-384 -338h396v-118h-611v97l384 338h-370v117h585z" />
    <glyph glyph-name="germandbls.case" horiz-adv-x="883" 
d="M362 123c33 -10 90 -22 147 -22c106 0 167 32 167 106s-57 108 -167 108h-106v105h77c102 0 159 32 159 96c0 75 -85 93 -172 93c-140 0 -225 -67 -225 -186v-423h-160v407c0 188 140 315 384 315c182 0 333 -68 333 -190c0 -81 -63 -143 -170 -155
c113 -8 211 -65 211 -181c0 -123 -117 -210 -291 -210c-75 0 -157 13 -208 28z" />
    <glyph glyph-name="a.ss01" horiz-adv-x="816" 
d="M341 571c113 0 195 -49 240 -110v90h155v-551h-155v89c-45 -61 -127 -110 -240 -110c-175 0 -297 116 -297 296s122 296 297 296zM380 108c81 0 152 27 200 90v154c-48 63 -119 90 -200 90c-120 0 -188 -59 -188 -167s68 -167 188 -167z" />
    <glyph glyph-name="aacute.ss01" horiz-adv-x="816" 
d="M662 792l-232 -161h-120l147 161h205zM341 571c113 0 195 -49 240 -110v90h155v-551h-155v89c-45 -61 -127 -110 -240 -110c-175 0 -297 116 -297 296s122 296 297 296zM380 108c81 0 152 27 200 90v154c-48 63 -119 90 -200 90c-120 0 -188 -59 -188 -167
s68 -167 188 -167z" />
    <glyph glyph-name="abreve.ss01" horiz-adv-x="816" 
d="M606 792c0 -61 -46 -168 -190 -168c-145 0 -191 107 -191 168h100c3 -38 34 -77 91 -77c56 0 87 39 90 77h100zM341 571c113 0 195 -49 240 -110v90h155v-551h-155v89c-45 -61 -127 -110 -240 -110c-175 0 -297 116 -297 296s122 296 297 296zM380 108
c81 0 152 27 200 90v154c-48 63 -119 90 -200 90c-120 0 -188 -59 -188 -167s68 -167 188 -167z" />
    <glyph glyph-name="acircumflex.ss01" horiz-adv-x="816" 
d="M181 631h144l89 94l91 -94h145l-153 161h-163zM341 571c113 0 195 -49 240 -110v90h155v-551h-155v89c-45 -61 -127 -110 -240 -110c-175 0 -297 116 -297 296s122 296 297 296zM380 108c81 0 152 27 200 90v154c-48 63 -119 90 -200 90c-120 0 -188 -59 -188 -167
s68 -167 188 -167z" />
    <glyph glyph-name="adieresis.ss01" horiz-adv-x="816" 
d="M279 635c-46 0 -79 29 -79 68c0 41 33 68 79 68c45 0 79 -27 79 -68c0 -39 -34 -68 -79 -68zM552 635c-46 0 -79 29 -79 68c0 41 33 68 79 68c45 0 79 -27 79 -68c0 -39 -34 -68 -79 -68zM341 571c113 0 195 -49 240 -110v90h155v-551h-155v89
c-45 -61 -127 -110 -240 -110c-175 0 -297 116 -297 296s122 296 297 296zM380 108c81 0 152 27 200 90v154c-48 63 -119 90 -200 90c-120 0 -188 -59 -188 -167s68 -167 188 -167z" />
    <glyph glyph-name="agrave.ss01" horiz-adv-x="816" 
d="M169 792h205l147 -161h-120zM341 571c113 0 195 -49 240 -110v90h155v-551h-155v89c-45 -61 -127 -110 -240 -110c-175 0 -297 116 -297 296s122 296 297 296zM380 108c81 0 152 27 200 90v154c-48 63 -119 90 -200 90c-120 0 -188 -59 -188 -167s68 -167 188 -167z" />
    <glyph glyph-name="amacron.ss01" horiz-adv-x="816" 
d="M197 759h436v-110h-436v110zM341 571c113 0 195 -49 240 -110v90h155v-551h-155v89c-45 -61 -127 -110 -240 -110c-175 0 -297 116 -297 296s122 296 297 296zM380 108c81 0 152 27 200 90v154c-48 63 -119 90 -200 90c-120 0 -188 -59 -188 -167s68 -167 188 -167z" />
    <glyph glyph-name="aogonek.ss01" horiz-adv-x="816" 
d="M763 -161l28 -36c-20 -24 -61 -53 -130 -53c-75 0 -150 35 -150 113c0 59 41 112 115 137h-45v89c-45 -61 -127 -110 -240 -110c-175 0 -297 116 -297 296s122 296 297 296c113 0 195 -49 240 -110v90h155v-551c-58 -22 -115 -71 -115 -126c0 -40 32 -61 71 -61
c29 0 54 10 71 26zM580 198v154c-48 63 -119 90 -200 90c-120 0 -188 -59 -188 -167s68 -167 188 -167c81 0 152 27 200 90z" />
    <glyph glyph-name="aring.ss01" horiz-adv-x="816" 
d="M415 622c-87 0 -150 39 -150 115c0 75 63 117 150 117s151 -42 151 -117c0 -76 -64 -115 -151 -115zM355 737c0 -35 24 -55 60 -55s61 20 61 55c0 34 -25 54 -61 54s-60 -20 -60 -54zM341 571c113 0 195 -49 240 -110v90h155v-551h-155v89c-45 -61 -127 -110 -240 -110
c-175 0 -297 116 -297 296s122 296 297 296zM380 108c81 0 152 27 200 90v154c-48 63 -119 90 -200 90c-120 0 -188 -59 -188 -167s68 -167 188 -167z" />
    <glyph glyph-name="aringacute.ss01" horiz-adv-x="816" 
d="M415 622c-87 0 -150 39 -150 115c0 29 9 53 26 71l-3 1l112 133h154l-114 -89c74 -7 126 -48 126 -116c0 -76 -64 -115 -151 -115zM476 737c0 34 -25 54 -61 54s-60 -20 -60 -54c0 -35 24 -55 60 -55s61 20 61 55zM581 551h155v-551h-155v89c-45 -61 -127 -110 -240 -110
c-175 0 -297 116 -297 296s122 296 297 296c113 0 195 -49 240 -110v90zM580 198v154c-48 63 -119 90 -200 90c-120 0 -188 -59 -188 -167s68 -167 188 -167c81 0 152 27 200 90z" />
    <glyph glyph-name="atilde.ss01" horiz-adv-x="816" 
d="M618 799l74 -91c-31 -38 -92 -77 -164 -77c-86 0 -139 55 -218 55c-49 0 -74 -19 -99 -46l-72 90c30 38 91 78 164 78c86 0 136 -55 218 -55c48 0 73 18 97 46zM341 571c113 0 195 -49 240 -110v90h155v-551h-155v89c-45 -61 -127 -110 -240 -110
c-175 0 -297 116 -297 296s122 296 297 296zM380 108c81 0 152 27 200 90v154c-48 63 -119 90 -200 90c-120 0 -188 -59 -188 -167s68 -167 188 -167z" />
    <glyph glyph-name="a.sc" horiz-adv-x="853" 
d="M678 0l-67 126h-370l-67 -126h-168l337 611h169l336 -611h-170zM302 242h248l-124 234z" />
    <glyph glyph-name="aacute.sc" horiz-adv-x="853" 
d="M674 852l-232 -161h-120l147 161h205zM678 0l-67 126h-370l-67 -126h-168l337 611h169l336 -611h-170zM302 242h248l-124 234z" />
    <glyph glyph-name="abreve.sc" horiz-adv-x="853" 
d="M428 684c-145 0 -191 107 -191 168h100c3 -38 34 -77 91 -77c56 0 87 39 90 77h100c0 -61 -46 -168 -190 -168zM678 0l-67 126h-370l-67 -126h-168l337 611h169l336 -611h-170zM302 242h248l-124 234z" />
    <glyph glyph-name="acircumflex.sc" horiz-adv-x="853" 
d="M426 785l-89 -94h-144l153 161h163l153 -161h-145zM678 0l-67 126h-370l-67 -126h-168l337 611h169l336 -611h-170zM302 242h248l-124 234z" />
    <glyph glyph-name="adieresis.sc" horiz-adv-x="853" 
d="M291 695c-46 0 -79 29 -79 68c0 41 33 68 79 68c45 0 79 -27 79 -68c0 -39 -34 -68 -79 -68zM564 695c-46 0 -79 29 -79 68c0 41 33 68 79 68c45 0 79 -27 79 -68c0 -39 -34 -68 -79 -68zM678 0l-67 126h-370l-67 -126h-168l337 611h169l336 -611h-170zM302 242h248
l-124 234z" />
    <glyph glyph-name="agrave.sc" horiz-adv-x="853" 
d="M533 691h-120l-232 161h205zM678 0l-67 126h-370l-67 -126h-168l337 611h169l336 -611h-170zM302 242h248l-124 234z" />
    <glyph glyph-name="amacron.sc" horiz-adv-x="853" 
d="M645 819v-110h-436v110h436zM678 0l-67 126h-370l-67 -126h-168l337 611h169l336 -611h-170zM302 242h248l-124 234z" />
    <glyph glyph-name="aogonek.sc" horiz-adv-x="853" 
d="M874 -161l28 -36c-20 -24 -61 -53 -130 -53c-75 0 -150 35 -150 113c0 59 41 112 115 137h-59l-67 126h-370l-67 -126h-168l337 611h169l336 -611h-1c-58 -22 -115 -71 -115 -126c0 -40 32 -61 71 -61c29 0 54 10 71 26zM302 242h248l-124 234z" />
    <glyph glyph-name="aring.sc" horiz-adv-x="853" 
d="M427 682c-87 0 -150 39 -150 115c0 75 63 117 150 117s151 -42 151 -117c0 -76 -64 -115 -151 -115zM427 851c-36 0 -60 -20 -60 -54c0 -35 24 -55 60 -55s61 20 61 55c0 34 -25 54 -61 54zM678 0l-67 126h-370l-67 -126h-168l337 611h169l336 -611h-170zM302 242h248
l-124 234z" />
    <glyph glyph-name="aringacute.sc" horiz-adv-x="853" 
d="M427 682c-87 0 -150 39 -150 115c0 34 13 62 36 82l104 123h154l-115 -90c72 -8 122 -49 122 -115c0 -76 -64 -115 -151 -115zM488 797c0 34 -25 54 -61 54s-60 -20 -60 -54c0 -35 24 -55 60 -55s61 20 61 55zM678 0l-67 126h-370l-67 -126h-168l337 611h169l336 -611
h-170zM302 242h248l-124 234z" />
    <glyph glyph-name="atilde.sc" horiz-adv-x="853" 
d="M322 746c-49 0 -74 -19 -99 -46l-72 90c30 38 91 78 164 78c86 0 136 -55 218 -55c48 0 73 18 97 46l74 -91c-31 -38 -92 -77 -164 -77c-86 0 -139 55 -218 55zM678 0l-67 126h-370l-67 -126h-168l337 611h169l336 -611h-170zM302 242h248l-124 234z" />
    <glyph glyph-name="ae.sc" horiz-adv-x="1310" 
d="M757 128h507v-128h-663v125h-323l-110 -125h-179l547 611h82h636v-127h-497v-112h412v-125h-412v-119zM382 243h219v249z" />
    <glyph glyph-name="aeacute.sc" horiz-adv-x="1310" 
d="M1097 852l-232 -161h-120l147 161h205zM757 128h507v-128h-663v125h-323l-110 -125h-179l547 611h82h636v-127h-497v-112h412v-125h-412v-119zM382 243h219v249z" />
    <glyph glyph-name="b.sc" horiz-adv-x="867" 
d="M641 318c96 -6 180 -53 180 -149c0 -107 -98 -169 -252 -169h-479v611h443c154 0 251 -58 251 -156c0 -70 -53 -134 -143 -137zM244 496v-125h263c75 0 122 12 122 62c0 49 -47 63 -122 63h-263zM538 116c76 0 122 15 122 69c0 55 -46 72 -122 72h-294v-141h294z" />
    <glyph glyph-name="c.sc" horiz-adv-x="822" 
d="M449 113c91 0 148 27 202 94l143 -67c-58 -99 -181 -161 -348 -161c-240 0 -398 123 -398 326c0 204 158 327 403 327c162 0 284 -64 341 -160l-143 -67c-53 64 -109 93 -200 93c-146 0 -242 -66 -242 -193c0 -125 96 -192 242 -192z" />
    <glyph glyph-name="cacute.sc" horiz-adv-x="822" 
d="M686 853l-232 -161h-120l147 161h205zM449 113c91 0 148 27 202 94l143 -67c-58 -99 -181 -161 -348 -161c-240 0 -398 123 -398 326c0 204 158 327 403 327c162 0 284 -64 341 -160l-143 -67c-53 64 -109 93 -200 93c-146 0 -242 -66 -242 -193c0 -125 96 -192 242 -192
z" />
    <glyph glyph-name="ccaron.sc" horiz-adv-x="822" 
d="M205 853l153 -161h163l153 161h-144l-90 -94l-91 94h-144zM449 113c91 0 148 27 202 94l143 -67c-58 -99 -181 -161 -348 -161c-240 0 -398 123 -398 326c0 204 158 327 403 327c162 0 284 -64 341 -160l-143 -67c-53 64 -109 93 -200 93c-146 0 -242 -66 -242 -193
c0 -125 96 -192 242 -192z" />
    <glyph glyph-name="ccedilla.sc" horiz-adv-x="822" 
d="M449 113c91 0 148 27 202 94l143 -67c-58 -99 -181 -161 -348 -161c-240 0 -398 123 -398 326c0 204 158 327 403 327c162 0 284 -64 341 -160l-143 -67c-53 64 -109 93 -200 93c-146 0 -242 -66 -242 -193c0 -125 96 -192 242 -192zM510 -57l-137 -161l-104 28l102 155z
" />
    <glyph glyph-name="ccircumflex.sc" horiz-adv-x="822" 
d="M205 692h144l89 94l91 -94h145l-153 161h-163zM449 113c91 0 148 27 202 94l143 -67c-58 -99 -181 -161 -348 -161c-240 0 -398 123 -398 326c0 204 158 327 403 327c162 0 284 -64 341 -160l-143 -67c-53 64 -109 93 -200 93c-146 0 -242 -66 -242 -193
c0 -125 96 -192 242 -192z" />
    <glyph glyph-name="cdotaccent.sc" horiz-adv-x="822" 
d="M439 696c-45 0 -76 25 -76 64c0 41 31 66 76 66s75 -25 75 -66c0 -39 -30 -64 -75 -64zM449 113c91 0 148 27 202 94l143 -67c-58 -99 -181 -161 -348 -161c-240 0 -398 123 -398 326c0 204 158 327 403 327c162 0 284 -64 341 -160l-143 -67c-53 64 -109 93 -200 93
c-146 0 -242 -66 -242 -193c0 -125 96 -192 242 -192z" />
    <glyph glyph-name="d.sc" horiz-adv-x="878" 
d="M433 611c242 0 397 -114 397 -306c0 -190 -155 -305 -397 -305h-343v611h343zM421 132c149 0 250 57 250 173c0 118 -101 174 -250 174h-175v-347h175z" />
    <glyph glyph-name="eth.sc" horiz-adv-x="898" 
d="M456 611c243 0 394 -114 394 -306c0 -190 -151 -305 -394 -305h-346v264h-89v95h89v252h346zM441 131c149 0 249 56 249 174c0 119 -100 176 -249 176h-176v-122h180v-95h-180v-133h176z" />
    <glyph glyph-name="dcaron.sc" horiz-adv-x="878" 
d="M191 852l153 -161h163l153 161h-144l-90 -94l-91 94h-144zM433 611c242 0 397 -114 397 -306c0 -190 -155 -305 -397 -305h-343v611h343zM421 132c149 0 250 57 250 173c0 118 -101 174 -250 174h-175v-347h175z" />
    <glyph glyph-name="dcroat.sc" horiz-adv-x="898" 
d="M456 611c243 0 394 -114 394 -306c0 -190 -151 -305 -394 -305h-346v264h-89v95h89v252h346zM441 131c149 0 249 56 249 174c0 119 -100 176 -249 176h-176v-122h180v-95h-180v-133h176z" />
    <glyph glyph-name="e.sc" 
d="M246 128h507v-128h-663v611h653v-128h-497v-110h412v-126h-412v-119z" />
    <glyph glyph-name="eacute.sc" 
d="M660 852l-232 -161h-120l147 161h205zM246 128h507v-128h-663v611h653v-128h-497v-110h412v-126h-412v-119z" />
    <glyph glyph-name="ebreve.sc" 
d="M604 852c0 -61 -46 -168 -190 -168c-145 0 -191 107 -191 168h100c3 -38 34 -77 91 -77c56 0 87 39 90 77h100zM246 128h507v-128h-663v611h653v-128h-497v-110h412v-126h-412v-119z" />
    <glyph glyph-name="ecaron.sc" 
d="M179 852l153 -161h163l153 161h-144l-90 -94l-91 94h-144zM246 128h507v-128h-663v611h653v-128h-497v-110h412v-126h-412v-119z" />
    <glyph glyph-name="ecircumflex.sc" 
d="M179 691h144l89 94l91 -94h145l-153 161h-163zM246 128h507v-128h-663v611h653v-128h-497v-110h412v-126h-412v-119z" />
    <glyph glyph-name="edieresis.sc" 
d="M277 695c-46 0 -79 29 -79 68c0 41 33 68 79 68c45 0 79 -27 79 -68c0 -39 -34 -68 -79 -68zM550 695c-46 0 -79 29 -79 68c0 41 33 68 79 68c45 0 79 -27 79 -68c0 -39 -34 -68 -79 -68zM246 128h507v-128h-663v611h653v-128h-497v-110h412v-126h-412v-119z" />
    <glyph glyph-name="edotaccent.sc" 
d="M413 695c-45 0 -76 25 -76 64c0 41 31 66 76 66s75 -25 75 -66c0 -39 -30 -64 -75 -64zM246 128h507v-128h-663v611h653v-128h-497v-110h412v-126h-412v-119z" />
    <glyph glyph-name="egrave.sc" 
d="M167 852h205l147 -161h-120zM246 128h507v-128h-663v611h653v-128h-497v-110h412v-126h-412v-119z" />
    <glyph glyph-name="emacron.sc" 
d="M195 819h436v-110h-436v110zM246 128h507v-128h-663v611h653v-128h-497v-110h412v-126h-412v-119z" />
    <glyph glyph-name="eogonek.sc" 
d="M778 -161l28 -36c-20 -24 -61 -53 -130 -53c-75 0 -150 35 -150 113c0 59 41 112 115 137h-551v611h653v-128h-497v-110h412v-126h-412v-119h507v-128h-2c-58 -22 -115 -71 -115 -126c0 -40 32 -61 71 -61c29 0 54 10 71 26z" />
    <glyph glyph-name="f.sc" horiz-adv-x="768" 
d="M741 481h-494v-127h413v-130h-413v-224h-157v611h651v-130z" />
    <glyph glyph-name="fi.sc" horiz-adv-x="1105" 
d="M741 481h-494v-127h413v-130h-413v-224h-157v611h651v-130zM1015 0h-157v611h157v-611z" />
    <glyph glyph-name="fl.sc" horiz-adv-x="1483" 
d="M741 481h-494v-127h413v-130h-413v-224h-157v611h651v-130zM1015 132h445v-132h-602v611h157v-479z" />
    <glyph glyph-name="g.sc" horiz-adv-x="877" 
d="M826 342v-216c-63 -87 -192 -147 -363 -147c-258 0 -415 122 -415 326c0 205 157 327 414 327c158 0 261 -45 337 -112l-128 -89c-51 50 -116 71 -202 71c-168 0 -262 -68 -262 -197c0 -128 96 -197 262 -197c91 0 166 16 210 69v54h-232v111h379z" />
    <glyph glyph-name="gbreve.sc" horiz-adv-x="877" 
d="M650 853c0 -61 -46 -168 -190 -168c-145 0 -191 107 -191 168h100c3 -38 34 -77 91 -77c56 0 87 39 90 77h100zM826 342v-216c-63 -87 -192 -147 -363 -147c-258 0 -415 122 -415 326c0 205 157 327 414 327c158 0 261 -45 337 -112l-128 -89c-51 50 -116 71 -202 71
c-168 0 -262 -68 -262 -197c0 -128 96 -197 262 -197c91 0 166 16 210 69v54h-232v111h379z" />
    <glyph glyph-name="gcircumflex.sc" horiz-adv-x="877" 
d="M225 692h144l89 94l91 -94h145l-153 161h-163zM826 342v-216c-63 -87 -192 -147 -363 -147c-258 0 -415 122 -415 326c0 205 157 327 414 327c158 0 261 -45 337 -112l-128 -89c-51 50 -116 71 -202 71c-168 0 -262 -68 -262 -197c0 -128 96 -197 262 -197
c91 0 166 16 210 69v54h-232v111h379z" />
    <glyph glyph-name="gcommaaccent.sc" horiz-adv-x="877" 
d="M826 342v-216c-63 -87 -192 -147 -363 -147c-258 0 -415 122 -415 326c0 205 157 327 414 327c158 0 261 -45 337 -112l-128 -89c-51 50 -116 71 -202 71c-168 0 -262 -68 -262 -197c0 -128 96 -197 262 -197c91 0 166 16 210 69v54h-232v111h379zM460 -54
c60 0 98 -46 98 -103c0 -67 -42 -161 -128 -219l-35 44c46 41 73 74 83 117c-4 -4 -12 -6 -24 -6c-48 0 -87 35 -87 84c0 46 39 83 93 83z" />
    <glyph glyph-name="gdotaccent.sc" horiz-adv-x="877" 
d="M459 696c-45 0 -76 25 -76 64c0 41 31 66 76 66s75 -25 75 -66c0 -39 -30 -64 -75 -64zM826 342v-216c-63 -87 -192 -147 -363 -147c-258 0 -415 122 -415 326c0 205 157 327 414 327c158 0 261 -45 337 -112l-128 -89c-51 50 -116 71 -202 71c-168 0 -262 -68 -262 -197
c0 -128 96 -197 262 -197c91 0 166 16 210 69v54h-232v111h379z" />
    <glyph glyph-name="h.sc" horiz-adv-x="913" 
d="M666 611h157v-611h-157v242h-419v-242h-157v611h157v-232h419v232z" />
    <glyph glyph-name="hbar.sc" horiz-adv-x="971" 
d="M946 514v-69h-95v-445h-157v242h-419v-242h-157v445h-95v69h95v97h157v-97h419v97h157v-97h95zM694 379v66h-419v-66h419z" />
    <glyph glyph-name="hcircumflex.sc" horiz-adv-x="913" 
d="M223 692h144l89 94l91 -94h145l-153 161h-163zM666 611h157v-611h-157v242h-419v-242h-157v611h157v-232h419v232z" />
    <glyph glyph-name="i.sc" horiz-adv-x="337" 
d="M247 0h-157v611h157v-611z" />
    <glyph glyph-name="iacute.sc" horiz-adv-x="337" 
d="M415 852l-232 -161h-120l147 161h205zM247 0h-157v611h157v-611z" />
    <glyph glyph-name="ibreve.sc" horiz-adv-x="337" 
d="M359 852c0 -61 -46 -168 -190 -168c-145 0 -191 107 -191 168h100c3 -38 34 -77 91 -77c56 0 87 39 90 77h100zM247 0h-157v611h157v-611z" />
    <glyph glyph-name="icircumflex.sc" horiz-adv-x="337" 
d="M-66 691h144l89 94l91 -94h145l-153 161h-163zM247 0h-157v611h157v-611z" />
    <glyph glyph-name="idieresis.sc" horiz-adv-x="337" 
d="M32 695c-46 0 -79 29 -79 68c0 41 33 68 79 68c45 0 79 -27 79 -68c0 -39 -34 -68 -79 -68zM305 695c-46 0 -79 29 -79 68c0 41 33 68 79 68c45 0 79 -27 79 -68c0 -39 -34 -68 -79 -68zM247 0h-157v611h157v-611z" />
    <glyph glyph-name="i.sc.loclTRK" horiz-adv-x="337" 
d="M168 695c-45 0 -76 25 -76 64c0 41 31 66 76 66s75 -25 75 -66c0 -39 -30 -64 -75 -64zM247 0h-157v611h157v-611z" />
    <glyph glyph-name="igrave.sc" horiz-adv-x="337" 
d="M-78 852h205l147 -161h-120zM247 0h-157v611h157v-611z" />
    <glyph glyph-name="ij.sc" horiz-adv-x="1011" 
d="M247 0h-157v611h157v-611zM457 179c35 -42 77 -66 154 -66c120 0 165 63 165 164v334h157v-346c0 -164 -105 -286 -322 -286c-131 0 -214 43 -269 113z" />
    <glyph glyph-name="imacron.sc" horiz-adv-x="348" 
d="M-44 908h436v-110h-436v110zM254 0h-160v700h160v-700z" />
    <glyph glyph-name="iogonek.sc" horiz-adv-x="348" 
d="M280 -161l28 -36c-20 -24 -61 -53 -130 -53c-75 0 -150 35 -150 113c0 59 41 112 115 137h-49v700h160v-700h-1c-58 -22 -115 -71 -115 -126c0 -40 32 -61 71 -61c29 0 54 10 71 26z" />
    <glyph glyph-name="itilde.sc" horiz-adv-x="348" 
d="M377 948l74 -91c-31 -38 -92 -77 -164 -77c-86 0 -139 55 -218 55c-49 0 -74 -19 -99 -46l-72 90c30 38 91 78 164 78c86 0 136 -55 218 -55c48 0 73 18 97 46zM254 0h-160v700h160v-700z" />
    <glyph glyph-name="j.sc" horiz-adv-x="674" 
d="M120 179c35 -42 77 -66 154 -66c120 0 165 63 165 164v334h157v-346c0 -164 -105 -286 -322 -286c-131 0 -214 43 -269 113z" />
    <glyph glyph-name="jcircumflex.sc" horiz-adv-x="674" 
d="M284 691h144l89 94l91 -94h145l-153 161h-163zM120 179c35 -42 77 -66 154 -66c120 0 165 63 165 164v334h157v-346c0 -164 -105 -286 -322 -286c-131 0 -214 43 -269 113z" />
    <glyph glyph-name="k.sc" horiz-adv-x="832" 
d="M644 0l-239 282l-158 -130v-152h-157v611h157v-299l361 299h205l-291 -241l309 -370h-187z" />
    <glyph glyph-name="kcommaaccent.sc" horiz-adv-x="832" 
d="M522 370l309 -370h-187l-239 282l-158 -130v-152h-157v611h157v-299l361 299h205zM433 -54c60 0 98 -46 98 -103c0 -67 -42 -161 -128 -219l-35 44c46 41 73 74 83 117c-4 -4 -12 -6 -24 -6c-48 0 -87 35 -87 84c0 46 39 83 93 83z" />
    <glyph glyph-name="l.sc" horiz-adv-x="715" 
d="M247 132h445v-132h-602v611h157v-479z" />
    <glyph glyph-name="lacute.sc" horiz-adv-x="715" 
d="M415 852l-232 -161h-120l147 161h205zM247 132h445v-132h-602v611h157v-479z" />
    <glyph glyph-name="lcaron.sc" horiz-adv-x="715" 
d="M473 651c60 0 98 -46 98 -103c0 -67 -42 -161 -128 -219l-35 44c46 41 73 74 83 117c-4 -4 -12 -6 -24 -6c-48 0 -87 35 -87 84c0 46 39 83 93 83zM247 132h445v-132h-602v611h157v-479z" />
    <glyph glyph-name="lcommaaccent.sc" horiz-adv-x="715" 
d="M247 132h445v-132h-602v611h157v-479zM393 -54c60 0 98 -46 98 -103c0 -67 -42 -161 -128 -219l-35 44c46 41 73 74 83 117c-4 -4 -12 -6 -24 -6c-48 0 -87 35 -87 84c0 46 39 83 93 83z" />
    <glyph glyph-name="ldot.sc" horiz-adv-x="715" 
d="M247 124h445v-124h-602v611h157v-487zM449 287c-56 0 -95 35 -95 83c0 47 39 84 95 84c55 0 94 -37 94 -84c0 -48 -39 -83 -94 -83z" />
    <glyph glyph-name="lslash.sc" horiz-adv-x="770" 
d="M302 132h445v-132h-602v207l-105 -50v97l105 51v306h157v-231l185 89v-98l-185 -89v-150z" />
    <glyph glyph-name="m.sc" horiz-adv-x="1041" 
d="M785 611h166v-611h-155v417l-273 -315h-8l-274 315v-417h-151v611h170l262 -310z" />
    <glyph glyph-name="n.sc" horiz-adv-x="913" 
d="M671 611h152v-611h-137l-445 425v-425h-151v611h166l415 -399v399z" />
    <glyph glyph-name="nacute.sc" horiz-adv-x="913" 
d="M704 852l-232 -161h-120l147 161h205zM671 611h152v-611h-137l-445 425v-425h-151v611h166l415 -399v399z" />
    <glyph glyph-name="ncaron.sc" horiz-adv-x="913" 
d="M223 852l153 -161h163l153 161h-144l-90 -94l-91 94h-144zM671 611h152v-611h-137l-445 425v-425h-151v611h166l415 -399v399z" />
    <glyph glyph-name="ncommaaccent.sc" horiz-adv-x="913" 
d="M671 611h152v-611h-137l-445 425v-425h-151v611h166l415 -399v399zM458 -54c60 0 98 -46 98 -103c0 -67 -42 -161 -128 -219l-35 44c46 41 73 74 83 117c-4 -4 -12 -6 -24 -6c-48 0 -87 35 -87 84c0 46 39 83 93 83z" />
    <glyph glyph-name="eng.sc" horiz-adv-x="914" 
d="M823 482h1v-476c0 -124 -82 -198 -203 -198c-40 0 -82 6 -116 18l25 104c17 -6 33 -9 58 -9c53 0 85 21 85 79v12l-432 413v-425h-151v611h166l415 -399v399h152v-129z" />
    <glyph glyph-name="ntilde.sc" horiz-adv-x="913" 
d="M660 859l74 -91c-31 -38 -92 -77 -164 -77c-86 0 -139 55 -218 55c-49 0 -74 -19 -99 -46l-72 90c30 38 91 78 164 78c86 0 136 -55 218 -55c48 0 73 18 97 46zM671 611h152v-611h-137l-445 425v-425h-151v611h166l415 -399v399z" />
    <glyph glyph-name="o.sc" horiz-adv-x="911" 
d="M456 -21c-250 0 -408 123 -408 326c0 205 158 327 408 327s407 -122 407 -327c0 -203 -157 -326 -407 -326zM455 107c152 0 249 73 249 198c0 126 -97 199 -249 199c-153 0 -249 -73 -249 -199c0 -125 96 -198 249 -198z" />
    <glyph glyph-name="oacute.sc" horiz-adv-x="911" 
d="M703 852l-232 -161h-120l147 161h205zM456 -21c-250 0 -408 123 -408 326c0 205 158 327 408 327s407 -122 407 -327c0 -203 -157 -326 -407 -326zM455 107c152 0 249 73 249 198c0 126 -97 199 -249 199c-153 0 -249 -73 -249 -199c0 -125 96 -198 249 -198z" />
    <glyph glyph-name="obreve.sc" horiz-adv-x="911" 
d="M647 852c0 -61 -46 -168 -190 -168c-145 0 -191 107 -191 168h100c3 -38 34 -77 91 -77c56 0 87 39 90 77h100zM456 -21c-250 0 -408 123 -408 326c0 205 158 327 408 327s407 -122 407 -327c0 -203 -157 -326 -407 -326zM455 107c152 0 249 73 249 198
c0 126 -97 199 -249 199c-153 0 -249 -73 -249 -199c0 -125 96 -198 249 -198z" />
    <glyph glyph-name="ocircumflex.sc" horiz-adv-x="911" 
d="M222 691h144l89 94l91 -94h145l-153 161h-163zM456 -21c-250 0 -408 123 -408 326c0 205 158 327 408 327s407 -122 407 -327c0 -203 -157 -326 -407 -326zM455 107c152 0 249 73 249 198c0 126 -97 199 -249 199c-153 0 -249 -73 -249 -199c0 -125 96 -198 249 -198z
" />
    <glyph glyph-name="odieresis.sc" horiz-adv-x="911" 
d="M320 695c-46 0 -79 29 -79 68c0 41 33 68 79 68c45 0 79 -27 79 -68c0 -39 -34 -68 -79 -68zM593 695c-46 0 -79 29 -79 68c0 41 33 68 79 68c45 0 79 -27 79 -68c0 -39 -34 -68 -79 -68zM456 -21c-250 0 -408 123 -408 326c0 205 158 327 408 327s407 -122 407 -327
c0 -203 -157 -326 -407 -326zM455 107c152 0 249 73 249 198c0 126 -97 199 -249 199c-153 0 -249 -73 -249 -199c0 -125 96 -198 249 -198z" />
    <glyph glyph-name="ograve.sc" horiz-adv-x="911" 
d="M210 852h205l147 -161h-120zM456 -21c-250 0 -408 123 -408 326c0 205 158 327 408 327s407 -122 407 -327c0 -203 -157 -326 -407 -326zM455 107c152 0 249 73 249 198c0 126 -97 199 -249 199c-153 0 -249 -73 -249 -199c0 -125 96 -198 249 -198z" />
    <glyph glyph-name="ohungarumlaut.sc" horiz-adv-x="911" 
d="M541 852l-165 -161h-141l164 161h142zM766 852l-165 -161h-141l164 161h142zM456 -21c-250 0 -408 123 -408 326c0 205 158 327 408 327s407 -122 407 -327c0 -203 -157 -326 -407 -326zM455 107c152 0 249 73 249 198c0 126 -97 199 -249 199c-153 0 -249 -73 -249 -199
c0 -125 96 -198 249 -198z" />
    <glyph glyph-name="omacron.sc" horiz-adv-x="911" 
d="M238 819h436v-110h-436v110zM456 -21c-250 0 -408 123 -408 326c0 205 158 327 408 327s407 -122 407 -327c0 -203 -157 -326 -407 -326zM455 107c152 0 249 73 249 198c0 126 -97 199 -249 199c-153 0 -249 -73 -249 -199c0 -125 96 -198 249 -198z" />
    <glyph glyph-name="oslash.sc" horiz-adv-x="911" 
d="M718 570c92 -56 145 -146 145 -265c0 -203 -157 -326 -407 -326c-59 0 -114 7 -162 20l-70 -94h-121l98 132c-97 55 -153 148 -153 268c0 205 158 327 408 327c63 0 120 -8 170 -22l71 96h122zM206 305c0 -68 28 -121 79 -155l256 345c-26 6 -55 9 -86 9
c-153 0 -249 -73 -249 -199zM455 107c152 0 249 73 249 198c0 65 -26 116 -72 150l-253 -341c23 -5 49 -7 76 -7z" />
    <glyph glyph-name="oslashacute.sc" horiz-adv-x="911" 
d="M703 852l-232 -161h-120l147 161h205zM718 570c92 -56 145 -146 145 -265c0 -203 -157 -326 -407 -326c-59 0 -114 7 -162 20l-70 -94h-121l98 132c-97 55 -153 148 -153 268c0 205 158 327 408 327c63 0 120 -8 170 -22l71 96h122zM206 305c0 -68 28 -121 79 -155
l256 345c-26 6 -55 9 -86 9c-153 0 -249 -73 -249 -199zM455 107c152 0 249 73 249 198c0 65 -26 116 -72 150l-253 -341c23 -5 49 -7 76 -7z" />
    <glyph glyph-name="otilde.sc" horiz-adv-x="911" 
d="M659 859l74 -91c-31 -38 -92 -77 -164 -77c-86 0 -139 55 -218 55c-49 0 -74 -19 -99 -46l-72 90c30 38 91 78 164 78c86 0 136 -55 218 -55c48 0 73 18 97 46zM456 -21c-250 0 -408 123 -408 326c0 205 158 327 408 327s407 -122 407 -327c0 -203 -157 -326 -407 -326z
M455 107c152 0 249 73 249 198c0 126 -97 199 -249 199c-153 0 -249 -73 -249 -199c0 -125 96 -198 249 -198z" />
    <glyph glyph-name="oe.sc" horiz-adv-x="1342" 
d="M789 128h507v-128h-663h-189c-244 0 -396 115 -396 305c0 192 152 306 396 306h342h500v-128h-497v-110h412v-126h-412v-119zM633 128v355h-177c-149 0 -248 -60 -248 -178c0 -116 99 -177 248 -177h177z" />
    <glyph glyph-name="p.sc" horiz-adv-x="838" 
d="M529 611c165 0 277 -74 277 -211c0 -138 -112 -211 -277 -211h-282v-189h-157v611h439zM516 316c78 0 131 16 131 83s-53 83 -131 83h-270v-166h270z" />
    <glyph glyph-name="thorn.sc" horiz-adv-x="838" 
d="M524 520c167 0 282 -71 282 -209s-115 -209 -282 -209h-277v-102h-157v611h157v-91h277zM510 229c85 0 137 18 137 82c0 67 -52 82 -137 82h-264v-164h264z" />
    <glyph glyph-name="q.sc" horiz-adv-x="911" 
d="M863 305c0 -105 -42 -188 -116 -244l86 -87l-78 -72l-106 107c-56 -20 -120 -30 -193 -30c-250 0 -408 123 -408 326c0 205 158 327 408 327s407 -122 407 -327zM455 107c32 0 61 3 87 9l-86 87l78 72l109 -110c39 33 61 81 61 140c0 126 -97 199 -249 199
c-153 0 -249 -73 -249 -199c0 -125 96 -198 249 -198z" />
    <glyph glyph-name="r.sc" horiz-adv-x="867" 
d="M830 0h-189l-175 203h-220v-203h-156v611h444c155 0 276 -70 276 -204c0 -104 -70 -168 -171 -192zM244 329h276c77 0 131 14 131 77c0 64 -54 77 -131 77h-276v-154z" />
    <glyph glyph-name="racute.sc" horiz-adv-x="867" 
d="M659 852l-232 -161h-120l147 161h205zM830 0h-189l-175 203h-220v-203h-156v611h444c155 0 276 -70 276 -204c0 -104 -70 -168 -171 -192zM244 329h276c77 0 131 14 131 77c0 64 -54 77 -131 77h-276v-154z" />
    <glyph glyph-name="rcaron.sc" horiz-adv-x="867" 
d="M494 691h-163l-153 161h144l91 -94l90 94h144zM830 0h-189l-175 203h-220v-203h-156v611h444c155 0 276 -70 276 -204c0 -104 -70 -168 -171 -192zM244 329h276c77 0 131 14 131 77c0 64 -54 77 -131 77h-276v-154z" />
    <glyph glyph-name="rcommaaccent.sc" horiz-adv-x="867" 
d="M639 215l191 -215h-189l-175 203h-220v-203h-156v611h444c155 0 276 -70 276 -204c0 -104 -70 -168 -171 -192zM244 329h276c77 0 131 14 131 77c0 64 -54 77 -131 77h-276v-154zM431 -54c60 0 98 -46 98 -103c0 -67 -42 -161 -128 -219l-35 44c46 41 73 74 83 117
c-4 -4 -12 -6 -24 -6c-48 0 -87 35 -87 84c0 46 39 83 93 83z" />
    <glyph glyph-name="s.sc" horiz-adv-x="811" 
d="M424 379c204 -19 348 -52 348 -189c0 -124 -119 -211 -346 -211c-162 0 -300 45 -394 123l89 94c75 -62 179 -96 307 -96c125 0 188 27 188 74c0 48 -62 57 -206 72c-183 18 -352 58 -352 190c0 125 155 196 350 196c133 0 250 -34 333 -95l-85 -92
c-70 50 -149 66 -253 67c-89 0 -188 -15 -188 -65c0 -47 85 -56 209 -68z" />
    <glyph glyph-name="sacute.sc" horiz-adv-x="811" 
d="M656 852l-232 -161h-120l147 161h205zM424 379c204 -19 348 -52 348 -189c0 -124 -119 -211 -346 -211c-162 0 -300 45 -394 123l89 94c75 -62 179 -96 307 -96c125 0 188 27 188 74c0 48 -62 57 -206 72c-183 18 -352 58 -352 190c0 125 155 196 350 196
c133 0 250 -34 333 -95l-85 -92c-70 50 -149 66 -253 67c-89 0 -188 -15 -188 -65c0 -47 85 -56 209 -68z" />
    <glyph glyph-name="scaron.sc" horiz-adv-x="811" 
d="M175 852l153 -161h163l153 161h-144l-90 -94l-91 94h-144zM424 379c204 -19 348 -52 348 -189c0 -124 -119 -211 -346 -211c-162 0 -300 45 -394 123l89 94c75 -62 179 -96 307 -96c125 0 188 27 188 74c0 48 -62 57 -206 72c-183 18 -352 58 -352 190
c0 125 155 196 350 196c133 0 250 -34 333 -95l-85 -92c-70 50 -149 66 -253 67c-89 0 -188 -15 -188 -65c0 -47 85 -56 209 -68z" />
    <glyph glyph-name="scedilla.sc" horiz-adv-x="811" 
d="M424 379c204 -19 348 -52 348 -189c0 -124 -119 -211 -346 -211c-162 0 -300 45 -394 123l89 94c75 -62 179 -96 307 -96c125 0 188 27 188 74c0 48 -62 57 -206 72c-183 18 -352 58 -352 190c0 125 155 196 350 196c133 0 250 -34 333 -95l-85 -92
c-70 50 -149 66 -253 67c-89 0 -188 -15 -188 -65c0 -47 85 -56 209 -68zM485 -57l-137 -161l-104 28l102 155z" />
    <glyph glyph-name="scircumflex.sc" horiz-adv-x="811" 
d="M175 691h144l89 94l91 -94h145l-153 161h-163zM424 379c204 -19 348 -52 348 -189c0 -124 -119 -211 -346 -211c-162 0 -300 45 -394 123l89 94c75 -62 179 -96 307 -96c125 0 188 27 188 74c0 48 -62 57 -206 72c-183 18 -352 58 -352 190c0 125 155 196 350 196
c133 0 250 -34 333 -95l-85 -92c-70 50 -149 66 -253 67c-89 0 -188 -15 -188 -65c0 -47 85 -56 209 -68z" />
    <glyph glyph-name="scommaaccent.sc" horiz-adv-x="811" 
d="M424 379c204 -19 348 -52 348 -189c0 -124 -119 -211 -346 -211c-162 0 -300 45 -394 123l89 94c75 -62 179 -96 307 -96c125 0 188 27 188 74c0 48 -62 57 -206 72c-183 18 -352 58 -352 190c0 125 155 196 350 196c133 0 250 -34 333 -95l-85 -92
c-70 50 -149 66 -253 67c-89 0 -188 -15 -188 -65c0 -47 85 -56 209 -68zM421 -54c60 0 98 -46 98 -103c0 -67 -42 -161 -128 -219l-35 44c46 41 73 74 83 117c-4 -4 -12 -6 -24 -6c-48 0 -87 35 -87 84c0 46 39 83 93 83z" />
    <glyph glyph-name="germandbls.sc" horiz-adv-x="1622" 
d="M424 379c204 -19 348 -52 348 -189c0 -124 -119 -211 -346 -211c-162 0 -300 45 -394 123l89 94c75 -62 179 -96 307 -96c125 0 188 27 188 74c0 48 -62 57 -206 72c-183 18 -352 58 -352 190c0 125 155 196 350 196c133 0 250 -34 333 -95l-85 -92
c-70 50 -149 66 -253 67c-89 0 -188 -15 -188 -65c0 -47 85 -56 209 -68zM1235 379c204 -19 348 -52 348 -189c0 -124 -119 -211 -346 -211c-162 0 -300 45 -394 123l89 94c75 -62 179 -96 307 -96c125 0 188 27 188 74c0 48 -62 57 -206 72c-183 18 -352 58 -352 190
c0 125 155 196 350 196c133 0 250 -34 333 -95l-85 -92c-70 50 -149 66 -253 67c-89 0 -188 -15 -188 -65c0 -47 85 -56 209 -68z" />
    <glyph glyph-name="t.sc" horiz-adv-x="747" 
d="M726 611v-132h-274v-479h-156v479h-274v132h704z" />
    <glyph glyph-name="tbar.sc" horiz-adv-x="737" 
d="M721 479h-274v-126h140v-109h-140v-244h-156v244h-140v109h140v126h-274v132h704v-132z" />
    <glyph glyph-name="tcaron.sc" horiz-adv-x="747" 
d="M141 852l153 -161h163l153 161h-144l-90 -94l-91 94h-144zM726 611v-132h-274v-479h-156v479h-274v132h704z" />
    <glyph glyph-name="uni0163.sc" horiz-adv-x="747" 
d="M726 611v-132h-274v-479h-156v479h-274v132h704zM441 -50l-137 -161l-104 28l102 155z" />
    <glyph glyph-name="u.sc" horiz-adv-x="878" 
d="M645 611h155v-324c0 -183 -127 -308 -360 -308c-234 0 -362 125 -362 308v324h157v-312c0 -114 68 -184 205 -184c135 0 205 70 205 184v312z" />
    <glyph glyph-name="uacute.sc" horiz-adv-x="878" 
d="M687 852l-232 -161h-120l147 161h205zM645 611h155v-324c0 -183 -127 -308 -360 -308c-234 0 -362 125 -362 308v324h157v-312c0 -114 68 -184 205 -184c135 0 205 70 205 184v312z" />
    <glyph glyph-name="ubreve.sc" horiz-adv-x="878" 
d="M631 852c0 -61 -46 -168 -190 -168c-145 0 -191 107 -191 168h100c3 -38 34 -77 91 -77c56 0 87 39 90 77h100zM645 611h155v-324c0 -183 -127 -308 -360 -308c-234 0 -362 125 -362 308v324h157v-312c0 -114 68 -184 205 -184c135 0 205 70 205 184v312z" />
    <glyph glyph-name="ucircumflex.sc" horiz-adv-x="878" 
d="M206 691h144l89 94l91 -94h145l-153 161h-163zM645 611h155v-324c0 -183 -127 -308 -360 -308c-234 0 -362 125 -362 308v324h157v-312c0 -114 68 -184 205 -184c135 0 205 70 205 184v312z" />
    <glyph glyph-name="udieresis.sc" horiz-adv-x="878" 
d="M304 695c-46 0 -79 29 -79 68c0 41 33 68 79 68c45 0 79 -27 79 -68c0 -39 -34 -68 -79 -68zM577 695c-46 0 -79 29 -79 68c0 41 33 68 79 68c45 0 79 -27 79 -68c0 -39 -34 -68 -79 -68zM645 611h155v-324c0 -183 -127 -308 -360 -308c-234 0 -362 125 -362 308v324h157
v-312c0 -114 68 -184 205 -184c135 0 205 70 205 184v312z" />
    <glyph glyph-name="ugrave.sc" horiz-adv-x="878" 
d="M194 852h205l147 -161h-120zM645 611h155v-324c0 -183 -127 -308 -360 -308c-234 0 -362 125 -362 308v324h157v-312c0 -114 68 -184 205 -184c135 0 205 70 205 184v312z" />
    <glyph glyph-name="uhungarumlaut.sc" horiz-adv-x="878" 
d="M525 852l-165 -161h-141l164 161h142zM750 852l-165 -161h-141l164 161h142zM645 611h155v-324c0 -183 -127 -308 -360 -308c-234 0 -362 125 -362 308v324h157v-312c0 -114 68 -184 205 -184c135 0 205 70 205 184v312z" />
    <glyph glyph-name="umacron.sc" horiz-adv-x="878" 
d="M222 819h436v-110h-436v110zM645 611h155v-324c0 -183 -127 -308 -360 -308c-234 0 -362 125 -362 308v324h157v-312c0 -114 68 -184 205 -184c135 0 205 70 205 184v312z" />
    <glyph glyph-name="uogonek.sc" horiz-adv-x="878" 
d="M645 611h155v-324c0 -141 -75 -247 -215 -289c-57 -22 -111 -70 -111 -124c0 -40 32 -61 71 -61c29 0 54 10 71 26l28 -36c-20 -24 -61 -53 -130 -53c-75 0 -150 35 -150 113c0 46 24 88 70 116c-230 2 -356 127 -356 308v324h157v-312c0 -114 68 -184 205 -184
c135 0 205 70 205 184v312z" />
    <glyph glyph-name="uring.sc" horiz-adv-x="878" 
d="M440 682c-87 0 -150 39 -150 115c0 75 63 117 150 117s151 -42 151 -117c0 -76 -64 -115 -151 -115zM380 797c0 -35 24 -55 60 -55s61 20 61 55c0 34 -25 54 -61 54s-60 -20 -60 -54zM645 611h155v-324c0 -183 -127 -308 -360 -308c-234 0 -362 125 -362 308v324h157
v-312c0 -114 68 -184 205 -184c135 0 205 70 205 184v312z" />
    <glyph glyph-name="utilde.sc" horiz-adv-x="878" 
d="M643 859l74 -91c-31 -38 -92 -77 -164 -77c-86 0 -139 55 -218 55c-49 0 -74 -19 -99 -46l-72 90c30 38 91 78 164 78c86 0 136 -55 218 -55c48 0 73 18 97 46zM645 611h155v-324c0 -183 -127 -308 -360 -308c-234 0 -362 125 -362 308v324h157v-312
c0 -114 68 -184 205 -184c135 0 205 70 205 184v312z" />
    <glyph glyph-name="v.sc" horiz-adv-x="814" 
d="M6 611h172l230 -457l232 457h169l-319 -611h-166z" />
    <glyph glyph-name="w.sc" horiz-adv-x="1143" 
d="M965 611h161l-233 -611h-158l-163 444l-162 -444h-159l-232 611h163l152 -440l164 440h151l164 -440z" />
    <glyph glyph-name="wacute.sc" horiz-adv-x="1143" 
d="M820 852l-232 -161h-120l147 161h205zM965 611h161l-233 -611h-158l-163 444l-162 -444h-159l-232 611h163l152 -440l164 440h151l164 -440z" />
    <glyph glyph-name="wcircumflex.sc" horiz-adv-x="1143" 
d="M339 691h144l89 94l91 -94h145l-153 161h-163zM965 611h161l-233 -611h-158l-163 444l-162 -444h-159l-232 611h163l152 -440l164 440h151l164 -440z" />
    <glyph glyph-name="wdieresis.sc" horiz-adv-x="1143" 
d="M437 695c-46 0 -79 29 -79 68c0 41 33 68 79 68c45 0 79 -27 79 -68c0 -39 -34 -68 -79 -68zM710 695c-46 0 -79 29 -79 68c0 41 33 68 79 68c45 0 79 -27 79 -68c0 -39 -34 -68 -79 -68zM965 611h161l-233 -611h-158l-163 444l-162 -444h-159l-232 611h163l152 -440
l164 440h151l164 -440z" />
    <glyph glyph-name="wgrave.sc" horiz-adv-x="1143" 
d="M327 852h205l147 -161h-120zM965 611h161l-233 -611h-158l-163 444l-162 -444h-159l-232 611h163l152 -440l164 440h151l164 -440z" />
    <glyph glyph-name="x.sc" horiz-adv-x="783" 
d="M772 611l-289 -299l293 -312h-190l-199 208l-198 -208h-181l292 310l-287 301h190l194 -202l193 202h182z" />
    <glyph glyph-name="y.sc" horiz-adv-x="778" 
d="M6 611h177l208 -278l204 278h177l-305 -403v-208h-156v208z" />
    <glyph glyph-name="yacute.sc" horiz-adv-x="778" 
d="M636 852l-232 -161h-120l147 161h205zM6 611h177l208 -278l204 278h177l-305 -403v-208h-156v208z" />
    <glyph glyph-name="ycircumflex.sc" horiz-adv-x="778" 
d="M155 691h144l89 94l91 -94h145l-153 161h-163zM6 611h177l208 -278l204 278h177l-305 -403v-208h-156v208z" />
    <glyph glyph-name="ydieresis.sc" horiz-adv-x="778" 
d="M253 695c-46 0 -79 29 -79 68c0 41 33 68 79 68c45 0 79 -27 79 -68c0 -39 -34 -68 -79 -68zM526 695c-46 0 -79 29 -79 68c0 41 33 68 79 68c45 0 79 -27 79 -68c0 -39 -34 -68 -79 -68zM6 611h177l208 -278l204 278h177l-305 -403v-208h-156v208z" />
    <glyph glyph-name="ygrave.sc" horiz-adv-x="778" 
d="M143 852h205l147 -161h-120zM6 611h177l208 -278l204 278h177l-305 -403v-208h-156v208z" />
    <glyph glyph-name="z.sc" 
d="M740 611v-102l-463 -383h477v-126h-710v102l463 383h-447v126h680z" />
    <glyph glyph-name="zacute.sc" 
d="M659 852l-232 -161h-120l147 161h205zM740 611v-102l-463 -383h477v-126h-710v102l463 383h-447v126h680z" />
    <glyph glyph-name="zcaron.sc" 
d="M178 852l153 -161h163l153 161h-144l-90 -94l-91 94h-144zM740 611v-102l-463 -383h477v-126h-710v102l463 383h-447v126h680z" />
    <glyph glyph-name="zdotaccent.sc" 
d="M412 695c-45 0 -76 25 -76 64c0 41 31 66 76 66s75 -25 75 -66c0 -39 -30 -64 -75 -64zM740 611v-102l-463 -383h477v-126h-710v102l463 383h-447v126h680z" />
    <glyph glyph-name="ordfeminine" unicode="&#xaa;" horiz-adv-x="572" 
d="M273 720c139 0 222 -64 222 -184v-142c0 -28 6 -51 21 -73h-114c-12 13 -16 30 -16 48v2c-27 -42 -86 -64 -156 -64c-82 0 -186 33 -186 131s104 131 186 131c70 0 129 -24 156 -65v33c0 70 -46 104 -130 104c-55 0 -100 -14 -145 -39l-30 76c50 26 125 42 192 42z
M387 432v12c-24 43 -79 57 -128 57c-41 0 -106 -10 -106 -63s65 -63 106 -63c49 0 104 13 128 57z" />
    <glyph glyph-name="ordmasculine" unicode="&#xba;" horiz-adv-x="575" 
d="M288 306c-150 0 -243 79 -243 207s93 208 243 208s243 -80 243 -208s-93 -207 -243 -207zM289 395c83 0 136 40 136 118c0 77 -53 118 -136 118s-137 -41 -137 -118c0 -78 54 -118 137 -118z" />
    <glyph glyph-name="uni0394" unicode="&#x394;" horiz-adv-x="889" 
d="M444 720l444 -720h-149h-612h-125zM216 113h456l-228 386z" />
    <glyph glyph-name="uni03A9" unicode="&#x3a9;" horiz-adv-x="1003" 
d="M947 379c0 -109 -54 -198 -144 -255h121v-124h-333v124c118 34 193 107 193 228c0 149 -109 234 -283 234c-172 0 -282 -85 -282 -234c0 -121 75 -193 193 -228v-124h-333v124h121c-90 57 -144 146 -144 255c0 205 172 343 445 343c274 0 446 -138 446 -343z" />
    <glyph glyph-name="uni03BC" unicode="&#x3bc;" horiz-adv-x="794" 
d="M560 551h154v-551h-154v101c-47 -67 -132 -110 -234 -110c-34 0 -64 5 -91 14v-205h-155v751h155v-305c0 -91 47 -143 138 -143c77 0 142 39 187 118v330z" />
    <glyph glyph-name="pi" unicode="&#x3c0;" horiz-adv-x="956" 
d="M922 427h-182v-237c0 -53 27 -87 84 -87c20 0 37 4 49 9l25 -108c-25 -12 -66 -24 -113 -24c-102 0 -194 63 -194 182v265h-243v-427h-149v427h-180v124h329h392h182v-124z" />
    <glyph glyph-name="zero" unicode="0" horiz-adv-x="949" 
d="M474 -22c-264 0 -425 139 -425 372s161 372 425 372c265 0 426 -139 426 -372s-161 -372 -426 -372zM475 116c162 0 262 80 262 234s-100 234 -262 234c-163 0 -263 -80 -263 -234s100 -234 263 -234z" />
    <glyph glyph-name="one" unicode="1" horiz-adv-x="492" 
d="M238 0v523c-59 -43 -133 -66 -212 -79v135c90 13 185 63 251 121h121v-700h-160z" />
    <glyph glyph-name="two" unicode="2" horiz-adv-x="823" 
d="M54 557c67 93 201 164 364 164c167 0 340 -69 340 -215c0 -120 -113 -187 -272 -238c-130 -43 -228 -90 -251 -139h538v-129h-734v71c20 130 147 242 354 309c115 39 203 65 203 123c0 60 -91 91 -183 91c-106 0 -192 -44 -264 -122z" />
    <glyph glyph-name="three" unicode="3" horiz-adv-x="832" 
d="M155 218c49 -71 138 -111 256 -111c104 0 203 26 203 103c0 78 -96 94 -218 94h-104v118h104c102 0 197 22 197 86c0 65 -98 85 -186 85c-120 0 -203 -45 -248 -107l-116 77c73 94 199 158 364 158c183 0 349 -64 349 -195c0 -86 -75 -150 -168 -160
c94 -14 195 -63 195 -171c0 -139 -163 -216 -368 -216c-174 0 -309 66 -387 166z" />
    <glyph glyph-name="four" unicode="4" horiz-adv-x="877" 
d="M847 271v-124h-142v-147h-156v147h-530v93l544 460h142v-429h142zM231 271h319v271z" />
    <glyph glyph-name="five" unicode="5" horiz-adv-x="836" 
d="M131 220c51 -49 157 -108 297 -108c122 0 209 28 209 109c0 80 -87 114 -221 114c-76 0 -152 -13 -233 -46l-118 46l60 365h603v-128h-482l-29 -179c80 44 161 64 257 64c169 0 327 -76 327 -238c0 -132 -121 -241 -373 -241c-168 0 -303 58 -395 149z" />
    <glyph glyph-name="six" unicode="6" horiz-adv-x="889" 
d="M519 458c153 0 328 -66 328 -232c0 -144 -138 -248 -375 -248c-263 0 -423 144 -423 372s160 372 423 372c158 0 276 -45 353 -120l-95 -93c-64 61 -150 89 -243 89c-159 0 -275 -62 -276 -245c72 67 191 105 308 105zM472 102c128 0 214 40 214 125
c0 87 -87 115 -201 115c-90 0 -193 -31 -261 -91c33 -109 126 -149 248 -149z" />
    <glyph glyph-name="seven" unicode="7" horiz-adv-x="763" 
d="M171 0l379 566h-530v134h725v-105l-391 -595h-183z" />
    <glyph glyph-name="eight" unicode="8" horiz-adv-x="889" 
d="M642 367c94 -13 198 -66 198 -173c0 -136 -163 -216 -396 -216s-395 80 -395 216c0 107 103 160 198 173c-96 10 -171 69 -171 158c0 130 166 197 368 197s369 -67 369 -197c0 -89 -76 -148 -171 -158zM237 510c0 -68 97 -93 207 -93c111 0 208 25 208 93s-97 93 -208 93
c-110 0 -207 -25 -207 -93zM444 97c131 0 229 30 229 107c0 74 -98 106 -229 106s-229 -32 -229 -106c0 -73 98 -107 229 -107z" />
    <glyph glyph-name="nine" unicode="9" horiz-adv-x="889" 
d="M417 722c263 0 423 -144 423 -372s-160 -372 -423 -372c-158 0 -276 45 -353 120l95 93c64 -61 150 -89 243 -89c159 0 275 62 276 245c-72 -67 -191 -105 -308 -105c-153 0 -328 66 -328 232c0 144 138 248 375 248zM203 473c0 -87 87 -115 201 -115c90 0 193 31 261 91
c-33 109 -126 149 -248 149c-128 0 -214 -40 -214 -125z" />
    <glyph glyph-name="zero.osf" horiz-adv-x="900" 
d="M450 -22c-240 0 -401 125 -401 338s161 327 401 327c239 0 401 -114 401 -327s-162 -338 -401 -338zM450 116c144 0 239 63 239 195c0 131 -95 194 -239 194s-238 -63 -238 -194c0 -132 94 -195 238 -195z" />
    <glyph glyph-name="one.osf" horiz-adv-x="498" 
d="M244 0v444c-59 -43 -133 -66 -212 -79v135c90 13 185 63 251 121h121v-621h-160z" />
    <glyph glyph-name="two.osf" horiz-adv-x="813" 
d="M53 489c64 84 201 153 364 153c156 0 333 -64 333 -198c0 -110 -117 -164 -258 -211c-130 -42 -237 -71 -258 -109h529v-124h-724v70c18 118 151 209 347 266c106 31 202 48 202 107s-95 76 -179 76c-103 0 -197 -38 -262 -110z" />
    <glyph glyph-name="three.osf" horiz-adv-x="832" 
d="M154 139c49 -71 138 -111 256 -111c104 0 203 26 203 103c0 78 -96 94 -218 94h-104v118h104c102 0 197 22 197 86c0 65 -98 85 -186 85c-120 0 -203 -45 -248 -107l-116 77c73 94 199 158 364 158c183 0 349 -64 349 -195c0 -86 -75 -150 -168 -160
c94 -14 195 -63 195 -171c0 -139 -163 -216 -368 -216c-174 0 -309 66 -387 166z" />
    <glyph glyph-name="four.osf" horiz-adv-x="877" 
d="M847 192v-124h-142v-147h-156v147h-530v93l544 460h142v-429h142zM231 192h319v271z" />
    <glyph glyph-name="five.osf" horiz-adv-x="836" 
d="M131 141c51 -49 157 -108 297 -108c122 0 209 28 209 109c0 80 -87 114 -221 114c-76 0 -152 -13 -233 -46l-118 46l60 365h603v-128h-482l-29 -179c80 44 161 64 257 64c169 0 327 -76 327 -238c0 -132 -121 -241 -373 -241c-168 0 -303 58 -395 149z" />
    <glyph glyph-name="six.osf" horiz-adv-x="889" 
d="M519 458c153 0 328 -66 328 -232c0 -144 -138 -248 -375 -248c-263 0 -423 144 -423 372s160 372 423 372c158 0 276 -45 353 -120l-95 -93c-64 61 -150 89 -243 89c-159 0 -275 -62 -276 -245c72 67 191 105 308 105zM472 102c128 0 214 40 214 125
c0 87 -87 115 -201 115c-90 0 -193 -31 -261 -91c33 -109 126 -149 248 -149z" />
    <glyph glyph-name="seven.osf" horiz-adv-x="763" 
d="M178 -79l379 566h-530v134h725v-105l-391 -595h-183z" />
    <glyph glyph-name="eight.osf" horiz-adv-x="889" 
d="M642 367c94 -13 198 -66 198 -173c0 -136 -163 -216 -396 -216s-395 80 -395 216c0 107 103 160 198 173c-96 10 -171 69 -171 158c0 130 166 197 368 197s369 -67 369 -197c0 -89 -76 -148 -171 -158zM237 510c0 -68 97 -93 207 -93c111 0 208 25 208 93s-97 93 -208 93
c-110 0 -207 -25 -207 -93zM444 97c131 0 229 30 229 107c0 74 -98 106 -229 106s-229 -32 -229 -106c0 -73 98 -107 229 -107z" />
    <glyph glyph-name="nine.osf" horiz-adv-x="889" 
d="M417 643c263 0 423 -144 423 -372s-160 -372 -423 -372c-158 0 -276 45 -353 120l95 93c64 -61 150 -89 243 -89c159 0 275 62 276 245c-72 -67 -191 -105 -308 -105c-153 0 -328 66 -328 232c0 144 138 248 375 248zM203 394c0 -87 87 -115 201 -115c90 0 193 31 261 91
c-33 109 -126 149 -248 149c-128 0 -214 -40 -214 -125z" />
    <glyph glyph-name="zero.subs" horiz-adv-x="552" 
d="M276 -129c-149 0 -242 82 -242 220s93 220 242 220c150 0 242 -82 242 -220s-92 -220 -242 -220zM276 -43c86 0 139 47 139 134c0 86 -53 133 -139 133s-140 -47 -140 -133c0 -87 54 -134 140 -134z" />
    <glyph glyph-name="one.subs" horiz-adv-x="300" 
d="M139 -117v303c-33 -25 -74 -38 -118 -45v84c51 7 106 36 143 71h75v-413h-100z" />
    <glyph glyph-name="two.subs" horiz-adv-x="478" 
d="M36 216c44 54 118 93 209 93c93 0 191 -40 191 -125c0 -71 -63 -112 -149 -143c-71 -26 -128 -47 -141 -77h298v-81h-416v49c11 77 82 139 197 178c61 23 110 36 110 72c0 34 -47 49 -95 49c-58 0 -103 -21 -145 -68z" />
    <glyph glyph-name="three.subs" horiz-adv-x="486" 
d="M91 13c33 -40 82 -63 143 -63c56 0 112 16 112 60c0 42 -54 53 -115 53h-59v71h59c52 0 102 10 102 48s-52 48 -103 48c-55 0 -97 -18 -132 -58l-65 45c38 57 117 92 206 92c99 0 197 -36 197 -113c0 -51 -41 -90 -97 -96c56 -9 113 -38 113 -101
c0 -82 -93 -128 -213 -128c-94 0 -175 38 -216 100z" />
    <glyph glyph-name="four.subs" horiz-adv-x="511" 
d="M488 48v-76h-78v-89h-97v89h-296v57l303 267h90v-248h78zM143 48h169v144z" />
    <glyph glyph-name="five.subs" horiz-adv-x="484" 
d="M74 11c42 -36 93 -58 168 -58c67 0 113 19 113 63c0 45 -46 63 -112 63c-44 0 -89 -8 -132 -29l-71 27l37 219h340v-78h-267l-16 -103c41 26 92 39 143 39c95 0 180 -45 180 -138c0 -81 -65 -146 -210 -146c-105 0 -175 39 -224 79z" />
    <glyph glyph-name="six.subs" horiz-adv-x="517" 
d="M292 155c96 0 196 -38 196 -138c0 -85 -77 -147 -214 -147c-148 0 -240 84 -240 220s92 220 240 220c90 0 159 -27 202 -70l-55 -57c-35 33 -82 50 -136 50c-84 0 -147 -35 -149 -138c39 41 102 60 156 60zM274 -52c66 0 112 20 112 66c0 50 -43 69 -112 69
c-47 0 -97 -16 -132 -47c17 -66 67 -88 132 -88z" />
    <glyph glyph-name="seven.subs" horiz-adv-x="444" 
d="M99 -117l207 330h-289v83h411v-65l-216 -348h-113z" />
    <glyph glyph-name="eight.subs" horiz-adv-x="516" 
d="M366 102c61 -10 117 -40 117 -106c0 -77 -93 -126 -225 -126s-225 49 -225 126c0 66 55 96 115 106c-60 5 -100 43 -100 96c0 75 99 112 210 112s210 -37 210 -112c0 -53 -41 -91 -102 -96zM150 185c0 -40 51 -52 109 -52c56 0 107 12 107 52c0 37 -51 52 -107 52
c-58 0 -109 -15 -109 -52zM257 -57c66 0 121 21 121 63c0 46 -55 62 -121 62s-120 -16 -120 -62c0 -42 54 -63 120 -63z" />
    <glyph glyph-name="nine.subs" horiz-adv-x="517" 
d="M240 309c148 0 240 -84 240 -220s-92 -220 -240 -220c-90 0 -159 27 -202 70l55 57c35 -33 82 -50 136 -50c84 0 147 35 149 138c-39 -41 -102 -60 -156 -60c-96 0 -196 38 -196 138c0 85 77 147 214 147zM128 165c0 -50 43 -69 112 -69c47 0 97 16 132 47
c-17 66 -67 88 -132 88c-66 0 -112 -20 -112 -66z" />
    <glyph glyph-name="fraction" unicode="&#x2044;" horiz-adv-x="249" 
d="M-46 0h-112l451 700h111z" />
    <glyph glyph-name="onehalf" unicode="&#xbd;" horiz-adv-x="1040" 
d="M139 287v302c-33 -24 -74 -36 -118 -43v83c51 7 106 37 143 71h75v-413h-100zM271 0h-111l449 700h112zM598 333c44 54 118 93 209 93c93 0 191 -40 191 -125c0 -71 -63 -112 -149 -143c-71 -26 -128 -47 -141 -77h298v-81h-416v49c11 77 82 139 197 178
c61 23 110 36 110 72c0 34 -47 49 -95 49c-58 0 -103 -21 -145 -68z" />
    <glyph glyph-name="onequarter" unicode="&#xbc;" horiz-adv-x="1012" 
d="M139 287v302c-33 -24 -74 -36 -118 -43v83c51 7 106 37 143 71h75v-413h-100zM277 0h-111l449 700h112zM989 165v-76h-78v-89h-97v89h-296v57l303 267h90v-248h78zM644 165h169v144z" />
    <glyph glyph-name="threequarters" unicode="&#xbe;" horiz-adv-x="1179" 
d="M91 417c33 -40 82 -63 143 -63c56 0 112 16 112 60c0 42 -54 53 -115 53h-59v71h59c52 0 102 10 102 48s-52 48 -103 48c-55 0 -97 -18 -132 -58l-65 45c38 57 117 92 206 92c99 0 197 -36 197 -113c0 -51 -41 -90 -97 -96c56 -9 113 -38 113 -101
c0 -82 -93 -128 -213 -128c-94 0 -175 38 -216 100zM444 0h-111l449 700h112zM1156 165v-76h-78v-89h-97v89h-296v57l303 267h90v-248h78zM811 165h169v144z" />
    <glyph glyph-name="oneeighth" unicode="&#x215b;" horiz-adv-x="1085" 
d="M139 287v302c-33 -24 -74 -36 -118 -43v83c51 7 106 37 143 71h75v-413h-100zM277 0h-111l449 700h112zM935 219c61 -10 117 -40 117 -106c0 -77 -93 -126 -225 -126s-225 49 -225 126c0 66 55 96 115 106c-60 5 -100 43 -100 96c0 75 99 112 210 112s210 -37 210 -112
c0 -53 -41 -91 -102 -96zM719 302c0 -40 51 -52 109 -52c56 0 107 12 107 52c0 37 -51 52 -107 52c-58 0 -109 -15 -109 -52zM826 60c66 0 121 21 121 63c0 46 -55 62 -121 62s-120 -16 -120 -62c0 -42 54 -63 120 -63z" />
    <glyph glyph-name="threeeighths" unicode="&#x215c;" horiz-adv-x="1248" 
d="M91 417c33 -40 82 -63 143 -63c56 0 112 16 112 60c0 42 -54 53 -115 53h-59v71h59c52 0 102 10 102 48s-52 48 -103 48c-55 0 -97 -18 -132 -58l-65 45c38 57 117 92 206 92c99 0 197 -36 197 -113c0 -51 -41 -90 -97 -96c56 -9 113 -38 113 -101
c0 -82 -93 -128 -213 -128c-94 0 -175 38 -216 100zM444 0h-111l449 700h112zM1098 219c61 -10 117 -40 117 -106c0 -77 -93 -126 -225 -126s-225 49 -225 126c0 66 55 96 115 106c-60 5 -100 43 -100 96c0 75 99 112 210 112s210 -37 210 -112c0 -53 -41 -91 -102 -96z
M882 302c0 -40 51 -52 109 -52c56 0 107 12 107 52c0 37 -51 52 -107 52c-58 0 -109 -15 -109 -52zM989 60c66 0 121 21 121 63c0 46 -55 62 -121 62s-120 -16 -120 -62c0 -42 54 -63 120 -63z" />
    <glyph glyph-name="fiveeighths" unicode="&#x215d;" horiz-adv-x="1243" 
d="M74 415c42 -36 93 -58 168 -58c67 0 113 19 113 63c0 45 -46 63 -112 63c-44 0 -89 -8 -132 -29l-71 27l37 219h340v-78h-267l-16 -103c41 26 92 39 143 39c95 0 180 -45 180 -138c0 -81 -65 -146 -210 -146c-105 0 -175 39 -224 79zM439 0h-111l449 700h112zM1093 219
c61 -10 117 -40 117 -106c0 -77 -93 -126 -225 -126s-225 49 -225 126c0 66 55 96 115 106c-60 5 -100 43 -100 96c0 75 99 112 210 112s210 -37 210 -112c0 -53 -41 -91 -102 -96zM877 302c0 -40 51 -52 109 -52c56 0 107 12 107 52c0 37 -51 52 -107 52
c-58 0 -109 -15 -109 -52zM984 60c66 0 121 21 121 63c0 46 -55 62 -121 62s-120 -16 -120 -62c0 -42 54 -63 120 -63z" />
    <glyph glyph-name="seveneighths" unicode="&#x215e;" horiz-adv-x="1111" 
d="M99 287l207 330h-289v83h411v-65l-216 -348h-113zM307 0h-111l449 700h112zM961 219c61 -10 117 -40 117 -106c0 -77 -93 -126 -225 -126s-225 49 -225 126c0 66 55 96 115 106c-60 5 -100 43 -100 96c0 75 99 112 210 112s210 -37 210 -112c0 -53 -41 -91 -102 -96z
M745 302c0 -40 51 -52 109 -52c56 0 107 12 107 52c0 37 -51 52 -107 52c-58 0 -109 -15 -109 -52zM852 60c66 0 121 21 121 63c0 46 -55 62 -121 62s-120 -16 -120 -62c0 -42 54 -63 120 -63z" />
    <glyph glyph-name="zero.dnom" horiz-adv-x="552" 
d="M276 -13c-149 0 -242 82 -242 220s93 220 242 220c150 0 242 -82 242 -220s-92 -220 -242 -220zM276 73c86 0 139 47 139 134c0 86 -53 133 -139 133s-140 -47 -140 -133c0 -87 54 -134 140 -134z" />
    <glyph glyph-name="one.dnom" horiz-adv-x="300" 
d="M139 0v303c-33 -25 -74 -38 -118 -45v84c51 7 106 36 143 71h75v-413h-100z" />
    <glyph glyph-name="two.dnom" horiz-adv-x="478" 
d="M36 333c44 54 118 93 209 93c93 0 191 -40 191 -125c0 -71 -63 -112 -149 -143c-71 -26 -128 -47 -141 -77h298v-81h-416v49c11 77 82 139 197 178c61 23 110 36 110 72c0 34 -47 49 -95 49c-58 0 -103 -21 -145 -68z" />
    <glyph glyph-name="three.dnom" horiz-adv-x="486" 
d="M91 130c33 -40 82 -63 143 -63c56 0 112 16 112 60c0 42 -54 53 -115 53h-59v71h59c52 0 102 10 102 48s-52 48 -103 48c-55 0 -97 -18 -132 -58l-65 45c38 57 117 92 206 92c99 0 197 -36 197 -113c0 -51 -41 -90 -97 -96c56 -9 113 -38 113 -101
c0 -82 -93 -128 -213 -128c-94 0 -175 38 -216 100z" />
    <glyph glyph-name="four.dnom" horiz-adv-x="511" 
d="M488 165v-76h-78v-89h-97v89h-296v57l303 267h90v-248h78zM143 165h169v144z" />
    <glyph glyph-name="five.dnom" horiz-adv-x="484" 
d="M74 128c42 -36 93 -58 168 -58c67 0 113 19 113 63c0 45 -46 63 -112 63c-44 0 -89 -8 -132 -29l-71 27l37 219h340v-78h-267l-16 -103c41 26 92 39 143 39c95 0 180 -45 180 -138c0 -81 -65 -146 -210 -146c-105 0 -175 39 -224 79z" />
    <glyph glyph-name="six.dnom" horiz-adv-x="517" 
d="M292 272c96 0 196 -38 196 -138c0 -85 -77 -147 -214 -147c-148 0 -240 84 -240 220s92 220 240 220c90 0 159 -27 202 -70l-55 -57c-35 33 -82 50 -136 50c-84 0 -147 -35 -149 -138c39 41 102 60 156 60zM274 65c66 0 112 20 112 66c0 50 -43 69 -112 69
c-47 0 -97 -16 -132 -47c17 -66 67 -88 132 -88z" />
    <glyph glyph-name="seven.dnom" horiz-adv-x="444" 
d="M99 0l207 330h-289v83h411v-65l-216 -348h-113z" />
    <glyph glyph-name="eight.dnom" horiz-adv-x="516" 
d="M366 219c61 -10 117 -40 117 -106c0 -77 -93 -126 -225 -126s-225 49 -225 126c0 66 55 96 115 106c-60 5 -100 43 -100 96c0 75 99 112 210 112s210 -37 210 -112c0 -53 -41 -91 -102 -96zM150 302c0 -40 51 -52 109 -52c56 0 107 12 107 52c0 37 -51 52 -107 52
c-58 0 -109 -15 -109 -52zM257 60c66 0 121 21 121 63c0 46 -55 62 -121 62s-120 -16 -120 -62c0 -42 54 -63 120 -63z" />
    <glyph glyph-name="nine.dnom" horiz-adv-x="517" 
d="M240 426c148 0 240 -84 240 -220s-92 -220 -240 -220c-90 0 -159 27 -202 70l55 57c35 -33 82 -50 136 -50c84 0 147 35 149 138c-39 -41 -102 -60 -156 -60c-96 0 -196 38 -196 138c0 85 77 147 214 147zM128 282c0 -50 43 -69 112 -69c47 0 97 16 132 47
c-17 66 -67 88 -132 88c-66 0 -112 -20 -112 -66z" />
    <glyph glyph-name="zero.numr" horiz-adv-x="552" 
d="M276 274c-149 0 -242 82 -242 220s93 220 242 220c150 0 242 -82 242 -220s-92 -220 -242 -220zM276 360c86 0 139 47 139 134c0 86 -53 133 -139 133s-140 -47 -140 -133c0 -87 54 -134 140 -134z" />
    <glyph glyph-name="one.numr" horiz-adv-x="300" 
d="M139 287v303c-33 -25 -74 -38 -118 -45v84c51 7 106 36 143 71h75v-413h-100z" />
    <glyph glyph-name="two.numr" horiz-adv-x="478" 
d="M36 620c44 54 118 93 209 93c93 0 191 -40 191 -125c0 -71 -63 -112 -149 -143c-71 -26 -128 -47 -141 -77h298v-81h-416v49c11 77 82 139 197 178c61 23 110 36 110 72c0 34 -47 49 -95 49c-58 0 -103 -21 -145 -68z" />
    <glyph glyph-name="three.numr" horiz-adv-x="486" 
d="M91 417c33 -40 82 -63 143 -63c56 0 112 16 112 60c0 42 -54 53 -115 53h-59v71h59c52 0 102 10 102 48s-52 48 -103 48c-55 0 -97 -18 -132 -58l-65 45c38 57 117 92 206 92c99 0 197 -36 197 -113c0 -51 -41 -90 -97 -96c56 -9 113 -38 113 -101
c0 -82 -93 -128 -213 -128c-94 0 -175 38 -216 100z" />
    <glyph glyph-name="four.numr" horiz-adv-x="511" 
d="M488 452v-76h-78v-89h-97v89h-296v57l303 267h90v-248h78zM143 452h169v144z" />
    <glyph glyph-name="five.numr" horiz-adv-x="484" 
d="M74 415c42 -36 93 -58 168 -58c67 0 113 19 113 63c0 45 -46 63 -112 63c-44 0 -89 -8 -132 -29l-71 27l37 219h340v-78h-267l-16 -103c41 26 92 39 143 39c95 0 180 -45 180 -138c0 -81 -65 -146 -210 -146c-105 0 -175 39 -224 79z" />
    <glyph glyph-name="six.numr" horiz-adv-x="517" 
d="M292 559c96 0 196 -38 196 -138c0 -85 -77 -147 -214 -147c-148 0 -240 84 -240 220s92 220 240 220c90 0 159 -27 202 -70l-55 -57c-35 33 -82 50 -136 50c-84 0 -147 -35 -149 -138c39 41 102 60 156 60zM274 352c66 0 112 20 112 66c0 50 -43 69 -112 69
c-47 0 -97 -16 -132 -47c17 -66 67 -88 132 -88z" />
    <glyph glyph-name="seven.numr" horiz-adv-x="444" 
d="M99 287l207 330h-289v83h411v-65l-216 -348h-113z" />
    <glyph glyph-name="eight.numr" horiz-adv-x="516" 
d="M366 506c61 -10 117 -40 117 -106c0 -77 -93 -126 -225 -126s-225 49 -225 126c0 66 55 96 115 106c-60 5 -100 43 -100 96c0 75 99 112 210 112s210 -37 210 -112c0 -53 -41 -91 -102 -96zM150 589c0 -40 51 -52 109 -52c56 0 107 12 107 52c0 37 -51 52 -107 52
c-58 0 -109 -15 -109 -52zM257 347c66 0 121 21 121 63c0 46 -55 62 -121 62s-120 -16 -120 -62c0 -42 54 -63 120 -63z" />
    <glyph glyph-name="nine.numr" horiz-adv-x="517" 
d="M240 713c148 0 240 -84 240 -220s-92 -220 -240 -220c-90 0 -159 27 -202 70l55 57c35 -33 82 -50 136 -50c84 0 147 35 149 138c-39 -41 -102 -60 -156 -60c-96 0 -196 38 -196 138c0 85 77 147 214 147zM128 569c0 -50 43 -69 112 -69c47 0 97 16 132 47
c-17 66 -67 88 -132 88c-66 0 -112 -20 -112 -66z" />
    <glyph glyph-name="uni2070" unicode="&#x2070;" horiz-adv-x="552" 
d="M276 448c-149 0 -242 82 -242 220s93 220 242 220c150 0 242 -82 242 -220s-92 -220 -242 -220zM276 534c86 0 139 47 139 134c0 86 -53 133 -139 133s-140 -47 -140 -133c0 -87 54 -134 140 -134z" />
    <glyph glyph-name="uni00B9" unicode="&#xb9;" horiz-adv-x="300" 
d="M139 460v303c-33 -25 -74 -38 -118 -45v84c51 7 106 36 143 71h75v-413h-100z" />
    <glyph glyph-name="uni00B2" unicode="&#xb2;" horiz-adv-x="478" 
d="M36 794c44 54 118 93 209 93c93 0 191 -40 191 -125c0 -71 -63 -112 -149 -143c-71 -26 -128 -47 -141 -77h298v-81h-416v49c11 77 82 139 197 178c61 23 110 36 110 72c0 34 -47 49 -95 49c-58 0 -103 -21 -145 -68z" />
    <glyph glyph-name="uni00B3" unicode="&#xb3;" horiz-adv-x="486" 
d="M91 591c33 -40 82 -63 143 -63c56 0 112 16 112 60c0 42 -54 53 -115 53h-59v71h59c52 0 102 10 102 48s-52 48 -103 48c-55 0 -97 -18 -132 -58l-65 45c38 57 117 92 206 92c99 0 197 -36 197 -113c0 -51 -41 -90 -97 -96c56 -9 113 -38 113 -101
c0 -82 -93 -128 -213 -128c-94 0 -175 38 -216 100z" />
    <glyph glyph-name="uni2074" unicode="&#x2074;" horiz-adv-x="511" 
d="M488 626v-76h-78v-89h-97v89h-296v57l303 267h90v-248h78zM143 626h169v144z" />
    <glyph glyph-name="uni2075" unicode="&#x2075;" horiz-adv-x="484" 
d="M74 589c42 -36 93 -58 168 -58c67 0 113 19 113 63c0 45 -46 63 -112 63c-44 0 -89 -8 -132 -29l-71 27l37 219h340v-78h-267l-16 -103c41 26 92 39 143 39c95 0 180 -45 180 -138c0 -81 -65 -146 -210 -146c-105 0 -175 39 -224 79z" />
    <glyph glyph-name="uni2076" unicode="&#x2076;" horiz-adv-x="517" 
d="M292 733c96 0 196 -38 196 -138c0 -85 -77 -147 -214 -147c-148 0 -240 84 -240 220s92 220 240 220c90 0 159 -27 202 -70l-55 -57c-35 33 -82 50 -136 50c-84 0 -147 -35 -149 -138c39 41 102 60 156 60zM274 526c66 0 112 20 112 66c0 50 -43 69 -112 69
c-47 0 -97 -16 -132 -47c17 -66 67 -88 132 -88z" />
    <glyph glyph-name="uni2077" unicode="&#x2077;" horiz-adv-x="444" 
d="M99 461l207 330h-289v83h411v-65l-216 -348h-113z" />
    <glyph glyph-name="uni2078" unicode="&#x2078;" horiz-adv-x="516" 
d="M366 680c61 -10 117 -40 117 -106c0 -77 -93 -126 -225 -126s-225 49 -225 126c0 66 55 96 115 106c-60 5 -100 43 -100 96c0 75 99 112 210 112s210 -37 210 -112c0 -53 -41 -91 -102 -96zM150 763c0 -40 51 -52 109 -52c56 0 107 12 107 52c0 37 -51 52 -107 52
c-58 0 -109 -15 -109 -52zM257 521c66 0 121 21 121 63c0 46 -55 62 -121 62s-120 -16 -120 -62c0 -42 54 -63 120 -63z" />
    <glyph glyph-name="uni2079" unicode="&#x2079;" horiz-adv-x="517" 
d="M240 887c148 0 240 -84 240 -220s-92 -220 -240 -220c-90 0 -159 27 -202 70l55 57c35 -33 82 -50 136 -50c84 0 147 35 149 138c-39 -41 -102 -60 -156 -60c-96 0 -196 38 -196 138c0 85 77 147 214 147zM128 743c0 -50 43 -69 112 -69c47 0 97 16 132 47
c-17 66 -67 88 -132 88c-66 0 -112 -20 -112 -66z" />
    <glyph glyph-name="zero.sc" horiz-adv-x="880" 
d="M440 -21c-241 0 -390 123 -390 326c0 204 149 327 390 327c242 0 390 -123 390 -327c0 -203 -148 -326 -390 -326zM440 111c142 0 231 69 231 194c0 127 -89 194 -231 194c-144 0 -232 -67 -232 -194c0 -125 88 -194 232 -194z" />
    <glyph glyph-name="one.sc" horiz-adv-x="471" 
d="M224 0v443c-54 -35 -121 -56 -193 -67v130c82 11 170 55 230 105h119v-611h-156z" />
    <glyph glyph-name="two.sc" horiz-adv-x="765" 
d="M56 489c54 79 175 141 332 141c156 0 314 -59 314 -186c0 -104 -103 -167 -246 -211c-119 -38 -208 -66 -229 -110h487v-123h-672v68c17 116 133 214 322 270c101 33 179 52 179 104c0 49 -77 68 -163 68c-99 0 -175 -36 -233 -101z" />
    <glyph glyph-name="three.sc" horiz-adv-x="776" 
d="M135 196c64 -63 133 -95 240 -95c99 0 187 22 187 86c0 63 -86 77 -191 77h-96v110h96c88 0 171 18 171 70s-85 65 -172 65c-95 0 -165 -28 -221 -88l-101 73c67 85 183 136 333 136c162 0 321 -53 321 -166c0 -76 -66 -133 -160 -143c94 -13 185 -58 185 -151
c0 -124 -151 -189 -343 -189c-154 0 -279 56 -350 145z" />
    <glyph glyph-name="four.sc" horiz-adv-x="817" 
d="M783 241v-117h-128v-124h-151v124h-480v93l492 394h139v-370h128zM220 241h283v215z" />
    <glyph glyph-name="five.sc" horiz-adv-x="777" 
d="M116 197c69 -59 156 -90 277 -90c112 0 188 22 188 87s-76 91 -194 91c-67 0 -135 -9 -208 -38l-114 44l55 320h554v-121h-436l-26 -145c71 38 145 56 233 56c150 0 295 -66 295 -209c0 -114 -108 -213 -347 -213c-152 0 -270 50 -358 127z" />
    <glyph glyph-name="six.sc" horiz-adv-x="825" 
d="M468 402c151 0 314 -56 314 -203c0 -126 -125 -220 -344 -220c-241 0 -388 127 -388 326c0 200 147 327 388 327c145 0 253 -41 325 -102l-89 -92c-57 50 -139 76 -220 76c-140 0 -244 -53 -246 -204c63 61 165 92 260 92zM438 95c113 0 187 31 187 101
c0 72 -76 97 -184 97c-80 0 -165 -24 -222 -70c29 -92 112 -128 219 -128z" />
    <glyph glyph-name="seven.sc" horiz-adv-x="713" 
d="M156 0l342 484h-474v127h664v-101l-353 -510h-179z" />
    <glyph glyph-name="eight.sc" horiz-adv-x="823" 
d="M590 322c92 -12 184 -59 184 -155c0 -114 -149 -188 -362 -188c-215 0 -363 74 -363 188c0 96 93 143 185 155c-93 10 -161 66 -161 143c0 110 158 167 339 167c179 0 337 -57 337 -167c0 -77 -66 -133 -159 -143zM230 446c0 -59 85 -75 181 -75s182 16 182 75
c0 51 -86 74 -182 74s-181 -23 -181 -74zM412 92c113 0 200 30 200 89c0 66 -87 89 -200 89s-200 -23 -200 -89c0 -59 87 -89 200 -89z" />
    <glyph glyph-name="nine.sc" horiz-adv-x="825" 
d="M383 632c241 0 388 -127 388 -326c0 -200 -147 -327 -388 -327c-145 0 -253 41 -325 102l89 92c57 -50 139 -76 220 -76c140 0 244 53 246 204c-63 -61 -165 -92 -260 -92c-151 0 -314 56 -314 203c0 126 125 220 344 220zM196 415c0 -72 76 -97 184 -97
c80 0 165 24 222 70c-29 92 -112 128 -219 128c-113 0 -187 -31 -187 -101z" />
    <glyph glyph-name="asterisk" unicode="*" horiz-adv-x="604" 
d="M369 229l-67 175l-67 -175l-111 64l117 146l-184 -30v129l184 -28l-117 144l111 64l67 -175l67 175l111 -64l-117 -144l184 28v-129l-184 30l117 -146z" />
    <glyph glyph-name="backslash" unicode="\" horiz-adv-x="738" 
d="M544 -100l-519 880h169l518 -880h-168z" />
    <glyph glyph-name="periodcentered" unicode="&#xb7;" horiz-adv-x="296" 
d="M148 203c-56 0 -95 35 -95 83c0 47 39 84 95 84c55 0 94 -37 94 -84c0 -48 -39 -83 -94 -83z" />
    <glyph glyph-name="bullet" unicode="&#x2022;" horiz-adv-x="409" 
d="M204 154c-81 0 -138 53 -138 128c0 76 57 129 138 129s138 -53 138 -129c0 -75 -57 -128 -138 -128z" />
    <glyph glyph-name="colon" unicode=":" horiz-adv-x="296" 
d="M148 396c-56 0 -95 35 -95 83c0 47 39 84 95 84c55 0 94 -37 94 -84c0 -48 -39 -83 -94 -83zM148 -12c-56 0 -95 35 -95 83c0 47 39 84 95 84c55 0 94 -37 94 -84c0 -48 -39 -83 -94 -83z" />
    <glyph glyph-name="comma" unicode="," horiz-adv-x="299" 
d="M147 155c60 0 98 -46 98 -103c0 -67 -42 -161 -128 -219l-35 44c46 41 73 74 83 117c-4 -4 -12 -6 -24 -6c-48 0 -87 35 -87 84c0 46 39 83 93 83z" />
    <glyph glyph-name="ellipsis" unicode="&#x2026;" horiz-adv-x="873" 
d="M148 -12c-56 0 -95 35 -95 83c0 47 39 84 95 84c55 0 94 -37 94 -84c0 -48 -39 -83 -94 -83zM437 -12c-56 0 -95 35 -95 83c0 47 39 84 95 84c55 0 94 -37 94 -84c0 -48 -39 -83 -94 -83zM725 -12c-56 0 -95 35 -95 83c0 47 39 84 95 84c55 0 94 -37 94 -84
c0 -48 -39 -83 -94 -83z" />
    <glyph glyph-name="exclam" unicode="!" horiz-adv-x="334" 
d="M73 700h187l-26 -471h-134zM166 -12c-56 0 -95 35 -95 83c0 47 39 84 95 84c55 0 94 -37 94 -84c0 -48 -39 -83 -94 -83z" />
    <glyph glyph-name="exclamdown" unicode="&#xa1;" horiz-adv-x="334" 
d="M166 512c55 0 94 -35 94 -83c0 -47 -39 -84 -94 -84c-56 0 -95 37 -95 84c0 48 39 83 95 83zM73 -200l27 471h134l26 -471h-187z" />
    <glyph glyph-name="uni203D" unicode="&#x203d;" horiz-adv-x="751" 
d="M380 721c161 0 329 -66 329 -209c0 -119 -118 -182 -276 -193v-96h-126v181v160h126v-142c72 16 113 41 113 88c0 67 -85 85 -169 85c-106 0 -194 -39 -260 -115l-90 90c78 85 193 151 353 151zM369 155c55 0 94 -37 94 -84c0 -48 -39 -83 -94 -83c-56 0 -95 35 -95 83
c0 47 39 84 95 84z" />
    <glyph glyph-name="numbersign" unicode="#" horiz-adv-x="953" 
d="M911 432h-169l-43 -151h177v-103h-206l-51 -178h-131l51 178h-225l-51 -178h-131l51 178h-141v103h170l43 151h-178v103h208l47 165h131l-47 -165h225l47 165h131l-47 -165h139v-103zM568 281l43 151h-225l-43 -151h225z" />
    <glyph glyph-name="period" unicode="." horiz-adv-x="296" 
d="M148 -12c-56 0 -95 35 -95 83c0 47 39 84 95 84c55 0 94 -37 94 -84c0 -48 -39 -83 -94 -83z" />
    <glyph glyph-name="question" unicode="?" horiz-adv-x="751" 
d="M307 223v181c147 14 239 36 239 106c0 67 -85 85 -169 85c-106 0 -194 -39 -260 -115l-90 90c78 85 193 151 353 151c161 0 329 -66 329 -209c0 -119 -118 -182 -276 -193v-96h-126zM369 -12c-56 0 -95 35 -95 83c0 47 39 84 95 84c55 0 94 -37 94 -84
c0 -48 -39 -83 -94 -83z" />
    <glyph glyph-name="questiondown" unicode="&#xbf;" horiz-adv-x="751" 
d="M382 563c56 0 95 -35 95 -83c0 -47 -39 -84 -95 -84c-55 0 -94 37 -94 84c0 48 39 83 94 83zM444 328v-181c-147 -14 -239 -36 -239 -106c0 -67 85 -85 169 -85c106 0 194 39 260 115l90 -90c-78 -85 -193 -151 -353 -151c-161 0 -329 66 -329 209c0 119 118 182 276 193
v96h126z" />
    <glyph glyph-name="quotedbl" unicode="&#x22;" horiz-adv-x="515" 
d="M73 740h132v-305h-132v305zM310 740h132v-305h-132v305z" />
    <glyph glyph-name="quotesingle" unicode="'" horiz-adv-x="278" 
d="M73 740h132v-305h-132v305z" />
    <glyph glyph-name="semicolon" unicode=";" horiz-adv-x="299" 
d="M148 396c-56 0 -95 35 -95 83c0 47 39 84 95 84c55 0 94 -37 94 -84c0 -48 -39 -83 -94 -83zM147 155c60 0 98 -46 98 -103c0 -67 -42 -161 -128 -219l-35 44c46 41 73 74 83 117c-4 -4 -12 -6 -24 -6c-48 0 -87 35 -87 84c0 46 39 83 93 83z" />
    <glyph glyph-name="slash" unicode="/" horiz-adv-x="738" 
d="M194 -100h-168l518 880h169z" />
    <glyph glyph-name="underscore" unicode="_" horiz-adv-x="657" 
d="M655 -164h-653v116h653v-116z" />
    <glyph glyph-name="periodcentered.case" horiz-adv-x="296" 
d="M148 273c-56 0 -95 35 -95 83c0 47 39 84 95 84c55 0 94 -37 94 -84c0 -48 -39 -83 -94 -83z" />
    <glyph glyph-name="bullet.case" horiz-adv-x="404" 
d="M201 227c-81 0 -138 53 -138 129s57 129 138 129s138 -53 138 -129s-57 -129 -138 -129z" />
    <glyph glyph-name="exclamdown.case" horiz-adv-x="334" 
d="M166 712c55 0 94 -35 94 -83c0 -47 -39 -84 -94 -84c-56 0 -95 37 -95 84c0 48 39 83 95 83zM73 0l27 471h134l26 -471h-187z" />
    <glyph glyph-name="questiondown.case" horiz-adv-x="751" 
d="M382 717c56 0 95 -35 95 -83c0 -47 -39 -84 -95 -84c-55 0 -94 37 -94 84c0 48 39 83 94 83zM444 482v-181c-147 -14 -239 -36 -239 -106c0 -67 85 -85 169 -85c106 0 194 39 260 115l90 -90c-78 -85 -193 -151 -353 -151c-161 0 -329 66 -329 209c0 119 118 182 276 193
v96h126z" />
    <glyph glyph-name="braceleft" unicode="{" horiz-adv-x="492" 
d="M315 460c0 -101 -57 -166 -149 -169c92 -5 149 -70 149 -170c0 -86 44 -127 108 -127h30v-114h-49c-129 0 -220 59 -220 203c0 138 -78 169 -175 169v77c97 0 175 31 175 169c0 144 91 202 220 202h49v-114h-30c-64 0 -108 -40 -108 -126z" />
    <glyph glyph-name="braceright" unicode="}" horiz-adv-x="492" 
d="M177 460c0 86 -44 126 -108 126h-30v114h49c129 0 220 -58 220 -202c0 -138 78 -169 175 -169v-77c-97 0 -175 -31 -175 -169c0 -144 -91 -203 -220 -203h-49v114h30c64 0 108 41 108 127c0 100 57 165 149 170c-92 3 -149 68 -149 169z" />
    <glyph glyph-name="bracketleft" unicode="[" horiz-adv-x="450" 
d="M411 586h-188v-592h188v-114h-317v820h317v-114z" />
    <glyph glyph-name="bracketright" unicode="]" horiz-adv-x="450" 
d="M39 586v114h317v-820h-317v114h188v592h-188z" />
    <glyph glyph-name="parenleft" unicode="(" horiz-adv-x="450" 
d="M183 290c0 -172 95 -287 228 -326l-44 -105c-183 44 -321 212 -321 431s138 387 321 431l44 -105c-133 -39 -228 -153 -228 -326z" />
    <glyph glyph-name="parenright" unicode=")" horiz-adv-x="450" 
d="M267 290c0 173 -95 287 -228 326l44 105c183 -44 321 -212 321 -431s-138 -387 -321 -431l-44 105c133 39 228 154 228 326z" />
    <glyph glyph-name="braceleft.case" horiz-adv-x="492" 
d="M315 520c0 -101 -57 -166 -149 -169c92 -5 149 -70 149 -170c0 -86 44 -127 108 -127h30v-114h-49c-129 0 -220 59 -220 203c0 138 -78 169 -175 169v77c97 0 175 31 175 169c0 144 91 202 220 202h49v-114h-30c-64 0 -108 -40 -108 -126z" />
    <glyph glyph-name="braceright.case" horiz-adv-x="492" 
d="M177 520c0 86 -44 126 -108 126h-30v114h49c129 0 220 -58 220 -202c0 -138 78 -169 175 -169v-77c-97 0 -175 -31 -175 -169c0 -144 -91 -203 -220 -203h-49v114h30c64 0 108 41 108 127c0 100 57 165 149 170c-92 3 -149 68 -149 169z" />
    <glyph glyph-name="bracketleft.case" horiz-adv-x="450" 
d="M411 646h-188v-592h188v-114h-317v820h317v-114z" />
    <glyph glyph-name="bracketright.case" horiz-adv-x="450" 
d="M39 646v114h317v-820h-317v114h188v592h-188z" />
    <glyph glyph-name="parenleft.case" horiz-adv-x="450" 
d="M183 350c0 -172 95 -287 228 -326l-44 -105c-183 44 -321 212 -321 431s138 387 321 431l44 -105c-133 -39 -228 -153 -228 -326z" />
    <glyph glyph-name="parenright.case" horiz-adv-x="450" 
d="M267 350c0 173 -95 287 -228 326l44 105c183 -44 321 -212 321 -431s-138 -387 -321 -431l-44 105c133 39 228 154 228 326z" />
    <glyph glyph-name="emdash" unicode="&#x2014;" horiz-adv-x="1005" 
d="M934 237h-863v130h863v-130z" />
    <glyph glyph-name="endash" unicode="&#x2013;" horiz-adv-x="793" 
d="M722 237h-651v130h651v-130z" />
    <glyph glyph-name="hyphen" unicode="-" horiz-adv-x="601" 
d="M530 237h-459v130h459v-130z" />
    <glyph glyph-name="emdash.case" horiz-adv-x="1005" 
d="M934 291h-863v130h863v-130z" />
    <glyph glyph-name="endash.case" horiz-adv-x="793" 
d="M722 291h-651v130h651v-130z" />
    <glyph glyph-name="hyphen.case" horiz-adv-x="601" 
d="M530 291h-459v130h459v-130z" />
    <glyph glyph-name="guillemotleft" unicode="&#xab;" horiz-adv-x="702" 
d="M243 522l-211 -220l211 -220h151l-211 220l211 220h-151zM506 522l-211 -220l211 -220h151l-211 220l211 220h-151z" />
    <glyph glyph-name="guillemotright" unicode="&#xbb;" horiz-adv-x="702" 
d="M196 522h-151l211 -220l-211 -220h151l211 220zM459 522h-151l211 -220l-211 -220h151l211 220z" />
    <glyph glyph-name="guilsinglleft" unicode="&#x2039;" horiz-adv-x="439" 
d="M243 522l-211 -220l211 -220h151l-211 220l211 220h-151z" />
    <glyph glyph-name="guilsinglright" unicode="&#x203a;" horiz-adv-x="439" 
d="M196 522h-151l211 -220l-211 -220h151l211 220z" />
    <glyph glyph-name="quotedblbase" unicode="&#x201e;" horiz-adv-x="520" 
d="M147 155c60 0 98 -46 98 -103c0 -67 -42 -161 -128 -219l-35 44c46 41 73 74 83 117c-4 -4 -12 -6 -24 -6c-48 0 -87 35 -87 84c0 46 39 83 93 83zM368 155c60 0 98 -46 98 -103c0 -67 -42 -161 -128 -219l-35 44c46 41 73 74 83 117c-4 -4 -12 -6 -24 -6
c-48 0 -87 35 -87 84c0 46 39 83 93 83z" />
    <glyph glyph-name="quotedblleft" unicode="&#x201c;" horiz-adv-x="520" 
d="M152 413c-60 0 -98 46 -98 103c0 67 42 161 128 219l35 -44c-46 -41 -73 -74 -83 -117c4 4 12 6 24 6c48 0 87 -35 87 -84c0 -46 -39 -83 -93 -83zM373 413c-60 0 -98 46 -98 103c0 67 42 161 128 219l35 -44c-46 -41 -73 -74 -83 -117c4 4 12 6 24 6c48 0 87 -35 87 -84
c0 -46 -39 -83 -93 -83z" />
    <glyph glyph-name="quotedblright" unicode="&#x201d;" horiz-adv-x="520" 
d="M147 718c60 0 98 -46 98 -103c0 -67 -42 -161 -128 -219l-35 44c46 41 73 74 83 117c-4 -4 -12 -6 -24 -6c-48 0 -87 35 -87 84c0 46 39 83 93 83zM368 718c60 0 98 -46 98 -103c0 -67 -42 -161 -128 -219l-35 44c46 41 73 74 83 117c-4 -4 -12 -6 -24 -6
c-48 0 -87 35 -87 84c0 46 39 83 93 83z" />
    <glyph glyph-name="quoteleft" unicode="&#x2018;" horiz-adv-x="299" 
d="M152 415c-60 0 -98 46 -98 103c0 67 42 161 128 219l35 -44c-46 -41 -73 -74 -83 -117c4 4 12 6 24 6c48 0 87 -35 87 -84c0 -46 -39 -83 -93 -83z" />
    <glyph glyph-name="quoteright" unicode="&#x2019;" horiz-adv-x="299" 
d="M147 718c60 0 98 -46 98 -103c0 -67 -42 -161 -128 -219l-35 44c46 41 73 74 83 117c-4 -4 -12 -6 -24 -6c-48 0 -87 35 -87 84c0 46 39 83 93 83z" />
    <glyph glyph-name="quotesinglbase" unicode="&#x201a;" horiz-adv-x="299" 
d="M147 155c60 0 98 -46 98 -103c0 -67 -42 -161 -128 -219l-35 44c46 41 73 74 83 117c-4 -4 -12 -6 -24 -6c-48 0 -87 35 -87 84c0 46 39 83 93 83z" />
    <glyph glyph-name="guillemotleft.case" horiz-adv-x="702" 
d="M243 576l-211 -220l211 -220h151l-211 220l211 220h-151zM506 576l-211 -220l211 -220h151l-211 220l211 220h-151z" />
    <glyph glyph-name="guillemotright.case" horiz-adv-x="702" 
d="M196 576h-151l211 -220l-211 -220h151l211 220zM459 576h-151l211 -220l-211 -220h151l211 220z" />
    <glyph glyph-name="guilsinglleft.case" horiz-adv-x="439" 
d="M243 576l-211 -220l211 -220h151l-211 220l211 220h-151z" />
    <glyph glyph-name="guilsinglright.case" horiz-adv-x="439" 
d="M196 576h-151l211 -220l-211 -220h151l211 220z" />
    <glyph glyph-name="backslash.sc" horiz-adv-x="698" 
d="M195 711l476 -811h-168l-476 811h168z" />
    <glyph glyph-name="exclam.sc" horiz-adv-x="351" 
d="M82 611h187l-26 -382h-134zM175 -12c-56 0 -95 35 -95 83c0 47 39 84 95 84c55 0 94 -37 94 -84c0 -48 -39 -83 -94 -83z" />
    <glyph glyph-name="exclamdown.sc" horiz-adv-x="334" 
d="M166 623c55 0 94 -35 94 -83c0 -47 -39 -84 -94 -84c-56 0 -95 37 -95 84c0 48 39 83 95 83zM73 0l27 382h134l26 -382h-187z" />
    <glyph glyph-name="numbersign.sc" horiz-adv-x="881" 
d="M837 375h-152l-38 -128h158v-92h-186l-46 -155h-125l46 155h-200l-46 -155h-125l46 155h-126v92h154l38 128h-160v92h187l43 144h126l-43 -144h199l43 144h126l-43 -144h124v-92zM522 247l38 128h-200l-38 -128h200z" />
    <glyph glyph-name="question.sc" horiz-adv-x="694" 
d="M280 206v148c131 8 211 30 211 86c0 54 -73 71 -151 71c-96 0 -165 -32 -223 -96l-87 82c70 79 172 134 316 134c152 0 308 -58 308 -186c0 -105 -104 -158 -247 -166v-73h-127zM344 -12c-56 0 -95 35 -95 83c0 47 39 84 95 84c55 0 94 -37 94 -84c0 -48 -39 -83 -94 -83
z" />
    <glyph glyph-name="questiondown.sc" horiz-adv-x="692" 
d="M349 623c56 0 95 -35 95 -83c0 -47 -39 -84 -95 -84c-55 0 -94 37 -94 84c0 48 39 83 94 83zM413 405v-148c-131 -8 -211 -30 -211 -86c0 -54 73 -71 151 -71c96 0 165 32 223 96l87 -82c-70 -79 -172 -134 -316 -134c-152 0 -308 58 -308 186c0 105 104 158 247 166v73
h127z" />
    <glyph glyph-name="slash.sc" horiz-adv-x="698" 
d="M196 -100h-168l476 811h168z" />
    <glyph glyph-name="space" unicode=" " horiz-adv-x="277" 
 />
    <glyph glyph-name="cent" unicode="&#xa2;" horiz-adv-x="718" 
d="M680 217c-42 -78 -129 -135 -260 -144v-73h-76v73c-183 13 -296 111 -296 277s113 265 296 278v72h76v-72c130 -9 217 -66 259 -143l-114 -47c-31 50 -82 75 -145 81v-338c63 7 111 32 146 83zM184 350c0 -98 63 -154 160 -167v334c-97 -13 -160 -69 -160 -167z" />
    <glyph glyph-name="currency" unicode="&#xa4;" horiz-adv-x="800" 
d="M705 356c0 -71 -22 -132 -62 -179l95 -94l-72 -67l-104 100c-45 -23 -100 -35 -162 -35s-117 12 -163 35l-104 -100l-72 67l95 95c-40 46 -62 107 -62 178c0 65 18 121 52 165l-85 84l72 67l88 -84c49 28 109 43 179 43c69 0 129 -15 178 -43l88 84l72 -67l-85 -84
c34 -44 52 -100 52 -165zM400 187c109 0 187 59 187 169s-78 169 -187 169s-187 -59 -187 -169s78 -169 187 -169z" />
    <glyph glyph-name="dollar" unicode="$" horiz-adv-x="884" 
d="M843 222c0 -131 -118 -215 -341 -223v-103h-96v104c-151 10 -275 58 -370 139l91 103c74 -64 165 -100 279 -110v158c-183 17 -343 57 -343 196c0 137 146 207 343 215v93h96v-94c123 -9 230 -45 307 -105l-87 -105c-62 47 -135 69 -220 77v-140
c202 -18 341 -60 341 -205zM224 502c0 -50 73 -60 182 -68v136c-88 -2 -182 -16 -182 -68zM502 130c119 3 180 24 180 77c0 52 -56 64 -180 75v-152z" />
    <glyph glyph-name="Euro" unicode="&#x20ac;" horiz-adv-x="901" 
d="M522 99c105 0 174 42 218 116l121 -63c-53 -97 -169 -175 -336 -175c-207 0 -347 101 -384 275h-104v62h95c-1 12 -1 24 -1 36s0 24 1 36h-95v62h104c37 174 177 275 384 275c167 0 283 -78 336 -175l-121 -63c-44 74 -113 116 -218 116c-117 0 -198 -56 -230 -153h338
v-62h-350c-1 -12 -2 -24 -2 -36s1 -24 2 -36h350v-62h-338c32 -97 113 -153 230 -153z" />
    <glyph glyph-name="florin" unicode="&#x192;" horiz-adv-x="692" 
d="M554 608c-51 0 -91 -26 -97 -82l-13 -123h172l-9 -90h-172l-16 -159c-12 -112 -102 -177 -208 -177c-57 0 -119 15 -159 37l37 98c18 -10 52 -20 85 -20c51 0 90 26 96 82l15 139h-173l8 90h174l15 143c11 112 102 177 207 177c57 0 121 -15 159 -37l-38 -98
c-17 10 -50 20 -83 20z" />
    <glyph glyph-name="uni20A8" unicode="&#x20a8;" horiz-adv-x="886" 
d="M843 605h-165c22 -26 38 -57 45 -93h120v-95h-121c-18 -89 -87 -149 -184 -175l211 -242h-164l-193 227h-330v96h348c98 0 157 32 176 94h-524v95h523c-19 61 -77 93 -175 93h-348v95h781v-95z" />
    <glyph glyph-name="sterling" unicode="&#xa3;" horiz-adv-x="757" 
d="M327 113h380v-113h-535h-124v113h124v189h-124v100h124v48c0 139 98 273 292 273c104 0 190 -42 236 -92l-64 -95c-42 41 -87 62 -149 62c-107 0 -160 -63 -160 -164v-32h322v-100h-322v-189z" />
    <glyph glyph-name="yen" unicode="&#xa5;" horiz-adv-x="868" 
d="M839 700l-263 -357h158v-69h-209l-10 -14v-55h219v-68h-219v-137h-160v137h-220v68h220v55l-10 14h-210v69h159l-264 357h179l227 -323l225 323h178z" />
    <glyph glyph-name="approxequal" unicode="&#x2248;" horiz-adv-x="736" 
d="M591 506l74 -91c-31 -38 -92 -77 -164 -77c-91 0 -165 55 -258 55c-49 0 -74 -19 -99 -46l-72 90c30 38 91 78 164 78c90 0 164 -55 258 -55c48 0 73 18 97 46zM591 258l74 -91c-31 -38 -92 -77 -164 -77c-91 0 -165 55 -258 55c-49 0 -74 -19 -99 -46l-72 90
c30 38 91 78 164 78c90 0 164 -55 258 -55c48 0 73 18 97 46z" />
    <glyph glyph-name="asciitilde" unicode="~" horiz-adv-x="736" 
d="M592 382l74 -91c-31 -38 -92 -77 -164 -77c-91 0 -165 55 -258 55c-49 0 -74 -19 -99 -46l-72 90c30 38 91 78 164 78c90 0 164 -55 258 -55c48 0 73 18 97 46z" />
    <glyph glyph-name="divide" unicode="&#xf7;" horiz-adv-x="736" 
d="M367 433c-53 0 -85 34 -85 71s32 71 85 71s85 -34 85 -71s-32 -71 -85 -71zM663 241h-590v122h590v-122zM367 28c-53 0 -85 35 -85 71c0 37 32 71 85 71s85 -34 85 -71c0 -36 -32 -71 -85 -71z" />
    <glyph glyph-name="emptyset" unicode="&#x2205;" horiz-adv-x="792" 
d="M658 553c48 -49 74 -116 74 -197c0 -179 -127 -289 -336 -289c-73 0 -135 13 -186 38l-88 -89l-63 61l79 78c-50 50 -77 118 -77 201c0 179 126 289 335 289c76 0 140 -14 192 -41l80 80l63 -59zM207 356c0 -42 10 -77 29 -104l144 142l114 115c-27 13 -60 19 -98 19
c-116 0 -189 -60 -189 -172zM396 185c116 0 188 59 188 171c0 39 -9 73 -26 99l-122 -121l-132 -133c27 -11 57 -16 92 -16z" />
    <glyph glyph-name="equal" unicode="=" horiz-adv-x="736" 
d="M663 374h-590v122h590v-122zM663 122h-590v122h590v-122z" />
    <glyph glyph-name="greater" unicode="&#x3e;" horiz-adv-x="736" 
d="M109 564v-126l411 -141l-411 -141v-126l543 202v130z" />
    <glyph glyph-name="greaterequal" unicode="&#x2265;" horiz-adv-x="736" 
d="M103 638v-112l400 -122l-400 -124v-112l543 176v119zM646 14h-543v104h543v-104z" />
    <glyph glyph-name="infinity" unicode="&#x221e;" horiz-adv-x="1036" 
d="M749 507c136 0 233 -84 233 -214s-97 -214 -233 -214c-108 0 -176 57 -231 123c-55 -66 -124 -123 -232 -123c-136 0 -234 84 -234 214s98 214 234 214c108 0 177 -57 232 -123c55 66 123 123 231 123zM289 184c67 0 113 49 159 109c-46 60 -92 109 -159 109
c-65 0 -118 -42 -118 -109s53 -109 118 -109zM746 184c65 0 117 42 117 109s-52 109 -117 109c-67 0 -113 -49 -158 -109c45 -60 91 -109 158 -109z" />
    <glyph glyph-name="integral" unicode="&#x222b;" horiz-adv-x="440" 
d="M333 760c33 0 71 -5 104 -20l-20 -98c-12 3 -23 5 -34 5c-53 0 -89 -29 -89 -84v-465v-80c0 -113 -81 -178 -188 -178c-33 0 -71 5 -104 20l21 98c12 -3 22 -5 34 -5c52 0 88 29 88 85v464v80c0 113 83 178 188 178z" />
    <glyph glyph-name="less" unicode="&#x3c;" horiz-adv-x="736" 
d="M627 564l-543 -202v-130l543 -202v126l-411 141l411 141v126z" />
    <glyph glyph-name="lessequal" unicode="&#x2264;" horiz-adv-x="736" 
d="M633 638l-543 -175v-119l543 -176v112l-400 124l400 122v112zM90 14v104h543v-104h-543z" />
    <glyph glyph-name="logicalnot" unicode="&#xac;" horiz-adv-x="736" 
d="M60 351h605v-295h-130v180h-475v115z" />
    <glyph glyph-name="minus" unicode="&#x2212;" horiz-adv-x="736" 
d="M663 241h-590v122h590v-122z" />
    <glyph glyph-name="multiply" unicode="&#xd7;" horiz-adv-x="736" 
d="M629 480l-176 -176l176 -176l-84 -86l-176 177l-176 -177l-85 86l176 176l-176 176l85 84l176 -176l176 176z" />
    <glyph glyph-name="notequal" unicode="&#x2260;" horiz-adv-x="736" 
d="M663 374h-208l-63 -130h271v-122h-330l-52 -106h-115l52 106h-145v122h204l64 130h-268v122h328l52 107h114l-52 -107h148v-122z" />
    <glyph glyph-name="partialdiff" unicode="&#x2202;" horiz-adv-x="793" 
d="M749 315c0 -238 -139 -338 -352 -338c-214 0 -353 100 -353 278s146 267 292 267c92 0 221 -19 267 -123c-42 124 -208 219 -410 237l22 123c399 -45 534 -269 534 -444zM395 96c115 0 207 49 207 159c0 109 -92 159 -207 159c-113 0 -205 -50 -205 -159
c0 -110 92 -159 205 -159z" />
    <glyph glyph-name="percent" unicode="%" horiz-adv-x="921" 
d="M221 381c-110 0 -187 74 -187 167c0 94 77 167 187 167s186 -73 186 -167c0 -93 -76 -167 -186 -167zM676 700h114l-544 -700h-114zM221 468c53 0 89 28 89 80s-36 80 -89 80s-89 -28 -89 -80s36 -80 89 -80zM701 -15c-110 0 -187 74 -187 167c0 94 77 167 187 167
s186 -73 186 -167c0 -93 -76 -167 -186 -167zM701 72c53 0 89 28 89 80s-36 80 -89 80s-89 -28 -89 -80s36 -80 89 -80z" />
    <glyph glyph-name="perthousand" unicode="&#x2030;" horiz-adv-x="1331" 
d="M221 381c-110 0 -187 74 -187 167c0 94 77 167 187 167s186 -73 186 -167c0 -93 -76 -167 -186 -167zM676 700h114l-544 -700h-114zM221 468c53 0 89 28 89 80s-36 80 -89 80s-89 -28 -89 -80s36 -80 89 -80zM701 -15c-110 0 -187 74 -187 167c0 94 77 167 187 167
s186 -73 186 -167c0 -93 -76 -167 -186 -167zM1111 -15c-110 0 -187 74 -187 167c0 94 77 167 187 167s186 -73 186 -167c0 -93 -76 -167 -186 -167zM701 72c53 0 89 28 89 80s-36 80 -89 80s-89 -28 -89 -80s36 -80 89 -80zM1111 72c53 0 89 28 89 80s-36 80 -89 80
s-89 -28 -89 -80s36 -80 89 -80z" />
    <glyph glyph-name="plus" unicode="+" horiz-adv-x="736" 
d="M663 361v-118h-231v-203h-126v203h-233v118h233v202h126v-202h231z" />
    <glyph glyph-name="plusminus" unicode="&#xb1;" horiz-adv-x="736" 
d="M427 467h236v-108h-236v-191h-119v191h-235v108h235v189h119v-189zM73 14v108h590v-108h-590z" />
    <glyph glyph-name="product" unicode="&#x220f;" horiz-adv-x="851" 
d="M757 700v-820h-145v690h-373v-690h-145v820h663z" />
    <glyph glyph-name="radical" unicode="&#x221a;" horiz-adv-x="753" 
d="M613 700h142l-324 -820h-123l-176 393h-114v113h153h56l138 -319z" />
    <glyph glyph-name="summation" unicode="&#x2211;" horiz-adv-x="721" 
d="M671 581h-413l310 -252v-67l-313 -263h419v-119h-634v102l374 313l-371 303v102h628v-119z" />
    <glyph glyph-name="percent.osf" horiz-adv-x="921" 
d="M221 302c-110 0 -187 74 -187 167c0 94 77 167 187 167s186 -73 186 -167c0 -93 -76 -167 -186 -167zM674 621h116l-542 -621h-116zM221 389c53 0 89 28 89 80s-36 80 -89 80s-89 -28 -89 -80s36 -80 89 -80zM701 -15c-110 0 -187 74 -187 167c0 94 77 167 187 167
s186 -73 186 -167c0 -93 -76 -167 -186 -167zM701 72c53 0 89 28 89 80s-36 80 -89 80s-89 -28 -89 -80s36 -80 89 -80z" />
    <glyph glyph-name="perthousand.osf" horiz-adv-x="1331" 
d="M221 302c-110 0 -187 74 -187 167c0 94 77 167 187 167s186 -73 186 -167c0 -93 -76 -167 -186 -167zM674 621h116l-542 -621h-116zM221 389c53 0 89 28 89 80s-36 80 -89 80s-89 -28 -89 -80s36 -80 89 -80zM701 -15c-110 0 -187 74 -187 167c0 94 77 167 187 167
s186 -73 186 -167c0 -93 -76 -167 -186 -167zM1111 -15c-110 0 -187 74 -187 167c0 94 77 167 187 167s186 -73 186 -167c0 -93 -76 -167 -186 -167zM701 72c53 0 89 28 89 80s-36 80 -89 80s-89 -28 -89 -80s36 -80 89 -80zM1111 72c53 0 89 28 89 80s-36 80 -89 80
s-89 -28 -89 -80s36 -80 89 -80z" />
    <glyph glyph-name="arrowup" unicode="&#x2191;" horiz-adv-x="964" 
d="M839 383l-80 -80l-210 215v-558h-135v557l-209 -214l-80 80l357 357z" />
    <glyph glyph-name="uni2197" unicode="&#x2197;" horiz-adv-x="964" 
d="M251 643h505v-505h-113v300l-393 -393l-92 91l395 394h-302v113z" />
    <glyph glyph-name="arrowright" unicode="&#x2192;" horiz-adv-x="964" 
d="M525 698l357 -357l-357 -357l-80 80l215 210h-558v135h557l-214 209z" />
    <glyph glyph-name="uni2198" unicode="&#x2198;" horiz-adv-x="964" 
d="M643 565h113v-505h-505v113h302l-395 394l92 91l393 -393v300z" />
    <glyph glyph-name="arrowdown" unicode="&#x2193;" horiz-adv-x="964" 
d="M759 397l80 -80l-357 -357l-357 357l80 80l209 -214v557h135v-558z" />
    <glyph glyph-name="uni2199" unicode="&#x2199;" horiz-adv-x="964" 
d="M806 567l-395 -394h302v-113h-505v505h113v-300l393 393z" />
    <glyph glyph-name="arrowleft" unicode="&#x2190;" horiz-adv-x="964" 
d="M862 409v-135h-558l215 -210l-80 -80l-357 357l357 357l80 -80l-214 -209h557z" />
    <glyph glyph-name="uni2196" unicode="&#x2196;" horiz-adv-x="964" 
d="M806 136l-92 -91l-393 393v-300h-113v505h505v-113h-302z" />
    <glyph glyph-name="lozenge" unicode="&#x25ca;" horiz-adv-x="762" 
d="M459 700l271 -344l-271 -356h-157l-271 356l271 344h157zM381 104l190 252l-190 244l-191 -244z" />
    <glyph glyph-name="bar" unicode="|" horiz-adv-x="320" 
d="M88 -120v820h145v-820h-145z" />
    <glyph glyph-name="brokenbar" unicode="&#xa6;" horiz-adv-x="320" 
d="M88 371v329h145v-329h-145zM233 214v-334h-145v334h145z" />
    <glyph glyph-name="at" unicode="@" horiz-adv-x="1117" 
d="M555 691c308 0 509 -172 509 -416c0 -178 -69 -245 -172 -245c-82 0 -146 43 -170 105c-48 -71 -139 -112 -233 -112c-150 0 -268 99 -268 253c0 155 118 252 268 252c94 0 180 -40 227 -112l29 94h99v-305c0 -93 36 -118 71 -118c52 0 89 65 89 188
c0 241 -204 361 -449 361s-448 -120 -448 -361s203 -360 448 -360c121 0 222 25 292 73l29 -46c-71 -55 -180 -82 -321 -82c-307 0 -508 171 -508 415s201 416 508 416zM528 124c76 0 146 30 185 104v93c-39 74 -109 104 -185 104c-104 0 -174 -56 -174 -150
s70 -151 174 -151z" />
    <glyph glyph-name="ampersand" unicode="&#x26;" horiz-adv-x="912" 
d="M918 0h-198l-52 39c-66 -38 -149 -59 -250 -59c-211 0 -367 102 -367 236c0 79 53 146 145 183c-38 36 -62 74 -62 126c0 112 106 195 278 195c182 0 278 -87 332 -183l-131 -53c-54 90 -115 123 -197 123c-79 0 -129 -30 -129 -81c0 -45 41 -73 119 -133l252 -194
c22 36 35 80 38 135h142c-4 -83 -30 -156 -76 -214zM426 94c51 0 97 8 136 25l-290 217c-43 -27 -62 -66 -62 -106c0 -89 96 -136 216 -136z" />
    <glyph glyph-name="paragraph" unicode="&#xb6;" horiz-adv-x="937" 
d="M321 700h522v-700h-128v585h-124v-585h-128v234h-142c-172 0 -291 77 -291 233c0 153 119 233 291 233zM463 347v238h-144c-97 0 -157 -37 -157 -121c0 -82 60 -117 157 -117h144z" />
    <glyph glyph-name="copyright" unicode="&#xa9;" horiz-adv-x="983" 
d="M492 -22c-272 0 -443 148 -443 372s171 372 443 372c270 0 442 -148 442 -372s-172 -372 -442 -372zM492 19c235 0 396 120 396 331s-161 331 -396 331s-399 -120 -399 -331s164 -331 399 -331zM765 223c-48 -72 -140 -130 -276 -130c-176 0 -298 96 -298 258
s122 258 298 258c135 0 226 -57 270 -129l-99 -47c-41 57 -91 79 -161 79c-111 0 -183 -57 -183 -161s72 -161 183 -161c71 0 122 23 163 81z" />
    <glyph glyph-name="registered" unicode="&#xae;" horiz-adv-x="571" 
d="M285 710c130 0 239 -80 239 -212c0 -131 -109 -211 -239 -211s-237 80 -237 211c0 132 107 212 237 212zM286 315c115 0 205 67 205 183c0 117 -90 183 -205 183c-116 0 -206 -66 -206 -183c0 -116 90 -183 206 -183zM415 539c0 -36 -25 -60 -61 -69l66 -76h-67l-61 72
h-63v-72h-58v218h148c55 0 96 -25 96 -73zM229 569v-63h79c30 0 46 9 46 31c0 24 -16 32 -46 32h-79z" />
    <glyph glyph-name="uni2117" unicode="&#x2117;" horiz-adv-x="983" 
d="M492 -22c-272 0 -443 148 -443 372s171 372 443 372c270 0 442 -148 442 -372s-172 -372 -442 -372zM492 19c235 0 396 120 396 331s-161 331 -396 331s-399 -120 -399 -331s164 -331 399 -331zM575 591c125 0 222 -54 222 -165s-97 -165 -222 -165h-199v-150h-124v480
h323zM563 345c65 0 109 20 109 78s-44 79 -109 79h-187v-157h187z" />
    <glyph glyph-name="section" unicode="&#xa7;" horiz-adv-x="731" 
d="M597 169c51 -25 81 -64 81 -121c0 -105 -103 -191 -307 -191c-138 0 -249 44 -331 107l73 85c65 -49 148 -85 262 -85c91 0 161 21 161 69c0 49 -64 61 -177 70c-152 12 -296 50 -296 173c0 61 35 111 93 144c-54 26 -89 65 -89 125c0 115 127 178 302 178
c115 0 220 -37 289 -85l-71 -84c-55 38 -128 61 -218 62c-78 1 -161 -13 -161 -64c0 -49 76 -56 177 -63c169 -12 297 -54 297 -170c0 -58 -27 -113 -85 -150zM205 292c0 -52 75 -70 176 -77c21 -1 42 -3 62 -6c59 15 96 49 96 87c0 51 -61 72 -171 81l-36 3
c-70 -8 -127 -39 -127 -88z" />
    <glyph glyph-name="trademark" unicode="&#x2122;" horiz-adv-x="970" 
d="M401 700v-74h-137v-268h-89v268h-137v74h363zM799 700h90v-342h-86v228l-134 -175h-3l-133 175v-228h-86v342h92l129 -174z" />
    <glyph glyph-name="degree" unicode="&#xb0;" horiz-adv-x="425" 
d="M212 426c-97 0 -167 58 -167 145c0 86 70 144 167 144c99 0 169 -58 169 -144c0 -87 -70 -145 -169 -145zM212 496c53 0 87 29 87 75s-34 74 -87 74s-87 -28 -87 -74s34 -75 87 -75z" />
    <glyph glyph-name="estimated" unicode="&#x212e;" horiz-adv-x="938" 
d="M270 318v-211c54 -31 123 -47 204 -47c142 0 245 44 318 126l61 -63c-83 -89 -201 -146 -379 -146c-254 0 -425 140 -425 373s171 373 425 373c255 0 422 -144 426 -405h-630zM675 591c-54 34 -122 50 -201 50c-81 0 -150 -16 -204 -47v-198h405v195z" />
    <glyph glyph-name="uni2113" unicode="&#x2113;" horiz-adv-x="595" 
d="M363 86c40 0 76 20 105 69l78 -67c-37 -72 -113 -108 -193 -108c-98 0 -201 54 -202 194c-32 -13 -64 -25 -93 -36l-30 85c35 14 79 31 123 50v290c0 142 105 197 202 197s202 -55 202 -199c0 -122 -66 -227 -231 -311c-15 -8 -31 -16 -49 -24v-41c0 -74 43 -99 88 -99z
M275 555v-227c13 6 24 12 33 17c93 53 123 130 123 210c0 74 -36 99 -78 99s-78 -25 -78 -99z" />
    <glyph glyph-name="asciicircum" unicode="^" horiz-adv-x="736" 
d="M85 260h132l151 316l149 -316h133l-222 440h-122z" />
    <glyph glyph-name="dagger" unicode="&#x2020;" horiz-adv-x="437" 
d="M377 622v-90h-109v-203h-100v203h-109v90h109v118h100v-118h109z" />
    <glyph glyph-name="daggerdbl" unicode="&#x2021;" horiz-adv-x="437" 
d="M377 573h-112v-77h112v-75h-112v-92h-95v92h-111v75h111v77h-111v75h111v92h95v-92h112v-75z" />
    <glyph glyph-name="minute" unicode="&#x2032;" horiz-adv-x="308" 
d="M142 700h136l-97 -283h-135z" />
    <glyph glyph-name="second" unicode="&#x2033;" horiz-adv-x="529" 
d="M142 700h136l-97 -283h-135zM363 700h136l-97 -283h-135z" />
    <glyph glyph-name="bar.case" horiz-adv-x="320" 
d="M88 -60v820h145v-820h-145z" />
    <glyph glyph-name="brokenbar.case" horiz-adv-x="320" 
d="M88 431v329h145v-329h-145zM233 274v-334h-145v334h145z" />
    <glyph glyph-name="at.case" horiz-adv-x="1035" 
d="M785 32c-66 -38 -174 -54 -271 -54c-288 0 -467 156 -467 372s179 372 467 372s468 -156 468 -372c0 -144 -59 -226 -159 -226c-74 0 -136 45 -159 105c-43 -69 -120 -107 -209 -107c-133 0 -245 84 -245 229c0 146 112 230 245 230c89 0 161 -39 205 -108l24 90h93v-271
c0 -89 36 -120 68 -120c53 0 80 81 80 178c0 214 -179 319 -411 319c-231 0 -410 -105 -410 -319s179 -319 410 -319c92 0 181 17 246 48zM489 207c75 0 130 36 168 108v71c-38 71 -93 107 -168 107c-92 0 -159 -48 -159 -143s67 -143 159 -143z" />
    <glyph glyph-name="registered.case" horiz-adv-x="983" 
d="M492 722c270 0 442 -148 442 -372s-172 -372 -442 -372c-272 0 -443 148 -443 372s171 372 443 372zM786 112c65 56 102 137 102 238c0 211 -161 331 -396 331s-399 -120 -399 -331s164 -331 399 -331c121 0 223 32 293 92h-137l-116 154h-174v-154h-124v480h323
c125 0 222 -52 222 -163c0 -81 -52 -131 -129 -152zM358 349h190c64 0 106 20 106 76c0 57 -42 77 -106 77h-190v-153z" />
    <glyph glyph-name="dagger.case" horiz-adv-x="557" 
d="M497 491v-108h-157v-383h-125v383h-156v108h156v209h125v-209h157z" />
    <glyph glyph-name="daggerdbl.case" horiz-adv-x="557" 
d="M497 438h-157v-176h157v-107h-157v-155h-125v155h-156v107h156v176h-156v107h156v155h125v-155h157v-107z" />
    <glyph glyph-name="bar.sc" horiz-adv-x="320" 
d="M88 -100v820h145v-820h-145z" />
    <glyph glyph-name="brokenbar.sc" horiz-adv-x="320" 
d="M88 391v329h145v-329h-145zM233 234v-334h-145v334h145z" />
    <glyph glyph-name="at.sc" horiz-adv-x="941" 
d="M723 29c-59 -34 -158 -50 -248 -50c-264 0 -427 138 -427 326c0 190 163 327 427 327s427 -137 427 -327c0 -128 -54 -196 -146 -196c-69 0 -126 37 -148 91c-39 -61 -110 -92 -190 -92c-121 0 -222 73 -222 198c0 126 101 200 222 200c80 0 146 -32 186 -93l23 78h89
v-236c0 -74 31 -100 61 -100c46 0 71 68 71 150c0 188 -164 277 -373 277s-372 -89 -372 -277c0 -187 163 -276 372 -276c86 0 166 17 223 44zM452 188c66 0 116 29 148 87v61c-32 58 -82 87 -148 87c-82 0 -141 -41 -141 -118s59 -117 141 -117z" />
    <glyph glyph-name="ampersand.sc" horiz-adv-x="846" 
d="M840 0h-184l-45 33c-59 -32 -134 -50 -224 -50c-193 0 -336 88 -336 206c0 70 49 127 134 159c-35 32 -58 66 -58 112c0 96 96 172 255 172c167 0 254 -77 305 -159l-125 -52c-47 78 -105 97 -176 97c-69 0 -103 -21 -103 -62c0 -37 32 -60 96 -108l225 -169
c20 28 34 66 37 114h133c-4 -73 -29 -138 -72 -189zM406 97c35 0 69 4 99 14l-248 181c-34 -24 -49 -54 -49 -82c0 -65 81 -113 198 -113z" />
    <glyph glyph-name="paragraph.sc" horiz-adv-x="912" 
d="M304 611h518v-611h-138v491h-103v-491h-138v185h-139c-162 0 -272 66 -272 213c0 143 110 213 272 213zM443 305v186h-134c-75 0 -137 -26 -137 -93s62 -93 137 -93h134z" />
    <glyph glyph-name="copyright.sc" horiz-adv-x="906" 
d="M452 -21c-247 0 -404 131 -404 326c0 197 157 327 404 327c249 0 406 -130 406 -327c0 -195 -157 -326 -406 -326zM452 18c214 0 364 105 364 287c0 183 -150 289 -364 289s-363 -106 -363 -289c0 -182 149 -287 363 -287zM704 195c-44 -63 -128 -114 -254 -114
c-161 0 -272 83 -272 225c0 143 111 227 272 227c124 0 208 -53 247 -115l-95 -44c-35 48 -81 66 -142 66c-98 0 -161 -48 -161 -134c0 -85 63 -133 161 -133c62 0 108 18 143 67z" />
    <glyph glyph-name="registered.sc" horiz-adv-x="906" 
d="M452 632c249 0 406 -130 406 -327c0 -195 -157 -326 -406 -326c-247 0 -404 131 -404 326c0 197 157 327 404 327zM722 99c60 49 94 119 94 206c0 183 -150 289 -364 289s-363 -106 -363 -289c0 -182 149 -287 363 -287c109 0 201 27 266 78h-128l-103 132h-150v-132
h-120v420h296c114 0 205 -45 205 -143c0 -71 -47 -115 -116 -134zM508 318c56 0 88 14 88 54c0 41 -32 54 -88 54h-171v-108h171z" />
    <glyph glyph-name="uni2117.sc" horiz-adv-x="906" 
d="M452 -19c-247 0 -404 129 -404 324c0 197 157 326 404 326c249 0 406 -129 406 -326c0 -195 -157 -324 -406 -324zM452 19c214 0 364 104 364 286c0 183 -150 287 -364 287s-363 -104 -363 -287c0 -182 149 -286 363 -286zM527 516c115 0 205 -48 205 -146
c0 -100 -90 -146 -205 -146h-175v-128h-120v420h295zM517 314c57 0 93 9 93 56s-36 56 -93 56h-165v-112h165z" />
    <glyph glyph-name="section.sc" horiz-adv-x="682" 
d="M561 150c43 -23 69 -56 69 -105c0 -94 -93 -170 -282 -170c-127 0 -229 38 -303 91l69 82c59 -41 135 -72 238 -72c80 0 141 16 141 54s-55 48 -156 55c-139 10 -271 45 -271 154c0 53 29 96 78 125c-46 23 -75 57 -75 109c0 102 117 158 278 158c105 0 202 -30 265 -72
l-68 -84c-50 32 -117 54 -198 55c-68 0 -140 -8 -140 -48c0 -38 67 -46 156 -52c154 -10 271 -47 271 -150c0 -50 -23 -97 -72 -130zM204 255c0 -43 65 -57 153 -63c17 -1 34 -2 50 -4c55 11 88 38 88 69c0 41 -53 60 -149 67c-7 0 -13 1 -20 1c-66 -4 -122 -29 -122 -70z
" />
    <glyph glyph-name="degree.sc" horiz-adv-x="425" 
d="M212 337c-97 0 -167 58 -167 145c0 86 70 144 167 144c99 0 169 -58 169 -144c0 -87 -70 -145 -169 -145zM212 407c53 0 87 29 87 75s-34 74 -87 74s-87 -28 -87 -74s34 -75 87 -75z" />
    <glyph glyph-name="cent.sc" horiz-adv-x="666" 
d="M627 191c-38 -66 -116 -119 -234 -129v-62h-79v63c-164 12 -266 98 -266 242c0 145 102 231 266 243v63h79v-62c117 -10 195 -63 233 -128l-110 -47c-27 42 -70 62 -123 68v-273c52 6 91 27 123 69zM180 305c0 -77 53 -123 134 -135v271c-81 -12 -134 -58 -134 -136z" />
    <glyph glyph-name="currency.sc" horiz-adv-x="746" 
d="M653 310c0 -61 -19 -112 -54 -152l85 -82l-69 -64l-96 87c-41 -19 -90 -29 -145 -29c-56 0 -105 10 -146 29l-95 -87l-70 64l85 82c-35 40 -54 91 -54 152c0 55 16 103 45 142l-76 73l70 63l80 -74c44 24 98 37 161 37c62 0 117 -13 160 -37l81 74l69 -63l-76 -73
c29 -38 45 -87 45 -142zM375 172c95 0 163 49 163 138c0 91 -68 139 -163 139c-97 0 -165 -48 -165 -139c0 -89 68 -138 165 -138z" />
    <glyph glyph-name="dagger.sc" horiz-adv-x="557" 
d="M497 414v-102h-159v-312h-121v312h-158v102h158v197h121v-197h159z" />
    <glyph glyph-name="daggerdbl.sc" horiz-adv-x="557" 
d="M497 382h-159v-144h159v-97h-159v-141h-121v141h-158v97h158v144h-158v97h158v141h121v-141h159v-97z" />
    <glyph glyph-name="dollar.sc" horiz-adv-x="817" 
d="M776 197c0 -120 -118 -193 -321 -199v-89h-74v90c-139 8 -252 50 -345 120l84 88c73 -54 156 -85 261 -93v140c-170 19 -319 59 -319 180s148 173 319 179v80h74v-81c115 -6 217 -38 291 -92l-82 -87c-59 43 -127 61 -209 66v-127c190 -18 321 -46 321 -175zM215 442
c0 -41 67 -52 166 -62v120c-82 -1 -166 -13 -166 -58zM455 112c111 3 168 23 168 67c0 42 -53 54 -168 67v-134z" />
    <glyph glyph-name="Euro.sc" horiz-adv-x="830" 
d="M478 98c94 0 155 36 193 98l118 -60c-47 -86 -153 -156 -306 -156c-189 0 -318 88 -353 239h-93v56h85c-1 10 -1 20 -1 30c0 11 0 21 1 31h-85v56h93c35 151 165 239 353 239c153 0 259 -70 306 -157l-118 -59c-38 62 -99 98 -193 98c-100 0 -170 -44 -199 -121h295v-56
h-307c-1 -10 -2 -20 -2 -31c0 -10 1 -20 2 -30h307v-56h-295c29 -76 99 -121 199 -121z" />
    <glyph glyph-name="minute.sc" horiz-adv-x="308" 
d="M142 611h136l-97 -283h-135z" />
    <glyph glyph-name="percent.sc" horiz-adv-x="921" 
d="M221 292c-110 0 -187 74 -187 167c0 94 77 167 187 167s186 -73 186 -167c0 -93 -76 -167 -186 -167zM674 611h116l-542 -611h-116zM221 379c53 0 89 28 89 80s-36 80 -89 80s-89 -28 -89 -80s36 -80 89 -80zM701 -15c-110 0 -187 74 -187 167c0 94 77 167 187 167
s186 -73 186 -167c0 -93 -76 -167 -186 -167zM701 72c53 0 89 28 89 80s-36 80 -89 80s-89 -28 -89 -80s36 -80 89 -80z" />
    <glyph glyph-name="perthousand.sc" horiz-adv-x="1331" 
d="M221 292c-110 0 -187 74 -187 167c0 94 77 167 187 167s186 -73 186 -167c0 -93 -76 -167 -186 -167zM674 611h116l-542 -611h-116zM221 379c53 0 89 28 89 80s-36 80 -89 80s-89 -28 -89 -80s36 -80 89 -80zM701 -15c-110 0 -187 74 -187 167c0 94 77 167 187 167
s186 -73 186 -167c0 -93 -76 -167 -186 -167zM1111 -15c-110 0 -187 74 -187 167c0 94 77 167 187 167s186 -73 186 -167c0 -93 -76 -167 -186 -167zM701 72c53 0 89 28 89 80s-36 80 -89 80s-89 -28 -89 -80s36 -80 89 -80zM1111 72c53 0 89 28 89 80s-36 80 -89 80
s-89 -28 -89 -80s36 -80 89 -80z" />
    <glyph glyph-name="uni20A8.sc" horiz-adv-x="820" 
d="M775 513h-136c13 -18 22 -39 27 -63h109v-98h-112c-20 -71 -79 -122 -161 -146l188 -206h-164l-168 191h-296v98h316c81 0 131 20 150 63h-466v98h467c-19 43 -69 63 -151 63h-316v98h713v-98z" />
    <glyph glyph-name="second.sc" horiz-adv-x="529" 
d="M142 611h136l-97 -283h-135zM363 611h136l-97 -283h-135z" />
    <glyph glyph-name="sterling.sc" horiz-adv-x="706" 
d="M314 109h342v-109h-493h-113v109h113v149h-113v96h113v38c0 123 91 239 270 239c96 0 175 -35 216 -77l-61 -94c-37 33 -76 50 -131 50c-95 0 -143 -49 -143 -133v-23h288v-96h-288v-149z" />
    <glyph glyph-name="yen.sc" horiz-adv-x="797" 
d="M769 611l-236 -310h141v-65h-190l-8 -10v-38h198v-64h-198v-124h-156v124h-197v64h197v38l-8 10h-189v65h140l-236 310h174l198 -273l197 273h173z" />
    <glyph glyph-name="florin.sc" horiz-adv-x="637" 
d="M496 520c-47 0 -82 -22 -87 -69l-10 -96h154l-9 -84h-155l-14 -132c-11 -100 -94 -159 -194 -159c-52 0 -111 13 -148 33l35 94c16 -7 47 -16 77 -16c46 0 79 21 85 68l12 112h-153l8 84h154l13 116c12 102 94 160 193 160c53 0 113 -13 149 -34l-35 -93
c-17 8 -47 16 -75 16z" />
    <glyph glyph-name="uni0326" unicode="&#x326;" horiz-adv-x="0" 
d="M-318 -54c60 0 98 -46 98 -103c0 -67 -42 -161 -128 -219l-35 44c46 41 73 74 83 117c-4 -4 -12 -6 -24 -6c-48 0 -87 35 -87 84c0 46 39 83 93 83z" />
    <glyph glyph-name="acute" unicode="&#xb4;" horiz-adv-x="587" 
d="M479 941l-232 -161h-120l147 161h205z" />
    <glyph glyph-name="breve" unicode="&#x2d8;" horiz-adv-x="587" 
d="M493 941c0 -61 -46 -168 -190 -168c-145 0 -191 107 -191 168h100c3 -38 34 -77 91 -77c56 0 87 39 90 77h100z" />
    <glyph glyph-name="caron" unicode="&#x2c7;" horiz-adv-x="587" 
d="M59 941l153 -161h163l153 161h-144l-90 -94l-91 94h-144z" />
    <glyph glyph-name="cedilla" unicode="&#xb8;" horiz-adv-x="587" 
d="M353 -57l-137 -161l-104 28l102 155z" />
    <glyph glyph-name="circumflex" unicode="&#x2c6;" horiz-adv-x="587" 
d="M59 780h144l89 94l91 -94h145l-153 161h-163z" />
    <glyph glyph-name="dieresis" unicode="&#xa8;" horiz-adv-x="587" 
d="M157 784c-46 0 -79 29 -79 68c0 41 33 68 79 68c45 0 79 -27 79 -68c0 -39 -34 -68 -79 -68zM430 784c-46 0 -79 29 -79 68c0 41 33 68 79 68c45 0 79 -27 79 -68c0 -39 -34 -68 -79 -68z" />
    <glyph glyph-name="dotaccent" unicode="&#x2d9;" horiz-adv-x="587" 
d="M294 784c-45 0 -76 25 -76 64c0 41 31 66 76 66s75 -25 75 -66c0 -39 -30 -64 -75 -64z" />
    <glyph glyph-name="grave" unicode="`" horiz-adv-x="587" 
d="M108 941h205l147 -161h-120z" />
    <glyph glyph-name="hungarumlaut" unicode="&#x2dd;" horiz-adv-x="587" 
d="M335 941l-165 -161h-141l164 161h142zM560 941l-165 -161h-141l164 161h142z" />
    <glyph glyph-name="macron" unicode="&#xaf;" horiz-adv-x="587" 
d="M75 908h436v-110h-436v110z" />
    <glyph glyph-name="ogonek" unicode="&#x2db;" horiz-adv-x="587" 
d="M387 -197c-20 -24 -61 -53 -130 -53c-75 0 -150 35 -150 113c0 68 54 128 150 146l75 -9c-58 -22 -115 -71 -115 -126c0 -40 32 -61 71 -61c29 0 54 10 71 26z" />
    <glyph glyph-name="ring" unicode="&#x2da;" horiz-adv-x="587" 
d="M303 771c-87 0 -150 39 -150 115c0 75 63 117 150 117s151 -42 151 -117c0 -76 -64 -115 -151 -115zM243 886c0 -35 24 -55 60 -55s61 20 61 55c0 34 -25 54 -61 54s-60 -20 -60 -54z" />
    <glyph glyph-name="tilde" unicode="&#x2dc;" horiz-adv-x="587" 
d="M496 948l74 -91c-31 -38 -92 -77 -164 -77c-86 0 -139 55 -218 55c-49 0 -74 -19 -99 -46l-72 90c30 38 91 78 164 78c86 0 136 -55 218 -55c48 0 73 18 97 46z" />
    <glyph glyph-name="A.ss01" horiz-adv-x="920" 
d="M746 0l-65 128h-443l-65 -128h-171l371 700h175l371 -700h-173zM304 258h310l-155 305z" />
    <glyph glyph-name="Aacute.ss01" horiz-adv-x="920" 
d="M707 941l-232 -161h-120l147 161h205zM746 0l-65 128h-443l-65 -128h-171l371 700h175l371 -700h-173zM304 258h310l-155 305z" />
    <glyph glyph-name="Abreve.ss01" horiz-adv-x="920" 
d="M461 773c-145 0 -191 107 -191 168h100c3 -38 34 -77 91 -77c56 0 87 39 90 77h100c0 -61 -46 -168 -190 -168zM746 0l-65 128h-443l-65 -128h-171l371 700h175l371 -700h-173zM304 258h310l-155 305z" />
    <glyph glyph-name="Acircumflex.ss01" horiz-adv-x="920" 
d="M459 874l-89 -94h-144l153 161h163l153 -161h-145zM746 0l-65 128h-443l-65 -128h-171l371 700h175l371 -700h-173zM304 258h310l-155 305z" />
    <glyph glyph-name="Adieresis.ss01" horiz-adv-x="920" 
d="M324 784c-46 0 -79 29 -79 68c0 41 33 68 79 68c45 0 79 -27 79 -68c0 -39 -34 -68 -79 -68zM597 784c-46 0 -79 29 -79 68c0 41 33 68 79 68c45 0 79 -27 79 -68c0 -39 -34 -68 -79 -68zM746 0l-65 128h-443l-65 -128h-171l371 700h175l371 -700h-173zM304 258h310
l-155 305z" />
    <glyph glyph-name="Agrave.ss01" horiz-adv-x="920" 
d="M566 780h-120l-232 161h205zM746 0l-65 128h-443l-65 -128h-171l371 700h175l371 -700h-173zM304 258h310l-155 305z" />
    <glyph glyph-name="Amacron.ss01" horiz-adv-x="920" 
d="M678 908v-110h-436v110h436zM746 0l-65 128h-443l-65 -128h-171l371 700h175l371 -700h-173zM304 258h310l-155 305z" />
    <glyph glyph-name="Aogonek.ss01" horiz-adv-x="920" 
d="M944 -161l28 -36c-20 -24 -61 -53 -130 -53c-75 0 -150 35 -150 113c0 59 41 112 115 137h-61l-65 128h-443l-65 -128h-171l371 700h175l371 -700h-2c-58 -22 -115 -71 -115 -126c0 -40 32 -61 71 -61c29 0 54 10 71 26zM304 258h310l-155 305z" />
    <glyph glyph-name="Aring.ss01" horiz-adv-x="920" 
d="M460 771c-87 0 -150 39 -150 115c0 75 63 117 150 117s151 -42 151 -117c0 -76 -64 -115 -151 -115zM460 940c-36 0 -60 -20 -60 -54c0 -35 24 -55 60 -55s61 20 61 55c0 34 -25 54 -61 54zM746 0l-65 128h-443l-65 -128h-171l371 700h175l371 -700h-173zM304 258h310
l-155 305z" />
    <glyph glyph-name="Aringacute.ss01" horiz-adv-x="920" 
d="M460 771c-87 0 -150 39 -150 115c0 34 13 62 36 81l104 125h154l-116 -91c73 -8 123 -48 123 -115c0 -76 -64 -115 -151 -115zM521 886c0 34 -25 54 -61 54s-60 -20 -60 -54c0 -35 24 -55 60 -55s61 20 61 55zM746 0l-65 128h-443l-65 -128h-171l371 700h175l371 -700
h-173zM304 258h310l-155 305z" />
    <glyph glyph-name="Atilde.ss01" horiz-adv-x="920" 
d="M355 835c-49 0 -74 -19 -99 -46l-72 90c30 38 91 78 164 78c86 0 136 -55 218 -55c48 0 73 18 97 46l74 -91c-31 -38 -92 -77 -164 -77c-86 0 -139 55 -218 55zM746 0l-65 128h-443l-65 -128h-171l371 700h175l371 -700h-173zM304 258h310l-155 305z" />
    <glyph glyph-name="AE.ss01" horiz-adv-x="1422" 
d="M816 134h562v-134h-721v133h-371l-112 -133h-188l605 700h83h694v-134h-552v-173h461v-134h-461v-125zM388 253h269v319z" />
    <glyph glyph-name="AEacute.ss01" horiz-adv-x="1422" 
d="M1179 941l-232 -161h-120l147 161h205zM816 134h562v-134h-721v133h-371l-112 -133h-188l605 700h83h694v-134h-552v-173h461v-134h-461v-125zM388 253h269v319z" />
    <glyph glyph-name="E.ss01" horiz-adv-x="859" 
d="M253 134h562v-134h-721v700h711v-134h-552v-173h461v-134h-461v-125z" />
    <glyph glyph-name="Eacute.ss01" horiz-adv-x="859" 
d="M692 941l-232 -161h-120l147 161h205zM253 134h562v-134h-721v700h711v-134h-552v-173h461v-134h-461v-125z" />
    <glyph glyph-name="Ebreve.ss01" horiz-adv-x="859" 
d="M636 941c0 -61 -46 -168 -190 -168c-145 0 -191 107 -191 168h100c3 -38 34 -77 91 -77c56 0 87 39 90 77h100zM253 134h562v-134h-721v700h711v-134h-552v-173h461v-134h-461v-125z" />
    <glyph glyph-name="Ecaron.ss01" horiz-adv-x="859" 
d="M211 941l153 -161h163l153 161h-144l-90 -94l-91 94h-144zM253 134h562v-134h-721v700h711v-134h-552v-173h461v-134h-461v-125z" />
    <glyph glyph-name="Ecircumflex.ss01" horiz-adv-x="859" 
d="M211 780h144l89 94l91 -94h145l-153 161h-163zM253 134h562v-134h-721v700h711v-134h-552v-173h461v-134h-461v-125z" />
    <glyph glyph-name="Edieresis.ss01" horiz-adv-x="859" 
d="M309 784c-46 0 -79 29 -79 68c0 41 33 68 79 68c45 0 79 -27 79 -68c0 -39 -34 -68 -79 -68zM582 784c-46 0 -79 29 -79 68c0 41 33 68 79 68c45 0 79 -27 79 -68c0 -39 -34 -68 -79 -68zM253 134h562v-134h-721v700h711v-134h-552v-173h461v-134h-461v-125z" />
    <glyph glyph-name="Edotaccent.ss01" horiz-adv-x="859" 
d="M445 784c-45 0 -76 25 -76 64c0 41 31 66 76 66s75 -25 75 -66c0 -39 -30 -64 -75 -64zM253 134h562v-134h-721v700h711v-134h-552v-173h461v-134h-461v-125z" />
    <glyph glyph-name="Egrave.ss01" horiz-adv-x="859" 
d="M199 941h205l147 -161h-120zM253 134h562v-134h-721v700h711v-134h-552v-173h461v-134h-461v-125z" />
    <glyph glyph-name="Emacron.ss01" horiz-adv-x="859" 
d="M227 908h436v-110h-436v110zM253 134h562v-134h-721v700h711v-134h-552v-173h461v-134h-461v-125z" />
    <glyph glyph-name="Eogonek.ss01" horiz-adv-x="859" 
d="M841 -161l28 -36c-20 -24 -61 -53 -130 -53c-75 0 -150 35 -150 113c0 59 41 112 115 137h-610v700h711v-134h-552v-173h461v-134h-461v-125h562v-134h-1c-58 -22 -115 -71 -115 -126c0 -40 32 -61 71 -61c29 0 54 10 71 26z" />
    <glyph glyph-name="F.ss01" horiz-adv-x="828" 
d="M802 562h-548v-192h462v-138h-462v-232h-160v700h708v-138z" />
    <glyph glyph-name="G.ss01" horiz-adv-x="950" 
d="M899 369v-227c-70 -95 -208 -164 -398 -164c-281 0 -452 138 -452 372s171 372 452 372c172 0 294 -65 364 -133l-125 -91c-61 60 -132 88 -238 88c-183 0 -290 -80 -290 -236s110 -236 296 -236c105 0 191 23 241 83v42h-264v130h414z" />
    <glyph glyph-name="Gbreve.ss01" horiz-adv-x="950" 
d="M688 942c0 -61 -46 -168 -190 -168c-145 0 -191 107 -191 168h100c3 -38 34 -77 91 -77c56 0 87 39 90 77h100zM899 369v-227c-70 -95 -208 -164 -398 -164c-281 0 -452 138 -452 372s171 372 452 372c172 0 294 -65 364 -133l-125 -91c-61 60 -132 88 -238 88
c-183 0 -290 -80 -290 -236s110 -236 296 -236c105 0 191 23 241 83v42h-264v130h414z" />
    <glyph glyph-name="Gcircumflex.ss01" horiz-adv-x="950" 
d="M263 781h144l89 94l91 -94h145l-153 161h-163zM899 369v-227c-70 -95 -208 -164 -398 -164c-281 0 -452 138 -452 372s171 372 452 372c172 0 294 -65 364 -133l-125 -91c-61 60 -132 88 -238 88c-183 0 -290 -80 -290 -236s110 -236 296 -236c105 0 191 23 241 83v42
h-264v130h414z" />
    <glyph glyph-name="Gcommaaccent.ss01" horiz-adv-x="950" 
d="M899 369v-227c-70 -95 -208 -164 -398 -164c-281 0 -452 138 -452 372s171 372 452 372c172 0 294 -65 364 -133l-125 -91c-61 60 -132 88 -238 88c-183 0 -290 -80 -290 -236s110 -236 296 -236c105 0 191 23 241 83v42h-264v130h414zM498 -54c60 0 98 -46 98 -103
c0 -67 -42 -161 -128 -219l-35 44c46 41 73 74 83 117c-4 -4 -12 -6 -24 -6c-48 0 -87 35 -87 84c0 46 39 83 93 83z" />
    <glyph glyph-name="Gdotaccent.ss01" horiz-adv-x="950" 
d="M497 785c-45 0 -76 25 -76 64c0 41 31 66 76 66s75 -25 75 -66c0 -39 -30 -64 -75 -64zM899 369v-227c-70 -95 -208 -164 -398 -164c-281 0 -452 138 -452 372s171 372 452 372c172 0 294 -65 364 -133l-125 -91c-61 60 -132 88 -238 88c-183 0 -290 -80 -290 -236
s110 -236 296 -236c105 0 191 23 241 83v42h-264v130h414z" />
    <glyph glyph-name="H.ss01" horiz-adv-x="985" 
d="M731 700h160v-700h-160v255h-477v-255h-160v700h160v-305h477v305z" />
    <glyph glyph-name="Hbar.ss01" horiz-adv-x="1044" 
d="M1026 571v-72h-105v-499h-160v255h-477v-255h-160v499h-105v72h105v129h160v-129h477v129h160v-129h105zM761 395v104h-477v-104h477z" />
    <glyph glyph-name="Hcircumflex.ss01" horiz-adv-x="985" 
d="M258 781h144l89 94l91 -94h145l-153 161h-163zM731 700h160v-700h-160v255h-477v-255h-160v700h160v-305h477v305z" />
    <glyph glyph-name="OE.ss01" horiz-adv-x="1460" 
d="M854 134h562v-134h-721h-214c-265 0 -432 132 -432 350s167 350 432 350h371h554v-134h-552v-173h461v-134h-461v-125zM695 133v434h-200c-169 0 -283 -73 -283 -217s114 -217 283 -217h200z" />
    <glyph glyph-name="P.ss01" horiz-adv-x="903" 
d="M573 700c180 0 300 -104 300 -257c0 -155 -120 -257 -300 -257h-319v-186h-160v700h479zM560 318c90 0 150 44 150 124s-60 124 -150 124h-306v-248h306z" />
    <glyph glyph-name="Thorn.ss01" horiz-adv-x="903" 
d="M577 611c173 0 296 -100 296 -253c0 -156 -123 -257 -296 -257h-323v-101h-160v700h160v-89h323zM564 233c87 0 146 45 146 123s-59 123 -146 123h-310v-246h310z" />
    <glyph glyph-name="Q.ss01" horiz-adv-x="989" 
d="M939 350c0 -215 -145 -349 -380 -369v-121h-129v121c-236 20 -381 154 -381 369c0 234 172 372 445 372s445 -138 445 -372zM559 120c135 19 217 100 217 230c0 150 -109 234 -282 234s-282 -84 -282 -234c0 -131 82 -211 218 -230v142h129v-142z" />
    <glyph glyph-name="R.ss01" horiz-adv-x="932" 
d="M898 0h-191l-167 198h-287v-198h-159v700h483c171 0 300 -99 300 -251c0 -110 -67 -192 -169 -229zM252 330h316c84 0 146 40 146 118s-62 118 -146 118h-316v-236z" />
    <glyph glyph-name="Racute.ss01" horiz-adv-x="932" 
d="M691 941l-232 -161h-120l147 161h205zM898 0h-191l-167 198h-287v-198h-159v700h483c171 0 300 -99 300 -251c0 -110 -67 -192 -169 -229zM252 330h316c84 0 146 40 146 118s-62 118 -146 118h-316v-236z" />
    <glyph glyph-name="Rcaron.ss01" horiz-adv-x="932" 
d="M526 780h-163l-153 161h144l91 -94l90 94h144zM898 0h-191l-167 198h-287v-198h-159v700h483c171 0 300 -99 300 -251c0 -110 -67 -192 -169 -229zM252 330h316c84 0 146 40 146 118s-62 118 -146 118h-316v-236z" />
    <glyph glyph-name="Rcommaaccent.ss01" horiz-adv-x="932" 
d="M708 220l190 -220h-191l-167 198h-287v-198h-159v700h483c171 0 300 -99 300 -251c0 -110 -67 -192 -169 -229zM252 330h316c84 0 146 40 146 118s-62 118 -146 118h-316v-236zM465 -54c60 0 98 -46 98 -103c0 -67 -42 -161 -128 -219l-35 44c46 41 73 74 83 117
c-4 -4 -12 -6 -24 -6c-48 0 -87 35 -87 84c0 46 39 83 93 83z" />
    <glyph glyph-name="a.sc.ss01" horiz-adv-x="853" 
d="M678 0l-57 107h-390l-57 -107h-168l337 611h169l336 -611h-170zM292 223h268l-134 253z" />
    <glyph glyph-name="aacute.sc.ss01" horiz-adv-x="853" 
d="M674 852l-232 -161h-120l147 161h205zM678 0l-57 107h-390l-57 -107h-168l337 611h169l336 -611h-170zM292 223h268l-134 253z" />
    <glyph glyph-name="abreve.sc.ss01" horiz-adv-x="853" 
d="M428 684c-145 0 -191 107 -191 168h100c3 -38 34 -77 91 -77c56 0 87 39 90 77h100c0 -61 -46 -168 -190 -168zM678 0l-57 107h-390l-57 -107h-168l337 611h169l336 -611h-170zM292 223h268l-134 253z" />
    <glyph glyph-name="acircumflex.sc.ss01" horiz-adv-x="853" 
d="M426 785l-89 -94h-144l153 161h163l153 -161h-145zM678 0l-57 107h-390l-57 -107h-168l337 611h169l336 -611h-170zM292 223h268l-134 253z" />
    <glyph glyph-name="adieresis.sc.ss01" horiz-adv-x="853" 
d="M291 695c-46 0 -79 29 -79 68c0 41 33 68 79 68c45 0 79 -27 79 -68c0 -39 -34 -68 -79 -68zM564 695c-46 0 -79 29 -79 68c0 41 33 68 79 68c45 0 79 -27 79 -68c0 -39 -34 -68 -79 -68zM678 0l-57 107h-390l-57 -107h-168l337 611h169l336 -611h-170zM292 223h268
l-134 253z" />
    <glyph glyph-name="agrave.sc.ss01" horiz-adv-x="853" 
d="M533 691h-120l-232 161h205zM678 0l-57 107h-390l-57 -107h-168l337 611h169l336 -611h-170zM292 223h268l-134 253z" />
    <glyph glyph-name="amacron.sc.ss01" horiz-adv-x="853" 
d="M645 819v-110h-436v110h436zM678 0l-57 107h-390l-57 -107h-168l337 611h169l336 -611h-170zM292 223h268l-134 253z" />
    <glyph glyph-name="aogonek.sc.ss01" horiz-adv-x="853" 
d="M874 -161l28 -36c-20 -24 -61 -53 -130 -53c-75 0 -150 35 -150 113c0 59 41 112 115 137h-59l-57 107h-390l-57 -107h-168l337 611h169l336 -611h-1c-58 -22 -115 -71 -115 -126c0 -40 32 -61 71 -61c29 0 54 10 71 26zM292 223h268l-134 253z" />
    <glyph glyph-name="aring.sc.ss01" horiz-adv-x="853" 
d="M427 682c-87 0 -150 39 -150 115c0 75 63 117 150 117s151 -42 151 -117c0 -76 -64 -115 -151 -115zM427 851c-36 0 -60 -20 -60 -54c0 -35 24 -55 60 -55s61 20 61 55c0 34 -25 54 -61 54zM678 0l-57 107h-390l-57 -107h-168l337 611h169l336 -611h-170zM292 223h268
l-134 253z" />
    <glyph glyph-name="aringacute.sc.ss01" horiz-adv-x="853" 
d="M427 682c-87 0 -150 39 -150 115c0 34 13 62 36 82l104 123h154l-115 -90c72 -8 122 -49 122 -115c0 -76 -64 -115 -151 -115zM488 797c0 34 -25 54 -61 54s-60 -20 -60 -54c0 -35 24 -55 60 -55s61 20 61 55zM678 0l-57 107h-390l-57 -107h-168l337 611h169l336 -611
h-170zM292 223h268l-134 253z" />
    <glyph glyph-name="atilde.sc.ss01" horiz-adv-x="853" 
d="M322 746c-49 0 -74 -19 -99 -46l-72 90c30 38 91 78 164 78c86 0 136 -55 218 -55c48 0 73 18 97 46l74 -91c-31 -38 -92 -77 -164 -77c-86 0 -139 55 -218 55zM678 0l-57 107h-390l-57 -107h-168l337 611h169l336 -611h-170zM292 223h268l-134 253z" />
    <glyph glyph-name="ae.sc.ss01" horiz-adv-x="1310" 
d="M757 128h507v-128h-663v125h-323l-110 -125h-179l547 611h82h636v-127h-497v-130h412v-125h-412v-101zM382 243h219v249z" />
    <glyph glyph-name="aeacute.sc.ss01" horiz-adv-x="1310" 
d="M1097 852l-232 -161h-120l147 161h205zM757 128h507v-128h-663v125h-323l-110 -125h-179l547 611h82h636v-127h-497v-112h412v-125h-412v-119zM382 243h219v249z" />
    <glyph glyph-name="e.sc.ss01" 
d="M246 128h507v-128h-663v611h653v-128h-497v-129h412v-126h-412v-100z" />
    <glyph glyph-name="eacute.sc.ss01" 
d="M660 852l-232 -161h-120l147 161h205zM246 128h507v-128h-663v611h653v-128h-497v-129h412v-126h-412v-100z" />
    <glyph glyph-name="ebreve.sc.ss01" 
d="M604 852c0 -61 -46 -168 -190 -168c-145 0 -191 107 -191 168h100c3 -38 34 -77 91 -77c56 0 87 39 90 77h100zM246 128h507v-128h-663v611h653v-128h-497v-129h412v-126h-412v-100z" />
    <glyph glyph-name="ecaron.sc.ss01" 
d="M179 852l153 -161h163l153 161h-144l-90 -94l-91 94h-144zM246 128h507v-128h-663v611h653v-128h-497v-129h412v-126h-412v-100z" />
    <glyph glyph-name="ecircumflex.sc.ss01" 
d="M179 691h144l89 94l91 -94h145l-153 161h-163zM246 128h507v-128h-663v611h653v-128h-497v-129h412v-126h-412v-100z" />
    <glyph glyph-name="edieresis.sc.ss01" 
d="M277 695c-46 0 -79 29 -79 68c0 41 33 68 79 68c45 0 79 -27 79 -68c0 -39 -34 -68 -79 -68zM550 695c-46 0 -79 29 -79 68c0 41 33 68 79 68c45 0 79 -27 79 -68c0 -39 -34 -68 -79 -68zM246 128h507v-128h-663v611h653v-128h-497v-129h412v-126h-412v-100z" />
    <glyph glyph-name="edotaccent.sc.ss01" 
d="M413 695c-45 0 -76 25 -76 64c0 41 31 66 76 66s75 -25 75 -66c0 -39 -30 -64 -75 -64zM246 128h507v-128h-663v611h653v-128h-497v-129h412v-126h-412v-100z" />
    <glyph glyph-name="egrave.sc.ss01" 
d="M167 852h205l147 -161h-120zM246 128h507v-128h-663v611h653v-128h-497v-129h412v-126h-412v-100z" />
    <glyph glyph-name="emacron.sc.ss01" 
d="M195 819h436v-110h-436v110zM246 128h507v-128h-663v611h653v-128h-497v-129h412v-126h-412v-100z" />
    <glyph glyph-name="eogonek.sc.ss01" 
d="M778 -161l28 -36c-20 -24 -61 -53 -130 -53c-75 0 -150 35 -150 113c0 59 41 112 115 137h-551v611h653v-128h-497v-129h412v-126h-412v-100h507v-128h-2c-58 -22 -115 -71 -115 -126c0 -40 32 -61 71 -61c29 0 54 10 71 26z" />
    <glyph glyph-name="f.sc.ss01" horiz-adv-x="768" 
d="M741 481h-494v-157h413v-130h-413v-194h-157v611h651v-130z" />
    <glyph glyph-name="fi.sc.ss01" horiz-adv-x="1105" 
d="M741 481h-494v-157h413v-130h-413v-194h-157v611h651v-130zM1015 0h-157v611h157v-611z" />
    <glyph glyph-name="fl.sc.ss01" horiz-adv-x="1483" 
d="M741 481h-494v-157h413v-130h-413v-194h-157v611h651v-130zM1015 132h445v-132h-602v611h157v-479z" />
    <glyph glyph-name="g.sc.ss01" horiz-adv-x="877" 
d="M826 322v-196c-63 -87 -192 -147 -363 -147c-258 0 -415 122 -415 326c0 205 157 327 414 327c158 0 261 -45 337 -112l-128 -89c-51 50 -116 71 -202 71c-168 0 -262 -68 -262 -197c0 -128 96 -197 262 -197c91 0 166 16 210 69v34h-232v111h379z" />
    <glyph glyph-name="gbreve.sc.ss01" horiz-adv-x="877" 
d="M650 853c0 -61 -46 -168 -190 -168c-145 0 -191 107 -191 168h100c3 -38 34 -77 91 -77c56 0 87 39 90 77h100zM826 322v-196c-63 -87 -192 -147 -363 -147c-258 0 -415 122 -415 326c0 205 157 327 414 327c158 0 261 -45 337 -112l-128 -89c-51 50 -116 71 -202 71
c-168 0 -262 -68 -262 -197c0 -128 96 -197 262 -197c91 0 166 16 210 69v34h-232v111h379z" />
    <glyph glyph-name="gcircumflex.sc.ss01" horiz-adv-x="877" 
d="M225 692h144l89 94l91 -94h145l-153 161h-163zM826 322v-196c-63 -87 -192 -147 -363 -147c-258 0 -415 122 -415 326c0 205 157 327 414 327c158 0 261 -45 337 -112l-128 -89c-51 50 -116 71 -202 71c-168 0 -262 -68 -262 -197c0 -128 96 -197 262 -197
c91 0 166 16 210 69v34h-232v111h379z" />
    <glyph glyph-name="gcommaaccent.sc.ss01" horiz-adv-x="877" 
d="M826 322v-196c-63 -87 -192 -147 -363 -147c-258 0 -415 122 -415 326c0 205 157 327 414 327c158 0 261 -45 337 -112l-128 -89c-51 50 -116 71 -202 71c-168 0 -262 -68 -262 -197c0 -128 96 -197 262 -197c91 0 166 16 210 69v34h-232v111h379zM460 -54
c60 0 98 -46 98 -103c0 -67 -42 -161 -128 -219l-35 44c46 41 73 74 83 117c-4 -4 -12 -6 -24 -6c-48 0 -87 35 -87 84c0 46 39 83 93 83z" />
    <glyph glyph-name="gdotaccent.sc.ss01" horiz-adv-x="877" 
d="M459 696c-45 0 -76 25 -76 64c0 41 31 66 76 66s75 -25 75 -66c0 -39 -30 -64 -75 -64zM826 322v-196c-63 -87 -192 -147 -363 -147c-258 0 -415 122 -415 326c0 205 157 327 414 327c158 0 261 -45 337 -112l-128 -89c-51 50 -116 71 -202 71c-168 0 -262 -68 -262 -197
c0 -128 96 -197 262 -197c91 0 166 16 210 69v34h-232v111h379z" />
    <glyph glyph-name="h.sc.ss01" horiz-adv-x="913" 
d="M666 611h157v-611h-157v217h-419v-217h-157v611h157v-257h419v257z" />
    <glyph glyph-name="hbar.sc.ss01" horiz-adv-x="971" 
d="M946 514v-69h-95v-445h-157v217h-419v-217h-157v445h-95v69h95v97h157v-97h419v97h157v-97h95zM694 354v91h-419v-91h419z" />
    <glyph glyph-name="hcircumflex.sc.ss01" horiz-adv-x="913" 
d="M223 692h144l89 94l91 -94h145l-153 161h-163zM666 611h157v-611h-157v217h-419v-217h-157v611h157v-257h419v257z" />
    <glyph glyph-name="oe.sc.ss01" horiz-adv-x="1342" 
d="M789 128h507v-128h-663h-189c-244 0 -396 115 -396 305c0 192 152 306 396 306h342h500v-128h-497v-129h412v-126h-412v-100zM633 128v355h-177c-149 0 -248 -60 -248 -178c0 -116 99 -177 248 -177h177z" />
    <glyph glyph-name="p.sc.ss01" horiz-adv-x="838" 
d="M529 611c165 0 277 -89 277 -226c0 -138 -112 -226 -277 -226h-282v-159h-157v611h439zM516 286c78 0 131 31 131 98s-53 98 -131 98h-270v-196h270z" />
    <glyph glyph-name="thorn.sc.ss01" horiz-adv-x="838" 
d="M524 532c167 0 282 -83 282 -221s-115 -221 -282 -221h-277v-90h-157v611h157v-79h277zM510 217c85 0 137 30 137 94c0 67 -52 94 -137 94h-264v-188h264z" />
    <glyph glyph-name="q.sc.ss01" horiz-adv-x="911" 
d="M863 305c0 -186 -132 -305 -347 -324v-101h-124v102c-213 19 -344 138 -344 323c0 205 158 327 408 327s407 -122 407 -327zM516 111c116 18 188 87 188 194c0 126 -97 199 -249 199c-153 0 -249 -73 -249 -199c0 -107 70 -176 186 -193v130h124v-131z" />
    <glyph glyph-name="r.sc.ss01" horiz-adv-x="867" 
d="M830 0h-189l-149 173h-246v-173h-156v611h444c155 0 276 -85 276 -219c0 -97 -61 -167 -152 -199zM244 299h276c77 0 131 29 131 92c0 64 -54 92 -131 92h-276v-184z" />
    <glyph glyph-name="racute.sc.ss01" horiz-adv-x="867" 
d="M659 852l-232 -161h-120l147 161h205zM830 0h-189l-149 173h-246v-173h-156v611h444c155 0 276 -85 276 -219c0 -97 -61 -167 -152 -199zM244 299h276c77 0 131 29 131 92c0 64 -54 92 -131 92h-276v-184z" />
    <glyph glyph-name="rcaron.sc.ss01" horiz-adv-x="867" 
d="M494 691h-163l-153 161h144l91 -94l90 94h144zM830 0h-189l-149 173h-246v-173h-156v611h444c155 0 276 -85 276 -219c0 -97 -61 -167 -152 -199zM244 299h276c77 0 131 29 131 92c0 64 -54 92 -131 92h-276v-184z" />
    <glyph glyph-name="rcommaaccent.sc.ss01" horiz-adv-x="867" 
d="M658 193l172 -193h-189l-149 173h-246v-173h-156v611h444c155 0 276 -85 276 -219c0 -97 -61 -167 -152 -199zM244 299h276c77 0 131 29 131 92c0 64 -54 92 -131 92h-276v-184zM431 -54c60 0 98 -46 98 -103c0 -67 -42 -161 -128 -219l-35 44c46 41 73 74 83 117
c-4 -4 -12 -6 -24 -6c-48 0 -87 35 -87 84c0 46 39 83 93 83z" />
    <glyph glyph-name="uni20A8.ss01" horiz-adv-x="886" 
d="M843 605h-173c26 -29 44 -63 52 -103h121v-95h-120c-17 -87 -81 -150 -172 -180l198 -227h-164l-176 207h-347v96h348c99 0 158 39 176 104h-524v95h524c-19 64 -78 103 -176 103h-348v95h781v-95z" />
    <glyph glyph-name="registered.ss01" horiz-adv-x="571" 
d="M285 710c130 0 239 -80 239 -212c0 -131 -109 -211 -239 -211s-237 80 -237 211c0 132 107 212 237 212zM286 315c115 0 205 67 205 183c0 117 -90 183 -205 183c-116 0 -206 -66 -206 -183c0 -116 90 -183 206 -183zM415 532c0 -35 -21 -60 -52 -72l57 -66h-67l-49 58
h-75v-58h-58v218h148c55 0 96 -30 96 -80zM229 569v-77h79c30 0 46 15 46 39c0 26 -16 38 -46 38h-79z" />
    <glyph glyph-name="uni2117.ss01" horiz-adv-x="983" 
d="M492 -22c-272 0 -443 148 -443 372s171 372 443 372c270 0 442 -148 442 -372s-172 -372 -442 -372zM492 19c235 0 396 120 396 331s-161 331 -396 331s-399 -120 -399 -331s164 -331 399 -331zM575 591c125 0 222 -64 222 -175s-97 -175 -222 -175h-199v-130h-124v480
h323zM563 328c65 0 109 29 109 87s-44 87 -109 87h-187v-174h187z" />
    <glyph glyph-name="registered.case.ss01" horiz-adv-x="983" 
d="M492 722c270 0 442 -148 442 -372s-172 -372 -442 -372c-272 0 -443 148 -443 372s171 372 443 372zM492 19c235 0 396 120 396 331s-161 331 -396 331s-399 -120 -399 -331s164 -331 399 -331zM779 418c0 -79 -49 -133 -123 -158l123 -149h-137l-104 134h-180v-134h-124
v480h323c125 0 222 -62 222 -173zM358 502v-173h190c64 0 106 30 106 86c0 57 -42 87 -106 87h-190z" />
    <glyph glyph-name="uni2117.sc.001" horiz-adv-x="906" 
d="M452 -19c-247 0 -404 129 -404 324c0 197 157 326 404 326c249 0 406 -129 406 -326c0 -195 -157 -324 -406 -324zM452 19c214 0 364 104 364 286c0 183 -150 287 -364 287s-363 -104 -363 -287c0 -182 149 -286 363 -286zM527 516c115 0 205 -58 205 -156
c0 -100 -90 -156 -205 -156h-175v-108h-120v420h295zM517 294c57 0 93 19 93 66s-36 66 -93 66h-165v-132h165z" />
    <glyph glyph-name="registered.sc.ss01" horiz-adv-x="906" 
d="M452 632c249 0 406 -130 406 -327c0 -195 -157 -326 -406 -326c-247 0 -404 131 -404 326c0 197 157 327 404 327zM722 99c60 49 94 119 94 206c0 183 -150 289 -364 289s-363 -106 -363 -289c0 -182 149 -287 363 -287c109 0 201 27 266 78h-128l-88 112h-165v-112h-120
v420h296c114 0 205 -55 205 -153c0 -67 -42 -114 -104 -138zM337 298h171c56 0 88 24 88 64c0 41 -32 64 -88 64h-171v-128z" />
    <glyph glyph-name="uni20A8.sc.ss01" horiz-adv-x="820" 
d="M775 513h-149c18 -23 31 -50 38 -79h111v-98h-110c-17 -70 -68 -124 -142 -153l167 -183h-164l-140 159h-324v98h316c83 0 133 30 151 79h-467v98h468c-18 49 -69 79 -152 79h-316v98h713v-98z" />
    </font>
</defs>
</svg>
