<?xml version="1.0" standalone="no"?>
<!DOCTYPE svg PUBLIC "-//W3C//DTD SVG 1.1//EN" "http://www.w3.org/Graphics/SVG/1.1/DTD/svg11.dtd" >
<svg xmlns="http://www.w3.org/2000/svg" xmlns:xlink="http://www.w3.org/1999/xlink" version="1.1">
<metadata>
Created by FontForge 20170924 at Tue Oct 13 11:57:08 2015
 By www-data
Copyright \(c\) 2015 by Mattox Shuler. All rights reserved.
</metadata>
<defs>
<font id="Termina-Bold" horiz-adv-x="938" >
  <font-face 
    font-family="Termina-Bold"
    font-weight="700"
    font-stretch="normal"
    units-per-em="1000"
    panose-1="0 0 8 0 0 0 0 0 0 0"
    ascent="800"
    descent="-200"
    x-height="554"
    cap-height="700"
    bbox="-430 -420 1612 1095"
    underline-thickness="50"
    underline-position="-100"
    stemh="162"
    stemv="204"
    unicode-range="U+0020-FB02"
  />
<missing-glyph horiz-adv-x="505" 
d="M414 770v-1010h-320v1010h320zM336 702h-166v-33h65v-37h-66v-34h167v34h-66v37h66v33zM270 572h-101v-105h167v34h-66v71zM235 538v-37h-33v37h33zM336 440h-167v-34h66v-37h-66v-33h101v70h66v34zM336 379h-33v-67h-134v-34h167v101zM336 256h-101v-57h35v24h33v-48
h-101v81h-33v-114h167v114zM336 81h-167v-114h167v114zM303 48v-48h-101v48h101zM336 -56h-167v-34h70l-70 -47v-33h167v33h-103l71 47h32v34z" />
    <glyph glyph-name="fi" unicode="fi" horiz-adv-x="878" 
d="M709 610c-67 0 -114 37 -114 93s47 93 114 93c66 0 113 -37 113 -93s-47 -93 -113 -93zM405 640c-63 0 -97 -25 -97 -70v-16h217v-139h-211v-415h-197v415h-98v139h98c2 141 103 207 237 207c56 0 130 -11 177 -33l-28 -111c-35 16 -67 23 -98 23zM611 0v554h198v-554
h-198z" />
    <glyph glyph-name="fl" unicode="fl" horiz-adv-x="880" 
d="M405 640c-63 0 -97 -25 -97 -70v-16h217v-139h-211v-415h-197v415h-98v139h98c2 141 103 207 237 207c56 0 130 -11 177 -33l-28 -111c-35 16 -67 23 -98 23zM611 740h198v-740h-198v740z" />
    <glyph glyph-name=".notdef" horiz-adv-x="505" 
d="M414 770v-1010h-320v1010h320zM336 702h-166v-33h65v-37h-66v-34h167v34h-66v37h66v33zM270 572h-101v-105h167v34h-66v71zM235 538v-37h-33v37h33zM336 440h-167v-34h66v-37h-66v-33h101v70h66v34zM336 379h-33v-67h-134v-34h167v101zM336 256h-101v-57h35v24h33v-48
h-101v81h-33v-114h167v114zM336 81h-167v-114h167v114zM303 48v-48h-101v48h101zM336 -56h-167v-34h70l-70 -47v-33h167v33h-103l71 47h32v34z" />
    <glyph glyph-name="A" unicode="A" 
d="M726 0l-66 134h-384l-66 -134h-214l362 700h223l362 -700h-217zM346 279h243l-121 248z" />
    <glyph glyph-name="Aacute" unicode="&#xc1;" 
d="M736 948l-237 -168h-145l137 168h245zM726 0l-66 134h-384l-66 -134h-214l362 700h223l362 -700h-217zM346 279h243l-121 248z" />
    <glyph glyph-name="Abreve" unicode="&#x102;" 
d="M470 772c-153 0 -202 111 -202 176h118c4 -35 32 -70 84 -70c50 0 79 35 82 70h119c0 -65 -49 -176 -201 -176zM726 0l-66 134h-384l-66 -134h-214l362 700h223l362 -700h-217zM346 279h243l-121 248z" />
    <glyph glyph-name="Acircumflex" unicode="&#xc2;" 
d="M468 869l-80 -89h-172l151 168h206l150 -168h-174zM726 0l-66 134h-384l-66 -134h-214l362 700h223l362 -700h-217zM346 279h243l-121 248z" />
    <glyph glyph-name="Adieresis" unicode="&#xc4;" 
d="M329 779c-55 0 -94 32 -94 80s39 79 94 79c54 0 94 -31 94 -79s-40 -80 -94 -80zM610 779c-55 0 -94 32 -94 80s39 79 94 79c54 0 94 -31 94 -79s-40 -80 -94 -80zM726 0l-66 134h-384l-66 -134h-214l362 700h223l362 -700h-217zM346 279h243l-121 248z" />
    <glyph glyph-name="Agrave" unicode="&#xc0;" 
d="M585 780h-145l-237 168h245zM726 0l-66 134h-384l-66 -134h-214l362 700h223l362 -700h-217zM346 279h243l-121 248z" />
    <glyph glyph-name="Amacron" unicode="&#x100;" 
d="M702 927v-133h-465v133h465zM726 0l-66 134h-384l-66 -134h-214l362 700h223l362 -700h-217zM346 279h243l-121 248z" />
    <glyph glyph-name="Aogonek" unicode="&#x104;" 
d="M965 -152l32 -40c-20 -27 -63 -61 -141 -61c-81 0 -160 38 -160 119c0 57 38 110 115 134h-85l-66 134h-384l-66 -134h-214l362 700h223l362 -700h-1c-54 -21 -112 -68 -112 -121c0 -36 29 -58 67 -58c27 0 51 10 68 27zM346 279h243l-121 248z" />
    <glyph glyph-name="Aring" unicode="&#xc5;" 
d="M470 769c-97 0 -163 42 -163 120s66 122 163 122c96 0 163 -44 163 -122s-67 -120 -163 -120zM470 939c-33 0 -55 -19 -55 -50s22 -50 55 -50s55 19 55 50s-22 50 -55 50zM726 0l-66 134h-384l-66 -134h-214l362 700h223l362 -700h-217zM346 279h243l-121 248z" />
    <glyph glyph-name="Aringacute" unicode="&#x1fa;" 
d="M470 769c-97 0 -163 42 -163 120c0 31 10 57 29 76l96 130h190l-112 -87c74 -10 123 -52 123 -119c0 -78 -67 -120 -163 -120zM525 889c0 31 -22 50 -55 50s-55 -19 -55 -50s22 -50 55 -50s55 19 55 50zM726 0l-66 134h-384l-66 -134h-214l362 700h223l362 -700h-217z
M346 279h243l-121 248z" />
    <glyph glyph-name="Atilde" unicode="&#xc3;" 
d="M368 823c-47 0 -73 -18 -102 -45l-78 121c33 38 94 70 165 70c90 0 141 -49 218 -49c46 0 76 17 101 44l79 -121c-34 -38 -94 -70 -164 -70c-91 0 -144 50 -219 50zM726 0l-66 134h-384l-66 -134h-214l362 700h223l362 -700h-217zM346 279h243l-121 248z" />
    <glyph glyph-name="AE" unicode="&#xc6;" horiz-adv-x="1448" 
d="M861 156h546v-156h-747v141h-331l-115 -141h-231l598 700h98h717v-156h-535v-115h441v-149h-441v-124zM443 279h217v263z" />
    <glyph glyph-name="AEacute" unicode="&#x1fc;" horiz-adv-x="1448" 
d="M1191 948l-237 -168h-145l137 168h245zM861 156h546v-156h-747v141h-331l-115 -141h-231l598 700h98h717v-156h-535v-115h441v-149h-441v-124zM443 279h217v263z" />
    <glyph glyph-name="B" unicode="B" horiz-adv-x="942" 
d="M704 365c110 -7 200 -65 200 -173c0 -121 -109 -192 -281 -192h-541v700h501c172 0 281 -69 281 -181c0 -79 -55 -148 -160 -154zM284 558v-137h265c68 0 113 15 113 69c0 53 -45 68 -113 68h-265zM580 142c72 0 115 17 115 74s-43 73 -115 73h-296v-147h296z" />
    <glyph glyph-name="C" unicode="C" horiz-adv-x="898" 
d="M489 143c94 0 166 32 215 107l175 -90c-65 -103 -206 -183 -395 -183c-264 0 -442 137 -442 373s178 373 450 373c181 0 321 -82 384 -182l-176 -90c-46 72 -117 106 -211 106c-144 0 -240 -73 -240 -207s96 -207 240 -207z" />
    <glyph glyph-name="Cacute" unicode="&#x106;" horiz-adv-x="898" 
d="M743 949l-237 -168h-145l137 168h245zM489 143c94 0 166 32 215 107l175 -90c-65 -103 -206 -183 -395 -183c-264 0 -442 137 -442 373s178 373 450 373c181 0 321 -82 384 -182l-176 -90c-46 72 -117 106 -211 106c-144 0 -240 -73 -240 -207s96 -207 240 -207z" />
    <glyph glyph-name="Ccaron" unicode="&#x10c;" horiz-adv-x="898" 
d="M223 949l151 -168h206l150 168h-172l-81 -89l-81 89h-173zM489 143c94 0 166 32 215 107l175 -90c-65 -103 -206 -183 -395 -183c-264 0 -442 137 -442 373s178 373 450 373c181 0 321 -82 384 -182l-176 -90c-46 72 -117 106 -211 106c-144 0 -240 -73 -240 -207
s96 -207 240 -207z" />
    <glyph glyph-name="Ccedilla" unicode="&#xc7;" horiz-adv-x="898" 
d="M489 143c94 0 166 32 215 107l175 -90c-65 -103 -206 -183 -395 -183c-264 0 -442 137 -442 373s178 373 450 373c181 0 321 -82 384 -182l-176 -90c-46 72 -117 106 -211 106c-144 0 -240 -73 -240 -207s96 -207 240 -207zM569 -60l-147 -162l-124 33l101 154z" />
    <glyph glyph-name="Ccircumflex" unicode="&#x108;" horiz-adv-x="898" 
d="M223 781h172l80 89l81 -89h174l-150 168h-206zM489 143c94 0 166 32 215 107l175 -90c-65 -103 -206 -183 -395 -183c-264 0 -442 137 -442 373s178 373 450 373c181 0 321 -82 384 -182l-176 -90c-46 72 -117 106 -211 106c-144 0 -240 -73 -240 -207s96 -207 240 -207z
" />
    <glyph glyph-name="Cdotaccent" unicode="&#x10a;" horiz-adv-x="898" 
d="M476 780c-54 0 -92 30 -92 77c0 49 38 78 92 78s92 -29 92 -78c0 -47 -38 -77 -92 -77zM489 143c94 0 166 32 215 107l175 -90c-65 -103 -206 -183 -395 -183c-264 0 -442 137 -442 373s178 373 450 373c181 0 321 -82 384 -182l-176 -90c-46 72 -117 106 -211 106
c-144 0 -240 -73 -240 -207s96 -207 240 -207z" />
    <glyph glyph-name="D" unicode="D" horiz-adv-x="955" 
d="M473 700c269 0 440 -130 440 -350s-171 -350 -440 -350h-391v700h391zM457 162c150 0 248 64 248 188s-98 188 -248 188h-171v-376h171z" />
    <glyph glyph-name="Eth" unicode="&#xd0;" horiz-adv-x="985" 
d="M507 700c271 0 436 -130 436 -350s-165 -350 -436 -350h-395v298h-96v117h96v285h395zM487 159c151 0 248 65 248 191s-97 191 -248 191h-172v-126h185v-117h-185v-139h172z" />
    <glyph glyph-name="Dcaron" unicode="&#x10e;" horiz-adv-x="955" 
d="M204 948l151 -168h206l150 168h-172l-81 -89l-81 89h-173zM473 700c269 0 440 -130 440 -350s-171 -350 -440 -350h-391v700h391zM457 162c150 0 248 64 248 188s-98 188 -248 188h-171v-376h171z" />
    <glyph glyph-name="Dcroat" unicode="&#x110;" horiz-adv-x="985" 
d="M507 700c271 0 436 -130 436 -350s-165 -350 -436 -350h-395v298h-96v117h96v285h395zM487 159c151 0 248 65 248 191s-97 191 -248 191h-172v-126h185v-117h-185v-139h172z" />
    <glyph glyph-name="E" unicode="E" horiz-adv-x="870" 
d="M283 156h546v-156h-747v700h736v-156h-535v-115h441v-149h-441v-124z" />
    <glyph glyph-name="Eacute" unicode="&#xc9;" horiz-adv-x="870" 
d="M713 948l-237 -168h-145l137 168h245zM283 156h546v-156h-747v700h736v-156h-535v-115h441v-149h-441v-124z" />
    <glyph glyph-name="Ebreve" unicode="&#x114;" horiz-adv-x="870" 
d="M649 948c0 -65 -49 -176 -201 -176c-153 0 -202 111 -202 176h118c4 -35 32 -70 84 -70c50 0 79 35 82 70h119zM283 156h546v-156h-747v700h736v-156h-535v-115h441v-149h-441v-124z" />
    <glyph glyph-name="Ecaron" unicode="&#x11a;" horiz-adv-x="870" 
d="M193 948l151 -168h206l150 168h-172l-81 -89l-81 89h-173zM283 156h546v-156h-747v700h736v-156h-535v-115h441v-149h-441v-124z" />
    <glyph glyph-name="Ecircumflex" unicode="&#xca;" horiz-adv-x="870" 
d="M193 780h172l80 89l81 -89h174l-150 168h-206zM283 156h546v-156h-747v700h736v-156h-535v-115h441v-149h-441v-124z" />
    <glyph glyph-name="Edieresis" unicode="&#xcb;" horiz-adv-x="870" 
d="M306 779c-55 0 -94 32 -94 80s39 79 94 79c54 0 94 -31 94 -79s-40 -80 -94 -80zM587 779c-55 0 -94 32 -94 80s39 79 94 79c54 0 94 -31 94 -79s-40 -80 -94 -80zM283 156h546v-156h-747v700h736v-156h-535v-115h441v-149h-441v-124z" />
    <glyph glyph-name="Edotaccent" unicode="&#x116;" horiz-adv-x="870" 
d="M446 779c-54 0 -92 30 -92 77c0 49 38 78 92 78s92 -29 92 -78c0 -47 -38 -77 -92 -77zM283 156h546v-156h-747v700h736v-156h-535v-115h441v-149h-441v-124z" />
    <glyph glyph-name="Egrave" unicode="&#xc8;" horiz-adv-x="870" 
d="M180 948h245l137 -168h-145zM283 156h546v-156h-747v700h736v-156h-535v-115h441v-149h-441v-124z" />
    <glyph glyph-name="Emacron" unicode="&#x112;" horiz-adv-x="870" 
d="M214 927h465v-133h-465v133zM283 156h546v-156h-747v700h736v-156h-535v-115h441v-149h-441v-124z" />
    <glyph glyph-name="Eogonek" unicode="&#x118;" horiz-adv-x="870" 
d="M851 -152l32 -40c-20 -27 -63 -61 -141 -61c-81 0 -160 38 -160 119c0 57 38 110 115 134h-615v700h736v-156h-535v-115h441v-149h-441v-124h546v-156h-1c-54 -21 -112 -68 -112 -121c0 -36 29 -58 67 -58c27 0 51 10 68 27z" />
    <glyph glyph-name="F" unicode="F" horiz-adv-x="839" 
d="M815 539h-529v-133h442v-159h-442v-247h-204v700h733v-161z" />
    <glyph glyph-name="G" unicode="G" horiz-adv-x="955" 
d="M907 405v-273c-75 -93 -213 -155 -400 -155c-287 0 -465 136 -465 373s178 373 465 373c173 0 298 -61 371 -129l-149 -110c-60 54 -123 78 -217 78c-170 0 -263 -75 -263 -212c0 -138 96 -213 266 -213c86 0 154 17 203 62v63h-232v143h421z" />
    <glyph glyph-name="Gbreve" unicode="&#x11e;" horiz-adv-x="955" 
d="M703 949c0 -65 -49 -176 -201 -176c-153 0 -202 111 -202 176h118c4 -35 32 -70 84 -70c50 0 79 35 82 70h119zM907 405v-273c-75 -93 -213 -155 -400 -155c-287 0 -465 136 -465 373s178 373 465 373c173 0 298 -61 371 -129l-149 -110c-60 54 -123 78 -217 78
c-170 0 -263 -75 -263 -212c0 -138 96 -213 266 -213c86 0 154 17 203 62v63h-232v143h421z" />
    <glyph glyph-name="Gcircumflex" unicode="&#x11c;" horiz-adv-x="955" 
d="M248 781h172l80 89l81 -89h174l-150 168h-206zM907 405v-273c-75 -93 -213 -155 -400 -155c-287 0 -465 136 -465 373s178 373 465 373c173 0 298 -61 371 -129l-149 -110c-60 54 -123 78 -217 78c-170 0 -263 -75 -263 -212c0 -138 96 -213 266 -213c86 0 154 17 203 62
v63h-232v143h421z" />
    <glyph glyph-name="Gcommaaccent" unicode="&#x122;" horiz-adv-x="955" 
d="M907 405v-273c-75 -93 -213 -155 -400 -155c-287 0 -465 136 -465 373s178 373 465 373c173 0 298 -61 371 -129l-149 -110c-60 54 -123 78 -217 78c-170 0 -263 -75 -263 -212c0 -138 96 -213 266 -213c86 0 154 17 203 62v63h-232v143h421zM502 -52
c74 0 120 -58 120 -126c0 -74 -49 -180 -156 -242l-40 56c50 37 84 73 97 120c-4 -5 -13 -7 -28 -7c-58 0 -105 42 -105 100c0 55 47 99 112 99z" />
    <glyph glyph-name="Gdotaccent" unicode="&#x120;" horiz-adv-x="955" 
d="M501 780c-54 0 -92 30 -92 77c0 49 38 78 92 78s92 -29 92 -78c0 -47 -38 -77 -92 -77zM907 405v-273c-75 -93 -213 -155 -400 -155c-287 0 -465 136 -465 373s178 373 465 373c173 0 298 -61 371 -129l-149 -110c-60 54 -123 78 -217 78c-170 0 -263 -75 -263 -212
c0 -138 96 -213 266 -213c86 0 154 17 203 62v63h-232v143h421z" />
    <glyph glyph-name="H" unicode="H" horiz-adv-x="992" 
d="M706 700h204v-700h-204v271h-420v-271h-204v700h204v-261h420v261z" />
    <glyph glyph-name="Hbar" unicode="&#x126;" horiz-adv-x="1067" 
d="M1051 587v-75h-104v-512h-204v271h-419v-271h-204v512h-103v75h103v113h204v-113h419v113h204v-113h104zM743 439v73h-419v-73h419z" />
    <glyph glyph-name="Hcircumflex" unicode="&#x124;" horiz-adv-x="992" 
d="M242 781h172l80 89l81 -89h174l-150 168h-206zM706 700h204v-700h-204v271h-420v-271h-204v700h204v-261h420v261z" />
    <glyph glyph-name="I" unicode="I" horiz-adv-x="369" 
d="M286 0h-204v700h204v-700z" />
    <glyph glyph-name="IJ" unicode="&#x132;" horiz-adv-x="1110" 
d="M286 0h-204v700h204v-700zM500 225c43 -54 92 -80 170 -80c121 0 167 69 167 179v376h204v-392c0 -194 -125 -331 -369 -331c-145 0 -242 48 -309 129z" />
    <glyph glyph-name="Iacute" unicode="&#xcd;" horiz-adv-x="369" 
d="M451 948l-237 -168h-145l137 168h245zM286 0h-204v700h204v-700z" />
    <glyph glyph-name="Ibreve" unicode="&#x12c;" horiz-adv-x="369" 
d="M386 948c0 -65 -49 -176 -201 -176c-153 0 -202 111 -202 176h118c4 -35 32 -70 84 -70c50 0 79 35 82 70h119zM286 0h-204v700h204v-700z" />
    <glyph glyph-name="Icircumflex" unicode="&#xce;" horiz-adv-x="369" 
d="M-69 780h172l80 89l81 -89h174l-150 168h-206zM286 0h-204v700h204v-700z" />
    <glyph glyph-name="Idieresis" unicode="&#xcf;" horiz-adv-x="369" 
d="M44 779c-55 0 -94 32 -94 80s39 79 94 79c54 0 94 -31 94 -79s-40 -80 -94 -80zM325 779c-55 0 -94 32 -94 80s39 79 94 79c54 0 94 -31 94 -79s-40 -80 -94 -80zM286 0h-204v700h204v-700z" />
    <glyph glyph-name="Idotaccent" unicode="&#x130;" horiz-adv-x="369" 
d="M184 779c-54 0 -92 30 -92 77c0 49 38 78 92 78s92 -29 92 -78c0 -47 -38 -77 -92 -77zM286 0h-204v700h204v-700z" />
    <glyph glyph-name="Igrave" unicode="&#xcc;" horiz-adv-x="369" 
d="M-82 948h245l137 -168h-145zM286 0h-204v700h204v-700z" />
    <glyph glyph-name="Imacron" unicode="&#x12a;" horiz-adv-x="369" 
d="M-48 927h465v-133h-465v133zM286 0h-204v700h204v-700z" />
    <glyph glyph-name="Iogonek" unicode="&#x12e;" horiz-adv-x="369" 
d="M309 -152l32 -40c-20 -27 -63 -61 -141 -61c-81 0 -160 38 -160 119c0 57 38 110 115 134h-73v700h204v-700c-54 -21 -112 -68 -112 -121c0 -36 29 -58 67 -58c27 0 51 10 68 27z" />
    <glyph glyph-name="Itilde" unicode="&#x128;" horiz-adv-x="369" 
d="M387 964l79 -121c-34 -38 -94 -70 -164 -70c-91 0 -144 50 -219 50c-47 0 -73 -18 -102 -45l-78 121c33 38 94 70 165 70c90 0 141 -49 218 -49c46 0 76 17 101 44zM286 0h-204v700h204v-700z" />
    <glyph glyph-name="J" unicode="J" horiz-adv-x="741" 
d="M131 225c43 -54 92 -80 170 -80c121 0 167 69 167 179v376h204v-392c0 -194 -125 -331 -369 -331c-145 0 -242 48 -309 129z" />
    <glyph glyph-name="Jcircumflex" unicode="&#x134;" horiz-adv-x="741" 
d="M316 780h172l80 89l81 -89h174l-150 168h-206zM131 225c43 -54 92 -80 170 -80c121 0 167 69 167 179v376h204v-392c0 -194 -125 -331 -369 -331c-145 0 -242 48 -309 129z" />
    <glyph glyph-name="K" unicode="K" horiz-adv-x="907" 
d="M916 0h-240l-235 301l-155 -138v-163h-204v700h204v-324l358 324h254l-311 -279z" />
    <glyph glyph-name="Kcommaaccent" unicode="&#x136;" horiz-adv-x="907" 
d="M587 421l329 -421h-240l-235 301l-155 -138v-163h-204v700h204v-324l358 324h254zM467 -52c74 0 120 -58 120 -126c0 -74 -49 -180 -156 -242l-40 56c50 37 84 73 97 120c-4 -5 -13 -7 -28 -7c-58 0 -105 42 -105 100c0 55 47 99 112 99z" />
    <glyph glyph-name="L" unicode="L" horiz-adv-x="774" 
d="M286 164h471v-164h-675v700h204v-536z" />
    <glyph glyph-name="Lacute" unicode="&#x139;" horiz-adv-x="774" 
d="M451 948l-237 -168h-145l137 168h245zM286 164h471v-164h-675v700h204v-536z" />
    <glyph glyph-name="Lcaron" unicode="&#x13d;" horiz-adv-x="774" 
d="M519 717c74 0 120 -58 120 -126c0 -74 -49 -180 -156 -242l-40 56c50 37 84 73 97 120c-4 -5 -13 -7 -28 -7c-58 0 -105 42 -105 100c0 55 47 99 112 99zM286 164h471v-164h-675v700h204v-536z" />
    <glyph glyph-name="Lcommaaccent" unicode="&#x13b;" horiz-adv-x="774" 
d="M286 164h471v-164h-675v700h204v-536zM422 -52c74 0 120 -58 120 -126c0 -74 -49 -180 -156 -242l-40 56c50 37 84 73 97 120c-4 -5 -13 -7 -28 -7c-58 0 -105 42 -105 100c0 55 47 99 112 99z" />
    <glyph glyph-name="Ldot" unicode="&#x13f;" horiz-adv-x="774" 
d="M286 156h471v-156h-675v700h204v-544zM502 325c-68 0 -115 43 -115 99s47 100 115 100c67 0 114 -44 114 -100s-47 -99 -114 -99z" />
    <glyph glyph-name="Lslash" unicode="&#x141;" horiz-adv-x="826" 
d="M338 164h471v-164h-675v256l-107 -48v126l107 48v318h204v-226l203 93v-126l-203 -93v-184z" />
    <glyph glyph-name="M" unicode="M" horiz-adv-x="1132" 
d="M833 700h217v-700h-203v447l-279 -342h-10l-279 342v-447h-197v700h223l263 -336z" />
    <glyph glyph-name="N" unicode="N" horiz-adv-x="992" 
d="M713 700h197v-700h-179l-452 460v-460h-197v700h216l415 -428v428z" />
    <glyph glyph-name="Nacute" unicode="&#x143;" horiz-adv-x="992" 
d="M763 948l-237 -168h-145l137 168h245zM713 700h197v-700h-179l-452 460v-460h-197v700h216l415 -428v428z" />
    <glyph glyph-name="Ncaron" unicode="&#x147;" horiz-adv-x="992" 
d="M243 948l151 -168h206l150 168h-172l-81 -89l-81 89h-173zM713 700h197v-700h-179l-452 460v-460h-197v700h216l415 -428v428z" />
    <glyph glyph-name="Ncommaaccent" unicode="&#x145;" horiz-adv-x="992" 
d="M713 700h197v-700h-179l-452 460v-460h-197v700h216l415 -428v428zM497 -52c74 0 120 -58 120 -126c0 -74 -49 -180 -156 -242l-40 56c50 37 84 73 97 120c-4 -5 -13 -7 -28 -7c-58 0 -105 42 -105 100c0 55 47 99 112 99z" />
    <glyph glyph-name="Eng" unicode="&#x14a;" horiz-adv-x="992" 
d="M910 700v-652h-1v-29c0 -148 -96 -240 -240 -240c-46 0 -96 8 -139 24l30 127c19 -7 38 -11 63 -11c55 0 90 26 90 91v9l-434 441v-460h-197v700h216l414 -428v282v146h198z" />
    <glyph glyph-name="Ntilde" unicode="&#xd1;" horiz-adv-x="992" 
d="M699 964l79 -121c-34 -38 -94 -70 -164 -70c-91 0 -144 50 -219 50c-47 0 -73 -18 -102 -45l-78 121c33 38 94 70 165 70c90 0 141 -49 218 -49c46 0 76 17 101 44zM713 700h197v-700h-179l-452 460v-460h-197v700h216l415 -428v428z" />
    <glyph glyph-name="O" unicode="O" horiz-adv-x="997" 
d="M498 -23c-277 0 -456 136 -456 373s179 373 456 373s457 -136 457 -373s-180 -373 -457 -373zM498 143c154 0 249 75 249 207s-95 207 -249 207c-153 0 -249 -75 -249 -207s95 -207 249 -207z" />
    <glyph glyph-name="Oacute" unicode="&#xd3;" horiz-adv-x="997" 
d="M766 948l-237 -168h-145l137 168h245zM498 -23c-277 0 -456 136 -456 373s179 373 456 373s457 -136 457 -373s-180 -373 -457 -373zM498 143c154 0 249 75 249 207s-95 207 -249 207c-153 0 -249 -75 -249 -207s95 -207 249 -207z" />
    <glyph glyph-name="Obreve" unicode="&#x14e;" horiz-adv-x="997" 
d="M701 948c0 -65 -49 -176 -201 -176c-153 0 -202 111 -202 176h118c4 -35 32 -70 84 -70c50 0 79 35 82 70h119zM498 -23c-277 0 -456 136 -456 373s179 373 456 373s457 -136 457 -373s-180 -373 -457 -373zM498 143c154 0 249 75 249 207s-95 207 -249 207
c-153 0 -249 -75 -249 -207s95 -207 249 -207z" />
    <glyph glyph-name="Ocircumflex" unicode="&#xd4;" horiz-adv-x="997" 
d="M246 780h172l80 89l81 -89h174l-150 168h-206zM498 -23c-277 0 -456 136 -456 373s179 373 456 373s457 -136 457 -373s-180 -373 -457 -373zM498 143c154 0 249 75 249 207s-95 207 -249 207c-153 0 -249 -75 -249 -207s95 -207 249 -207z" />
    <glyph glyph-name="Odieresis" unicode="&#xd6;" horiz-adv-x="997" 
d="M359 779c-55 0 -94 32 -94 80s39 79 94 79c54 0 94 -31 94 -79s-40 -80 -94 -80zM640 779c-55 0 -94 32 -94 80s39 79 94 79c54 0 94 -31 94 -79s-40 -80 -94 -80zM498 -23c-277 0 -456 136 -456 373s179 373 456 373s457 -136 457 -373s-180 -373 -457 -373zM498 143
c154 0 249 75 249 207s-95 207 -249 207c-153 0 -249 -75 -249 -207s95 -207 249 -207z" />
    <glyph glyph-name="Ograve" unicode="&#xd2;" horiz-adv-x="997" 
d="M233 948h245l137 -168h-145zM498 -23c-277 0 -456 136 -456 373s179 373 456 373s457 -136 457 -373s-180 -373 -457 -373zM498 143c154 0 249 75 249 207s-95 207 -249 207c-153 0 -249 -75 -249 -207s95 -207 249 -207z" />
    <glyph glyph-name="Ohungarumlaut" unicode="&#x150;" horiz-adv-x="997" 
d="M594 948l-165 -168h-172l164 168h173zM835 948l-165 -168h-172l165 168h172zM498 -23c-277 0 -456 136 -456 373s179 373 456 373s457 -136 457 -373s-180 -373 -457 -373zM498 143c154 0 249 75 249 207s-95 207 -249 207c-153 0 -249 -75 -249 -207s95 -207 249 -207z
" />
    <glyph glyph-name="Omacron" unicode="&#x14c;" horiz-adv-x="997" 
d="M267 927h465v-133h-465v133zM498 -23c-277 0 -456 136 -456 373s179 373 456 373s457 -136 457 -373s-180 -373 -457 -373zM498 143c154 0 249 75 249 207s-95 207 -249 207c-153 0 -249 -75 -249 -207s95 -207 249 -207z" />
    <glyph glyph-name="Oslash" unicode="&#xd8;" horiz-adv-x="997" 
d="M792 652c103 -63 163 -166 163 -302c0 -237 -180 -373 -457 -373c-70 0 -135 9 -191 26l-75 -100h-136l108 145c-103 63 -162 166 -162 302c0 237 179 373 456 373c71 0 135 -9 192 -26l75 100h136zM249 350c0 -66 24 -117 67 -153l263 352c-24 5 -51 8 -81 8
c-153 0 -249 -75 -249 -207zM498 143c154 0 249 75 249 207c0 66 -23 117 -66 153l-264 -352c25 -5 52 -8 81 -8z" />
    <glyph glyph-name="Oslashacute" unicode="&#x1fe;" horiz-adv-x="997" 
d="M765 948l-237 -168h-145l137 168h245zM792 652c103 -63 163 -166 163 -302c0 -237 -180 -373 -457 -373c-70 0 -135 9 -191 26l-75 -100h-136l108 145c-103 63 -162 166 -162 302c0 237 179 373 456 373c71 0 135 -9 192 -26l75 100h136zM249 350c0 -66 24 -117 67 -153
l263 352c-24 5 -51 8 -81 8c-153 0 -249 -75 -249 -207zM498 143c154 0 249 75 249 207c0 66 -23 117 -66 153l-264 -352c25 -5 52 -8 81 -8z" />
    <glyph glyph-name="Otilde" unicode="&#xd5;" horiz-adv-x="997" 
d="M702 964l79 -121c-34 -38 -94 -70 -164 -70c-91 0 -144 50 -219 50c-47 0 -73 -18 -102 -45l-78 121c33 38 94 70 165 70c90 0 141 -49 218 -49c46 0 76 17 101 44zM498 -23c-277 0 -456 136 -456 373s179 373 456 373s457 -136 457 -373s-180 -373 -457 -373zM498 143
c154 0 249 75 249 207s-95 207 -249 207c-153 0 -249 -75 -249 -207s95 -207 249 -207z" />
    <glyph glyph-name="OE" unicode="&#x152;" horiz-adv-x="1457" 
d="M871 156h545v-156h-746h-189c-270 0 -439 130 -439 350s169 350 439 350h389h536v-156h-535v-115h441v-149h-441v-124zM670 159v382h-171c-151 0 -249 -67 -249 -191s98 -191 249 -191h171z" />
    <glyph glyph-name="P" unicode="P" horiz-adv-x="911" 
d="M568 700c191 0 318 -84 318 -245c0 -163 -127 -245 -318 -245h-282v-210h-204v700h486zM551 358c76 0 128 23 128 93c0 71 -52 94 -128 94h-265v-187h265z" />
    <glyph glyph-name="Thorn" unicode="&#xde;" horiz-adv-x="911" 
d="M570 599c185 0 316 -80 316 -241c0 -164 -131 -246 -316 -246h-284v-112h-204v700h204v-101h284zM553 263c75 0 126 23 126 93c0 69 -51 93 -126 93h-267v-186h267z" />
    <glyph glyph-name="Q" unicode="Q" horiz-adv-x="997" 
d="M955 350c0 -122 -48 -217 -132 -281l87 -93l-97 -82l-107 114c-61 -20 -130 -31 -208 -31c-277 0 -456 136 -456 373s179 373 456 373s457 -136 457 -373zM498 143c27 0 52 2 75 7l-85 91l98 83l107 -115c35 34 54 82 54 141c0 132 -95 207 -249 207
c-153 0 -249 -75 -249 -207s95 -207 249 -207z" />
    <glyph glyph-name="R" unicode="R" horiz-adv-x="940" 
d="M913 0h-237l-185 221h-206v-221h-203v700h491c179 0 318 -79 318 -239c0 -117 -74 -191 -184 -223zM284 369h274c73 0 126 20 126 88s-53 88 -126 88h-274v-176z" />
    <glyph glyph-name="Racute" unicode="&#x154;" horiz-adv-x="940" 
d="M710 948l-237 -168h-145l137 168h245zM913 0h-237l-185 221h-206v-221h-203v700h491c179 0 318 -79 318 -239c0 -117 -74 -191 -184 -223zM284 369h274c73 0 126 20 126 88s-53 88 -126 88h-274v-176z" />
    <glyph glyph-name="Rcaron" unicode="&#x158;" horiz-adv-x="940" 
d="M547 780h-206l-151 168h173l81 -89l81 89h172zM913 0h-237l-185 221h-206v-221h-203v700h491c179 0 318 -79 318 -239c0 -117 -74 -191 -184 -223zM284 369h274c73 0 126 20 126 88s-53 88 -126 88h-274v-176z" />
    <glyph glyph-name="Rcommaaccent" unicode="&#x156;" horiz-adv-x="940" 
d="M707 238l206 -238h-237l-185 221h-206v-221h-203v700h491c179 0 318 -79 318 -239c0 -117 -74 -191 -184 -223zM284 369h274c73 0 126 20 126 88s-53 88 -126 88h-274v-176zM463 -52c74 0 120 -58 120 -126c0 -74 -49 -180 -156 -242l-40 56c50 37 84 73 97 120
c-4 -5 -13 -7 -28 -7c-58 0 -105 42 -105 100c0 55 47 99 112 99z" />
    <glyph glyph-name="S" unicode="S" horiz-adv-x="886" 
d="M462 444c229 -19 391 -64 391 -225c0 -144 -133 -242 -387 -242c-180 0 -331 49 -441 137l107 126c83 -70 198 -109 338 -109c120 0 180 22 180 68c0 45 -56 60 -200 72c-208 18 -397 64 -397 220c0 150 162 232 384 232c150 0 288 -36 384 -104l-103 -127
c-78 55 -172 77 -281 78c-82 0 -181 -13 -181 -63c0 -47 81 -53 206 -63z" />
    <glyph glyph-name="Sacute" unicode="&#x15a;" horiz-adv-x="886" 
d="M714 948l-237 -168h-145l137 168h245zM462 444c229 -19 391 -64 391 -225c0 -144 -133 -242 -387 -242c-180 0 -331 49 -441 137l107 126c83 -70 198 -109 338 -109c120 0 180 22 180 68c0 45 -56 60 -200 72c-208 18 -397 64 -397 220c0 150 162 232 384 232
c150 0 288 -36 384 -104l-103 -127c-78 55 -172 77 -281 78c-82 0 -181 -13 -181 -63c0 -47 81 -53 206 -63z" />
    <glyph glyph-name="Scaron" unicode="&#x160;" horiz-adv-x="886" 
d="M194 948l151 -168h206l150 168h-172l-81 -89l-81 89h-173zM462 444c229 -19 391 -64 391 -225c0 -144 -133 -242 -387 -242c-180 0 -331 49 -441 137l107 126c83 -70 198 -109 338 -109c120 0 180 22 180 68c0 45 -56 60 -200 72c-208 18 -397 64 -397 220
c0 150 162 232 384 232c150 0 288 -36 384 -104l-103 -127c-78 55 -172 77 -281 78c-82 0 -181 -13 -181 -63c0 -47 81 -53 206 -63z" />
    <glyph glyph-name="Scedilla" unicode="&#x15e;" horiz-adv-x="886" 
d="M462 444c229 -19 391 -64 391 -225c0 -144 -133 -242 -387 -242c-180 0 -331 49 -441 137l107 126c83 -70 198 -109 338 -109c120 0 180 22 180 68c0 45 -56 60 -200 72c-208 18 -397 64 -397 220c0 150 162 232 384 232c150 0 288 -36 384 -104l-103 -127
c-78 55 -172 77 -281 78c-82 0 -181 -13 -181 -63c0 -47 81 -53 206 -63zM545 -60l-147 -162l-124 33l101 154z" />
    <glyph glyph-name="Scircumflex" unicode="&#x15c;" horiz-adv-x="886" 
d="M194 780h172l80 89l81 -89h174l-150 168h-206zM462 444c229 -19 391 -64 391 -225c0 -144 -133 -242 -387 -242c-180 0 -331 49 -441 137l107 126c83 -70 198 -109 338 -109c120 0 180 22 180 68c0 45 -56 60 -200 72c-208 18 -397 64 -397 220c0 150 162 232 384 232
c150 0 288 -36 384 -104l-103 -127c-78 55 -172 77 -281 78c-82 0 -181 -13 -181 -63c0 -47 81 -53 206 -63z" />
    <glyph glyph-name="Scommaaccent" unicode="&#x218;" horiz-adv-x="886" 
d="M462 444c229 -19 391 -64 391 -225c0 -144 -133 -242 -387 -242c-180 0 -331 49 -441 137l107 126c83 -70 198 -109 338 -109c120 0 180 22 180 68c0 45 -56 60 -200 72c-208 18 -397 64 -397 220c0 150 162 232 384 232c150 0 288 -36 384 -104l-103 -127
c-78 55 -172 77 -281 78c-82 0 -181 -13 -181 -63c0 -47 81 -53 206 -63zM460 -52c74 0 120 -58 120 -126c0 -74 -49 -180 -156 -242l-40 56c50 37 84 73 97 120c-4 -5 -13 -7 -28 -7c-58 0 -105 42 -105 100c0 55 47 99 112 99z" />
    <glyph glyph-name="T" unicode="T" horiz-adv-x="815" 
d="M800 700v-163h-291v-537h-204v537h-289v163h784z" />
    <glyph glyph-name="Tbar" unicode="&#x166;" horiz-adv-x="815" 
d="M800 537h-291v-150h132v-137h-132v-250h-204v250h-130v137h130v150h-289v163h784v-163z" />
    <glyph glyph-name="Tcaron" unicode="&#x164;" horiz-adv-x="815" 
d="M154 948l151 -168h206l150 168h-172l-81 -89l-81 89h-173zM800 700v-163h-291v-537h-204v537h-289v163h784z" />
    <glyph glyph-name="uni0162" unicode="&#x162;" horiz-adv-x="815" 
d="M800 700v-163h-291v-537h-204v537h-289v163h784zM494 -53l-147 -162l-124 33l101 154z" />
    <glyph glyph-name="U" unicode="U" horiz-adv-x="953" 
d="M679 700h204v-370c0 -213 -145 -353 -406 -353s-407 140 -407 353v370h204v-354c0 -122 68 -201 203 -201s202 79 202 201v354z" />
    <glyph glyph-name="Uacute" unicode="&#xda;" horiz-adv-x="953" 
d="M743 948l-237 -168h-145l137 168h245zM679 700h204v-370c0 -213 -145 -353 -406 -353s-407 140 -407 353v370h204v-354c0 -122 68 -201 203 -201s202 79 202 201v354z" />
    <glyph glyph-name="Ubreve" unicode="&#x16c;" horiz-adv-x="953" 
d="M679 948c0 -65 -49 -176 -201 -176c-153 0 -202 111 -202 176h118c4 -35 32 -70 84 -70c50 0 79 35 82 70h119zM679 700h204v-370c0 -213 -145 -353 -406 -353s-407 140 -407 353v370h204v-354c0 -122 68 -201 203 -201s202 79 202 201v354z" />
    <glyph glyph-name="Ucircumflex" unicode="&#xdb;" horiz-adv-x="953" 
d="M224 780h172l80 89l81 -89h174l-150 168h-206zM679 700h204v-370c0 -213 -145 -353 -406 -353s-407 140 -407 353v370h204v-354c0 -122 68 -201 203 -201s202 79 202 201v354z" />
    <glyph glyph-name="Udieresis" unicode="&#xdc;" horiz-adv-x="953" 
d="M337 779c-55 0 -94 32 -94 80s39 79 94 79c54 0 94 -31 94 -79s-40 -80 -94 -80zM618 779c-55 0 -94 32 -94 80s39 79 94 79c54 0 94 -31 94 -79s-40 -80 -94 -80zM679 700h204v-370c0 -213 -145 -353 -406 -353s-407 140 -407 353v370h204v-354c0 -122 68 -201 203 -201
s202 79 202 201v354z" />
    <glyph glyph-name="Ugrave" unicode="&#xd9;" horiz-adv-x="953" 
d="M211 948h245l137 -168h-145zM679 700h204v-370c0 -213 -145 -353 -406 -353s-407 140 -407 353v370h204v-354c0 -122 68 -201 203 -201s202 79 202 201v354z" />
    <glyph glyph-name="Uhungarumlaut" unicode="&#x170;" horiz-adv-x="953" 
d="M572 948l-165 -168h-172l164 168h173zM813 948l-165 -168h-172l165 168h172zM679 700h204v-370c0 -213 -145 -353 -406 -353s-407 140 -407 353v370h204v-354c0 -122 68 -201 203 -201s202 79 202 201v354z" />
    <glyph glyph-name="Umacron" unicode="&#x16a;" horiz-adv-x="953" 
d="M245 927h465v-133h-465v133zM679 700h204v-370c0 -213 -145 -353 -406 -353s-407 140 -407 353v370h204v-354c0 -122 68 -201 203 -201s202 79 202 201v354z" />
    <glyph glyph-name="Uogonek" unicode="&#x172;" horiz-adv-x="953" 
d="M679 700h204v-370c0 -163 -84 -282 -240 -330h1c-54 -21 -112 -68 -112 -121c0 -36 29 -58 67 -58c27 0 51 10 68 27l32 -40c-20 -27 -63 -61 -141 -61c-81 0 -160 38 -160 119c0 43 22 84 65 111c-253 5 -393 144 -393 353v370h204v-354c0 -122 68 -201 203 -201
s202 79 202 201v354z" />
    <glyph glyph-name="Uring" unicode="&#x16e;" horiz-adv-x="953" 
d="M477 769c-97 0 -163 42 -163 120s66 122 163 122c96 0 163 -44 163 -122s-67 -120 -163 -120zM422 889c0 -31 22 -50 55 -50s55 19 55 50s-22 50 -55 50s-55 -19 -55 -50zM679 700h204v-370c0 -213 -145 -353 -406 -353s-407 140 -407 353v370h204v-354
c0 -122 68 -201 203 -201s202 79 202 201v354z" />
    <glyph glyph-name="Utilde" unicode="&#x168;" horiz-adv-x="953" 
d="M680 964l79 -121c-34 -38 -94 -70 -164 -70c-91 0 -144 50 -219 50c-47 0 -73 -18 -102 -45l-78 121c33 38 94 70 165 70c90 0 141 -49 218 -49c46 0 76 17 101 44zM679 700h204v-370c0 -213 -145 -353 -406 -353s-407 140 -407 353v370h204v-354
c0 -122 68 -201 203 -201s202 79 202 201v354z" />
    <glyph glyph-name="V" unicode="V" horiz-adv-x="890" 
d="M-4 700h220l231 -504l230 504h218l-343 -700h-214z" />
    <glyph glyph-name="W" unicode="W" horiz-adv-x="1260" 
d="M1046 700h205l-255 -700h-203l-163 487l-164 -487h-201l-256 700h209l153 -481l167 481h188l167 -481z" />
    <glyph glyph-name="Wacute" unicode="&#x1e82;" horiz-adv-x="1260" 
d="M898 948l-237 -168h-145l137 168h245zM1046 700h205l-255 -700h-203l-163 487l-164 -487h-201l-256 700h209l153 -481l167 481h188l167 -481z" />
    <glyph glyph-name="Wcircumflex" unicode="&#x174;" horiz-adv-x="1260" 
d="M378 780h172l80 89l81 -89h174l-150 168h-206zM1046 700h205l-255 -700h-203l-163 487l-164 -487h-201l-256 700h209l153 -481l167 481h188l167 -481z" />
    <glyph glyph-name="Wdieresis" unicode="&#x1e84;" horiz-adv-x="1260" 
d="M491 779c-55 0 -94 32 -94 80s39 79 94 79c54 0 94 -31 94 -79s-40 -80 -94 -80zM772 779c-55 0 -94 32 -94 80s39 79 94 79c54 0 94 -31 94 -79s-40 -80 -94 -80zM1046 700h205l-255 -700h-203l-163 487l-164 -487h-201l-256 700h209l153 -481l167 481h188l167 -481z
" />
    <glyph glyph-name="Wgrave" unicode="&#x1e80;" horiz-adv-x="1260" 
d="M365 948h245l137 -168h-145zM1046 700h205l-255 -700h-203l-163 487l-164 -487h-201l-256 700h209l153 -481l167 481h188l167 -481z" />
    <glyph glyph-name="X" unicode="X" horiz-adv-x="862" 
d="M860 700l-311 -342l318 -358h-245l-197 223l-197 -223h-232l317 355l-310 345h245l190 -214l189 214h233z" />
    <glyph glyph-name="Y" unicode="Y" horiz-adv-x="854" 
d="M-4 700h228l204 -302l203 302h227l-329 -464v-236h-204v236z" />
    <glyph glyph-name="Yacute" unicode="&#xdd;" horiz-adv-x="854" 
d="M694 948l-237 -168h-145l137 168h245zM-4 700h228l204 -302l203 302h227l-329 -464v-236h-204v236z" />
    <glyph glyph-name="Ycircumflex" unicode="&#x176;" horiz-adv-x="854" 
d="M174 780h172l80 89l81 -89h174l-150 168h-206zM-4 700h228l204 -302l203 302h227l-329 -464v-236h-204v236z" />
    <glyph glyph-name="Ydieresis" unicode="&#x178;" horiz-adv-x="854" 
d="M287 779c-55 0 -94 32 -94 80s39 79 94 79c54 0 94 -31 94 -79s-40 -80 -94 -80zM568 779c-55 0 -94 32 -94 80s39 79 94 79c54 0 94 -31 94 -79s-40 -80 -94 -80zM-4 700h228l204 -302l203 302h227l-329 -464v-236h-204v236z" />
    <glyph glyph-name="Ygrave" unicode="&#x1ef2;" horiz-adv-x="854" 
d="M161 948h245l137 -168h-145zM-4 700h228l204 -302l203 302h227l-329 -464v-236h-204v236z" />
    <glyph glyph-name="Z" unicode="Z" horiz-adv-x="873" 
d="M817 700v-128l-481 -415h497v-157h-795v128l482 415h-464v157h761z" />
    <glyph glyph-name="Zacute" unicode="&#x179;" horiz-adv-x="873" 
d="M714 948l-237 -168h-145l137 168h245zM817 700v-128l-481 -415h497v-157h-795v128l482 415h-464v157h761z" />
    <glyph glyph-name="Zcaron" unicode="&#x17d;" horiz-adv-x="873" 
d="M194 948l151 -168h206l150 168h-172l-81 -89l-81 89h-173zM817 700v-128l-481 -415h497v-157h-795v128l482 415h-464v157h761z" />
    <glyph glyph-name="Zdotaccent" unicode="&#x17b;" horiz-adv-x="873" 
d="M447 779c-54 0 -92 30 -92 77c0 49 38 78 92 78s92 -29 92 -78c0 -47 -38 -77 -92 -77zM817 700v-128l-481 -415h497v-157h-795v128l482 415h-464v157h761z" />
    <glyph glyph-name="a" unicode="a" horiz-adv-x="772" 
d="M369 576c211 0 337 -94 337 -265v-206c0 -40 7 -73 24 -105h-200c-11 17 -19 38 -19 57v1c-42 -44 -119 -78 -217 -78c-117 0 -266 46 -266 188s149 188 266 188c98 0 175 -34 217 -79v36c0 84 -62 124 -183 124c-66 0 -131 -9 -199 -43l-45 125c75 36 189 57 285 57z
M515 163v11c-38 53 -108 67 -165 67c-56 0 -131 -14 -131 -73s75 -73 131 -73c57 0 127 14 165 68z" />
    <glyph glyph-name="aacute" unicode="&#xe1;" horiz-adv-x="772" 
d="M655 802l-237 -168h-145l137 168h245zM369 576c211 0 337 -94 337 -265v-206c0 -40 7 -73 24 -105h-200c-11 17 -19 38 -19 57v1c-42 -44 -119 -78 -217 -78c-117 0 -266 46 -266 188s149 188 266 188c98 0 175 -34 217 -79v36c0 84 -62 124 -183 124
c-66 0 -131 -9 -199 -43l-45 125c75 36 189 57 285 57zM515 163v11c-38 53 -108 67 -165 67c-56 0 -131 -14 -131 -73s75 -73 131 -73c57 0 127 14 165 68z" />
    <glyph glyph-name="abreve" unicode="&#x103;" horiz-adv-x="772" 
d="M590 802c0 -65 -49 -176 -201 -176c-153 0 -202 111 -202 176h118c4 -35 32 -70 84 -70c50 0 79 35 82 70h119zM369 576c211 0 337 -94 337 -265v-206c0 -40 7 -73 24 -105h-200c-11 17 -19 38 -19 57v1c-42 -44 -119 -78 -217 -78c-117 0 -266 46 -266 188
s149 188 266 188c98 0 175 -34 217 -79v36c0 84 -62 124 -183 124c-66 0 -131 -9 -199 -43l-45 125c75 36 189 57 285 57zM515 163v11c-38 53 -108 67 -165 67c-56 0 -131 -14 -131 -73s75 -73 131 -73c57 0 127 14 165 68z" />
    <glyph glyph-name="acircumflex" unicode="&#xe2;" horiz-adv-x="772" 
d="M135 634h172l80 89l81 -89h174l-150 168h-206zM369 576c211 0 337 -94 337 -265v-206c0 -40 7 -73 24 -105h-200c-11 17 -19 38 -19 57v1c-42 -44 -119 -78 -217 -78c-117 0 -266 46 -266 188s149 188 266 188c98 0 175 -34 217 -79v36c0 84 -62 124 -183 124
c-66 0 -131 -9 -199 -43l-45 125c75 36 189 57 285 57zM515 163v11c-38 53 -108 67 -165 67c-56 0 -131 -14 -131 -73s75 -73 131 -73c57 0 127 14 165 68z" />
    <glyph glyph-name="adieresis" unicode="&#xe4;" horiz-adv-x="772" 
d="M248 633c-55 0 -94 32 -94 80s39 79 94 79c54 0 94 -31 94 -79s-40 -80 -94 -80zM529 633c-55 0 -94 32 -94 80s39 79 94 79c54 0 94 -31 94 -79s-40 -80 -94 -80zM369 576c211 0 337 -94 337 -265v-206c0 -40 7 -73 24 -105h-200c-11 17 -19 38 -19 57v1
c-42 -44 -119 -78 -217 -78c-117 0 -266 46 -266 188s149 188 266 188c98 0 175 -34 217 -79v36c0 84 -62 124 -183 124c-66 0 -131 -9 -199 -43l-45 125c75 36 189 57 285 57zM515 163v11c-38 53 -108 67 -165 67c-56 0 -131 -14 -131 -73s75 -73 131 -73
c57 0 127 14 165 68z" />
    <glyph glyph-name="agrave" unicode="&#xe0;" horiz-adv-x="772" 
d="M122 802h245l137 -168h-145zM369 576c211 0 337 -94 337 -265v-206c0 -40 7 -73 24 -105h-200c-11 17 -19 38 -19 57v1c-42 -44 -119 -78 -217 -78c-117 0 -266 46 -266 188s149 188 266 188c98 0 175 -34 217 -79v36c0 84 -62 124 -183 124c-66 0 -131 -9 -199 -43
l-45 125c75 36 189 57 285 57zM515 163v11c-38 53 -108 67 -165 67c-56 0 -131 -14 -131 -73s75 -73 131 -73c57 0 127 14 165 68z" />
    <glyph glyph-name="amacron" unicode="&#x101;" horiz-adv-x="772" 
d="M156 781h465v-133h-465v133zM369 576c211 0 337 -94 337 -265v-206c0 -40 7 -73 24 -105h-200c-11 17 -19 38 -19 57v1c-42 -44 -119 -78 -217 -78c-117 0 -266 46 -266 188s149 188 266 188c98 0 175 -34 217 -79v36c0 84 -62 124 -183 124c-66 0 -131 -9 -199 -43
l-45 125c75 36 189 57 285 57zM515 163v11c-38 53 -108 67 -165 67c-56 0 -131 -14 -131 -73s75 -73 131 -73c57 0 127 14 165 68z" />
    <glyph glyph-name="aogonek" unicode="&#x105;" horiz-adv-x="772" 
d="M753 -152l32 -40c-20 -27 -63 -61 -141 -61c-81 0 -160 38 -160 119c0 57 38 110 115 134h-69c-11 17 -19 38 -19 57v1c-42 -44 -119 -78 -217 -78c-117 0 -266 46 -266 188s149 188 266 188c98 0 175 -34 217 -79v36c0 84 -62 124 -183 124c-66 0 -131 -9 -199 -43
l-45 125c75 36 189 57 285 57c211 0 337 -94 337 -265v-206c0 -40 7 -73 24 -105c-54 -21 -112 -68 -112 -121c0 -36 29 -58 67 -58c27 0 51 10 68 27zM515 163v11c-38 53 -108 67 -165 67c-56 0 -131 -14 -131 -73s75 -73 131 -73c57 0 127 14 165 68z" />
    <glyph glyph-name="aring" unicode="&#xe5;" horiz-adv-x="772" 
d="M389 623c-97 0 -163 42 -163 120s66 122 163 122c96 0 163 -44 163 -122s-67 -120 -163 -120zM334 743c0 -31 22 -50 55 -50s55 19 55 50s-22 50 -55 50s-55 -19 -55 -50zM369 576c211 0 337 -94 337 -265v-206c0 -40 7 -73 24 -105h-200c-11 17 -19 38 -19 57v1
c-42 -44 -119 -78 -217 -78c-117 0 -266 46 -266 188s149 188 266 188c98 0 175 -34 217 -79v36c0 84 -62 124 -183 124c-66 0 -131 -9 -199 -43l-45 125c75 36 189 57 285 57zM515 163v11c-38 53 -108 67 -165 67c-56 0 -131 -14 -131 -73s75 -73 131 -73
c57 0 127 14 165 68z" />
    <glyph glyph-name="aringacute" unicode="&#x1fb;" horiz-adv-x="772" 
d="M389 623c-97 0 -163 42 -163 120c0 27 8 49 22 68l-6 2l101 136h190l-111 -86c78 -9 130 -51 130 -120c0 -78 -67 -120 -163 -120zM444 743c0 31 -22 50 -55 50s-55 -19 -55 -50s22 -50 55 -50s55 19 55 50zM706 105c0 -40 7 -73 24 -105h-200c-11 17 -19 38 -19 57v1
c-42 -44 -119 -78 -217 -78c-117 0 -266 46 -266 188s149 188 266 188c98 0 175 -34 217 -79v36c0 84 -62 124 -183 124c-66 0 -131 -9 -199 -43l-45 125c75 36 189 57 285 57c211 0 337 -94 337 -265v-206zM515 163v11c-38 53 -108 67 -165 67c-56 0 -131 -14 -131 -73
s75 -73 131 -73c57 0 127 14 165 68z" />
    <glyph glyph-name="atilde" unicode="&#xe3;" horiz-adv-x="772" 
d="M591 818l79 -121c-34 -38 -94 -70 -164 -70c-91 0 -144 50 -219 50c-47 0 -73 -18 -102 -45l-78 121c33 38 94 70 165 70c90 0 141 -49 218 -49c46 0 76 17 101 44zM369 576c211 0 337 -94 337 -265v-206c0 -40 7 -73 24 -105h-200c-11 17 -19 38 -19 57v1
c-42 -44 -119 -78 -217 -78c-117 0 -266 46 -266 188s149 188 266 188c98 0 175 -34 217 -79v36c0 84 -62 124 -183 124c-66 0 -131 -9 -199 -43l-45 125c75 36 189 57 285 57zM515 163v11c-38 53 -108 67 -165 67c-56 0 -131 -14 -131 -73s75 -73 131 -73
c57 0 127 14 165 68z" />
    <glyph glyph-name="ae" unicode="&#xe6;" horiz-adv-x="1242" 
d="M696 236c15 -88 82 -118 196 -118c90 0 140 16 196 59l100 -102c-80 -70 -181 -98 -307 -98c-138 0 -241 39 -302 109c-63 -73 -185 -106 -282 -106c-120 0 -269 46 -269 188s149 188 266 188c98 0 176 -34 218 -84v41c0 84 -63 124 -184 124c-67 0 -136 -10 -204 -44
l-40 126c75 36 188 57 285 57c107 0 190 -26 245 -73c60 48 146 74 253 74c197 0 342 -102 342 -295c0 -21 -3 -35 -6 -46h-507zM868 438c-86 0 -145 -28 -166 -97l326 1c-21 65 -73 96 -160 96zM516 163v11c-39 53 -108 67 -166 67c-55 0 -131 -14 -131 -73s76 -73 131 -73
c58 0 127 14 166 68z" />
    <glyph glyph-name="aeacute" unicode="&#x1fd;" horiz-adv-x="1242" 
d="M879 802l-237 -168h-145l137 168h245zM696 236c15 -88 82 -118 196 -118c90 0 140 16 196 59l100 -102c-80 -70 -181 -98 -307 -98c-138 0 -241 39 -302 109c-63 -73 -185 -106 -282 -106c-120 0 -269 46 -269 188s149 188 266 188c98 0 176 -34 218 -84v41
c0 84 -63 124 -184 124c-67 0 -136 -10 -204 -44l-40 126c75 36 188 57 285 57c107 0 190 -26 245 -73c60 48 146 74 253 74c197 0 342 -102 342 -295c0 -21 -3 -35 -6 -46h-507zM868 438c-86 0 -145 -28 -166 -97l326 1c-21 65 -73 96 -160 96zM516 163v11
c-39 53 -108 67 -166 67c-55 0 -131 -14 -131 -73s76 -73 131 -73c58 0 127 14 166 68z" />
    <glyph glyph-name="b" unicode="b" horiz-adv-x="827" 
d="M495 574c174 0 294 -114 294 -297s-120 -298 -294 -298c-101 0 -179 40 -228 102v-81h-197v740h197v-267c49 62 127 101 228 101zM440 131c104 0 162 53 162 146c0 92 -58 146 -162 146c-67 0 -128 -22 -172 -79v-134c44 -57 105 -79 172 -79z" />
    <glyph glyph-name="c" unicode="c" horiz-adv-x="732" 
d="M715 138c-46 -88 -151 -161 -319 -161c-221 0 -359 116 -359 300c0 185 138 300 359 300c167 0 270 -73 315 -159l-169 -68c-29 56 -82 76 -144 76c-101 0 -172 -51 -172 -149c0 -97 71 -149 172 -149c61 0 117 21 148 79z" />
    <glyph glyph-name="cacute" unicode="&#x107;" horiz-adv-x="732" 
d="M656 802l-237 -168h-145l137 168h245zM715 138c-46 -88 -151 -161 -319 -161c-221 0 -359 116 -359 300c0 185 138 300 359 300c167 0 270 -73 315 -159l-169 -68c-29 56 -82 76 -144 76c-101 0 -172 -51 -172 -149c0 -97 71 -149 172 -149c61 0 117 21 148 79z" />
    <glyph glyph-name="ccaron" unicode="&#x10d;" horiz-adv-x="732" 
d="M136 802l151 -168h206l150 168h-172l-81 -89l-81 89h-173zM715 138c-46 -88 -151 -161 -319 -161c-221 0 -359 116 -359 300c0 185 138 300 359 300c167 0 270 -73 315 -159l-169 -68c-29 56 -82 76 -144 76c-101 0 -172 -51 -172 -149c0 -97 71 -149 172 -149
c61 0 117 21 148 79z" />
    <glyph glyph-name="ccedilla" unicode="&#xe7;" horiz-adv-x="732" 
d="M715 138c-46 -88 -151 -161 -319 -161c-221 0 -359 116 -359 300c0 185 138 300 359 300c167 0 270 -73 315 -159l-169 -68c-29 56 -82 76 -144 76c-101 0 -172 -51 -172 -149c0 -97 71 -149 172 -149c61 0 117 21 148 79zM481 -60l-147 -162l-124 33l101 154z" />
    <glyph glyph-name="ccircumflex" unicode="&#x109;" horiz-adv-x="732" 
d="M136 634h172l80 89l81 -89h174l-150 168h-206zM715 138c-46 -88 -151 -161 -319 -161c-221 0 -359 116 -359 300c0 185 138 300 359 300c167 0 270 -73 315 -159l-169 -68c-29 56 -82 76 -144 76c-101 0 -172 -51 -172 -149c0 -97 71 -149 172 -149c61 0 117 21 148 79z
" />
    <glyph glyph-name="cdotaccent" unicode="&#x10b;" horiz-adv-x="732" 
d="M389 633c-54 0 -92 30 -92 77c0 49 38 78 92 78s92 -29 92 -78c0 -47 -38 -77 -92 -77zM715 138c-46 -88 -151 -161 -319 -161c-221 0 -359 116 -359 300c0 185 138 300 359 300c167 0 270 -73 315 -159l-169 -68c-29 56 -82 76 -144 76c-101 0 -172 -51 -172 -149
c0 -97 71 -149 172 -149c61 0 117 21 148 79z" />
    <glyph glyph-name="d" unicode="d" horiz-adv-x="827" 
d="M332 574c101 0 179 -39 228 -101v267h197v-740h-197v81c-49 -62 -127 -102 -228 -102c-174 0 -294 115 -294 298s120 297 294 297zM387 131c67 0 129 22 172 79v134c-43 57 -105 79 -172 79c-104 0 -162 -54 -162 -146c0 -93 58 -146 162 -146z" />
    <glyph glyph-name="eth" unicode="&#xf0;" horiz-adv-x="800" 
d="M562 654c144 -93 201 -227 201 -344c0 -232 -145 -334 -363 -334s-363 98 -363 277c0 178 149 257 287 257c86 0 208 -20 254 -105c-26 66 -95 126 -193 166l-149 -70l-35 66l78 36c-30 6 -61 11 -94 13l26 146c108 -10 196 -33 269 -65l142 66l34 -66zM399 121
c101 0 177 41 177 132c0 90 -76 132 -177 132c-99 0 -176 -42 -176 -132c0 -91 77 -132 176 -132z" />
    <glyph glyph-name="dcaron" unicode="&#x10f;" horiz-adv-x="995" 
d="M332 574c101 0 179 -39 228 -101v267h197v-740h-197v81c-49 -62 -127 -102 -228 -102c-174 0 -294 115 -294 298s120 297 294 297zM898 713c75 0 119 -58 119 -123c0 -77 -48 -174 -154 -236l-38 55c47 36 80 72 94 117c-4 -4 -12 -7 -27 -7c-58 0 -104 42 -104 97
s46 97 110 97zM387 131c67 0 129 22 172 79v134c-43 57 -105 79 -172 79c-104 0 -162 -54 -162 -146c0 -93 58 -146 162 -146z" />
    <glyph glyph-name="dcroat" unicode="&#x111;" horiz-adv-x="814" 
d="M830 666v-77h-73v-589h-197v81c-49 -62 -127 -102 -228 -102c-174 0 -294 115 -294 298s120 297 294 297c101 0 179 -39 228 -101v116h-167v77h167v74h197v-74h73zM559 210v134c-43 57 -105 79 -172 79c-104 0 -162 -54 -162 -146c0 -93 58 -146 162 -146
c67 0 129 22 172 79z" />
    <glyph glyph-name="e" unicode="e" horiz-adv-x="769" 
d="M225 235c16 -84 83 -118 195 -118c88 0 141 21 196 63l100 -105c-79 -70 -181 -98 -307 -98c-235 0 -372 114 -372 300s135 300 357 300c200 0 342 -100 342 -296c0 -22 -1 -35 -5 -46h-506zM396 439c-85 0 -144 -31 -166 -98l324 2c-21 65 -74 96 -158 96z" />
    <glyph glyph-name="eacute" unicode="&#xe9;" horiz-adv-x="769" 
d="M661 802l-237 -168h-145l137 168h245zM225 235c16 -84 83 -118 195 -118c88 0 141 21 196 63l100 -105c-79 -70 -181 -98 -307 -98c-235 0 -372 114 -372 300s135 300 357 300c200 0 342 -100 342 -296c0 -22 -1 -35 -5 -46h-506zM396 439c-85 0 -144 -31 -166 -98l324 2
c-21 65 -74 96 -158 96z" />
    <glyph glyph-name="ebreve" unicode="&#x115;" horiz-adv-x="769" 
d="M395 626c-153 0 -202 111 -202 176h118c4 -35 32 -70 84 -70c50 0 79 35 82 70h119c0 -65 -49 -176 -201 -176zM225 235c16 -84 83 -118 195 -118c88 0 141 21 196 63l100 -105c-79 -70 -181 -98 -307 -98c-235 0 -372 114 -372 300s135 300 357 300
c200 0 342 -100 342 -296c0 -22 -1 -35 -5 -46h-506zM396 439c-85 0 -144 -31 -166 -98l324 2c-21 65 -74 96 -158 96z" />
    <glyph glyph-name="ecaron" unicode="&#x11b;" horiz-adv-x="769" 
d="M498 634h-206l-151 168h173l81 -89l81 89h172zM225 235c16 -84 83 -118 195 -118c88 0 141 21 196 63l100 -105c-79 -70 -181 -98 -307 -98c-235 0 -372 114 -372 300s135 300 357 300c200 0 342 -100 342 -296c0 -22 -1 -35 -5 -46h-506zM396 439
c-85 0 -144 -31 -166 -98l324 2c-21 65 -74 96 -158 96z" />
    <glyph glyph-name="ecircumflex" unicode="&#xea;" horiz-adv-x="769" 
d="M393 723l-80 -89h-172l151 168h206l150 -168h-174zM225 235c16 -84 83 -118 195 -118c88 0 141 21 196 63l100 -105c-79 -70 -181 -98 -307 -98c-235 0 -372 114 -372 300s135 300 357 300c200 0 342 -100 342 -296c0 -22 -1 -35 -5 -46h-506zM396 439
c-85 0 -144 -31 -166 -98l324 2c-21 65 -74 96 -158 96z" />
    <glyph glyph-name="edieresis" unicode="&#xeb;" horiz-adv-x="769" 
d="M254 633c-55 0 -94 32 -94 80s39 79 94 79c54 0 94 -31 94 -79s-40 -80 -94 -80zM535 633c-55 0 -94 32 -94 80s39 79 94 79c54 0 94 -31 94 -79s-40 -80 -94 -80zM225 235c16 -84 83 -118 195 -118c88 0 141 21 196 63l100 -105c-79 -70 -181 -98 -307 -98
c-235 0 -372 114 -372 300s135 300 357 300c200 0 342 -100 342 -296c0 -22 -1 -35 -5 -46h-506zM396 439c-85 0 -144 -31 -166 -98l324 2c-21 65 -74 96 -158 96z" />
    <glyph glyph-name="edotaccent" unicode="&#x117;" horiz-adv-x="769" 
d="M394 633c-54 0 -92 30 -92 77c0 49 38 78 92 78s92 -29 92 -78c0 -47 -38 -77 -92 -77zM225 235c16 -84 83 -118 195 -118c88 0 141 21 196 63l100 -105c-79 -70 -181 -98 -307 -98c-235 0 -372 114 -372 300s135 300 357 300c200 0 342 -100 342 -296
c0 -22 -1 -35 -5 -46h-506zM396 439c-85 0 -144 -31 -166 -98l324 2c-21 65 -74 96 -158 96z" />
    <glyph glyph-name="egrave" unicode="&#xe8;" horiz-adv-x="769" 
d="M510 634h-145l-237 168h245zM225 235c16 -84 83 -118 195 -118c88 0 141 21 196 63l100 -105c-79 -70 -181 -98 -307 -98c-235 0 -372 114 -372 300s135 300 357 300c200 0 342 -100 342 -296c0 -22 -1 -35 -5 -46h-506zM396 439c-85 0 -144 -31 -166 -98l324 2
c-21 65 -74 96 -158 96z" />
    <glyph glyph-name="emacron" unicode="&#x113;" horiz-adv-x="769" 
d="M627 781v-133h-465v133h465zM225 235c16 -84 83 -118 195 -118c88 0 141 21 196 63l100 -105c-79 -70 -181 -98 -307 -98c-235 0 -372 114 -372 300s135 300 357 300c200 0 342 -100 342 -296c0 -22 -1 -35 -5 -46h-506zM396 439c-85 0 -144 -31 -166 -98l324 2
c-21 65 -74 96 -158 96z" />
    <glyph glyph-name="eogonek" unicode="&#x119;" horiz-adv-x="769" 
d="M225 235c16 -84 83 -118 195 -118c88 0 141 21 196 63l100 -105c-40 -35 -85 -59 -136 -75h1c-54 -21 -112 -68 -112 -121c0 -36 29 -58 67 -58c27 0 51 10 68 27l32 -40c-20 -27 -63 -61 -141 -61c-81 0 -160 38 -160 119c0 43 22 84 65 111c-230 3 -363 116 -363 300
c0 186 135 300 357 300c200 0 342 -100 342 -296c0 -22 -1 -35 -5 -46h-506zM396 439c-85 0 -144 -31 -166 -98l324 2c-21 65 -74 96 -158 96z" />
    <glyph glyph-name="f" unicode="f" horiz-adv-x="540" 
d="M308 570v-16h217v-139h-211v-415h-197v415h-98v139h98c2 141 103 207 237 207c56 0 130 -11 177 -33l-28 -111c-35 16 -67 23 -98 23c-63 0 -97 -25 -97 -70z" />
    <glyph glyph-name="g" unicode="g" horiz-adv-x="827" 
d="M757 554v-456c0 -243 -195 -318 -369 -318c-101 0 -227 25 -297 64l52 131c47 -29 132 -53 222 -53c133 0 194 52 194 140v44c-52 -68 -138 -101 -229 -101c-177 0 -293 107 -293 284c0 178 116 285 293 285c95 0 177 -33 229 -101v81h198zM386 148c70 0 128 28 174 89
v104c-46 63 -104 89 -174 89c-104 0 -160 -54 -160 -141c0 -86 56 -141 160 -141z" />
    <glyph glyph-name="gbreve" unicode="&#x11f;" horiz-adv-x="827" 
d="M625 803c0 -65 -49 -176 -201 -176c-153 0 -202 111 -202 176h118c4 -35 32 -70 84 -70c50 0 79 35 82 70h119zM757 554v-456c0 -243 -195 -318 -369 -318c-101 0 -227 25 -297 64l52 131c47 -29 132 -53 222 -53c133 0 194 52 194 140v44c-52 -68 -138 -101 -229 -101
c-177 0 -293 107 -293 284c0 178 116 285 293 285c95 0 177 -33 229 -101v81h198zM386 148c70 0 128 28 174 89v104c-46 63 -104 89 -174 89c-104 0 -160 -54 -160 -141c0 -86 56 -141 160 -141z" />
    <glyph glyph-name="gcircumflex" unicode="&#x11d;" horiz-adv-x="827" 
d="M169 635h172l80 89l81 -89h174l-150 168h-206zM757 554v-456c0 -243 -195 -318 -369 -318c-101 0 -227 25 -297 64l52 131c47 -29 132 -53 222 -53c133 0 194 52 194 140v44c-52 -68 -138 -101 -229 -101c-177 0 -293 107 -293 284c0 178 116 285 293 285
c95 0 177 -33 229 -101v81h198zM386 148c70 0 128 28 174 89v104c-46 63 -104 89 -174 89c-104 0 -160 -54 -160 -141c0 -86 56 -141 160 -141z" />
    <glyph glyph-name="gcommaaccent" unicode="&#x123;" horiz-adv-x="827" 
d="M424 636c-74 0 -120 58 -120 126c0 74 49 180 156 242l40 -56c-50 -37 -84 -73 -97 -120c4 5 13 7 28 7c58 0 105 -42 105 -100c0 -55 -47 -99 -112 -99zM757 554v-456c0 -243 -195 -318 -369 -318c-101 0 -227 25 -297 64l52 131c47 -29 132 -53 222 -53
c133 0 194 52 194 140v44c-52 -68 -138 -101 -229 -101c-177 0 -293 107 -293 284c0 178 116 285 293 285c95 0 177 -33 229 -101v81h198zM386 148c70 0 128 28 174 89v104c-46 63 -104 89 -174 89c-104 0 -160 -54 -160 -141c0 -86 56 -141 160 -141z" />
    <glyph glyph-name="gdotaccent" unicode="&#x121;" horiz-adv-x="827" 
d="M422 634c-54 0 -92 30 -92 77c0 49 38 78 92 78s92 -29 92 -78c0 -47 -38 -77 -92 -77zM757 554v-456c0 -243 -195 -318 -369 -318c-101 0 -227 25 -297 64l52 131c47 -29 132 -53 222 -53c133 0 194 52 194 140v44c-52 -68 -138 -101 -229 -101
c-177 0 -293 107 -293 284c0 178 116 285 293 285c95 0 177 -33 229 -101v81h198zM386 148c70 0 128 28 174 89v104c-46 63 -104 89 -174 89c-104 0 -160 -54 -160 -141c0 -86 56 -141 160 -141z" />
    <glyph glyph-name="h" unicode="h" horiz-adv-x="806" 
d="M495 574c161 0 248 -103 248 -248v-326h-197v313c0 72 -41 114 -116 114c-65 0 -121 -31 -163 -99v-328h-197v554v186h197v-198v-76c47 69 129 108 228 108z" />
    <glyph glyph-name="hbar" unicode="&#x127;" horiz-adv-x="806" 
d="M495 574c161 0 248 -103 248 -248v-326h-197v313c0 72 -41 114 -116 114c-65 0 -121 -31 -163 -99v-328h-197v554v35h-86v77h86v74h197v-74h155v-77h-155v-47v-76c47 69 129 108 228 108z" />
    <glyph glyph-name="hcircumflex" unicode="&#x125;" horiz-adv-x="806" 
d="M168 909l-80 -89h-172l151 168h206l150 -168h-174zM495 574c161 0 248 -103 248 -248v-326h-197v313c0 72 -41 114 -116 114c-65 0 -121 -31 -163 -99v-328h-197v554v186h197v-198v-76c47 69 129 108 228 108z" />
    <glyph glyph-name="i" unicode="i" horiz-adv-x="337" 
d="M169 610c-67 0 -114 37 -114 93s47 93 114 93c66 0 113 -37 113 -93s-47 -93 -113 -93zM269 554v-554h-198v554h198z" />
    <glyph glyph-name="dotlessi" unicode="&#x131;" horiz-adv-x="340" 
d="M269 554v-554h-198v554h198z" />
    <glyph glyph-name="iacute" unicode="&#xed;" horiz-adv-x="340" 
d="M437 802l-237 -168h-145l137 168h245zM269 554v-554h-198v554h198z" />
    <glyph glyph-name="ibreve" unicode="&#x12d;" horiz-adv-x="340" 
d="M372 802c0 -65 -49 -176 -201 -176c-153 0 -202 111 -202 176h118c4 -35 32 -70 84 -70c50 0 79 35 82 70h119zM269 554v-554h-198v554h198z" />
    <glyph glyph-name="icircumflex" unicode="&#xee;" horiz-adv-x="340" 
d="M-83 634h172l80 89l81 -89h174l-150 168h-206zM269 554v-554h-198v554h198z" />
    <glyph glyph-name="idieresis" unicode="&#xef;" horiz-adv-x="340" 
d="M30 633c-55 0 -94 32 -94 80s39 79 94 79c54 0 94 -31 94 -79s-40 -80 -94 -80zM311 633c-55 0 -94 32 -94 80s39 79 94 79c54 0 94 -31 94 -79s-40 -80 -94 -80zM269 554v-554h-198v554h198z" />
    <glyph glyph-name="igrave" unicode="&#xec;" horiz-adv-x="340" 
d="M-96 802h245l137 -168h-145zM269 554v-554h-198v554h198z" />
    <glyph glyph-name="ij" unicode="&#x133;" horiz-adv-x="675" 
d="M169 610c-67 0 -114 37 -114 93s47 93 114 93c66 0 113 -37 113 -93s-47 -93 -113 -93zM506 610c-67 0 -114 37 -114 93s47 93 114 93c66 0 113 -37 113 -93s-47 -93 -113 -93zM269 554v-554h-198v554h198zM406 554h198v-555c0 -137 -88 -220 -223 -220
c-43 0 -94 9 -137 24l31 126c20 -7 40 -11 59 -11c42 0 72 26 72 75v561z" />
    <glyph glyph-name="imacron" unicode="&#x12b;" horiz-adv-x="340" 
d="M-62 781h465v-133h-465v133zM269 554v-554h-198v554h198z" />
    <glyph glyph-name="iogonek" unicode="&#x12f;" horiz-adv-x="337" 
d="M169 610c-67 0 -114 37 -114 93s47 93 114 93c66 0 113 -37 113 -93s-47 -93 -113 -93zM291 -152l32 -40c-20 -27 -63 -61 -141 -61c-81 0 -160 38 -160 119c0 57 38 110 115 134h-66v554h198v-554h-1c-54 -21 -112 -68 -112 -121c0 -36 29 -58 67 -58c27 0 51 10 68 27z
" />
    <glyph glyph-name="itilde" unicode="&#x129;" horiz-adv-x="340" 
d="M373 818l79 -121c-34 -38 -94 -70 -164 -70c-91 0 -144 50 -219 50c-47 0 -73 -18 -102 -45l-78 121c33 38 94 70 165 70c90 0 141 -49 218 -49c46 0 76 17 101 44zM269 554v-554h-198v554h198z" />
    <glyph glyph-name="j" unicode="j" horiz-adv-x="337" 
d="M169 610c-67 0 -114 37 -114 93s47 93 114 93c66 0 113 -37 113 -93s-47 -93 -113 -93zM69 554h198v-555c0 -137 -88 -220 -223 -220c-43 0 -94 9 -137 24l31 126c20 -7 40 -11 59 -11c42 0 72 26 72 75v561z" />
    <glyph glyph-name="uni0237" unicode="&#x237;" horiz-adv-x="338" 
d="M69 554h198v-555c0 -137 -88 -220 -223 -220c-43 0 -94 9 -137 24l31 126c20 -7 40 -11 59 -11c42 0 72 26 72 75v561z" />
    <glyph glyph-name="jcircumflex" unicode="&#x135;" horiz-adv-x="463" 
d="M-100 634h173l79 89l82 -89h173l-150 168h-206zM70 554h197v-555c0 -137 -88 -220 -221 -220c-45 0 -96 9 -139 24l27 116c20 -7 42 -12 66 -12c39 0 70 27 70 76v571z" />
    <glyph glyph-name="k" unicode="k" horiz-adv-x="749" 
d="M544 0l-167 224l-110 -98v-126h-197v740h197v-429l254 243h221l-231 -224l245 -330h-212z" />
    <glyph glyph-name="kcommaaccent" unicode="&#x137;" horiz-adv-x="749" 
d="M511 330l245 -330h-212l-167 224l-110 -98v-126h-197v740h197v-429l254 243h221zM391 -52c74 0 120 -58 120 -126c0 -74 -49 -180 -156 -242l-40 56c50 37 84 73 97 120c-4 -5 -13 -7 -28 -7c-58 0 -105 42 -105 100c0 55 47 99 112 99z" />
    <glyph glyph-name="kgreenlandic" unicode="&#x138;" horiz-adv-x="749" 
d="M544 0l-167 224l-110 -98v-126h-197v554h197v-243l254 243h221l-231 -224l245 -330h-212z" />
    <glyph glyph-name="l" unicode="l" horiz-adv-x="340" 
d="M269 0h-198v740h198v-740z" />
    <glyph glyph-name="lacute" unicode="&#x13a;" horiz-adv-x="340" 
d="M437 988l-237 -168h-145l137 168h245zM269 0h-198v740h198v-740z" />
    <glyph glyph-name="lcaron" unicode="&#x13e;" horiz-adv-x="520" 
d="M269 0h-198v740h198v-740zM423 713c74 0 118 -58 118 -123c0 -77 -47 -174 -154 -236l-37 55c47 36 80 72 94 117c-4 -4 -12 -7 -27 -7c-58 0 -105 42 -105 97s47 97 111 97z" />
    <glyph glyph-name="lcommaaccent" unicode="&#x13c;" horiz-adv-x="340" 
d="M269 0h-198v740h198v-740zM171 -52c74 0 120 -58 120 -126c0 -74 -49 -180 -156 -242l-40 56c50 37 84 73 97 120c-4 -5 -13 -7 -28 -7c-58 0 -105 42 -105 100c0 55 47 99 112 99z" />
    <glyph glyph-name="ldot" unicode="&#x140;" horiz-adv-x="524" 
d="M269 0h-198v740h198v-740zM431 307c-68 0 -115 43 -115 100s47 100 115 100c67 0 114 -43 114 -100s-47 -100 -114 -100z" />
    <glyph glyph-name="lslash" unicode="&#x142;" horiz-adv-x="427" 
d="M417 540v-128l-106 -45v-367h-197v283l-104 -45v129l104 44v329h197v-246z" />
    <glyph glyph-name="m" unicode="m" horiz-adv-x="1235" 
d="M936 574c160 0 236 -106 236 -248v-326h-196v315c0 69 -36 112 -109 112c-63 0 -112 -34 -148 -99v-2v-223l1 -103h-197v315c0 69 -36 112 -109 112c-63 0 -111 -33 -147 -97v-330h-197v554h197v-90c45 71 121 110 216 110c116 0 188 -56 219 -141c37 82 119 141 234 141
z" />
    <glyph glyph-name="n" unicode="n" horiz-adv-x="806" 
d="M267 0h-197v554h197v-88c47 69 129 108 228 108c161 0 248 -103 248 -248v-326h-197v313c0 72 -41 114 -116 114c-65 0 -121 -31 -163 -99v-328z" />
    <glyph glyph-name="nacute" unicode="&#x144;" horiz-adv-x="806" 
d="M673 802l-237 -168h-145l137 168h245zM267 0h-197v554h197v-88c47 69 129 108 228 108c161 0 248 -103 248 -248v-326h-197v313c0 72 -41 114 -116 114c-65 0 -121 -31 -163 -99v-328z" />
    <glyph glyph-name="napostrophe" unicode="&#x149;" horiz-adv-x="1015" 
d="M131 718c75 0 120 -58 120 -126c0 -74 -49 -181 -155 -242l-40 55c50 38 83 73 97 120c-5 -5 -13 -7 -28 -7c-59 0 -106 43 -106 100s47 100 112 100zM476 0h-197v554h197v-91c52 72 129 111 228 111c161 0 248 -103 248 -248v-326h-197v315c0 71 -41 116 -117 116
c-65 0 -120 -32 -162 -100v-331z" />
    <glyph glyph-name="ncaron" unicode="&#x148;" horiz-adv-x="806" 
d="M153 802l151 -168h206l150 168h-172l-81 -89l-81 89h-173zM267 0h-197v554h197v-88c47 69 129 108 228 108c161 0 248 -103 248 -248v-326h-197v313c0 72 -41 114 -116 114c-65 0 -121 -31 -163 -99v-328z" />
    <glyph glyph-name="ncommaaccent" unicode="&#x146;" horiz-adv-x="806" 
d="M267 0h-197v554h197v-88c47 69 129 108 228 108c161 0 248 -103 248 -248v-326h-197v313c0 72 -41 114 -116 114c-65 0 -121 -31 -163 -99v-328zM406 -52c74 0 120 -58 120 -126c0 -74 -49 -180 -156 -242l-40 56c50 37 84 73 97 120c-4 -5 -13 -7 -28 -7
c-58 0 -105 42 -105 100c0 55 47 99 112 99z" />
    <glyph glyph-name="eng" unicode="&#x14b;" horiz-adv-x="806" 
d="M495 574c161 0 248 -103 248 -248v-309v-18c0 -137 -89 -220 -225 -220c-45 0 -95 9 -138 24l30 125c20 -6 41 -11 62 -11c46 0 74 26 74 72v166v158c0 72 -41 114 -116 114c-65 0 -121 -31 -163 -99v-328h-197v554h197v-88c47 69 129 108 228 108z" />
    <glyph glyph-name="ntilde" unicode="&#xf1;" horiz-adv-x="806" 
d="M609 818l79 -121c-34 -38 -94 -70 -164 -70c-91 0 -144 50 -219 50c-47 0 -73 -18 -102 -45l-78 121c33 38 94 70 165 70c90 0 141 -49 218 -49c46 0 76 17 101 44zM267 0h-197v554h197v-88c47 69 129 108 228 108c161 0 248 -103 248 -248v-326h-197v313
c0 72 -41 114 -116 114c-65 0 -121 -31 -163 -99v-328z" />
    <glyph glyph-name="o" unicode="o" horiz-adv-x="799" 
d="M400 -23c-223 0 -363 115 -363 300c0 186 140 299 363 299c222 0 362 -113 362 -299c0 -185 -140 -300 -362 -300zM400 129c101 0 174 51 174 148c0 98 -73 148 -174 148s-174 -50 -174 -148c0 -97 73 -148 174 -148z" />
    <glyph glyph-name="oacute" unicode="&#xf3;" horiz-adv-x="799" 
d="M666 802l-237 -168h-145l137 168h245zM400 -23c-223 0 -363 115 -363 300c0 186 140 299 363 299c222 0 362 -113 362 -299c0 -185 -140 -300 -362 -300zM400 129c101 0 174 51 174 148c0 98 -73 148 -174 148s-174 -50 -174 -148c0 -97 73 -148 174 -148z" />
    <glyph glyph-name="obreve" unicode="&#x14f;" horiz-adv-x="799" 
d="M602 802c0 -65 -49 -176 -201 -176c-153 0 -202 111 -202 176h118c4 -35 32 -70 84 -70c50 0 79 35 82 70h119zM400 -23c-223 0 -363 115 -363 300c0 186 140 299 363 299c222 0 362 -113 362 -299c0 -185 -140 -300 -362 -300zM400 129c101 0 174 51 174 148
c0 98 -73 148 -174 148s-174 -50 -174 -148c0 -97 73 -148 174 -148z" />
    <glyph glyph-name="ocircumflex" unicode="&#xf4;" horiz-adv-x="799" 
d="M146 634h172l80 89l81 -89h174l-150 168h-206zM400 -23c-223 0 -363 115 -363 300c0 186 140 299 363 299c222 0 362 -113 362 -299c0 -185 -140 -300 -362 -300zM400 129c101 0 174 51 174 148c0 98 -73 148 -174 148s-174 -50 -174 -148c0 -97 73 -148 174 -148z" />
    <glyph glyph-name="odieresis" unicode="&#xf6;" horiz-adv-x="799" 
d="M259 633c-55 0 -94 32 -94 80s39 79 94 79c54 0 94 -31 94 -79s-40 -80 -94 -80zM540 633c-55 0 -94 32 -94 80s39 79 94 79c54 0 94 -31 94 -79s-40 -80 -94 -80zM400 -23c-223 0 -363 115 -363 300c0 186 140 299 363 299c222 0 362 -113 362 -299
c0 -185 -140 -300 -362 -300zM400 129c101 0 174 51 174 148c0 98 -73 148 -174 148s-174 -50 -174 -148c0 -97 73 -148 174 -148z" />
    <glyph glyph-name="ograve" unicode="&#xf2;" horiz-adv-x="799" 
d="M134 802h245l137 -168h-145zM400 -23c-223 0 -363 115 -363 300c0 186 140 299 363 299c222 0 362 -113 362 -299c0 -185 -140 -300 -362 -300zM400 129c101 0 174 51 174 148c0 98 -73 148 -174 148s-174 -50 -174 -148c0 -97 73 -148 174 -148z" />
    <glyph glyph-name="ohungarumlaut" unicode="&#x151;" horiz-adv-x="799" 
d="M494 802l-165 -168h-172l164 168h173zM735 802l-165 -168h-172l165 168h172zM400 -23c-223 0 -363 115 -363 300c0 186 140 299 363 299c222 0 362 -113 362 -299c0 -185 -140 -300 -362 -300zM400 129c101 0 174 51 174 148c0 98 -73 148 -174 148s-174 -50 -174 -148
c0 -97 73 -148 174 -148z" />
    <glyph glyph-name="omacron" unicode="&#x14d;" horiz-adv-x="799" 
d="M167 781h465v-133h-465v133zM400 -23c-223 0 -363 115 -363 300c0 186 140 299 363 299c222 0 362 -113 362 -299c0 -185 -140 -300 -362 -300zM400 129c101 0 174 51 174 148c0 98 -73 148 -174 148s-174 -50 -174 -148c0 -97 73 -148 174 -148z" />
    <glyph glyph-name="oslash" unicode="&#xf8;" horiz-adv-x="799" 
d="M611 531c96 -49 151 -138 151 -254c0 -185 -140 -300 -362 -300c-50 0 -96 6 -137 17l-58 -91h-107l81 125c-90 50 -142 137 -142 249c0 186 140 299 363 299c45 0 87 -4 124 -13l58 88h106zM226 277c0 -46 16 -82 45 -107l163 253c-11 1 -22 2 -34 2
c-101 0 -174 -50 -174 -148zM400 129c101 0 174 51 174 148c0 51 -20 89 -54 114l-167 -258c15 -3 30 -4 47 -4z" />
    <glyph glyph-name="oslashacute" unicode="&#x1ff;" horiz-adv-x="799" 
d="M659 802l-237 -168h-145l137 168h245zM611 531c96 -49 151 -138 151 -254c0 -185 -140 -300 -362 -300c-50 0 -96 6 -137 17l-58 -91h-107l81 125c-90 50 -142 137 -142 249c0 186 140 299 363 299c45 0 87 -4 124 -13l58 88h106zM226 277c0 -46 16 -82 45 -107l163 253
c-11 1 -22 2 -34 2c-101 0 -174 -50 -174 -148zM400 129c101 0 174 51 174 148c0 51 -20 89 -54 114l-167 -258c15 -3 30 -4 47 -4z" />
    <glyph glyph-name="otilde" unicode="&#xf5;" horiz-adv-x="799" 
d="M602 818l79 -121c-34 -38 -94 -70 -164 -70c-91 0 -144 50 -219 50c-47 0 -73 -18 -102 -45l-78 121c33 38 94 70 165 70c90 0 141 -49 218 -49c46 0 76 17 101 44zM400 -23c-223 0 -363 115 -363 300c0 186 140 299 363 299c222 0 362 -113 362 -299
c0 -185 -140 -300 -362 -300zM400 129c101 0 174 51 174 148c0 98 -73 148 -174 148s-174 -50 -174 -148c0 -97 73 -148 174 -148z" />
    <glyph glyph-name="oe" unicode="&#x153;" horiz-adv-x="1306" 
d="M761 235c16 -84 83 -118 195 -118c89 0 142 20 197 60l99 -102c-79 -70 -181 -98 -307 -98c-122 0 -217 34 -280 90c-61 -55 -151 -90 -265 -90c-223 0 -363 115 -363 300c0 186 140 300 363 300c114 0 203 -35 264 -89c61 55 152 89 267 89c199 0 342 -100 342 -296
c0 -22 -2 -35 -6 -46h-506zM932 439c-85 0 -144 -32 -166 -99l325 1c-21 66 -74 98 -159 98zM400 130c101 0 174 50 174 147s-73 148 -174 148s-174 -51 -174 -148s73 -147 174 -147z" />
    <glyph glyph-name="p" unicode="p" horiz-adv-x="827" 
d="M495 -20c-101 0 -179 39 -228 102v-282h-197v754h197v-81c49 62 127 102 228 102c174 0 294 -114 294 -298c0 -183 -120 -297 -294 -297zM440 424c-67 0 -128 -23 -172 -79v-135c44 -56 105 -79 172 -79c104 0 162 54 162 146c0 93 -58 147 -162 147z" />
    <glyph glyph-name="thorn" unicode="&#xfe;" horiz-adv-x="827" 
d="M495 574c174 0 294 -114 294 -297s-120 -298 -294 -298c-101 0 -179 40 -228 102v-281h-197v940h197v-267c49 62 127 101 228 101zM440 131c104 0 162 53 162 146c0 92 -58 146 -162 146c-67 0 -128 -22 -172 -79v-134c44 -57 105 -79 172 -79z" />
    <glyph glyph-name="q" unicode="q" horiz-adv-x="827" 
d="M331 -20c-174 0 -294 114 -294 297c0 184 120 298 294 298c101 0 180 -40 228 -102v81h198v-754h-198v282c-48 -63 -127 -102 -228 -102zM386 424c-104 0 -162 -54 -162 -147c0 -92 58 -146 162 -146c67 0 129 23 173 79v135c-44 56 -106 79 -173 79z" />
    <glyph glyph-name="r" unicode="r" horiz-adv-x="516" 
d="M267 0h-197v554h197v-103c46 78 133 116 232 116v-164c-118 0 -203 -45 -232 -136v-267z" />
    <glyph glyph-name="racute" unicode="&#x155;" horiz-adv-x="516" 
d="M555 802l-237 -168h-145l137 168h245zM267 0h-197v554h197v-103c46 78 133 116 232 116v-164c-118 0 -203 -45 -232 -136v-267z" />
    <glyph glyph-name="rcaron" unicode="&#x159;" horiz-adv-x="516" 
d="M35 802l151 -168h206l150 168h-172l-81 -89l-81 89h-173zM267 0h-197v554h197v-103c46 78 133 116 232 116v-164c-118 0 -203 -45 -232 -136v-267z" />
    <glyph glyph-name="rcommaaccent" unicode="&#x157;" horiz-adv-x="516" 
d="M267 0h-197v554h197v-103c46 78 133 116 232 116v-164c-118 0 -203 -45 -232 -136v-267zM170 -52c74 0 120 -58 120 -126c0 -74 -49 -180 -156 -242l-40 56c50 37 84 73 97 120c-4 -5 -13 -7 -28 -7c-58 0 -105 42 -105 100c0 55 47 99 112 99z" />
    <glyph glyph-name="s" unicode="s" horiz-adv-x="722" 
d="M383 357c176 -10 311 -61 311 -183c0 -109 -104 -197 -320 -197c-148 0 -272 45 -350 103l86 107c60 -44 153 -76 270 -76c78 0 130 12 130 45c0 32 -47 44 -150 50c-160 11 -314 55 -314 181c0 113 115 190 321 190c120 0 230 -32 303 -76l-84 -112
c-56 34 -131 55 -224 55c-61 0 -132 -9 -132 -43c0 -33 59 -39 153 -44z" />
    <glyph glyph-name="sacute" unicode="&#x15b;" horiz-adv-x="722" 
d="M632 802l-237 -168h-145l137 168h245zM383 357c176 -10 311 -61 311 -183c0 -109 -104 -197 -320 -197c-148 0 -272 45 -350 103l86 107c60 -44 153 -76 270 -76c78 0 130 12 130 45c0 32 -47 44 -150 50c-160 11 -314 55 -314 181c0 113 115 190 321 190
c120 0 230 -32 303 -76l-84 -112c-56 34 -131 55 -224 55c-61 0 -132 -9 -132 -43c0 -33 59 -39 153 -44z" />
    <glyph glyph-name="scaron" unicode="&#x161;" horiz-adv-x="722" 
d="M112 802l151 -168h206l150 168h-172l-81 -89l-81 89h-173zM383 357c176 -10 311 -61 311 -183c0 -109 -104 -197 -320 -197c-148 0 -272 45 -350 103l86 107c60 -44 153 -76 270 -76c78 0 130 12 130 45c0 32 -47 44 -150 50c-160 11 -314 55 -314 181
c0 113 115 190 321 190c120 0 230 -32 303 -76l-84 -112c-56 34 -131 55 -224 55c-61 0 -132 -9 -132 -43c0 -33 59 -39 153 -44z" />
    <glyph glyph-name="scedilla" unicode="&#x15f;" horiz-adv-x="722" 
d="M383 357c176 -10 311 -61 311 -183c0 -109 -104 -197 -320 -197c-148 0 -272 45 -350 103l86 107c60 -44 153 -76 270 -76c78 0 130 12 130 45c0 32 -47 44 -150 50c-160 11 -314 55 -314 181c0 113 115 190 321 190c120 0 230 -32 303 -76l-84 -112
c-56 34 -131 55 -224 55c-61 0 -132 -9 -132 -43c0 -33 59 -39 153 -44zM452 -60l-147 -162l-124 33l101 154z" />
    <glyph glyph-name="scircumflex" unicode="&#x15d;" horiz-adv-x="722" 
d="M112 634h172l80 89l81 -89h174l-150 168h-206zM383 357c176 -10 311 -61 311 -183c0 -109 -104 -197 -320 -197c-148 0 -272 45 -350 103l86 107c60 -44 153 -76 270 -76c78 0 130 12 130 45c0 32 -47 44 -150 50c-160 11 -314 55 -314 181c0 113 115 190 321 190
c120 0 230 -32 303 -76l-84 -112c-56 34 -131 55 -224 55c-61 0 -132 -9 -132 -43c0 -33 59 -39 153 -44z" />
    <glyph glyph-name="scommaaccent" unicode="&#x219;" horiz-adv-x="722" 
d="M383 357c176 -10 311 -61 311 -183c0 -109 -104 -197 -320 -197c-148 0 -272 45 -350 103l86 107c60 -44 153 -76 270 -76c78 0 130 12 130 45c0 32 -47 44 -150 50c-160 11 -314 55 -314 181c0 113 115 190 321 190c120 0 230 -32 303 -76l-84 -112
c-56 34 -131 55 -224 55c-61 0 -132 -9 -132 -43c0 -33 59 -39 153 -44zM367 -52c74 0 120 -58 120 -126c0 -74 -49 -180 -156 -242l-40 56c50 37 84 73 97 120c-4 -5 -13 -7 -28 -7c-58 0 -105 42 -105 100c0 55 47 99 112 99z" />
    <glyph glyph-name="germandbls" unicode="&#xdf;" horiz-adv-x="826" 
d="M357 136c28 -9 58 -14 91 -14c93 0 139 38 139 101s-46 101 -142 101h-58v120h33c85 0 132 35 132 93c0 64 -56 91 -130 91c-97 0 -155 -57 -155 -154v-474h-197v447c0 177 116 313 352 313c195 0 326 -92 326 -209c0 -79 -63 -151 -171 -160c114 -8 212 -77 212 -188
c0 -117 -108 -213 -287 -213c-55 0 -113 9 -168 23z" />
    <glyph glyph-name="t" unicode="t" horiz-adv-x="552" 
d="M500 162l33 -129c-50 -34 -128 -54 -195 -54c-126 0 -221 69 -221 203v233h-98v139h98v129h197v-129h213v-139h-213v-200c0 -50 37 -79 90 -79c33 0 64 11 96 26z" />
    <glyph glyph-name="tbar" unicode="&#x167;" horiz-adv-x="552" 
d="M500 162l33 -129c-50 -34 -128 -54 -195 -54c-126 0 -221 69 -221 203v92h-64v77h64v64h-98v139h98v129h197v-129h213v-139h-213v-64h176v-77h-176v-59c0 -50 37 -79 90 -79c33 0 64 11 96 26z" />
    <glyph glyph-name="tcaron" unicode="&#x165;" horiz-adv-x="562" 
d="M433 749c-58 0 -105 43 -105 98s47 98 110 98c75 0 119 -59 119 -124c0 -77 -48 -174 -154 -236l-37 55c46 36 80 72 93 117c-4 -5 -12 -8 -26 -8zM404 136c33 0 64 11 96 26l33 -129c-50 -34 -128 -54 -195 -54c-126 0 -221 69 -221 203v233h-98v139h98v129h197v-129
h213v-139h-213v-200c0 -50 37 -79 90 -79z" />
    <glyph glyph-name="uni0163" unicode="&#x163;" horiz-adv-x="552" 
d="M338 -21c-126 0 -221 69 -221 203v233h-98v139h98v129h197v-129h213v-139h-213v-200c0 -50 37 -79 90 -79c33 0 64 11 96 26l33 -129c-50 -34 -128 -54 -195 -54zM139 -189l101 154l170 -25l-147 -162z" />
    <glyph glyph-name="uni021B" unicode="&#x21b;" horiz-adv-x="552" 
d="M533 33c-50 -34 -128 -54 -195 -54c-126 0 -221 69 -221 203v233h-98v139h98v129h197v-129h213v-139h-213v-200c0 -50 37 -79 90 -79c33 0 64 11 96 26zM325 -52c74 0 120 -58 120 -126c0 -74 -49 -180 -156 -242l-40 56c50 37 84 73 97 120c-4 -5 -13 -7 -28 -7
c-58 0 -105 42 -105 100c0 55 47 99 112 99z" />
    <glyph glyph-name="u" unicode="u" horiz-adv-x="806" 
d="M539 554h197v-554h-197v88c-47 -69 -129 -108 -228 -108c-161 0 -248 103 -248 248v326h197v-313c0 -72 41 -114 116 -114c66 0 121 31 163 99v328z" />
    <glyph glyph-name="uacute" unicode="&#xfa;" horiz-adv-x="806" 
d="M659 802l-237 -168h-145l137 168h245zM539 554h197v-554h-197v88c-47 -69 -129 -108 -228 -108c-161 0 -248 103 -248 248v326h197v-313c0 -72 41 -114 116 -114c66 0 121 31 163 99v328z" />
    <glyph glyph-name="ubreve" unicode="&#x16d;" horiz-adv-x="806" 
d="M594 802c0 -65 -49 -176 -201 -176c-153 0 -202 111 -202 176h118c4 -35 32 -70 84 -70c50 0 79 35 82 70h119zM539 554h197v-554h-197v88c-47 -69 -129 -108 -228 -108c-161 0 -248 103 -248 248v326h197v-313c0 -72 41 -114 116 -114c66 0 121 31 163 99v328z" />
    <glyph glyph-name="ucircumflex" unicode="&#xfb;" horiz-adv-x="806" 
d="M139 634h172l80 89l81 -89h174l-150 168h-206zM539 554h197v-554h-197v88c-47 -69 -129 -108 -228 -108c-161 0 -248 103 -248 248v326h197v-313c0 -72 41 -114 116 -114c66 0 121 31 163 99v328z" />
    <glyph glyph-name="udieresis" unicode="&#xfc;" horiz-adv-x="806" 
d="M252 633c-55 0 -94 32 -94 80s39 79 94 79c54 0 94 -31 94 -79s-40 -80 -94 -80zM533 633c-55 0 -94 32 -94 80s39 79 94 79c54 0 94 -31 94 -79s-40 -80 -94 -80zM539 554h197v-554h-197v88c-47 -69 -129 -108 -228 -108c-161 0 -248 103 -248 248v326h197v-313
c0 -72 41 -114 116 -114c66 0 121 31 163 99v328z" />
    <glyph glyph-name="ugrave" unicode="&#xf9;" horiz-adv-x="806" 
d="M126 802h245l137 -168h-145zM539 554h197v-554h-197v88c-47 -69 -129 -108 -228 -108c-161 0 -248 103 -248 248v326h197v-313c0 -72 41 -114 116 -114c66 0 121 31 163 99v328z" />
    <glyph glyph-name="uhungarumlaut" unicode="&#x171;" horiz-adv-x="806" 
d="M487 802l-165 -168h-172l164 168h173zM728 802l-165 -168h-172l165 168h172zM539 554h197v-554h-197v88c-47 -69 -129 -108 -228 -108c-161 0 -248 103 -248 248v326h197v-313c0 -72 41 -114 116 -114c66 0 121 31 163 99v328z" />
    <glyph glyph-name="umacron" unicode="&#x16b;" horiz-adv-x="806" 
d="M160 781h465v-133h-465v133zM539 554h197v-554h-197v88c-47 -69 -129 -108 -228 -108c-161 0 -248 103 -248 248v326h197v-313c0 -72 41 -114 116 -114c66 0 121 31 163 99v328z" />
    <glyph glyph-name="uogonek" unicode="&#x173;" horiz-adv-x="806" 
d="M743 -152l32 -40c-20 -27 -63 -61 -141 -61c-81 0 -160 38 -160 119c0 57 38 110 115 134h-50v88c-47 -69 -129 -108 -228 -108c-161 0 -248 103 -248 248v326h197v-313c0 -72 41 -114 116 -114c66 0 121 31 163 99v328h197v-554h-16c-54 -21 -112 -68 -112 -121
c0 -36 29 -58 67 -58c27 0 51 10 68 27z" />
    <glyph glyph-name="uring" unicode="&#x16f;" horiz-adv-x="806" 
d="M392 623c-97 0 -163 42 -163 120s66 122 163 122c96 0 163 -44 163 -122s-67 -120 -163 -120zM337 743c0 -31 22 -50 55 -50s55 19 55 50s-22 50 -55 50s-55 -19 -55 -50zM539 554h197v-554h-197v88c-47 -69 -129 -108 -228 -108c-161 0 -248 103 -248 248v326h197v-313
c0 -72 41 -114 116 -114c66 0 121 31 163 99v328z" />
    <glyph glyph-name="utilde" unicode="&#x169;" horiz-adv-x="806" 
d="M595 818l79 -121c-34 -38 -94 -70 -164 -70c-91 0 -144 50 -219 50c-47 0 -73 -18 -102 -45l-78 121c33 38 94 70 165 70c90 0 141 -49 218 -49c46 0 76 17 101 44zM539 554h197v-554h-197v88c-47 -69 -129 -108 -228 -108c-161 0 -248 103 -248 248v326h197v-313
c0 -72 41 -114 116 -114c66 0 121 31 163 99v328z" />
    <glyph glyph-name="v" unicode="v" horiz-adv-x="750" 
d="M748 554l-271 -554h-203l-271 554h207l167 -372l167 372h204z" />
    <glyph glyph-name="w" unicode="w" horiz-adv-x="1047" 
d="M848 554h187l-197 -554h-188l-126 368l-127 -368h-189l-196 554h190l115 -354l121 354h174l121 -354z" />
    <glyph glyph-name="wacute" unicode="&#x1e83;" horiz-adv-x="1047" 
d="M792 802l-237 -168h-145l137 168h245zM848 554h187l-197 -554h-188l-126 368l-127 -368h-189l-196 554h190l115 -354l121 354h174l121 -354z" />
    <glyph glyph-name="wcircumflex" unicode="&#x175;" horiz-adv-x="1047" 
d="M272 634h172l80 89l81 -89h174l-150 168h-206zM848 554h187l-197 -554h-188l-126 368l-127 -368h-189l-196 554h190l115 -354l121 354h174l121 -354z" />
    <glyph glyph-name="wdieresis" unicode="&#x1e85;" horiz-adv-x="1047" 
d="M385 633c-55 0 -94 32 -94 80s39 79 94 79c54 0 94 -31 94 -79s-40 -80 -94 -80zM666 633c-55 0 -94 32 -94 80s39 79 94 79c54 0 94 -31 94 -79s-40 -80 -94 -80zM848 554h187l-197 -554h-188l-126 368l-127 -368h-189l-196 554h190l115 -354l121 354h174l121 -354z" />
    <glyph glyph-name="wgrave" unicode="&#x1e81;" horiz-adv-x="1047" 
d="M259 802h245l137 -168h-145zM848 554h187l-197 -554h-188l-126 368l-127 -368h-189l-196 554h190l115 -354l121 354h174l121 -354z" />
    <glyph glyph-name="x" unicode="x" horiz-adv-x="722" 
d="M713 554l-240 -270l247 -284h-223l-140 169l-143 -169h-211l246 281l-241 273h222l136 -162l136 162h211z" />
    <glyph glyph-name="y" unicode="y" horiz-adv-x="741" 
d="M538 554h200l-388 -754h-199l126 231l-274 523h203l169 -344z" />
    <glyph glyph-name="yacute" unicode="&#xfd;" horiz-adv-x="741" 
d="M639 802l-237 -168h-145l137 168h245zM538 554h200l-388 -754h-199l126 231l-274 523h203l169 -344z" />
    <glyph glyph-name="ycircumflex" unicode="&#x177;" horiz-adv-x="741" 
d="M119 634h172l80 89l81 -89h174l-150 168h-206zM538 554h200l-388 -754h-199l126 231l-274 523h203l169 -344z" />
    <glyph glyph-name="ydieresis" unicode="&#xff;" horiz-adv-x="741" 
d="M232 633c-55 0 -94 32 -94 80s39 79 94 79c54 0 94 -31 94 -79s-40 -80 -94 -80zM513 633c-55 0 -94 32 -94 80s39 79 94 79c54 0 94 -31 94 -79s-40 -80 -94 -80zM538 554h200l-388 -754h-199l126 231l-274 523h203l169 -344z" />
    <glyph glyph-name="ygrave" unicode="&#x1ef3;" horiz-adv-x="741" 
d="M106 802h245l137 -168h-145zM538 554h200l-388 -754h-199l126 231l-274 523h203l169 -344z" />
    <glyph glyph-name="z" unicode="z" horiz-adv-x="709" 
d="M658 554v-117l-351 -294h363v-144h-634v118l351 294h-337v143h608z" />
    <glyph glyph-name="zacute" unicode="&#x17a;" horiz-adv-x="709" 
d="M627 802l-237 -168h-145l137 168h245zM658 554v-117l-351 -294h363v-144h-634v118l351 294h-337v143h608z" />
    <glyph glyph-name="zcaron" unicode="&#x17e;" horiz-adv-x="709" 
d="M107 802l151 -168h206l150 168h-172l-81 -89l-81 89h-173zM658 554v-117l-351 -294h363v-144h-634v118l351 294h-337v143h608z" />
    <glyph glyph-name="zdotaccent" unicode="&#x17c;" horiz-adv-x="709" 
d="M360 633c-54 0 -92 30 -92 77c0 49 38 78 92 78s92 -29 92 -78c0 -47 -38 -77 -92 -77zM658 554v-117l-351 -294h363v-144h-634v118l351 294h-337v143h608z" />
    <glyph glyph-name="germandbls.case" horiz-adv-x="890" 
d="M377 138c31 -8 79 -18 125 -18c94 0 143 32 143 93c0 60 -47 93 -144 93h-92v120h67c86 0 134 30 134 83c0 61 -67 82 -143 82c-114 0 -193 -54 -193 -162v-429h-204v409c0 194 148 314 396 314c197 0 347 -74 347 -193c0 -80 -67 -143 -175 -153
c114 -8 216 -65 216 -178c0 -120 -119 -213 -298 -213c-70 0 -146 12 -200 27z" />
    <glyph glyph-name="a.ss01" horiz-adv-x="827" 
d="M331 574c101 0 180 -39 228 -101v81h198v-554h-198v81c-48 -62 -127 -102 -228 -102c-174 0 -294 115 -294 298s120 297 294 297zM386 131c67 0 129 22 173 79v134c-44 57 -106 79 -173 79c-104 0 -162 -54 -162 -146s58 -146 162 -146z" />
    <glyph glyph-name="aacute.ss01" horiz-adv-x="827" 
d="M689 802l-237 -168h-145l137 168h245zM331 574c101 0 180 -39 228 -101v81h198v-554h-198v81c-48 -62 -127 -102 -228 -102c-174 0 -294 115 -294 298s120 297 294 297zM386 131c67 0 129 22 173 79v134c-44 57 -106 79 -173 79c-104 0 -162 -54 -162 -146
s58 -146 162 -146z" />
    <glyph glyph-name="abreve.ss01" horiz-adv-x="827" 
d="M625 802c0 -65 -49 -176 -201 -176c-153 0 -202 111 -202 176h118c4 -35 32 -70 84 -70c50 0 79 35 82 70h119zM331 574c101 0 180 -39 228 -101v81h198v-554h-198v81c-48 -62 -127 -102 -228 -102c-174 0 -294 115 -294 298s120 297 294 297zM386 131
c67 0 129 22 173 79v134c-44 57 -106 79 -173 79c-104 0 -162 -54 -162 -146s58 -146 162 -146z" />
    <glyph glyph-name="acircumflex.ss01" horiz-adv-x="827" 
d="M169 634h172l80 89l81 -89h174l-150 168h-206zM331 574c101 0 180 -39 228 -101v81h198v-554h-198v81c-48 -62 -127 -102 -228 -102c-174 0 -294 115 -294 298s120 297 294 297zM386 131c67 0 129 22 173 79v134c-44 57 -106 79 -173 79c-104 0 -162 -54 -162 -146
s58 -146 162 -146z" />
    <glyph glyph-name="adieresis.ss01" horiz-adv-x="827" 
d="M282 633c-55 0 -94 32 -94 80s39 79 94 79c54 0 94 -31 94 -79s-40 -80 -94 -80zM563 633c-55 0 -94 32 -94 80s39 79 94 79c54 0 94 -31 94 -79s-40 -80 -94 -80zM331 574c101 0 180 -39 228 -101v81h198v-554h-198v81c-48 -62 -127 -102 -228 -102
c-174 0 -294 115 -294 298s120 297 294 297zM386 131c67 0 129 22 173 79v134c-44 57 -106 79 -173 79c-104 0 -162 -54 -162 -146s58 -146 162 -146z" />
    <glyph glyph-name="agrave.ss01" horiz-adv-x="827" 
d="M157 802h245l137 -168h-145zM331 574c101 0 180 -39 228 -101v81h198v-554h-198v81c-48 -62 -127 -102 -228 -102c-174 0 -294 115 -294 298s120 297 294 297zM386 131c67 0 129 22 173 79v134c-44 57 -106 79 -173 79c-104 0 -162 -54 -162 -146s58 -146 162 -146z" />
    <glyph glyph-name="amacron.ss01" horiz-adv-x="827" 
d="M190 781h465v-133h-465v133zM331 574c101 0 180 -39 228 -101v81h198v-554h-198v81c-48 -62 -127 -102 -228 -102c-174 0 -294 115 -294 298s120 297 294 297zM386 131c67 0 129 22 173 79v134c-44 57 -106 79 -173 79c-104 0 -162 -54 -162 -146s58 -146 162 -146z" />
    <glyph glyph-name="aogonek.ss01" horiz-adv-x="827" 
d="M780 -152l32 -40c-20 -27 -63 -61 -141 -61c-81 0 -160 38 -160 119c0 57 38 110 115 134h-67v81c-48 -62 -127 -102 -228 -102c-174 0 -294 115 -294 298s120 297 294 297c101 0 180 -39 228 -101v81h198v-554c-54 -21 -112 -68 -112 -121c0 -36 29 -58 67 -58
c27 0 51 10 68 27zM559 210v134c-44 57 -106 79 -173 79c-104 0 -162 -54 -162 -146s58 -146 162 -146c67 0 129 22 173 79z" />
    <glyph glyph-name="aring.ss01" horiz-adv-x="827" 
d="M423 623c-97 0 -163 42 -163 120s66 122 163 122c96 0 163 -44 163 -122s-67 -120 -163 -120zM368 743c0 -31 22 -50 55 -50s55 19 55 50s-22 50 -55 50s-55 -19 -55 -50zM331 574c101 0 180 -39 228 -101v81h198v-554h-198v81c-48 -62 -127 -102 -228 -102
c-174 0 -294 115 -294 298s120 297 294 297zM386 131c67 0 129 22 173 79v134c-44 57 -106 79 -173 79c-104 0 -162 -54 -162 -146s58 -146 162 -146z" />
    <glyph glyph-name="aringacute.ss01" horiz-adv-x="827" 
d="M423 623c-97 0 -163 42 -163 120c0 27 8 50 22 68l-4 2l101 136h190l-111 -86c77 -10 128 -52 128 -120c0 -78 -67 -120 -163 -120zM478 743c0 31 -22 50 -55 50s-55 -19 -55 -50s22 -50 55 -50s55 19 55 50zM559 554h198v-554h-198v81c-48 -62 -127 -102 -228 -102
c-174 0 -294 115 -294 298s120 297 294 297c101 0 180 -39 228 -101v81zM559 210v134c-44 57 -106 79 -173 79c-104 0 -162 -54 -162 -146s58 -146 162 -146c67 0 129 22 173 79z" />
    <glyph glyph-name="atilde.ss01" horiz-adv-x="827" 
d="M625 818l79 -121c-34 -38 -94 -70 -164 -70c-91 0 -144 50 -219 50c-47 0 -73 -18 -102 -45l-78 121c33 38 94 70 165 70c90 0 141 -49 218 -49c46 0 76 17 101 44zM331 574c101 0 180 -39 228 -101v81h198v-554h-198v81c-48 -62 -127 -102 -228 -102
c-174 0 -294 115 -294 298s120 297 294 297zM386 131c67 0 129 22 173 79v134c-44 57 -106 79 -173 79c-104 0 -162 -54 -162 -146s58 -146 162 -146z" />
    <glyph glyph-name="a.sc" horiz-adv-x="872" 
d="M662 0l-57 112h-340l-57 -112h-209l331 614h213l330 -614h-211zM333 245h204l-102 201z" />
    <glyph glyph-name="aacute.sc" horiz-adv-x="872" 
d="M703 862l-237 -168h-145l137 168h245zM662 0l-57 112h-340l-57 -112h-209l331 614h213l330 -614h-211zM333 245h204l-102 201z" />
    <glyph glyph-name="abreve.sc" horiz-adv-x="872" 
d="M437 686c-153 0 -202 111 -202 176h118c4 -35 32 -70 84 -70c50 0 79 35 82 70h119c0 -65 -49 -176 -201 -176zM662 0l-57 112h-340l-57 -112h-209l331 614h213l330 -614h-211zM333 245h204l-102 201z" />
    <glyph glyph-name="acircumflex.sc" horiz-adv-x="872" 
d="M435 783l-80 -89h-172l151 168h206l150 -168h-174zM662 0l-57 112h-340l-57 -112h-209l331 614h213l330 -614h-211zM333 245h204l-102 201z" />
    <glyph glyph-name="adieresis.sc" horiz-adv-x="872" 
d="M296 693c-55 0 -94 32 -94 80s39 79 94 79c54 0 94 -31 94 -79s-40 -80 -94 -80zM577 693c-55 0 -94 32 -94 80s39 79 94 79c54 0 94 -31 94 -79s-40 -80 -94 -80zM662 0l-57 112h-340l-57 -112h-209l331 614h213l330 -614h-211zM333 245h204l-102 201z" />
    <glyph glyph-name="agrave.sc" horiz-adv-x="872" 
d="M552 694h-145l-237 168h245zM662 0l-57 112h-340l-57 -112h-209l331 614h213l330 -614h-211zM333 245h204l-102 201z" />
    <glyph glyph-name="amacron.sc" horiz-adv-x="872" 
d="M669 841v-133h-465v133h465zM662 0l-57 112h-340l-57 -112h-209l331 614h213l330 -614h-211zM333 245h204l-102 201z" />
    <glyph glyph-name="aogonek.sc" horiz-adv-x="872" 
d="M896 -152l32 -40c-20 -27 -63 -61 -141 -61c-81 0 -160 38 -160 119c0 57 38 110 115 134h-80l-57 112h-340l-57 -112h-209l331 614h213l330 -614c-54 -21 -112 -68 -112 -121c0 -36 29 -58 67 -58c27 0 51 10 68 27zM333 245h204l-102 201z" />
    <glyph glyph-name="aring.sc" horiz-adv-x="872" 
d="M437 683c-97 0 -163 42 -163 120s66 122 163 122c96 0 163 -44 163 -122s-67 -120 -163 -120zM437 853c-33 0 -55 -19 -55 -50s22 -50 55 -50s55 19 55 50s-22 50 -55 50zM662 0l-57 112h-340l-57 -112h-209l331 614h213l330 -614h-211zM333 245h204l-102 201z" />
    <glyph glyph-name="aringacute.sc" horiz-adv-x="872" 
d="M437 683c-97 0 -163 42 -163 120c0 31 10 56 28 75l97 131h190l-112 -87c74 -10 123 -52 123 -119c0 -78 -67 -120 -163 -120zM492 803c0 31 -22 50 -55 50s-55 -19 -55 -50s22 -50 55 -50s55 19 55 50zM662 0l-57 112h-340l-57 -112h-209l331 614h213l330 -614h-211z
M333 245h204l-102 201z" />
    <glyph glyph-name="atilde.sc" horiz-adv-x="872" 
d="M335 737c-47 0 -73 -18 -102 -45l-78 121c33 38 94 70 165 70c90 0 141 -49 218 -49c46 0 76 17 101 44l79 -121c-34 -38 -94 -70 -164 -70c-91 0 -144 50 -219 50zM662 0l-57 112h-340l-57 -112h-209l331 614h213l330 -614h-211zM333 245h204l-102 201z" />
    <glyph glyph-name="ae.sc" horiz-adv-x="1339" 
d="M802 150h493v-150h-689v115h-301l-98 -115h-222l544 614h96h660v-148h-483v-85h396v-140h-396v-91zM421 250h185v216z" />
    <glyph glyph-name="aeacute.sc" horiz-adv-x="1339" 
d="M1111 862l-237 -168h-145l137 168h245zM802 150h493v-150h-689v115h-301l-98 -115h-222l544 614h96h660v-148h-483v-85h396v-140h-396v-91zM421 250h185v216z" />
    <glyph glyph-name="b.sc" horiz-adv-x="876" 
d="M653 319c99 -7 184 -56 184 -150c0 -104 -101 -169 -259 -169h-499v614h463c158 0 258 -61 258 -159c0 -69 -54 -133 -147 -136zM274 482v-106h234c58 0 96 12 96 53c0 39 -38 53 -96 53h-234zM537 133c60 0 97 16 97 58c0 44 -37 61 -97 61h-263v-119h263z" />
    <glyph glyph-name="c.sc" horiz-adv-x="830" 
d="M452 139c82 0 139 25 187 89l170 -85c-58 -99 -188 -164 -361 -164c-242 0 -407 120 -407 328s165 329 414 329c166 0 295 -68 351 -163l-170 -84c-47 59 -102 86 -184 86c-126 0 -209 -59 -209 -168c0 -108 83 -168 209 -168z" />
    <glyph glyph-name="cacute.sc" horiz-adv-x="830" 
d="M707 863l-237 -168h-145l137 168h245zM452 139c82 0 139 25 187 89l170 -85c-58 -99 -188 -164 -361 -164c-242 0 -407 120 -407 328s165 329 414 329c166 0 295 -68 351 -163l-170 -84c-47 59 -102 86 -184 86c-126 0 -209 -59 -209 -168c0 -108 83 -168 209 -168z" />
    <glyph glyph-name="ccaron.sc" horiz-adv-x="830" 
d="M187 863l151 -168h206l150 168h-172l-81 -89l-81 89h-173zM452 139c82 0 139 25 187 89l170 -85c-58 -99 -188 -164 -361 -164c-242 0 -407 120 -407 328s165 329 414 329c166 0 295 -68 351 -163l-170 -84c-47 59 -102 86 -184 86c-126 0 -209 -59 -209 -168
c0 -108 83 -168 209 -168z" />
    <glyph glyph-name="ccedilla.sc" horiz-adv-x="830" 
d="M452 139c82 0 139 25 187 89l170 -85c-58 -99 -188 -164 -361 -164c-242 0 -407 120 -407 328s165 329 414 329c166 0 295 -68 351 -163l-170 -84c-47 59 -102 86 -184 86c-126 0 -209 -59 -209 -168c0 -108 83 -168 209 -168zM532 -60l-147 -162l-124 33l101 154z" />
    <glyph glyph-name="ccircumflex.sc" horiz-adv-x="830" 
d="M187 695h172l80 89l81 -89h174l-150 168h-206zM452 139c82 0 139 25 187 89l170 -85c-58 -99 -188 -164 -361 -164c-242 0 -407 120 -407 328s165 329 414 329c166 0 295 -68 351 -163l-170 -84c-47 59 -102 86 -184 86c-126 0 -209 -59 -209 -168
c0 -108 83 -168 209 -168z" />
    <glyph glyph-name="cdotaccent.sc" horiz-adv-x="830" 
d="M440 694c-54 0 -92 30 -92 77c0 49 38 78 92 78s92 -29 92 -78c0 -47 -38 -77 -92 -77zM452 139c82 0 139 25 187 89l170 -85c-58 -99 -188 -164 -361 -164c-242 0 -407 120 -407 328s165 329 414 329c166 0 295 -68 351 -163l-170 -84c-47 59 -102 86 -184 86
c-126 0 -209 -59 -209 -168c0 -108 83 -168 209 -168z" />
    <glyph glyph-name="d.sc" horiz-adv-x="887" 
d="M441 614c247 0 404 -113 404 -307c0 -193 -157 -307 -404 -307h-362v614h362zM425 157c133 0 219 51 219 150c0 100 -86 150 -219 150h-149v-300h149z" />
    <glyph glyph-name="eth.sc" horiz-adv-x="914" 
d="M472 614c249 0 401 -113 401 -307c0 -193 -152 -307 -401 -307h-366v258h-86v109h86v247h366zM453 154c133 0 217 51 217 153s-84 153 -217 153h-151v-93h166v-109h-166v-104h151z" />
    <glyph glyph-name="dcaron.sc" horiz-adv-x="887" 
d="M172 862l151 -168h206l150 168h-172l-81 -89l-81 89h-173zM441 614c247 0 404 -113 404 -307c0 -193 -157 -307 -404 -307h-362v614h362zM425 157c133 0 219 51 219 150c0 100 -86 150 -219 150h-149v-300h149z" />
    <glyph glyph-name="dcroat.sc" horiz-adv-x="914" 
d="M472 614c249 0 401 -113 401 -307c0 -193 -152 -307 -401 -307h-366v258h-86v109h86v247h366zM453 154c133 0 217 51 217 153s-84 153 -217 153h-151v-93h166v-109h-166v-104h151z" />
    <glyph glyph-name="e.sc" horiz-adv-x="811" 
d="M274 149h494v-149h-689v614h679v-148h-484v-85h394v-140h-394v-92z" />
    <glyph glyph-name="eacute.sc" horiz-adv-x="811" 
d="M682 862l-237 -168h-145l137 168h245zM274 149h494v-149h-689v614h679v-148h-484v-85h394v-140h-394v-92z" />
    <glyph glyph-name="ebreve.sc" horiz-adv-x="811" 
d="M617 862c0 -65 -49 -176 -201 -176c-153 0 -202 111 -202 176h118c4 -35 32 -70 84 -70c50 0 79 35 82 70h119zM274 149h494v-149h-689v614h679v-148h-484v-85h394v-140h-394v-92z" />
    <glyph glyph-name="ecaron.sc" horiz-adv-x="811" 
d="M162 862l151 -168h206l150 168h-172l-81 -89l-81 89h-173zM274 149h494v-149h-689v614h679v-148h-484v-85h394v-140h-394v-92z" />
    <glyph glyph-name="ecircumflex.sc" horiz-adv-x="811" 
d="M162 694h172l80 89l81 -89h174l-150 168h-206zM274 149h494v-149h-689v614h679v-148h-484v-85h394v-140h-394v-92z" />
    <glyph glyph-name="edieresis.sc" horiz-adv-x="811" 
d="M275 693c-55 0 -94 32 -94 80s39 79 94 79c54 0 94 -31 94 -79s-40 -80 -94 -80zM556 693c-55 0 -94 32 -94 80s39 79 94 79c54 0 94 -31 94 -79s-40 -80 -94 -80zM274 149h494v-149h-689v614h679v-148h-484v-85h394v-140h-394v-92z" />
    <glyph glyph-name="edotaccent.sc" horiz-adv-x="811" 
d="M415 693c-54 0 -92 30 -92 77c0 49 38 78 92 78s92 -29 92 -78c0 -47 -38 -77 -92 -77zM274 149h494v-149h-689v614h679v-148h-484v-85h394v-140h-394v-92z" />
    <glyph glyph-name="egrave.sc" horiz-adv-x="811" 
d="M149 862h245l137 -168h-145zM274 149h494v-149h-689v614h679v-148h-484v-85h394v-140h-394v-92z" />
    <glyph glyph-name="emacron.sc" horiz-adv-x="811" 
d="M183 841h465v-133h-465v133zM274 149h494v-149h-689v614h679v-148h-484v-85h394v-140h-394v-92z" />
    <glyph glyph-name="eogonek.sc" horiz-adv-x="811" 
d="M789 -152l32 -40c-20 -27 -63 -61 -141 -61c-81 0 -160 38 -160 119c0 57 38 110 115 134h-556v614h679v-148h-484v-85h394v-140h-394v-92h494v-149h-2c-54 -21 -112 -68 -112 -121c0 -36 29 -58 67 -58c27 0 51 10 68 27z" />
    <glyph glyph-name="f.sc" horiz-adv-x="780" 
d="M755 461h-478v-100h392v-151h-392v-210h-198v614h676v-153z" />
    <glyph glyph-name="fi.sc" horiz-adv-x="1136" 
d="M755 461h-478v-100h392v-151h-392v-210h-198v614h676v-153zM1057 0h-198v614h198v-614z" />
    <glyph glyph-name="fl.sc" horiz-adv-x="1504" 
d="M755 461h-478v-100h392v-151h-392v-210h-198v614h676v-153zM1057 156h425v-156h-623v614h198v-458z" />
    <glyph glyph-name="g.sc" horiz-adv-x="884" 
d="M837 356v-248c-69 -77 -198 -129 -367 -129c-265 0 -429 119 -429 328s164 329 428 329c160 0 268 -46 344 -109l-145 -107c-56 44 -112 61 -191 61c-154 0 -234 -62 -234 -174s83 -176 234 -176c73 0 132 11 175 47v50h-202v128h387z" />
    <glyph glyph-name="gbreve.sc" horiz-adv-x="884" 
d="M667 863c0 -65 -49 -176 -201 -176c-153 0 -202 111 -202 176h118c4 -35 32 -70 84 -70c50 0 79 35 82 70h119zM837 356v-248c-69 -77 -198 -129 -367 -129c-265 0 -429 119 -429 328s164 329 428 329c160 0 268 -46 344 -109l-145 -107c-56 44 -112 61 -191 61
c-154 0 -234 -62 -234 -174s83 -176 234 -176c73 0 132 11 175 47v50h-202v128h387z" />
    <glyph glyph-name="gcircumflex.sc" horiz-adv-x="884" 
d="M211 695h172l80 89l81 -89h174l-150 168h-206zM837 356v-248c-69 -77 -198 -129 -367 -129c-265 0 -429 119 -429 328s164 329 428 329c160 0 268 -46 344 -109l-145 -107c-56 44 -112 61 -191 61c-154 0 -234 -62 -234 -174s83 -176 234 -176c73 0 132 11 175 47v50
h-202v128h387z" />
    <glyph glyph-name="gcommaaccent.sc" horiz-adv-x="884" 
d="M837 356v-248c-69 -77 -198 -129 -367 -129c-265 0 -429 119 -429 328s164 329 428 329c160 0 268 -46 344 -109l-145 -107c-56 44 -112 61 -191 61c-154 0 -234 -62 -234 -174s83 -176 234 -176c73 0 132 11 175 47v50h-202v128h387zM465 -52c74 0 120 -58 120 -126
c0 -74 -49 -180 -156 -242l-40 56c50 37 84 73 97 120c-4 -5 -13 -7 -28 -7c-58 0 -105 42 -105 100c0 55 47 99 112 99z" />
    <glyph glyph-name="gdotaccent.sc" horiz-adv-x="884" 
d="M464 694c-54 0 -92 30 -92 77c0 49 38 78 92 78s92 -29 92 -78c0 -47 -38 -77 -92 -77zM837 356v-248c-69 -77 -198 -129 -367 -129c-265 0 -429 119 -429 328s164 329 428 329c160 0 268 -46 344 -109l-145 -107c-56 44 -112 61 -191 61c-154 0 -234 -62 -234 -174
s83 -176 234 -176c73 0 132 11 175 47v50h-202v128h387z" />
    <glyph glyph-name="h.sc" horiz-adv-x="921" 
d="M644 614h199v-614h-199v231h-367v-231h-198v614h198v-221h367v221z" />
    <glyph glyph-name="hbar.sc" horiz-adv-x="991" 
d="M970 525v-73h-93v-452h-198v231h-368v-231h-198v452h-93v73h93v89h198v-89h368v89h198v-89h93zM679 393v59h-368v-59h368z" />
    <glyph glyph-name="hcircumflex.sc" horiz-adv-x="921" 
d="M208 695h172l80 89l81 -89h174l-150 168h-206zM644 614h199v-614h-199v231h-367v-231h-198v614h198v-221h367v221z" />
    <glyph glyph-name="i.sc" horiz-adv-x="356" 
d="M277 0h-198v614h198v-614z" />
    <glyph glyph-name="iacute.sc" horiz-adv-x="356" 
d="M444 862l-237 -168h-145l137 168h245zM277 0h-198v614h198v-614z" />
    <glyph glyph-name="ibreve.sc" horiz-adv-x="356" 
d="M380 862c0 -65 -49 -176 -201 -176c-153 0 -202 111 -202 176h118c4 -35 32 -70 84 -70c50 0 79 35 82 70h119zM277 0h-198v614h198v-614z" />
    <glyph glyph-name="icircumflex.sc" horiz-adv-x="356" 
d="M-76 694h172l80 89l81 -89h174l-150 168h-206zM277 0h-198v614h198v-614z" />
    <glyph glyph-name="idieresis.sc" horiz-adv-x="356" 
d="M37 693c-55 0 -94 32 -94 80s39 79 94 79c54 0 94 -31 94 -79s-40 -80 -94 -80zM318 693c-55 0 -94 32 -94 80s39 79 94 79c54 0 94 -31 94 -79s-40 -80 -94 -80zM277 0h-198v614h198v-614z" />
    <glyph glyph-name="i.sc.loclTRK" horiz-adv-x="356" 
d="M177 693c-54 0 -92 30 -92 77c0 49 38 78 92 78s92 -29 92 -78c0 -47 -38 -77 -92 -77zM277 0h-198v614h198v-614z" />
    <glyph glyph-name="igrave.sc" horiz-adv-x="356" 
d="M-89 862h245l137 -168h-145zM277 0h-198v614h198v-614z" />
    <glyph glyph-name="ij.sc" horiz-adv-x="1050" 
d="M277 0h-198v614h198v-614zM500 204c30 -41 69 -64 139 -64c107 0 146 58 146 148v326h198v-341c0 -173 -117 -294 -344 -294c-138 0 -225 43 -285 116z" />
    <glyph glyph-name="imacron.sc" horiz-adv-x="369" 
d="M-48 927h465v-133h-465v133zM286 0h-204v700h204v-700z" />
    <glyph glyph-name="iogonek.sc" horiz-adv-x="369" 
d="M309 -152l32 -40c-20 -27 -63 -61 -141 -61c-81 0 -160 38 -160 119c0 57 38 110 115 134h-73v700h204v-700c-54 -21 -112 -68 -112 -121c0 -36 29 -58 67 -58c27 0 51 10 68 27z" />
    <glyph glyph-name="itilde.sc" horiz-adv-x="369" 
d="M387 964l79 -121c-34 -38 -94 -70 -164 -70c-91 0 -144 50 -219 50c-47 0 -73 -18 -102 -45l-78 121c33 38 94 70 165 70c90 0 141 -49 218 -49c46 0 76 17 101 44zM286 0h-204v700h204v-700z" />
    <glyph glyph-name="j.sc" horiz-adv-x="695" 
d="M144 204c30 -41 69 -64 139 -64c107 0 146 58 146 148v326h198v-341c0 -173 -117 -294 -344 -294c-138 0 -225 43 -285 116z" />
    <glyph glyph-name="jcircumflex.sc" horiz-adv-x="695" 
d="M275 694h172l80 89l81 -89h174l-150 168h-206zM144 204c30 -41 69 -64 139 -64c107 0 146 58 146 148v326h198v-341c0 -173 -117 -294 -344 -294c-138 0 -225 43 -285 116z" />
    <glyph glyph-name="k.sc" horiz-adv-x="846" 
d="M616 0l-206 256l-133 -115v-141h-198v614h198v-271l308 271h247l-278 -245l295 -369h-233z" />
    <glyph glyph-name="kcommaaccent.sc" horiz-adv-x="846" 
d="M554 369l295 -369h-233l-206 256l-133 -115v-141h-198v614h198v-271l308 271h247zM433 -52c74 0 120 -58 120 -126c0 -74 -49 -180 -156 -242l-40 56c50 37 84 73 97 120c-4 -5 -13 -7 -28 -7c-58 0 -105 42 -105 100c0 55 47 99 112 99z" />
    <glyph glyph-name="l.sc" horiz-adv-x="723" 
d="M277 156h425v-156h-623v614h198v-458z" />
    <glyph glyph-name="lacute.sc" horiz-adv-x="723" 
d="M444 862l-237 -168h-145l137 168h245zM277 156h425v-156h-623v614h198v-458z" />
    <glyph glyph-name="lcaron.sc" horiz-adv-x="723" 
d="M491 660c74 0 120 -58 120 -126c0 -74 -49 -180 -156 -242l-40 56c50 37 84 73 97 120c-4 -5 -13 -7 -28 -7c-58 0 -105 42 -105 100c0 55 47 99 112 99zM277 156h425v-156h-623v614h198v-458z" />
    <glyph glyph-name="lcommaaccent.sc" horiz-adv-x="723" 
d="M277 156h425v-156h-623v614h198v-458zM393 -52c74 0 120 -58 120 -126c0 -74 -49 -180 -156 -242l-40 56c50 37 84 73 97 120c-4 -5 -13 -7 -28 -7c-58 0 -105 42 -105 100c0 55 47 99 112 99z" />
    <glyph glyph-name="ldot.sc" horiz-adv-x="723" 
d="M277 151h425v-151h-623v614h198v-463zM477 285c-68 0 -115 43 -115 99s47 100 115 100c67 0 114 -44 114 -100s-47 -99 -114 -99z" />
    <glyph glyph-name="lslash.sc" horiz-adv-x="786" 
d="M340 156h425v-156h-623v192l-106 -51v114l106 50v309h198v-215l186 89v-114l-186 -88v-130z" />
    <glyph glyph-name="m.sc" horiz-adv-x="1050" 
d="M762 614h209v-614h-196v378l-247 -287h-10l-248 287v-378h-191v614h215l233 -280z" />
    <glyph glyph-name="n.sc" horiz-adv-x="921" 
d="M651 614h192v-614h-174l-399 384v-384h-191v614h209l363 -351v351z" />
    <glyph glyph-name="nacute.sc" horiz-adv-x="921" 
d="M728 862l-237 -168h-145l137 168h245zM651 614h192v-614h-174l-399 384v-384h-191v614h209l363 -351v351z" />
    <glyph glyph-name="ncaron.sc" horiz-adv-x="921" 
d="M208 862l151 -168h206l150 168h-172l-81 -89l-81 89h-173zM651 614h192v-614h-174l-399 384v-384h-191v614h209l363 -351v351z" />
    <glyph glyph-name="ncommaaccent.sc" horiz-adv-x="921" 
d="M651 614h192v-614h-174l-399 384v-384h-191v614h209l363 -351v351zM462 -52c74 0 120 -58 120 -126c0 -74 -49 -180 -156 -242l-40 56c50 37 84 73 97 120c-4 -5 -13 -7 -28 -7c-58 0 -105 42 -105 100c0 55 47 99 112 99z" />
    <glyph glyph-name="eng.sc" horiz-adv-x="922" 
d="M843 27c0 -137 -91 -221 -227 -221c-42 0 -89 7 -129 21l27 121c19 -6 36 -9 59 -9c48 0 79 20 79 75v2l-382 368v-384h-191v614h209l363 -351v351h192v-587z" />
    <glyph glyph-name="ntilde.sc" horiz-adv-x="921" 
d="M664 878l79 -121c-34 -38 -94 -70 -164 -70c-91 0 -144 50 -219 50c-47 0 -73 -18 -102 -45l-78 121c33 38 94 70 165 70c90 0 141 -49 218 -49c46 0 76 17 101 44zM651 614h192v-614h-174l-399 384v-384h-191v614h209l363 -351v351z" />
    <glyph glyph-name="o.sc" horiz-adv-x="917" 
d="M459 -21c-255 0 -418 120 -418 328c0 209 163 329 418 329c254 0 416 -120 416 -329c0 -208 -162 -328 -416 -328zM458 135c133 0 216 64 216 172s-83 172 -216 172c-134 0 -216 -64 -216 -172s82 -172 216 -172z" />
    <glyph glyph-name="oacute.sc" horiz-adv-x="917" 
d="M725 862l-237 -168h-145l137 168h245zM459 -21c-255 0 -418 120 -418 328c0 209 163 329 418 329c254 0 416 -120 416 -329c0 -208 -162 -328 -416 -328zM458 135c133 0 216 64 216 172s-83 172 -216 172c-134 0 -216 -64 -216 -172s82 -172 216 -172z" />
    <glyph glyph-name="obreve.sc" horiz-adv-x="917" 
d="M661 862c0 -65 -49 -176 -201 -176c-153 0 -202 111 -202 176h118c4 -35 32 -70 84 -70c50 0 79 35 82 70h119zM459 -21c-255 0 -418 120 -418 328c0 209 163 329 418 329c254 0 416 -120 416 -329c0 -208 -162 -328 -416 -328zM458 135c133 0 216 64 216 172
s-83 172 -216 172c-134 0 -216 -64 -216 -172s82 -172 216 -172z" />
    <glyph glyph-name="ocircumflex.sc" horiz-adv-x="917" 
d="M205 694h172l80 89l81 -89h174l-150 168h-206zM459 -21c-255 0 -418 120 -418 328c0 209 163 329 418 329c254 0 416 -120 416 -329c0 -208 -162 -328 -416 -328zM458 135c133 0 216 64 216 172s-83 172 -216 172c-134 0 -216 -64 -216 -172s82 -172 216 -172z" />
    <glyph glyph-name="odieresis.sc" horiz-adv-x="917" 
d="M318 693c-55 0 -94 32 -94 80s39 79 94 79c54 0 94 -31 94 -79s-40 -80 -94 -80zM599 693c-55 0 -94 32 -94 80s39 79 94 79c54 0 94 -31 94 -79s-40 -80 -94 -80zM459 -21c-255 0 -418 120 -418 328c0 209 163 329 418 329c254 0 416 -120 416 -329
c0 -208 -162 -328 -416 -328zM458 135c133 0 216 64 216 172s-83 172 -216 172c-134 0 -216 -64 -216 -172s82 -172 216 -172z" />
    <glyph glyph-name="ograve.sc" horiz-adv-x="917" 
d="M192 862h245l137 -168h-145zM459 -21c-255 0 -418 120 -418 328c0 209 163 329 418 329c254 0 416 -120 416 -329c0 -208 -162 -328 -416 -328zM458 135c133 0 216 64 216 172s-83 172 -216 172c-134 0 -216 -64 -216 -172s82 -172 216 -172z" />
    <glyph glyph-name="ohungarumlaut.sc" horiz-adv-x="917" 
d="M553 862l-165 -168h-172l164 168h173zM794 862l-165 -168h-172l165 168h172zM459 -21c-255 0 -418 120 -418 328c0 209 163 329 418 329c254 0 416 -120 416 -329c0 -208 -162 -328 -416 -328zM458 135c133 0 216 64 216 172s-83 172 -216 172c-134 0 -216 -64 -216 -172
s82 -172 216 -172z" />
    <glyph glyph-name="omacron.sc" horiz-adv-x="917" 
d="M226 841h465v-133h-465v133zM459 -21c-255 0 -418 120 -418 328c0 209 163 329 418 329c254 0 416 -120 416 -329c0 -208 -162 -328 -416 -328zM458 135c133 0 216 64 216 172s-83 172 -216 172c-134 0 -216 -64 -216 -172s82 -172 216 -172z" />
    <glyph glyph-name="oslash.sc" horiz-adv-x="917" 
d="M733 570c91 -56 142 -146 142 -263c0 -208 -162 -328 -416 -328c-59 0 -112 6 -160 18l-71 -94h-133l101 134c-98 56 -155 148 -155 270c0 209 163 329 418 329c64 0 122 -8 173 -23l75 98h134zM242 307c0 -56 22 -99 61 -129l223 295c-21 4 -44 6 -68 6
c-134 0 -216 -64 -216 -172zM458 135c133 0 216 64 216 172c0 50 -18 90 -49 119l-218 -287c16 -3 33 -4 51 -4z" />
    <glyph glyph-name="oslashacute.sc" horiz-adv-x="917" 
d="M728 862l-237 -168h-145l137 168h245zM733 570c91 -56 142 -146 142 -263c0 -208 -162 -328 -416 -328c-59 0 -112 6 -160 18l-71 -94h-133l101 134c-98 56 -155 148 -155 270c0 209 163 329 418 329c64 0 122 -8 173 -23l75 98h134zM242 307c0 -56 22 -99 61 -129
l223 295c-21 4 -44 6 -68 6c-134 0 -216 -64 -216 -172zM458 135c133 0 216 64 216 172c0 50 -18 90 -49 119l-218 -287c16 -3 33 -4 51 -4z" />
    <glyph glyph-name="otilde.sc" horiz-adv-x="917" 
d="M661 878l79 -121c-34 -38 -94 -70 -164 -70c-91 0 -144 50 -219 50c-47 0 -73 -18 -102 -45l-78 121c33 38 94 70 165 70c90 0 141 -49 218 -49c46 0 76 17 101 44zM459 -21c-255 0 -418 120 -418 328c0 209 163 329 418 329c254 0 416 -120 416 -329
c0 -208 -162 -328 -416 -328zM458 135c133 0 216 64 216 172s-83 172 -216 172c-134 0 -216 -64 -216 -172s82 -172 216 -172z" />
    <glyph glyph-name="oe.sc" horiz-adv-x="1344" 
d="M807 149h494v-149h-689h-167c-249 0 -404 114 -404 307c0 194 155 307 404 307h360h486v-148h-484v-85h394v-140h-394v-92zM612 153v308h-150c-133 0 -218 -54 -218 -154c0 -99 85 -154 218 -154h150z" />
    <glyph glyph-name="p.sc" horiz-adv-x="847" 
d="M525 614c176 0 295 -73 295 -218c0 -147 -119 -220 -295 -220h-248v-176h-198v614h446zM509 318c65 0 111 15 111 74c0 58 -46 73 -111 73h-233v-147h233z" />
    <glyph glyph-name="thorn.sc" horiz-adv-x="847" 
d="M522 530c176 0 298 -71 298 -216c0 -148 -122 -220 -298 -220h-245v-94h-198v614h198v-84h245zM505 239c70 0 115 17 115 73c0 58 -45 73 -115 73h-229v-146h229z" />
    <glyph glyph-name="q.sc" horiz-adv-x="917" 
d="M875 307c0 -103 -40 -185 -112 -241l84 -84l-83 -79l-107 106c-57 -20 -124 -30 -198 -30c-255 0 -418 120 -418 328c0 209 163 329 418 329c254 0 416 -120 416 -329zM458 135c23 0 45 2 65 6l-76 76l84 79l101 -101c27 29 42 66 42 112c0 108 -83 172 -216 172
c-134 0 -216 -64 -216 -172s82 -172 216 -172z" />
    <glyph glyph-name="r.sc" horiz-adv-x="875" 
d="M845 0h-231l-161 188h-177v-188h-197v614h452c164 0 294 -70 294 -211c0 -104 -66 -169 -163 -198zM274 330h240c65 0 111 13 111 68s-46 68 -111 68h-240v-136z" />
    <glyph glyph-name="racute.sc" horiz-adv-x="875" 
d="M679 862l-237 -168h-145l137 168h245zM845 0h-231l-161 188h-177v-188h-197v614h452c164 0 294 -70 294 -211c0 -104 -66 -169 -163 -198zM274 330h240c65 0 111 13 111 68s-46 68 -111 68h-240v-136z" />
    <glyph glyph-name="rcaron.sc" horiz-adv-x="875" 
d="M516 694h-206l-151 168h173l81 -89l81 89h172zM845 0h-231l-161 188h-177v-188h-197v614h452c164 0 294 -70 294 -211c0 -104 -66 -169 -163 -198zM274 330h240c65 0 111 13 111 68s-46 68 -111 68h-240v-136z" />
    <glyph glyph-name="rcommaaccent.sc" horiz-adv-x="875" 
d="M662 205l183 -205h-231l-161 188h-177v-188h-197v614h452c164 0 294 -70 294 -211c0 -104 -66 -169 -163 -198zM274 330h240c65 0 111 13 111 68s-46 68 -111 68h-240v-136zM430 -52c74 0 120 -58 120 -126c0 -74 -49 -180 -156 -242l-40 56c50 37 84 73 97 120
c-4 -5 -13 -7 -28 -7c-58 0 -105 42 -105 100c0 55 47 99 112 99z" />
    <glyph glyph-name="s.sc" horiz-adv-x="825" 
d="M430 394c210 -18 359 -53 359 -197c0 -130 -121 -218 -355 -218c-166 0 -309 44 -407 119l103 114c73 -55 180 -91 307 -91c105 0 156 20 156 55c0 36 -46 45 -175 57c-192 18 -364 60 -364 198c0 131 156 205 359 205c133 0 258 -32 347 -92l-98 -112
c-72 47 -153 62 -252 63c-75 0 -159 -10 -159 -48c0 -35 67 -42 179 -53z" />
    <glyph glyph-name="sacute.sc" horiz-adv-x="825" 
d="M684 862l-237 -168h-145l137 168h245zM430 394c210 -18 359 -53 359 -197c0 -130 -121 -218 -355 -218c-166 0 -309 44 -407 119l103 114c73 -55 180 -91 307 -91c105 0 156 20 156 55c0 36 -46 45 -175 57c-192 18 -364 60 -364 198c0 131 156 205 359 205
c133 0 258 -32 347 -92l-98 -112c-72 47 -153 62 -252 63c-75 0 -159 -10 -159 -48c0 -35 67 -42 179 -53z" />
    <glyph glyph-name="scaron.sc" horiz-adv-x="825" 
d="M164 862l151 -168h206l150 168h-172l-81 -89l-81 89h-173zM430 394c210 -18 359 -53 359 -197c0 -130 -121 -218 -355 -218c-166 0 -309 44 -407 119l103 114c73 -55 180 -91 307 -91c105 0 156 20 156 55c0 36 -46 45 -175 57c-192 18 -364 60 -364 198
c0 131 156 205 359 205c133 0 258 -32 347 -92l-98 -112c-72 47 -153 62 -252 63c-75 0 -159 -10 -159 -48c0 -35 67 -42 179 -53z" />
    <glyph glyph-name="scedilla.sc" horiz-adv-x="825" 
d="M430 394c210 -18 359 -53 359 -197c0 -130 -121 -218 -355 -218c-166 0 -309 44 -407 119l103 114c73 -55 180 -91 307 -91c105 0 156 20 156 55c0 36 -46 45 -175 57c-192 18 -364 60 -364 198c0 131 156 205 359 205c133 0 258 -32 347 -92l-98 -112
c-72 47 -153 62 -252 63c-75 0 -159 -10 -159 -48c0 -35 67 -42 179 -53zM513 -60l-147 -162l-124 33l101 154z" />
    <glyph glyph-name="scircumflex.sc" horiz-adv-x="825" 
d="M164 694h172l80 89l81 -89h174l-150 168h-206zM430 394c210 -18 359 -53 359 -197c0 -130 -121 -218 -355 -218c-166 0 -309 44 -407 119l103 114c73 -55 180 -91 307 -91c105 0 156 20 156 55c0 36 -46 45 -175 57c-192 18 -364 60 -364 198c0 131 156 205 359 205
c133 0 258 -32 347 -92l-98 -112c-72 47 -153 62 -252 63c-75 0 -159 -10 -159 -48c0 -35 67 -42 179 -53z" />
    <glyph glyph-name="scommaaccent.sc" horiz-adv-x="825" 
d="M430 394c210 -18 359 -53 359 -197c0 -130 -121 -218 -355 -218c-166 0 -309 44 -407 119l103 114c73 -55 180 -91 307 -91c105 0 156 20 156 55c0 36 -46 45 -175 57c-192 18 -364 60 -364 198c0 131 156 205 359 205c133 0 258 -32 347 -92l-98 -112
c-72 47 -153 62 -252 63c-75 0 -159 -10 -159 -48c0 -35 67 -42 179 -53zM428 -52c74 0 120 -58 120 -126c0 -74 -49 -180 -156 -242l-40 56c50 37 84 73 97 120c-4 -5 -13 -7 -28 -7c-58 0 -105 42 -105 100c0 55 47 99 112 99z" />
    <glyph glyph-name="germandbls.sc" horiz-adv-x="1647" 
d="M1253 394c210 -18 359 -53 359 -197c0 -130 -121 -218 -355 -218c-166 0 -309 44 -407 119l103 114c73 -55 180 -91 307 -91c105 0 156 20 156 55c0 36 -46 45 -175 57c-192 18 -364 60 -364 198c0 131 156 205 359 205c133 0 258 -32 347 -92l-98 -112
c-72 47 -153 62 -252 63c-75 0 -159 -10 -159 -48c0 -35 67 -42 179 -53zM430 394c210 -18 359 -53 359 -197c0 -130 -121 -218 -355 -218c-166 0 -309 44 -407 119l103 114c73 -55 180 -91 307 -91c105 0 156 20 156 55c0 36 -46 45 -175 57c-192 18 -364 60 -364 198
c0 131 156 205 359 205c133 0 258 -32 347 -92l-98 -112c-72 47 -153 62 -252 63c-75 0 -159 -10 -159 -48c0 -35 67 -42 179 -53z" />
    <glyph glyph-name="t.sc" horiz-adv-x="760" 
d="M740 614v-156h-260v-458h-198v458h-261v156h719z" />
    <glyph glyph-name="tbar.sc" horiz-adv-x="751" 
d="M736 458h-261v-112h134v-132h-134v-214h-198v214h-134v132h134v112h-261v156h720v-156z" />
    <glyph glyph-name="tcaron.sc" horiz-adv-x="760" 
d="M128 862l151 -168h206l150 168h-172l-81 -89l-81 89h-173zM740 614v-156h-260v-458h-198v458h-261v156h719z" />
    <glyph glyph-name="uni0163.sc" horiz-adv-x="760" 
d="M740 614v-156h-260v-458h-198v458h-261v156h719zM467 -54l-147 -162l-124 33l101 154z" />
    <glyph glyph-name="u.sc" horiz-adv-x="885" 
d="M620 614h198v-325c0 -188 -134 -310 -375 -310s-376 122 -376 310v325h199v-309c0 -98 56 -164 177 -164c120 0 177 66 177 164v309z" />
    <glyph glyph-name="uacute.sc" horiz-adv-x="885" 
d="M710 862l-237 -168h-145l137 168h245zM620 614h198v-325c0 -188 -134 -310 -375 -310s-376 122 -376 310v325h199v-309c0 -98 56 -164 177 -164c120 0 177 66 177 164v309z" />
    <glyph glyph-name="ubreve.sc" horiz-adv-x="885" 
d="M645 862c0 -65 -49 -176 -201 -176c-153 0 -202 111 -202 176h118c4 -35 32 -70 84 -70c50 0 79 35 82 70h119zM620 614h198v-325c0 -188 -134 -310 -375 -310s-376 122 -376 310v325h199v-309c0 -98 56 -164 177 -164c120 0 177 66 177 164v309z" />
    <glyph glyph-name="ucircumflex.sc" horiz-adv-x="885" 
d="M190 694h172l80 89l81 -89h174l-150 168h-206zM620 614h198v-325c0 -188 -134 -310 -375 -310s-376 122 -376 310v325h199v-309c0 -98 56 -164 177 -164c120 0 177 66 177 164v309z" />
    <glyph glyph-name="udieresis.sc" horiz-adv-x="885" 
d="M303 693c-55 0 -94 32 -94 80s39 79 94 79c54 0 94 -31 94 -79s-40 -80 -94 -80zM584 693c-55 0 -94 32 -94 80s39 79 94 79c54 0 94 -31 94 -79s-40 -80 -94 -80zM620 614h198v-325c0 -188 -134 -310 -375 -310s-376 122 -376 310v325h199v-309c0 -98 56 -164 177 -164
c120 0 177 66 177 164v309z" />
    <glyph glyph-name="ugrave.sc" horiz-adv-x="885" 
d="M177 862h245l137 -168h-145zM620 614h198v-325c0 -188 -134 -310 -375 -310s-376 122 -376 310v325h199v-309c0 -98 56 -164 177 -164c120 0 177 66 177 164v309z" />
    <glyph glyph-name="uhungarumlaut.sc" horiz-adv-x="885" 
d="M538 862l-165 -168h-172l164 168h173zM779 862l-165 -168h-172l165 168h172zM620 614h198v-325c0 -188 -134 -310 -375 -310s-376 122 -376 310v325h199v-309c0 -98 56 -164 177 -164c120 0 177 66 177 164v309z" />
    <glyph glyph-name="umacron.sc" horiz-adv-x="885" 
d="M211 841h465v-133h-465v133zM620 614h198v-325c0 -188 -134 -310 -375 -310s-376 122 -376 310v325h199v-309c0 -98 56 -164 177 -164c120 0 177 66 177 164v309z" />
    <glyph glyph-name="uogonek.sc" horiz-adv-x="885" 
d="M620 614h198v-325c0 -143 -78 -248 -220 -290c-54 -21 -110 -68 -110 -120c0 -36 29 -58 67 -58c27 0 51 10 68 27l32 -40c-20 -27 -63 -61 -141 -61c-81 0 -160 38 -160 119c0 44 22 85 67 113c-227 7 -354 128 -354 310v325h199v-309c0 -98 56 -164 177 -164
c120 0 177 66 177 164v309z" />
    <glyph glyph-name="uring.sc" horiz-adv-x="885" 
d="M443 683c-97 0 -163 42 -163 120s66 122 163 122c96 0 163 -44 163 -122s-67 -120 -163 -120zM388 803c0 -31 22 -50 55 -50s55 19 55 50s-22 50 -55 50s-55 -19 -55 -50zM620 614h198v-325c0 -188 -134 -310 -375 -310s-376 122 -376 310v325h199v-309
c0 -98 56 -164 177 -164c120 0 177 66 177 164v309z" />
    <glyph glyph-name="utilde.sc" horiz-adv-x="885" 
d="M646 878l79 -121c-34 -38 -94 -70 -164 -70c-91 0 -144 50 -219 50c-47 0 -73 -18 -102 -45l-78 121c33 38 94 70 165 70c90 0 141 -49 218 -49c46 0 76 17 101 44zM620 614h198v-325c0 -188 -134 -310 -375 -310s-376 122 -376 310v325h199v-309c0 -98 56 -164 177 -164
c120 0 177 66 177 164v309z" />
    <glyph glyph-name="v.sc" horiz-adv-x="826" 
d="M-1 614h215l201 -425l202 425h210l-309 -614h-209z" />
    <glyph glyph-name="w.sc" horiz-adv-x="1168" 
d="M958 614h199l-233 -614h-197l-143 408l-142 -408h-198l-232 614h202l134 -406l146 406h183l147 -406z" />
    <glyph glyph-name="wacute.sc" horiz-adv-x="1168" 
d="M852 862l-237 -168h-145l137 168h245zM958 614h199l-233 -614h-197l-143 408l-142 -408h-198l-232 614h202l134 -406l146 406h183l147 -406z" />
    <glyph glyph-name="wcircumflex.sc" horiz-adv-x="1168" 
d="M332 694h172l80 89l81 -89h174l-150 168h-206zM958 614h199l-233 -614h-197l-143 408l-142 -408h-198l-232 614h202l134 -406l146 406h183l147 -406z" />
    <glyph glyph-name="wdieresis.sc" horiz-adv-x="1168" 
d="M445 693c-55 0 -94 32 -94 80s39 79 94 79c54 0 94 -31 94 -79s-40 -80 -94 -80zM726 693c-55 0 -94 32 -94 80s39 79 94 79c54 0 94 -31 94 -79s-40 -80 -94 -80zM958 614h199l-233 -614h-197l-143 408l-142 -408h-198l-232 614h202l134 -406l146 406h183l147 -406z" />
    <glyph glyph-name="wgrave.sc" horiz-adv-x="1168" 
d="M319 862h245l137 -168h-145zM958 614h199l-233 -614h-197l-143 408l-142 -408h-198l-232 614h202l134 -406l146 406h183l147 -406z" />
    <glyph glyph-name="x.sc" horiz-adv-x="807" 
d="M801 614l-285 -299l291 -315h-236l-174 185l-173 -185h-223l289 313l-282 301h235l168 -177l166 177h224z" />
    <glyph glyph-name="y.sc" horiz-adv-x="794" 
d="M0 614h220l178 -253l176 253h220l-298 -408v-206h-198v206z" />
    <glyph glyph-name="yacute.sc" horiz-adv-x="794" 
d="M664 862l-237 -168h-145l137 168h245zM0 614h220l178 -253l176 253h220l-298 -408v-206h-198v206z" />
    <glyph glyph-name="ycircumflex.sc" horiz-adv-x="794" 
d="M144 694h172l80 89l81 -89h174l-150 168h-206zM0 614h220l178 -253l176 253h220l-298 -408v-206h-198v206z" />
    <glyph glyph-name="ydieresis.sc" horiz-adv-x="794" 
d="M257 693c-55 0 -94 32 -94 80s39 79 94 79c54 0 94 -31 94 -79s-40 -80 -94 -80zM538 693c-55 0 -94 32 -94 80s39 79 94 79c54 0 94 -31 94 -79s-40 -80 -94 -80zM0 614h220l178 -253l176 253h220l-298 -408v-206h-198v206z" />
    <glyph glyph-name="ygrave.sc" horiz-adv-x="794" 
d="M131 862h245l137 -168h-145zM0 614h220l178 -253l176 253h220l-298 -408v-206h-198v206z" />
    <glyph glyph-name="z.sc" horiz-adv-x="816" 
d="M759 614v-121l-428 -344h442v-149h-732v121l429 345h-412v148h701z" />
    <glyph glyph-name="zacute.sc" horiz-adv-x="816" 
d="M684 862l-237 -168h-145l137 168h245zM759 614v-121l-428 -344h442v-149h-732v121l429 345h-412v148h701z" />
    <glyph glyph-name="zcaron.sc" horiz-adv-x="816" 
d="M164 862l151 -168h206l150 168h-172l-81 -89l-81 89h-173zM759 614v-121l-428 -344h442v-149h-732v121l429 345h-412v148h701z" />
    <glyph glyph-name="zdotaccent.sc" horiz-adv-x="816" 
d="M417 693c-54 0 -92 30 -92 77c0 49 38 78 92 78s92 -29 92 -78c0 -47 -38 -77 -92 -77zM759 614v-121l-428 -344h442v-149h-732v121l429 345h-412v148h701z" />
    <glyph glyph-name="ordfeminine" unicode="&#xaa;" horiz-adv-x="581" 
d="M276 720c147 0 235 -66 235 -187v-145c0 -28 6 -51 21 -74h-144c-11 12 -16 26 -16 42v2c-27 -37 -83 -58 -150 -58c-81 0 -184 33 -184 132s103 132 184 132c67 0 123 -22 150 -59v30c0 58 -43 89 -122 89c-48 0 -95 -11 -143 -35l-30 92c53 25 132 39 199 39zM374 427
v9c-23 37 -70 48 -110 48c-36 0 -89 -9 -89 -52s53 -52 89 -52c40 0 87 11 110 47z" />
    <glyph glyph-name="ordmasculine" unicode="&#xba;" horiz-adv-x="582" 
d="M292 299c-156 0 -254 80 -254 211c0 130 98 211 254 211c155 0 253 -81 253 -211c0 -131 -98 -211 -253 -211zM292 406c72 0 119 36 119 104c0 66 -47 103 -119 103c-71 0 -119 -37 -119 -103c0 -68 48 -104 119 -104z" />
    <glyph glyph-name="uni0394" unicode="&#x394;" horiz-adv-x="904" 
d="M451 721l458 -721h-184h-575h-154zM257 134h388l-194 324z" />
    <glyph glyph-name="uni03A9" unicode="&#x3a9;" horiz-adv-x="1012" 
d="M963 388c0 -103 -54 -187 -140 -243h118v-145h-357v145c102 31 171 103 171 208c0 126 -95 205 -249 205c-153 0 -249 -79 -249 -205c0 -105 69 -177 171 -208v-145h-357v145h118c-86 56 -140 140 -140 243c0 199 180 335 457 335s457 -136 457 -335z" />
    <glyph glyph-name="uni03BC" unicode="&#x3bc;" horiz-adv-x="799" 
d="M532 554h197v-554h-197v98c-44 -61 -125 -100 -222 -100c-15 0 -29 1 -43 3v-201h-197v440v6v308h197v-311c0 -72 39 -115 112 -115c60 0 112 31 153 99v327z" />
    <glyph glyph-name="pi" unicode="&#x3c0;" horiz-adv-x="969" 
d="M936 408h-174v-193c0 -48 25 -83 79 -83c18 0 34 4 46 8l28 -134c-29 -13 -74 -26 -125 -26c-112 0 -218 69 -218 199v229h-192v-408h-189v408h-173v146h362h382h174v-146z" />
    <glyph glyph-name="zero" unicode="0" horiz-adv-x="957" 
d="M478 -23c-268 0 -436 137 -436 373s168 373 436 373c269 0 437 -137 437 -373s-168 -373 -437 -373zM479 143c143 0 229 73 229 207s-86 207 -229 207c-144 0 -230 -73 -230 -207s86 -207 230 -207z" />
    <glyph glyph-name="one" unicode="1" horiz-adv-x="519" 
d="M233 0v489c-58 -38 -132 -59 -209 -72v162c92 13 193 63 259 121h154v-700h-204z" />
    <glyph glyph-name="two" unicode="2" horiz-adv-x="833" 
d="M46 565c72 89 212 156 378 156c169 0 349 -66 349 -217c0 -120 -111 -189 -265 -236c-115 -36 -209 -78 -232 -114h511v-154h-751v88c18 135 142 249 350 311c101 32 181 54 181 101s-75 71 -152 71c-96 0 -184 -40 -258 -113z" />
    <glyph glyph-name="three" unicode="3" horiz-adv-x="838" 
d="M162 231c55 -64 137 -101 242 -101c86 0 176 21 176 86c0 66 -85 77 -183 77h-111v136h111c83 0 163 17 163 70c0 55 -84 71 -160 71c-104 0 -181 -38 -233 -99l-132 94c75 95 208 156 372 156c186 0 361 -60 361 -196c0 -82 -66 -150 -165 -162c99 -16 192 -65 192 -168
c0 -140 -169 -216 -383 -216c-170 0 -309 63 -389 161z" />
    <glyph glyph-name="four" unicode="4" horiz-adv-x="892" 
d="M865 282v-146h-135v-136h-198v136h-516v114l532 450h182v-418h135zM266 282h267v227z" />
    <glyph glyph-name="five" unicode="5" horiz-adv-x="848" 
d="M137 232c53 -44 160 -95 292 -95c106 0 179 22 179 88s-73 93 -186 93c-68 0 -143 -12 -215 -43l-146 55l60 370h622v-151h-469l-24 -151c71 43 154 65 248 65c159 0 318 -75 318 -240c0 -132 -114 -246 -387 -246c-169 0 -302 51 -400 135z" />
    <glyph glyph-name="six" unicode="6" horiz-adv-x="900" 
d="M527 463c147 0 335 -60 335 -232c0 -146 -138 -254 -386 -254c-268 0 -434 143 -434 373s166 373 434 373c164 0 287 -46 367 -118l-110 -111c-63 55 -147 82 -235 82c-135 0 -238 -47 -249 -197c72 57 179 84 278 84zM476 124c108 0 181 33 181 105c0 73 -73 99 -173 99
c-77 0 -163 -24 -225 -69c29 -101 112 -135 217 -135z" />
    <glyph glyph-name="seven" unicode="7" horiz-adv-x="775" 
d="M149 0l365 540h-494v160h739v-124l-380 -576h-230z" />
    <glyph glyph-name="eight" unicode="8" horiz-adv-x="897" 
d="M661 366c98 -16 193 -69 193 -171c0 -138 -167 -218 -406 -218c-238 0 -405 80 -405 218c0 102 94 155 194 171c-101 11 -167 75 -167 158c0 134 173 199 378 199s379 -65 379 -199c0 -83 -67 -147 -166 -158zM275 504c0 -56 82 -80 173 -80c93 0 174 24 174 80
s-81 80 -174 80c-91 0 -173 -24 -173 -80zM448 116c108 0 194 27 194 93c0 65 -86 92 -194 92c-107 0 -193 -27 -193 -92c0 -64 86 -93 193 -93z" />
    <glyph glyph-name="nine" unicode="9" horiz-adv-x="900" 
d="M424 723c268 0 434 -143 434 -373s-166 -373 -434 -373c-164 0 -287 46 -367 118l110 111c63 -55 148 -82 235 -82c135 0 237 47 249 197c-72 -57 -180 -84 -278 -84c-147 0 -335 60 -335 232c0 146 138 254 386 254zM243 471c0 -73 73 -99 173 -99c77 0 163 23 225 68
c-29 102 -111 136 -217 136c-108 0 -181 -33 -181 -105z" />
    <glyph glyph-name="zero.osf" horiz-adv-x="912" 
d="M456 -23c-246 0 -414 128 -414 344s168 330 414 330c245 0 414 -114 414 -330s-169 -344 -414 -344zM456 143c128 0 207 58 207 171s-79 171 -207 171s-207 -58 -207 -171s79 -171 207 -171z" />
    <glyph glyph-name="one.osf" horiz-adv-x="525" 
d="M239 0v417c-58 -39 -132 -60 -209 -73v163c92 13 193 63 259 121h154v-628h-204z" />
    <glyph glyph-name="two.osf" horiz-adv-x="826" 
d="M48 500c71 82 210 149 375 149c163 0 345 -66 345 -204c0 -109 -110 -162 -246 -208c-120 -40 -226 -62 -246 -90h504v-147h-744v88c17 123 145 209 346 266c95 27 180 42 180 90c0 46 -77 61 -150 61c-94 0 -183 -36 -253 -106z" />
    <glyph glyph-name="three.osf" horiz-adv-x="838" 
d="M161 159c55 -64 137 -101 242 -101c86 0 176 21 176 86c0 66 -85 77 -183 77h-111v136h111c83 0 163 17 163 70c0 55 -84 71 -160 71c-104 0 -181 -38 -233 -99l-132 94c75 95 208 156 372 156c186 0 361 -60 361 -196c0 -82 -66 -150 -165 -162c99 -16 192 -65 192 -168
c0 -140 -169 -216 -383 -216c-170 0 -309 63 -389 161z" />
    <glyph glyph-name="four.osf" horiz-adv-x="892" 
d="M865 210v-146h-135v-136h-198v136h-516v114l532 450h182v-418h135zM266 210h267v227z" />
    <glyph glyph-name="five.osf" horiz-adv-x="848" 
d="M137 160c53 -44 160 -95 292 -95c106 0 179 22 179 88s-73 93 -186 93c-68 0 -143 -12 -215 -43l-146 55l60 370h622v-151h-469l-24 -151c71 43 154 65 248 65c159 0 318 -75 318 -240c0 -132 -114 -246 -387 -246c-169 0 -302 51 -400 135z" />
    <glyph glyph-name="six.osf" horiz-adv-x="900" 
d="M527 463c147 0 335 -60 335 -232c0 -146 -138 -254 -386 -254c-268 0 -434 143 -434 373s166 373 434 373c164 0 287 -46 367 -118l-110 -111c-63 55 -147 82 -235 82c-135 0 -238 -47 -249 -197c72 57 179 84 278 84zM476 124c108 0 181 33 181 105c0 73 -73 99 -173 99
c-77 0 -163 -24 -225 -69c29 -101 112 -135 217 -135z" />
    <glyph glyph-name="seven.osf" horiz-adv-x="775" 
d="M155 -72l365 540h-494v160h739v-124l-380 -576h-230z" />
    <glyph glyph-name="eight.osf" horiz-adv-x="897" 
d="M661 366c98 -16 193 -69 193 -171c0 -138 -167 -218 -406 -218c-238 0 -405 80 -405 218c0 102 94 155 194 171c-101 11 -167 75 -167 158c0 134 173 199 378 199s379 -65 379 -199c0 -83 -67 -147 -166 -158zM275 504c0 -56 82 -80 173 -80c93 0 174 24 174 80
s-81 80 -174 80c-91 0 -173 -24 -173 -80zM448 116c108 0 194 27 194 93c0 65 -86 92 -194 92c-107 0 -193 -27 -193 -92c0 -64 86 -93 193 -93z" />
    <glyph glyph-name="nine.osf" horiz-adv-x="900" 
d="M424 651c268 0 434 -143 434 -373s-166 -373 -434 -373c-164 0 -287 46 -367 118l110 111c63 -55 148 -82 235 -82c135 0 237 47 249 197c-72 -57 -180 -84 -278 -84c-147 0 -335 60 -335 232c0 146 138 254 386 254zM243 399c0 -73 73 -99 173 -99c77 0 163 23 225 68
c-29 102 -111 136 -217 136c-108 0 -181 -33 -181 -105z" />
    <glyph glyph-name="zero.subs" horiz-adv-x="558" 
d="M279 -135c-152 0 -249 81 -249 221c0 141 97 222 249 222c153 0 250 -81 250 -222c0 -140 -97 -221 -250 -221zM279 -34c76 0 121 43 121 120c0 76 -45 119 -121 119s-122 -43 -122 -119c0 -77 46 -120 122 -120z" />
    <glyph glyph-name="one.subs" horiz-adv-x="318" 
d="M136 -122v286c-33 -22 -74 -35 -117 -42v100c53 7 111 37 148 72h95v-416h-126z" />
    <glyph glyph-name="two.subs" horiz-adv-x="484" 
d="M32 217c46 51 123 90 216 90c95 0 198 -39 198 -128c0 -72 -63 -113 -147 -142c-61 -21 -116 -42 -128 -64h282v-95h-428v57c10 81 80 145 197 182c53 19 97 31 97 59c0 27 -38 39 -78 39c-52 0 -97 -21 -140 -65z" />
    <glyph glyph-name="three.subs" horiz-adv-x="489" 
d="M97 16c35 -36 80 -58 134 -58c45 0 95 13 95 51c0 35 -47 43 -95 43h-64v82h64c42 0 83 8 83 40s-44 40 -86 40c-50 0 -89 -17 -126 -55l-76 53c41 60 122 95 212 95c103 0 205 -35 205 -116c0 -48 -36 -90 -94 -97c58 -10 110 -39 110 -99c0 -84 -97 -129 -221 -129
c-93 0 -175 36 -219 99z" />
    <glyph glyph-name="four.subs" horiz-adv-x="521" 
d="M499 49v-89h-74v-82h-122v82h-289v69l298 265h113v-245h74zM164 49h138v124z" />
    <glyph glyph-name="five.subs" horiz-adv-x="492" 
d="M78 15c42 -33 96 -52 168 -52c56 0 94 14 94 51s-38 51 -94 51c-38 0 -81 -7 -120 -26l-88 32l36 223h354v-92h-261l-14 -87c37 25 88 39 139 39c89 0 176 -45 176 -141c0 -81 -61 -148 -219 -148c-102 0 -174 33 -229 74z" />
    <glyph glyph-name="six.subs" horiz-adv-x="524" 
d="M300 154c90 0 198 -35 198 -138c0 -87 -77 -151 -221 -151c-152 0 -247 84 -247 221c0 138 95 222 247 222c94 0 166 -27 211 -69l-65 -68c-34 30 -81 47 -131 47c-70 0 -126 -26 -134 -110c39 33 96 46 142 46zM277 -45c56 0 94 17 94 57c0 43 -36 59 -94 59
c-40 0 -83 -12 -115 -36c15 -61 60 -80 115 -80z" />
    <glyph glyph-name="seven.subs" horiz-adv-x="451" 
d="M85 -122l201 318h-270v98h421v-76l-211 -340h-141z" />
    <glyph glyph-name="eight.subs" horiz-adv-x="522" 
d="M381 97c61 -11 112 -42 112 -104c0 -80 -96 -128 -232 -128s-232 48 -232 128c0 62 50 93 111 104c-61 6 -96 46 -96 96c0 78 102 115 217 115c114 0 217 -37 217 -115c0 -50 -36 -90 -97 -96zM171 177c0 -33 43 -45 91 -45c46 0 88 12 88 45c0 32 -42 46 -88 46
c-48 0 -91 -14 -91 -46zM260 -51c54 0 101 18 101 55c0 39 -47 54 -101 54s-100 -15 -100 -54c0 -37 46 -55 100 -55z" />
    <glyph glyph-name="nine.subs" horiz-adv-x="524" 
d="M245 307c152 0 247 -84 247 -221c0 -138 -95 -222 -247 -222c-94 0 -166 27 -211 69l65 68c34 -30 81 -47 131 -47c70 0 126 26 134 110c-39 -33 -96 -46 -142 -46c-90 0 -198 35 -198 138c0 87 77 151 221 151zM151 160c0 -43 36 -59 94 -59c40 0 83 12 115 36
c-15 61 -60 80 -115 80c-56 0 -94 -17 -94 -57z" />
    <glyph glyph-name="fraction" unicode="&#x2044;" horiz-adv-x="275" 
d="M-24 0h-138l458 700h138z" />
    <glyph glyph-name="onehalf" unicode="&#xbd;" horiz-adv-x="1071" 
d="M136 284v286c-33 -22 -74 -33 -117 -40v98c53 8 111 38 148 72h95v-416h-126zM300 0h-138l457 700h138zM619 339c46 51 123 90 216 90c95 0 198 -39 198 -128c0 -72 -62 -113 -147 -142c-61 -21 -115 -42 -128 -64h282v-95h-427v57c10 81 80 145 196 182
c53 19 97 31 97 59c0 27 -38 39 -78 39c-52 0 -96 -21 -140 -65z" />
    <glyph glyph-name="onequarter" unicode="&#xbc;" horiz-adv-x="1042" 
d="M136 284v286c-33 -22 -74 -33 -117 -40v98c53 8 111 38 148 72h95v-416h-126zM304 0h-138l457 700h138zM1021 171v-89h-75v-82h-122v82h-288v69l297 265h113v-245h75zM685 171h139v124z" />
    <glyph glyph-name="threequarters" unicode="&#xbe;" horiz-adv-x="1198" 
d="M97 423c35 -37 80 -58 134 -58c45 0 95 12 95 50c0 36 -47 44 -95 44h-64v81h64c42 0 83 9 83 40c0 32 -44 40 -86 40c-50 0 -89 -17 -126 -55l-76 54c41 59 122 94 212 94c103 0 205 -35 205 -115c0 -49 -36 -90 -94 -97c58 -10 110 -39 110 -100
c0 -84 -97 -129 -221 -129c-93 0 -175 37 -219 99zM460 0h-138l457 700h138zM1177 171v-89h-75v-82h-122v82h-288v69l297 265h113v-245h75zM841 171h139v124z" />
    <glyph glyph-name="oneeighth" unicode="&#x215b;" horiz-adv-x="1110" 
d="M136 284v286c-33 -22 -74 -33 -117 -40v98c53 8 111 38 148 72h95v-416h-126zM304 0h-138l457 700h138zM969 219c61 -11 112 -42 112 -104c0 -80 -96 -128 -232 -128c-135 0 -232 48 -232 128c0 62 51 93 111 104c-60 6 -96 46 -96 96c0 78 103 115 217 115
c115 0 217 -37 217 -115c0 -50 -36 -90 -97 -96zM760 299c0 -33 42 -45 90 -45c46 0 89 12 89 45c0 32 -43 46 -89 46c-48 0 -90 -14 -90 -46zM849 71c53 0 101 18 101 55c0 39 -48 54 -101 54c-54 0 -101 -15 -101 -54c0 -37 47 -55 101 -55z" />
    <glyph glyph-name="threeeighths" unicode="&#x215c;" horiz-adv-x="1263" 
d="M97 423c35 -37 80 -58 134 -58c45 0 95 12 95 50c0 36 -47 44 -95 44h-64v81h64c42 0 83 9 83 40c0 32 -44 40 -86 40c-50 0 -89 -17 -126 -55l-76 54c41 59 122 94 212 94c103 0 205 -35 205 -115c0 -49 -36 -90 -94 -97c58 -10 110 -39 110 -100
c0 -84 -97 -129 -221 -129c-93 0 -175 37 -219 99zM460 0h-138l457 700h138zM1123 219c61 -11 111 -42 111 -104c0 -80 -95 -128 -231 -128s-232 48 -232 128c0 62 50 93 110 104c-60 6 -95 46 -95 96c0 78 102 115 217 115c114 0 216 -37 216 -115c0 -50 -35 -90 -96 -96z
M913 299c0 -33 43 -45 90 -45s89 12 89 45c0 32 -42 46 -89 46s-90 -14 -90 -46zM1002 71c54 0 101 18 101 55c0 39 -47 54 -101 54s-100 -15 -100 -54c0 -37 46 -55 100 -55z" />
    <glyph glyph-name="fiveeighths" unicode="&#x215d;" horiz-adv-x="1267" 
d="M78 421c42 -32 96 -52 168 -52c56 0 94 15 94 51c0 37 -38 52 -94 52c-38 0 -81 -7 -120 -27l-88 33l36 222h354v-92h-261l-14 -87c37 25 88 39 139 39c89 0 176 -44 176 -140c0 -81 -61 -149 -219 -149c-102 0 -174 33 -229 74zM464 0h-138l457 700h138zM1126 219
c61 -11 112 -42 112 -104c0 -80 -96 -128 -231 -128c-136 0 -232 48 -232 128c0 62 50 93 110 104c-60 6 -95 46 -95 96c0 78 102 115 217 115c114 0 216 -37 216 -115c0 -50 -36 -90 -97 -96zM917 299c0 -33 43 -45 90 -45c46 0 89 12 89 45c0 32 -43 46 -89 46
c-47 0 -90 -14 -90 -46zM1006 71c54 0 101 18 101 55c0 39 -47 54 -101 54s-101 -15 -101 -54c0 -37 47 -55 101 -55z" />
    <glyph glyph-name="seveneighths" unicode="&#x215e;" horiz-adv-x="1132" 
d="M85 284l201 318h-270v98h421v-76l-211 -340h-141zM328 0h-138l457 700h138zM991 219c61 -11 112 -42 112 -104c0 -80 -96 -128 -232 -128s-232 48 -232 128c0 62 50 93 111 104c-61 6 -96 46 -96 96c0 78 102 115 217 115c114 0 217 -37 217 -115c0 -50 -36 -90 -97 -96z
M781 299c0 -33 43 -45 91 -45c46 0 88 12 88 45c0 32 -42 46 -88 46c-48 0 -91 -14 -91 -46zM870 71c54 0 101 18 101 55c0 39 -47 54 -101 54s-100 -15 -100 -54c0 -37 46 -55 100 -55z" />
    <glyph glyph-name="zero.dnom" horiz-adv-x="558" 
d="M279 -13c-152 0 -249 81 -249 221c0 141 97 222 249 222c153 0 250 -81 250 -222c0 -140 -97 -221 -250 -221zM279 88c76 0 121 43 121 120c0 76 -45 119 -121 119s-122 -43 -122 -119c0 -77 46 -120 122 -120z" />
    <glyph glyph-name="one.dnom" horiz-adv-x="318" 
d="M136 0v286c-33 -22 -74 -35 -117 -42v100c53 7 111 37 148 72h95v-416h-126z" />
    <glyph glyph-name="two.dnom" horiz-adv-x="484" 
d="M32 339c46 51 123 90 216 90c95 0 198 -39 198 -128c0 -72 -63 -113 -147 -142c-61 -21 -116 -42 -128 -64h282v-95h-428v57c10 81 80 145 197 182c53 19 97 31 97 59c0 27 -38 39 -78 39c-52 0 -97 -21 -140 -65z" />
    <glyph glyph-name="three.dnom" horiz-adv-x="489" 
d="M97 138c35 -36 80 -58 134 -58c45 0 95 13 95 51c0 35 -47 43 -95 43h-64v82h64c42 0 83 8 83 40s-44 40 -86 40c-50 0 -89 -17 -126 -55l-76 53c41 60 122 95 212 95c103 0 205 -35 205 -116c0 -48 -36 -90 -94 -97c58 -10 110 -39 110 -99c0 -84 -97 -129 -221 -129
c-93 0 -175 36 -219 99z" />
    <glyph glyph-name="four.dnom" horiz-adv-x="521" 
d="M499 171v-89h-74v-82h-122v82h-289v69l298 265h113v-245h74zM164 171h138v124z" />
    <glyph glyph-name="five.dnom" horiz-adv-x="492" 
d="M78 137c42 -33 96 -52 168 -52c56 0 94 14 94 51s-38 51 -94 51c-38 0 -81 -7 -120 -26l-88 32l36 223h354v-92h-261l-14 -87c37 25 88 39 139 39c89 0 176 -45 176 -141c0 -81 -61 -148 -219 -148c-102 0 -174 33 -229 74z" />
    <glyph glyph-name="six.dnom" horiz-adv-x="524" 
d="M300 276c90 0 198 -35 198 -138c0 -87 -77 -151 -221 -151c-152 0 -247 84 -247 221c0 138 95 222 247 222c94 0 166 -27 211 -69l-65 -68c-34 30 -81 47 -131 47c-70 0 -126 -26 -134 -110c39 33 96 46 142 46zM277 77c56 0 94 17 94 57c0 43 -36 59 -94 59
c-40 0 -83 -12 -115 -35c15 -62 60 -81 115 -81z" />
    <glyph glyph-name="seven.dnom" horiz-adv-x="451" 
d="M85 0l201 318h-270v98h421v-76l-211 -340h-141z" />
    <glyph glyph-name="eight.dnom" horiz-adv-x="522" 
d="M381 219c61 -11 112 -42 112 -104c0 -80 -96 -128 -232 -128s-232 48 -232 128c0 62 50 93 111 104c-61 6 -96 46 -96 96c0 78 102 115 217 115c114 0 217 -37 217 -115c0 -50 -36 -90 -97 -96zM171 299c0 -33 43 -45 91 -45c46 0 88 12 88 45c0 32 -42 46 -88 46
c-48 0 -91 -14 -91 -46zM260 71c54 0 101 18 101 55c0 39 -47 54 -101 54s-100 -15 -100 -54c0 -37 46 -55 100 -55z" />
    <glyph glyph-name="nine.dnom" horiz-adv-x="524" 
d="M245 429c152 0 247 -84 247 -221c0 -138 -95 -222 -247 -222c-94 0 -166 27 -211 69l65 68c34 -30 81 -47 131 -47c70 0 126 26 134 110c-39 -33 -96 -46 -142 -46c-90 0 -198 35 -198 138c0 87 77 151 221 151zM151 282c0 -43 36 -59 94 -59c40 0 83 12 115 36
c-15 61 -60 80 -115 80c-56 0 -94 -17 -94 -57z" />
    <glyph glyph-name="zero.numr" horiz-adv-x="558" 
d="M279 271c-152 0 -249 81 -249 221c0 141 97 222 249 222c153 0 250 -81 250 -222c0 -140 -97 -221 -250 -221zM279 372c76 0 121 43 121 120c0 76 -45 119 -121 119s-122 -43 -122 -119c0 -77 46 -120 122 -120z" />
    <glyph glyph-name="one.numr" horiz-adv-x="318" 
d="M136 284v286c-33 -22 -74 -35 -117 -42v100c53 7 111 37 148 72h95v-416h-126z" />
    <glyph glyph-name="two.numr" horiz-adv-x="484" 
d="M32 623c46 51 123 90 216 90c95 0 198 -39 198 -128c0 -72 -63 -113 -147 -142c-61 -21 -116 -42 -128 -64h282v-95h-428v57c10 81 80 145 197 182c53 19 97 31 97 59c0 27 -38 39 -78 39c-52 0 -97 -21 -140 -65z" />
    <glyph glyph-name="three.numr" horiz-adv-x="489" 
d="M97 422c35 -36 80 -58 134 -58c45 0 95 13 95 51c0 35 -47 43 -95 43h-64v82h64c42 0 83 8 83 40s-44 40 -86 40c-50 0 -89 -17 -126 -55l-76 53c41 60 122 95 212 95c103 0 205 -35 205 -116c0 -48 -36 -90 -94 -97c58 -10 110 -39 110 -99c0 -84 -97 -129 -221 -129
c-93 0 -175 36 -219 99z" />
    <glyph glyph-name="four.numr" horiz-adv-x="521" 
d="M499 455v-89h-74v-82h-122v82h-289v69l298 265h113v-245h74zM164 455h138v124z" />
    <glyph glyph-name="five.numr" horiz-adv-x="492" 
d="M78 421c42 -33 96 -52 168 -52c56 0 94 14 94 51s-38 51 -94 51c-38 0 -81 -7 -120 -26l-88 32l36 223h354v-92h-261l-14 -87c37 25 88 39 139 39c89 0 176 -45 176 -141c0 -81 -61 -148 -219 -148c-102 0 -174 33 -229 74z" />
    <glyph glyph-name="six.numr" horiz-adv-x="524" 
d="M300 560c90 0 198 -35 198 -138c0 -87 -77 -151 -221 -151c-152 0 -247 84 -247 221c0 138 95 222 247 222c94 0 166 -27 211 -69l-65 -68c-34 30 -81 47 -131 47c-70 0 -126 -26 -134 -110c39 33 96 46 142 46zM277 361c56 0 94 17 94 57c0 43 -36 59 -94 59
c-40 0 -83 -12 -115 -36c15 -61 60 -80 115 -80z" />
    <glyph glyph-name="seven.numr" horiz-adv-x="451" 
d="M85 284l201 318h-270v98h421v-76l-211 -340h-141z" />
    <glyph glyph-name="eight.numr" horiz-adv-x="522" 
d="M381 503c61 -11 112 -42 112 -104c0 -80 -96 -128 -232 -128s-232 48 -232 128c0 62 50 93 111 104c-61 6 -96 46 -96 96c0 78 102 115 217 115c114 0 217 -37 217 -115c0 -50 -36 -90 -97 -96zM171 583c0 -33 43 -45 91 -45c46 0 88 12 88 45c0 32 -42 46 -88 46
c-48 0 -91 -14 -91 -46zM260 355c54 0 101 18 101 55c0 39 -47 54 -101 54s-100 -15 -100 -54c0 -37 46 -55 100 -55z" />
    <glyph glyph-name="nine.numr" horiz-adv-x="524" 
d="M245 713c152 0 247 -84 247 -221c0 -138 -95 -222 -247 -222c-94 0 -166 27 -211 69l65 68c34 -30 81 -47 131 -47c70 0 126 26 134 110c-39 -33 -96 -46 -142 -46c-90 0 -198 35 -198 138c0 87 77 151 221 151zM151 566c0 -43 36 -59 94 -59c40 0 83 12 115 36
c-15 61 -60 80 -115 80c-56 0 -94 -17 -94 -57z" />
    <glyph glyph-name="uni2070" unicode="&#x2070;" horiz-adv-x="558" 
d="M279 444c-152 0 -249 81 -249 221c0 141 97 222 249 222c153 0 250 -81 250 -222c0 -140 -97 -221 -250 -221zM279 545c76 0 121 43 121 120c0 76 -45 119 -121 119s-122 -43 -122 -119c0 -77 46 -120 122 -120z" />
    <glyph glyph-name="uni00B9" unicode="&#xb9;" horiz-adv-x="318" 
d="M136 456v286c-33 -22 -74 -35 -117 -42v100c53 7 111 37 148 72h95v-416h-126z" />
    <glyph glyph-name="uni00B2" unicode="&#xb2;" horiz-adv-x="484" 
d="M32 796c46 51 123 90 216 90c95 0 198 -39 198 -128c0 -72 -63 -113 -147 -142c-61 -21 -116 -42 -128 -64h282v-95h-428v57c10 81 80 145 197 182c53 19 97 31 97 59c0 27 -38 39 -78 39c-52 0 -97 -21 -140 -65z" />
    <glyph glyph-name="uni00B3" unicode="&#xb3;" horiz-adv-x="489" 
d="M97 595c35 -36 80 -58 134 -58c45 0 95 13 95 51c0 35 -47 43 -95 43h-64v82h64c42 0 83 8 83 40s-44 40 -86 40c-50 0 -89 -17 -126 -55l-76 53c41 60 122 95 212 95c103 0 205 -35 205 -116c0 -48 -36 -90 -94 -97c58 -10 110 -39 110 -99c0 -84 -97 -129 -221 -129
c-93 0 -175 36 -219 99z" />
    <glyph glyph-name="uni2074" unicode="&#x2074;" horiz-adv-x="521" 
d="M499 628v-89h-74v-82h-122v82h-289v69l298 265h113v-245h74zM164 628h138v124z" />
    <glyph glyph-name="uni2075" unicode="&#x2075;" horiz-adv-x="492" 
d="M78 594c42 -33 96 -52 168 -52c56 0 94 14 94 51s-38 51 -94 51c-38 0 -81 -7 -120 -26l-88 32l36 223h354v-92h-261l-14 -87c37 25 88 39 139 39c89 0 176 -45 176 -141c0 -81 -61 -148 -219 -148c-102 0 -174 33 -229 74z" />
    <glyph glyph-name="uni2076" unicode="&#x2076;" horiz-adv-x="524" 
d="M300 733c90 0 198 -35 198 -138c0 -87 -77 -151 -221 -151c-152 0 -247 84 -247 221c0 138 95 222 247 222c94 0 166 -27 211 -69l-65 -68c-34 30 -81 47 -131 47c-70 0 -126 -26 -134 -110c39 33 96 46 142 46zM277 534c56 0 94 17 94 57c0 43 -36 59 -94 59
c-40 0 -83 -12 -115 -36c15 -61 60 -80 115 -80z" />
    <glyph glyph-name="uni2077" unicode="&#x2077;" horiz-adv-x="451" 
d="M85 457l201 318h-270v98h421v-76l-211 -340h-141z" />
    <glyph glyph-name="uni2078" unicode="&#x2078;" horiz-adv-x="522" 
d="M381 676c61 -11 112 -42 112 -104c0 -80 -96 -128 -232 -128s-232 48 -232 128c0 62 50 93 111 104c-61 6 -96 46 -96 96c0 78 102 115 217 115c114 0 217 -37 217 -115c0 -50 -36 -90 -97 -96zM171 756c0 -33 43 -45 91 -45c46 0 88 12 88 45c0 32 -42 46 -88 46
c-48 0 -91 -14 -91 -46zM260 528c54 0 101 18 101 55c0 39 -47 54 -101 54s-100 -15 -100 -54c0 -37 46 -55 100 -55z" />
    <glyph glyph-name="uni2079" unicode="&#x2079;" horiz-adv-x="524" 
d="M245 886c152 0 247 -84 247 -221c0 -138 -95 -222 -247 -222c-94 0 -166 27 -211 69l65 68c34 -30 81 -47 131 -47c70 0 126 26 134 110c-39 -33 -96 -46 -142 -46c-90 0 -198 35 -198 138c0 87 77 151 221 151zM151 739c0 -43 36 -59 94 -59c40 0 83 12 115 36
c-15 61 -60 80 -115 80c-56 0 -94 -17 -94 -57z" />
    <glyph glyph-name="zero.sc" horiz-adv-x="891" 
d="M446 -21c-247 0 -403 120 -403 328s156 329 403 329c246 0 401 -121 401 -329s-155 -328 -401 -328zM446 138c124 0 200 61 200 169c0 109 -76 169 -200 169c-127 0 -202 -60 -202 -169c0 -108 75 -169 202 -169z" />
    <glyph glyph-name="one.sc" horiz-adv-x="498" 
d="M219 0v413c-53 -31 -120 -49 -191 -60v156c85 11 179 55 239 105h150v-614h-198z" />
    <glyph glyph-name="two.sc" horiz-adv-x="775" 
d="M50 499c63 76 188 135 344 135c158 0 323 -57 323 -191c0 -105 -101 -169 -240 -209c-103 -30 -189 -57 -209 -87h460v-147h-690v85c16 121 129 222 320 274c88 26 159 42 159 81c0 36 -63 51 -133 51c-88 0 -163 -33 -227 -94z" />
    <glyph glyph-name="three.sc" horiz-adv-x="780" 
d="M148 210c63 -56 130 -86 223 -86c79 0 158 16 158 70c0 51 -75 59 -158 59h-103v128h103c70 0 140 14 140 56c0 43 -73 52 -145 52c-84 0 -150 -26 -208 -81l-120 86c70 89 193 140 343 140c166 0 332 -51 332 -171c0 -71 -58 -132 -154 -144c96 -15 179 -59 179 -147
c0 -126 -157 -191 -355 -191c-153 0 -282 53 -356 144z" />
    <glyph glyph-name="four.sc" horiz-adv-x="832" 
d="M801 253v-139h-122v-114h-191v114h-468v111l483 389h176v-361h122zM255 253h233v176z" />
    <glyph glyph-name="five.sc" horiz-adv-x="789" 
d="M122 209c67 -49 158 -77 274 -77c95 0 158 16 158 68c0 51 -63 70 -162 70c-60 0 -127 -8 -192 -35l-140 53l55 326h574v-143h-426l-21 -119c63 37 139 57 225 57c142 0 288 -66 288 -211c0 -116 -102 -219 -359 -219c-154 0 -272 43 -366 114z" />
    <glyph glyph-name="six.sc" horiz-adv-x="837" 
d="M480 409c143 0 318 -51 318 -204c0 -129 -126 -226 -356 -226c-246 0 -399 126 -399 328s153 329 399 329c152 0 265 -41 340 -101l-104 -109c-57 45 -136 70 -212 70c-118 0 -208 -37 -222 -157c64 49 156 70 236 70zM442 117c95 0 157 25 157 83c0 60 -63 81 -155 81
c-67 0 -138 -18 -191 -51c26 -85 98 -113 189 -113z" />
    <glyph glyph-name="seven.sc" horiz-adv-x="725" 
d="M135 0l330 462h-442v152h679v-119l-344 -495h-223z" />
    <glyph glyph-name="eight.sc" horiz-adv-x="831" 
d="M611 321c94 -14 178 -61 178 -151c0 -118 -154 -191 -373 -191c-220 0 -374 73 -374 191c0 90 85 137 179 151c-95 12 -154 71 -154 143c0 116 163 172 349 172c185 0 348 -56 348 -172c0 -72 -58 -131 -153 -143zM266 441c0 -47 70 -63 149 -63c80 0 151 16 151 63
c0 42 -71 63 -151 63c-79 0 -149 -21 -149 -63zM416 112c91 0 167 23 167 75c0 55 -76 74 -167 74s-167 -19 -167 -74c0 -52 76 -75 167 -75z" />
    <glyph glyph-name="nine.sc" horiz-adv-x="837" 
d="M393 635c246 0 399 -126 399 -328s-153 -329 -399 -329c-152 0 -265 41 -340 101l104 109c57 -45 136 -70 212 -70c118 0 209 37 222 157c-63 -49 -156 -70 -236 -70c-143 0 -318 51 -318 204c0 129 126 226 356 226zM236 414c0 -60 63 -81 155 -81c67 0 139 18 192 51
c-27 85 -100 113 -190 113c-95 0 -157 -25 -157 -83z" />
    <glyph glyph-name="asterisk" unicode="*" horiz-adv-x="629" 
d="M374 192l-60 187l-59 -187l-141 81l129 142l-188 -38v162l188 -37l-129 141l141 81l59 -187l60 187l140 -81l-128 -141l188 37v-162l-188 38l128 -142z" />
    <glyph glyph-name="backslash" unicode="\" horiz-adv-x="770" 
d="M535 -100l-512 880h212l511 -880h-211z" />
    <glyph glyph-name="periodcentered" unicode="&#xb7;" horiz-adv-x="319" 
d="M160 188c-68 0 -115 42 -115 99c0 56 47 100 115 100c67 0 114 -44 114 -100c0 -57 -47 -99 -114 -99z" />
    <glyph glyph-name="bullet" unicode="&#x2022;" horiz-adv-x="434" 
d="M217 141c-91 0 -155 62 -155 143c0 82 64 143 155 143s155 -61 155 -143c0 -81 -64 -143 -155 -143z" />
    <glyph glyph-name="colon" unicode=":" horiz-adv-x="319" 
d="M160 368c-68 0 -115 43 -115 100c0 56 47 100 115 100c67 0 114 -44 114 -100c0 -57 -47 -100 -114 -100zM160 -13c-68 0 -115 42 -115 99c0 56 47 100 115 100c67 0 114 -44 114 -100c0 -57 -47 -99 -114 -99z" />
    <glyph glyph-name="comma" unicode="," horiz-adv-x="323" 
d="M158 186c74 0 120 -58 120 -126c0 -74 -49 -180 -156 -242l-40 56c50 37 84 73 97 120c-4 -5 -13 -7 -28 -7c-58 0 -105 42 -105 100c0 55 47 99 112 99z" />
    <glyph glyph-name="ellipsis" unicode="&#x2026;" horiz-adv-x="947" 
d="M160 -13c-68 0 -115 42 -115 99c0 56 47 100 115 100c67 0 114 -44 114 -100c0 -57 -47 -99 -114 -99zM474 -13c-68 0 -115 42 -115 99c0 56 47 100 115 100c67 0 114 -44 114 -100c0 -57 -47 -99 -114 -99zM788 -13c-68 0 -115 42 -115 99c0 56 47 100 115 100
c67 0 114 -44 114 -100c0 -57 -47 -99 -114 -99z" />
    <glyph glyph-name="exclam" unicode="!" horiz-adv-x="359" 
d="M62 700h235l-32 -450h-171zM179 -13c-68 0 -115 42 -115 99c0 56 47 100 115 100c67 0 114 -44 114 -100c0 -57 -47 -99 -114 -99z" />
    <glyph glyph-name="exclamdown" unicode="&#xa1;" horiz-adv-x="359" 
d="M179 513c67 0 114 -42 114 -99c0 -56 -47 -100 -114 -100c-68 0 -115 44 -115 100c0 57 47 99 115 99zM62 -200l32 450h171l32 -450h-235z" />
    <glyph glyph-name="uni203D" unicode="&#x203d;" horiz-adv-x="764" 
d="M381 721c166 0 343 -64 343 -213c0 -120 -114 -182 -268 -192v-80h-156v171v137h156v-106c40 15 60 35 60 65c0 55 -71 70 -141 70c-98 0 -180 -36 -245 -105l-105 109c83 83 194 144 356 144zM377 186c67 0 114 -44 114 -100c0 -57 -47 -99 -114 -99
c-68 0 -115 42 -115 99c0 56 47 100 115 100z" />
    <glyph glyph-name="numbersign" unicode="#" horiz-adv-x="964" 
d="M925 424h-167l-38 -135h169v-120h-204l-48 -169h-161l48 169h-190l-49 -169h-161l48 169h-133v120h168l38 135h-171v120h205l45 156h161l-44 -156h190l45 156h161l-45 -156h133v-120zM558 289l39 135h-191l-38 -135h190z" />
    <glyph glyph-name="period" unicode="." horiz-adv-x="319" 
d="M160 -13c-68 0 -115 42 -115 99c0 56 47 100 115 100c67 0 114 -44 114 -100c0 -57 -47 -99 -114 -99z" />
    <glyph glyph-name="question" unicode="?" horiz-adv-x="764" 
d="M300 236v171c140 16 216 39 216 96c0 55 -71 70 -141 70c-98 0 -180 -36 -245 -105l-105 109c83 83 194 144 356 144c166 0 343 -64 343 -213c0 -120 -114 -182 -268 -192v-80h-156zM377 -13c-68 0 -115 42 -115 99c0 56 47 100 115 100c67 0 114 -44 114 -100
c0 -57 -47 -99 -114 -99z" />
    <glyph glyph-name="questiondown" unicode="&#xbf;" horiz-adv-x="764" 
d="M387 567c68 0 115 -42 115 -99c0 -56 -47 -100 -115 -100c-67 0 -114 44 -114 100c0 57 47 99 114 99zM463 318v-171c-139 -16 -215 -38 -215 -95c0 -56 71 -71 141 -71c98 0 179 37 245 106l105 -109c-83 -83 -194 -145 -356 -145c-166 0 -343 64 -343 214
c0 119 114 181 267 192v79h156z" />
    <glyph glyph-name="quotedbl" unicode="&#x22;" horiz-adv-x="563" 
d="M67 740h167v-318h-167v318zM329 740h167v-318h-167v318z" />
    <glyph glyph-name="quotesingle" unicode="'" horiz-adv-x="301" 
d="M67 740h167v-318h-167v318z" />
    <glyph glyph-name="semicolon" unicode=";" horiz-adv-x="323" 
d="M160 368c-68 0 -115 43 -115 100c0 56 47 100 115 100c67 0 114 -44 114 -100c0 -57 -47 -100 -114 -100zM158 186c74 0 120 -58 120 -126c0 -74 -49 -180 -156 -242l-40 56c50 37 84 73 97 120c-4 -5 -13 -7 -28 -7c-58 0 -105 42 -105 100c0 55 47 99 112 99z" />
    <glyph glyph-name="slash" unicode="/" horiz-adv-x="770" 
d="M235 -100h-212l512 880h212z" />
    <glyph glyph-name="underscore" unicode="_" horiz-adv-x="671" 
d="M669 -181h-668v138h668v-138z" />
    <glyph glyph-name="periodcentered.case" horiz-adv-x="319" 
d="M160 256c-68 0 -115 43 -115 100c0 56 47 100 115 100c67 0 114 -44 114 -100c0 -57 -47 -100 -114 -100z" />
    <glyph glyph-name="bullet.case" horiz-adv-x="430" 
d="M215 213c-91 0 -156 62 -156 143c0 82 65 144 156 144c90 0 155 -62 155 -144c0 -81 -65 -143 -155 -143z" />
    <glyph glyph-name="exclamdown.case" horiz-adv-x="359" 
d="M179 713c67 0 114 -42 114 -99c0 -56 -47 -100 -114 -100c-68 0 -115 44 -115 100c0 57 47 99 115 99zM62 0l32 450h171l32 -450h-235z" />
    <glyph glyph-name="questiondown.case" horiz-adv-x="764" 
d="M387 720c68 0 115 -42 115 -99c0 -56 -47 -100 -115 -100c-67 0 -114 44 -114 100c0 57 47 99 114 99zM463 471v-171c-139 -16 -215 -39 -215 -96c0 -55 71 -71 141 -71c98 0 179 37 245 106l105 -109c-83 -83 -194 -145 -356 -145c-166 0 -343 65 -343 214
c0 120 114 182 267 192v80h156z" />
    <glyph glyph-name="braceleft" unicode="{" horiz-adv-x="517" 
d="M348 449c0 -90 -53 -155 -146 -158c93 -5 146 -71 146 -160c0 -82 47 -116 101 -116h30v-135h-55c-138 0 -242 51 -242 201c0 131 -73 167 -177 167v85c104 0 177 36 177 167c0 150 104 200 242 200h55v-135h-30c-54 0 -101 -33 -101 -116z" />
    <glyph glyph-name="braceright" unicode="}" horiz-adv-x="517" 
d="M169 449c0 83 -47 116 -101 116h-30v135h55c138 0 242 -50 242 -200c0 -131 73 -167 177 -167v-85c-104 0 -177 -36 -177 -167c0 -150 -104 -201 -242 -201h-55v135h30c54 0 101 34 101 116c0 89 53 155 146 160c-93 3 -146 68 -146 158z" />
    <glyph glyph-name="bracketleft" unicode="[" horiz-adv-x="464" 
d="M426 565h-180v-550h180v-135h-344v820h344v-135z" />
    <glyph glyph-name="bracketright" unicode="]" horiz-adv-x="464" 
d="M38 565v135h344v-820h-344v135h180v550h-180z" />
    <glyph glyph-name="parenleft" unicode="(" horiz-adv-x="468" 
d="M213 290c0 -164 93 -269 217 -307l-56 -126c-184 39 -334 208 -334 433s150 394 334 433l56 -126c-124 -38 -217 -142 -217 -307z" />
    <glyph glyph-name="parenright" unicode=")" horiz-adv-x="468" 
d="M255 290c0 165 -93 269 -217 307l56 126c184 -39 333 -208 333 -433s-149 -394 -333 -433l-56 126c124 38 217 143 217 307z" />
    <glyph glyph-name="braceleft.case" horiz-adv-x="517" 
d="M348 509c0 -90 -53 -155 -146 -158c93 -5 146 -71 146 -160c0 -82 47 -116 101 -116h30v-135h-55c-138 0 -242 51 -242 201c0 131 -73 167 -177 167v85c104 0 177 36 177 167c0 150 104 200 242 200h55v-135h-30c-54 0 -101 -33 -101 -116z" />
    <glyph glyph-name="braceright.case" horiz-adv-x="517" 
d="M169 509c0 83 -47 116 -101 116h-30v135h55c138 0 242 -50 242 -200c0 -131 73 -167 177 -167v-85c-104 0 -177 -36 -177 -167c0 -150 -104 -201 -242 -201h-55v135h30c54 0 101 34 101 116c0 89 53 155 146 160c-93 3 -146 68 -146 158z" />
    <glyph glyph-name="bracketleft.case" horiz-adv-x="464" 
d="M426 625h-180v-550h180v-135h-344v820h344v-135z" />
    <glyph glyph-name="bracketright.case" horiz-adv-x="464" 
d="M38 625v135h344v-820h-344v135h180v550h-180z" />
    <glyph glyph-name="parenleft.case" horiz-adv-x="468" 
d="M213 350c0 -164 93 -269 217 -307l-56 -126c-184 39 -334 208 -334 433s150 394 334 433l56 -126c-124 -38 -217 -142 -217 -307z" />
    <glyph glyph-name="parenright.case" horiz-adv-x="468" 
d="M255 350c0 165 -93 269 -217 307l56 126c184 -39 334 -208 334 -433s-150 -394 -334 -433l-56 126c124 38 217 143 217 307z" />
    <glyph glyph-name="emdash" unicode="&#x2014;" horiz-adv-x="1007" 
d="M942 226h-877v155h877v-155z" />
    <glyph glyph-name="endash" unicode="&#x2013;" horiz-adv-x="797" 
d="M732 226h-667v155h667v-155z" />
    <glyph glyph-name="hyphen" unicode="-" horiz-adv-x="608" 
d="M543 226h-478v155h478v-155z" />
    <glyph glyph-name="emdash.case" horiz-adv-x="1007" 
d="M942 278h-877v156h877v-156z" />
    <glyph glyph-name="endash.case" horiz-adv-x="797" 
d="M732 278h-667v156h667v-156z" />
    <glyph glyph-name="hyphen.case" horiz-adv-x="608" 
d="M543 278h-478v156h478v-156z" />
    <glyph glyph-name="guillemotleft" unicode="&#xab;" horiz-adv-x="752" 
d="M527 528l-211 -224l211 -224h184l-211 224l211 224h-184zM240 528l-211 -224l211 -224h184l-211 224l211 224h-184z" />
    <glyph glyph-name="guillemotright" unicode="&#xbb;" horiz-adv-x="752" 
d="M225 528h-184l211 -224l-211 -224h184l211 224zM512 528h-184l210 -224l-210 -224h184l210 224z" />
    <glyph glyph-name="guilsinglleft" unicode="&#x2039;" horiz-adv-x="465" 
d="M240 528l-211 -224l211 -224h184l-211 224l211 224h-184z" />
    <glyph glyph-name="guilsinglright" unicode="&#x203a;" horiz-adv-x="465" 
d="M225 528h-184l211 -224l-211 -224h184l211 224z" />
    <glyph glyph-name="quotedblbase" unicode="&#x201e;" horiz-adv-x="586" 
d="M158 186c74 0 120 -58 120 -126c0 -74 -49 -180 -156 -242l-40 56c50 37 84 73 97 120c-4 -5 -13 -7 -28 -7c-58 0 -105 42 -105 100c0 55 47 99 112 99zM420 186c75 0 120 -58 120 -126c0 -74 -49 -180 -155 -242l-40 56c50 37 83 73 97 120c-5 -5 -13 -7 -28 -7
c-59 0 -106 42 -106 100c0 55 47 99 112 99z" />
    <glyph glyph-name="quotedblleft" unicode="&#x201c;" horiz-adv-x="586" 
d="M166 362c-75 0 -120 58 -120 126c0 74 49 180 155 242l40 -56c-50 -37 -83 -73 -97 -120c5 5 13 7 28 7c59 0 106 -42 106 -100c0 -55 -47 -99 -112 -99zM428 362c-75 0 -120 58 -120 126c0 74 49 180 156 242l39 -56c-50 -37 -83 -73 -97 -120c5 5 13 8 28 8
c59 0 106 -43 106 -100c0 -56 -47 -100 -112 -100z" />
    <glyph glyph-name="quotedblright" unicode="&#x201d;" horiz-adv-x="586" 
d="M158 717c74 0 120 -58 120 -125c0 -75 -49 -181 -156 -243l-40 56c50 38 84 73 97 120c-4 -5 -13 -7 -28 -7c-58 0 -105 42 -105 100c0 55 47 99 112 99zM420 717c75 0 120 -58 120 -126c0 -74 -49 -180 -155 -242l-40 56c50 37 83 73 97 120c-5 -5 -13 -7 -28 -7
c-59 0 -106 42 -106 100c0 55 47 99 112 99z" />
    <glyph glyph-name="quoteleft" unicode="&#x2018;" horiz-adv-x="323" 
d="M165 363c-74 0 -120 58 -120 126c0 74 49 180 156 242l40 -56c-50 -37 -84 -73 -97 -120c4 5 13 7 28 7c58 0 105 -42 105 -100c0 -55 -47 -99 -112 -99z" />
    <glyph glyph-name="quoteright" unicode="&#x2019;" horiz-adv-x="323" 
d="M158 717c74 0 120 -58 120 -126c0 -74 -49 -180 -156 -242l-40 56c50 37 84 73 97 120c-4 -5 -13 -7 -28 -7c-58 0 -105 42 -105 100c0 55 47 99 112 99z" />
    <glyph glyph-name="quotesinglbase" unicode="&#x201a;" horiz-adv-x="323" 
d="M158 186c74 0 120 -58 120 -126c0 -74 -49 -180 -156 -242l-40 56c50 37 84 73 97 120c-4 -5 -13 -7 -28 -7c-58 0 -105 42 -105 100c0 55 47 99 112 99z" />
    <glyph glyph-name="guillemotleft.case" horiz-adv-x="752" 
d="M527 581l-211 -224l211 -224h184l-211 224l211 224h-184zM240 580l-211 -224l211 -223h184l-211 223l211 224h-184z" />
    <glyph glyph-name="guillemotright.case" horiz-adv-x="752" 
d="M225 581h-184l211 -224l-211 -224h184l211 224zM512 580h-184l211 -224l-211 -223h184l211 223z" />
    <glyph glyph-name="guilsinglleft.case" horiz-adv-x="465" 
d="M240 580l-211 -224l211 -223h184l-211 223l211 224h-184z" />
    <glyph glyph-name="guilsinglright.case" horiz-adv-x="465" 
d="M225 580h-184l211 -224l-211 -223h184l211 223z" />
    <glyph glyph-name="backslash.sc" horiz-adv-x="734" 
d="M236 714l472 -814h-211l-472 814h211z" />
    <glyph glyph-name="exclam.sc" horiz-adv-x="368" 
d="M67 614h235l-32 -364h-171zM184 -13c-68 0 -115 42 -115 99c0 56 47 100 115 100c67 0 114 -44 114 -100c0 -57 -47 -99 -114 -99z" />
    <glyph glyph-name="exclamdown.sc" horiz-adv-x="359" 
d="M179 627c67 0 114 -42 114 -99c0 -56 -47 -100 -114 -100c-68 0 -115 44 -115 100c0 57 47 99 115 99zM62 0l32 364h171l32 -364h-235z" />
    <glyph glyph-name="numbersign.sc" horiz-adv-x="892" 
d="M852 369h-151l-33 -112h152v-111h-186l-43 -146h-155l44 146h-166l-44 -146h-155l43 146h-119v111h152l34 112h-154v111h187l40 134h155l-40 -134h166l40 134h155l-40 -134h118v-111zM513 257l33 112h-166l-33 -112h166z" />
    <glyph glyph-name="question.sc" horiz-adv-x="708" 
d="M274 223v137c124 12 189 33 189 76c0 42 -60 55 -121 55c-87 0 -155 -30 -214 -88l-102 105c78 75 176 126 324 126c155 0 321 -56 321 -191c0 -106 -102 -158 -241 -167v-53h-156zM352 -13c-68 0 -115 42 -115 99c0 56 47 100 115 100c67 0 114 -44 114 -100
c0 -57 -47 -99 -114 -99z" />
    <glyph glyph-name="questiondown.sc" horiz-adv-x="707" 
d="M356 627c68 0 115 -42 115 -99c0 -56 -47 -100 -115 -100c-67 0 -114 44 -114 100c0 57 47 99 114 99zM434 392v-138c-124 -12 -189 -33 -189 -76c0 -42 59 -55 121 -55c87 0 154 31 213 88l103 -105c-78 -74 -177 -126 -324 -126c-155 0 -321 56 -321 191
c0 106 102 158 240 167v54h157z" />
    <glyph glyph-name="slash.sc" horiz-adv-x="734" 
d="M237 -100h-211l472 814h211z" />
    <glyph glyph-name="space" unicode=" " horiz-adv-x="261" 
 />
    <glyph glyph-name="cent" unicode="&#xa2;" horiz-adv-x="725" 
d="M690 221c-40 -79 -128 -140 -263 -150v-71h-84v71c-184 13 -299 110 -299 279s115 267 299 280v70h84v-70c135 -10 222 -71 263 -149l-142 -59c-26 44 -70 67 -121 74v-292c51 8 93 31 121 75zM216 350c0 -80 50 -130 127 -144v288c-77 -14 -127 -64 -127 -144z" />
    <glyph glyph-name="currency" unicode="&#xa4;" horiz-adv-x="797" 
d="M708 356c0 -67 -20 -125 -57 -171l94 -93l-87 -80l-105 98c-44 -20 -96 -31 -154 -31c-59 0 -111 11 -155 31l-104 -98l-88 80l94 93c-36 46 -56 104 -56 171c0 61 16 114 46 157l-84 83l88 80l88 -82c47 25 105 39 171 39s123 -14 170 -39l89 82l87 -80l-83 -83
c29 -43 46 -96 46 -157zM399 210c92 0 160 53 160 146s-68 146 -160 146c-93 0 -160 -53 -160 -146s67 -146 160 -146z" />
    <glyph glyph-name="dollar" unicode="$" horiz-adv-x="902" 
d="M861 232c0 -138 -124 -226 -352 -234v-102h-96v103c-154 10 -283 57 -381 135l106 120c71 -56 164 -93 275 -103v127c-190 19 -352 63 -352 207c0 140 153 209 352 217v92h96v-93c124 -8 236 -43 319 -102l-100 -121c-64 44 -136 65 -219 72v-112
c208 -18 352 -55 352 -206zM263 499c0 -37 58 -46 150 -53v107c-74 -2 -150 -14 -150 -54zM509 148c100 3 150 19 150 60s-43 52 -150 62v-122z" />
    <glyph glyph-name="Euro" unicode="&#x20ac;" horiz-adv-x="905" 
d="M522 127c93 0 156 43 193 111l154 -79c-49 -98 -171 -183 -343 -183c-207 0 -352 100 -391 274h-101v67h91c-1 11 -1 22 -1 33s0 22 1 33h-91v67h101c39 174 184 274 391 274c172 0 294 -85 343 -183l-154 -79c-37 68 -100 111 -193 111c-96 0 -164 -46 -194 -123h283
v-67h-299c-1 -11 -2 -22 -2 -33s1 -22 2 -33h299v-67h-283c30 -77 98 -123 194 -123z" />
    <glyph glyph-name="florin" unicode="&#x192;" horiz-adv-x="709" 
d="M569 582c-48 0 -82 -25 -87 -74l-10 -96h161l-11 -108h-161l-14 -137c-13 -119 -107 -191 -224 -191c-61 0 -133 17 -175 39l41 121c15 -8 52 -18 84 -18c48 0 80 25 86 74l11 112h-161l11 108h162l12 121c12 119 107 191 224 191c61 0 134 -17 175 -39l-42 -121
c-14 8 -51 18 -82 18z" />
    <glyph glyph-name="uni20A8" unicode="&#x20a8;" horiz-adv-x="887" 
d="M847 586h-153c16 -22 27 -47 34 -75h119v-114h-120c-20 -83 -83 -139 -170 -168l199 -229h-205l-174 207h-319v115h339c85 0 136 26 156 75h-495v114h495c-21 48 -72 75 -156 75h-339v114h789v-114z" />
    <glyph glyph-name="sterling" unicode="&#xa3;" horiz-adv-x="772" 
d="M369 138h358v-138h-555h-128v138h128v153h-128v119h128v40c0 139 106 274 307 274c108 0 196 -41 241 -86l-73 -121c-38 33 -77 51 -134 51c-94 0 -144 -50 -144 -139v-19h300v-119h-300v-153z" />
    <glyph glyph-name="yen" unicode="&#xa5;" horiz-adv-x="885" 
d="M858 700l-245 -347h141v-80h-197l-12 -17v-47h209v-79h-209v-130h-204v130h-210v79h210v47l-12 17h-198v80h142l-246 347h225l192 -298l191 298h223z" />
    <glyph glyph-name="approxequal" unicode="&#x2248;" horiz-adv-x="735" 
d="M590 529l79 -129c-34 -38 -94 -70 -164 -70c-94 0 -168 50 -255 50c-50 0 -77 -18 -106 -44l-78 128c33 38 94 70 165 70c92 0 166 -49 254 -49c50 0 80 17 105 44zM590 272l79 -128c-34 -38 -94 -70 -164 -70c-94 0 -168 49 -255 49c-50 0 -77 -18 -106 -44l-78 128
c33 38 94 71 165 71c92 0 166 -50 254 -50c50 0 80 17 105 44z" />
    <glyph glyph-name="asciitilde" unicode="~" horiz-adv-x="735" 
d="M590 401l80 -129c-34 -38 -95 -70 -165 -70c-93 0 -167 50 -254 50c-51 0 -77 -18 -106 -45l-78 128c33 38 93 71 165 71c92 0 166 -50 254 -50c50 0 80 18 104 45z" />
    <glyph glyph-name="divide" unicode="&#xf7;" horiz-adv-x="735" 
d="M366 436c-65 0 -102 38 -102 81c0 42 37 80 102 80c64 0 101 -38 101 -80c0 -43 -37 -81 -101 -81zM670 228h-605v151h605v-151zM366 9c-65 0 -102 39 -102 80c0 43 37 81 102 81c64 0 101 -38 101 -81c0 -41 -37 -80 -101 -80z" />
    <glyph glyph-name="emptyset" unicode="&#x2205;" horiz-adv-x="802" 
d="M676 553c48 -49 74 -116 74 -197c0 -183 -134 -295 -349 -295c-72 0 -134 12 -186 36l-84 -85l-75 73l73 71c-49 50 -76 118 -76 200c0 183 133 295 348 295c74 0 138 -13 191 -38l78 79l75 -72zM239 356c0 -30 6 -55 17 -76l124 120l93 94c-21 7 -45 11 -72 11
c-98 0 -162 -53 -162 -149zM401 207c99 0 162 53 162 149c0 28 -6 52 -16 72l-102 -99l-111 -112c20 -6 43 -10 67 -10z" />
    <glyph glyph-name="equal" unicode="=" horiz-adv-x="735" 
d="M670 369h-605v150h605v-150zM670 107h-605v150h605v-150z" />
    <glyph glyph-name="greater" unicode="&#x3e;" horiz-adv-x="735" 
d="M101 571v-158l394 -116l-394 -116v-158l557 193v163z" />
    <glyph glyph-name="greaterequal" unicode="&#x2265;" horiz-adv-x="735" 
d="M95 645v-138l379 -93l-379 -95v-137l557 157v149zM652 9h-557v128h557v-128z" />
    <glyph glyph-name="infinity" unicode="&#x221e;" horiz-adv-x="1045" 
d="M753 517c145 0 244 -89 244 -224s-99 -224 -244 -224c-107 0 -176 51 -231 113c-54 -62 -123 -113 -230 -113c-146 0 -245 89 -245 224s99 224 245 224c107 0 176 -51 230 -113c55 62 124 113 231 113zM296 198c58 0 99 42 140 95c-41 53 -82 95 -140 95
c-57 0 -100 -38 -100 -95s43 -95 100 -95zM748 198c57 0 100 38 100 95s-43 95 -100 95c-58 0 -98 -42 -139 -95c41 -53 81 -95 139 -95z" />
    <glyph glyph-name="integral" unicode="&#x222b;" horiz-adv-x="463" 
d="M340 760c38 0 83 -7 122 -25l-24 -120c-12 3 -23 4 -33 4c-49 0 -79 -26 -79 -75v-443v-69c0 -120 -85 -192 -203 -192c-39 0 -84 7 -123 25l24 120c12 -3 23 -4 34 -4c48 0 78 26 78 76v442v69c0 120 87 192 204 192z" />
    <glyph glyph-name="less" unicode="&#x3c;" horiz-adv-x="735" 
d="M634 571l-557 -192v-163l557 -193v158l-394 116l394 116v158z" />
    <glyph glyph-name="lessequal" unicode="&#x2264;" horiz-adv-x="735" 
d="M640 645l-557 -157v-149l557 -157v137l-380 95l380 93v138zM83 9v128h557v-128h-557z" />
    <glyph glyph-name="logicalnot" unicode="&#xac;" horiz-adv-x="735" 
d="M49 364h625v-311h-163v168h-462v143z" />
    <glyph glyph-name="minus" unicode="&#x2212;" horiz-adv-x="735" 
d="M670 228h-605v151h605v-151z" />
    <glyph glyph-name="multiply" unicode="&#xd7;" horiz-adv-x="735" 
d="M640 473l-167 -168l167 -167l-105 -106l-167 168l-168 -168l-105 106l168 167l-168 168l105 105l168 -168l167 168z" />
    <glyph glyph-name="notequal" unicode="&#x2260;" horiz-adv-x="735" 
d="M670 369h-208l-51 -112h259v-150h-329l-44 -97h-141l45 97h-136v150h205l52 112h-257v150h326l46 98h139l-45 -98h139v-150z" />
    <glyph glyph-name="partialdiff" unicode="&#x2202;" horiz-adv-x="800" 
d="M763 310c0 -232 -145 -334 -363 -334s-363 98 -363 277c0 178 149 257 287 257c86 0 208 -20 254 -105c-42 104 -191 195 -393 211l26 146c410 -38 552 -266 552 -452zM399 121c101 0 177 41 177 132c0 90 -76 132 -177 132c-99 0 -176 -42 -176 -132
c0 -91 77 -132 176 -132z" />
    <glyph glyph-name="percent" unicode="%" horiz-adv-x="918" 
d="M218 373c-113 0 -194 75 -194 172s81 172 194 172s193 -75 193 -172s-80 -172 -193 -172zM665 700h134l-545 -700h-135zM218 472c47 0 80 25 80 73c0 47 -33 72 -80 72s-80 -25 -80 -72c0 -48 33 -73 80 -73zM700 -17c-113 0 -193 75 -193 172c0 98 80 172 193 172
s193 -74 193 -172c0 -97 -80 -172 -193 -172zM700 83c47 0 80 25 80 72c0 48 -33 73 -80 73c-46 0 -80 -25 -80 -73c0 -47 34 -72 80 -72z" />
    <glyph glyph-name="perthousand" unicode="&#x2030;" horiz-adv-x="1336" 
d="M218 373c-113 0 -194 75 -194 172s81 172 194 172s193 -75 193 -172s-80 -172 -193 -172zM665 700h134l-545 -700h-135zM218 472c47 0 80 25 80 73c0 47 -33 72 -80 72s-80 -25 -80 -72c0 -48 33 -73 80 -73zM700 -17c-113 0 -193 75 -193 172c0 98 80 172 193 172
s193 -74 193 -172c0 -97 -80 -172 -193 -172zM1119 -17c-113 0 -194 75 -194 172c0 98 81 172 194 172s193 -74 193 -172c0 -97 -80 -172 -193 -172zM700 83c47 0 80 25 80 72c0 48 -33 73 -80 73c-46 0 -80 -25 -80 -73c0 -47 34 -72 80 -72zM1119 83c46 0 80 25 80 72
c0 48 -34 73 -80 73c-47 0 -80 -25 -80 -73c0 -47 33 -72 80 -72z" />
    <glyph glyph-name="plus" unicode="+" horiz-adv-x="735" 
d="M670 378v-149h-224v-192h-156v192h-225v149h225v191h156v-191h224z" />
    <glyph glyph-name="plusminus" unicode="&#xb1;" horiz-adv-x="735" 
d="M441 497h229v-134h-229v-176h-148v176h-228v134h228v175h148v-175zM65 9v134h605v-134h-605z" />
    <glyph glyph-name="product" unicode="&#x220f;" horiz-adv-x="854" 
d="M772 700v-820h-183v666h-323v-666h-184v820h690z" />
    <glyph glyph-name="radical" unicode="&#x221a;" horiz-adv-x="767" 
d="M595 700h179l-317 -820h-154l-164 371h-123v139h172h70l115 -275z" />
    <glyph glyph-name="summation" unicode="&#x2211;" horiz-adv-x="735" 
d="M686 551h-372l283 -214v-83l-286 -225h378v-149h-650v127l364 288l-361 278v127h644v-149z" />
    <glyph glyph-name="percent.osf" horiz-adv-x="918" 
d="M218 301c-113 0 -194 75 -194 172s81 172 194 172s193 -75 193 -172s-80 -172 -193 -172zM663 628h136l-544 -628h-136zM218 400c47 0 80 25 80 73c0 47 -33 72 -80 72s-80 -25 -80 -72c0 -48 33 -73 80 -73zM700 -17c-113 0 -193 75 -193 172c0 98 80 172 193 172
s193 -74 193 -172c0 -97 -80 -172 -193 -172zM700 83c47 0 80 25 80 72c0 48 -33 73 -80 73c-46 0 -80 -25 -80 -73c0 -47 34 -72 80 -72z" />
    <glyph glyph-name="perthousand.osf" horiz-adv-x="1336" 
d="M218 301c-113 0 -194 75 -194 172s81 172 194 172s193 -75 193 -172s-80 -172 -193 -172zM663 628h136l-544 -628h-136zM218 400c47 0 80 25 80 73c0 47 -33 72 -80 72s-80 -25 -80 -72c0 -48 33 -73 80 -73zM700 -17c-113 0 -193 75 -193 172c0 98 80 172 193 172
s193 -74 193 -172c0 -97 -80 -172 -193 -172zM1119 -17c-113 0 -194 75 -194 172c0 98 81 172 194 172s193 -74 193 -172c0 -97 -80 -172 -193 -172zM700 83c47 0 80 25 80 72c0 48 -33 73 -80 73c-46 0 -80 -25 -80 -73c0 -47 34 -72 80 -72zM1119 83c46 0 80 25 80 72
c0 48 -34 73 -80 73c-47 0 -80 -25 -80 -73c0 -47 33 -72 80 -72z" />
    <glyph glyph-name="arrowup" unicode="&#x2191;" horiz-adv-x="963" 
d="M847 375l-96 -97l-186 189v-507h-168v506l-185 -188l-96 97l365 365z" />
    <glyph glyph-name="uni2197" unicode="&#x2197;" horiz-adv-x="963" 
d="M245 648h517v-517h-137v264l-357 -357l-115 115l358 357h-266v138z" />
    <glyph glyph-name="arrowright" unicode="&#x2192;" horiz-adv-x="963" 
d="M517 707l365 -365l-365 -366l-96 96l188 186h-507v168h507l-188 185z" />
    <glyph glyph-name="uni2198" unicode="&#x2198;" horiz-adv-x="963" 
d="M625 572h137v-517h-517v138h266l-358 358l115 114l357 -357v264z" />
    <glyph glyph-name="arrowdown" unicode="&#x2193;" horiz-adv-x="963" 
d="M751 422l96 -97l-366 -365l-365 365l96 97l185 -188v506h168v-507z" />
    <glyph glyph-name="uni2199" unicode="&#x2199;" horiz-adv-x="963" 
d="M810 551l-358 -358h265v-138h-517v517h138v-264l357 357z" />
    <glyph glyph-name="arrowleft" unicode="&#x2190;" horiz-adv-x="963" 
d="M861 426v-168h-507l188 -186l-96 -96l-365 366l365 365l96 -96l-188 -185h507z" />
    <glyph glyph-name="uni2196" unicode="&#x2196;" horiz-adv-x="963" 
d="M810 153l-115 -115l-357 357v-264h-138v517h517v-138h-265z" />
    <glyph glyph-name="lozenge" unicode="&#x25ca;" horiz-adv-x="781" 
d="M486 700l266 -344l-266 -356h-192l-266 356l266 344h192zM390 132l164 224l-164 217l-164 -217z" />
    <glyph glyph-name="bar" unicode="|" horiz-adv-x="343" 
d="M80 -120v820h184v-820h-184z" />
    <glyph glyph-name="brokenbar" unicode="&#xa6;" horiz-adv-x="343" 
d="M80 370v330h184v-330h-184zM264 215v-335h-184v335h184z" />
    <glyph glyph-name="at" unicode="@" horiz-adv-x="1127" 
d="M561 694c319 0 518 -173 518 -417c0 -180 -72 -245 -186 -245c-88 0 -158 40 -190 100c-49 -69 -136 -105 -223 -105c-149 0 -266 99 -266 251c0 153 117 250 266 250c87 0 167 -35 216 -105l33 87h129v-297c0 -89 33 -114 66 -114c52 0 86 68 86 178
c0 241 -204 354 -449 354s-449 -113 -449 -354c0 -242 204 -354 449 -354c124 0 226 24 294 70l33 -52c-69 -55 -180 -81 -327 -81c-320 0 -519 173 -519 417s199 417 519 417zM531 146c65 0 123 26 160 90v81c-37 63 -95 89 -160 89c-92 0 -150 -51 -150 -130
c0 -78 58 -130 150 -130z" />
    <glyph glyph-name="ampersand" unicode="&#x26;" horiz-adv-x="926" 
d="M932 0h-233l-41 31c-64 -33 -144 -51 -237 -51c-217 0 -376 102 -376 238c0 78 52 141 144 177c-39 38 -62 77 -62 127c0 111 105 198 289 198c191 0 292 -86 353 -185l-164 -63c-56 88 -119 113 -183 113c-62 0 -105 -23 -105 -64c0 -36 31 -61 100 -115l234 -184
c18 30 30 69 34 115h172c-5 -82 -33 -155 -82 -213zM431 116c35 0 68 5 99 14l-248 191c-26 -25 -38 -55 -38 -84c0 -76 79 -121 187 -121z" />
    <glyph glyph-name="paragraph" unicode="&#xb6;" horiz-adv-x="956" 
d="M328 700h546v-700h-162v560h-106v-560h-161v217h-117c-176 0 -303 77 -303 242c0 160 127 241 303 241zM445 353v207h-120c-78 0 -130 -31 -130 -104c0 -72 52 -103 130 -103h120z" />
    <glyph glyph-name="copyright" unicode="&#xa9;" horiz-adv-x="989" 
d="M495 -23c-275 0 -453 149 -453 373s178 373 453 373c274 0 452 -149 452 -373s-178 -373 -452 -373zM495 25c235 0 400 117 400 325s-165 326 -400 326s-402 -118 -402 -326s167 -325 402 -325zM775 223c-48 -71 -141 -131 -283 -131c-179 0 -304 95 -304 259
s125 259 304 259c141 0 234 -60 276 -130l-123 -58c-38 51 -82 70 -141 70c-98 0 -159 -53 -159 -141s61 -141 159 -141c60 0 104 20 142 72z" />
    <glyph glyph-name="registered" unicode="&#xae;" horiz-adv-x="577" 
d="M288 710c130 0 246 -80 246 -215s-116 -215 -246 -215s-244 80 -244 215s114 215 244 215zM289 312c113 0 209 65 209 183c0 119 -96 183 -209 183c-114 0 -209 -64 -209 -183c0 -118 95 -183 209 -183zM422 535c0 -36 -23 -60 -58 -70l64 -74h-80l-58 68h-51v-68h-71
v220h152c58 0 102 -25 102 -76zM239 561v-55h70c26 0 40 7 40 27c0 21 -14 28 -40 28h-70z" />
    <glyph glyph-name="uni2117" unicode="&#x2117;" horiz-adv-x="989" 
d="M495 723c274 0 452 -149 452 -373s-178 -373 -452 -373c-275 0 -453 149 -453 373s178 373 453 373zM495 25c235 0 400 117 400 325s-165 326 -400 326s-402 -118 -402 -326s167 -325 402 -325zM576 593c129 0 235 -55 235 -171c0 -117 -106 -172 -235 -172h-172v-142
h-156v485h328zM561 351c53 0 92 17 92 67c0 49 -39 67 -92 67h-157v-134h157z" />
    <glyph glyph-name="section" unicode="&#xa7;" horiz-adv-x="744" 
d="M623 174c45 -25 72 -63 72 -119c0 -109 -105 -199 -319 -199c-144 0 -257 44 -339 101l84 103c64 -44 148 -78 260 -78c78 0 136 17 136 54c0 38 -53 48 -152 56c-156 11 -304 51 -304 181c0 58 30 107 81 142c-48 26 -79 65 -79 123c0 121 131 186 314 186
c118 0 226 -32 299 -80l-84 -101c-55 35 -129 55 -215 55c-67 1 -138 -10 -138 -50c0 -37 64 -45 154 -51c172 -11 304 -52 304 -174c0 -56 -23 -110 -74 -149zM238 292c0 -43 62 -62 152 -68l45 -3c53 12 83 42 83 74c0 41 -49 63 -142 70c-9 0 -19 1 -28 1
c-61 -6 -110 -33 -110 -74z" />
    <glyph glyph-name="trademark" unicode="&#x2122;" horiz-adv-x="971" 
d="M402 700v-88h-128v-254h-110v254h-128v88h366zM784 700h112v-342h-106v206l-119 -159h-3l-117 159v-206h-107v342h114l112 -155z" />
    <glyph glyph-name="degree" unicode="&#xb0;" horiz-adv-x="425" 
d="M212 423c-100 0 -174 57 -174 147s74 147 174 147c102 0 176 -57 176 -147s-74 -147 -176 -147zM212 503c48 0 78 26 78 67s-30 67 -78 67c-47 0 -77 -26 -77 -67s30 -67 77 -67z" />
    <glyph glyph-name="estimated" unicode="&#x212e;" horiz-adv-x="950" 
d="M478 79c135 0 237 37 311 114l75 -79c-87 -87 -208 -138 -386 -138c-256 0 -436 138 -436 374s180 374 436 374c258 0 435 -141 437 -413h-117h-516v-189c52 -29 118 -43 196 -43zM671 577c-52 31 -117 45 -193 45c-78 0 -144 -15 -196 -43v-171h389v169z" />
    <glyph glyph-name="uni2113" unicode="&#x2113;" horiz-adv-x="614" 
d="M375 109c36 0 70 23 100 72l93 -86c-41 -76 -119 -115 -207 -115c-103 0 -207 54 -215 188c-28 -10 -57 -21 -84 -30l-36 102l120 47v269c0 146 110 204 215 204c106 0 216 -58 216 -206c0 -127 -76 -227 -250 -311c-8 -4 -18 -8 -27 -12v-38c0 -60 36 -84 75 -84z
M300 547v-193l7 3c90 49 116 115 116 190c0 60 -27 84 -62 84s-61 -24 -61 -84z" />
    <glyph glyph-name="asciicircum" unicode="^" horiz-adv-x="735" 
d="M74 260h162l131 291l130 -291h163l-218 440h-151z" />
    <glyph glyph-name="dagger" unicode="&#x2020;" horiz-adv-x="448" 
d="M391 625v-112h-105v-196h-125v196h-105v112h105v115h125v-115h105z" />
    <glyph glyph-name="daggerdbl" unicode="&#x2021;" horiz-adv-x="448" 
d="M391 561h-108v-65h108v-93h-108v-86h-119v86h-108v93h108v65h-108v93h108v86h119v-86h108v-93z" />
    <glyph glyph-name="minute" unicode="&#x2032;" horiz-adv-x="330" 
d="M135 700h171l-97 -295h-170z" />
    <glyph glyph-name="second" unicode="&#x2033;" horiz-adv-x="577" 
d="M135 700h171l-97 -295h-170zM382 700h170l-96 -295h-170z" />
    <glyph glyph-name="bar.case" horiz-adv-x="343" 
d="M80 -60v820h184v-820h-184z" />
    <glyph glyph-name="brokenbar.case" horiz-adv-x="343" 
d="M80 430v330h184v-330h-184zM264 275v-335h-184v335h184z" />
    <glyph glyph-name="at.case" horiz-adv-x="1039" 
d="M796 34c-64 -39 -176 -57 -279 -57c-294 0 -475 156 -475 373s181 373 475 373c293 0 475 -156 475 -373c0 -151 -66 -223 -173 -223c-79 0 -145 39 -174 97c-45 -67 -119 -99 -200 -99c-133 0 -242 85 -242 226s109 226 242 226c81 0 149 -33 194 -99l28 82h118v-265
c0 -83 32 -110 62 -110c51 0 77 75 77 165c0 215 -180 310 -407 310s-407 -95 -407 -310s180 -310 407 -310c97 0 186 18 249 48zM489 228c63 0 111 29 146 90v64c-35 60 -83 89 -146 89c-81 0 -136 -44 -136 -122c0 -77 55 -121 136 -121z" />
    <glyph glyph-name="registered.case" horiz-adv-x="989" 
d="M495 723c274 0 452 -149 452 -373s-178 -373 -452 -373c-275 0 -453 149 -453 373s178 373 453 373zM793 117c65 55 102 134 102 233c0 208 -165 326 -400 326s-402 -118 -402 -326s167 -325 402 -325c117 0 216 29 287 83h-154l-106 146h-136v-146h-156v485h328
c129 0 235 -53 235 -169c0 -81 -51 -131 -125 -154zM386 355h160c53 0 89 17 89 65s-36 65 -89 65h-160v-130z" />
    <glyph glyph-name="dagger.case" horiz-adv-x="568" 
d="M511 495v-131h-150v-364h-156v364h-149v131h149v205h156v-205h150z" />
    <glyph glyph-name="daggerdbl.case" horiz-adv-x="568" 
d="M511 420h-150v-140h150v-130h-150v-150h-156v150h-149v130h149v140h-149v131h149v149h156v-149h150v-131z" />
    <glyph glyph-name="bar.sc" horiz-adv-x="343" 
d="M80 -100v820h184v-820h-184z" />
    <glyph glyph-name="brokenbar.sc" horiz-adv-x="343" 
d="M80 390v330h184v-330h-184zM264 235v-335h-184v335h184z" />
    <glyph glyph-name="at.sc" horiz-adv-x="951" 
d="M736 31c-57 -35 -160 -52 -257 -52c-269 0 -435 138 -435 328c0 191 166 329 435 329c271 0 436 -138 436 -329c0 -135 -61 -195 -160 -195c-74 0 -135 32 -163 83c-41 -58 -109 -83 -182 -83c-121 0 -219 74 -219 195c0 122 98 198 219 198c73 0 135 -27 176 -84l27 70
h113v-231c0 -69 28 -92 56 -92c44 0 69 63 69 139c0 189 -166 270 -372 270c-205 0 -370 -81 -370 -270s165 -269 370 -269c92 0 172 18 228 44zM454 209c54 0 97 22 127 71v53c-30 49 -73 71 -127 71c-72 0 -119 -37 -119 -98c0 -60 47 -97 119 -97z" />
    <glyph glyph-name="ampersand.sc" horiz-adv-x="861" 
d="M858 0h-219l-35 26c-59 -28 -130 -43 -213 -43c-199 0 -346 89 -346 209c0 69 47 123 134 155c-37 34 -59 68 -59 112c0 96 96 175 267 175c176 0 266 -77 324 -159l-154 -64c-54 77 -110 91 -163 91c-55 0 -84 -17 -84 -51c0 -28 22 -47 78 -89l211 -162
c16 25 28 58 32 98h163c-5 -73 -32 -138 -77 -189zM408 114c23 0 46 2 68 7l-210 157c-19 -20 -27 -42 -27 -63c0 -56 66 -101 169 -101z" />
    <glyph glyph-name="paragraph.sc" horiz-adv-x="925" 
d="M311 614h535v-614h-168v479h-90v-479h-168v177h-109c-167 0 -284 63 -284 219c0 151 117 218 284 218zM420 311v168h-101c-68 0 -121 -24 -121 -84c0 -61 53 -84 121 -84h101z" />
    <glyph glyph-name="copyright.sc" horiz-adv-x="915" 
d="M457 -21c-251 0 -416 132 -416 328c0 198 165 329 416 329c252 0 417 -131 417 -329c0 -196 -165 -328 -417 -328zM457 24c215 0 369 103 369 283c0 181 -154 284 -369 284s-368 -103 -368 -284c0 -180 153 -283 368 -283zM716 195c-44 -61 -130 -115 -262 -115
c-164 0 -279 83 -279 228s115 229 279 229c131 0 217 -56 254 -116l-118 -55c-33 42 -73 57 -123 57c-87 0 -139 -44 -139 -115s52 -115 139 -115c51 0 90 15 124 58z" />
    <glyph glyph-name="registered.sc" horiz-adv-x="915" 
d="M457 636c252 0 417 -131 417 -329c0 -196 -165 -328 -417 -328c-251 0 -416 132 -416 328c0 198 165 329 416 329zM731 105c60 48 95 116 95 202c0 181 -154 284 -369 284s-368 -103 -368 -284c0 -180 153 -283 368 -283c105 0 195 24 260 70h-144l-94 125h-114v-125
h-152v427h303c118 0 217 -46 217 -151c0 -71 -46 -115 -112 -136zM365 321h141c46 0 74 12 74 47s-28 47 -74 47h-141v-94z" />
    <glyph glyph-name="uni2117.sc" horiz-adv-x="915" 
d="M457 -20c-251 0 -416 131 -416 327c0 198 165 328 416 328c252 0 417 -130 417 -328c0 -196 -165 -327 -417 -327zM457 24c215 0 369 103 369 283c0 181 -154 283 -369 283s-368 -102 -368 -283c0 -180 153 -283 368 -283zM530 521c120 0 218 -49 218 -153
c0 -105 -98 -153 -218 -153h-150v-121h-151v427h301zM517 317c46 0 78 9 78 49s-32 49 -78 49h-137v-98h137z" />
    <glyph glyph-name="section.sc" horiz-adv-x="694" 
d="M586 155c38 -22 61 -55 61 -103c0 -98 -95 -179 -294 -179c-133 0 -238 39 -312 86l80 99c58 -36 135 -66 237 -66c68 0 118 12 118 41c0 28 -45 36 -133 42c-143 10 -280 47 -280 163c0 50 26 92 69 123c-41 24 -67 58 -67 109c0 107 121 166 290 166
c108 0 208 -27 275 -68l-80 -99c-50 29 -118 47 -196 48c-58 0 -119 -7 -119 -36c0 -28 55 -35 135 -41c157 -9 279 -45 279 -154c0 -49 -20 -96 -63 -131zM235 256c0 -34 53 -50 131 -54l35 -3c49 9 76 33 76 58c0 33 -43 52 -123 57c-5 1 -10 1 -15 1
c-57 -3 -104 -25 -104 -59z" />
    <glyph glyph-name="degree.sc" horiz-adv-x="425" 
d="M212 337c-100 0 -174 57 -174 148c0 89 74 146 174 146c102 0 176 -57 176 -146c0 -91 -74 -148 -176 -148zM212 417c48 0 78 27 78 68c0 40 -30 67 -78 67c-47 0 -77 -27 -77 -67c0 -41 30 -68 77 -68z" />
    <glyph glyph-name="cent.sc" horiz-adv-x="673" 
d="M638 195c-37 -68 -116 -124 -238 -135v-60h-86v60c-166 13 -271 99 -271 247s105 234 271 247v60h86v-60c122 -11 200 -67 237 -134l-136 -58c-24 36 -59 56 -101 62v-234c41 7 74 26 101 63zM209 307c0 -62 42 -102 105 -115v230c-63 -13 -105 -53 -105 -115z" />
    <glyph glyph-name="currency.sc" horiz-adv-x="740" 
d="M654 312c0 -57 -17 -107 -49 -146l84 -81l-84 -77l-96 86c-40 -16 -86 -25 -138 -25c-53 0 -100 9 -139 25l-96 -86l-85 77l84 81c-31 39 -48 89 -48 146c0 51 14 97 39 135l-75 72l85 77l80 -73c43 21 95 33 155 33c59 0 111 -12 153 -33l81 73l84 -77l-75 -72
c26 -38 40 -83 40 -135zM371 195c82 0 139 42 139 117c0 76 -57 118 -139 118c-83 0 -140 -42 -140 -118c0 -75 57 -117 140 -117z" />
    <glyph glyph-name="dagger.sc" horiz-adv-x="568" 
d="M511 424v-127h-151v-297h-153v297h-151v127h151v190h153v-190h151z" />
    <glyph glyph-name="daggerdbl.sc" horiz-adv-x="568" 
d="M511 370h-151v-120h151v-122h-151v-128h-153v128h-151v122h151v120h-151v122h151v128h153v-128h151v-122z" />
    <glyph glyph-name="dollar.sc" horiz-adv-x="834" 
d="M795 207c0 -127 -121 -204 -330 -209v-89h-78v90c-142 8 -261 49 -355 116l100 109c67 -47 153 -79 255 -88v105c-176 19 -328 62 -328 189c0 126 150 180 328 186v81h78v-81c115 -6 222 -36 301 -90l-96 -107c-59 39 -127 57 -205 62v-94c195 -18 330 -44 330 -180z
M253 440c0 -30 50 -38 134 -46v88c-67 -1 -134 -10 -134 -42zM465 134c90 2 136 15 136 49c0 31 -38 40 -136 50v-99z" />
    <glyph glyph-name="Euro.sc" horiz-adv-x="836" 
d="M479 125c83 0 139 36 171 93l149 -75c-43 -87 -156 -164 -314 -164c-190 0 -324 86 -361 239h-90v62h81c0 9 -1 18 -1 27s1 18 1 28h-81v61h90c37 153 172 240 361 240c158 0 271 -78 314 -165l-149 -75c-32 57 -88 94 -171 94c-80 0 -138 -35 -165 -94h243v-61h-260
c-1 -9 -2 -19 -2 -28s1 -18 2 -27h260v-62h-243c27 -58 85 -93 165 -93z" />
    <glyph glyph-name="minute.sc" horiz-adv-x="330" 
d="M135 614h171l-97 -295h-170z" />
    <glyph glyph-name="percent.sc" horiz-adv-x="918" 
d="M218 287c-113 0 -194 75 -194 172c0 98 81 172 194 172s193 -74 193 -172c0 -97 -80 -172 -193 -172zM664 614h135l-545 -614h-135zM218 387c47 0 80 25 80 72s-33 72 -80 72s-80 -25 -80 -72s33 -72 80 -72zM700 -17c-113 0 -193 75 -193 172c0 98 80 172 193 172
s193 -74 193 -172c0 -97 -80 -172 -193 -172zM700 83c47 0 80 25 80 72c0 48 -33 73 -80 73c-46 0 -80 -25 -80 -73c0 -47 34 -72 80 -72z" />
    <glyph glyph-name="perthousand.sc" horiz-adv-x="1336" 
d="M218 287c-113 0 -194 75 -194 172c0 98 81 172 194 172s193 -74 193 -172c0 -97 -80 -172 -193 -172zM664 614h135l-545 -614h-135zM218 387c47 0 80 25 80 72s-33 72 -80 72s-80 -25 -80 -72s33 -72 80 -72zM700 -17c-113 0 -193 75 -193 172c0 98 80 172 193 172
s193 -74 193 -172c0 -97 -80 -172 -193 -172zM1119 -17c-113 0 -194 75 -194 172c0 98 81 172 194 172s193 -74 193 -172c0 -97 -80 -172 -193 -172zM700 83c47 0 80 25 80 72c0 48 -33 73 -80 73c-46 0 -80 -25 -80 -73c0 -47 34 -72 80 -72zM1119 83c46 0 80 25 80 72
c0 48 -34 73 -80 73c-47 0 -80 -25 -80 -73c0 -47 33 -72 80 -72z" />
    <glyph glyph-name="uni20A8.sc" horiz-adv-x="821" 
d="M781 500h-128c9 -15 15 -31 20 -49h108v-114h-113c-21 -66 -75 -114 -147 -141l177 -196h-201l-150 173h-290v114h309c69 0 111 17 132 50h-441v114h441c-20 33 -63 49 -132 49h-309v114h724v-114z" />
    <glyph glyph-name="second.sc" horiz-adv-x="577" 
d="M135 614h171l-97 -295h-170zM382 614h170l-96 -295h-170z" />
    <glyph glyph-name="sterling.sc" horiz-adv-x="720" 
d="M353 132h323v-132h-514h-117v132h117v118h-117v114h117v31c0 123 99 241 285 241c101 0 181 -35 221 -73l-69 -118c-33 26 -68 40 -118 40c-83 0 -128 -38 -128 -111v-10h269v-114h-269v-118z" />
    <glyph glyph-name="yen.sc" horiz-adv-x="816" 
d="M791 614l-219 -301h124v-76h-179l-10 -14v-32h189v-75h-189v-116h-198v116h-189v75h189v32l-10 14h-179v76h124l-219 301h217l167 -251l166 251h216z" />
    <glyph glyph-name="florin.sc" horiz-adv-x="656" 
d="M513 499c-44 0 -73 -21 -78 -62l-7 -71h143l-10 -103h-145l-12 -111c-12 -107 -98 -173 -210 -173c-56 0 -124 15 -164 35l39 116c14 -5 48 -14 77 -14c43 0 70 19 76 61l9 86h-143l10 103h144l11 96c12 108 99 174 209 174c57 0 126 -15 165 -36l-39 -115
c-15 5 -49 14 -75 14z" />
    <glyph glyph-name="uni0326" unicode="&#x326;" horiz-adv-x="0" 
d="M-318 -52c75 0 120 -58 120 -126c0 -74 -49 -180 -155 -242l-40 55c50 38 83 74 97 121c-5 -5 -13 -8 -28 -8c-59 0 -106 43 -106 100c0 56 47 100 112 100z" />
    <glyph glyph-name="acute" unicode="&#xb4;" horiz-adv-x="599" 
d="M499 948l-237 -168h-145l137 168h245z" />
    <glyph glyph-name="breve" unicode="&#x2d8;" horiz-adv-x="599" 
d="M507 948c0 -65 -49 -176 -201 -176c-153 0 -202 111 -202 176h118c4 -35 32 -70 84 -70c50 0 79 35 82 70h119z" />
    <glyph glyph-name="caron" unicode="&#x2c7;" horiz-adv-x="599" 
d="M46 948l151 -168h206l150 168h-172l-81 -89l-81 89h-173z" />
    <glyph glyph-name="cedilla" unicode="&#xb8;" horiz-adv-x="599" 
d="M376 -60l-147 -162l-124 33l101 154z" />
    <glyph glyph-name="circumflex" unicode="&#x2c6;" horiz-adv-x="599" 
d="M46 780h172l80 89l81 -89h174l-150 168h-206z" />
    <glyph glyph-name="dieresis" unicode="&#xa8;" horiz-adv-x="599" 
d="M159 779c-55 0 -94 32 -94 80s39 79 94 79c54 0 94 -31 94 -79s-40 -80 -94 -80zM440 779c-55 0 -94 32 -94 80s39 79 94 79c54 0 94 -31 94 -79s-40 -80 -94 -80z" />
    <glyph glyph-name="dotaccent" unicode="&#x2d9;" horiz-adv-x="599" 
d="M300 779c-54 0 -92 30 -92 77c0 49 38 78 92 78s92 -29 92 -78c0 -47 -38 -77 -92 -77z" />
    <glyph glyph-name="grave" unicode="`" horiz-adv-x="599" 
d="M100 948h245l137 -168h-145z" />
    <glyph glyph-name="hungarumlaut" unicode="&#x2dd;" horiz-adv-x="599" 
d="M348 948l-165 -168h-172l164 168h173zM589 948l-165 -168h-172l165 168h172z" />
    <glyph glyph-name="macron" unicode="&#xaf;" horiz-adv-x="599" 
d="M67 927h465v-133h-465v133z" />
    <glyph glyph-name="ogonek" unicode="&#x2db;" horiz-adv-x="599" 
d="M402 -192c-20 -27 -63 -61 -141 -61c-81 0 -160 38 -160 119c0 66 51 127 154 143l92 -9c-54 -21 -112 -68 -112 -121c0 -36 29 -58 67 -58c27 0 51 10 68 27z" />
    <glyph glyph-name="ring" unicode="&#x2da;" horiz-adv-x="599" 
d="M306 769c-97 0 -163 42 -163 120s66 122 163 122c96 0 163 -44 163 -122s-67 -120 -163 -120zM251 889c0 -31 22 -50 55 -50s55 19 55 50s-22 50 -55 50s-55 -19 -55 -50z" />
    <glyph glyph-name="tilde" unicode="&#x2dc;" horiz-adv-x="599" 
d="M502 964l79 -121c-34 -38 -94 -70 -164 -70c-91 0 -144 50 -219 50c-47 0 -73 -18 -102 -45l-78 121c33 38 94 70 165 70c90 0 141 -49 218 -49c46 0 76 17 101 44z" />
    <glyph glyph-name="A.ss01" 
d="M726 0l-57 116h-402l-57 -116h-214l362 700h223l362 -700h-217zM338 261h260l-130 266z" />
    <glyph glyph-name="Aacute.ss01" 
d="M736 948l-238 -168h-144l137 168h245zM726 0l-57 116h-402l-57 -116h-214l362 700h223l362 -700h-217zM338 261h260l-130 266z" />
    <glyph glyph-name="Abreve.ss01" 
d="M470 772c-153 0 -202 111 -202 176h119c3 -35 31 -70 83 -70c51 0 79 35 82 70h119c0 -65 -49 -176 -201 -176zM726 0l-57 116h-402l-57 -116h-214l362 700h223l362 -700h-217zM338 261h260l-130 266z" />
    <glyph glyph-name="Acircumflex.ss01" 
d="M468 869l-80 -89h-172l151 168h205l151 -168h-174zM726 0l-57 116h-402l-57 -116h-214l362 700h223l362 -700h-217zM338 261h260l-130 266z" />
    <glyph glyph-name="Adieresis.ss01" 
d="M329 779c-55 0 -94 32 -94 80s39 79 94 79c54 0 94 -31 94 -79s-40 -80 -94 -80zM610 779c-55 0 -94 32 -94 80s39 79 94 79c54 0 94 -31 94 -79s-40 -80 -94 -80zM726 0l-57 116h-402l-57 -116h-214l362 700h223l362 -700h-217zM338 261h260l-130 266z" />
    <glyph glyph-name="Agrave.ss01" 
d="M585 780h-145l-237 168h245zM726 0l-57 116h-402l-57 -116h-214l362 700h223l362 -700h-217zM338 261h260l-130 266z" />
    <glyph glyph-name="Amacron.ss01" 
d="M702 927v-133h-465v133h465zM726 0l-57 116h-402l-57 -116h-214l362 700h223l362 -700h-217zM338 261h260l-130 266z" />
    <glyph glyph-name="Aogonek.ss01" 
d="M965 -152l32 -40c-20 -27 -63 -61 -141 -61c-81 0 -160 38 -160 119c0 57 38 110 115 134h-85l-57 116h-402l-57 -116h-214l362 700h223l362 -700h-1c-54 -21 -112 -68 -112 -121c0 -36 29 -58 67 -58c27 0 51 10 68 27zM338 261h260l-130 266z" />
    <glyph glyph-name="Aring.ss01" 
d="M469 769c-97 0 -162 42 -162 120s65 122 162 122s163 -44 163 -122s-66 -120 -163 -120zM469 939c-33 0 -54 -19 -54 -50s21 -50 54 -50s55 19 55 50s-22 50 -55 50zM726 0l-57 116h-402l-57 -116h-214l362 700h223l362 -700h-217zM338 261h260l-130 266z" />
    <glyph glyph-name="Aringacute.ss01" 
d="M469 769c-97 0 -162 42 -162 120c0 32 11 58 30 78l95 128h190l-112 -87c74 -11 122 -52 122 -119c0 -78 -66 -120 -163 -120zM524 889c0 31 -22 50 -55 50s-54 -19 -54 -50s21 -50 54 -50s55 19 55 50zM726 0l-57 116h-402l-57 -116h-214l362 700h223l362 -700h-217z
M338 261h260l-130 266z" />
    <glyph glyph-name="Atilde.ss01" 
d="M368 823c-47 0 -73 -18 -102 -45l-78 121c33 38 94 70 165 70c90 0 141 -49 218 -49c46 0 76 17 100 44l80 -121c-34 -38 -94 -70 -164 -70c-91 0 -144 50 -219 50zM726 0l-57 116h-402l-57 -116h-214l362 700h223l362 -700h-217zM338 261h260l-130 266z" />
    <glyph glyph-name="AE.ss01" horiz-adv-x="1448" 
d="M861 156h545v-156h-746v122h-346l-100 -122h-231l598 700h98h717v-156h-535v-141h441v-148h-441v-99zM428 261h232v281z" />
    <glyph glyph-name="AEacute.ss01" horiz-adv-x="1448" 
d="M1191 948l-238 -168h-144l137 168h245zM861 156h545v-156h-746v122h-346l-100 -122h-231l598 700h98h717v-156h-535v-141h441v-148h-441v-99zM428 261h232v281z" />
    <glyph glyph-name="E.ss01" horiz-adv-x="870" 
d="M283 156h546v-156h-747v700h736v-156h-535v-141h441v-148h-441v-99z" />
    <glyph glyph-name="Eacute.ss01" horiz-adv-x="870" 
d="M713 948l-237 -168h-145l137 168h245zM283 156h546v-156h-747v700h736v-156h-535v-141h441v-148h-441v-99z" />
    <glyph glyph-name="Ebreve.ss01" horiz-adv-x="870" 
d="M648 948c0 -65 -49 -176 -201 -176c-153 0 -202 111 -202 176h119c4 -35 32 -70 83 -70s79 35 83 70h118zM283 156h546v-156h-747v700h736v-156h-535v-141h441v-148h-441v-99z" />
    <glyph glyph-name="Ecaron.ss01" horiz-adv-x="870" 
d="M193 948l151 -168h206l150 168h-172l-81 -89l-81 89h-173zM283 156h546v-156h-747v700h736v-156h-535v-141h441v-148h-441v-99z" />
    <glyph glyph-name="Ecircumflex.ss01" horiz-adv-x="870" 
d="M193 780h173l79 89l82 -89h173l-150 168h-206zM283 156h546v-156h-747v700h736v-156h-535v-141h441v-148h-441v-99z" />
    <glyph glyph-name="Edieresis.ss01" horiz-adv-x="870" 
d="M306 779c-55 0 -94 32 -94 80s39 79 94 79c54 0 94 -31 94 -79s-40 -80 -94 -80zM588 779c-55 0 -95 32 -95 80s40 79 95 79c54 0 94 -31 94 -79s-40 -80 -94 -80zM283 156h546v-156h-747v700h736v-156h-535v-141h441v-148h-441v-99z" />
    <glyph glyph-name="Edotaccent.ss01" horiz-adv-x="870" 
d="M446 779c-54 0 -92 30 -92 77c0 49 38 78 92 78c55 0 92 -29 92 -78c0 -47 -37 -77 -92 -77zM283 156h546v-156h-747v700h736v-156h-535v-141h441v-148h-441v-99z" />
    <glyph glyph-name="Egrave.ss01" horiz-adv-x="870" 
d="M180 948h245l137 -168h-145zM283 156h546v-156h-747v700h736v-156h-535v-141h441v-148h-441v-99z" />
    <glyph glyph-name="Emacron.ss01" horiz-adv-x="870" 
d="M214 927h465v-133h-465v133zM283 156h546v-156h-747v700h736v-156h-535v-141h441v-148h-441v-99z" />
    <glyph glyph-name="Eogonek.ss01" horiz-adv-x="870" 
d="M851 -152l32 -40c-20 -27 -63 -61 -141 -61c-81 0 -160 38 -160 119c0 57 38 110 115 134h-615v700h736v-156h-535v-141h441v-148h-441v-99h546v-156h-1c-54 -21 -112 -68 -112 -121c0 -36 29 -58 67 -58c27 0 51 10 68 27z" />
    <glyph glyph-name="F.ss01" horiz-adv-x="839" 
d="M815 539h-529v-159h442v-159h-442v-221h-204v700h733v-161z" />
    <glyph glyph-name="G.ss01" horiz-adv-x="955" 
d="M907 381v-245c-75 -97 -213 -159 -400 -159c-287 0 -465 136 -465 373s178 373 465 373c173 0 298 -61 371 -129l-149 -110c-60 54 -123 78 -217 78c-170 0 -263 -75 -263 -212c0 -138 96 -213 266 -213c86 0 154 17 203 62v41h-232v141h421z" />
    <glyph glyph-name="Gbreve.ss01" horiz-adv-x="955" 
d="M703 949c0 -65 -49 -176 -201 -176c-153 0 -202 111 -202 176h119c3 -35 32 -70 83 -70s79 35 83 70h118zM907 381v-245c-75 -97 -213 -159 -400 -159c-287 0 -465 136 -465 373s178 373 465 373c173 0 298 -61 371 -129l-149 -110c-60 54 -123 78 -217 78
c-170 0 -263 -75 -263 -212c0 -138 96 -213 266 -213c86 0 154 17 203 62v41h-232v141h421z" />
    <glyph glyph-name="Gcircumflex.ss01" horiz-adv-x="955" 
d="M248 781h173l79 89l82 -89h173l-150 168h-206zM907 381v-245c-75 -97 -213 -159 -400 -159c-287 0 -465 136 -465 373s178 373 465 373c173 0 298 -61 371 -129l-149 -110c-60 54 -123 78 -217 78c-170 0 -263 -75 -263 -212c0 -138 96 -213 266 -213c86 0 154 17 203 62
v41h-232v141h421z" />
    <glyph glyph-name="Gcommaaccent.ss01" horiz-adv-x="955" 
d="M907 381v-245c-75 -97 -213 -159 -400 -159c-287 0 -465 136 -465 373s178 373 465 373c173 0 298 -61 371 -129l-149 -110c-60 54 -123 78 -217 78c-170 0 -263 -75 -263 -212c0 -138 96 -213 266 -213c86 0 154 17 203 62v41h-232v141h421zM502 -52
c75 0 120 -58 120 -126c0 -74 -49 -180 -155 -242l-40 55c50 38 83 74 97 121c-5 -5 -13 -8 -28 -8c-59 0 -106 43 -106 100c0 56 47 100 112 100z" />
    <glyph glyph-name="Gdotaccent.ss01" horiz-adv-x="955" 
d="M501 780c-54 0 -92 30 -92 77c0 49 38 78 92 78c55 0 92 -29 92 -78c0 -47 -37 -77 -92 -77zM907 381v-245c-75 -97 -213 -159 -400 -159c-287 0 -465 136 -465 373s178 373 465 373c173 0 298 -61 371 -129l-149 -110c-60 54 -123 78 -217 78c-170 0 -263 -75 -263 -212
c0 -138 96 -213 266 -213c86 0 154 17 203 62v41h-232v141h421z" />
    <glyph glyph-name="H.ss01" horiz-adv-x="992" 
d="M706 700h204v-700h-204v243h-420v-243h-204v700h204v-290h420v290z" />
    <glyph glyph-name="Hbar.ss01" horiz-adv-x="1067" 
d="M1051 577v-75h-104v-502h-204v243h-419v-243h-204v502h-103v75h103v123h204v-123h419v123h204v-123h104zM743 410v92h-419v-92h419z" />
    <glyph glyph-name="Hcircumflex.ss01" horiz-adv-x="992" 
d="M243 781h172l80 89l81 -89h173l-150 168h-206zM706 700h204v-700h-204v243h-420v-243h-204v700h204v-290h420v290z" />
    <glyph glyph-name="OE.ss01" horiz-adv-x="1457" 
d="M871 156h545v-156h-746h-189c-270 0 -439 130 -439 350s169 350 439 350h389h536v-156h-535v-141h441v-148h-441v-99zM670 159v382h-171c-151 0 -249 -67 -249 -191s98 -191 249 -191h171z" />
    <glyph glyph-name="P.ss01" horiz-adv-x="911" 
d="M560 700c199 0 326 -104 326 -265c0 -163 -127 -265 -326 -265h-274v-170h-204v700h478zM544 318c79 0 135 39 135 113c0 75 -56 114 -135 114h-258v-227h258z" />
    <glyph glyph-name="Thorn.ss01" horiz-adv-x="911" 
d="M563 617c192 0 323 -98 323 -259c0 -164 -131 -264 -323 -264h-277v-94h-204v700h204v-83h277zM548 245c79 0 131 39 131 111s-52 111 -131 111h-262v-222h262z" />
    <glyph glyph-name="Q.ss01" horiz-adv-x="997" 
d="M955 350c0 -217 -151 -349 -389 -370v-116h-135v116c-238 21 -389 153 -389 370c0 237 179 373 456 373s457 -136 457 -373zM566 149c114 19 181 90 181 201c0 132 -95 207 -249 207c-153 0 -249 -75 -249 -207c0 -111 68 -182 182 -202v122h135v-121z" />
    <glyph glyph-name="R.ss01" horiz-adv-x="940" 
d="M913 0h-237l-151 181h-240v-181h-203v700h483c187 0 326 -99 326 -259c0 -108 -63 -188 -161 -229zM284 329h267c77 0 133 36 133 108s-56 108 -133 108h-267v-216z" />
    <glyph glyph-name="Racute.ss01" horiz-adv-x="940" 
d="M710 948l-237 -168h-145l137 168h245zM913 0h-237l-151 181h-240v-181h-203v700h483c187 0 326 -99 326 -259c0 -108 -63 -188 -161 -229zM284 329h267c77 0 133 36 133 108s-56 108 -133 108h-267v-216z" />
    <glyph glyph-name="Rcaron.ss01" horiz-adv-x="940" 
d="M547 780h-206l-150 168h173l81 -89l80 89h172zM913 0h-237l-151 181h-240v-181h-203v700h483c187 0 326 -99 326 -259c0 -108 -63 -188 -161 -229zM284 329h267c77 0 133 36 133 108s-56 108 -133 108h-267v-216z" />
    <glyph glyph-name="Rcommaaccent.ss01" horiz-adv-x="940" 
d="M730 212l183 -212h-237l-151 181h-240v-181h-203v700h483c187 0 326 -99 326 -259c0 -108 -63 -188 -161 -229zM284 329h267c77 0 133 36 133 108s-56 108 -133 108h-267v-216zM463 -52c75 0 120 -58 120 -126c0 -74 -49 -180 -155 -242l-40 55c50 38 83 74 97 121
c-5 -5 -13 -8 -28 -8c-59 0 -106 43 -106 100c0 56 47 100 112 100z" />
    <glyph glyph-name="a.sc.ss01" horiz-adv-x="872" 
d="M662 0l-48 94h-358l-48 -94h-209l331 614h213l330 -614h-211zM324 227h222l-111 219z" />
    <glyph glyph-name="aacute.sc.ss01" horiz-adv-x="872" 
d="M703 862l-238 -168h-144l137 168h245zM662 0l-48 94h-358l-48 -94h-209l331 614h213l330 -614h-211zM324 227h222l-111 219z" />
    <glyph glyph-name="abreve.sc.ss01" horiz-adv-x="872" 
d="M437 686c-153 0 -202 111 -202 176h119c3 -35 31 -70 83 -70c51 0 79 35 82 70h119c0 -65 -49 -176 -201 -176zM662 0l-48 94h-358l-48 -94h-209l331 614h213l330 -614h-211zM324 227h222l-111 219z" />
    <glyph glyph-name="acircumflex.sc.ss01" horiz-adv-x="872" 
d="M435 783l-80 -89h-172l151 168h205l151 -168h-174zM662 0l-48 94h-358l-48 -94h-209l331 614h213l330 -614h-211zM324 227h222l-111 219z" />
    <glyph glyph-name="adieresis.sc.ss01" horiz-adv-x="872" 
d="M296 693c-55 0 -94 32 -94 80c0 49 39 79 94 79c54 0 94 -30 94 -79c0 -48 -40 -80 -94 -80zM577 693c-55 0 -94 32 -94 80c0 49 39 79 94 79c54 0 94 -30 94 -79c0 -48 -40 -80 -94 -80zM662 0l-48 94h-358l-48 -94h-209l331 614h213l330 -614h-211zM324 227h222
l-111 219z" />
    <glyph glyph-name="agrave.sc.ss01" horiz-adv-x="872" 
d="M552 694h-145l-237 168h245zM662 0l-48 94h-358l-48 -94h-209l331 614h213l330 -614h-211zM324 227h222l-111 219z" />
    <glyph glyph-name="amacron.sc.ss01" horiz-adv-x="872" 
d="M669 841v-132h-465v132h465zM662 0l-48 94h-358l-48 -94h-209l331 614h213l330 -614h-211zM324 227h222l-111 219z" />
    <glyph glyph-name="aogonek.sc.ss01" horiz-adv-x="872" 
d="M896 -152l32 -40c-20 -27 -63 -61 -141 -61c-81 0 -160 38 -160 119c0 57 38 110 115 134h-80l-48 94h-358l-48 -94h-209l331 614h213l330 -614c-55 -21 -112 -68 -112 -121c0 -36 29 -58 67 -58c26 0 50 10 68 27zM324 227h222l-111 219z" />
    <glyph glyph-name="aring.sc.ss01" horiz-adv-x="872" 
d="M436 683c-97 0 -162 42 -162 121c0 77 65 122 162 122s163 -45 163 -122c0 -79 -66 -121 -163 -121zM436 854c-33 0 -54 -19 -54 -50c0 -32 21 -51 54 -51s55 19 55 51c0 31 -22 50 -55 50zM662 0l-48 94h-358l-48 -94h-209l331 614h213l330 -614h-211zM324 227h222
l-111 219z" />
    <glyph glyph-name="aringacute.sc.ss01" horiz-adv-x="872" 
d="M436 683c-97 0 -162 42 -162 121c0 32 11 58 31 78l94 127h190l-111 -86c73 -11 121 -54 121 -119c0 -79 -66 -121 -163 -121zM491 804c0 31 -22 50 -55 50s-54 -19 -54 -50c0 -32 21 -51 54 -51s55 19 55 51zM662 0l-48 94h-358l-48 -94h-209l331 614h213l330 -614h-211
zM324 227h222l-111 219z" />
    <glyph glyph-name="atilde.sc.ss01" horiz-adv-x="872" 
d="M335 737c-47 0 -73 -18 -102 -44l-78 120c33 38 94 71 165 71c90 0 141 -50 218 -50c46 0 76 18 100 44l80 -121c-34 -38 -94 -70 -164 -70c-91 0 -144 50 -219 50zM662 0l-48 94h-358l-48 -94h-209l331 614h213l330 -614h-211zM324 227h222l-111 219z" />
    <glyph glyph-name="ae.sc.ss01" horiz-adv-x="1339" 
d="M802 150h493v-150h-689v112h-304l-95 -112h-222l544 614h96h660v-148h-483v-99h396v-141h-396v-76zM418 246h188v220z" />
    <glyph glyph-name="aeacute.sc.ss01" horiz-adv-x="1339" 
d="M1111 862l-237 -168h-145l137 168h245zM802 150h493v-150h-689v115h-301l-98 -115h-222l544 614h96h660v-148h-483v-85h396v-140h-396v-91zM421 250h185v216z" />
    <glyph glyph-name="e.sc.ss01" horiz-adv-x="811" 
d="M274 149h494v-149h-689v614h679v-148h-484v-100h394v-140h-394v-77z" />
    <glyph glyph-name="eacute.sc.ss01" horiz-adv-x="811" 
d="M682 862l-237 -168h-145l137 168h245zM274 149h494v-149h-689v614h679v-148h-484v-100h394v-140h-394v-77z" />
    <glyph glyph-name="ebreve.sc.ss01" horiz-adv-x="811" 
d="M617 862c0 -65 -49 -176 -201 -176c-153 0 -202 111 -202 176h119c3 -35 31 -70 83 -70c51 0 79 35 83 70h118zM274 149h494v-149h-689v614h679v-148h-484v-100h394v-140h-394v-77z" />
    <glyph glyph-name="ecaron.sc.ss01" horiz-adv-x="811" 
d="M162 862l151 -168h205l151 168h-172l-81 -89l-81 89h-173zM274 149h494v-149h-689v614h679v-148h-484v-100h394v-140h-394v-77z" />
    <glyph glyph-name="ecircumflex.sc.ss01" horiz-adv-x="811" 
d="M162 694h172l80 89l81 -89h174l-151 168h-205zM274 149h494v-149h-689v614h679v-148h-484v-100h394v-140h-394v-77z" />
    <glyph glyph-name="edieresis.sc.ss01" horiz-adv-x="811" 
d="M275 693c-55 0 -94 32 -94 80c0 49 39 79 94 79c54 0 94 -30 94 -79c0 -48 -40 -80 -94 -80zM556 693c-55 0 -94 32 -94 80c0 49 39 79 94 79c54 0 94 -30 94 -79c0 -48 -40 -80 -94 -80zM274 149h494v-149h-689v614h679v-148h-484v-100h394v-140h-394v-77z" />
    <glyph glyph-name="edotaccent.sc.ss01" horiz-adv-x="811" 
d="M415 693c-54 0 -92 30 -92 77c0 49 38 78 92 78s92 -29 92 -78c0 -47 -38 -77 -92 -77zM274 149h494v-149h-689v614h679v-148h-484v-100h394v-140h-394v-77z" />
    <glyph glyph-name="egrave.sc.ss01" horiz-adv-x="811" 
d="M149 862h245l137 -168h-145zM274 149h494v-149h-689v614h679v-148h-484v-100h394v-140h-394v-77z" />
    <glyph glyph-name="emacron.sc.ss01" horiz-adv-x="811" 
d="M183 841h465v-132h-465v132zM274 149h494v-149h-689v614h679v-148h-484v-100h394v-140h-394v-77z" />
    <glyph glyph-name="eogonek.sc.ss01" horiz-adv-x="811" 
d="M789 -152l33 -40c-20 -27 -63 -61 -142 -61c-80 0 -159 38 -159 119c0 57 38 110 115 134h-557v614h679v-148h-484v-100h394v-140h-394v-77h494v-149h-2c-54 -21 -111 -68 -111 -121c0 -36 28 -58 67 -58c26 0 50 10 67 27z" />
    <glyph glyph-name="f.sc.ss01" horiz-adv-x="780" 
d="M755 461h-478v-130h392v-151h-392v-180h-198v614h676v-153z" />
    <glyph glyph-name="fi.sc.ss01" horiz-adv-x="1136" 
d="M755 461h-478v-130h392v-151h-392v-180h-198v614h676v-153zM1057 0h-198v614h198v-614z" />
    <glyph glyph-name="fl.sc.ss01" horiz-adv-x="1504" 
d="M755 461h-478v-130h392v-151h-392v-180h-198v614h676v-153zM1057 156h425v-156h-623v614h198v-458z" />
    <glyph glyph-name="g.sc.ss01" horiz-adv-x="884" 
d="M837 336v-228c-69 -77 -198 -129 -367 -129c-265 0 -429 119 -429 328s164 329 428 329c160 0 268 -46 344 -109l-145 -107c-56 44 -112 61 -191 61c-154 0 -234 -62 -234 -174s83 -176 234 -176c73 0 132 11 175 47v30h-202v128h387z" />
    <glyph glyph-name="gbreve.sc.ss01" horiz-adv-x="884" 
d="M666 863c0 -65 -49 -176 -201 -176c-153 0 -201 111 -201 176h118c4 -35 32 -70 83 -70s79 35 83 70h118zM837 336v-228c-69 -77 -198 -129 -367 -129c-265 0 -429 119 -429 328s164 329 428 329c160 0 268 -46 344 -109l-145 -107c-56 44 -112 61 -191 61
c-154 0 -234 -62 -234 -174s83 -176 234 -176c73 0 132 11 175 47v30h-202v128h387z" />
    <glyph glyph-name="gcircumflex.sc.ss01" horiz-adv-x="884" 
d="M211 695h173l80 89l81 -89h173l-150 168h-206zM837 336v-228c-69 -77 -198 -129 -367 -129c-265 0 -429 119 -429 328s164 329 428 329c160 0 268 -46 344 -109l-145 -107c-56 44 -112 61 -191 61c-154 0 -234 -62 -234 -174s83 -176 234 -176c73 0 132 11 175 47v30
h-202v128h387z" />
    <glyph glyph-name="gcommaaccent.sc.ss01" horiz-adv-x="884" 
d="M837 336v-228c-69 -77 -198 -129 -367 -129c-265 0 -429 119 -429 328s164 329 428 329c160 0 268 -46 344 -109l-145 -107c-56 44 -112 61 -191 61c-154 0 -234 -62 -234 -174s83 -176 234 -176c73 0 132 11 175 47v30h-202v128h387zM465 -52c75 0 120 -58 120 -126
c0 -74 -49 -180 -155 -242l-40 55c50 38 83 74 97 121c-5 -5 -13 -8 -28 -8c-59 0 -106 43 -106 100c0 56 47 100 112 100z" />
    <glyph glyph-name="gdotaccent.sc.ss01" horiz-adv-x="884" 
d="M465 694c-55 0 -93 30 -93 77c0 49 38 78 93 78c54 0 91 -29 91 -78c0 -47 -37 -77 -91 -77zM837 336v-228c-69 -77 -198 -129 -367 -129c-265 0 -429 119 -429 328s164 329 428 329c160 0 268 -46 344 -109l-145 -107c-56 44 -112 61 -191 61c-154 0 -234 -62 -234 -174
s83 -176 234 -176c73 0 132 11 175 47v30h-202v128h387z" />
    <glyph glyph-name="h.sc.ss01" horiz-adv-x="921" 
d="M644 614h199v-614h-199v204h-367v-204h-198v614h198v-248h367v248z" />
    <glyph glyph-name="hbar.sc.ss01" horiz-adv-x="991" 
d="M970 525v-73h-93v-452h-198v204h-368v-204h-198v452h-93v73h93v89h198v-89h368v89h198v-89h93zM679 366v86h-368v-86h368z" />
    <glyph glyph-name="hcircumflex.sc.ss01" horiz-adv-x="921" 
d="M208 695h172l80 89l81 -89h174l-151 168h-206zM644 614h199v-614h-199v204h-367v-204h-198v614h198v-248h367v248z" />
    <glyph glyph-name="oe.sc.ss01" horiz-adv-x="1344" 
d="M807 149h494v-149h-689h-167c-249 0 -404 114 -404 307c0 194 155 307 404 307h360h486v-148h-484v-100h394v-140h-394v-77zM612 153v308h-150c-133 0 -218 -54 -218 -154c0 -99 85 -154 218 -154h150z" />
    <glyph glyph-name="p.sc.ss01" horiz-adv-x="847" 
d="M525 614c176 0 295 -88 295 -233c0 -147 -119 -235 -295 -235h-248v-146h-198v614h446zM509 288c65 0 111 30 111 89c0 58 -46 88 -111 88h-233v-177h233z" />
    <glyph glyph-name="thorn.sc.ss01" horiz-adv-x="847" 
d="M522 542c176 0 298 -83 298 -228c0 -148 -122 -232 -298 -232h-245v-82h-198v614h198v-72h245zM505 227c70 0 115 29 115 85c0 58 -45 85 -115 85h-229v-170h229z" />
    <glyph glyph-name="q.sc.ss01" horiz-adv-x="917" 
d="M875 307c0 -190 -135 -307 -353 -326v-97h-129v97c-217 20 -352 137 -352 326c0 209 163 329 418 329c254 0 416 -120 416 -329zM522 141c95 17 152 77 152 166c0 108 -83 172 -216 172c-134 0 -216 -64 -216 -172c0 -89 56 -148 151 -166v109h129v-109z" />
    <glyph glyph-name="r.sc.ss01" horiz-adv-x="875" 
d="M845 0h-231l-135 158h-203v-158h-197v614h452c164 0 294 -85 294 -226c0 -97 -57 -167 -145 -203zM274 300h240c65 0 111 28 111 83s-46 83 -111 83h-240v-166z" />
    <glyph glyph-name="racute.sc.ss01" horiz-adv-x="875" 
d="M679 862l-237 -168h-145l137 168h245zM845 0h-231l-135 158h-203v-158h-197v614h452c164 0 294 -85 294 -226c0 -97 -57 -167 -145 -203zM274 300h240c65 0 111 28 111 83s-46 83 -111 83h-240v-166z" />
    <glyph glyph-name="rcaron.sc.ss01" horiz-adv-x="875" 
d="M516 694h-206l-151 168h173l81 -89l81 89h172zM845 0h-231l-135 158h-203v-158h-197v614h452c164 0 294 -85 294 -226c0 -97 -57 -167 -145 -203zM274 300h240c65 0 111 28 111 83s-46 83 -111 83h-240v-166z" />
    <glyph glyph-name="rcommaaccent.sc.ss01" horiz-adv-x="875" 
d="M680 185l165 -185h-231l-135 158h-203v-158h-197v614h452c164 0 294 -85 294 -226c0 -97 -57 -167 -145 -203zM274 300h240c65 0 111 28 111 83s-46 83 -111 83h-240v-166zM430 -52c75 0 120 -58 120 -126c0 -74 -49 -180 -155 -242l-40 55c50 38 83 74 97 121
c-5 -5 -13 -8 -28 -8c-59 0 -106 43 -106 100c0 56 47 100 112 100z" />
    <glyph glyph-name="uni20A8.ss01" horiz-adv-x="887" 
d="M847 586h-159c19 -25 32 -53 40 -84h119v-114h-120c-19 -80 -77 -139 -159 -171l188 -217h-205l-159 189h-334v115h338c85 0 137 32 157 84h-495v114h495c-21 52 -72 84 -157 84h-338v114h789v-114z" />
    <glyph glyph-name="registered.ss01" horiz-adv-x="577" 
d="M288 710c130 0 246 -80 246 -215s-116 -215 -246 -215s-244 80 -244 215s114 215 244 215zM289 312c113 0 209 65 209 183c0 119 -96 183 -209 183c-114 0 -209 -64 -209 -183c0 -118 95 -183 209 -183zM422 528c0 -34 -20 -59 -50 -72l56 -65h-80l-46 55h-63v-55h-71
v220h152c58 0 102 -31 102 -83zM239 561v-69h70c26 0 40 14 40 35c0 22 -14 34 -40 34h-70z" />
    <glyph glyph-name="uni2117.ss01" horiz-adv-x="989" 
d="M495 723c274 0 452 -149 452 -373s-178 -373 -452 -373c-275 0 -453 149 -453 373s178 373 453 373zM495 25c235 0 400 117 400 325s-165 326 -400 326s-402 -118 -402 -326s167 -325 402 -325zM576 593c133 0 235 -65 235 -181c0 -117 -102 -182 -235 -182h-172v-122
h-156v485h328zM561 332c55 0 92 26 92 77c0 50 -37 76 -92 76h-157v-153h157z" />
    <glyph glyph-name="registered.case.ss01" horiz-adv-x="989" 
d="M495 723c274 0 452 -149 452 -373s-178 -373 -452 -373c-275 0 -453 149 -453 373s178 373 453 373zM790 115c67 55 105 134 105 235c0 208 -165 326 -400 326s-402 -118 -402 -326s167 -325 402 -325c117 0 216 29 287 83h-158l-93 126h-145v-126h-156v485h328
c129 0 235 -63 235 -179c0 -78 -47 -132 -118 -159zM386 335h160c53 0 89 27 89 75s-36 75 -89 75h-160v-150z" />
    <glyph glyph-name="uni2117.sc.001" horiz-adv-x="915" 
d="M457 -20c-251 0 -416 131 -416 327c0 198 165 328 416 328c252 0 417 -130 417 -328c0 -196 -165 -327 -417 -327zM457 24c215 0 369 103 369 283c0 181 -154 283 -369 283s-368 -102 -368 -283c0 -180 153 -283 368 -283zM530 521c120 0 218 -59 218 -163
c0 -105 -98 -163 -218 -163h-150v-101h-151v427h301zM517 297c46 0 78 19 78 59s-32 59 -78 59h-137v-118h137z" />
    <glyph glyph-name="registered.sc.ss01" horiz-adv-x="915" 
d="M457 636c252 0 417 -131 417 -329c0 -196 -165 -328 -417 -328c-251 0 -416 132 -416 328c0 198 165 329 416 329zM731 105c60 48 95 116 95 202c0 181 -154 284 -369 284s-368 -103 -368 -284c0 -180 153 -283 368 -283c105 0 195 24 260 70h-144l-79 105h-129v-105
h-152v427h303c118 0 217 -56 217 -161c0 -67 -40 -114 -101 -139zM365 301h141c46 0 74 22 74 57s-28 57 -74 57h-141v-114z" />
    <glyph glyph-name="uni20A8.sc.ss01" horiz-adv-x="821" 
d="M781 500h-141c14 -19 24 -41 31 -65h110v-114h-110c-18 -65 -65 -115 -131 -146l158 -175h-201l-124 143h-316v114h309c71 0 114 25 134 64h-443v114h443c-19 40 -63 65 -134 65h-309v114h724v-114z" />
    </font>
</defs>
</svg>
